<?xml version="1.0" encoding="utf-8" standalone="no"?>
<!DOCTYPE svg PUBLIC "-//W3C//DTD SVG 1.1//EN"
  "http://www.w3.org/Graphics/SVG/1.1/DTD/svg11.dtd">
<svg xmlns:xlink="http://www.w3.org/1999/xlink" width="244.276563pt" height="296.789812pt" viewBox="0 0 244.276563 296.789812" xmlns="http://www.w3.org/2000/svg" version="1.1">
 <metadata>
  <rdf:RDF xmlns:dc="http://purl.org/dc/elements/1.1/" xmlns:cc="http://creativecommons.org/ns#" xmlns:rdf="http://www.w3.org/1999/02/22-rdf-syntax-ns#">
   <cc:Work>
    <dc:type rdf:resource="http://purl.org/dc/dcmitype/StillImage"/>
    <dc:date>2026-02-01T10:39:03.338008</dc:date>
    <dc:format>image/svg+xml</dc:format>
    <dc:creator>
     <cc:Agent>
      <dc:title>Matplotlib v3.7.5, https://matplotlib.org/</dc:title>
     </cc:Agent>
    </dc:creator>
   </cc:Work>
  </rdf:RDF>
 </metadata>
 <defs>
  <style type="text/css">*{stroke-linejoin: round; stroke-linecap: butt}</style>
 </defs>
 <g id="figure_1">
  <g id="patch_1">
   <path d="M 0 296.789812 
L 244.276563 296.789812 
L 244.276563 0 
L 0 0 
z
" style="fill: #ffffff"/>
  </g>
  <g id="axes_1">
   <g id="patch_2">
    <path d="M 38.836562 80.95925 
L 237.076563 80.95925 
L 237.076563 19.4 
L 38.836562 19.4 
z
" style="fill: #ffffff"/>
   </g>
   <g id="matplotlib.axis_1">
    <g id="xtick_1">
     <g id="line2d_1">
      <path d="M 64.354961 80.95925 
L 64.354961 19.4 
" clip-path="url(#p42133de0e0)" style="fill: none; stroke-dasharray: 1.85,0.8; stroke-dashoffset: 0; stroke: #b0b0b0; stroke-opacity: 0.5; stroke-width: 0.5"/>
     </g>
     <g id="line2d_2">
      <defs>
       <path id="m257b82d5d1" d="M 0 0 
L 0 -3 
" style="stroke: #000000; stroke-width: 0.5"/>
      </defs>
      <g>
       <use xlink:href="#m257b82d5d1" x="64.354961" y="80.95925" style="stroke: #000000; stroke-width: 0.5"/>
      </g>
     </g>
     <g id="text_1">
      <!-- −4 -->
      <g transform="translate(58.458086 90.538) scale(0.08 -0.08)">
       <defs>
        <path id="DejaVuSerif-2212" d="M 678 2259 
L 4684 2259 
L 4684 1753 
L 678 1753 
L 678 2259 
z
" transform="scale(0.015625)"/>
        <path id="DejaVuSerif-34" d="M 2234 1581 
L 2234 4063 
L 641 1581 
L 2234 1581 
z
M 3609 0 
L 1484 0 
L 1484 331 
L 2234 331 
L 2234 1247 
L 197 1247 
L 197 1588 
L 2241 4750 
L 2859 4750 
L 2859 1581 
L 3750 1581 
L 3750 1247 
L 2859 1247 
L 2859 331 
L 3609 331 
L 3609 0 
z
" transform="scale(0.015625)"/>
       </defs>
       <use xlink:href="#DejaVuSerif-2212"/>
       <use xlink:href="#DejaVuSerif-34" x="83.789062"/>
      </g>
     </g>
    </g>
    <g id="xtick_2">
     <g id="line2d_3">
      <path d="M 99.443163 80.95925 
L 99.443163 19.4 
" clip-path="url(#p42133de0e0)" style="fill: none; stroke-dasharray: 1.85,0.8; stroke-dashoffset: 0; stroke: #b0b0b0; stroke-opacity: 0.5; stroke-width: 0.5"/>
     </g>
     <g id="line2d_4">
      <g>
       <use xlink:href="#m257b82d5d1" x="99.443163" y="80.95925" style="stroke: #000000; stroke-width: 0.5"/>
      </g>
     </g>
     <g id="text_2">
      <!-- −3 -->
      <g transform="translate(93.546288 90.538) scale(0.08 -0.08)">
       <defs>
        <path id="DejaVuSerif-33" d="M 622 4469 
Q 988 4606 1323 4678 
Q 1659 4750 1953 4750 
Q 2638 4750 3022 4454 
Q 3406 4159 3406 3634 
Q 3406 3213 3140 2930 
Q 2875 2647 2388 2547 
Q 2963 2466 3280 2130 
Q 3597 1794 3597 1259 
Q 3597 606 3158 257 
Q 2719 -91 1894 -91 
Q 1528 -91 1179 -12 
Q 831 66 488 225 
L 488 1131 
L 838 1131 
Q 869 681 1141 450 
Q 1413 219 1906 219 
Q 2384 219 2661 495 
Q 2938 772 2938 1253 
Q 2938 1803 2653 2086 
Q 2369 2369 1819 2369 
L 1522 2369 
L 1522 2688 
L 1678 2688 
Q 2225 2688 2498 2914 
Q 2772 3141 2772 3597 
Q 2772 4006 2547 4223 
Q 2322 4441 1900 4441 
Q 1478 4441 1245 4241 
Q 1013 4041 972 3647 
L 622 3647 
L 622 4469 
z
" transform="scale(0.015625)"/>
       </defs>
       <use xlink:href="#DejaVuSerif-2212"/>
       <use xlink:href="#DejaVuSerif-33" x="83.789062"/>
      </g>
     </g>
    </g>
    <g id="xtick_3">
     <g id="line2d_5">
      <path d="M 134.531366 80.95925 
L 134.531366 19.4 
" clip-path="url(#p42133de0e0)" style="fill: none; stroke-dasharray: 1.85,0.8; stroke-dashoffset: 0; stroke: #b0b0b0; stroke-opacity: 0.5; stroke-width: 0.5"/>
     </g>
     <g id="line2d_6">
      <g>
       <use xlink:href="#m257b82d5d1" x="134.531366" y="80.95925" style="stroke: #000000; stroke-width: 0.5"/>
      </g>
     </g>
     <g id="text_3">
      <!-- −2 -->
      <g transform="translate(128.634491 90.538) scale(0.08 -0.08)">
       <defs>
        <path id="DejaVuSerif-32" d="M 819 3553 
L 469 3553 
L 469 4384 
Q 803 4563 1142 4656 
Q 1481 4750 1806 4750 
Q 2534 4750 2956 4397 
Q 3378 4044 3378 3438 
Q 3378 2753 2422 1800 
Q 2347 1728 2309 1691 
L 1131 513 
L 3078 513 
L 3078 1088 
L 3444 1088 
L 3444 0 
L 434 0 
L 434 341 
L 1850 1753 
Q 2319 2222 2519 2614 
Q 2719 3006 2719 3438 
Q 2719 3909 2473 4175 
Q 2228 4441 1797 4441 
Q 1350 4441 1106 4219 
Q 863 3997 819 3553 
z
" transform="scale(0.015625)"/>
       </defs>
       <use xlink:href="#DejaVuSerif-2212"/>
       <use xlink:href="#DejaVuSerif-32" x="83.789062"/>
      </g>
     </g>
    </g>
    <g id="xtick_4">
     <g id="line2d_7">
      <path d="M 169.619568 80.95925 
L 169.619568 19.4 
" clip-path="url(#p42133de0e0)" style="fill: none; stroke-dasharray: 1.85,0.8; stroke-dashoffset: 0; stroke: #b0b0b0; stroke-opacity: 0.5; stroke-width: 0.5"/>
     </g>
     <g id="line2d_8">
      <g>
       <use xlink:href="#m257b82d5d1" x="169.619568" y="80.95925" style="stroke: #000000; stroke-width: 0.5"/>
      </g>
     </g>
     <g id="text_4">
      <!-- −1 -->
      <g transform="translate(163.722693 90.538) scale(0.08 -0.08)">
       <defs>
        <path id="DejaVuSerif-31" d="M 909 0 
L 909 331 
L 1722 331 
L 1722 4213 
L 781 3603 
L 781 4013 
L 1919 4750 
L 2350 4750 
L 2350 331 
L 3163 331 
L 3163 0 
L 909 0 
z
" transform="scale(0.015625)"/>
       </defs>
       <use xlink:href="#DejaVuSerif-2212"/>
       <use xlink:href="#DejaVuSerif-31" x="83.789062"/>
      </g>
     </g>
    </g>
    <g id="xtick_5">
     <g id="line2d_9">
      <path d="M 204.70777 80.95925 
L 204.70777 19.4 
" clip-path="url(#p42133de0e0)" style="fill: none; stroke-dasharray: 1.85,0.8; stroke-dashoffset: 0; stroke: #b0b0b0; stroke-opacity: 0.5; stroke-width: 0.5"/>
     </g>
     <g id="line2d_10">
      <g>
       <use xlink:href="#m257b82d5d1" x="204.70777" y="80.95925" style="stroke: #000000; stroke-width: 0.5"/>
      </g>
     </g>
     <g id="text_5">
      <!-- 0 -->
      <g transform="translate(202.16277 90.538) scale(0.08 -0.08)">
       <defs>
        <path id="DejaVuSerif-30" d="M 2034 219 
Q 2513 219 2750 744 
Q 2988 1269 2988 2328 
Q 2988 3391 2750 3916 
Q 2513 4441 2034 4441 
Q 1556 4441 1318 3916 
Q 1081 3391 1081 2328 
Q 1081 1269 1318 744 
Q 1556 219 2034 219 
z
M 2034 -91 
Q 1275 -91 848 546 
Q 422 1184 422 2328 
Q 422 3475 848 4112 
Q 1275 4750 2034 4750 
Q 2797 4750 3222 4112 
Q 3647 3475 3647 2328 
Q 3647 1184 3222 546 
Q 2797 -91 2034 -91 
z
" transform="scale(0.015625)"/>
       </defs>
       <use xlink:href="#DejaVuSerif-30"/>
      </g>
     </g>
    </g>
    <g id="text_6">
     <!-- $v_{x}$ [m/s] -->
     <g transform="translate(121.306563 103.040344) scale(0.09 -0.09)">
      <defs>
       <path id="STIXGeneral-Italic-76" d="M 1325 448 
L 1523 653 
Q 1869 1005 2134 1456 
Q 2400 1907 2400 2131 
Q 2400 2208 2285 2317 
Q 2125 2458 2125 2605 
Q 2125 2701 2195 2761 
Q 2266 2822 2368 2822 
Q 2522 2822 2624 2704 
Q 2726 2586 2726 2445 
Q 2726 2074 2323 1453 
Q 1971 909 1562 474 
Q 1504 416 1421 326 
Q 1338 237 1299 192 
Q 1261 147 1200 86 
Q 1139 26 1110 -3 
Q 1082 -32 1043 -64 
Q 1005 -96 979 -105 
Q 954 -115 928 -115 
Q 870 -115 870 58 
L 870 211 
Q 870 1094 717 1990 
Q 653 2355 579 2470 
Q 506 2586 326 2586 
Q 198 2586 128 2579 
L 128 2662 
Q 480 2720 845 2797 
Q 915 2822 973 2822 
Q 1011 2822 1033 2739 
Q 1056 2656 1165 2093 
Q 1280 1510 1325 448 
z
" transform="scale(0.015625)"/>
       <path id="STIXGeneral-Italic-78" d="M 1555 2272 
L 1632 1907 
Q 1971 2426 2179 2624 
Q 2387 2822 2598 2822 
Q 2714 2822 2787 2755 
Q 2861 2688 2861 2585 
Q 2861 2483 2800 2419 
Q 2739 2355 2643 2355 
Q 2586 2355 2490 2409 
Q 2394 2464 2310 2464 
Q 2125 2464 1683 1690 
Q 1683 1606 1734 1402 
L 1939 544 
Q 2003 282 2131 282 
Q 2234 282 2432 538 
Q 2451 563 2476 598 
Q 2502 634 2521 662 
Q 2541 691 2566 717 
L 2662 659 
Q 2387 230 2227 80 
Q 2067 -70 1882 -70 
Q 1728 -70 1645 26 
Q 1562 122 1504 365 
L 1318 1126 
L 755 365 
Q 557 96 432 13 
Q 307 -70 147 -70 
Q 0 -70 -86 0 
Q -173 70 -173 198 
Q -173 294 -112 361 
Q -51 429 45 429 
Q 122 429 250 358 
Q 346 301 416 301 
Q 525 301 742 614 
L 1267 1357 
L 1088 2150 
Q 1024 2432 969 2509 
Q 915 2586 794 2586 
Q 717 2586 544 2541 
L 429 2509 
L 410 2611 
L 480 2637 
Q 992 2822 1229 2822 
Q 1350 2822 1420 2707 
Q 1491 2592 1555 2272 
z
" transform="scale(0.015625)"/>
       <path id="DejaVuSerif-20" transform="scale(0.015625)"/>
       <path id="DejaVuSerif-5b" d="M 550 4863 
L 2003 4863 
L 2003 4531 
L 1147 4531 
L 1147 -513 
L 2003 -513 
L 2003 -844 
L 550 -844 
L 550 4863 
z
" transform="scale(0.015625)"/>
       <path id="DejaVuSerif-6d" d="M 3316 2675 
Q 3481 3041 3739 3227 
Q 3997 3413 4341 3413 
Q 4863 3413 5119 3089 
Q 5375 2766 5375 2113 
L 5375 331 
L 5894 331 
L 5894 0 
L 4300 0 
L 4300 331 
L 4800 331 
L 4800 2047 
Q 4800 2556 4650 2772 
Q 4500 2988 4153 2988 
Q 3769 2988 3567 2697 
Q 3366 2406 3366 1850 
L 3366 331 
L 3866 331 
L 3866 0 
L 2291 0 
L 2291 331 
L 2791 331 
L 2791 2069 
Q 2791 2566 2641 2777 
Q 2491 2988 2144 2988 
Q 1759 2988 1557 2697 
Q 1356 2406 1356 1850 
L 1356 331 
L 1856 331 
L 1856 0 
L 263 0 
L 263 331 
L 781 331 
L 781 2994 
L 231 2994 
L 231 3322 
L 1356 3322 
L 1356 2731 
Q 1516 3063 1762 3238 
Q 2009 3413 2322 3413 
Q 2709 3413 2968 3220 
Q 3228 3028 3316 2675 
z
" transform="scale(0.015625)"/>
       <path id="DejaVuSerif-2f" d="M 1656 4666 
L 2156 4666 
L 500 -594 
L 0 -594 
L 1656 4666 
z
" transform="scale(0.015625)"/>
       <path id="DejaVuSerif-73" d="M 359 184 
L 359 959 
L 691 959 
Q 703 588 923 403 
Q 1144 219 1575 219 
Q 1963 219 2166 364 
Q 2369 509 2369 788 
Q 2369 1006 2220 1140 
Q 2072 1275 1594 1428 
L 1178 1569 
Q 750 1706 558 1912 
Q 366 2119 366 2438 
Q 366 2894 700 3153 
Q 1034 3413 1625 3413 
Q 1888 3413 2178 3344 
Q 2469 3275 2778 3144 
L 2778 2419 
L 2447 2419 
Q 2434 2741 2221 2922 
Q 2009 3103 1644 3103 
Q 1281 3103 1095 2975 
Q 909 2847 909 2591 
Q 909 2381 1050 2254 
Q 1191 2128 1613 1997 
L 2069 1856 
Q 2541 1709 2748 1489 
Q 2956 1269 2956 922 
Q 2956 450 2595 179 
Q 2234 -91 1600 -91 
Q 1278 -91 972 -22 
Q 666 47 359 184 
z
" transform="scale(0.015625)"/>
       <path id="DejaVuSerif-5d" d="M 1947 4863 
L 1947 -844 
L 494 -844 
L 494 -513 
L 1350 -513 
L 1350 4531 
L 494 4531 
L 494 4863 
L 1947 4863 
z
" transform="scale(0.015625)"/>
      </defs>
      <use xlink:href="#STIXGeneral-Italic-76" transform="translate(0 0.015625)"/>
      <use xlink:href="#STIXGeneral-Italic-78" transform="translate(44.399994 -13.2125) scale(0.7)"/>
      <use xlink:href="#DejaVuSerif-20" transform="translate(79.889365 0.015625)"/>
      <use xlink:href="#DejaVuSerif-5b" transform="translate(111.676474 0.015625)"/>
      <use xlink:href="#DejaVuSerif-6d" transform="translate(150.690146 0.015625)"/>
      <use xlink:href="#DejaVuSerif-2f" transform="translate(245.514365 0.015625)"/>
      <use xlink:href="#DejaVuSerif-73" transform="translate(279.205771 0.015625)"/>
      <use xlink:href="#DejaVuSerif-5d" transform="translate(330.52413 0.015625)"/>
     </g>
    </g>
   </g>
   <g id="matplotlib.axis_2">
    <g id="ytick_1">
     <g id="line2d_11">
      <path d="M 38.836562 63.620901 
L 237.076563 63.620901 
" clip-path="url(#p42133de0e0)" style="fill: none; stroke-dasharray: 1.85,0.8; stroke-dashoffset: 0; stroke: #b0b0b0; stroke-opacity: 0.5; stroke-width: 0.5"/>
     </g>
     <g id="line2d_12">
      <defs>
       <path id="m4d367cadd2" d="M 0 0 
L 3 0 
" style="stroke: #000000; stroke-width: 0.5"/>
      </defs>
      <g>
       <use xlink:href="#m4d367cadd2" x="38.836562" y="63.620901" style="stroke: #000000; stroke-width: 0.5"/>
      </g>
     </g>
     <g id="text_7">
      <!-- 0.0 -->
      <g transform="translate(22.614062 66.660276) scale(0.08 -0.08)">
       <defs>
        <path id="DejaVuSerif-2e" d="M 603 325 
Q 603 500 722 622 
Q 841 744 1019 744 
Q 1191 744 1312 622 
Q 1434 500 1434 325 
Q 1434 153 1312 31 
Q 1191 -91 1019 -91 
Q 841 -91 722 29 
Q 603 150 603 325 
z
" transform="scale(0.015625)"/>
       </defs>
       <use xlink:href="#DejaVuSerif-30"/>
       <use xlink:href="#DejaVuSerif-2e" x="63.623047"/>
       <use xlink:href="#DejaVuSerif-30" x="95.410156"/>
      </g>
     </g>
    </g>
    <g id="ytick_2">
     <g id="line2d_13">
      <path d="M 38.836562 23.774287 
L 237.076563 23.774287 
" clip-path="url(#p42133de0e0)" style="fill: none; stroke-dasharray: 1.85,0.8; stroke-dashoffset: 0; stroke: #b0b0b0; stroke-opacity: 0.5; stroke-width: 0.5"/>
     </g>
     <g id="line2d_14">
      <g>
       <use xlink:href="#m4d367cadd2" x="38.836562" y="23.774287" style="stroke: #000000; stroke-width: 0.5"/>
      </g>
     </g>
     <g id="text_8">
      <!-- 5.0 -->
      <g transform="translate(22.614062 26.813662) scale(0.08 -0.08)">
       <defs>
        <path id="DejaVuSerif-35" d="M 3219 4666 
L 3219 4153 
L 1081 4153 
L 1081 2816 
Q 1244 2928 1461 2984 
Q 1678 3041 1947 3041 
Q 2703 3041 3140 2622 
Q 3578 2203 3578 1478 
Q 3578 738 3136 323 
Q 2694 -91 1894 -91 
Q 1572 -91 1234 -12 
Q 897 66 544 225 
L 544 1131 
L 897 1131 
Q 925 688 1179 453 
Q 1434 219 1894 219 
Q 2388 219 2653 544 
Q 2919 869 2919 1478 
Q 2919 2084 2655 2407 
Q 2391 2731 1894 2731 
Q 1613 2731 1398 2631 
Q 1184 2531 1019 2322 
L 750 2322 
L 750 4666 
L 3219 4666 
z
" transform="scale(0.015625)"/>
       </defs>
       <use xlink:href="#DejaVuSerif-35"/>
       <use xlink:href="#DejaVuSerif-2e" x="63.623047"/>
       <use xlink:href="#DejaVuSerif-30" x="95.410156"/>
      </g>
     </g>
    </g>
    <g id="text_9">
     <!-- $\Delta a_{x}$ [m/s²] -->
     <g transform="translate(16.742344 72.139625) rotate(-90) scale(0.09 -0.09)">
      <defs>
       <path id="STIXGeneral-Regular-394" d="M 4320 0 
L 307 0 
L 2221 4314 
L 2349 4314 
L 4320 0 
z
M 3354 589 
L 2118 3405 
L 870 589 
L 3354 589 
z
" transform="scale(0.015625)"/>
       <path id="STIXGeneral-Italic-61" d="M 2963 710 
L 3046 640 
Q 2688 205 2518 70 
Q 2349 -64 2157 -64 
Q 1901 -64 1901 198 
Q 1901 358 2048 934 
Q 1690 397 1389 163 
Q 1088 -70 749 -70 
Q 467 -70 288 125 
Q 109 320 109 672 
Q 109 1158 387 1664 
Q 666 2170 1094 2496 
Q 1523 2822 1939 2822 
Q 2368 2822 2451 2451 
L 2522 2758 
L 2541 2778 
L 2931 2822 
L 2976 2803 
Q 2970 2778 2938 2669 
Q 2368 595 2368 346 
Q 2368 262 2458 262 
Q 2554 262 2790 525 
L 2963 710 
z
M 2336 2310 
Q 2336 2477 2240 2579 
Q 2144 2682 1978 2682 
Q 1542 2682 1139 2093 
Q 928 1779 787 1395 
Q 646 1011 646 717 
Q 646 243 1030 243 
Q 1408 243 1843 870 
Q 2336 1581 2336 2310 
z
" transform="scale(0.015625)"/>
       <path id="DejaVuSerif-b2" d="M 531 4050 
L 313 4050 
L 313 4544 
Q 519 4644 737 4697 
Q 956 4750 1172 4750 
Q 1603 4750 1870 4544 
Q 2138 4338 2138 4013 
Q 2138 3631 1531 3088 
L 1472 3034 
L 728 2363 
L 1931 2363 
L 1931 2700 
L 2163 2700 
L 2163 2088 
L 281 2088 
L 281 2322 
L 1172 3116 
Q 1441 3356 1556 3547 
Q 1672 3738 1672 3944 
Q 1672 4209 1520 4364 
Q 1369 4519 1106 4519 
Q 863 4519 716 4400 
Q 569 4281 531 4050 
z
" transform="scale(0.015625)"/>
      </defs>
      <use xlink:href="#STIXGeneral-Regular-394" transform="translate(0 0.015625)"/>
      <use xlink:href="#STIXGeneral-Italic-61" transform="translate(72.199982 0.015625)"/>
      <use xlink:href="#STIXGeneral-Italic-78" transform="translate(122.299973 -13.2125) scale(0.7)"/>
      <use xlink:href="#DejaVuSerif-20" transform="translate(157.789343 0.015625)"/>
      <use xlink:href="#DejaVuSerif-5b" transform="translate(189.576453 0.015625)"/>
      <use xlink:href="#DejaVuSerif-6d" transform="translate(228.590125 0.015625)"/>
      <use xlink:href="#DejaVuSerif-2f" transform="translate(323.414343 0.015625)"/>
      <use xlink:href="#DejaVuSerif-73" transform="translate(357.10575 0.015625)"/>
      <use xlink:href="#DejaVuSerif-b2" transform="translate(408.424109 0.015625)"/>
      <use xlink:href="#DejaVuSerif-5d" transform="translate(448.512 0.015625)"/>
     </g>
    </g>
   </g>
   <g id="PolyCollection_1">
    <defs>
     <path id="mbfcf4a4cca" d="M 47.847472 -274.591665 
L 47.847472 -234.444205 
L 48.753091 -235.549664 
L 49.65871 -236.666476 
L 50.564329 -237.792017 
L 51.469948 -238.92358 
L 52.375567 -240.057472 
L 53.281186 -241.189851 
L 54.186805 -242.317398 
L 55.092424 -243.435552 
L 55.998043 -244.538813 
L 56.903662 -245.623129 
L 57.809281 -246.68185 
L 58.7149 -247.710163 
L 59.620519 -248.699446 
L 60.526138 -249.644898 
L 61.431757 -250.537648 
L 62.337376 -251.368456 
L 63.242995 -252.13002 
L 64.148614 -252.808319 
L 65.054233 -253.392363 
L 65.959852 -253.862694 
L 66.865471 -254.201631 
L 67.77109 -254.385853 
L 68.676709 -254.412294 
L 69.582328 -254.309905 
L 70.487947 -254.134807 
L 71.393566 -253.935366 
L 72.299185 -253.739058 
L 73.204804 -253.551696 
L 74.110423 -253.365907 
L 75.016042 -253.168203 
L 75.921661 -252.941616 
L 76.82728 -252.678203 
L 77.732899 -252.381814 
L 78.638518 -252.066639 
L 79.544137 -251.746122 
L 80.449756 -251.42988 
L 81.355375 -251.118896 
L 82.260994 -250.810197 
L 83.166613 -250.500451 
L 84.072232 -250.190199 
L 84.977851 -249.888057 
L 85.88347 -249.604617 
L 86.789089 -249.351286 
L 87.694708 -249.132995 
L 88.600327 -248.946451 
L 89.505946 -248.778831 
L 90.411565 -248.60228 
L 91.317184 -248.382945 
L 92.222803 -248.093015 
L 93.128422 -247.72595 
L 94.034041 -247.29808 
L 94.93966 -246.833415 
L 95.845279 -246.355919 
L 96.750898 -245.886272 
L 97.656517 -245.439868 
L 98.562136 -245.030193 
L 99.467755 -244.667728 
L 100.373374 -244.359712 
L 101.278993 -244.112356 
L 102.184612 -243.929154 
L 103.090231 -243.811139 
L 103.99585 -243.757621 
L 104.901469 -243.764529 
L 105.807088 -243.825216 
L 106.712707 -243.928287 
L 107.618326 -244.055323 
L 108.523945 -244.176334 
L 109.429564 -244.239726 
L 110.335183 -244.17219 
L 111.240802 -243.917717 
L 112.146421 -243.50053 
L 113.05204 -242.994776 
L 113.957659 -242.461727 
L 114.863278 -241.938859 
L 115.768897 -241.449356 
L 116.674516 -241.00827 
L 117.580135 -240.624696 
L 118.485754 -240.305847 
L 119.391373 -240.054155 
L 120.296992 -239.871399 
L 121.202611 -239.756159 
L 122.10823 -239.706099 
L 123.013849 -239.715112 
L 123.919468 -239.777027 
L 124.825087 -239.881094 
L 125.730706 -240.015608 
L 126.636325 -240.164291 
L 127.541944 -240.307062 
L 128.447563 -240.417522 
L 129.353182 -240.465012 
L 130.258801 -240.422799 
L 131.16442 -240.285042 
L 132.070039 -240.078458 
L 132.975658 -239.84368 
L 133.881277 -239.616856 
L 134.786896 -239.41864 
L 135.692515 -239.259552 
L 136.598134 -239.138055 
L 137.503753 -239.045907 
L 138.409372 -238.967039 
L 139.314991 -238.882154 
L 140.22061 -238.774652 
L 141.126229 -238.63793 
L 142.031848 -238.482656 
L 142.937467 -238.331121 
L 143.843086 -238.203998 
L 144.748705 -238.119921 
L 145.654324 -238.08743 
L 146.559943 -238.10777 
L 147.465562 -238.170892 
L 148.371181 -238.255729 
L 149.2768 -238.328195 
L 150.182419 -238.347745 
L 151.088038 -238.282056 
L 151.993657 -238.126823 
L 152.899276 -237.899961 
L 153.804895 -237.62944 
L 154.710514 -237.337804 
L 155.616133 -237.045127 
L 156.521752 -236.765993 
L 157.427371 -236.51387 
L 158.33299 -236.298042 
L 159.238609 -236.124314 
L 160.144228 -235.996758 
L 161.049847 -235.914998 
L 161.955466 -235.873731 
L 162.861085 -235.863247 
L 163.766704 -235.866524 
L 164.672323 -235.859975 
L 165.577942 -235.817406 
L 166.483561 -235.723131 
L 167.38918 -235.58411 
L 168.294799 -235.426547 
L 169.200418 -235.278441 
L 170.106037 -235.160444 
L 171.011656 -235.083549 
L 171.917275 -235.049695 
L 172.822894 -235.053176 
L 173.728513 -235.083758 
L 174.634132 -235.126428 
L 175.539751 -235.163685 
L 176.44537 -235.174775 
L 177.350989 -235.145828 
L 178.256608 -235.071339 
L 179.162227 -234.960185 
L 180.067846 -234.831704 
L 180.973465 -234.702091 
L 181.879084 -234.584245 
L 182.784703 -234.481811 
L 183.690322 -234.39394 
L 184.595941 -234.316353 
L 185.50156 -234.244189 
L 186.407179 -234.175049 
L 187.312798 -234.104573 
L 188.218417 -234.031472 
L 189.124036 -233.955498 
L 190.029655 -233.883184 
L 190.935274 -233.822152 
L 191.840893 -233.777523 
L 192.746512 -233.751096 
L 193.652131 -233.739854 
L 194.55775 -233.738419 
L 195.463369 -233.738367 
L 196.368988 -233.733481 
L 197.274607 -233.722748 
L 198.180226 -233.704735 
L 199.085845 -233.682464 
L 199.991464 -233.658108 
L 200.897083 -233.632861 
L 201.802702 -233.608551 
L 202.708321 -233.584578 
L 203.61394 -233.562813 
L 204.519559 -233.544041 
L 205.425178 -233.528229 
L 206.330797 -233.514621 
L 207.236416 -233.491318 
L 208.142035 -233.438381 
L 209.047654 -233.32254 
L 209.953273 -233.116431 
L 210.858892 -232.810826 
L 211.764511 -232.408985 
L 212.67013 -231.922353 
L 213.575749 -231.363069 
L 214.481368 -230.742093 
L 215.386987 -230.068643 
L 216.292606 -229.350344 
L 217.198225 -228.595498 
L 218.103844 -227.810621 
L 219.009463 -227.002084 
L 219.915082 -226.174684 
L 220.820701 -225.334567 
L 221.72632 -224.48593 
L 222.631939 -223.633462 
L 223.537558 -222.780707 
L 224.443177 -221.931447 
L 225.348796 -221.089132 
L 226.254415 -220.256204 
L 227.160034 -219.435408 
L 228.065653 -218.62871 
L 228.065653 -254.548868 
L 228.065653 -254.548868 
L 227.160034 -253.456007 
L 226.254415 -252.353492 
L 225.348796 -251.244395 
L 224.443177 -250.132114 
L 223.537558 -249.020156 
L 222.631939 -247.912591 
L 221.72632 -246.814405 
L 220.820701 -245.72943 
L 219.915082 -244.663499 
L 219.009463 -243.621768 
L 218.103844 -242.611515 
L 217.198225 -241.637454 
L 216.292606 -240.707626 
L 215.386987 -239.828957 
L 214.481368 -239.010409 
L 213.575749 -238.26004 
L 212.67013 -237.588023 
L 211.764511 -237.005193 
L 210.858892 -236.524295 
L 209.953273 -236.156556 
L 209.047654 -235.904859 
L 208.142035 -235.759931 
L 207.236416 -235.69379 
L 206.330797 -235.67265 
L 205.425178 -235.673864 
L 204.519559 -235.685322 
L 203.61394 -235.703263 
L 202.708321 -235.726793 
L 201.802702 -235.754186 
L 200.897083 -235.786148 
L 199.991464 -235.820355 
L 199.085845 -235.857828 
L 198.180226 -235.89912 
L 197.274607 -235.945909 
L 196.368988 -236.000985 
L 195.463369 -236.064221 
L 194.55775 -236.133381 
L 193.652131 -236.202799 
L 192.746512 -236.265655 
L 191.840893 -236.315658 
L 190.935274 -236.350988 
L 190.029655 -236.37439 
L 189.124036 -236.392225 
L 188.218417 -236.413501 
L 187.312798 -236.44538 
L 186.407179 -236.491041 
L 185.50156 -236.550853 
L 184.595941 -236.622536 
L 183.690322 -236.705225 
L 182.784703 -236.794249 
L 181.879084 -236.886377 
L 180.973465 -236.977715 
L 180.067846 -237.069114 
L 179.162227 -237.1682 
L 178.256608 -237.283878 
L 177.350989 -237.42477 
L 176.44537 -237.589882 
L 175.539751 -237.768369 
L 174.634132 -237.943445 
L 173.728513 -238.097083 
L 172.822894 -238.216469 
L 171.917275 -238.294216 
L 171.011656 -238.329439 
L 170.106037 -238.325844 
L 169.200418 -238.296777 
L 168.294799 -238.261572 
L 167.38918 -238.25002 
L 166.483561 -238.297347 
L 165.577942 -238.433244 
L 164.672323 -238.665847 
L 163.766704 -238.977036 
L 162.861085 -239.334772 
L 161.955466 -239.708098 
L 161.049847 -240.071376 
L 160.144228 -240.403027 
L 159.238609 -240.687475 
L 158.33299 -240.912828 
L 157.427371 -241.071817 
L 156.521752 -241.160646 
L 155.616133 -241.180384 
L 154.710514 -241.136241 
L 153.804895 -241.03967 
L 152.899276 -240.90871 
L 151.993657 -240.76954 
L 151.088038 -240.655673 
L 150.182419 -240.597736 
L 149.2768 -240.60821 
L 148.371181 -240.67387 
L 147.465562 -240.766858 
L 146.559943 -240.863531 
L 145.654324 -240.948829 
L 144.748705 -241.015984 
L 143.843086 -241.065397 
L 142.937467 -241.10649 
L 142.031848 -241.152481 
L 141.126229 -241.222399 
L 140.22061 -241.332237 
L 139.314991 -241.489908 
L 138.409372 -241.684796 
L 137.503753 -241.897425 
L 136.598134 -242.105451 
L 135.692515 -242.290892 
L 134.786896 -242.443742 
L 133.881277 -242.56132 
L 132.975658 -242.652242 
L 132.070039 -242.73702 
L 131.16442 -242.850523 
L 130.258801 -243.033959 
L 129.353182 -243.312552 
L 128.447563 -243.68137 
L 127.541944 -244.112981 
L 126.636325 -244.57686 
L 125.730706 -245.046945 
L 124.825087 -245.503451 
L 123.919468 -245.930822 
L 123.013849 -246.316619 
L 122.10823 -246.651972 
L 121.202611 -246.929512 
L 120.296992 -247.145233 
L 119.391373 -247.296297 
L 118.485754 -247.381752 
L 117.580135 -247.403656 
L 116.674516 -247.366192 
L 115.768897 -247.275807 
L 114.863278 -247.142347 
L 113.957659 -246.98099 
L 113.05204 -246.814858 
L 112.146421 -246.681758 
L 111.240802 -246.643476 
L 110.335183 -246.773032 
L 109.429564 -247.094904 
L 108.523945 -247.552968 
L 107.618326 -248.073039 
L 106.712707 -248.602645 
L 105.807088 -249.111165 
L 104.901469 -249.578876 
L 103.99585 -249.994995 
L 103.090231 -250.351019 
L 102.184612 -250.642426 
L 101.278993 -250.867244 
L 100.373374 -251.026776 
L 99.467755 -251.123368 
L 98.562136 -251.162171 
L 97.656517 -251.151559 
L 96.750898 -251.10098 
L 95.845279 -251.024428 
L 94.93966 -250.938031 
L 94.034041 -250.863278 
L 93.128422 -250.824793 
L 92.222803 -250.848536 
L 91.317184 -250.952667 
L 90.411565 -251.13375 
L 89.505946 -251.366565 
L 88.600327 -251.620267 
L 87.694708 -251.871849 
L 86.789089 -252.11003 
L 85.88347 -252.335917 
L 84.977851 -252.554216 
L 84.072232 -252.77819 
L 83.166613 -253.017484 
L 82.260994 -253.277107 
L 81.355375 -253.553159 
L 80.449756 -253.83586 
L 79.544137 -254.114397 
L 78.638518 -254.382534 
L 77.732899 -254.641465 
L 76.82728 -254.901163 
L 75.921661 -255.16957 
L 75.016042 -255.450262 
L 74.110423 -255.735402 
L 73.204804 -256.00705 
L 72.299185 -256.249992 
L 71.393566 -256.454957 
L 70.487947 -256.625566 
L 69.582328 -256.788052 
L 68.676709 -256.987114 
L 67.77109 -257.278306 
L 66.865471 -257.689187 
L 65.959852 -258.215377 
L 65.054233 -258.835119 
L 64.148614 -259.528703 
L 63.242995 -260.278885 
L 62.337376 -261.073395 
L 61.431757 -261.902325 
L 60.526138 -262.757113 
L 59.620519 -263.630076 
L 58.7149 -264.515829 
L 57.809281 -265.408303 
L 56.903662 -266.302422 
L 55.998043 -267.194157 
L 55.092424 -268.079357 
L 54.186805 -268.954577 
L 53.281186 -269.816676 
L 52.375567 -270.66389 
L 51.469948 -271.492378 
L 50.564329 -272.301165 
L 49.65871 -273.08805 
L 48.753091 -273.852171 
L 47.847472 -274.591665 
z
" style="stroke: #e74c3c; stroke-opacity: 0.2"/>
    </defs>
    <g clip-path="url(#p42133de0e0)">
     <use xlink:href="#mbfcf4a4cca" x="0" y="296.789812" style="fill: #e74c3c; fill-opacity: 0.2; stroke: #e74c3c; stroke-opacity: 0.2"/>
    </g>
   </g>
   <g id="line2d_15">
    <path d="M 38.836562 63.620901 
L 237.076563 63.620901 
" clip-path="url(#p42133de0e0)" style="fill: none; stroke-dasharray: 3.7,1.6; stroke-dashoffset: 0; stroke: #000000; stroke-opacity: 0.7"/>
   </g>
   <g id="patch_3">
    <path d="M 38.836562 80.95925 
L 38.836562 19.4 
" style="fill: none; stroke: #000000; stroke-width: 0.5; stroke-linejoin: miter; stroke-linecap: square"/>
   </g>
   <g id="patch_4">
    <path d="M 237.076563 80.95925 
L 237.076563 19.4 
" style="fill: none; stroke: #000000; stroke-width: 0.5; stroke-linejoin: miter; stroke-linecap: square"/>
   </g>
   <g id="patch_5">
    <path d="M 38.836563 80.95925 
L 237.076563 80.95925 
" style="fill: none; stroke: #000000; stroke-width: 0.5; stroke-linejoin: miter; stroke-linecap: square"/>
   </g>
   <g id="patch_6">
    <path d="M 38.836563 19.4 
L 237.076563 19.4 
" style="fill: none; stroke: #000000; stroke-width: 0.5; stroke-linejoin: miter; stroke-linecap: square"/>
   </g>
   <g id="line2d_16">
    <path d="M 47.847472 42.271877 
L 53.281186 41.286549 
L 56.903662 40.827037 
L 60.526138 40.588807 
L 64.148614 40.621301 
L 66.865471 40.844403 
L 70.487947 41.409626 
L 74.110423 42.239158 
L 77.732899 43.278173 
L 86.789089 46.059155 
L 92.222803 47.319037 
L 120.296992 53.281496 
L 137.503753 56.318147 
L 142.031848 56.972244 
L 145.654324 57.271683 
L 149.2768 57.32161 
L 152.899276 57.385477 
L 155.616133 57.677057 
L 159.238609 58.383918 
L 164.672323 59.526901 
L 167.38918 59.872748 
L 171.011656 60.083319 
L 175.539751 60.323785 
L 180.067846 60.839403 
L 185.50156 61.392292 
L 191.840893 61.743222 
L 204.519559 62.175131 
L 209.953273 62.153319 
L 214.481368 61.913561 
L 219.915082 61.370721 
L 226.254415 60.484964 
L 228.065653 60.201023 
L 228.065653 60.201023 
" clip-path="url(#p42133de0e0)" style="fill: none; stroke: #e74c3c; stroke-width: 2; stroke-linecap: square"/>
   </g>
   <g id="PathCollection_1">
    <defs>
     <path id="md194ba8ad6" d="M 0 2.236068 
C 0.593012 2.236068 1.161816 2.000462 1.581139 1.581139 
C 2.000462 1.161816 2.236068 0.593012 2.236068 0 
C 2.236068 -0.593012 2.000462 -1.161816 1.581139 -1.581139 
C 1.161816 -2.000462 0.593012 -2.236068 0 -2.236068 
C -0.593012 -2.236068 -1.161816 -2.000462 -1.581139 -1.581139 
C -2.000462 -1.161816 -2.236068 -0.593012 -2.236068 0 
C -2.236068 0.593012 -2.000462 1.161816 -1.581139 1.581139 
C -1.161816 2.000462 -0.593012 2.236068 0 2.236068 
z
" style="stroke: #3498db; stroke-opacity: 0.8"/>
    </defs>
    <g clip-path="url(#p42133de0e0)">
     <use xlink:href="#md194ba8ad6" x="198.760418" y="62.00543" style="fill: #a9bbf1; fill-opacity: 0.8; stroke: #3498db; stroke-opacity: 0.8"/>
     <use xlink:href="#md194ba8ad6" x="201.613695" y="62.091406" style="fill: #a9bbf1; fill-opacity: 0.8; stroke: #3498db; stroke-opacity: 0.8"/>
     <use xlink:href="#md194ba8ad6" x="203.979635" y="62.163368" style="fill: #a9bbf1; fill-opacity: 0.8; stroke: #3498db; stroke-opacity: 0.8"/>
     <use xlink:href="#md194ba8ad6" x="205.857838" y="62.20547" style="fill: #a9bbf1; fill-opacity: 0.8; stroke: #3498db; stroke-opacity: 0.8"/>
     <use xlink:href="#md194ba8ad6" x="207.271248" y="62.232002" style="fill: #a9bbf1; fill-opacity: 0.8; stroke: #3498db; stroke-opacity: 0.8"/>
     <use xlink:href="#md194ba8ad6" x="68.641877" y="41.066073" style="fill: #a9bbf1; fill-opacity: 0.8; stroke: #3498db; stroke-opacity: 0.8"/>
     <use xlink:href="#md194ba8ad6" x="75.741637" y="43.122127" style="fill: #a9bbf1; fill-opacity: 0.8; stroke: #3498db; stroke-opacity: 0.8"/>
     <use xlink:href="#md194ba8ad6" x="91.347343" y="47.106003" style="fill: #a9bbf1; fill-opacity: 0.8; stroke: #3498db; stroke-opacity: 0.8"/>
     <use xlink:href="#md194ba8ad6" x="110.509967" y="51.358042" style="fill: #a9bbf1; fill-opacity: 0.8; stroke: #3498db; stroke-opacity: 0.8"/>
     <use xlink:href="#md194ba8ad6" x="130.483385" y="55.102393" style="fill: #a9bbf1; fill-opacity: 0.8; stroke: #3498db; stroke-opacity: 0.8"/>
     <use xlink:href="#md194ba8ad6" x="149.544573" y="57.963882" style="fill: #a9bbf1; fill-opacity: 0.8; stroke: #3498db; stroke-opacity: 0.8"/>
     <use xlink:href="#md194ba8ad6" x="166.023165" y="59.815761" style="fill: #a9bbf1; fill-opacity: 0.8; stroke: #3498db; stroke-opacity: 0.8"/>
     <use xlink:href="#md194ba8ad6" x="178.709763" y="61.007506" style="fill: #a9bbf1; fill-opacity: 0.8; stroke: #3498db; stroke-opacity: 0.8"/>
     <use xlink:href="#md194ba8ad6" x="188.032135" y="61.534985" style="fill: #a9bbf1; fill-opacity: 0.8; stroke: #3498db; stroke-opacity: 0.8"/>
     <use xlink:href="#md194ba8ad6" x="195.491992" y="61.896378" style="fill: #a9bbf1; fill-opacity: 0.8; stroke: #3498db; stroke-opacity: 0.8"/>
     <use xlink:href="#md194ba8ad6" x="82.848161" y="45.007914" style="fill: #a9bbf1; fill-opacity: 0.8; stroke: #3498db; stroke-opacity: 0.8"/>
     <use xlink:href="#md194ba8ad6" x="177.206055" y="60.115955" style="fill: #a9bbf1; fill-opacity: 0.8; stroke: #3498db; stroke-opacity: 0.8"/>
     <use xlink:href="#md194ba8ad6" x="140.227513" y="56.701561" style="fill: #a9bbf1; fill-opacity: 0.8; stroke: #3498db; stroke-opacity: 0.8"/>
     <use xlink:href="#md194ba8ad6" x="150.65599" y="56.668243" style="fill: #a9bbf1; fill-opacity: 0.8; stroke: #3498db; stroke-opacity: 0.8"/>
     <use xlink:href="#md194ba8ad6" x="183.693322" y="61.24421" style="fill: #a9bbf1; fill-opacity: 0.8; stroke: #3498db; stroke-opacity: 0.8"/>
     <use xlink:href="#md194ba8ad6" x="76.342735" y="42.375597" style="fill: #a9bbf1; fill-opacity: 0.8; stroke: #3498db; stroke-opacity: 0.8"/>
    </g>
   </g>
   <g id="PathCollection_2">
    <defs>
     <path id="ma689d57475" d="M 0 2.738613 
C 0.726289 2.738613 1.422928 2.450055 1.936492 1.936492 
C 2.450055 1.422928 2.738613 0.726289 2.738613 0 
C 2.738613 -0.726289 2.450055 -1.422928 1.936492 -1.936492 
C 1.422928 -2.450055 0.726289 -2.738613 0 -2.738613 
C -0.726289 -2.738613 -1.422928 -2.450055 -1.936492 -1.936492 
C -2.450055 -1.422928 -2.738613 -0.726289 -2.738613 0 
C -2.738613 0.726289 -2.450055 1.422928 -1.936492 1.936492 
C -1.422928 2.450055 -0.726289 2.738613 0 2.738613 
z
" style="stroke: #d62728; stroke-opacity: 0.8"/>
    </defs>
    <g clip-path="url(#p42133de0e0)">
     <use xlink:href="#ma689d57475" x="108.334102" y="50.883419" style="fill: #ffffff; fill-opacity: 0.8; stroke: #d62728; stroke-opacity: 0.8"/>
     <use xlink:href="#ma689d57475" x="74.179435" y="42.257159" style="fill: #ffffff; fill-opacity: 0.8; stroke: #d62728; stroke-opacity: 0.8"/>
     <use xlink:href="#ma689d57475" x="63.758807" y="40.603836" style="fill: #ffffff; fill-opacity: 0.8; stroke: #d62728; stroke-opacity: 0.8"/>
     <use xlink:href="#ma689d57475" x="78.458509" y="43.507606" style="fill: #ffffff; fill-opacity: 0.8; stroke: #d62728; stroke-opacity: 0.8"/>
     <use xlink:href="#ma689d57475" x="103.166942" y="49.726143" style="fill: #ffffff; fill-opacity: 0.8; stroke: #d62728; stroke-opacity: 0.8"/>
     <use xlink:href="#ma689d57475" x="130.025682" y="55.020105" style="fill: #ffffff; fill-opacity: 0.8; stroke: #d62728; stroke-opacity: 0.8"/>
     <use xlink:href="#ma689d57475" x="153.054785" y="57.395416" style="fill: #ffffff; fill-opacity: 0.8; stroke: #d62728; stroke-opacity: 0.8"/>
     <use xlink:href="#ma689d57475" x="168.858417" y="59.982922" style="fill: #ffffff; fill-opacity: 0.8; stroke: #d62728; stroke-opacity: 0.8"/>
     <use xlink:href="#ma689d57475" x="180.065376" y="60.839057" style="fill: #ffffff; fill-opacity: 0.8; stroke: #d62728; stroke-opacity: 0.8"/>
     <use xlink:href="#ma689d57475" x="188.760562" y="61.597249" style="fill: #ffffff; fill-opacity: 0.8; stroke: #d62728; stroke-opacity: 0.8"/>
     <use xlink:href="#ma689d57475" x="195.153367" y="61.877095" style="fill: #ffffff; fill-opacity: 0.8; stroke: #d62728; stroke-opacity: 0.8"/>
    </g>
   </g>
  </g>
  <g id="axes_2">
   <g id="patch_7">
    <path d="M 38.836562 173.298125 
L 237.076563 173.298125 
L 237.076563 111.738875 
L 38.836562 111.738875 
z
" style="fill: #ffffff"/>
   </g>
   <g id="matplotlib.axis_3">
    <g id="xtick_6">
     <g id="line2d_17">
      <path d="M 56.855092 173.298125 
L 56.855092 111.738875 
" clip-path="url(#p3831f137d9)" style="fill: none; stroke-dasharray: 1.85,0.8; stroke-dashoffset: 0; stroke: #b0b0b0; stroke-opacity: 0.5; stroke-width: 0.5"/>
     </g>
     <g id="line2d_18">
      <g>
       <use xlink:href="#m257b82d5d1" x="56.855092" y="173.298125" style="stroke: #000000; stroke-width: 0.5"/>
      </g>
     </g>
     <g id="text_10">
      <!-- −8 -->
      <g transform="translate(50.958217 182.876875) scale(0.08 -0.08)">
       <defs>
        <path id="DejaVuSerif-38" d="M 2981 1275 
Q 2981 1775 2732 2051 
Q 2484 2328 2034 2328 
Q 1584 2328 1336 2051 
Q 1088 1775 1088 1275 
Q 1088 772 1336 495 
Q 1584 219 2034 219 
Q 2484 219 2732 495 
Q 2981 772 2981 1275 
z
M 2853 3541 
Q 2853 3966 2637 4203 
Q 2422 4441 2034 4441 
Q 1650 4441 1433 4203 
Q 1216 3966 1216 3541 
Q 1216 3113 1433 2875 
Q 1650 2638 2034 2638 
Q 2422 2638 2637 2875 
Q 2853 3113 2853 3541 
z
M 2516 2484 
Q 3047 2413 3344 2092 
Q 3641 1772 3641 1275 
Q 3641 619 3225 264 
Q 2809 -91 2034 -91 
Q 1263 -91 845 264 
Q 428 619 428 1275 
Q 428 1772 725 2092 
Q 1022 2413 1556 2484 
Q 1084 2569 832 2842 
Q 581 3116 581 3541 
Q 581 4103 968 4426 
Q 1356 4750 2034 4750 
Q 2713 4750 3100 4426 
Q 3488 4103 3488 3541 
Q 3488 3116 3236 2842 
Q 2984 2569 2516 2484 
z
" transform="scale(0.015625)"/>
       </defs>
       <use xlink:href="#DejaVuSerif-2212"/>
       <use xlink:href="#DejaVuSerif-38" x="83.789062"/>
      </g>
     </g>
    </g>
    <g id="xtick_7">
     <g id="line2d_19">
      <path d="M 94.02416 173.298125 
L 94.02416 111.738875 
" clip-path="url(#p3831f137d9)" style="fill: none; stroke-dasharray: 1.85,0.8; stroke-dashoffset: 0; stroke: #b0b0b0; stroke-opacity: 0.5; stroke-width: 0.5"/>
     </g>
     <g id="line2d_20">
      <g>
       <use xlink:href="#m257b82d5d1" x="94.02416" y="173.298125" style="stroke: #000000; stroke-width: 0.5"/>
      </g>
     </g>
     <g id="text_11">
      <!-- −6 -->
      <g transform="translate(88.127285 182.876875) scale(0.08 -0.08)">
       <defs>
        <path id="DejaVuSerif-36" d="M 2094 219 
Q 2534 219 2771 542 
Q 3009 866 3009 1472 
Q 3009 2078 2771 2401 
Q 2534 2725 2094 2725 
Q 1647 2725 1412 2412 
Q 1178 2100 1178 1509 
Q 1178 888 1415 553 
Q 1653 219 2094 219 
z
M 1075 2569 
Q 1288 2803 1556 2918 
Q 1825 3034 2163 3034 
Q 2859 3034 3264 2615 
Q 3669 2197 3669 1472 
Q 3669 763 3233 336 
Q 2797 -91 2069 -91 
Q 1278 -91 853 498 
Q 428 1088 428 2181 
Q 428 3406 931 4078 
Q 1434 4750 2350 4750 
Q 2597 4750 2869 4703 
Q 3141 4656 3425 4563 
L 3425 3794 
L 3072 3794 
Q 3034 4109 2831 4275 
Q 2628 4441 2284 4441 
Q 1678 4441 1381 3981 
Q 1084 3522 1075 2569 
z
" transform="scale(0.015625)"/>
       </defs>
       <use xlink:href="#DejaVuSerif-2212"/>
       <use xlink:href="#DejaVuSerif-36" x="83.789062"/>
      </g>
     </g>
    </g>
    <g id="xtick_8">
     <g id="line2d_21">
      <path d="M 131.193228 173.298125 
L 131.193228 111.738875 
" clip-path="url(#p3831f137d9)" style="fill: none; stroke-dasharray: 1.85,0.8; stroke-dashoffset: 0; stroke: #b0b0b0; stroke-opacity: 0.5; stroke-width: 0.5"/>
     </g>
     <g id="line2d_22">
      <g>
       <use xlink:href="#m257b82d5d1" x="131.193228" y="173.298125" style="stroke: #000000; stroke-width: 0.5"/>
      </g>
     </g>
     <g id="text_12">
      <!-- −4 -->
      <g transform="translate(125.296353 182.876875) scale(0.08 -0.08)">
       <use xlink:href="#DejaVuSerif-2212"/>
       <use xlink:href="#DejaVuSerif-34" x="83.789062"/>
      </g>
     </g>
    </g>
    <g id="xtick_9">
     <g id="line2d_23">
      <path d="M 168.362296 173.298125 
L 168.362296 111.738875 
" clip-path="url(#p3831f137d9)" style="fill: none; stroke-dasharray: 1.85,0.8; stroke-dashoffset: 0; stroke: #b0b0b0; stroke-opacity: 0.5; stroke-width: 0.5"/>
     </g>
     <g id="line2d_24">
      <g>
       <use xlink:href="#m257b82d5d1" x="168.362296" y="173.298125" style="stroke: #000000; stroke-width: 0.5"/>
      </g>
     </g>
     <g id="text_13">
      <!-- −2 -->
      <g transform="translate(162.465421 182.876875) scale(0.08 -0.08)">
       <use xlink:href="#DejaVuSerif-2212"/>
       <use xlink:href="#DejaVuSerif-32" x="83.789062"/>
      </g>
     </g>
    </g>
    <g id="xtick_10">
     <g id="line2d_25">
      <path d="M 205.531364 173.298125 
L 205.531364 111.738875 
" clip-path="url(#p3831f137d9)" style="fill: none; stroke-dasharray: 1.85,0.8; stroke-dashoffset: 0; stroke: #b0b0b0; stroke-opacity: 0.5; stroke-width: 0.5"/>
     </g>
     <g id="line2d_26">
      <g>
       <use xlink:href="#m257b82d5d1" x="205.531364" y="173.298125" style="stroke: #000000; stroke-width: 0.5"/>
      </g>
     </g>
     <g id="text_14">
      <!-- 0 -->
      <g transform="translate(202.986364 182.876875) scale(0.08 -0.08)">
       <use xlink:href="#DejaVuSerif-30"/>
      </g>
     </g>
    </g>
    <g id="text_15">
     <!-- $v_{y}$ [m/s] -->
     <g transform="translate(121.306563 195.380625) scale(0.09 -0.09)">
      <defs>
       <path id="STIXGeneral-Italic-79" d="M 1555 1190 
L 1690 486 
Q 2118 1190 2294 1558 
Q 2470 1926 2470 2131 
Q 2470 2234 2304 2336 
Q 2138 2445 2138 2586 
Q 2138 2688 2211 2755 
Q 2285 2822 2394 2822 
Q 2534 2822 2630 2720 
Q 2726 2618 2726 2470 
Q 2726 1914 1888 518 
Q 1389 -307 918 -812 
Q 448 -1318 173 -1318 
Q 26 -1318 -64 -1241 
Q -154 -1165 -154 -1043 
Q -154 -934 -80 -860 
Q -6 -787 96 -787 
Q 218 -787 314 -876 
Q 410 -966 486 -966 
Q 602 -966 794 -755 
Q 877 -672 1040 -457 
Q 1203 -243 1248 -173 
Q 1312 -45 1312 51 
Q 1312 243 1113 1046 
Q 915 1850 787 2176 
Q 698 2413 592 2499 
Q 486 2586 294 2586 
Q 192 2586 96 2560 
L 96 2669 
Q 237 2694 301 2707 
Q 563 2758 986 2822 
L 1011 2822 
Q 1082 2822 1277 2227 
Q 1472 1632 1555 1190 
z
" transform="scale(0.015625)"/>
      </defs>
      <use xlink:href="#STIXGeneral-Italic-76" transform="translate(0 0.015625)"/>
      <use xlink:href="#STIXGeneral-Italic-79" transform="translate(44.399994 -13.2125) scale(0.7)"/>
      <use xlink:href="#DejaVuSerif-20" transform="translate(79.889365 0.015625)"/>
      <use xlink:href="#DejaVuSerif-5b" transform="translate(111.676474 0.015625)"/>
      <use xlink:href="#DejaVuSerif-6d" transform="translate(150.690146 0.015625)"/>
      <use xlink:href="#DejaVuSerif-2f" transform="translate(245.514365 0.015625)"/>
      <use xlink:href="#DejaVuSerif-73" transform="translate(279.205771 0.015625)"/>
      <use xlink:href="#DejaVuSerif-5d" transform="translate(330.52413 0.015625)"/>
     </g>
    </g>
   </g>
   <g id="matplotlib.axis_4">
    <g id="ytick_3">
     <g id="line2d_27">
      <path d="M 38.836562 163.679622 
L 237.076563 163.679622 
" clip-path="url(#p3831f137d9)" style="fill: none; stroke-dasharray: 1.85,0.8; stroke-dashoffset: 0; stroke: #b0b0b0; stroke-opacity: 0.5; stroke-width: 0.5"/>
     </g>
     <g id="line2d_28">
      <g>
       <use xlink:href="#m4d367cadd2" x="38.836562" y="163.679622" style="stroke: #000000; stroke-width: 0.5"/>
      </g>
     </g>
     <g id="text_16">
      <!-- 0.0 -->
      <g transform="translate(22.614062 166.718997) scale(0.08 -0.08)">
       <use xlink:href="#DejaVuSerif-30"/>
       <use xlink:href="#DejaVuSerif-2e" x="63.623047"/>
       <use xlink:href="#DejaVuSerif-30" x="95.410156"/>
      </g>
     </g>
    </g>
    <g id="ytick_4">
     <g id="line2d_29">
      <path d="M 38.836562 133.079361 
L 237.076563 133.079361 
" clip-path="url(#p3831f137d9)" style="fill: none; stroke-dasharray: 1.85,0.8; stroke-dashoffset: 0; stroke: #b0b0b0; stroke-opacity: 0.5; stroke-width: 0.5"/>
     </g>
     <g id="line2d_30">
      <g>
       <use xlink:href="#m4d367cadd2" x="38.836562" y="133.079361" style="stroke: #000000; stroke-width: 0.5"/>
      </g>
     </g>
     <g id="text_17">
      <!-- 5.0 -->
      <g transform="translate(22.614062 136.118736) scale(0.08 -0.08)">
       <use xlink:href="#DejaVuSerif-35"/>
       <use xlink:href="#DejaVuSerif-2e" x="63.623047"/>
       <use xlink:href="#DejaVuSerif-30" x="95.410156"/>
      </g>
     </g>
    </g>
    <g id="text_18">
     <!-- $\Delta a_{y}$ [m/s²] -->
     <g transform="translate(16.094062 164.4785) rotate(-90) scale(0.09 -0.09)">
      <use xlink:href="#STIXGeneral-Regular-394" transform="translate(0 0.015625)"/>
      <use xlink:href="#STIXGeneral-Italic-61" transform="translate(72.199982 0.015625)"/>
      <use xlink:href="#STIXGeneral-Italic-79" transform="translate(122.299973 -13.2125) scale(0.7)"/>
      <use xlink:href="#DejaVuSerif-20" transform="translate(157.789343 0.015625)"/>
      <use xlink:href="#DejaVuSerif-5b" transform="translate(189.576453 0.015625)"/>
      <use xlink:href="#DejaVuSerif-6d" transform="translate(228.590125 0.015625)"/>
      <use xlink:href="#DejaVuSerif-2f" transform="translate(323.414343 0.015625)"/>
      <use xlink:href="#DejaVuSerif-73" transform="translate(357.10575 0.015625)"/>
      <use xlink:href="#DejaVuSerif-b2" transform="translate(408.424109 0.015625)"/>
      <use xlink:href="#DejaVuSerif-5d" transform="translate(448.512 0.015625)"/>
     </g>
    </g>
   </g>
   <g id="PolyCollection_2">
    <defs>
     <path id="m53647b7019" d="M 47.847472 -182.25279 
L 47.847472 -174.587526 
L 48.753091 -174.350134 
L 49.65871 -174.109864 
L 50.564329 -173.86262 
L 51.469948 -173.610642 
L 52.375567 -173.353154 
L 53.281186 -173.09098 
L 54.186805 -172.823663 
L 55.092424 -172.547677 
L 55.998043 -172.270272 
L 56.903662 -171.985496 
L 57.809281 -171.694816 
L 58.7149 -171.399546 
L 59.620519 -171.098217 
L 60.526138 -170.792485 
L 61.431757 -170.483314 
L 62.337376 -170.165833 
L 63.242995 -169.845206 
L 64.148614 -169.515372 
L 65.054233 -169.185251 
L 65.959852 -168.848845 
L 66.865471 -168.50734 
L 67.77109 -168.162923 
L 68.676709 -167.812031 
L 69.582328 -167.457382 
L 70.487947 -167.102635 
L 71.393566 -166.74128 
L 72.299185 -166.375718 
L 73.204804 -166.008952 
L 74.110423 -165.636745 
L 75.016042 -165.264733 
L 75.921661 -164.88844 
L 76.82728 -164.513016 
L 77.732899 -164.135197 
L 78.638518 -163.754383 
L 79.544137 -163.372717 
L 80.449756 -162.987293 
L 81.355375 -162.607725 
L 82.260994 -162.222887 
L 83.166613 -161.838814 
L 84.072232 -161.454338 
L 84.977851 -161.071321 
L 85.88347 -160.68557 
L 86.789089 -160.301476 
L 87.694708 -159.920785 
L 88.600327 -159.540602 
L 89.505946 -159.155396 
L 90.411565 -158.775873 
L 91.317184 -158.397887 
L 92.222803 -158.019673 
L 93.128422 -157.642759 
L 94.034041 -157.268319 
L 94.93966 -156.893199 
L 95.845279 -156.521955 
L 96.750898 -156.153534 
L 97.656517 -155.785832 
L 98.562136 -155.420121 
L 99.467755 -155.056311 
L 100.373374 -154.694657 
L 101.278993 -154.336364 
L 102.184612 -153.976751 
L 103.090231 -153.622033 
L 103.99585 -153.270463 
L 104.901469 -152.920523 
L 105.807088 -152.572975 
L 106.712707 -152.227471 
L 107.618326 -151.884011 
L 108.523945 -151.546509 
L 109.429564 -151.208974 
L 110.335183 -150.872617 
L 111.240802 -150.54149 
L 112.146421 -150.21161 
L 113.05204 -149.88485 
L 113.957659 -149.560205 
L 114.863278 -149.241768 
L 115.768897 -148.922423 
L 116.674516 -148.606414 
L 117.580135 -148.293071 
L 118.485754 -147.983307 
L 119.391373 -147.675158 
L 120.296992 -147.371114 
L 121.202611 -147.068378 
L 122.10823 -146.771109 
L 123.013849 -146.474444 
L 123.919468 -146.178607 
L 124.825087 -145.888364 
L 125.730706 -145.598244 
L 126.636325 -145.313775 
L 127.541944 -145.02784 
L 128.447563 -144.7475 
L 129.353182 -144.46993 
L 130.258801 -144.19295 
L 131.16442 -143.920861 
L 132.070039 -143.648122 
L 132.975658 -143.380804 
L 133.881277 -143.114307 
L 134.786896 -142.852701 
L 135.692515 -142.592686 
L 136.598134 -142.335203 
L 137.503753 -142.078713 
L 138.409372 -141.826709 
L 139.314991 -141.577228 
L 140.22061 -141.330581 
L 141.126229 -141.086169 
L 142.031848 -140.843579 
L 142.937467 -140.603876 
L 143.843086 -140.367586 
L 144.748705 -140.134185 
L 145.654324 -139.904085 
L 146.559943 -139.674629 
L 147.465562 -139.449409 
L 148.371181 -139.226786 
L 149.2768 -139.005577 
L 150.182419 -138.788312 
L 151.088038 -138.57358 
L 151.993657 -138.360261 
L 152.899276 -138.15183 
L 153.804895 -137.945521 
L 154.710514 -137.740093 
L 155.616133 -137.537908 
L 156.521752 -137.340198 
L 157.427371 -137.142839 
L 158.33299 -136.950195 
L 159.238609 -136.758787 
L 160.144228 -136.572977 
L 161.049847 -136.386161 
L 161.955466 -136.202706 
L 162.861085 -136.023786 
L 163.766704 -135.847811 
L 164.672323 -135.672368 
L 165.577942 -135.500105 
L 166.483561 -135.330021 
L 167.38918 -135.164358 
L 168.294799 -135.000642 
L 169.200418 -134.84153 
L 170.106037 -134.681228 
L 171.011656 -134.525351 
L 171.917275 -134.372779 
L 172.822894 -134.222514 
L 173.728513 -134.074839 
L 174.634132 -133.929293 
L 175.539751 -133.787464 
L 176.44537 -133.647457 
L 177.350989 -133.510481 
L 178.256608 -133.375555 
L 179.162227 -133.244663 
L 180.067846 -133.113689 
L 180.973465 -132.98607 
L 181.879084 -132.859771 
L 182.784703 -132.736283 
L 183.690322 -132.617286 
L 184.595941 -132.498152 
L 185.50156 -132.379874 
L 186.407179 -132.264176 
L 187.312798 -132.150469 
L 188.218417 -132.03865 
L 189.124036 -131.929005 
L 190.029655 -131.816766 
L 190.935274 -131.70947 
L 191.840893 -131.601137 
L 192.746512 -131.493955 
L 193.652131 -131.386996 
L 194.55775 -131.279701 
L 195.463369 -131.173585 
L 196.368988 -131.067144 
L 197.274607 -130.960218 
L 198.180226 -130.851636 
L 199.085845 -130.742461 
L 199.991464 -130.631979 
L 200.897083 -130.520735 
L 201.802702 -130.40913 
L 202.708321 -130.295021 
L 203.61394 -130.179576 
L 204.519559 -130.062453 
L 205.425178 -129.941289 
L 206.330797 -129.821055 
L 207.236416 -129.696408 
L 208.142035 -129.570463 
L 209.047654 -129.442948 
L 209.953273 -129.312173 
L 210.858892 -129.180117 
L 211.764511 -129.045066 
L 212.67013 -128.908373 
L 213.575749 -128.769907 
L 214.481368 -128.628394 
L 215.386987 -128.485716 
L 216.292606 -128.340339 
L 217.198225 -128.193418 
L 218.103844 -128.044523 
L 219.009463 -127.8928 
L 219.915082 -127.739497 
L 220.820701 -127.585646 
L 221.72632 -127.428854 
L 222.631939 -127.271208 
L 223.537558 -127.111662 
L 224.443177 -126.949663 
L 225.348796 -126.787495 
L 226.254415 -126.622995 
L 227.160034 -126.456229 
L 228.065653 -126.289835 
L 228.065653 -135.865994 
L 228.065653 -135.865994 
L 227.160034 -135.746716 
L 226.254415 -135.631777 
L 225.348796 -135.52205 
L 224.443177 -135.416421 
L 223.537558 -135.31685 
L 222.631939 -135.2215 
L 221.72632 -135.131583 
L 220.820701 -135.047231 
L 219.915082 -134.966998 
L 219.009463 -134.893792 
L 218.103844 -134.824521 
L 217.198225 -134.761613 
L 216.292606 -134.703623 
L 215.386987 -134.651889 
L 214.481368 -134.605799 
L 213.575749 -134.565584 
L 212.67013 -134.530773 
L 211.764511 -134.502446 
L 210.858892 -134.480473 
L 209.953273 -134.465029 
L 209.047654 -134.453222 
L 208.142035 -134.449385 
L 207.236416 -134.451831 
L 206.330797 -134.461463 
L 205.425178 -134.475509 
L 204.519559 -134.496871 
L 203.61394 -134.522273 
L 202.708321 -134.555243 
L 201.802702 -134.593083 
L 200.897083 -134.636959 
L 199.991464 -134.687087 
L 199.085845 -134.742688 
L 198.180226 -134.80313 
L 197.274607 -134.870055 
L 196.368988 -134.939812 
L 195.463369 -135.014767 
L 194.55775 -135.095937 
L 193.652131 -135.180639 
L 192.746512 -135.26921 
L 191.840893 -135.36227 
L 190.935274 -135.460068 
L 190.029655 -135.560082 
L 189.124036 -135.665753 
L 188.218417 -135.772841 
L 187.312798 -135.882467 
L 186.407179 -135.997271 
L 185.50156 -136.114796 
L 184.595941 -136.235631 
L 183.690322 -136.359143 
L 182.784703 -136.48397 
L 181.879084 -136.612552 
L 180.973465 -136.745389 
L 180.067846 -136.878086 
L 179.162227 -137.014494 
L 178.256608 -137.15334 
L 177.350989 -137.294041 
L 176.44537 -137.438582 
L 175.539751 -137.583625 
L 174.634132 -137.731559 
L 173.728513 -137.882842 
L 172.822894 -138.03553 
L 171.917275 -138.191517 
L 171.011656 -138.348732 
L 170.106037 -138.508531 
L 169.200418 -138.670972 
L 168.294799 -138.835781 
L 167.38918 -139.003053 
L 166.483561 -139.171914 
L 165.577942 -139.343418 
L 164.672323 -139.517455 
L 163.766704 -139.695382 
L 162.861085 -139.872775 
L 161.955466 -140.053113 
L 161.049847 -140.238339 
L 160.144228 -140.423738 
L 159.238609 -140.61132 
L 158.33299 -140.802728 
L 157.427371 -140.996434 
L 156.521752 -141.191314 
L 155.616133 -141.389377 
L 154.710514 -141.591209 
L 153.804895 -141.79451 
L 152.899276 -142.000466 
L 151.993657 -142.207831 
L 151.088038 -142.419732 
L 150.182419 -142.633755 
L 149.2768 -142.849954 
L 148.371181 -143.070455 
L 147.465562 -143.293077 
L 146.559943 -143.515457 
L 145.654324 -143.744202 
L 144.748705 -143.974657 
L 143.843086 -144.207704 
L 142.937467 -144.442571 
L 142.031848 -144.682273 
L 141.126229 -144.923797 
L 140.22061 -145.168209 
L 139.314991 -145.41628 
L 138.409372 -145.665049 
L 137.503753 -145.919539 
L 136.598134 -146.174253 
L 135.692515 -146.433868 
L 134.786896 -146.69566 
L 133.881277 -146.959394 
L 132.975658 -147.227665 
L 132.070039 -147.497466 
L 131.16442 -147.771268 
L 130.258801 -148.0469 
L 129.353182 -148.327064 
L 128.447563 -148.607817 
L 127.541944 -148.891689 
L 126.636325 -149.17939 
L 125.730706 -149.470911 
L 124.825087 -149.76385 
L 123.919468 -150.05902 
L 123.013849 -150.35802 
L 122.10823 -150.658546 
L 121.202611 -150.963181 
L 120.296992 -151.269418 
L 119.391373 -151.579057 
L 118.485754 -151.889304 
L 117.580135 -152.205001 
L 116.674516 -152.521831 
L 115.768897 -152.843064 
L 114.863278 -153.164495 
L 113.957659 -153.489189 
L 113.05204 -153.815918 
L 112.146421 -154.144067 
L 111.240802 -154.474986 
L 110.335183 -154.808194 
L 109.429564 -155.145592 
L 108.523945 -155.484167 
L 107.618326 -155.825133 
L 106.712707 -156.167206 
L 105.807088 -156.509594 
L 104.901469 -156.858181 
L 103.99585 -157.206734 
L 103.090231 -157.554834 
L 102.184612 -157.909208 
L 101.278993 -158.262222 
L 100.373374 -158.617732 
L 99.467755 -158.97695 
L 98.562136 -159.335191 
L 97.656517 -159.697415 
L 96.750898 -160.058831 
L 95.845279 -160.423057 
L 94.93966 -160.788001 
L 94.034041 -161.152598 
L 93.128422 -161.521412 
L 92.222803 -161.891282 
L 91.317184 -162.261032 
L 90.411565 -162.633362 
L 89.505946 -163.006513 
L 88.600327 -163.377518 
L 87.694708 -163.752366 
L 86.789089 -164.13377 
L 85.88347 -164.508239 
L 84.977851 -164.885766 
L 84.072232 -165.264849 
L 83.166613 -165.647178 
L 82.260994 -166.028741 
L 81.355375 -166.410708 
L 80.449756 -166.800308 
L 79.544137 -167.182873 
L 78.638518 -167.56919 
L 77.732899 -167.961076 
L 76.82728 -168.352424 
L 75.921661 -168.747342 
L 75.016042 -169.140216 
L 74.110423 -169.538545 
L 73.204804 -169.935506 
L 72.299185 -170.337903 
L 71.393566 -170.741508 
L 70.487947 -171.146964 
L 69.582328 -171.556668 
L 68.676709 -171.96883 
L 67.77109 -172.383568 
L 66.865471 -172.803603 
L 65.959852 -173.220668 
L 65.054233 -173.646355 
L 64.148614 -174.074798 
L 63.242995 -174.501175 
L 62.337376 -174.935579 
L 61.431757 -175.37313 
L 60.526138 -175.813097 
L 59.620519 -176.257686 
L 58.7149 -176.701963 
L 57.809281 -177.149947 
L 56.903662 -177.601341 
L 55.998043 -178.055109 
L 55.092424 -178.513884 
L 54.186805 -178.970552 
L 53.281186 -179.432353 
L 52.375567 -179.899291 
L 51.469948 -180.365032 
L 50.564329 -180.832752 
L 49.65871 -181.305199 
L 48.753091 -181.778732 
L 47.847472 -182.25279 
z
" style="stroke: #e74c3c; stroke-opacity: 0.2"/>
    </defs>
    <g clip-path="url(#p3831f137d9)">
     <use xlink:href="#m53647b7019" x="0" y="296.789812" style="fill: #e74c3c; fill-opacity: 0.2; stroke: #e74c3c; stroke-opacity: 0.2"/>
    </g>
   </g>
   <g id="line2d_31">
    <path d="M 38.836562 163.679622 
L 237.076563 163.679622 
" clip-path="url(#p3831f137d9)" style="fill: none; stroke-dasharray: 3.7,1.6; stroke-dashoffset: 0; stroke: #000000; stroke-opacity: 0.7"/>
   </g>
   <g id="patch_8">
    <path d="M 38.836562 173.298125 
L 38.836562 111.738875 
" style="fill: none; stroke: #000000; stroke-width: 0.5; stroke-linejoin: miter; stroke-linecap: square"/>
   </g>
   <g id="patch_9">
    <path d="M 237.076563 173.298125 
L 237.076563 111.738875 
" style="fill: none; stroke: #000000; stroke-width: 0.5; stroke-linejoin: miter; stroke-linecap: square"/>
   </g>
   <g id="patch_10">
    <path d="M 38.836562 173.298125 
L 237.076562 173.298125 
" style="fill: none; stroke: #000000; stroke-width: 0.5; stroke-linejoin: miter; stroke-linecap: square"/>
   </g>
   <g id="patch_11">
    <path d="M 38.836562 111.738875 
L 237.076562 111.738875 
" style="fill: none; stroke: #000000; stroke-width: 0.5; stroke-linejoin: miter; stroke-linecap: square"/>
   </g>
   <g id="line2d_32">
    <path d="M 47.847472 118.369655 
L 59.620519 123.111861 
L 76.82728 130.357092 
L 95.845279 138.317305 
L 105.807088 142.248528 
L 114.863278 145.586681 
L 123.013849 148.373581 
L 131.16442 150.943748 
L 139.314991 153.293059 
L 147.465562 155.418569 
L 155.616133 157.32617 
L 164.672323 159.194901 
L 172.822894 160.66079 
L 181.879084 162.053651 
L 190.935274 163.205043 
L 199.991464 164.13028 
L 209.047654 164.841728 
L 219.009463 165.396516 
L 228.065653 165.711898 
L 228.065653 165.711898 
" clip-path="url(#p3831f137d9)" style="fill: none; stroke: #e74c3c; stroke-width: 2; stroke-linecap: square"/>
   </g>
   <g id="PathCollection_3">
    <g clip-path="url(#p3831f137d9)">
     <use xlink:href="#md194ba8ad6" x="197.500678" y="163.87919" style="fill: #a9bbf1; fill-opacity: 0.8; stroke: #3498db; stroke-opacity: 0.8"/>
     <use xlink:href="#md194ba8ad6" x="200.643024" y="164.101555" style="fill: #a9bbf1; fill-opacity: 0.8; stroke: #3498db; stroke-opacity: 0.8"/>
     <use xlink:href="#md194ba8ad6" x="203.32867" y="164.336026" style="fill: #a9bbf1; fill-opacity: 0.8; stroke: #3498db; stroke-opacity: 0.8"/>
     <use xlink:href="#md194ba8ad6" x="205.533835" y="164.514675" style="fill: #a9bbf1; fill-opacity: 0.8; stroke: #3498db; stroke-opacity: 0.8"/>
     <use xlink:href="#md194ba8ad6" x="207.271248" y="164.656446" style="fill: #a9bbf1; fill-opacity: 0.8; stroke: #3498db; stroke-opacity: 0.8"/>
     <use xlink:href="#md194ba8ad6" x="68.641877" y="126.9707" style="fill: #a9bbf1; fill-opacity: 0.8; stroke: #3498db; stroke-opacity: 0.8"/>
     <use xlink:href="#md194ba8ad6" x="77.486019" y="131.3197" style="fill: #a9bbf1; fill-opacity: 0.8; stroke: #3498db; stroke-opacity: 0.8"/>
     <use xlink:href="#md194ba8ad6" x="92.187787" y="137.646809" style="fill: #a9bbf1; fill-opacity: 0.8; stroke: #3498db; stroke-opacity: 0.8"/>
     <use xlink:href="#md194ba8ad6" x="109.085347" y="144.254813" style="fill: #a9bbf1; fill-opacity: 0.8; stroke: #3498db; stroke-opacity: 0.8"/>
     <use xlink:href="#md194ba8ad6" x="127.126871" y="150.448826" style="fill: #a9bbf1; fill-opacity: 0.8; stroke: #3498db; stroke-opacity: 0.8"/>
     <use xlink:href="#md194ba8ad6" x="145.594788" y="155.494051" style="fill: #a9bbf1; fill-opacity: 0.8; stroke: #3498db; stroke-opacity: 0.8"/>
     <use xlink:href="#md194ba8ad6" x="162.675683" y="159.145318" style="fill: #a9bbf1; fill-opacity: 0.8; stroke: #3498db; stroke-opacity: 0.8"/>
     <use xlink:href="#md194ba8ad6" x="176.217665" y="161.397725" style="fill: #a9bbf1; fill-opacity: 0.8; stroke: #3498db; stroke-opacity: 0.8"/>
     <use xlink:href="#md194ba8ad6" x="186.126285" y="162.794394" style="fill: #a9bbf1; fill-opacity: 0.8; stroke: #3498db; stroke-opacity: 0.8"/>
     <use xlink:href="#md194ba8ad6" x="193.990384" y="163.600517" style="fill: #a9bbf1; fill-opacity: 0.8; stroke: #3498db; stroke-opacity: 0.8"/>
     <use xlink:href="#md194ba8ad6" x="84.392825" y="134.363902" style="fill: #a9bbf1; fill-opacity: 0.8; stroke: #3498db; stroke-opacity: 0.8"/>
     <use xlink:href="#md194ba8ad6" x="157.945138" y="156.871683" style="fill: #a9bbf1; fill-opacity: 0.8; stroke: #3498db; stroke-opacity: 0.8"/>
     <use xlink:href="#md194ba8ad6" x="136.393836" y="153.100561" style="fill: #a9bbf1; fill-opacity: 0.8; stroke: #3498db; stroke-opacity: 0.8"/>
     <use xlink:href="#md194ba8ad6" x="129.015749" y="148.437021" style="fill: #a9bbf1; fill-opacity: 0.8; stroke: #3498db; stroke-opacity: 0.8"/>
     <use xlink:href="#md194ba8ad6" x="181.545885" y="162.181278" style="fill: #a9bbf1; fill-opacity: 0.8; stroke: #3498db; stroke-opacity: 0.8"/>
     <use xlink:href="#md194ba8ad6" x="70.568357" y="126.922646" style="fill: #a9bbf1; fill-opacity: 0.8; stroke: #3498db; stroke-opacity: 0.8"/>
    </g>
   </g>
   <g id="PathCollection_4">
    <g clip-path="url(#p3831f137d9)">
     <use xlink:href="#ma689d57475" x="93.541545" y="137.376608" style="fill: #ffffff; fill-opacity: 0.8; stroke: #d62728; stroke-opacity: 0.8"/>
     <use xlink:href="#ma689d57475" x="64.73071" y="125.238476" style="fill: #ffffff; fill-opacity: 0.8; stroke: #d62728; stroke-opacity: 0.8"/>
     <use xlink:href="#ma689d57475" x="63.217176" y="124.605194" style="fill: #ffffff; fill-opacity: 0.8; stroke: #d62728; stroke-opacity: 0.8"/>
     <use xlink:href="#ma689d57475" x="85.288502" y="133.941666" style="fill: #ffffff; fill-opacity: 0.8; stroke: #d62728; stroke-opacity: 0.8"/>
     <use xlink:href="#ma689d57475" x="112.849963" y="144.866749" style="fill: #ffffff; fill-opacity: 0.8; stroke: #d62728; stroke-opacity: 0.8"/>
     <use xlink:href="#ma689d57475" x="138.583977" y="153.092301" style="fill: #ffffff; fill-opacity: 0.8; stroke: #d62728; stroke-opacity: 0.8"/>
     <use xlink:href="#ma689d57475" x="158.808622" y="158.013472" style="fill: #ffffff; fill-opacity: 0.8; stroke: #d62728; stroke-opacity: 0.8"/>
     <use xlink:href="#ma689d57475" x="172.483815" y="160.602853" style="fill: #ffffff; fill-opacity: 0.8; stroke: #d62728; stroke-opacity: 0.8"/>
     <use xlink:href="#ma689d57475" x="181.534949" y="162.003811" style="fill: #ffffff; fill-opacity: 0.8; stroke: #d62728; stroke-opacity: 0.8"/>
     <use xlink:href="#ma689d57475" x="187.757577" y="162.828411" style="fill: #ffffff; fill-opacity: 0.8; stroke: #d62728; stroke-opacity: 0.8"/>
     <use xlink:href="#ma689d57475" x="191.470341" y="163.266699" style="fill: #ffffff; fill-opacity: 0.8; stroke: #d62728; stroke-opacity: 0.8"/>
    </g>
   </g>
  </g>
  <g id="axes_3">
   <g id="patch_12">
    <path d="M 38.836562 265.637 
L 237.076563 265.637 
L 237.076563 204.07775 
L 38.836562 204.07775 
z
" style="fill: #ffffff"/>
   </g>
   <g id="matplotlib.axis_5">
    <g id="xtick_11">
     <g id="line2d_33">
      <path d="M 59.269541 265.637 
L 59.269541 204.07775 
" clip-path="url(#p0f8a970694)" style="fill: none; stroke-dasharray: 1.85,0.8; stroke-dashoffset: 0; stroke: #b0b0b0; stroke-opacity: 0.5; stroke-width: 0.5"/>
     </g>
     <g id="line2d_34">
      <g>
       <use xlink:href="#m257b82d5d1" x="59.269541" y="265.637" style="stroke: #000000; stroke-width: 0.5"/>
      </g>
     </g>
     <g id="text_19">
      <!-- −4 -->
      <g transform="translate(53.372666 275.21575) scale(0.08 -0.08)">
       <use xlink:href="#DejaVuSerif-2212"/>
       <use xlink:href="#DejaVuSerif-34" x="83.789062"/>
      </g>
     </g>
    </g>
    <g id="xtick_12">
     <g id="line2d_35">
      <path d="M 86.5465 265.637 
L 86.5465 204.07775 
" clip-path="url(#p0f8a970694)" style="fill: none; stroke-dasharray: 1.85,0.8; stroke-dashoffset: 0; stroke: #b0b0b0; stroke-opacity: 0.5; stroke-width: 0.5"/>
     </g>
     <g id="line2d_36">
      <g>
       <use xlink:href="#m257b82d5d1" x="86.5465" y="265.637" style="stroke: #000000; stroke-width: 0.5"/>
      </g>
     </g>
     <g id="text_20">
      <!-- −2 -->
      <g transform="translate(80.649625 275.21575) scale(0.08 -0.08)">
       <use xlink:href="#DejaVuSerif-2212"/>
       <use xlink:href="#DejaVuSerif-32" x="83.789062"/>
      </g>
     </g>
    </g>
    <g id="xtick_13">
     <g id="line2d_37">
      <path d="M 113.82346 265.637 
L 113.82346 204.07775 
" clip-path="url(#p0f8a970694)" style="fill: none; stroke-dasharray: 1.85,0.8; stroke-dashoffset: 0; stroke: #b0b0b0; stroke-opacity: 0.5; stroke-width: 0.5"/>
     </g>
     <g id="line2d_38">
      <g>
       <use xlink:href="#m257b82d5d1" x="113.82346" y="265.637" style="stroke: #000000; stroke-width: 0.5"/>
      </g>
     </g>
     <g id="text_21">
      <!-- 0 -->
      <g transform="translate(111.27846 275.21575) scale(0.08 -0.08)">
       <use xlink:href="#DejaVuSerif-30"/>
      </g>
     </g>
    </g>
    <g id="xtick_14">
     <g id="line2d_39">
      <path d="M 141.10042 265.637 
L 141.10042 204.07775 
" clip-path="url(#p0f8a970694)" style="fill: none; stroke-dasharray: 1.85,0.8; stroke-dashoffset: 0; stroke: #b0b0b0; stroke-opacity: 0.5; stroke-width: 0.5"/>
     </g>
     <g id="line2d_40">
      <g>
       <use xlink:href="#m257b82d5d1" x="141.10042" y="265.637" style="stroke: #000000; stroke-width: 0.5"/>
      </g>
     </g>
     <g id="text_22">
      <!-- 2 -->
      <g transform="translate(138.55542 275.21575) scale(0.08 -0.08)">
       <use xlink:href="#DejaVuSerif-32"/>
      </g>
     </g>
    </g>
    <g id="xtick_15">
     <g id="line2d_41">
      <path d="M 168.377379 265.637 
L 168.377379 204.07775 
" clip-path="url(#p0f8a970694)" style="fill: none; stroke-dasharray: 1.85,0.8; stroke-dashoffset: 0; stroke: #b0b0b0; stroke-opacity: 0.5; stroke-width: 0.5"/>
     </g>
     <g id="line2d_42">
      <g>
       <use xlink:href="#m257b82d5d1" x="168.377379" y="265.637" style="stroke: #000000; stroke-width: 0.5"/>
      </g>
     </g>
     <g id="text_23">
      <!-- 4 -->
      <g transform="translate(165.832379 275.21575) scale(0.08 -0.08)">
       <use xlink:href="#DejaVuSerif-34"/>
      </g>
     </g>
    </g>
    <g id="xtick_16">
     <g id="line2d_43">
      <path d="M 195.654339 265.637 
L 195.654339 204.07775 
" clip-path="url(#p0f8a970694)" style="fill: none; stroke-dasharray: 1.85,0.8; stroke-dashoffset: 0; stroke: #b0b0b0; stroke-opacity: 0.5; stroke-width: 0.5"/>
     </g>
     <g id="line2d_44">
      <g>
       <use xlink:href="#m257b82d5d1" x="195.654339" y="265.637" style="stroke: #000000; stroke-width: 0.5"/>
      </g>
     </g>
     <g id="text_24">
      <!-- 6 -->
      <g transform="translate(193.109339 275.21575) scale(0.08 -0.08)">
       <use xlink:href="#DejaVuSerif-36"/>
      </g>
     </g>
    </g>
    <g id="xtick_17">
     <g id="line2d_45">
      <path d="M 222.931298 265.637 
L 222.931298 204.07775 
" clip-path="url(#p0f8a970694)" style="fill: none; stroke-dasharray: 1.85,0.8; stroke-dashoffset: 0; stroke: #b0b0b0; stroke-opacity: 0.5; stroke-width: 0.5"/>
     </g>
     <g id="line2d_46">
      <g>
       <use xlink:href="#m257b82d5d1" x="222.931298" y="265.637" style="stroke: #000000; stroke-width: 0.5"/>
      </g>
     </g>
     <g id="text_25">
      <!-- 8 -->
      <g transform="translate(220.386298 275.21575) scale(0.08 -0.08)">
       <use xlink:href="#DejaVuSerif-38"/>
      </g>
     </g>
    </g>
    <g id="text_26">
     <!-- $v_{z}$ [m/s] -->
     <g transform="translate(121.486563 287.718094) scale(0.09 -0.09)">
      <defs>
       <path id="STIXGeneral-Italic-7a" d="M 2432 2669 
L 582 467 
Q 877 403 1021 307 
Q 1165 211 1350 -64 
Q 1568 -384 1798 -384 
Q 1971 -384 1971 -288 
Q 1971 -256 1939 -192 
Q 1888 -90 1888 -13 
Q 1894 70 1958 137 
Q 2022 205 2099 205 
Q 2202 205 2262 141 
Q 2323 77 2323 -32 
Q 2323 -230 2156 -374 
Q 1990 -518 1728 -518 
Q 1459 -518 1005 -237 
Q 570 32 333 32 
Q 186 32 45 -83 
L -13 -26 
L 1971 2355 
L 1101 2355 
Q 845 2355 729 2281 
Q 614 2208 518 1971 
L 416 1997 
L 621 2739 
L 2432 2739 
L 2432 2669 
z
" transform="scale(0.015625)"/>
      </defs>
      <use xlink:href="#STIXGeneral-Italic-76" transform="translate(0 0.015625)"/>
      <use xlink:href="#STIXGeneral-Italic-7a" transform="translate(44.399994 -13.2125) scale(0.7)"/>
      <use xlink:href="#DejaVuSerif-20" transform="translate(76.039365 0.015625)"/>
      <use xlink:href="#DejaVuSerif-5b" transform="translate(107.826474 0.015625)"/>
      <use xlink:href="#DejaVuSerif-6d" transform="translate(146.840146 0.015625)"/>
      <use xlink:href="#DejaVuSerif-2f" transform="translate(241.664365 0.015625)"/>
      <use xlink:href="#DejaVuSerif-73" transform="translate(275.355771 0.015625)"/>
      <use xlink:href="#DejaVuSerif-5d" transform="translate(326.67413 0.015625)"/>
     </g>
    </g>
   </g>
   <g id="matplotlib.axis_6">
    <g id="ytick_5">
     <g id="line2d_47">
      <path d="M 38.836562 256.602917 
L 237.076563 256.602917 
" clip-path="url(#p0f8a970694)" style="fill: none; stroke-dasharray: 1.85,0.8; stroke-dashoffset: 0; stroke: #b0b0b0; stroke-opacity: 0.5; stroke-width: 0.5"/>
     </g>
     <g id="line2d_48">
      <g>
       <use xlink:href="#m4d367cadd2" x="38.836562" y="256.602917" style="stroke: #000000; stroke-width: 0.5"/>
      </g>
     </g>
     <g id="text_27">
      <!-- -2.5 -->
      <g transform="translate(19.910312 259.642292) scale(0.08 -0.08)">
       <defs>
        <path id="DejaVuSerif-2d" d="M 281 1959 
L 1881 1959 
L 1881 1472 
L 281 1472 
L 281 1959 
z
" transform="scale(0.015625)"/>
       </defs>
       <use xlink:href="#DejaVuSerif-2d"/>
       <use xlink:href="#DejaVuSerif-32" x="33.789062"/>
       <use xlink:href="#DejaVuSerif-2e" x="97.412109"/>
       <use xlink:href="#DejaVuSerif-35" x="129.199219"/>
      </g>
     </g>
    </g>
    <g id="ytick_6">
     <g id="line2d_49">
      <path d="M 38.836562 237.159274 
L 237.076563 237.159274 
" clip-path="url(#p0f8a970694)" style="fill: none; stroke-dasharray: 1.85,0.8; stroke-dashoffset: 0; stroke: #b0b0b0; stroke-opacity: 0.5; stroke-width: 0.5"/>
     </g>
     <g id="line2d_50">
      <g>
       <use xlink:href="#m4d367cadd2" x="38.836562" y="237.159274" style="stroke: #000000; stroke-width: 0.5"/>
      </g>
     </g>
     <g id="text_28">
      <!-- 0.0 -->
      <g transform="translate(22.614062 240.198649) scale(0.08 -0.08)">
       <use xlink:href="#DejaVuSerif-30"/>
       <use xlink:href="#DejaVuSerif-2e" x="63.623047"/>
       <use xlink:href="#DejaVuSerif-30" x="95.410156"/>
      </g>
     </g>
    </g>
    <g id="ytick_7">
     <g id="line2d_51">
      <path d="M 38.836562 217.715632 
L 237.076563 217.715632 
" clip-path="url(#p0f8a970694)" style="fill: none; stroke-dasharray: 1.85,0.8; stroke-dashoffset: 0; stroke: #b0b0b0; stroke-opacity: 0.5; stroke-width: 0.5"/>
     </g>
     <g id="line2d_52">
      <g>
       <use xlink:href="#m4d367cadd2" x="38.836562" y="217.715632" style="stroke: #000000; stroke-width: 0.5"/>
      </g>
     </g>
     <g id="text_29">
      <!-- 2.5 -->
      <g transform="translate(22.614062 220.755007) scale(0.08 -0.08)">
       <use xlink:href="#DejaVuSerif-32"/>
       <use xlink:href="#DejaVuSerif-2e" x="63.623047"/>
       <use xlink:href="#DejaVuSerif-35" x="95.410156"/>
      </g>
     </g>
    </g>
    <g id="text_30">
     <!-- $\Delta a_{z}$ [m/s²] -->
     <g transform="translate(14.038594 256.637375) rotate(-90) scale(0.09 -0.09)">
      <use xlink:href="#STIXGeneral-Regular-394" transform="translate(0 0.015625)"/>
      <use xlink:href="#STIXGeneral-Italic-61" transform="translate(72.199982 0.015625)"/>
      <use xlink:href="#STIXGeneral-Italic-7a" transform="translate(122.299973 -13.2125) scale(0.7)"/>
      <use xlink:href="#DejaVuSerif-20" transform="translate(153.939343 0.015625)"/>
      <use xlink:href="#DejaVuSerif-5b" transform="translate(185.726453 0.015625)"/>
      <use xlink:href="#DejaVuSerif-6d" transform="translate(224.740125 0.015625)"/>
      <use xlink:href="#DejaVuSerif-2f" transform="translate(319.564343 0.015625)"/>
      <use xlink:href="#DejaVuSerif-73" transform="translate(353.25575 0.015625)"/>
      <use xlink:href="#DejaVuSerif-b2" transform="translate(404.574109 0.015625)"/>
      <use xlink:href="#DejaVuSerif-5d" transform="translate(444.662 0.015625)"/>
     </g>
    </g>
   </g>
   <g id="PolyCollection_3">
    <defs>
     <path id="m6f1bfe7da9" d="M 47.847472 -89.913915 
L 47.847472 -57.509373 
L 48.753091 -58.172896 
L 49.65871 -58.840908 
L 50.564329 -59.511457 
L 51.469948 -60.182146 
L 52.375567 -60.850683 
L 53.281186 -61.513974 
L 54.186805 -62.169097 
L 55.092424 -62.812599 
L 55.998043 -63.440384 
L 56.903662 -64.048636 
L 57.809281 -64.632358 
L 58.7149 -65.186801 
L 59.620519 -65.705848 
L 60.526138 -66.183928 
L 61.431757 -66.613563 
L 62.337376 -66.987583 
L 63.242995 -67.297965 
L 64.148614 -67.535889 
L 65.054233 -67.693206 
L 65.959852 -67.761616 
L 66.865471 -67.73601 
L 67.77109 -67.613769 
L 68.676709 -67.398138 
L 69.582328 -67.097937 
L 70.487947 -66.726586 
L 71.393566 -66.301008 
L 72.299185 -65.837066 
L 73.204804 -65.349156 
L 74.110423 -64.847564 
L 75.016042 -64.33987 
L 75.921661 -63.831308 
L 76.82728 -63.325046 
L 77.732899 -62.824162 
L 78.638518 -62.332443 
L 79.544137 -61.854451 
L 80.449756 -61.395324 
L 81.355375 -60.960097 
L 82.260994 -60.553264 
L 83.166613 -60.178177 
L 84.072232 -59.83707 
L 84.977851 -59.53043 
L 85.88347 -59.257641 
L 86.789089 -59.016698 
L 87.694708 -58.804629 
L 88.600327 -58.617904 
L 89.505946 -58.452426 
L 90.411565 -58.303885 
L 91.317184 -58.168862 
L 92.222803 -58.04368 
L 93.128422 -57.927096 
L 94.034041 -57.81932 
L 94.93966 -57.722221 
L 95.845279 -57.639197 
L 96.750898 -57.573429 
L 97.656517 -57.528184 
L 98.562136 -57.505915 
L 99.467755 -57.507877 
L 100.373374 -57.534476 
L 101.278993 -57.585006 
L 102.184612 -57.658682 
L 103.090231 -57.754312 
L 103.99585 -57.871146 
L 104.901469 -58.009187 
L 105.807088 -58.169501 
L 106.712707 -58.353681 
L 107.618326 -58.563152 
L 108.523945 -58.798774 
L 109.429564 -59.059927 
L 110.335183 -59.344495 
L 111.240802 -59.648679 
L 112.146421 -59.966888 
L 113.05204 -60.292378 
L 113.957659 -60.617922 
L 114.863278 -60.936427 
L 115.768897 -61.241414 
L 116.674516 -61.527426 
L 117.580135 -61.790376 
L 118.485754 -62.027959 
L 119.391373 -62.240406 
L 120.296992 -62.430066 
L 121.202611 -62.600736 
L 122.10823 -62.757372 
L 123.013849 -62.905419 
L 123.919468 -63.050339 
L 124.825087 -63.197411 
L 125.730706 -63.351382 
L 126.636325 -63.516487 
L 127.541944 -63.696482 
L 128.447563 -63.894198 
L 129.353182 -64.112056 
L 130.258801 -64.351583 
L 131.16442 -64.61371 
L 132.070039 -64.898616 
L 132.975658 -65.205799 
L 133.881277 -65.533936 
L 134.786896 -65.880981 
L 135.692515 -66.244125 
L 136.598134 -66.619528 
L 137.503753 -67.002649 
L 138.409372 -67.387721 
L 139.314991 -67.768001 
L 140.22061 -68.135411 
L 141.126229 -68.480614 
L 142.031848 -68.793041 
L 142.937467 -69.060606 
L 143.843086 -69.270743 
L 144.748705 -69.411101 
L 145.654324 -69.470793 
L 146.559943 -69.442953 
L 147.465562 -69.326474 
L 148.371181 -69.127204 
L 149.2768 -68.857077 
L 150.182419 -68.532367 
L 151.088038 -68.170847 
L 151.993657 -67.790205 
L 152.899276 -67.406761 
L 153.804895 -67.034876 
L 154.710514 -66.686836 
L 155.616133 -66.372712 
L 156.521752 -66.100616 
L 157.427371 -65.876802 
L 158.33299 -65.705526 
L 159.238609 -65.589455 
L 160.144228 -65.529504 
L 161.049847 -65.524862 
L 161.955466 -65.573261 
L 162.861085 -65.670722 
L 163.766704 -65.812149 
L 164.672323 -65.991079 
L 165.577942 -66.200451 
L 166.483561 -66.432742 
L 167.38918 -66.680549 
L 168.294799 -66.937019 
L 169.200418 -67.195659 
L 170.106037 -67.45024 
L 171.011656 -67.694094 
L 171.917275 -67.919104 
L 172.822894 -68.11568 
L 173.728513 -68.272291 
L 174.634132 -68.376104 
L 175.539751 -68.41407 
L 176.44537 -68.374281 
L 177.350989 -68.247944 
L 178.256608 -68.030174 
L 179.162227 -67.720605 
L 180.067846 -67.322546 
L 180.973465 -66.841771 
L 181.879084 -66.286116 
L 182.784703 -65.664323 
L 183.690322 -64.985681 
L 184.595941 -64.259795 
L 185.50156 -63.496019 
L 186.407179 -62.703609 
L 187.312798 -61.89138 
L 188.218417 -61.067855 
L 189.124036 -60.241198 
L 190.029655 -59.419022 
L 190.935274 -58.608543 
L 191.840893 -57.81656 
L 192.746512 -57.049274 
L 193.652131 -56.31241 
L 194.55775 -55.610911 
L 195.463369 -54.949266 
L 196.368988 -54.331148 
L 197.274607 -53.759274 
L 198.180226 -53.235305 
L 199.085845 -52.759614 
L 199.991464 -52.331038 
L 200.897083 -51.946174 
L 201.802702 -51.598956 
L 202.708321 -51.279712 
L 203.61394 -50.974171 
L 204.519559 -50.662721 
L 205.425178 -50.320327 
L 206.330797 -49.918673 
L 207.236416 -49.431948 
L 208.142035 -48.844811 
L 209.047654 -48.157478 
L 209.953273 -47.384858 
L 210.858892 -46.549433 
L 211.764511 -45.675037 
L 212.67013 -44.78247 
L 213.575749 -43.888417 
L 214.481368 -43.005676 
L 215.386987 -42.143717 
L 216.292606 -41.309477 
L 217.198225 -40.507907 
L 218.103844 -39.742524 
L 219.009463 -39.015698 
L 219.915082 -38.32893 
L 220.820701 -37.682999 
L 221.72632 -37.078236 
L 222.631939 -36.514483 
L 223.537558 -35.991273 
L 224.443177 -35.507858 
L 225.348796 -35.063314 
L 226.254415 -34.656479 
L 227.160034 -34.286155 
L 228.065653 -33.95096 
L 228.065653 -69.737375 
L 228.065653 -69.737375 
L 227.160034 -69.01736 
L 226.254415 -68.290029 
L 225.348796 -67.557084 
L 224.443177 -66.820412 
L 223.537558 -66.082206 
L 222.631939 -65.344851 
L 221.72632 -64.611086 
L 220.820701 -63.883999 
L 219.915082 -63.166986 
L 219.009463 -62.464107 
L 218.103844 -61.779726 
L 217.198225 -61.11901 
L 216.292606 -60.487819 
L 215.386987 -59.893184 
L 214.481368 -59.343343 
L 213.575749 -58.848334 
L 212.67013 -58.420438 
L 211.764511 -58.07493 
L 210.858892 -57.830517 
L 209.953273 -57.70952 
L 209.047654 -57.736587 
L 208.142035 -57.934342 
L 207.236416 -58.31687 
L 206.330797 -58.882393 
L 205.425178 -59.612781 
L 204.519559 -60.477997 
L 203.61394 -61.444789 
L 202.708321 -62.48227 
L 201.802702 -63.564406 
L 200.897083 -64.669919 
L 199.991464 -65.781616 
L 199.085845 -66.885452 
L 198.180226 -67.969939 
L 197.274607 -69.025131 
L 196.368988 -70.042907 
L 195.463369 -71.015832 
L 194.55775 -71.937788 
L 193.652131 -72.803351 
L 192.746512 -73.60782 
L 191.840893 -74.347237 
L 190.935274 -75.018423 
L 190.029655 -75.618785 
L 189.124036 -76.146486 
L 188.218417 -76.600435 
L 187.312798 -76.980407 
L 186.407179 -77.286945 
L 185.50156 -77.521585 
L 184.595941 -77.686721 
L 183.690322 -77.786013 
L 182.784703 -77.823926 
L 181.879084 -77.806213 
L 180.973465 -77.739544 
L 180.067846 -77.631517 
L 179.162227 -77.490048 
L 178.256608 -77.323201 
L 177.350989 -77.138296 
L 176.44537 -76.941458 
L 175.539751 -76.737189 
L 174.634132 -76.528648 
L 173.728513 -76.318453 
L 172.822894 -76.109584 
L 171.917275 -75.906449 
L 171.011656 -75.715234 
L 170.106037 -75.543716 
L 169.200418 -75.400526 
L 168.294799 -75.294203 
L 167.38918 -75.231583 
L 166.483561 -75.216753 
L 165.577942 -75.250315 
L 164.672323 -75.329718 
L 163.766704 -75.450171 
L 162.861085 -75.605 
L 161.955466 -75.786528 
L 161.049847 -75.986827 
L 160.144228 -76.19795 
L 159.238609 -76.412343 
L 158.33299 -76.622983 
L 157.427371 -76.823859 
L 156.521752 -77.010026 
L 155.616133 -77.177648 
L 154.710514 -77.32455 
L 153.804895 -77.450175 
L 152.899276 -77.555907 
L 151.993657 -77.645246 
L 151.088038 -77.724087 
L 150.182419 -77.800499 
L 149.2768 -77.884299 
L 148.371181 -77.986157 
L 147.465562 -78.115752 
L 146.559943 -78.279506 
L 145.654324 -78.478739 
L 144.748705 -78.709015 
L 143.843086 -78.961008 
L 142.937467 -79.222491 
L 142.031848 -79.480235 
L 141.126229 -79.721454 
L 140.22061 -79.93475 
L 139.314991 -80.110277 
L 138.409372 -80.23999 
L 137.503753 -80.317495 
L 136.598134 -80.337859 
L 135.692515 -80.297556 
L 134.786896 -80.194139 
L 133.881277 -80.026437 
L 132.975658 -79.794128 
L 132.070039 -79.497851 
L 131.16442 -79.139168 
L 130.258801 -78.720282 
L 129.353182 -78.244432 
L 128.447563 -77.71537 
L 127.541944 -77.137879 
L 126.636325 -76.517278 
L 125.730706 -75.859754 
L 124.825087 -75.172164 
L 123.919468 -74.462105 
L 123.013849 -73.737806 
L 122.10823 -73.008048 
L 121.202611 -72.28189 
L 120.296992 -71.568713 
L 119.391373 -70.877304 
L 118.485754 -70.215849 
L 117.580135 -69.59102 
L 116.674516 -69.007728 
L 115.768897 -68.46875 
L 114.863278 -67.975119 
L 113.957659 -67.526494 
L 113.05204 -67.121969 
L 112.146421 -66.759587 
L 111.240802 -66.437129 
L 110.335183 -66.151683 
L 109.429564 -65.900196 
L 108.523945 -65.679489 
L 107.618326 -65.486664 
L 106.712707 -65.319394 
L 105.807088 -65.175836 
L 104.901469 -65.054402 
L 103.99585 -64.953999 
L 103.090231 -64.873625 
L 102.184612 -64.812808 
L 101.278993 -64.771309 
L 100.373374 -64.748443 
L 99.467755 -64.743355 
L 98.562136 -64.754881 
L 97.656517 -64.78216 
L 96.750898 -64.824775 
L 95.845279 -64.883129 
L 94.93966 -64.958547 
L 94.034041 -65.05246 
L 93.128422 -65.166402 
L 92.222803 -65.301702 
L 91.317184 -65.459466 
L 90.411565 -65.640865 
L 89.505946 -65.847095 
L 88.600327 -66.078712 
L 87.694708 -66.336614 
L 86.789089 -66.620218 
L 85.88347 -66.927706 
L 84.977851 -67.256663 
L 84.072232 -67.603322 
L 83.166613 -67.964605 
L 82.260994 -68.33722 
L 81.355375 -68.718977 
L 80.449756 -69.108214 
L 79.544137 -69.504163 
L 78.638518 -69.906633 
L 77.732899 -70.315454 
L 76.82728 -70.730786 
L 75.921661 -71.152129 
L 75.016042 -71.578763 
L 74.110423 -72.009013 
L 73.204804 -72.442444 
L 72.299185 -72.879008 
L 71.393566 -73.322523 
L 70.487947 -73.77912 
L 69.582328 -74.258041 
L 68.676709 -74.769262 
L 67.77109 -75.321324 
L 66.865471 -75.918934 
L 65.959852 -76.561962 
L 65.054233 -77.24622 
L 64.148614 -77.964637 
L 63.242995 -78.708837 
L 62.337376 -79.470116 
L 61.431757 -80.24077 
L 60.526138 -81.013551 
L 59.620519 -81.782162 
L 58.7149 -82.541437 
L 57.809281 -83.286932 
L 56.903662 -84.014934 
L 55.998043 -84.722575 
L 55.092424 -85.407378 
L 54.186805 -86.067455 
L 53.281186 -86.701229 
L 52.375567 -87.307819 
L 51.469948 -87.886287 
L 50.564329 -88.436307 
L 49.65871 -88.957563 
L 48.753091 -89.45004 
L 47.847472 -89.913915 
z
" style="stroke: #e74c3c; stroke-opacity: 0.2"/>
    </defs>
    <g clip-path="url(#p0f8a970694)">
     <use xlink:href="#m6f1bfe7da9" x="0" y="296.789812" style="fill: #e74c3c; fill-opacity: 0.2; stroke: #e74c3c; stroke-opacity: 0.2"/>
    </g>
   </g>
   <g id="line2d_53">
    <path d="M 38.836562 237.159274 
L 237.076563 237.159274 
" clip-path="url(#p0f8a970694)" style="fill: none; stroke-dasharray: 3.7,1.6; stroke-dashoffset: 0; stroke: #000000; stroke-opacity: 0.7"/>
   </g>
   <g id="patch_13">
    <path d="M 38.836562 265.637 
L 38.836562 204.07775 
" style="fill: none; stroke: #000000; stroke-width: 0.5; stroke-linejoin: miter; stroke-linecap: square"/>
   </g>
   <g id="patch_14">
    <path d="M 237.076563 265.637 
L 237.076563 204.07775 
" style="fill: none; stroke: #000000; stroke-width: 0.5; stroke-linejoin: miter; stroke-linecap: square"/>
   </g>
   <g id="patch_15">
    <path d="M 38.836562 265.637 
L 237.076563 265.637 
" style="fill: none; stroke: #000000; stroke-width: 0.5; stroke-linejoin: miter; stroke-linecap: square"/>
   </g>
   <g id="patch_16">
    <path d="M 38.836562 204.07775 
L 237.076563 204.07775 
" style="fill: none; stroke: #000000; stroke-width: 0.5; stroke-linejoin: miter; stroke-linecap: square"/>
   </g>
   <g id="line2d_54">
    <path d="M 47.847472 223.078169 
L 51.469948 222.755596 
L 55.092424 222.679824 
L 57.809281 222.830167 
L 60.526138 223.191073 
L 63.242995 223.786411 
L 65.959852 224.628023 
L 68.676709 225.706112 
L 72.299185 227.431775 
L 81.355375 231.950275 
L 84.072232 233.069617 
L 86.789089 233.971355 
L 89.505946 234.640052 
L 93.128422 235.243063 
L 96.750898 235.590711 
L 99.467755 235.664197 
L 102.184612 235.554068 
L 104.901469 235.258018 
L 107.618326 234.764905 
L 110.335183 234.041723 
L 113.05204 233.082639 
L 116.674516 231.522236 
L 130.258801 225.25388 
L 133.881277 224.009626 
L 136.598134 223.311118 
L 139.314991 222.850673 
L 142.031848 222.653175 
L 144.748705 222.729755 
L 147.465562 223.0687 
L 150.182419 223.62338 
L 160.144228 225.926085 
L 162.861085 226.151951 
L 165.577942 226.064429 
L 168.294799 225.674201 
L 176.44537 224.131943 
L 178.256608 224.113126 
L 180.067846 224.312781 
L 181.879084 224.743648 
L 183.690322 225.403966 
L 185.50156 226.28101 
L 187.312798 227.353919 
L 190.029655 229.270909 
L 193.652131 232.231932 
L 201.802702 239.208131 
L 204.519559 241.219454 
L 207.236416 242.915403 
L 209.047654 243.84278 
L 210.858892 244.599838 
L 212.67013 245.188358 
L 214.481368 245.615303 
L 217.198225 245.976354 
L 219.915082 246.041855 
L 222.631939 245.860146 
L 225.348796 245.479614 
L 228.065653 244.945645 
L 228.065653 244.945645 
" clip-path="url(#p0f8a970694)" style="fill: none; stroke: #e74c3c; stroke-width: 2; stroke-linecap: square"/>
   </g>
   <g id="PathCollection_5">
    <g clip-path="url(#p0f8a970694)">
     <use xlink:href="#md194ba8ad6" x="112.911064" y="233.045404" style="fill: #a9bbf1; fill-opacity: 0.8; stroke: #3498db; stroke-opacity: 0.8"/>
     <use xlink:href="#md194ba8ad6" x="113.115126" y="232.32349" style="fill: #a9bbf1; fill-opacity: 0.8; stroke: #3498db; stroke-opacity: 0.8"/>
     <use xlink:href="#md194ba8ad6" x="112.80258" y="233.195477" style="fill: #a9bbf1; fill-opacity: 0.8; stroke: #3498db; stroke-opacity: 0.8"/>
     <use xlink:href="#md194ba8ad6" x="112.064959" y="232.708288" style="fill: #a9bbf1; fill-opacity: 0.8; stroke: #3498db; stroke-opacity: 0.8"/>
     <use xlink:href="#md194ba8ad6" x="111.581564" y="232.925718" style="fill: #a9bbf1; fill-opacity: 0.8; stroke: #3498db; stroke-opacity: 0.8"/>
     <use xlink:href="#md194ba8ad6" x="146.897926" y="222.542755" style="fill: #a9bbf1; fill-opacity: 0.8; stroke: #3498db; stroke-opacity: 0.8"/>
     <use xlink:href="#md194ba8ad6" x="117.546214" y="230.964592" style="fill: #a9bbf1; fill-opacity: 0.8; stroke: #3498db; stroke-opacity: 0.8"/>
     <use xlink:href="#md194ba8ad6" x="92.552902" y="232.913786" style="fill: #a9bbf1; fill-opacity: 0.8; stroke: #3498db; stroke-opacity: 0.8"/>
     <use xlink:href="#md194ba8ad6" x="77.153461" y="228.147336" style="fill: #a9bbf1; fill-opacity: 0.8; stroke: #3498db; stroke-opacity: 0.8"/>
     <use xlink:href="#md194ba8ad6" x="69.929742" y="225.666322" style="fill: #a9bbf1; fill-opacity: 0.8; stroke: #3498db; stroke-opacity: 0.8"/>
     <use xlink:href="#md194ba8ad6" x="69.394722" y="226.364704" style="fill: #a9bbf1; fill-opacity: 0.8; stroke: #3498db; stroke-opacity: 0.8"/>
     <use xlink:href="#md194ba8ad6" x="75.439588" y="231.101113" style="fill: #a9bbf1; fill-opacity: 0.8; stroke: #3498db; stroke-opacity: 0.8"/>
     <use xlink:href="#md194ba8ad6" x="87.299424" y="235.461688" style="fill: #a9bbf1; fill-opacity: 0.8; stroke: #3498db; stroke-opacity: 0.8"/>
     <use xlink:href="#md194ba8ad6" x="100.857116" y="236.798586" style="fill: #a9bbf1; fill-opacity: 0.8; stroke: #3498db; stroke-opacity: 0.8"/>
     <use xlink:href="#md194ba8ad6" x="110.083096" y="234.419611" style="fill: #a9bbf1; fill-opacity: 0.8; stroke: #3498db; stroke-opacity: 0.8"/>
     <use xlink:href="#md194ba8ad6" x="103.94975" y="233.550219" style="fill: #a9bbf1; fill-opacity: 0.8; stroke: #3498db; stroke-opacity: 0.8"/>
     <use xlink:href="#md194ba8ad6" x="167.766258" y="227.066818" style="fill: #a9bbf1; fill-opacity: 0.8; stroke: #3498db; stroke-opacity: 0.8"/>
     <use xlink:href="#md194ba8ad6" x="68.641877" y="225.197428" style="fill: #a9bbf1; fill-opacity: 0.8; stroke: #3498db; stroke-opacity: 0.8"/>
     <use xlink:href="#md194ba8ad6" x="207.271248" y="243.357628" style="fill: #a9bbf1; fill-opacity: 0.8; stroke: #3498db; stroke-opacity: 0.8"/>
     <use xlink:href="#md194ba8ad6" x="94.210712" y="236.440456" style="fill: #a9bbf1; fill-opacity: 0.8; stroke: #3498db; stroke-opacity: 0.8"/>
     <use xlink:href="#md194ba8ad6" x="176.442041" y="222.812499" style="fill: #a9bbf1; fill-opacity: 0.8; stroke: #3498db; stroke-opacity: 0.8"/>
    </g>
   </g>
   <g id="PathCollection_6">
    <g clip-path="url(#p0f8a970694)">
     <use xlink:href="#ma689d57475" x="206.56238" y="242.527693" style="fill: #ffffff; fill-opacity: 0.8; stroke: #d62728; stroke-opacity: 0.8"/>
     <use xlink:href="#ma689d57475" x="176.505792" y="224.128032" style="fill: #ffffff; fill-opacity: 0.8; stroke: #d62728; stroke-opacity: 0.8"/>
     <use xlink:href="#ma689d57475" x="117.860145" y="230.966535" style="fill: #ffffff; fill-opacity: 0.8; stroke: #d62728; stroke-opacity: 0.8"/>
     <use xlink:href="#ma689d57475" x="80.593527" y="231.604633" style="fill: #ffffff; fill-opacity: 0.8; stroke: #d62728; stroke-opacity: 0.8"/>
     <use xlink:href="#ma689d57475" x="65.951707" y="224.625042" style="fill: #ffffff; fill-opacity: 0.8; stroke: #d62728; stroke-opacity: 0.8"/>
     <use xlink:href="#ma689d57475" x="65.213474" y="224.372302" style="fill: #ffffff; fill-opacity: 0.8; stroke: #d62728; stroke-opacity: 0.8"/>
     <use xlink:href="#ma689d57475" x="74.68125" y="228.65712" style="fill: #ffffff; fill-opacity: 0.8; stroke: #d62728; stroke-opacity: 0.8"/>
     <use xlink:href="#ma689d57475" x="89.887879" y="234.717322" style="fill: #ffffff; fill-opacity: 0.8; stroke: #d62728; stroke-opacity: 0.8"/>
     <use xlink:href="#ma689d57475" x="103.542967" y="235.429156" style="fill: #ffffff; fill-opacity: 0.8; stroke: #d62728; stroke-opacity: 0.8"/>
     <use xlink:href="#ma689d57475" x="111.469579" y="233.668363" style="fill: #ffffff; fill-opacity: 0.8; stroke: #d62728; stroke-opacity: 0.8"/>
     <use xlink:href="#ma689d57475" x="118.706178" y="230.562021" style="fill: #ffffff; fill-opacity: 0.8; stroke: #d62728; stroke-opacity: 0.8"/>
    </g>
   </g>
  </g>
  <g id="legend_1">
   <g id="patch_17">
    <path d="M 26.857812 19.7425 
L 214.735312 19.7425 
Q 216.335312 19.7425 216.335312 18.1425 
L 216.335312 8.8 
Q 216.335312 7.2 214.735312 7.2 
L 26.857812 7.2 
Q 25.257812 7.2 25.257812 8.8 
L 25.257812 18.1425 
Q 25.257812 19.7425 26.857812 19.7425 
z
" style="fill: #ffffff; opacity: 0.8; stroke: #cccccc; stroke-linejoin: miter"/>
   </g>
   <g id="PathCollection_7">
    <g>
     <use xlink:href="#md194ba8ad6" x="32.457812" y="13.57875" style="fill: #a9bbf1; fill-opacity: 0.8; stroke: #3498db; stroke-opacity: 0.8"/>
    </g>
   </g>
   <g id="text_31">
    <!-- Data -->
    <g transform="translate(43.657812 15.67875) scale(0.08 -0.08)">
     <defs>
      <path id="DejaVuSerif-44" d="M 1581 331 
L 2163 331 
Q 3072 331 3558 850 
Q 4044 1369 4044 2338 
Q 4044 3306 3559 3818 
Q 3075 4331 2163 4331 
L 1581 4331 
L 1581 331 
z
M 353 0 
L 353 331 
L 947 331 
L 947 4331 
L 353 4331 
L 353 4666 
L 2209 4666 
Q 3416 4666 4089 4050 
Q 4763 3434 4763 2338 
Q 4763 1238 4088 619 
Q 3413 0 2209 0 
L 353 0 
z
" transform="scale(0.015625)"/>
      <path id="DejaVuSerif-61" d="M 2547 1044 
L 2547 1747 
L 1806 1747 
Q 1378 1747 1168 1562 
Q 959 1378 959 997 
Q 959 650 1171 447 
Q 1384 244 1747 244 
Q 2106 244 2326 466 
Q 2547 688 2547 1044 
z
M 3122 2075 
L 3122 331 
L 3634 331 
L 3634 0 
L 2547 0 
L 2547 359 
Q 2356 128 2106 18 
Q 1856 -91 1522 -91 
Q 969 -91 644 203 
Q 319 497 319 997 
Q 319 1513 691 1797 
Q 1063 2081 1741 2081 
L 2547 2081 
L 2547 2309 
Q 2547 2688 2317 2895 
Q 2088 3103 1672 3103 
Q 1328 3103 1125 2947 
Q 922 2791 872 2484 
L 575 2484 
L 575 3156 
Q 875 3284 1158 3348 
Q 1441 3413 1709 3413 
Q 2400 3413 2761 3070 
Q 3122 2728 3122 2075 
z
" transform="scale(0.015625)"/>
      <path id="DejaVuSerif-74" d="M 691 2988 
L 184 2988 
L 184 3322 
L 691 3322 
L 691 4353 
L 1269 4353 
L 1269 3322 
L 2350 3322 
L 2350 2988 
L 1269 2988 
L 1269 878 
Q 1269 456 1350 337 
Q 1431 219 1650 219 
Q 1875 219 1978 351 
Q 2081 484 2088 781 
L 2522 781 
Q 2497 328 2275 118 
Q 2053 -91 1600 -91 
Q 1103 -91 897 129 
Q 691 350 691 878 
L 691 2988 
z
" transform="scale(0.015625)"/>
     </defs>
     <use xlink:href="#DejaVuSerif-44"/>
     <use xlink:href="#DejaVuSerif-61" x="80.175781"/>
     <use xlink:href="#DejaVuSerif-74" x="139.794922"/>
     <use xlink:href="#DejaVuSerif-61" x="179.980469"/>
    </g>
   </g>
   <g id="line2d_55">
    <path d="M 72.426562 12.87875 
L 77.226562 12.87875 
L 82.026562 12.87875 
" style="fill: none; stroke: #e74c3c; stroke-width: 2; stroke-linecap: square"/>
   </g>
   <g id="text_32">
    <!-- GP Fit -->
    <g transform="translate(88.426562 15.67875) scale(0.08 -0.08)">
     <defs>
      <path id="DejaVuSerif-47" d="M 4097 3272 
Q 3988 3856 3641 4136 
Q 3294 4416 2675 4416 
Q 1869 4416 1472 3897 
Q 1075 3378 1075 2328 
Q 1075 1300 1484 772 
Q 1894 244 2688 244 
Q 3041 244 3362 331 
Q 3684 419 3975 594 
L 3975 1797 
L 3097 1797 
L 3097 2131 
L 4609 2131 
L 4609 391 
Q 4194 150 3714 29 
Q 3234 -91 2688 -91 
Q 1631 -91 995 570 
Q 359 1231 359 2328 
Q 359 3434 996 4092 
Q 1634 4750 2713 4750 
Q 3113 4750 3539 4658 
Q 3966 4566 4447 4378 
L 4447 3272 
L 4097 3272 
z
" transform="scale(0.015625)"/>
      <path id="DejaVuSerif-50" d="M 1581 2375 
L 2406 2375 
Q 2872 2375 3115 2626 
Q 3359 2878 3359 3353 
Q 3359 3831 3115 4081 
Q 2872 4331 2406 4331 
L 1581 4331 
L 1581 2375 
z
M 353 0 
L 353 331 
L 947 331 
L 947 4331 
L 353 4331 
L 353 4666 
L 2559 4666 
Q 3259 4666 3668 4311 
Q 4078 3956 4078 3353 
Q 4078 2753 3668 2397 
Q 3259 2041 2559 2041 
L 1581 2041 
L 1581 331 
L 2303 331 
L 2303 0 
L 353 0 
z
" transform="scale(0.015625)"/>
      <path id="DejaVuSerif-46" d="M 353 0 
L 353 331 
L 947 331 
L 947 4331 
L 353 4331 
L 353 4666 
L 4172 4666 
L 4172 3628 
L 3788 3628 
L 3788 4281 
L 1581 4281 
L 1581 2719 
L 3175 2719 
L 3175 3303 
L 3559 3303 
L 3559 1753 
L 3175 1753 
L 3175 2338 
L 1581 2338 
L 1581 331 
L 2328 331 
L 2328 0 
L 353 0 
z
" transform="scale(0.015625)"/>
      <path id="DejaVuSerif-69" d="M 622 4353 
Q 622 4497 726 4603 
Q 831 4709 978 4709 
Q 1122 4709 1226 4603 
Q 1331 4497 1331 4353 
Q 1331 4206 1228 4103 
Q 1125 4000 978 4000 
Q 831 4000 726 4103 
Q 622 4206 622 4353 
z
M 1356 331 
L 1900 331 
L 1900 0 
L 231 0 
L 231 331 
L 781 331 
L 781 2988 
L 231 2988 
L 231 3322 
L 1356 3322 
L 1356 331 
z
" transform="scale(0.015625)"/>
     </defs>
     <use xlink:href="#DejaVuSerif-47"/>
     <use xlink:href="#DejaVuSerif-50" x="79.882812"/>
     <use xlink:href="#DejaVuSerif-20" x="147.167969"/>
     <use xlink:href="#DejaVuSerif-46" x="178.955078"/>
     <use xlink:href="#DejaVuSerif-69" x="248.339844"/>
     <use xlink:href="#DejaVuSerif-74" x="280.322266"/>
    </g>
   </g>
   <g id="patch_18">
    <path d="M 123.667812 15.67875 
L 133.267812 15.67875 
L 133.267812 10.07875 
L 123.667812 10.07875 
z
" style="fill: #e74c3c; fill-opacity: 0.2; stroke: #e74c3c; stroke-opacity: 0.2; stroke-linejoin: miter"/>
   </g>
   <g id="text_33">
    <!-- 95% CI -->
    <g transform="translate(139.667812 15.67875) scale(0.08 -0.08)">
     <defs>
      <path id="DejaVuSerif-39" d="M 2994 2091 
Q 2784 1856 2512 1740 
Q 2241 1625 1900 1625 
Q 1206 1625 804 2044 
Q 403 2463 403 3188 
Q 403 3897 839 4323 
Q 1275 4750 2003 4750 
Q 2794 4750 3217 4161 
Q 3641 3572 3641 2478 
Q 3641 1253 3137 581 
Q 2634 -91 1722 -91 
Q 1475 -91 1203 -44 
Q 931 3 647 97 
L 647 872 
L 997 872 
Q 1038 556 1241 387 
Q 1444 219 1784 219 
Q 2391 219 2687 676 
Q 2984 1134 2994 2091 
z
M 1978 4441 
Q 1534 4441 1298 4117 
Q 1063 3794 1063 3188 
Q 1063 2581 1298 2256 
Q 1534 1931 1978 1931 
Q 2422 1931 2658 2245 
Q 2894 2559 2894 3150 
Q 2894 3772 2656 4106 
Q 2419 4441 1978 4441 
z
" transform="scale(0.015625)"/>
      <path id="DejaVuSerif-25" d="M 1434 4459 
Q 1159 4459 1004 4200 
Q 850 3941 850 3475 
Q 850 3016 1008 2753 
Q 1166 2491 1434 2491 
Q 1700 2491 1854 2752 
Q 2009 3013 2009 3475 
Q 2009 3938 1854 4198 
Q 1700 4459 1434 4459 
z
M 4653 2169 
Q 4381 2169 4226 1906 
Q 4072 1644 4072 1178 
Q 4072 719 4228 458 
Q 4384 197 4653 197 
Q 4922 197 5075 458 
Q 5228 719 5228 1178 
Q 5228 1641 5073 1905 
Q 4919 2169 4653 2169 
z
M 4653 2450 
Q 5147 2450 5437 2106 
Q 5728 1763 5728 1178 
Q 5728 594 5436 251 
Q 5144 -91 4653 -91 
Q 4153 -91 3862 251 
Q 3572 594 3572 1178 
Q 3572 1766 3864 2108 
Q 4156 2450 4653 2450 
z
M 4263 4750 
L 4738 4750 
L 1819 -91 
L 1344 -91 
L 4263 4750 
z
M 1428 4750 
Q 1922 4750 2215 4408 
Q 2509 4066 2509 3481 
Q 2509 2891 2217 2550 
Q 1925 2209 1428 2209 
Q 931 2209 642 2551 
Q 353 2894 353 3481 
Q 353 4063 643 4406 
Q 934 4750 1428 4750 
z
" transform="scale(0.015625)"/>
      <path id="DejaVuSerif-43" d="M 4513 1234 
Q 4306 581 3820 245 
Q 3334 -91 2591 -91 
Q 2134 -91 1743 65 
Q 1353 222 1050 525 
Q 700 875 529 1320 
Q 359 1766 359 2328 
Q 359 3416 987 4083 
Q 1616 4750 2644 4750 
Q 3025 4750 3456 4650 
Q 3888 4550 4384 4347 
L 4384 3272 
L 4031 3272 
Q 3916 3859 3567 4137 
Q 3219 4416 2591 4416 
Q 1844 4416 1459 3886 
Q 1075 3356 1075 2328 
Q 1075 1303 1459 773 
Q 1844 244 2591 244 
Q 3113 244 3450 492 
Q 3788 741 3938 1234 
L 4513 1234 
z
" transform="scale(0.015625)"/>
      <path id="DejaVuSerif-49" d="M 1581 331 
L 2175 331 
L 2175 0 
L 353 0 
L 353 331 
L 947 331 
L 947 4331 
L 353 4331 
L 353 4666 
L 2175 4666 
L 2175 4331 
L 1581 4331 
L 1581 331 
z
" transform="scale(0.015625)"/>
     </defs>
     <use xlink:href="#DejaVuSerif-39"/>
     <use xlink:href="#DejaVuSerif-35" x="63.623047"/>
     <use xlink:href="#DejaVuSerif-25" x="127.246094"/>
     <use xlink:href="#DejaVuSerif-20" x="222.265625"/>
     <use xlink:href="#DejaVuSerif-43" x="254.052734"/>
     <use xlink:href="#DejaVuSerif-49" x="330.566406"/>
    </g>
   </g>
   <g id="PathCollection_8">
    <g>
     <use xlink:href="#ma689d57475" x="183.672812" y="13.57875" style="fill: #ffffff; fill-opacity: 0.8; stroke: #d62728; stroke-opacity: 0.8"/>
    </g>
   </g>
   <g id="text_34">
    <!-- Pred -->
    <g transform="translate(194.872812 15.67875) scale(0.08 -0.08)">
     <defs>
      <path id="DejaVuSerif-72" d="M 3059 3328 
L 3059 2497 
L 2728 2497 
Q 2713 2744 2591 2866 
Q 2469 2988 2234 2988 
Q 1809 2988 1582 2694 
Q 1356 2400 1356 1850 
L 1356 331 
L 2022 331 
L 2022 0 
L 263 0 
L 263 331 
L 781 331 
L 781 2994 
L 231 2994 
L 231 3322 
L 1356 3322 
L 1356 2731 
Q 1525 3078 1790 3245 
Q 2056 3413 2438 3413 
Q 2578 3413 2733 3391 
Q 2888 3369 3059 3328 
z
" transform="scale(0.015625)"/>
      <path id="DejaVuSerif-65" d="M 3469 1600 
L 991 1600 
L 991 1575 
Q 991 903 1244 561 
Q 1497 219 1991 219 
Q 2369 219 2611 417 
Q 2853 616 2950 1006 
L 3413 1006 
Q 3275 459 2904 184 
Q 2534 -91 1931 -91 
Q 1203 -91 761 389 
Q 319 869 319 1663 
Q 319 2450 753 2931 
Q 1188 3413 1894 3413 
Q 2647 3413 3050 2948 
Q 3453 2484 3469 1600 
z
M 2791 1931 
Q 2772 2513 2545 2808 
Q 2319 3103 1894 3103 
Q 1497 3103 1269 2806 
Q 1041 2509 991 1931 
L 2791 1931 
z
" transform="scale(0.015625)"/>
      <path id="DejaVuSerif-64" d="M 3359 331 
L 3909 331 
L 3909 0 
L 2784 0 
L 2784 519 
Q 2616 206 2355 57 
Q 2094 -91 1709 -91 
Q 1097 -91 708 395 
Q 319 881 319 1663 
Q 319 2444 706 2928 
Q 1094 3413 1709 3413 
Q 2094 3413 2355 3264 
Q 2616 3116 2784 2803 
L 2784 4531 
L 2241 4531 
L 2241 4863 
L 3359 4863 
L 3359 331 
z
M 2784 1497 
L 2784 1825 
Q 2784 2422 2554 2737 
Q 2325 3053 1888 3053 
Q 1444 3053 1217 2703 
Q 991 2353 991 1663 
Q 991 975 1217 622 
Q 1444 269 1888 269 
Q 2325 269 2554 583 
Q 2784 897 2784 1497 
z
" transform="scale(0.015625)"/>
     </defs>
     <use xlink:href="#DejaVuSerif-50"/>
     <use xlink:href="#DejaVuSerif-72" x="67.285156"/>
     <use xlink:href="#DejaVuSerif-65" x="115.087891"/>
     <use xlink:href="#DejaVuSerif-64" x="174.267578"/>
    </g>
   </g>
  </g>
 </g>
 <defs>
  <clipPath id="p42133de0e0">
   <rect x="38.836562" y="19.4" width="198.24" height="61.55925"/>
  </clipPath>
  <clipPath id="p3831f137d9">
   <rect x="38.836562" y="111.738875" width="198.24" height="61.55925"/>
  </clipPath>
  <clipPath id="p0f8a970694">
   <rect x="38.836562" y="204.07775" width="198.24" height="61.55925"/>
  </clipPath>
 </defs>
</svg>
