<?xml version="1.0" encoding="utf-8" standalone="no"?>
<!DOCTYPE svg PUBLIC "-//W3C//DTD SVG 1.1//EN"
  "http://www.w3.org/Graphics/SVG/1.1/DTD/svg11.dtd">
<svg xmlns:xlink="http://www.w3.org/1999/xlink" width="210.292pt" height="131.14825pt" viewBox="0 0 210.292 131.14825" xmlns="http://www.w3.org/2000/svg" version="1.1">
 <metadata>
  <rdf:RDF xmlns:dc="http://purl.org/dc/elements/1.1/" xmlns:cc="http://creativecommons.org/ns#" xmlns:rdf="http://www.w3.org/1999/02/22-rdf-syntax-ns#">
   <cc:Work>
    <dc:type rdf:resource="http://purl.org/dc/dcmitype/StillImage"/>
    <dc:date>2026-01-31T23:42:23.018646</dc:date>
    <dc:format>image/svg+xml</dc:format>
    <dc:creator>
     <cc:Agent>
      <dc:title>Matplotlib v3.7.5, https://matplotlib.org/</dc:title>
     </cc:Agent>
    </dc:creator>
   </cc:Work>
  </rdf:RDF>
 </metadata>
 <defs>
  <style type="text/css">*{stroke-linejoin: round; stroke-linecap: butt}</style>
 </defs>
 <g id="figure_1">
  <g id="patch_1">
   <path d="M 0 131.14825 
L 210.292 131.14825 
L 210.292 0 
L 0 0 
z
" style="fill: #ffffff"/>
  </g>
  <g id="axes_1">
   <g id="patch_2">
    <path d="M 41.74 97.092 
L 203.092 97.092 
L 203.092 7.2 
L 41.74 7.2 
z
" style="fill: #ffffff"/>
   </g>
   <g id="matplotlib.axis_1">
    <g id="xtick_1">
     <g id="line2d_1">
      <path d="M 47.889826 97.092 
L 47.889826 7.2 
" clip-path="url(#p71d32e2282)" style="fill: none; stroke-dasharray: 1.85,0.8; stroke-dashoffset: 0; stroke: #b0b0b0; stroke-opacity: 0.5; stroke-width: 0.5"/>
     </g>
     <g id="line2d_2">
      <defs>
       <path id="mc3a167bd43" d="M 0 0 
L 0 -3 
" style="stroke: #000000; stroke-width: 0.5"/>
      </defs>
      <g>
       <use xlink:href="#mc3a167bd43" x="47.889826" y="97.092" style="stroke: #000000; stroke-width: 0.5"/>
      </g>
     </g>
     <g id="text_1">
      <!-- −5.0 -->
      <g transform="translate(38.176701 106.67075) scale(0.08 -0.08)">
       <defs>
        <path id="DejaVuSerif-2212" d="M 678 2259 
L 4684 2259 
L 4684 1753 
L 678 1753 
L 678 2259 
z
" transform="scale(0.015625)"/>
        <path id="DejaVuSerif-35" d="M 3219 4666 
L 3219 4153 
L 1081 4153 
L 1081 2816 
Q 1244 2928 1461 2984 
Q 1678 3041 1947 3041 
Q 2703 3041 3140 2622 
Q 3578 2203 3578 1478 
Q 3578 738 3136 323 
Q 2694 -91 1894 -91 
Q 1572 -91 1234 -12 
Q 897 66 544 225 
L 544 1131 
L 897 1131 
Q 925 688 1179 453 
Q 1434 219 1894 219 
Q 2388 219 2653 544 
Q 2919 869 2919 1478 
Q 2919 2084 2655 2407 
Q 2391 2731 1894 2731 
Q 1613 2731 1398 2631 
Q 1184 2531 1019 2322 
L 750 2322 
L 750 4666 
L 3219 4666 
z
" transform="scale(0.015625)"/>
        <path id="DejaVuSerif-2e" d="M 603 325 
Q 603 500 722 622 
Q 841 744 1019 744 
Q 1191 744 1312 622 
Q 1434 500 1434 325 
Q 1434 153 1312 31 
Q 1191 -91 1019 -91 
Q 841 -91 722 29 
Q 603 150 603 325 
z
" transform="scale(0.015625)"/>
        <path id="DejaVuSerif-30" d="M 2034 219 
Q 2513 219 2750 744 
Q 2988 1269 2988 2328 
Q 2988 3391 2750 3916 
Q 2513 4441 2034 4441 
Q 1556 4441 1318 3916 
Q 1081 3391 1081 2328 
Q 1081 1269 1318 744 
Q 1556 219 2034 219 
z
M 2034 -91 
Q 1275 -91 848 546 
Q 422 1184 422 2328 
Q 422 3475 848 4112 
Q 1275 4750 2034 4750 
Q 2797 4750 3222 4112 
Q 3647 3475 3647 2328 
Q 3647 1184 3222 546 
Q 2797 -91 2034 -91 
z
" transform="scale(0.015625)"/>
       </defs>
       <use xlink:href="#DejaVuSerif-2212"/>
       <use xlink:href="#DejaVuSerif-35" x="83.789062"/>
       <use xlink:href="#DejaVuSerif-2e" x="147.412109"/>
       <use xlink:href="#DejaVuSerif-30" x="179.199219"/>
      </g>
     </g>
    </g>
    <g id="xtick_2">
     <g id="line2d_3">
      <path d="M 75.455064 97.092 
L 75.455064 7.2 
" clip-path="url(#p71d32e2282)" style="fill: none; stroke-dasharray: 1.85,0.8; stroke-dashoffset: 0; stroke: #b0b0b0; stroke-opacity: 0.5; stroke-width: 0.5"/>
     </g>
     <g id="line2d_4">
      <g>
       <use xlink:href="#mc3a167bd43" x="75.455064" y="97.092" style="stroke: #000000; stroke-width: 0.5"/>
      </g>
     </g>
     <g id="text_2">
      <!-- −2.5 -->
      <g transform="translate(65.741939 106.67075) scale(0.08 -0.08)">
       <defs>
        <path id="DejaVuSerif-32" d="M 819 3553 
L 469 3553 
L 469 4384 
Q 803 4563 1142 4656 
Q 1481 4750 1806 4750 
Q 2534 4750 2956 4397 
Q 3378 4044 3378 3438 
Q 3378 2753 2422 1800 
Q 2347 1728 2309 1691 
L 1131 513 
L 3078 513 
L 3078 1088 
L 3444 1088 
L 3444 0 
L 434 0 
L 434 341 
L 1850 1753 
Q 2319 2222 2519 2614 
Q 2719 3006 2719 3438 
Q 2719 3909 2473 4175 
Q 2228 4441 1797 4441 
Q 1350 4441 1106 4219 
Q 863 3997 819 3553 
z
" transform="scale(0.015625)"/>
       </defs>
       <use xlink:href="#DejaVuSerif-2212"/>
       <use xlink:href="#DejaVuSerif-32" x="83.789062"/>
       <use xlink:href="#DejaVuSerif-2e" x="147.412109"/>
       <use xlink:href="#DejaVuSerif-35" x="179.199219"/>
      </g>
     </g>
    </g>
    <g id="xtick_3">
     <g id="line2d_5">
      <path d="M 103.020302 97.092 
L 103.020302 7.2 
" clip-path="url(#p71d32e2282)" style="fill: none; stroke-dasharray: 1.85,0.8; stroke-dashoffset: 0; stroke: #b0b0b0; stroke-opacity: 0.5; stroke-width: 0.5"/>
     </g>
     <g id="line2d_6">
      <g>
       <use xlink:href="#mc3a167bd43" x="103.020302" y="97.092" style="stroke: #000000; stroke-width: 0.5"/>
      </g>
     </g>
     <g id="text_3">
      <!-- 0.0 -->
      <g transform="translate(96.659052 106.67075) scale(0.08 -0.08)">
       <use xlink:href="#DejaVuSerif-30"/>
       <use xlink:href="#DejaVuSerif-2e" x="63.623047"/>
       <use xlink:href="#DejaVuSerif-30" x="95.410156"/>
      </g>
     </g>
    </g>
    <g id="xtick_4">
     <g id="line2d_7">
      <path d="M 130.58554 97.092 
L 130.58554 7.2 
" clip-path="url(#p71d32e2282)" style="fill: none; stroke-dasharray: 1.85,0.8; stroke-dashoffset: 0; stroke: #b0b0b0; stroke-opacity: 0.5; stroke-width: 0.5"/>
     </g>
     <g id="line2d_8">
      <g>
       <use xlink:href="#mc3a167bd43" x="130.58554" y="97.092" style="stroke: #000000; stroke-width: 0.5"/>
      </g>
     </g>
     <g id="text_4">
      <!-- 2.5 -->
      <g transform="translate(124.22429 106.67075) scale(0.08 -0.08)">
       <use xlink:href="#DejaVuSerif-32"/>
       <use xlink:href="#DejaVuSerif-2e" x="63.623047"/>
       <use xlink:href="#DejaVuSerif-35" x="95.410156"/>
      </g>
     </g>
    </g>
    <g id="xtick_5">
     <g id="line2d_9">
      <path d="M 158.150778 97.092 
L 158.150778 7.2 
" clip-path="url(#p71d32e2282)" style="fill: none; stroke-dasharray: 1.85,0.8; stroke-dashoffset: 0; stroke: #b0b0b0; stroke-opacity: 0.5; stroke-width: 0.5"/>
     </g>
     <g id="line2d_10">
      <g>
       <use xlink:href="#mc3a167bd43" x="158.150778" y="97.092" style="stroke: #000000; stroke-width: 0.5"/>
      </g>
     </g>
     <g id="text_5">
      <!-- 5.0 -->
      <g transform="translate(151.789528 106.67075) scale(0.08 -0.08)">
       <use xlink:href="#DejaVuSerif-35"/>
       <use xlink:href="#DejaVuSerif-2e" x="63.623047"/>
       <use xlink:href="#DejaVuSerif-30" x="95.410156"/>
      </g>
     </g>
    </g>
    <g id="xtick_6">
     <g id="line2d_11">
      <path d="M 185.716016 97.092 
L 185.716016 7.2 
" clip-path="url(#p71d32e2282)" style="fill: none; stroke-dasharray: 1.85,0.8; stroke-dashoffset: 0; stroke: #b0b0b0; stroke-opacity: 0.5; stroke-width: 0.5"/>
     </g>
     <g id="line2d_12">
      <g>
       <use xlink:href="#mc3a167bd43" x="185.716016" y="97.092" style="stroke: #000000; stroke-width: 0.5"/>
      </g>
     </g>
     <g id="text_6">
      <!-- 7.5 -->
      <g transform="translate(179.354766 106.67075) scale(0.08 -0.08)">
       <defs>
        <path id="DejaVuSerif-37" d="M 3609 4347 
L 1784 0 
L 1319 0 
L 3059 4153 
L 903 4153 
L 903 3578 
L 538 3578 
L 538 4666 
L 3609 4666 
L 3609 4347 
z
" transform="scale(0.015625)"/>
       </defs>
       <use xlink:href="#DejaVuSerif-37"/>
       <use xlink:href="#DejaVuSerif-2e" x="63.623047"/>
       <use xlink:href="#DejaVuSerif-35" x="95.410156"/>
      </g>
     </g>
    </g>
    <g id="text_7">
     <!-- $v_{x}$ [m/s] -->
     <g transform="translate(100.216 121.452625) scale(0.12 -0.12)">
      <defs>
       <path id="STIXGeneral-Italic-76" d="M 1325 448 
L 1523 653 
Q 1869 1005 2134 1456 
Q 2400 1907 2400 2131 
Q 2400 2208 2285 2317 
Q 2125 2458 2125 2605 
Q 2125 2701 2195 2761 
Q 2266 2822 2368 2822 
Q 2522 2822 2624 2704 
Q 2726 2586 2726 2445 
Q 2726 2074 2323 1453 
Q 1971 909 1562 474 
Q 1504 416 1421 326 
Q 1338 237 1299 192 
Q 1261 147 1200 86 
Q 1139 26 1110 -3 
Q 1082 -32 1043 -64 
Q 1005 -96 979 -105 
Q 954 -115 928 -115 
Q 870 -115 870 58 
L 870 211 
Q 870 1094 717 1990 
Q 653 2355 579 2470 
Q 506 2586 326 2586 
Q 198 2586 128 2579 
L 128 2662 
Q 480 2720 845 2797 
Q 915 2822 973 2822 
Q 1011 2822 1033 2739 
Q 1056 2656 1165 2093 
Q 1280 1510 1325 448 
z
" transform="scale(0.015625)"/>
       <path id="STIXGeneral-Italic-78" d="M 1555 2272 
L 1632 1907 
Q 1971 2426 2179 2624 
Q 2387 2822 2598 2822 
Q 2714 2822 2787 2755 
Q 2861 2688 2861 2585 
Q 2861 2483 2800 2419 
Q 2739 2355 2643 2355 
Q 2586 2355 2490 2409 
Q 2394 2464 2310 2464 
Q 2125 2464 1683 1690 
Q 1683 1606 1734 1402 
L 1939 544 
Q 2003 282 2131 282 
Q 2234 282 2432 538 
Q 2451 563 2476 598 
Q 2502 634 2521 662 
Q 2541 691 2566 717 
L 2662 659 
Q 2387 230 2227 80 
Q 2067 -70 1882 -70 
Q 1728 -70 1645 26 
Q 1562 122 1504 365 
L 1318 1126 
L 755 365 
Q 557 96 432 13 
Q 307 -70 147 -70 
Q 0 -70 -86 0 
Q -173 70 -173 198 
Q -173 294 -112 361 
Q -51 429 45 429 
Q 122 429 250 358 
Q 346 301 416 301 
Q 525 301 742 614 
L 1267 1357 
L 1088 2150 
Q 1024 2432 969 2509 
Q 915 2586 794 2586 
Q 717 2586 544 2541 
L 429 2509 
L 410 2611 
L 480 2637 
Q 992 2822 1229 2822 
Q 1350 2822 1420 2707 
Q 1491 2592 1555 2272 
z
" transform="scale(0.015625)"/>
       <path id="DejaVuSerif-20" transform="scale(0.015625)"/>
       <path id="DejaVuSerif-5b" d="M 550 4863 
L 2003 4863 
L 2003 4531 
L 1147 4531 
L 1147 -513 
L 2003 -513 
L 2003 -844 
L 550 -844 
L 550 4863 
z
" transform="scale(0.015625)"/>
       <path id="DejaVuSerif-6d" d="M 3316 2675 
Q 3481 3041 3739 3227 
Q 3997 3413 4341 3413 
Q 4863 3413 5119 3089 
Q 5375 2766 5375 2113 
L 5375 331 
L 5894 331 
L 5894 0 
L 4300 0 
L 4300 331 
L 4800 331 
L 4800 2047 
Q 4800 2556 4650 2772 
Q 4500 2988 4153 2988 
Q 3769 2988 3567 2697 
Q 3366 2406 3366 1850 
L 3366 331 
L 3866 331 
L 3866 0 
L 2291 0 
L 2291 331 
L 2791 331 
L 2791 2069 
Q 2791 2566 2641 2777 
Q 2491 2988 2144 2988 
Q 1759 2988 1557 2697 
Q 1356 2406 1356 1850 
L 1356 331 
L 1856 331 
L 1856 0 
L 263 0 
L 263 331 
L 781 331 
L 781 2994 
L 231 2994 
L 231 3322 
L 1356 3322 
L 1356 2731 
Q 1516 3063 1762 3238 
Q 2009 3413 2322 3413 
Q 2709 3413 2968 3220 
Q 3228 3028 3316 2675 
z
" transform="scale(0.015625)"/>
       <path id="DejaVuSerif-2f" d="M 1656 4666 
L 2156 4666 
L 500 -594 
L 0 -594 
L 1656 4666 
z
" transform="scale(0.015625)"/>
       <path id="DejaVuSerif-73" d="M 359 184 
L 359 959 
L 691 959 
Q 703 588 923 403 
Q 1144 219 1575 219 
Q 1963 219 2166 364 
Q 2369 509 2369 788 
Q 2369 1006 2220 1140 
Q 2072 1275 1594 1428 
L 1178 1569 
Q 750 1706 558 1912 
Q 366 2119 366 2438 
Q 366 2894 700 3153 
Q 1034 3413 1625 3413 
Q 1888 3413 2178 3344 
Q 2469 3275 2778 3144 
L 2778 2419 
L 2447 2419 
Q 2434 2741 2221 2922 
Q 2009 3103 1644 3103 
Q 1281 3103 1095 2975 
Q 909 2847 909 2591 
Q 909 2381 1050 2254 
Q 1191 2128 1613 1997 
L 2069 1856 
Q 2541 1709 2748 1489 
Q 2956 1269 2956 922 
Q 2956 450 2595 179 
Q 2234 -91 1600 -91 
Q 1278 -91 972 -22 
Q 666 47 359 184 
z
" transform="scale(0.015625)"/>
       <path id="DejaVuSerif-5d" d="M 1947 4863 
L 1947 -844 
L 494 -844 
L 494 -513 
L 1350 -513 
L 1350 4531 
L 494 4531 
L 494 4863 
L 1947 4863 
z
" transform="scale(0.015625)"/>
      </defs>
      <use xlink:href="#STIXGeneral-Italic-76" transform="translate(0 0.015625)"/>
      <use xlink:href="#STIXGeneral-Italic-78" transform="translate(44.399994 -13.2125) scale(0.7)"/>
      <use xlink:href="#DejaVuSerif-20" transform="translate(79.889365 0.015625)"/>
      <use xlink:href="#DejaVuSerif-5b" transform="translate(111.676474 0.015625)"/>
      <use xlink:href="#DejaVuSerif-6d" transform="translate(150.690146 0.015625)"/>
      <use xlink:href="#DejaVuSerif-2f" transform="translate(245.514365 0.015625)"/>
      <use xlink:href="#DejaVuSerif-73" transform="translate(279.205771 0.015625)"/>
      <use xlink:href="#DejaVuSerif-5d" transform="translate(330.52413 0.015625)"/>
     </g>
    </g>
   </g>
   <g id="matplotlib.axis_2">
    <g id="ytick_1">
     <g id="line2d_13">
      <path d="M 41.74 77.741159 
L 203.092 77.741159 
" clip-path="url(#p71d32e2282)" style="fill: none; stroke-dasharray: 1.85,0.8; stroke-dashoffset: 0; stroke: #b0b0b0; stroke-opacity: 0.5; stroke-width: 0.5"/>
     </g>
     <g id="line2d_14">
      <defs>
       <path id="md2780d489e" d="M 0 0 
L 3 0 
" style="stroke: #000000; stroke-width: 0.5"/>
      </defs>
      <g>
       <use xlink:href="#md2780d489e" x="41.74" y="77.741159" style="stroke: #000000; stroke-width: 0.5"/>
      </g>
     </g>
     <g id="text_8">
      <!-- -2.0 -->
      <g transform="translate(22.81375 80.780534) scale(0.08 -0.08)">
       <defs>
        <path id="DejaVuSerif-2d" d="M 281 1959 
L 1881 1959 
L 1881 1472 
L 281 1472 
L 281 1959 
z
" transform="scale(0.015625)"/>
       </defs>
       <use xlink:href="#DejaVuSerif-2d"/>
       <use xlink:href="#DejaVuSerif-32" x="33.789062"/>
       <use xlink:href="#DejaVuSerif-2e" x="97.412109"/>
       <use xlink:href="#DejaVuSerif-30" x="129.199219"/>
      </g>
     </g>
    </g>
    <g id="ytick_2">
     <g id="line2d_15">
      <path d="M 41.74 54.034061 
L 203.092 54.034061 
" clip-path="url(#p71d32e2282)" style="fill: none; stroke-dasharray: 1.85,0.8; stroke-dashoffset: 0; stroke: #b0b0b0; stroke-opacity: 0.5; stroke-width: 0.5"/>
     </g>
     <g id="line2d_16">
      <g>
       <use xlink:href="#md2780d489e" x="41.74" y="54.034061" style="stroke: #000000; stroke-width: 0.5"/>
      </g>
     </g>
     <g id="text_9">
      <!-- 0.0 -->
      <g transform="translate(25.5175 57.073436) scale(0.08 -0.08)">
       <use xlink:href="#DejaVuSerif-30"/>
       <use xlink:href="#DejaVuSerif-2e" x="63.623047"/>
       <use xlink:href="#DejaVuSerif-30" x="95.410156"/>
      </g>
     </g>
    </g>
    <g id="ytick_3">
     <g id="line2d_17">
      <path d="M 41.74 30.326962 
L 203.092 30.326962 
" clip-path="url(#p71d32e2282)" style="fill: none; stroke-dasharray: 1.85,0.8; stroke-dashoffset: 0; stroke: #b0b0b0; stroke-opacity: 0.5; stroke-width: 0.5"/>
     </g>
     <g id="line2d_18">
      <g>
       <use xlink:href="#md2780d489e" x="41.74" y="30.326962" style="stroke: #000000; stroke-width: 0.5"/>
      </g>
     </g>
     <g id="text_10">
      <!-- 2.0 -->
      <g transform="translate(25.5175 33.366337) scale(0.08 -0.08)">
       <use xlink:href="#DejaVuSerif-32"/>
       <use xlink:href="#DejaVuSerif-2e" x="63.623047"/>
       <use xlink:href="#DejaVuSerif-30" x="95.410156"/>
      </g>
     </g>
    </g>
    <g id="text_11">
     <!-- $\Delta a_{x}$ [m/s²] -->
     <g transform="translate(16.318125 81.426) rotate(-90) scale(0.12 -0.12)">
      <defs>
       <path id="STIXGeneral-Regular-394" d="M 4320 0 
L 307 0 
L 2221 4314 
L 2349 4314 
L 4320 0 
z
M 3354 589 
L 2118 3405 
L 870 589 
L 3354 589 
z
" transform="scale(0.015625)"/>
       <path id="STIXGeneral-Italic-61" d="M 2963 710 
L 3046 640 
Q 2688 205 2518 70 
Q 2349 -64 2157 -64 
Q 1901 -64 1901 198 
Q 1901 358 2048 934 
Q 1690 397 1389 163 
Q 1088 -70 749 -70 
Q 467 -70 288 125 
Q 109 320 109 672 
Q 109 1158 387 1664 
Q 666 2170 1094 2496 
Q 1523 2822 1939 2822 
Q 2368 2822 2451 2451 
L 2522 2758 
L 2541 2778 
L 2931 2822 
L 2976 2803 
Q 2970 2778 2938 2669 
Q 2368 595 2368 346 
Q 2368 262 2458 262 
Q 2554 262 2790 525 
L 2963 710 
z
M 2336 2310 
Q 2336 2477 2240 2579 
Q 2144 2682 1978 2682 
Q 1542 2682 1139 2093 
Q 928 1779 787 1395 
Q 646 1011 646 717 
Q 646 243 1030 243 
Q 1408 243 1843 870 
Q 2336 1581 2336 2310 
z
" transform="scale(0.015625)"/>
       <path id="DejaVuSerif-b2" d="M 531 4050 
L 313 4050 
L 313 4544 
Q 519 4644 737 4697 
Q 956 4750 1172 4750 
Q 1603 4750 1870 4544 
Q 2138 4338 2138 4013 
Q 2138 3631 1531 3088 
L 1472 3034 
L 728 2363 
L 1931 2363 
L 1931 2700 
L 2163 2700 
L 2163 2088 
L 281 2088 
L 281 2322 
L 1172 3116 
Q 1441 3356 1556 3547 
Q 1672 3738 1672 3944 
Q 1672 4209 1520 4364 
Q 1369 4519 1106 4519 
Q 863 4519 716 4400 
Q 569 4281 531 4050 
z
" transform="scale(0.015625)"/>
      </defs>
      <use xlink:href="#STIXGeneral-Regular-394" transform="translate(0 0.015625)"/>
      <use xlink:href="#STIXGeneral-Italic-61" transform="translate(72.199982 0.015625)"/>
      <use xlink:href="#STIXGeneral-Italic-78" transform="translate(122.299973 -13.2125) scale(0.7)"/>
      <use xlink:href="#DejaVuSerif-20" transform="translate(157.789343 0.015625)"/>
      <use xlink:href="#DejaVuSerif-5b" transform="translate(189.576453 0.015625)"/>
      <use xlink:href="#DejaVuSerif-6d" transform="translate(228.590125 0.015625)"/>
      <use xlink:href="#DejaVuSerif-2f" transform="translate(323.414343 0.015625)"/>
      <use xlink:href="#DejaVuSerif-73" transform="translate(357.10575 0.015625)"/>
      <use xlink:href="#DejaVuSerif-b2" transform="translate(408.424109 0.015625)"/>
      <use xlink:href="#DejaVuSerif-5d" transform="translate(448.512 0.015625)"/>
     </g>
    </g>
   </g>
   <g id="PolyCollection_1">
    <defs>
     <path id="me6f5a230a4" d="M 49.074182 -119.86225 
L 49.074182 -74.44758 
L 49.811286 -75.448945 
L 50.548389 -76.458019 
L 51.285493 -77.471751 
L 52.022597 -78.486194 
L 52.7597 -79.497145 
L 53.496804 -80.500019 
L 54.233908 -81.489484 
L 54.971011 -82.459645 
L 55.708115 -83.403963 
L 56.445219 -84.315377 
L 57.182323 -85.185272 
L 57.919426 -86.004928 
L 58.65653 -86.764561 
L 59.393634 -87.452418 
L 60.130737 -88.056725 
L 60.867841 -88.564172 
L 61.604945 -88.960511 
L 62.342048 -89.232505 
L 63.079152 -89.367618 
L 63.816256 -89.357918 
L 64.55336 -89.20096 
L 65.290463 -88.903409 
L 66.027567 -88.480325 
L 66.764671 -87.952641 
L 67.501774 -87.344633 
L 68.238878 -86.678906 
L 68.975982 -85.973496 
L 69.713085 -85.242263 
L 70.450189 -84.493551 
L 71.187293 -83.733612 
L 71.924397 -82.965872 
L 72.6615 -82.194916 
L 73.398604 -81.426726 
L 74.135708 -80.669105 
L 74.872811 -79.93159 
L 75.609915 -79.223524 
L 76.347019 -78.553606 
L 77.084122 -77.929128 
L 77.821226 -77.35545 
L 78.55833 -76.835196 
L 79.295434 -76.368799 
L 80.032537 -75.954287 
L 80.769641 -75.588602 
L 81.506745 -75.266352 
L 82.243848 -74.982826 
L 82.980952 -74.732456 
L 83.718056 -74.510699 
L 84.455159 -74.314243 
L 85.192263 -74.141959 
L 85.929367 -73.99542 
L 86.666471 -73.877487 
L 87.403574 -73.791683 
L 88.140678 -73.740996 
L 88.877782 -73.727475 
L 89.614885 -73.751529 
L 90.351989 -73.811845 
L 91.089093 -73.905563 
L 91.826196 -74.029119 
L 92.5633 -74.178604 
L 93.300404 -74.350917 
L 94.037508 -74.544209 
L 94.774611 -74.758145 
L 95.511715 -74.99348 
L 96.248819 -75.25125 
L 96.985922 -75.53228 
L 97.723026 -75.836435 
L 98.46013 -76.162878 
L 99.197233 -76.508871 
L 99.934337 -76.870642 
L 100.671441 -77.243188 
L 101.408545 -77.620109 
L 102.145648 -77.993675 
L 102.882752 -78.355969 
L 103.619856 -78.699272 
L 104.356959 -79.017924 
L 105.094063 -79.309551 
L 105.831167 -79.57522 
L 106.56827 -79.819068 
L 107.305374 -80.047362 
L 108.042478 -80.267735 
L 108.779582 -80.488039 
L 109.516685 -80.716144 
L 110.253789 -80.959324 
L 110.990893 -81.224053 
L 111.727996 -81.515877 
L 112.4651 -81.839267 
L 113.202204 -82.197544 
L 113.939307 -82.593106 
L 114.676411 -83.027063 
L 115.413515 -83.499614 
L 116.150619 -84.009673 
L 116.887722 -84.555185 
L 117.624826 -85.132788 
L 118.36193 -85.73801 
L 119.099033 -86.36506 
L 119.836137 -87.006698 
L 120.573241 -87.654328 
L 121.310344 -88.297547 
L 122.047448 -88.92406 
L 122.784552 -89.519554 
L 123.521656 -90.067395 
L 124.258759 -90.548801 
L 124.995863 -90.94298 
L 125.732967 -91.228542 
L 126.47007 -91.385294 
L 127.207174 -91.39783 
L 127.944278 -91.258979 
L 128.681381 -90.972782 
L 129.418485 -90.554574 
L 130.155589 -90.027972 
L 130.892693 -89.421063 
L 131.629796 -88.762469 
L 132.3669 -88.079632 
L 133.104004 -87.397125 
L 133.841107 -86.736561 
L 134.578211 -86.116507 
L 135.315315 -85.552561 
L 136.052418 -85.057863 
L 136.789522 -84.642873 
L 137.526626 -84.315895 
L 138.26373 -84.082761 
L 139.000833 -83.94711 
L 139.737937 -83.91046 
L 140.475041 -83.971907 
L 141.212144 -84.128211 
L 141.949248 -84.373955 
L 142.686352 -84.701505 
L 143.423455 -85.101163 
L 144.160559 -85.561538 
L 144.897663 -86.070166 
L 145.634767 -86.614421 
L 146.37187 -87.181946 
L 147.108974 -87.761809 
L 147.846078 -88.344176 
L 148.583181 -88.920653 
L 149.320285 -89.482528 
L 150.057389 -90.020503 
L 150.794492 -90.523874 
L 151.531596 -90.980836 
L 152.2687 -91.378636 
L 153.005804 -91.705215 
L 153.742907 -91.950473 
L 154.480011 -92.107499 
L 155.217115 -92.173747 
L 155.954218 -92.150152 
L 156.691322 -92.040078 
L 157.428426 -91.848284 
L 158.165529 -91.579971 
L 158.902633 -91.240075 
L 159.639737 -90.832265 
L 160.376841 -90.359211 
L 161.113944 -89.822039 
L 161.851048 -89.220377 
L 162.588152 -88.552965 
L 163.325255 -87.818326 
L 164.062359 -87.014707 
L 164.799463 -86.142037 
L 165.536566 -85.201834 
L 166.27367 -84.198483 
L 167.010774 -83.137806 
L 167.747878 -82.026635 
L 168.484981 -80.872365 
L 169.222085 -79.681267 
L 169.959189 -78.459715 
L 170.696292 -77.212426 
L 171.433396 -75.943974 
L 172.1705 -74.658178 
L 172.907603 -73.360162 
L 173.644707 -72.054814 
L 174.381811 -70.749095 
L 175.118915 -69.449895 
L 175.856018 -68.162598 
L 176.593122 -66.890181 
L 177.330226 -65.631264 
L 178.067329 -64.380086 
L 178.804433 -63.127507 
L 179.541537 -61.862799 
L 180.27864 -60.576578 
L 181.015744 -59.264058 
L 181.752848 -57.926597 
L 182.489952 -56.570628 
L 183.227055 -55.206085 
L 183.964159 -53.844662 
L 184.701263 -52.497788 
L 185.438366 -51.175947 
L 186.17547 -49.888438 
L 186.912574 -48.642648 
L 187.649677 -47.44491 
L 188.386781 -46.300049 
L 189.123885 -45.211518 
L 189.860989 -44.18199 
L 190.598092 -43.213116 
L 191.335196 -42.305856 
L 192.0723 -41.460625 
L 192.809403 -40.677135 
L 193.546507 -39.954722 
L 194.283611 -39.292427 
L 195.020714 -38.688765 
L 195.757818 -38.14225 
L 195.757818 -84.337162 
L 195.757818 -84.337162 
L 195.020714 -83.230027 
L 194.283611 -82.132119 
L 193.546507 -81.048207 
L 192.809403 -79.983628 
L 192.0723 -78.943799 
L 191.335196 -77.935201 
L 190.598092 -76.964387 
L 189.860989 -76.038877 
L 189.123885 -75.166548 
L 188.386781 -74.355786 
L 187.649677 -73.616463 
L 186.912574 -72.958123 
L 186.17547 -72.392073 
L 185.438366 -71.929989 
L 184.701263 -71.584366 
L 183.964159 -71.368782 
L 183.227055 -71.296924 
L 182.489952 -71.382342 
L 181.752848 -71.637362 
L 181.015744 -72.070749 
L 180.27864 -72.685877 
L 179.541537 -73.478581 
L 178.804433 -74.435973 
L 178.067329 -75.537417 
L 177.330226 -76.757711 
L 176.593122 -78.069005 
L 175.856018 -79.44533 
L 175.118915 -80.863011 
L 174.381811 -82.302458 
L 173.644707 -83.747109 
L 172.907603 -85.183638 
L 172.1705 -86.600643 
L 171.433396 -87.989148 
L 170.696292 -89.341518 
L 169.959189 -90.652061 
L 169.222085 -91.917355 
L 168.484981 -93.13584 
L 167.747878 -94.307666 
L 167.010774 -95.434342 
L 166.27367 -96.518529 
L 165.536566 -97.561709 
L 164.799463 -98.564492 
L 164.062359 -99.52441 
L 163.325255 -100.435944 
L 162.588152 -101.290339 
L 161.851048 -102.077153 
L 161.113944 -102.785273 
L 160.376841 -103.404066 
L 159.639737 -103.924689 
L 158.902633 -104.339799 
L 158.165529 -104.64488 
L 157.428426 -104.838295 
L 156.691322 -104.92129 
L 155.954218 -104.89761 
L 155.217115 -104.773756 
L 154.480011 -104.558254 
L 153.742907 -104.261168 
L 153.005804 -103.894023 
L 152.2687 -103.469089 
L 151.531596 -103.000233 
L 150.794492 -102.502603 
L 150.057389 -101.993251 
L 149.320285 -101.490936 
L 148.583181 -101.015961 
L 147.846078 -100.58846 
L 147.108974 -100.227482 
L 146.37187 -99.94863 
L 145.634767 -99.7619 
L 144.897663 -99.670661 
L 144.160559 -99.672901 
L 143.423455 -99.761694 
L 142.686352 -99.927062 
L 141.949248 -100.157129 
L 141.212144 -100.438759 
L 140.475041 -100.758598 
L 139.737937 -101.103703 
L 139.000833 -101.461384 
L 138.26373 -101.820192 
L 137.526626 -102.169485 
L 136.789522 -102.500159 
L 136.052418 -102.804426 
L 135.315315 -103.076275 
L 134.578211 -103.31178 
L 133.841107 -103.509135 
L 133.104004 -103.669378 
L 132.3669 -103.796417 
L 131.629796 -103.897598 
L 130.892693 -103.983927 
L 130.155589 -104.069688 
L 129.418485 -104.171716 
L 128.681381 -104.307126 
L 127.944278 -104.490176 
L 127.207174 -104.728459 
L 126.47007 -105.020367 
L 125.732967 -105.354899 
L 124.995863 -105.714273 
L 124.258759 -106.077747 
L 123.521656 -106.424224 
L 122.784552 -106.734503 
L 122.047448 -106.992105 
L 121.310344 -107.183483 
L 120.573241 -107.298068 
L 119.836137 -107.327889 
L 119.099033 -107.267181 
L 118.36193 -107.112322 
L 117.624826 -106.861287 
L 116.887722 -106.513959 
L 116.150619 -106.071436 
L 115.413515 -105.536194 
L 114.676411 -104.911972 
L 113.939307 -104.203787 
L 113.202204 -103.417714 
L 112.4651 -102.561033 
L 111.727996 -101.641961 
L 110.990893 -100.670104 
L 110.253789 -99.655991 
L 109.516685 -98.611058 
L 108.779582 -97.547864 
L 108.042478 -96.479754 
L 107.305374 -95.42042 
L 106.56827 -94.384031 
L 105.831167 -93.384017 
L 105.094063 -92.432546 
L 104.356959 -91.539837 
L 103.619856 -90.712798 
L 102.882752 -89.954965 
L 102.145648 -89.266348 
L 101.408545 -88.644712 
L 100.671441 -88.086472 
L 99.934337 -87.587476 
L 99.197233 -87.143375 
L 98.46013 -86.749204 
L 97.723026 -86.399814 
L 96.985922 -86.090385 
L 96.248819 -85.816227 
L 95.511715 -85.57426 
L 94.774611 -85.361498 
L 94.037508 -85.176121 
L 93.300404 -85.016692 
L 92.5633 -84.882867 
L 91.826196 -84.774404 
L 91.089093 -84.691173 
L 90.351989 -84.632849 
L 89.614885 -84.598894 
L 88.877782 -84.589768 
L 88.140678 -84.60693 
L 87.403574 -84.652766 
L 86.666471 -84.731057 
L 85.929367 -84.845603 
L 85.192263 -84.999761 
L 84.455159 -85.196696 
L 83.718056 -85.438276 
L 82.980952 -85.72686 
L 82.243848 -86.064045 
L 81.506745 -86.450073 
L 80.769641 -86.884358 
L 80.032537 -87.36364 
L 79.295434 -87.883107 
L 78.55833 -88.435841 
L 77.821226 -89.015495 
L 77.084122 -89.615311 
L 76.347019 -90.229965 
L 75.609915 -90.855535 
L 74.872811 -91.48909 
L 74.135708 -92.129151 
L 73.398604 -92.775498 
L 72.6615 -93.427241 
L 71.924397 -94.083248 
L 71.187293 -94.740886 
L 70.450189 -95.396268 
L 69.713085 -96.045193 
L 68.975982 -96.683419 
L 68.238878 -97.310006 
L 67.501774 -97.928231 
L 66.764671 -98.547696 
L 66.027567 -99.182609 
L 65.290463 -99.849934 
L 64.55336 -100.566689 
L 63.816256 -101.344004 
L 63.079152 -102.186224 
L 62.342048 -103.090753 
L 61.604945 -104.049032 
L 60.867841 -105.049793 
L 60.130737 -106.080824 
L 59.393634 -107.130084 
L 58.65653 -108.187037 
L 57.919426 -109.241932 
L 57.182323 -110.28706 
L 56.445219 -111.31537 
L 55.708115 -112.321362 
L 54.971011 -113.300627 
L 54.233908 -114.249272 
L 53.496804 -115.164558 
L 52.7597 -116.043988 
L 52.022597 -116.886012 
L 51.285493 -117.689534 
L 50.548389 -118.453461 
L 49.811286 -119.177809 
L 49.074182 -119.86225 
z
" style="stroke: #e74c3c; stroke-opacity: 0.2"/>
    </defs>
    <g clip-path="url(#p71d32e2282)">
     <use xlink:href="#me6f5a230a4" x="0" y="131.14825" style="fill: #e74c3c; fill-opacity: 0.2; stroke: #e74c3c; stroke-opacity: 0.2"/>
    </g>
   </g>
   <g id="line2d_19">
    <path d="M 41.74 54.034061 
L 203.092 54.034061 
" clip-path="url(#p71d32e2282)" style="fill: none; stroke-dasharray: 4.44,1.92; stroke-dashoffset: 0; stroke: #000000; stroke-opacity: 0.7; stroke-width: 1.2"/>
   </g>
   <g id="patch_3">
    <path d="M 41.74 97.092 
L 41.74 7.2 
" style="fill: none; stroke: #000000; stroke-width: 0.5; stroke-linejoin: miter; stroke-linecap: square"/>
   </g>
   <g id="patch_4">
    <path d="M 203.092 97.092 
L 203.092 7.2 
" style="fill: none; stroke: #000000; stroke-width: 0.5; stroke-linejoin: miter; stroke-linecap: square"/>
   </g>
   <g id="patch_5">
    <path d="M 41.74 97.092 
L 203.092 97.092 
" style="fill: none; stroke: #000000; stroke-width: 0.5; stroke-linejoin: miter; stroke-linecap: square"/>
   </g>
   <g id="patch_6">
    <path d="M 41.74 7.2 
L 203.092 7.2 
" style="fill: none; stroke: #000000; stroke-width: 0.5; stroke-linejoin: miter; stroke-linecap: square"/>
   </g>
   <g id="line2d_20">
    <path d="M 49.074182 33.993335 
L 52.022597 33.462146 
L 54.233908 33.278873 
L 56.445219 33.332877 
L 58.65653 33.672451 
L 60.130737 34.079476 
L 61.604945 34.643478 
L 63.079152 35.371329 
L 65.290463 36.771579 
L 67.501774 38.511819 
L 70.450189 41.20334 
L 76.347019 46.756465 
L 78.55833 48.512732 
L 80.769641 49.91177 
L 82.243848 50.624814 
L 84.455159 51.39278 
L 86.666471 51.843978 
L 88.877782 51.989629 
L 91.089093 51.849882 
L 93.300404 51.464446 
L 95.511715 50.86438 
L 97.723026 50.030125 
L 99.934337 48.919191 
L 102.145648 47.518239 
L 104.356959 45.86937 
L 108.042478 42.774505 
L 113.939307 37.749804 
L 116.150619 36.107695 
L 118.36193 34.723084 
L 120.573241 33.672052 
L 122.047448 33.190167 
L 123.521656 32.902441 
L 124.995863 32.819624 
L 126.47007 32.945419 
L 127.944278 33.273673 
L 129.418485 33.785105 
L 131.629796 34.818216 
L 137.526626 37.905561 
L 139.000833 38.444003 
L 140.475041 38.782998 
L 141.949248 38.882708 
L 143.423455 38.716822 
L 144.897663 38.277837 
L 146.37187 37.582962 
L 148.583181 36.179943 
L 151.531596 34.157716 
L 153.005804 33.348631 
L 154.480011 32.815373 
L 155.954218 32.624369 
L 157.428426 32.80496 
L 158.902633 33.358313 
L 160.376841 34.266611 
L 161.851048 35.499486 
L 163.325255 37.021115 
L 164.799463 38.794986 
L 167.010774 41.862176 
L 169.222085 45.348939 
L 172.1705 50.51884 
L 178.067329 61.189499 
L 180.27864 64.517023 
L 181.752848 66.366271 
L 183.227055 67.896746 
L 184.701263 69.107173 
L 186.17547 70.007994 
L 187.649677 70.617563 
L 189.123885 70.959216 
L 190.598092 71.059498 
L 192.0723 70.946038 
L 193.546507 70.646785 
L 195.757818 69.908543 
L 195.757818 69.908543 
" clip-path="url(#p71d32e2282)" style="fill: none; stroke: #e74c3c; stroke-linecap: square"/>
   </g>
   <g id="PathCollection_1">
    <defs>
     <path id="m32f253d6ed" d="M 0 2.738613 
C 0.726289 2.738613 1.422928 2.450055 1.936492 1.936492 
C 2.450055 1.422928 2.738613 0.726289 2.738613 0 
C 2.738613 -0.726289 2.450055 -1.422928 1.936492 -1.936492 
C 1.422928 -2.450055 0.726289 -2.738613 0 -2.738613 
C -0.726289 -2.738613 -1.422928 -2.450055 -1.936492 -1.936492 
C -2.450055 -1.422928 -2.738613 -0.726289 -2.738613 0 
C -2.738613 0.726289 -2.450055 1.422928 -1.936492 1.936492 
C -1.422928 2.450055 -0.726289 2.738613 0 2.738613 
z
" style="stroke: #3498db; stroke-opacity: 0.8; stroke-width: 0.7"/>
    </defs>
    <g clip-path="url(#p71d32e2282)">
     <use xlink:href="#m32f253d6ed" x="101.952952" y="47.43173" style="fill: #a9bbf1; fill-opacity: 0.8; stroke: #3498db; stroke-opacity: 0.8; stroke-width: 0.7"/>
     <use xlink:href="#m32f253d6ed" x="102.189436" y="47.935412" style="fill: #a9bbf1; fill-opacity: 0.8; stroke: #3498db; stroke-opacity: 0.8; stroke-width: 0.7"/>
     <use xlink:href="#m32f253d6ed" x="102.071889" y="48.376394" style="fill: #a9bbf1; fill-opacity: 0.8; stroke: #3498db; stroke-opacity: 0.8; stroke-width: 0.7"/>
     <use xlink:href="#m32f253d6ed" x="101.658881" y="47.76147" style="fill: #a9bbf1; fill-opacity: 0.8; stroke: #3498db; stroke-opacity: 0.8; stroke-width: 0.7"/>
     <use xlink:href="#m32f253d6ed" x="101.377406" y="48.252408" style="fill: #a9bbf1; fill-opacity: 0.8; stroke: #3498db; stroke-opacity: 0.8; stroke-width: 0.7"/>
     <use xlink:href="#m32f253d6ed" x="128.520951" y="32.445383" style="fill: #a9bbf1; fill-opacity: 0.8; stroke: #3498db; stroke-opacity: 0.8; stroke-width: 0.7"/>
     <use xlink:href="#m32f253d6ed" x="104.719414" y="45.846283" style="fill: #a9bbf1; fill-opacity: 0.8; stroke: #3498db; stroke-opacity: 0.8; stroke-width: 0.7"/>
     <use xlink:href="#m32f253d6ed" x="85.274464" y="48.252647" style="fill: #a9bbf1; fill-opacity: 0.8; stroke: #3498db; stroke-opacity: 0.8; stroke-width: 0.7"/>
     <use xlink:href="#m32f253d6ed" x="73.154535" y="40.047759" style="fill: #a9bbf1; fill-opacity: 0.8; stroke: #3498db; stroke-opacity: 0.8; stroke-width: 0.7"/>
     <use xlink:href="#m32f253d6ed" x="66.957546" y="35.722319" style="fill: #a9bbf1; fill-opacity: 0.8; stroke: #3498db; stroke-opacity: 0.8; stroke-width: 0.7"/>
     <use xlink:href="#m32f253d6ed" x="66.747994" y="37.421656" style="fill: #a9bbf1; fill-opacity: 0.8; stroke: #3498db; stroke-opacity: 0.8; stroke-width: 0.7"/>
     <use xlink:href="#m32f253d6ed" x="72.265136" y="44.774876" style="fill: #a9bbf1; fill-opacity: 0.8; stroke: #3498db; stroke-opacity: 0.8; stroke-width: 0.7"/>
     <use xlink:href="#m32f253d6ed" x="81.837734" y="51.930649" style="fill: #a9bbf1; fill-opacity: 0.8; stroke: #3498db; stroke-opacity: 0.8; stroke-width: 0.7"/>
     <use xlink:href="#m32f253d6ed" x="92.596875" y="52.851051" style="fill: #a9bbf1; fill-opacity: 0.8; stroke: #3498db; stroke-opacity: 0.8; stroke-width: 0.7"/>
     <use xlink:href="#m32f253d6ed" x="99.757332" y="48.888369" style="fill: #a9bbf1; fill-opacity: 0.8; stroke: #3498db; stroke-opacity: 0.8; stroke-width: 0.7"/>
     <use xlink:href="#m32f253d6ed" x="94.141229" y="49.305158" style="fill: #a9bbf1; fill-opacity: 0.8; stroke: #3498db; stroke-opacity: 0.8; stroke-width: 0.7"/>
     <use xlink:href="#m32f253d6ed" x="147.342686" y="39.641229" style="fill: #a9bbf1; fill-opacity: 0.8; stroke: #3498db; stroke-opacity: 0.8; stroke-width: 0.7"/>
     <use xlink:href="#m32f253d6ed" x="65.999217" y="36.719486" style="fill: #a9bbf1; fill-opacity: 0.8; stroke: #3498db; stroke-opacity: 0.8; stroke-width: 0.7"/>
     <use xlink:href="#m32f253d6ed" x="178.832783" y="63.050479" style="fill: #a9bbf1; fill-opacity: 0.8; stroke: #3498db; stroke-opacity: 0.8; stroke-width: 0.7"/>
     <use xlink:href="#m32f253d6ed" x="87.325962" y="53.432122" style="fill: #a9bbf1; fill-opacity: 0.8; stroke: #3498db; stroke-opacity: 0.8; stroke-width: 0.7"/>
     <use xlink:href="#m32f253d6ed" x="154.318239" y="30.612706" style="fill: #a9bbf1; fill-opacity: 0.8; stroke: #3498db; stroke-opacity: 0.8; stroke-width: 0.7"/>
    </g>
   </g>
   <g id="PathCollection_2">
    <defs>
     <path id="m43f53c954d" d="M 0 3.162278 
C 0.838646 3.162278 1.643056 2.82908 2.236068 2.236068 
C 2.82908 1.643056 3.162278 0.838646 3.162278 0 
C 3.162278 -0.838646 2.82908 -1.643056 2.236068 -2.236068 
C 1.643056 -2.82908 0.838646 -3.162278 0 -3.162278 
C -0.838646 -3.162278 -1.643056 -2.82908 -2.236068 -2.236068 
C -2.82908 -1.643056 -3.162278 -0.838646 -3.162278 0 
C -3.162278 0.838646 -2.82908 1.643056 -2.236068 2.236068 
C -1.643056 2.82908 -0.838646 3.162278 0 3.162278 
z
" style="stroke: #d62728; stroke-opacity: 0.9; stroke-width: 1.2"/>
    </defs>
    <g clip-path="url(#p71d32e2282)">
     <use xlink:href="#m43f53c954d" x="176.571655" y="58.630442" style="fill: #ffffff; fill-opacity: 0.9; stroke: #d62728; stroke-opacity: 0.9; stroke-width: 1.2"/>
     <use xlink:href="#m43f53c954d" x="157.726292" y="32.887001" style="fill: #ffffff; fill-opacity: 0.9; stroke: #d62728; stroke-opacity: 0.9; stroke-width: 1.2"/>
     <use xlink:href="#m43f53c954d" x="114.468377" y="37.337732" style="fill: #ffffff; fill-opacity: 0.9; stroke: #d62728; stroke-opacity: 0.9; stroke-width: 1.2"/>
     <use xlink:href="#m43f53c954d" x="82.721694" y="50.819787" style="fill: #ffffff; fill-opacity: 0.9; stroke: #d62728; stroke-opacity: 0.9; stroke-width: 1.2"/>
     <use xlink:href="#m43f53c954d" x="68.826013" y="39.68257" style="fill: #ffffff; fill-opacity: 0.9; stroke: #d62728; stroke-opacity: 0.9; stroke-width: 1.2"/>
     <use xlink:href="#m43f53c954d" x="66.010559" y="37.30377" style="fill: #ffffff; fill-opacity: 0.9; stroke: #d62728; stroke-opacity: 0.9; stroke-width: 1.2"/>
     <use xlink:href="#m43f53c954d" x="71.876455" y="42.577371" style="fill: #ffffff; fill-opacity: 0.9; stroke: #d62728; stroke-opacity: 0.9; stroke-width: 1.2"/>
     <use xlink:href="#m43f53c954d" x="83.923779" y="51.2386" style="fill: #ffffff; fill-opacity: 0.9; stroke: #d62728; stroke-opacity: 0.9; stroke-width: 1.2"/>
     <use xlink:href="#m43f53c954d" x="95.222592" y="50.955344" style="fill: #ffffff; fill-opacity: 0.9; stroke: #d62728; stroke-opacity: 0.9; stroke-width: 1.2"/>
     <use xlink:href="#m43f53c954d" x="101.447873" y="47.990072" style="fill: #ffffff; fill-opacity: 0.9; stroke: #d62728; stroke-opacity: 0.9; stroke-width: 1.2"/>
     <use xlink:href="#m43f53c954d" x="107.825812" y="42.963215" style="fill: #ffffff; fill-opacity: 0.9; stroke: #d62728; stroke-opacity: 0.9; stroke-width: 1.2"/>
    </g>
   </g>
   <g id="legend_1">
    <g id="PathCollection_3">
     <g>
      <use xlink:href="#m32f253d6ed" x="104.4135" y="50.90075" style="fill: #a9bbf1; fill-opacity: 0.8; stroke: #3498db; stroke-opacity: 0.8; stroke-width: 0.7"/>
     </g>
    </g>
    <g id="text_12">
     <!-- Data -->
     <g transform="translate(118.8135 53.00075) scale(0.08 -0.08)">
      <defs>
       <path id="DejaVuSerif-44" d="M 1581 331 
L 2163 331 
Q 3072 331 3558 850 
Q 4044 1369 4044 2338 
Q 4044 3306 3559 3818 
Q 3075 4331 2163 4331 
L 1581 4331 
L 1581 331 
z
M 353 0 
L 353 331 
L 947 331 
L 947 4331 
L 353 4331 
L 353 4666 
L 2209 4666 
Q 3416 4666 4089 4050 
Q 4763 3434 4763 2338 
Q 4763 1238 4088 619 
Q 3413 0 2209 0 
L 353 0 
z
" transform="scale(0.015625)"/>
       <path id="DejaVuSerif-61" d="M 2547 1044 
L 2547 1747 
L 1806 1747 
Q 1378 1747 1168 1562 
Q 959 1378 959 997 
Q 959 650 1171 447 
Q 1384 244 1747 244 
Q 2106 244 2326 466 
Q 2547 688 2547 1044 
z
M 3122 2075 
L 3122 331 
L 3634 331 
L 3634 0 
L 2547 0 
L 2547 359 
Q 2356 128 2106 18 
Q 1856 -91 1522 -91 
Q 969 -91 644 203 
Q 319 497 319 997 
Q 319 1513 691 1797 
Q 1063 2081 1741 2081 
L 2547 2081 
L 2547 2309 
Q 2547 2688 2317 2895 
Q 2088 3103 1672 3103 
Q 1328 3103 1125 2947 
Q 922 2791 872 2484 
L 575 2484 
L 575 3156 
Q 875 3284 1158 3348 
Q 1441 3413 1709 3413 
Q 2400 3413 2761 3070 
Q 3122 2728 3122 2075 
z
" transform="scale(0.015625)"/>
       <path id="DejaVuSerif-74" d="M 691 2988 
L 184 2988 
L 184 3322 
L 691 3322 
L 691 4353 
L 1269 4353 
L 1269 3322 
L 2350 3322 
L 2350 2988 
L 1269 2988 
L 1269 878 
Q 1269 456 1350 337 
Q 1431 219 1650 219 
Q 1875 219 1978 351 
Q 2081 484 2088 781 
L 2522 781 
Q 2497 328 2275 118 
Q 2053 -91 1600 -91 
Q 1103 -91 897 129 
Q 691 350 691 878 
L 691 2988 
z
" transform="scale(0.015625)"/>
      </defs>
      <use xlink:href="#DejaVuSerif-44"/>
      <use xlink:href="#DejaVuSerif-61" x="80.175781"/>
      <use xlink:href="#DejaVuSerif-74" x="139.794922"/>
      <use xlink:href="#DejaVuSerif-61" x="179.980469"/>
     </g>
    </g>
    <g id="line2d_21">
     <path d="M 96.4135 61.94325 
L 104.4135 61.94325 
L 112.4135 61.94325 
" style="fill: none; stroke: #e74c3c; stroke-linecap: square"/>
    </g>
    <g id="text_13">
     <!-- GP Fit -->
     <g transform="translate(118.8135 64.74325) scale(0.08 -0.08)">
      <defs>
       <path id="DejaVuSerif-47" d="M 4097 3272 
Q 3988 3856 3641 4136 
Q 3294 4416 2675 4416 
Q 1869 4416 1472 3897 
Q 1075 3378 1075 2328 
Q 1075 1300 1484 772 
Q 1894 244 2688 244 
Q 3041 244 3362 331 
Q 3684 419 3975 594 
L 3975 1797 
L 3097 1797 
L 3097 2131 
L 4609 2131 
L 4609 391 
Q 4194 150 3714 29 
Q 3234 -91 2688 -91 
Q 1631 -91 995 570 
Q 359 1231 359 2328 
Q 359 3434 996 4092 
Q 1634 4750 2713 4750 
Q 3113 4750 3539 4658 
Q 3966 4566 4447 4378 
L 4447 3272 
L 4097 3272 
z
" transform="scale(0.015625)"/>
       <path id="DejaVuSerif-50" d="M 1581 2375 
L 2406 2375 
Q 2872 2375 3115 2626 
Q 3359 2878 3359 3353 
Q 3359 3831 3115 4081 
Q 2872 4331 2406 4331 
L 1581 4331 
L 1581 2375 
z
M 353 0 
L 353 331 
L 947 331 
L 947 4331 
L 353 4331 
L 353 4666 
L 2559 4666 
Q 3259 4666 3668 4311 
Q 4078 3956 4078 3353 
Q 4078 2753 3668 2397 
Q 3259 2041 2559 2041 
L 1581 2041 
L 1581 331 
L 2303 331 
L 2303 0 
L 353 0 
z
" transform="scale(0.015625)"/>
       <path id="DejaVuSerif-46" d="M 353 0 
L 353 331 
L 947 331 
L 947 4331 
L 353 4331 
L 353 4666 
L 4172 4666 
L 4172 3628 
L 3788 3628 
L 3788 4281 
L 1581 4281 
L 1581 2719 
L 3175 2719 
L 3175 3303 
L 3559 3303 
L 3559 1753 
L 3175 1753 
L 3175 2338 
L 1581 2338 
L 1581 331 
L 2328 331 
L 2328 0 
L 353 0 
z
" transform="scale(0.015625)"/>
       <path id="DejaVuSerif-69" d="M 622 4353 
Q 622 4497 726 4603 
Q 831 4709 978 4709 
Q 1122 4709 1226 4603 
Q 1331 4497 1331 4353 
Q 1331 4206 1228 4103 
Q 1125 4000 978 4000 
Q 831 4000 726 4103 
Q 622 4206 622 4353 
z
M 1356 331 
L 1900 331 
L 1900 0 
L 231 0 
L 231 331 
L 781 331 
L 781 2988 
L 231 2988 
L 231 3322 
L 1356 3322 
L 1356 331 
z
" transform="scale(0.015625)"/>
      </defs>
      <use xlink:href="#DejaVuSerif-47"/>
      <use xlink:href="#DejaVuSerif-50" x="79.882812"/>
      <use xlink:href="#DejaVuSerif-20" x="147.167969"/>
      <use xlink:href="#DejaVuSerif-46" x="178.955078"/>
      <use xlink:href="#DejaVuSerif-69" x="248.339844"/>
      <use xlink:href="#DejaVuSerif-74" x="280.322266"/>
     </g>
    </g>
    <g id="patch_7">
     <path d="M 96.4135 76.48575 
L 112.4135 76.48575 
L 112.4135 70.88575 
L 96.4135 70.88575 
z
" style="fill: #e74c3c; fill-opacity: 0.2; stroke: #e74c3c; stroke-opacity: 0.2; stroke-linejoin: miter"/>
    </g>
    <g id="text_14">
     <!-- 95% CI -->
     <g transform="translate(118.8135 76.48575) scale(0.08 -0.08)">
      <defs>
       <path id="DejaVuSerif-39" d="M 2994 2091 
Q 2784 1856 2512 1740 
Q 2241 1625 1900 1625 
Q 1206 1625 804 2044 
Q 403 2463 403 3188 
Q 403 3897 839 4323 
Q 1275 4750 2003 4750 
Q 2794 4750 3217 4161 
Q 3641 3572 3641 2478 
Q 3641 1253 3137 581 
Q 2634 -91 1722 -91 
Q 1475 -91 1203 -44 
Q 931 3 647 97 
L 647 872 
L 997 872 
Q 1038 556 1241 387 
Q 1444 219 1784 219 
Q 2391 219 2687 676 
Q 2984 1134 2994 2091 
z
M 1978 4441 
Q 1534 4441 1298 4117 
Q 1063 3794 1063 3188 
Q 1063 2581 1298 2256 
Q 1534 1931 1978 1931 
Q 2422 1931 2658 2245 
Q 2894 2559 2894 3150 
Q 2894 3772 2656 4106 
Q 2419 4441 1978 4441 
z
" transform="scale(0.015625)"/>
       <path id="DejaVuSerif-25" d="M 1434 4459 
Q 1159 4459 1004 4200 
Q 850 3941 850 3475 
Q 850 3016 1008 2753 
Q 1166 2491 1434 2491 
Q 1700 2491 1854 2752 
Q 2009 3013 2009 3475 
Q 2009 3938 1854 4198 
Q 1700 4459 1434 4459 
z
M 4653 2169 
Q 4381 2169 4226 1906 
Q 4072 1644 4072 1178 
Q 4072 719 4228 458 
Q 4384 197 4653 197 
Q 4922 197 5075 458 
Q 5228 719 5228 1178 
Q 5228 1641 5073 1905 
Q 4919 2169 4653 2169 
z
M 4653 2450 
Q 5147 2450 5437 2106 
Q 5728 1763 5728 1178 
Q 5728 594 5436 251 
Q 5144 -91 4653 -91 
Q 4153 -91 3862 251 
Q 3572 594 3572 1178 
Q 3572 1766 3864 2108 
Q 4156 2450 4653 2450 
z
M 4263 4750 
L 4738 4750 
L 1819 -91 
L 1344 -91 
L 4263 4750 
z
M 1428 4750 
Q 1922 4750 2215 4408 
Q 2509 4066 2509 3481 
Q 2509 2891 2217 2550 
Q 1925 2209 1428 2209 
Q 931 2209 642 2551 
Q 353 2894 353 3481 
Q 353 4063 643 4406 
Q 934 4750 1428 4750 
z
" transform="scale(0.015625)"/>
       <path id="DejaVuSerif-43" d="M 4513 1234 
Q 4306 581 3820 245 
Q 3334 -91 2591 -91 
Q 2134 -91 1743 65 
Q 1353 222 1050 525 
Q 700 875 529 1320 
Q 359 1766 359 2328 
Q 359 3416 987 4083 
Q 1616 4750 2644 4750 
Q 3025 4750 3456 4650 
Q 3888 4550 4384 4347 
L 4384 3272 
L 4031 3272 
Q 3916 3859 3567 4137 
Q 3219 4416 2591 4416 
Q 1844 4416 1459 3886 
Q 1075 3356 1075 2328 
Q 1075 1303 1459 773 
Q 1844 244 2591 244 
Q 3113 244 3450 492 
Q 3788 741 3938 1234 
L 4513 1234 
z
" transform="scale(0.015625)"/>
       <path id="DejaVuSerif-49" d="M 1581 331 
L 2175 331 
L 2175 0 
L 353 0 
L 353 331 
L 947 331 
L 947 4331 
L 353 4331 
L 353 4666 
L 2175 4666 
L 2175 4331 
L 1581 4331 
L 1581 331 
z
" transform="scale(0.015625)"/>
      </defs>
      <use xlink:href="#DejaVuSerif-39"/>
      <use xlink:href="#DejaVuSerif-35" x="63.623047"/>
      <use xlink:href="#DejaVuSerif-25" x="127.246094"/>
      <use xlink:href="#DejaVuSerif-20" x="222.265625"/>
      <use xlink:href="#DejaVuSerif-43" x="254.052734"/>
      <use xlink:href="#DejaVuSerif-49" x="330.566406"/>
     </g>
    </g>
    <g id="PathCollection_4">
     <g>
      <use xlink:href="#m43f53c954d" x="104.4135" y="86.12825" style="fill: #ffffff; fill-opacity: 0.9; stroke: #d62728; stroke-opacity: 0.9; stroke-width: 1.2"/>
     </g>
    </g>
    <g id="text_15">
     <!-- Pred -->
     <g transform="translate(118.8135 88.22825) scale(0.08 -0.08)">
      <defs>
       <path id="DejaVuSerif-72" d="M 3059 3328 
L 3059 2497 
L 2728 2497 
Q 2713 2744 2591 2866 
Q 2469 2988 2234 2988 
Q 1809 2988 1582 2694 
Q 1356 2400 1356 1850 
L 1356 331 
L 2022 331 
L 2022 0 
L 263 0 
L 263 331 
L 781 331 
L 781 2994 
L 231 2994 
L 231 3322 
L 1356 3322 
L 1356 2731 
Q 1525 3078 1790 3245 
Q 2056 3413 2438 3413 
Q 2578 3413 2733 3391 
Q 2888 3369 3059 3328 
z
" transform="scale(0.015625)"/>
       <path id="DejaVuSerif-65" d="M 3469 1600 
L 991 1600 
L 991 1575 
Q 991 903 1244 561 
Q 1497 219 1991 219 
Q 2369 219 2611 417 
Q 2853 616 2950 1006 
L 3413 1006 
Q 3275 459 2904 184 
Q 2534 -91 1931 -91 
Q 1203 -91 761 389 
Q 319 869 319 1663 
Q 319 2450 753 2931 
Q 1188 3413 1894 3413 
Q 2647 3413 3050 2948 
Q 3453 2484 3469 1600 
z
M 2791 1931 
Q 2772 2513 2545 2808 
Q 2319 3103 1894 3103 
Q 1497 3103 1269 2806 
Q 1041 2509 991 1931 
L 2791 1931 
z
" transform="scale(0.015625)"/>
       <path id="DejaVuSerif-64" d="M 3359 331 
L 3909 331 
L 3909 0 
L 2784 0 
L 2784 519 
Q 2616 206 2355 57 
Q 2094 -91 1709 -91 
Q 1097 -91 708 395 
Q 319 881 319 1663 
Q 319 2444 706 2928 
Q 1094 3413 1709 3413 
Q 2094 3413 2355 3264 
Q 2616 3116 2784 2803 
L 2784 4531 
L 2241 4531 
L 2241 4863 
L 3359 4863 
L 3359 331 
z
M 2784 1497 
L 2784 1825 
Q 2784 2422 2554 2737 
Q 2325 3053 1888 3053 
Q 1444 3053 1217 2703 
Q 991 2353 991 1663 
Q 991 975 1217 622 
Q 1444 269 1888 269 
Q 2325 269 2554 583 
Q 2784 897 2784 1497 
z
" transform="scale(0.015625)"/>
      </defs>
      <use xlink:href="#DejaVuSerif-50"/>
      <use xlink:href="#DejaVuSerif-72" x="67.285156"/>
      <use xlink:href="#DejaVuSerif-65" x="115.087891"/>
      <use xlink:href="#DejaVuSerif-64" x="174.267578"/>
     </g>
    </g>
   </g>
  </g>
 </g>
 <defs>
  <clipPath id="p71d32e2282">
   <rect x="41.74" y="7.2" width="161.352" height="89.892"/>
  </clipPath>
 </defs>
</svg>
