<?xml version="1.0" encoding="utf-8" standalone="no"?>
<!DOCTYPE svg PUBLIC "-//W3C//DTD SVG 1.1//EN"
  "http://www.w3.org/Graphics/SVG/1.1/DTD/svg11.dtd">
<svg xmlns:xlink="http://www.w3.org/1999/xlink" width="210.292pt" height="131.202533pt" viewBox="0 0 210.292 131.202533" xmlns="http://www.w3.org/2000/svg" version="1.1">
 <metadata>
  <rdf:RDF xmlns:dc="http://purl.org/dc/elements/1.1/" xmlns:cc="http://creativecommons.org/ns#" xmlns:rdf="http://www.w3.org/1999/02/22-rdf-syntax-ns#">
   <cc:Work>
    <dc:type rdf:resource="http://purl.org/dc/dcmitype/StillImage"/>
    <dc:date>2026-02-09T01:05:29.730491</dc:date>
    <dc:format>image/svg+xml</dc:format>
    <dc:creator>
     <cc:Agent>
      <dc:title>Matplotlib v3.7.5, https://matplotlib.org/</dc:title>
     </cc:Agent>
    </dc:creator>
   </cc:Work>
  </rdf:RDF>
 </metadata>
 <defs>
  <style type="text/css">*{stroke-linejoin: round; stroke-linecap: butt}</style>
 </defs>
 <g id="figure_1">
  <g id="patch_1">
   <path d="M 0 131.202533 
L 210.292 131.202533 
L 210.292 0 
L 0 0 
z
" style="fill: #ffffff"/>
  </g>
  <g id="axes_1">
   <g id="patch_2">
    <path d="M 41.74 97.146283 
L 203.092 97.146283 
L 203.092 7.254283 
L 41.74 7.254283 
z
" style="fill: #ffffff"/>
   </g>
   <g id="matplotlib.axis_1">
    <g id="xtick_1">
     <g id="line2d_1">
      <path d="M 62.226419 97.146283 
L 62.226419 7.254283 
" clip-path="url(#p9a93dbf464)" style="fill: none; stroke-dasharray: 1.85,0.8; stroke-dashoffset: 0; stroke: #b0b0b0; stroke-opacity: 0.5; stroke-width: 0.5"/>
     </g>
     <g id="line2d_2">
      <defs>
       <path id="m7c3ae2a699" d="M 0 0 
L 0 -3 
" style="stroke: #000000; stroke-width: 0.5"/>
      </defs>
      <g>
       <use xlink:href="#m7c3ae2a699" x="62.226419" y="97.146283" style="stroke: #000000; stroke-width: 0.5"/>
      </g>
     </g>
     <g id="text_1">
      <!-- −4 -->
      <g transform="translate(56.329544 106.725033) scale(0.08 -0.08)">
       <defs>
        <path id="DejaVuSerif-2212" d="M 678 2259 
L 4684 2259 
L 4684 1753 
L 678 1753 
L 678 2259 
z
" transform="scale(0.015625)"/>
        <path id="DejaVuSerif-34" d="M 2234 1581 
L 2234 4063 
L 641 1581 
L 2234 1581 
z
M 3609 0 
L 1484 0 
L 1484 331 
L 2234 331 
L 2234 1247 
L 197 1247 
L 197 1588 
L 2241 4750 
L 2859 4750 
L 2859 1581 
L 3750 1581 
L 3750 1247 
L 2859 1247 
L 2859 331 
L 3609 331 
L 3609 0 
z
" transform="scale(0.015625)"/>
       </defs>
       <use xlink:href="#DejaVuSerif-2212"/>
       <use xlink:href="#DejaVuSerif-34" x="83.789062"/>
      </g>
     </g>
    </g>
    <g id="xtick_2">
     <g id="line2d_3">
      <path d="M 95.573647 97.146283 
L 95.573647 7.254283 
" clip-path="url(#p9a93dbf464)" style="fill: none; stroke-dasharray: 1.85,0.8; stroke-dashoffset: 0; stroke: #b0b0b0; stroke-opacity: 0.5; stroke-width: 0.5"/>
     </g>
     <g id="line2d_4">
      <g>
       <use xlink:href="#m7c3ae2a699" x="95.573647" y="97.146283" style="stroke: #000000; stroke-width: 0.5"/>
      </g>
     </g>
     <g id="text_2">
      <!-- −2 -->
      <g transform="translate(89.676772 106.725033) scale(0.08 -0.08)">
       <defs>
        <path id="DejaVuSerif-32" d="M 819 3553 
L 469 3553 
L 469 4384 
Q 803 4563 1142 4656 
Q 1481 4750 1806 4750 
Q 2534 4750 2956 4397 
Q 3378 4044 3378 3438 
Q 3378 2753 2422 1800 
Q 2347 1728 2309 1691 
L 1131 513 
L 3078 513 
L 3078 1088 
L 3444 1088 
L 3444 0 
L 434 0 
L 434 341 
L 1850 1753 
Q 2319 2222 2519 2614 
Q 2719 3006 2719 3438 
Q 2719 3909 2473 4175 
Q 2228 4441 1797 4441 
Q 1350 4441 1106 4219 
Q 863 3997 819 3553 
z
" transform="scale(0.015625)"/>
       </defs>
       <use xlink:href="#DejaVuSerif-2212"/>
       <use xlink:href="#DejaVuSerif-32" x="83.789062"/>
      </g>
     </g>
    </g>
    <g id="xtick_3">
     <g id="line2d_5">
      <path d="M 128.920874 97.146283 
L 128.920874 7.254283 
" clip-path="url(#p9a93dbf464)" style="fill: none; stroke-dasharray: 1.85,0.8; stroke-dashoffset: 0; stroke: #b0b0b0; stroke-opacity: 0.5; stroke-width: 0.5"/>
     </g>
     <g id="line2d_6">
      <g>
       <use xlink:href="#m7c3ae2a699" x="128.920874" y="97.146283" style="stroke: #000000; stroke-width: 0.5"/>
      </g>
     </g>
     <g id="text_3">
      <!-- 0 -->
      <g transform="translate(126.375874 106.725033) scale(0.08 -0.08)">
       <defs>
        <path id="DejaVuSerif-30" d="M 2034 219 
Q 2513 219 2750 744 
Q 2988 1269 2988 2328 
Q 2988 3391 2750 3916 
Q 2513 4441 2034 4441 
Q 1556 4441 1318 3916 
Q 1081 3391 1081 2328 
Q 1081 1269 1318 744 
Q 1556 219 2034 219 
z
M 2034 -91 
Q 1275 -91 848 546 
Q 422 1184 422 2328 
Q 422 3475 848 4112 
Q 1275 4750 2034 4750 
Q 2797 4750 3222 4112 
Q 3647 3475 3647 2328 
Q 3647 1184 3222 546 
Q 2797 -91 2034 -91 
z
" transform="scale(0.015625)"/>
       </defs>
       <use xlink:href="#DejaVuSerif-30"/>
      </g>
     </g>
    </g>
    <g id="xtick_4">
     <g id="line2d_7">
      <path d="M 162.268102 97.146283 
L 162.268102 7.254283 
" clip-path="url(#p9a93dbf464)" style="fill: none; stroke-dasharray: 1.85,0.8; stroke-dashoffset: 0; stroke: #b0b0b0; stroke-opacity: 0.5; stroke-width: 0.5"/>
     </g>
     <g id="line2d_8">
      <g>
       <use xlink:href="#m7c3ae2a699" x="162.268102" y="97.146283" style="stroke: #000000; stroke-width: 0.5"/>
      </g>
     </g>
     <g id="text_4">
      <!-- 2 -->
      <g transform="translate(159.723102 106.725033) scale(0.08 -0.08)">
       <use xlink:href="#DejaVuSerif-32"/>
      </g>
     </g>
    </g>
    <g id="xtick_5">
     <g id="line2d_9">
      <path d="M 195.61533 97.146283 
L 195.61533 7.254283 
" clip-path="url(#p9a93dbf464)" style="fill: none; stroke-dasharray: 1.85,0.8; stroke-dashoffset: 0; stroke: #b0b0b0; stroke-opacity: 0.5; stroke-width: 0.5"/>
     </g>
     <g id="line2d_10">
      <g>
       <use xlink:href="#m7c3ae2a699" x="195.61533" y="97.146283" style="stroke: #000000; stroke-width: 0.5"/>
      </g>
     </g>
     <g id="text_5">
      <!-- 4 -->
      <g transform="translate(193.07033 106.725033) scale(0.08 -0.08)">
       <use xlink:href="#DejaVuSerif-34"/>
      </g>
     </g>
    </g>
    <g id="text_6">
     <!-- $v_{x}$ [m/s] -->
     <g transform="translate(100.216 121.506908) scale(0.12 -0.12)">
      <defs>
       <path id="STIXGeneral-Italic-76" d="M 1325 448 
L 1523 653 
Q 1869 1005 2134 1456 
Q 2400 1907 2400 2131 
Q 2400 2208 2285 2317 
Q 2125 2458 2125 2605 
Q 2125 2701 2195 2761 
Q 2266 2822 2368 2822 
Q 2522 2822 2624 2704 
Q 2726 2586 2726 2445 
Q 2726 2074 2323 1453 
Q 1971 909 1562 474 
Q 1504 416 1421 326 
Q 1338 237 1299 192 
Q 1261 147 1200 86 
Q 1139 26 1110 -3 
Q 1082 -32 1043 -64 
Q 1005 -96 979 -105 
Q 954 -115 928 -115 
Q 870 -115 870 58 
L 870 211 
Q 870 1094 717 1990 
Q 653 2355 579 2470 
Q 506 2586 326 2586 
Q 198 2586 128 2579 
L 128 2662 
Q 480 2720 845 2797 
Q 915 2822 973 2822 
Q 1011 2822 1033 2739 
Q 1056 2656 1165 2093 
Q 1280 1510 1325 448 
z
" transform="scale(0.015625)"/>
       <path id="STIXGeneral-Italic-78" d="M 1555 2272 
L 1632 1907 
Q 1971 2426 2179 2624 
Q 2387 2822 2598 2822 
Q 2714 2822 2787 2755 
Q 2861 2688 2861 2585 
Q 2861 2483 2800 2419 
Q 2739 2355 2643 2355 
Q 2586 2355 2490 2409 
Q 2394 2464 2310 2464 
Q 2125 2464 1683 1690 
Q 1683 1606 1734 1402 
L 1939 544 
Q 2003 282 2131 282 
Q 2234 282 2432 538 
Q 2451 563 2476 598 
Q 2502 634 2521 662 
Q 2541 691 2566 717 
L 2662 659 
Q 2387 230 2227 80 
Q 2067 -70 1882 -70 
Q 1728 -70 1645 26 
Q 1562 122 1504 365 
L 1318 1126 
L 755 365 
Q 557 96 432 13 
Q 307 -70 147 -70 
Q 0 -70 -86 0 
Q -173 70 -173 198 
Q -173 294 -112 361 
Q -51 429 45 429 
Q 122 429 250 358 
Q 346 301 416 301 
Q 525 301 742 614 
L 1267 1357 
L 1088 2150 
Q 1024 2432 969 2509 
Q 915 2586 794 2586 
Q 717 2586 544 2541 
L 429 2509 
L 410 2611 
L 480 2637 
Q 992 2822 1229 2822 
Q 1350 2822 1420 2707 
Q 1491 2592 1555 2272 
z
" transform="scale(0.015625)"/>
       <path id="DejaVuSerif-20" transform="scale(0.015625)"/>
       <path id="DejaVuSerif-5b" d="M 550 4863 
L 2003 4863 
L 2003 4531 
L 1147 4531 
L 1147 -513 
L 2003 -513 
L 2003 -844 
L 550 -844 
L 550 4863 
z
" transform="scale(0.015625)"/>
       <path id="DejaVuSerif-6d" d="M 3316 2675 
Q 3481 3041 3739 3227 
Q 3997 3413 4341 3413 
Q 4863 3413 5119 3089 
Q 5375 2766 5375 2113 
L 5375 331 
L 5894 331 
L 5894 0 
L 4300 0 
L 4300 331 
L 4800 331 
L 4800 2047 
Q 4800 2556 4650 2772 
Q 4500 2988 4153 2988 
Q 3769 2988 3567 2697 
Q 3366 2406 3366 1850 
L 3366 331 
L 3866 331 
L 3866 0 
L 2291 0 
L 2291 331 
L 2791 331 
L 2791 2069 
Q 2791 2566 2641 2777 
Q 2491 2988 2144 2988 
Q 1759 2988 1557 2697 
Q 1356 2406 1356 1850 
L 1356 331 
L 1856 331 
L 1856 0 
L 263 0 
L 263 331 
L 781 331 
L 781 2994 
L 231 2994 
L 231 3322 
L 1356 3322 
L 1356 2731 
Q 1516 3063 1762 3238 
Q 2009 3413 2322 3413 
Q 2709 3413 2968 3220 
Q 3228 3028 3316 2675 
z
" transform="scale(0.015625)"/>
       <path id="DejaVuSerif-2f" d="M 1656 4666 
L 2156 4666 
L 500 -594 
L 0 -594 
L 1656 4666 
z
" transform="scale(0.015625)"/>
       <path id="DejaVuSerif-73" d="M 359 184 
L 359 959 
L 691 959 
Q 703 588 923 403 
Q 1144 219 1575 219 
Q 1963 219 2166 364 
Q 2369 509 2369 788 
Q 2369 1006 2220 1140 
Q 2072 1275 1594 1428 
L 1178 1569 
Q 750 1706 558 1912 
Q 366 2119 366 2438 
Q 366 2894 700 3153 
Q 1034 3413 1625 3413 
Q 1888 3413 2178 3344 
Q 2469 3275 2778 3144 
L 2778 2419 
L 2447 2419 
Q 2434 2741 2221 2922 
Q 2009 3103 1644 3103 
Q 1281 3103 1095 2975 
Q 909 2847 909 2591 
Q 909 2381 1050 2254 
Q 1191 2128 1613 1997 
L 2069 1856 
Q 2541 1709 2748 1489 
Q 2956 1269 2956 922 
Q 2956 450 2595 179 
Q 2234 -91 1600 -91 
Q 1278 -91 972 -22 
Q 666 47 359 184 
z
" transform="scale(0.015625)"/>
       <path id="DejaVuSerif-5d" d="M 1947 4863 
L 1947 -844 
L 494 -844 
L 494 -513 
L 1350 -513 
L 1350 4531 
L 494 4531 
L 494 4863 
L 1947 4863 
z
" transform="scale(0.015625)"/>
      </defs>
      <use xlink:href="#STIXGeneral-Italic-76" transform="translate(0 0.015625)"/>
      <use xlink:href="#STIXGeneral-Italic-78" transform="translate(44.399994 -13.2125) scale(0.7)"/>
      <use xlink:href="#DejaVuSerif-20" transform="translate(79.889365 0.015625)"/>
      <use xlink:href="#DejaVuSerif-5b" transform="translate(111.676474 0.015625)"/>
      <use xlink:href="#DejaVuSerif-6d" transform="translate(150.690146 0.015625)"/>
      <use xlink:href="#DejaVuSerif-2f" transform="translate(245.514365 0.015625)"/>
      <use xlink:href="#DejaVuSerif-73" transform="translate(279.205771 0.015625)"/>
      <use xlink:href="#DejaVuSerif-5d" transform="translate(330.52413 0.015625)"/>
     </g>
    </g>
   </g>
   <g id="matplotlib.axis_2">
    <g id="ytick_1">
     <g id="line2d_11">
      <path d="M 41.74 93.223296 
L 203.092 93.223296 
" clip-path="url(#p9a93dbf464)" style="fill: none; stroke-dasharray: 1.85,0.8; stroke-dashoffset: 0; stroke: #b0b0b0; stroke-opacity: 0.5; stroke-width: 0.5"/>
     </g>
     <g id="line2d_12">
      <defs>
       <path id="md788a7d2cc" d="M 0 0 
L 3 0 
" style="stroke: #000000; stroke-width: 0.5"/>
      </defs>
      <g>
       <use xlink:href="#md788a7d2cc" x="41.74" y="93.223296" style="stroke: #000000; stroke-width: 0.5"/>
      </g>
     </g>
     <g id="text_7">
      <!-- -2.0 -->
      <g transform="translate(22.81375 96.262671) scale(0.08 -0.08)">
       <defs>
        <path id="DejaVuSerif-2d" d="M 281 1959 
L 1881 1959 
L 1881 1472 
L 281 1472 
L 281 1959 
z
" transform="scale(0.015625)"/>
        <path id="DejaVuSerif-2e" d="M 603 325 
Q 603 500 722 622 
Q 841 744 1019 744 
Q 1191 744 1312 622 
Q 1434 500 1434 325 
Q 1434 153 1312 31 
Q 1191 -91 1019 -91 
Q 841 -91 722 29 
Q 603 150 603 325 
z
" transform="scale(0.015625)"/>
       </defs>
       <use xlink:href="#DejaVuSerif-2d"/>
       <use xlink:href="#DejaVuSerif-32" x="33.789062"/>
       <use xlink:href="#DejaVuSerif-2e" x="97.412109"/>
       <use xlink:href="#DejaVuSerif-30" x="129.199219"/>
      </g>
     </g>
    </g>
    <g id="ytick_2">
     <g id="line2d_13">
      <path d="M 41.74 65.561989 
L 203.092 65.561989 
" clip-path="url(#p9a93dbf464)" style="fill: none; stroke-dasharray: 1.85,0.8; stroke-dashoffset: 0; stroke: #b0b0b0; stroke-opacity: 0.5; stroke-width: 0.5"/>
     </g>
     <g id="line2d_14">
      <g>
       <use xlink:href="#md788a7d2cc" x="41.74" y="65.561989" style="stroke: #000000; stroke-width: 0.5"/>
      </g>
     </g>
     <g id="text_8">
      <!-- 0.0 -->
      <g transform="translate(25.5175 68.601364) scale(0.08 -0.08)">
       <use xlink:href="#DejaVuSerif-30"/>
       <use xlink:href="#DejaVuSerif-2e" x="63.623047"/>
       <use xlink:href="#DejaVuSerif-30" x="95.410156"/>
      </g>
     </g>
    </g>
    <g id="ytick_3">
     <g id="line2d_15">
      <path d="M 41.74 37.900682 
L 203.092 37.900682 
" clip-path="url(#p9a93dbf464)" style="fill: none; stroke-dasharray: 1.85,0.8; stroke-dashoffset: 0; stroke: #b0b0b0; stroke-opacity: 0.5; stroke-width: 0.5"/>
     </g>
     <g id="line2d_16">
      <g>
       <use xlink:href="#md788a7d2cc" x="41.74" y="37.900682" style="stroke: #000000; stroke-width: 0.5"/>
      </g>
     </g>
     <g id="text_9">
      <!-- 2.0 -->
      <g transform="translate(25.5175 40.940057) scale(0.08 -0.08)">
       <use xlink:href="#DejaVuSerif-32"/>
       <use xlink:href="#DejaVuSerif-2e" x="63.623047"/>
       <use xlink:href="#DejaVuSerif-30" x="95.410156"/>
      </g>
     </g>
    </g>
    <g id="ytick_4">
     <g id="line2d_17">
      <path d="M 41.74 10.239375 
L 203.092 10.239375 
" clip-path="url(#p9a93dbf464)" style="fill: none; stroke-dasharray: 1.85,0.8; stroke-dashoffset: 0; stroke: #b0b0b0; stroke-opacity: 0.5; stroke-width: 0.5"/>
     </g>
     <g id="line2d_18">
      <g>
       <use xlink:href="#md788a7d2cc" x="41.74" y="10.239375" style="stroke: #000000; stroke-width: 0.5"/>
      </g>
     </g>
     <g id="text_10">
      <!-- 4.0 -->
      <g transform="translate(25.5175 13.27875) scale(0.08 -0.08)">
       <use xlink:href="#DejaVuSerif-34"/>
       <use xlink:href="#DejaVuSerif-2e" x="63.623047"/>
       <use xlink:href="#DejaVuSerif-30" x="95.410156"/>
      </g>
     </g>
    </g>
    <g id="text_11">
     <!-- $\Delta a_{x}$ [m/s²] -->
     <g transform="translate(16.318125 81.480283) rotate(-90) scale(0.12 -0.12)">
      <defs>
       <path id="STIXGeneral-Regular-394" d="M 4320 0 
L 307 0 
L 2221 4314 
L 2349 4314 
L 4320 0 
z
M 3354 589 
L 2118 3405 
L 870 589 
L 3354 589 
z
" transform="scale(0.015625)"/>
       <path id="STIXGeneral-Italic-61" d="M 2963 710 
L 3046 640 
Q 2688 205 2518 70 
Q 2349 -64 2157 -64 
Q 1901 -64 1901 198 
Q 1901 358 2048 934 
Q 1690 397 1389 163 
Q 1088 -70 749 -70 
Q 467 -70 288 125 
Q 109 320 109 672 
Q 109 1158 387 1664 
Q 666 2170 1094 2496 
Q 1523 2822 1939 2822 
Q 2368 2822 2451 2451 
L 2522 2758 
L 2541 2778 
L 2931 2822 
L 2976 2803 
Q 2970 2778 2938 2669 
Q 2368 595 2368 346 
Q 2368 262 2458 262 
Q 2554 262 2790 525 
L 2963 710 
z
M 2336 2310 
Q 2336 2477 2240 2579 
Q 2144 2682 1978 2682 
Q 1542 2682 1139 2093 
Q 928 1779 787 1395 
Q 646 1011 646 717 
Q 646 243 1030 243 
Q 1408 243 1843 870 
Q 2336 1581 2336 2310 
z
" transform="scale(0.015625)"/>
       <path id="DejaVuSerif-b2" d="M 531 4050 
L 313 4050 
L 313 4544 
Q 519 4644 737 4697 
Q 956 4750 1172 4750 
Q 1603 4750 1870 4544 
Q 2138 4338 2138 4013 
Q 2138 3631 1531 3088 
L 1472 3034 
L 728 2363 
L 1931 2363 
L 1931 2700 
L 2163 2700 
L 2163 2088 
L 281 2088 
L 281 2322 
L 1172 3116 
Q 1441 3356 1556 3547 
Q 1672 3738 1672 3944 
Q 1672 4209 1520 4364 
Q 1369 4519 1106 4519 
Q 863 4519 716 4400 
Q 569 4281 531 4050 
z
" transform="scale(0.015625)"/>
      </defs>
      <use xlink:href="#STIXGeneral-Regular-394" transform="translate(0 0.015625)"/>
      <use xlink:href="#STIXGeneral-Italic-61" transform="translate(72.199982 0.015625)"/>
      <use xlink:href="#STIXGeneral-Italic-78" transform="translate(122.299973 -13.2125) scale(0.7)"/>
      <use xlink:href="#DejaVuSerif-20" transform="translate(157.789343 0.015625)"/>
      <use xlink:href="#DejaVuSerif-5b" transform="translate(189.576453 0.015625)"/>
      <use xlink:href="#DejaVuSerif-6d" transform="translate(228.590125 0.015625)"/>
      <use xlink:href="#DejaVuSerif-2f" transform="translate(323.414343 0.015625)"/>
      <use xlink:href="#DejaVuSerif-73" transform="translate(357.10575 0.015625)"/>
      <use xlink:href="#DejaVuSerif-b2" transform="translate(408.424109 0.015625)"/>
      <use xlink:href="#DejaVuSerif-5d" transform="translate(448.512 0.015625)"/>
     </g>
    </g>
   </g>
   <g id="PolyCollection_1">
    <defs>
     <path id="m4970f0df99" d="M 49.074182 -119.86225 
L 49.074182 -111.865751 
L 49.811286 -111.481623 
L 50.548389 -111.087848 
L 51.285493 -110.679916 
L 52.022597 -110.25735 
L 52.7597 -109.821452 
L 53.496804 -109.372496 
L 54.233908 -108.915666 
L 54.971011 -108.439631 
L 55.708115 -107.956289 
L 56.445219 -107.457607 
L 57.182323 -106.95422 
L 57.919426 -106.431189 
L 58.65653 -105.903924 
L 59.393634 -105.368116 
L 60.130737 -104.814534 
L 60.867841 -104.256161 
L 61.604945 -103.685469 
L 62.342048 -103.11044 
L 63.079152 -102.52547 
L 63.816256 -101.930419 
L 64.55336 -101.332958 
L 65.290463 -100.725469 
L 66.027567 -100.117858 
L 66.764671 -99.4977 
L 67.501774 -98.880506 
L 68.238878 -98.257832 
L 68.975982 -97.630525 
L 69.713085 -97.006143 
L 70.450189 -96.379733 
L 71.187293 -95.74868 
L 71.924397 -95.12199 
L 72.6615 -94.495847 
L 73.398604 -93.870819 
L 74.135708 -93.245896 
L 74.872811 -92.628314 
L 75.609915 -92.01112 
L 76.347019 -91.39778 
L 77.084122 -90.787255 
L 77.821226 -90.182783 
L 78.55833 -89.585507 
L 79.295434 -88.989948 
L 80.032537 -88.396483 
L 80.769641 -87.815364 
L 81.506745 -87.237917 
L 82.243848 -86.665759 
L 82.980952 -86.102415 
L 83.718056 -85.541409 
L 84.455159 -84.989174 
L 85.192263 -84.44761 
L 85.929367 -83.909243 
L 86.666471 -83.378931 
L 87.403574 -82.855004 
L 88.140678 -82.339706 
L 88.877782 -81.829552 
L 89.614885 -81.331271 
L 90.351989 -80.837324 
L 91.089093 -80.356478 
L 91.826196 -79.882076 
L 92.5633 -79.413145 
L 93.300404 -78.957001 
L 94.037508 -78.504652 
L 94.774611 -78.060797 
L 95.511715 -77.629427 
L 96.248819 -77.204724 
L 96.985922 -76.79194 
L 97.723026 -76.385061 
L 98.46013 -75.990773 
L 99.197233 -75.604485 
L 99.934337 -75.222056 
L 100.671441 -74.851737 
L 101.408545 -74.492904 
L 102.145648 -74.138649 
L 102.882752 -73.802596 
L 103.619856 -73.466504 
L 104.356959 -73.145516 
L 105.094063 -72.829341 
L 105.831167 -72.528995 
L 106.56827 -72.231783 
L 107.305374 -71.941797 
L 108.042478 -71.667618 
L 108.779582 -71.398145 
L 109.516685 -71.136805 
L 110.253789 -70.886921 
L 110.990893 -70.645536 
L 111.727996 -70.409378 
L 112.4651 -70.185177 
L 113.202204 -69.966908 
L 113.939307 -69.760723 
L 114.676411 -69.560228 
L 115.413515 -69.366421 
L 116.150619 -69.183992 
L 116.887722 -69.009073 
L 117.624826 -68.83996 
L 118.36193 -68.675307 
L 119.099033 -68.522972 
L 119.836137 -68.371045 
L 120.573241 -68.228738 
L 121.310344 -68.092767 
L 122.047448 -67.964137 
L 122.784552 -67.841656 
L 123.521656 -67.721813 
L 124.258759 -67.608313 
L 124.995863 -67.504273 
L 125.732967 -67.393384 
L 126.47007 -67.298421 
L 127.207174 -67.200635 
L 127.944278 -67.116206 
L 128.681381 -67.025604 
L 129.418485 -66.947864 
L 130.155589 -66.858729 
L 130.892693 -66.785834 
L 131.629796 -66.713181 
L 132.3669 -66.634741 
L 133.104004 -66.565668 
L 133.841107 -66.4958 
L 134.578211 -66.430257 
L 135.315315 -66.353988 
L 136.052418 -66.286488 
L 136.789522 -66.218488 
L 137.526626 -66.156359 
L 138.26373 -66.088868 
L 139.000833 -66.017624 
L 139.737937 -65.945808 
L 140.475041 -65.872759 
L 141.212144 -65.797771 
L 141.949248 -65.724983 
L 142.686352 -65.647438 
L 143.423455 -65.560862 
L 144.160559 -65.484776 
L 144.897663 -65.392834 
L 145.634767 -65.289461 
L 146.37187 -65.203855 
L 147.108974 -65.100131 
L 147.846078 -64.989764 
L 148.583181 -64.888377 
L 149.320285 -64.768217 
L 150.057389 -64.65146 
L 150.794492 -64.529065 
L 151.531596 -64.390975 
L 152.2687 -64.250481 
L 153.005804 -64.109121 
L 153.742907 -63.955893 
L 154.480011 -63.802218 
L 155.217115 -63.629008 
L 155.954218 -63.459909 
L 156.691322 -63.283856 
L 157.428426 -63.092495 
L 158.165529 -62.901914 
L 158.902633 -62.700387 
L 159.639737 -62.48798 
L 160.376841 -62.270087 
L 161.113944 -62.042024 
L 161.851048 -61.807702 
L 162.588152 -61.566195 
L 163.325255 -61.314985 
L 164.062359 -61.055057 
L 164.799463 -60.782422 
L 165.536566 -60.505447 
L 166.27367 -60.218674 
L 167.010774 -59.922089 
L 167.747878 -59.620971 
L 168.484981 -59.304558 
L 169.222085 -58.979059 
L 169.959189 -58.641811 
L 170.696292 -58.299843 
L 171.433396 -57.943471 
L 172.1705 -57.572953 
L 172.907603 -57.192137 
L 173.644707 -56.802729 
L 174.381811 -56.400182 
L 175.118915 -55.984132 
L 175.856018 -55.550191 
L 176.593122 -55.111497 
L 177.330226 -54.654723 
L 178.067329 -54.179676 
L 178.804433 -53.690664 
L 179.541537 -53.192793 
L 180.27864 -52.678462 
L 181.015744 -52.145197 
L 181.752848 -51.589736 
L 182.489952 -51.022359 
L 183.227055 -50.44064 
L 183.964159 -49.839764 
L 184.701263 -49.225327 
L 185.438366 -48.594098 
L 186.17547 -47.945255 
L 186.912574 -47.280886 
L 187.649677 -46.598188 
L 188.386781 -45.903593 
L 189.123885 -45.191466 
L 189.860989 -44.467139 
L 190.598092 -43.724105 
L 191.335196 -42.968168 
L 192.0723 -42.198554 
L 192.809403 -41.413943 
L 193.546507 -40.616386 
L 194.283611 -39.803421 
L 195.020714 -38.979239 
L 195.757818 -38.14225 
L 195.757818 -47.405139 
L 195.757818 -47.405139 
L 195.020714 -47.777568 
L 194.283611 -48.155188 
L 193.546507 -48.537152 
L 192.809403 -48.924994 
L 192.0723 -49.31473 
L 191.335196 -49.708785 
L 190.598092 -50.108121 
L 189.860989 -50.507791 
L 189.123885 -50.913578 
L 188.386781 -51.318218 
L 187.649677 -51.728194 
L 186.912574 -52.137867 
L 186.17547 -52.549085 
L 185.438366 -52.96287 
L 184.701263 -53.38131 
L 183.964159 -53.798996 
L 183.227055 -54.21652 
L 182.489952 -54.632229 
L 181.752848 -55.050463 
L 181.015744 -55.464216 
L 180.27864 -55.879957 
L 179.541537 -56.296331 
L 178.804433 -56.715821 
L 178.067329 -57.1232 
L 177.330226 -57.525861 
L 176.593122 -57.930779 
L 175.856018 -58.333954 
L 175.118915 -58.723579 
L 174.381811 -59.10898 
L 173.644707 -59.494159 
L 172.907603 -59.870361 
L 172.1705 -60.235329 
L 171.433396 -60.590769 
L 170.696292 -60.942816 
L 169.959189 -61.288677 
L 169.222085 -61.619434 
L 168.484981 -61.943634 
L 167.747878 -62.260913 
L 167.010774 -62.566793 
L 166.27367 -62.864243 
L 165.536566 -63.150151 
L 164.799463 -63.427558 
L 164.062359 -63.68719 
L 163.325255 -63.948855 
L 162.588152 -64.200933 
L 161.851048 -64.43679 
L 161.113944 -64.667631 
L 160.376841 -64.888715 
L 159.639737 -65.097857 
L 158.902633 -65.301045 
L 158.165529 -65.493761 
L 157.428426 -65.685224 
L 156.691322 -65.860655 
L 155.954218 -66.030042 
L 155.217115 -66.19647 
L 154.480011 -66.34506 
L 153.742907 -66.500984 
L 153.005804 -66.637529 
L 152.2687 -66.775267 
L 151.531596 -66.903956 
L 150.794492 -67.020562 
L 150.057389 -67.140661 
L 149.320285 -67.254199 
L 148.583181 -67.360518 
L 147.846078 -67.468836 
L 147.108974 -67.562073 
L 146.37187 -67.655089 
L 145.634767 -67.753261 
L 144.897663 -67.82909 
L 144.160559 -67.906435 
L 143.423455 -67.9943 
L 142.686352 -68.068625 
L 141.949248 -68.146642 
L 141.212144 -68.221791 
L 140.475041 -68.290164 
L 139.737937 -68.358951 
L 139.000833 -68.427447 
L 138.26373 -68.493464 
L 137.526626 -68.564758 
L 136.789522 -68.636839 
L 136.052418 -68.701526 
L 135.315315 -68.772812 
L 134.578211 -68.835329 
L 133.841107 -68.907047 
L 133.104004 -68.975965 
L 132.3669 -69.050253 
L 131.629796 -69.12585 
L 130.892693 -69.204185 
L 130.155589 -69.282276 
L 129.418485 -69.362429 
L 128.681381 -69.452453 
L 127.944278 -69.532665 
L 127.207174 -69.631251 
L 126.47007 -69.727155 
L 125.732967 -69.825882 
L 124.995863 -69.92546 
L 124.258759 -70.037988 
L 123.521656 -70.154781 
L 122.784552 -70.271331 
L 122.047448 -70.392871 
L 121.310344 -70.528085 
L 120.573241 -70.663586 
L 119.836137 -70.804953 
L 119.099033 -70.954999 
L 118.36193 -71.109215 
L 117.624826 -71.278563 
L 116.887722 -71.443451 
L 116.150619 -71.61931 
L 115.413515 -71.805961 
L 114.676411 -71.996484 
L 113.939307 -72.195571 
L 113.202204 -72.402695 
L 112.4651 -72.619085 
L 111.727996 -72.837169 
L 110.990893 -73.073799 
L 110.253789 -73.312827 
L 109.516685 -73.563182 
L 108.779582 -73.81886 
L 108.042478 -74.089278 
L 107.305374 -74.361094 
L 106.56827 -74.643029 
L 105.831167 -74.942139 
L 105.094063 -75.239639 
L 104.356959 -75.554865 
L 103.619856 -75.874428 
L 102.882752 -76.204814 
L 102.145648 -76.541341 
L 101.408545 -76.893216 
L 100.671441 -77.249665 
L 99.934337 -77.61903 
L 99.197233 -77.997637 
L 98.46013 -78.381536 
L 97.723026 -78.777259 
L 96.985922 -79.181746 
L 96.248819 -79.594052 
L 95.511715 -80.017317 
L 94.774611 -80.449166 
L 94.037508 -80.894458 
L 93.300404 -81.343453 
L 92.5633 -81.803908 
L 91.826196 -82.271404 
L 91.089093 -82.748675 
L 90.351989 -83.22713 
L 89.614885 -83.722989 
L 88.877782 -84.223661 
L 88.140678 -84.733815 
L 87.403574 -85.251022 
L 86.666471 -85.776381 
L 85.929367 -86.30908 
L 85.192263 -86.847447 
L 84.455159 -87.393294 
L 83.718056 -87.942195 
L 82.980952 -88.503679 
L 82.243848 -89.068926 
L 81.506745 -89.640609 
L 80.769641 -90.216154 
L 80.032537 -90.798701 
L 79.295434 -91.39026 
L 78.55833 -91.985818 
L 77.821226 -92.581189 
L 77.084122 -93.186136 
L 76.347019 -93.795709 
L 75.609915 -94.408569 
L 74.872811 -95.026719 
L 74.135708 -95.649063 
L 73.398604 -96.277792 
L 72.6615 -96.909461 
L 71.924397 -97.544593 
L 71.187293 -98.180707 
L 70.450189 -98.8277 
L 69.713085 -99.477819 
L 68.975982 -100.128443 
L 68.238878 -100.789859 
L 67.501774 -101.452861 
L 66.764671 -102.12592 
L 66.027567 -102.799069 
L 65.290463 -103.478657 
L 64.55336 -104.165998 
L 63.816256 -104.860313 
L 63.079152 -105.557046 
L 62.342048 -106.260798 
L 61.604945 -106.972976 
L 60.867841 -107.691013 
L 60.130737 -108.416793 
L 59.393634 -109.142787 
L 58.65653 -109.880454 
L 57.919426 -110.623618 
L 57.182323 -111.363385 
L 56.445219 -112.118226 
L 55.708115 -112.873188 
L 54.971011 -113.635873 
L 54.233908 -114.399765 
L 53.496804 -115.170655 
L 52.7597 -115.944848 
L 52.022597 -116.719892 
L 51.285493 -117.500651 
L 50.548389 -118.285366 
L 49.811286 -119.073554 
L 49.074182 -119.86225 
z
" style="stroke: #e74c3c; stroke-opacity: 0.2"/>
    </defs>
    <g clip-path="url(#p9a93dbf464)">
     <use xlink:href="#m4970f0df99" x="0" y="131.202533" style="fill: #e74c3c; fill-opacity: 0.2; stroke: #e74c3c; stroke-opacity: 0.2"/>
    </g>
   </g>
   <g id="line2d_19">
    <path d="M 41.74 65.561989 
L 203.092 65.561989 
" clip-path="url(#p9a93dbf464)" style="fill: none; stroke-dasharray: 4.44,1.92; stroke-dashoffset: 0; stroke: #000000; stroke-opacity: 0.7; stroke-width: 1.2"/>
   </g>
   <g id="patch_3">
    <path d="M 41.74 97.146283 
L 41.74 7.254283 
" style="fill: none; stroke: #000000; stroke-width: 0.5; stroke-linejoin: miter; stroke-linecap: square"/>
   </g>
   <g id="patch_4">
    <path d="M 203.092 97.146283 
L 203.092 7.254283 
" style="fill: none; stroke: #000000; stroke-width: 0.5; stroke-linejoin: miter; stroke-linecap: square"/>
   </g>
   <g id="patch_5">
    <path d="M 41.74 97.146283 
L 203.092 97.146283 
" style="fill: none; stroke: #000000; stroke-width: 0.5; stroke-linejoin: miter; stroke-linecap: square"/>
   </g>
   <g id="patch_6">
    <path d="M 41.74 7.254283 
L 203.092 7.254283 
" style="fill: none; stroke: #000000; stroke-width: 0.5; stroke-linejoin: miter; stroke-linecap: square"/>
   </g>
   <g id="line2d_20">
    <path d="M 49.074182 15.338533 
L 54.971011 20.164781 
L 63.079152 27.161275 
L 74.872811 37.375017 
L 80.769641 42.186774 
L 85.929367 46.093372 
L 90.351989 49.170306 
L 94.774611 51.947552 
L 98.46013 54.016379 
L 102.145648 55.862538 
L 106.56827 57.765127 
L 110.253789 59.102659 
L 113.939307 60.224386 
L 118.36193 61.310272 
L 122.784552 62.14604 
L 127.944278 62.878098 
L 136.052418 63.708526 
L 145.634767 64.681172 
L 150.794492 65.42772 
L 155.217115 66.289794 
L 159.639737 67.409615 
L 163.325255 68.570613 
L 167.010774 69.958093 
L 170.696292 71.581204 
L 174.381811 73.447953 
L 178.067329 75.551095 
L 181.752848 77.882433 
L 186.17547 80.955363 
L 190.598092 84.28642 
L 195.757818 88.428839 
L 195.757818 88.428839 
" clip-path="url(#p9a93dbf464)" style="fill: none; stroke: #e74c3c; stroke-linecap: square"/>
   </g>
   <g id="PathCollection_1">
    <defs>
     <path id="m5736bb00df" d="M 0 2.738613 
C 0.726289 2.738613 1.422928 2.450055 1.936492 1.936492 
C 2.450055 1.422928 2.738613 0.726289 2.738613 0 
C 2.738613 -0.726289 2.450055 -1.422928 1.936492 -1.936492 
C 1.422928 -2.450055 0.726289 -2.738613 0 -2.738613 
C -0.726289 -2.738613 -1.422928 -2.450055 -1.936492 -1.936492 
C -2.450055 -1.422928 -2.738613 -0.726289 -2.738613 0 
C -2.738613 0.726289 -2.450055 1.422928 -1.936492 1.936492 
C -1.422928 2.450055 -0.726289 2.738613 0 2.738613 
z
" style="stroke: #3498db; stroke-opacity: 0.8; stroke-width: 0.7"/>
    </defs>
    <g clip-path="url(#p9a93dbf464)">
     <use xlink:href="#m5736bb00df" x="93.006194" y="48.260398" style="fill: #a9bbf1; fill-opacity: 0.8; stroke: #3498db; stroke-opacity: 0.8; stroke-width: 0.7"/>
     <use xlink:href="#m5736bb00df" x="87.696503" y="47.647969" style="fill: #a9bbf1; fill-opacity: 0.8; stroke: #3498db; stroke-opacity: 0.8; stroke-width: 0.7"/>
     <use xlink:href="#m5736bb00df" x="102.860458" y="56.242618" style="fill: #a9bbf1; fill-opacity: 0.8; stroke: #3498db; stroke-opacity: 0.8; stroke-width: 0.7"/>
     <use xlink:href="#m5736bb00df" x="130.054576" y="63.283483" style="fill: #a9bbf1; fill-opacity: 0.8; stroke: #3498db; stroke-opacity: 0.8; stroke-width: 0.7"/>
     <use xlink:href="#m5736bb00df" x="178.832783" y="76.116149" style="fill: #a9bbf1; fill-opacity: 0.8; stroke: #3498db; stroke-opacity: 0.8; stroke-width: 0.7"/>
     <use xlink:href="#m5736bb00df" x="95.550135" y="52.673739" style="fill: #a9bbf1; fill-opacity: 0.8; stroke: #3498db; stroke-opacity: 0.8; stroke-width: 0.7"/>
     <use xlink:href="#m5736bb00df" x="138.255326" y="64.085893" style="fill: #a9bbf1; fill-opacity: 0.8; stroke: #3498db; stroke-opacity: 0.8; stroke-width: 0.7"/>
     <use xlink:href="#m5736bb00df" x="171.722134" y="72.211816" style="fill: #a9bbf1; fill-opacity: 0.8; stroke: #3498db; stroke-opacity: 0.8; stroke-width: 0.7"/>
     <use xlink:href="#m5736bb00df" x="131.278591" y="63.136867" style="fill: #a9bbf1; fill-opacity: 0.8; stroke: #3498db; stroke-opacity: 0.8; stroke-width: 0.7"/>
     <use xlink:href="#m5736bb00df" x="77.282989" y="39.494429" style="fill: #a9bbf1; fill-opacity: 0.8; stroke: #3498db; stroke-opacity: 0.8; stroke-width: 0.7"/>
     <use xlink:href="#m5736bb00df" x="157.065712" y="66.445191" style="fill: #a9bbf1; fill-opacity: 0.8; stroke: #3498db; stroke-opacity: 0.8; stroke-width: 0.7"/>
     <use xlink:href="#m5736bb00df" x="151.97606" y="65.436332" style="fill: #a9bbf1; fill-opacity: 0.8; stroke: #3498db; stroke-opacity: 0.8; stroke-width: 0.7"/>
     <use xlink:href="#m5736bb00df" x="134.536683" y="63.474379" style="fill: #a9bbf1; fill-opacity: 0.8; stroke: #3498db; stroke-opacity: 0.8; stroke-width: 0.7"/>
     <use xlink:href="#m5736bb00df" x="70.196966" y="33.276432" style="fill: #a9bbf1; fill-opacity: 0.8; stroke: #3498db; stroke-opacity: 0.8; stroke-width: 0.7"/>
     <use xlink:href="#m5736bb00df" x="79.811154" y="41.543145" style="fill: #a9bbf1; fill-opacity: 0.8; stroke: #3498db; stroke-opacity: 0.8; stroke-width: 0.7"/>
     <use xlink:href="#m5736bb00df" x="85.0421" y="45.869313" style="fill: #a9bbf1; fill-opacity: 0.8; stroke: #3498db; stroke-opacity: 0.8; stroke-width: 0.7"/>
     <use xlink:href="#m5736bb00df" x="98.060626" y="53.974607" style="fill: #a9bbf1; fill-opacity: 0.8; stroke: #3498db; stroke-opacity: 0.8; stroke-width: 0.7"/>
     <use xlink:href="#m5736bb00df" x="68.039503" y="31.413545" style="fill: #a9bbf1; fill-opacity: 0.8; stroke: #3498db; stroke-opacity: 0.8; stroke-width: 0.7"/>
     <use xlink:href="#m5736bb00df" x="123.57412" y="62.623993" style="fill: #a9bbf1; fill-opacity: 0.8; stroke: #3498db; stroke-opacity: 0.8; stroke-width: 0.7"/>
     <use xlink:href="#m5736bb00df" x="107.176882" y="57.941476" style="fill: #a9bbf1; fill-opacity: 0.8; stroke: #3498db; stroke-opacity: 0.8; stroke-width: 0.7"/>
     <use xlink:href="#m5736bb00df" x="82.407052" y="43.884631" style="fill: #a9bbf1; fill-opacity: 0.8; stroke: #3498db; stroke-opacity: 0.8; stroke-width: 0.7"/>
     <use xlink:href="#m5736bb00df" x="72.461893" y="35.352374" style="fill: #a9bbf1; fill-opacity: 0.8; stroke: #3498db; stroke-opacity: 0.8; stroke-width: 0.7"/>
     <use xlink:href="#m5736bb00df" x="105.089082" y="57.169424" style="fill: #a9bbf1; fill-opacity: 0.8; stroke: #3498db; stroke-opacity: 0.8; stroke-width: 0.7"/>
     <use xlink:href="#m5736bb00df" x="147.045535" y="64.744764" style="fill: #a9bbf1; fill-opacity: 0.8; stroke: #3498db; stroke-opacity: 0.8; stroke-width: 0.7"/>
     <use xlink:href="#m5736bb00df" x="65.999217" y="29.369912" style="fill: #a9bbf1; fill-opacity: 0.8; stroke: #3498db; stroke-opacity: 0.8; stroke-width: 0.7"/>
     <use xlink:href="#m5736bb00df" x="142.436202" y="64.301177" style="fill: #a9bbf1; fill-opacity: 0.8; stroke: #3498db; stroke-opacity: 0.8; stroke-width: 0.7"/>
     <use xlink:href="#m5736bb00df" x="109.120966" y="58.822805" style="fill: #a9bbf1; fill-opacity: 0.8; stroke: #3498db; stroke-opacity: 0.8; stroke-width: 0.7"/>
     <use xlink:href="#m5736bb00df" x="74.832333" y="37.740576" style="fill: #a9bbf1; fill-opacity: 0.8; stroke: #3498db; stroke-opacity: 0.8; stroke-width: 0.7"/>
     <use xlink:href="#m5736bb00df" x="129.68275" y="63.261111" style="fill: #a9bbf1; fill-opacity: 0.8; stroke: #3498db; stroke-opacity: 0.8; stroke-width: 0.7"/>
     <use xlink:href="#m5736bb00df" x="90.350904" y="49.665131" style="fill: #a9bbf1; fill-opacity: 0.8; stroke: #3498db; stroke-opacity: 0.8; stroke-width: 0.7"/>
    </g>
   </g>
   <g id="PathCollection_2">
    <defs>
     <path id="mbe85b15506" d="M 0 3.162278 
C 0.838646 3.162278 1.643056 2.82908 2.236068 2.236068 
C 2.82908 1.643056 3.162278 0.838646 3.162278 0 
C 3.162278 -0.838646 2.82908 -1.643056 2.236068 -2.236068 
C 1.643056 -2.82908 0.838646 -3.162278 0 -3.162278 
C -0.838646 -3.162278 -1.643056 -2.82908 -2.236068 -2.236068 
C -2.82908 -1.643056 -3.162278 -0.838646 -3.162278 0 
C -3.162278 0.838646 -2.82908 1.643056 -2.236068 2.236068 
C -1.643056 2.82908 -0.838646 3.162278 0 3.162278 
z
" style="stroke: #d62728; stroke-opacity: 0.9; stroke-width: 1.2"/>
    </defs>
    <g clip-path="url(#p9a93dbf464)">
     <use xlink:href="#mbe85b15506" x="75.009684" y="37.491115" style="fill: #ffffff; fill-opacity: 0.9; stroke: #d62728; stroke-opacity: 0.9; stroke-width: 1.2"/>
     <use xlink:href="#mbe85b15506" x="59.575104" y="24.105124" style="fill: #ffffff; fill-opacity: 0.9; stroke: #d62728; stroke-opacity: 0.9; stroke-width: 1.2"/>
     <use xlink:href="#mbe85b15506" x="54.331334" y="19.627367" style="fill: #ffffff; fill-opacity: 0.9; stroke: #d62728; stroke-opacity: 0.9; stroke-width: 1.2"/>
     <use xlink:href="#mbe85b15506" x="61.784723" y="26.029826" style="fill: #ffffff; fill-opacity: 0.9; stroke: #d62728; stroke-opacity: 0.9; stroke-width: 1.2"/>
     <use xlink:href="#mbe85b15506" x="74.687755" y="37.221169" style="fill: #ffffff; fill-opacity: 0.9; stroke: #d62728; stroke-opacity: 0.9; stroke-width: 1.2"/>
     <use xlink:href="#mbe85b15506" x="88.412662" y="47.85241" style="fill: #ffffff; fill-opacity: 0.9; stroke: #d62728; stroke-opacity: 0.9; stroke-width: 1.2"/>
     <use xlink:href="#mbe85b15506" x="100.097558" y="54.862822" style="fill: #ffffff; fill-opacity: 0.9; stroke: #d62728; stroke-opacity: 0.9; stroke-width: 1.2"/>
     <use xlink:href="#mbe85b15506" x="108.662252" y="58.550565" style="fill: #ffffff; fill-opacity: 0.9; stroke: #d62728; stroke-opacity: 0.9; stroke-width: 1.2"/>
     <use xlink:href="#mbe85b15506" x="114.833778" y="60.464212" style="fill: #ffffff; fill-opacity: 0.9; stroke: #d62728; stroke-opacity: 0.9; stroke-width: 1.2"/>
     <use xlink:href="#mbe85b15506" x="119.593247" y="61.564968" style="fill: #ffffff; fill-opacity: 0.9; stroke: #d62728; stroke-opacity: 0.9; stroke-width: 1.2"/>
     <use xlink:href="#mbe85b15506" x="123.250263" y="62.220198" style="fill: #ffffff; fill-opacity: 0.9; stroke: #d62728; stroke-opacity: 0.9; stroke-width: 1.2"/>
    </g>
   </g>
   <g id="legend_1">
    <g id="PathCollection_3">
     <g>
      <use xlink:href="#m5736bb00df" x="151.887" y="18.433033" style="fill: #a9bbf1; fill-opacity: 0.8; stroke: #3498db; stroke-opacity: 0.8; stroke-width: 0.7"/>
     </g>
    </g>
    <g id="text_12">
     <!-- Data -->
     <g transform="translate(166.287 20.533033) scale(0.08 -0.08)">
      <defs>
       <path id="DejaVuSerif-44" d="M 1581 331 
L 2163 331 
Q 3072 331 3558 850 
Q 4044 1369 4044 2338 
Q 4044 3306 3559 3818 
Q 3075 4331 2163 4331 
L 1581 4331 
L 1581 331 
z
M 353 0 
L 353 331 
L 947 331 
L 947 4331 
L 353 4331 
L 353 4666 
L 2209 4666 
Q 3416 4666 4089 4050 
Q 4763 3434 4763 2338 
Q 4763 1238 4088 619 
Q 3413 0 2209 0 
L 353 0 
z
" transform="scale(0.015625)"/>
       <path id="DejaVuSerif-61" d="M 2547 1044 
L 2547 1747 
L 1806 1747 
Q 1378 1747 1168 1562 
Q 959 1378 959 997 
Q 959 650 1171 447 
Q 1384 244 1747 244 
Q 2106 244 2326 466 
Q 2547 688 2547 1044 
z
M 3122 2075 
L 3122 331 
L 3634 331 
L 3634 0 
L 2547 0 
L 2547 359 
Q 2356 128 2106 18 
Q 1856 -91 1522 -91 
Q 969 -91 644 203 
Q 319 497 319 997 
Q 319 1513 691 1797 
Q 1063 2081 1741 2081 
L 2547 2081 
L 2547 2309 
Q 2547 2688 2317 2895 
Q 2088 3103 1672 3103 
Q 1328 3103 1125 2947 
Q 922 2791 872 2484 
L 575 2484 
L 575 3156 
Q 875 3284 1158 3348 
Q 1441 3413 1709 3413 
Q 2400 3413 2761 3070 
Q 3122 2728 3122 2075 
z
" transform="scale(0.015625)"/>
       <path id="DejaVuSerif-74" d="M 691 2988 
L 184 2988 
L 184 3322 
L 691 3322 
L 691 4353 
L 1269 4353 
L 1269 3322 
L 2350 3322 
L 2350 2988 
L 1269 2988 
L 1269 878 
Q 1269 456 1350 337 
Q 1431 219 1650 219 
Q 1875 219 1978 351 
Q 2081 484 2088 781 
L 2522 781 
Q 2497 328 2275 118 
Q 2053 -91 1600 -91 
Q 1103 -91 897 129 
Q 691 350 691 878 
L 691 2988 
z
" transform="scale(0.015625)"/>
      </defs>
      <use xlink:href="#DejaVuSerif-44"/>
      <use xlink:href="#DejaVuSerif-61" x="80.175781"/>
      <use xlink:href="#DejaVuSerif-74" x="139.794922"/>
      <use xlink:href="#DejaVuSerif-61" x="179.980469"/>
     </g>
    </g>
    <g id="line2d_21">
     <path d="M 143.887 29.475533 
L 151.887 29.475533 
L 159.887 29.475533 
" style="fill: none; stroke: #e74c3c; stroke-linecap: square"/>
    </g>
    <g id="text_13">
     <!-- GP Fit -->
     <g transform="translate(166.287 32.275533) scale(0.08 -0.08)">
      <defs>
       <path id="DejaVuSerif-47" d="M 4097 3272 
Q 3988 3856 3641 4136 
Q 3294 4416 2675 4416 
Q 1869 4416 1472 3897 
Q 1075 3378 1075 2328 
Q 1075 1300 1484 772 
Q 1894 244 2688 244 
Q 3041 244 3362 331 
Q 3684 419 3975 594 
L 3975 1797 
L 3097 1797 
L 3097 2131 
L 4609 2131 
L 4609 391 
Q 4194 150 3714 29 
Q 3234 -91 2688 -91 
Q 1631 -91 995 570 
Q 359 1231 359 2328 
Q 359 3434 996 4092 
Q 1634 4750 2713 4750 
Q 3113 4750 3539 4658 
Q 3966 4566 4447 4378 
L 4447 3272 
L 4097 3272 
z
" transform="scale(0.015625)"/>
       <path id="DejaVuSerif-50" d="M 1581 2375 
L 2406 2375 
Q 2872 2375 3115 2626 
Q 3359 2878 3359 3353 
Q 3359 3831 3115 4081 
Q 2872 4331 2406 4331 
L 1581 4331 
L 1581 2375 
z
M 353 0 
L 353 331 
L 947 331 
L 947 4331 
L 353 4331 
L 353 4666 
L 2559 4666 
Q 3259 4666 3668 4311 
Q 4078 3956 4078 3353 
Q 4078 2753 3668 2397 
Q 3259 2041 2559 2041 
L 1581 2041 
L 1581 331 
L 2303 331 
L 2303 0 
L 353 0 
z
" transform="scale(0.015625)"/>
       <path id="DejaVuSerif-46" d="M 353 0 
L 353 331 
L 947 331 
L 947 4331 
L 353 4331 
L 353 4666 
L 4172 4666 
L 4172 3628 
L 3788 3628 
L 3788 4281 
L 1581 4281 
L 1581 2719 
L 3175 2719 
L 3175 3303 
L 3559 3303 
L 3559 1753 
L 3175 1753 
L 3175 2338 
L 1581 2338 
L 1581 331 
L 2328 331 
L 2328 0 
L 353 0 
z
" transform="scale(0.015625)"/>
       <path id="DejaVuSerif-69" d="M 622 4353 
Q 622 4497 726 4603 
Q 831 4709 978 4709 
Q 1122 4709 1226 4603 
Q 1331 4497 1331 4353 
Q 1331 4206 1228 4103 
Q 1125 4000 978 4000 
Q 831 4000 726 4103 
Q 622 4206 622 4353 
z
M 1356 331 
L 1900 331 
L 1900 0 
L 231 0 
L 231 331 
L 781 331 
L 781 2988 
L 231 2988 
L 231 3322 
L 1356 3322 
L 1356 331 
z
" transform="scale(0.015625)"/>
      </defs>
      <use xlink:href="#DejaVuSerif-47"/>
      <use xlink:href="#DejaVuSerif-50" x="79.882812"/>
      <use xlink:href="#DejaVuSerif-20" x="147.167969"/>
      <use xlink:href="#DejaVuSerif-46" x="178.955078"/>
      <use xlink:href="#DejaVuSerif-69" x="248.339844"/>
      <use xlink:href="#DejaVuSerif-74" x="280.322266"/>
     </g>
    </g>
    <g id="patch_7">
     <path d="M 143.887 44.018033 
L 159.887 44.018033 
L 159.887 38.418033 
L 143.887 38.418033 
z
" style="fill: #e74c3c; fill-opacity: 0.2; stroke: #e74c3c; stroke-opacity: 0.2; stroke-linejoin: miter"/>
    </g>
    <g id="text_14">
     <!-- 95% CI -->
     <g transform="translate(166.287 44.018033) scale(0.08 -0.08)">
      <defs>
       <path id="DejaVuSerif-39" d="M 2994 2091 
Q 2784 1856 2512 1740 
Q 2241 1625 1900 1625 
Q 1206 1625 804 2044 
Q 403 2463 403 3188 
Q 403 3897 839 4323 
Q 1275 4750 2003 4750 
Q 2794 4750 3217 4161 
Q 3641 3572 3641 2478 
Q 3641 1253 3137 581 
Q 2634 -91 1722 -91 
Q 1475 -91 1203 -44 
Q 931 3 647 97 
L 647 872 
L 997 872 
Q 1038 556 1241 387 
Q 1444 219 1784 219 
Q 2391 219 2687 676 
Q 2984 1134 2994 2091 
z
M 1978 4441 
Q 1534 4441 1298 4117 
Q 1063 3794 1063 3188 
Q 1063 2581 1298 2256 
Q 1534 1931 1978 1931 
Q 2422 1931 2658 2245 
Q 2894 2559 2894 3150 
Q 2894 3772 2656 4106 
Q 2419 4441 1978 4441 
z
" transform="scale(0.015625)"/>
       <path id="DejaVuSerif-35" d="M 3219 4666 
L 3219 4153 
L 1081 4153 
L 1081 2816 
Q 1244 2928 1461 2984 
Q 1678 3041 1947 3041 
Q 2703 3041 3140 2622 
Q 3578 2203 3578 1478 
Q 3578 738 3136 323 
Q 2694 -91 1894 -91 
Q 1572 -91 1234 -12 
Q 897 66 544 225 
L 544 1131 
L 897 1131 
Q 925 688 1179 453 
Q 1434 219 1894 219 
Q 2388 219 2653 544 
Q 2919 869 2919 1478 
Q 2919 2084 2655 2407 
Q 2391 2731 1894 2731 
Q 1613 2731 1398 2631 
Q 1184 2531 1019 2322 
L 750 2322 
L 750 4666 
L 3219 4666 
z
" transform="scale(0.015625)"/>
       <path id="DejaVuSerif-25" d="M 1434 4459 
Q 1159 4459 1004 4200 
Q 850 3941 850 3475 
Q 850 3016 1008 2753 
Q 1166 2491 1434 2491 
Q 1700 2491 1854 2752 
Q 2009 3013 2009 3475 
Q 2009 3938 1854 4198 
Q 1700 4459 1434 4459 
z
M 4653 2169 
Q 4381 2169 4226 1906 
Q 4072 1644 4072 1178 
Q 4072 719 4228 458 
Q 4384 197 4653 197 
Q 4922 197 5075 458 
Q 5228 719 5228 1178 
Q 5228 1641 5073 1905 
Q 4919 2169 4653 2169 
z
M 4653 2450 
Q 5147 2450 5437 2106 
Q 5728 1763 5728 1178 
Q 5728 594 5436 251 
Q 5144 -91 4653 -91 
Q 4153 -91 3862 251 
Q 3572 594 3572 1178 
Q 3572 1766 3864 2108 
Q 4156 2450 4653 2450 
z
M 4263 4750 
L 4738 4750 
L 1819 -91 
L 1344 -91 
L 4263 4750 
z
M 1428 4750 
Q 1922 4750 2215 4408 
Q 2509 4066 2509 3481 
Q 2509 2891 2217 2550 
Q 1925 2209 1428 2209 
Q 931 2209 642 2551 
Q 353 2894 353 3481 
Q 353 4063 643 4406 
Q 934 4750 1428 4750 
z
" transform="scale(0.015625)"/>
       <path id="DejaVuSerif-43" d="M 4513 1234 
Q 4306 581 3820 245 
Q 3334 -91 2591 -91 
Q 2134 -91 1743 65 
Q 1353 222 1050 525 
Q 700 875 529 1320 
Q 359 1766 359 2328 
Q 359 3416 987 4083 
Q 1616 4750 2644 4750 
Q 3025 4750 3456 4650 
Q 3888 4550 4384 4347 
L 4384 3272 
L 4031 3272 
Q 3916 3859 3567 4137 
Q 3219 4416 2591 4416 
Q 1844 4416 1459 3886 
Q 1075 3356 1075 2328 
Q 1075 1303 1459 773 
Q 1844 244 2591 244 
Q 3113 244 3450 492 
Q 3788 741 3938 1234 
L 4513 1234 
z
" transform="scale(0.015625)"/>
       <path id="DejaVuSerif-49" d="M 1581 331 
L 2175 331 
L 2175 0 
L 353 0 
L 353 331 
L 947 331 
L 947 4331 
L 353 4331 
L 353 4666 
L 2175 4666 
L 2175 4331 
L 1581 4331 
L 1581 331 
z
" transform="scale(0.015625)"/>
      </defs>
      <use xlink:href="#DejaVuSerif-39"/>
      <use xlink:href="#DejaVuSerif-35" x="63.623047"/>
      <use xlink:href="#DejaVuSerif-25" x="127.246094"/>
      <use xlink:href="#DejaVuSerif-20" x="222.265625"/>
      <use xlink:href="#DejaVuSerif-43" x="254.052734"/>
      <use xlink:href="#DejaVuSerif-49" x="330.566406"/>
     </g>
    </g>
    <g id="PathCollection_4">
     <g>
      <use xlink:href="#mbe85b15506" x="151.887" y="53.660533" style="fill: #ffffff; fill-opacity: 0.9; stroke: #d62728; stroke-opacity: 0.9; stroke-width: 1.2"/>
     </g>
    </g>
    <g id="text_15">
     <!-- Pred -->
     <g transform="translate(166.287 55.760533) scale(0.08 -0.08)">
      <defs>
       <path id="DejaVuSerif-72" d="M 3059 3328 
L 3059 2497 
L 2728 2497 
Q 2713 2744 2591 2866 
Q 2469 2988 2234 2988 
Q 1809 2988 1582 2694 
Q 1356 2400 1356 1850 
L 1356 331 
L 2022 331 
L 2022 0 
L 263 0 
L 263 331 
L 781 331 
L 781 2994 
L 231 2994 
L 231 3322 
L 1356 3322 
L 1356 2731 
Q 1525 3078 1790 3245 
Q 2056 3413 2438 3413 
Q 2578 3413 2733 3391 
Q 2888 3369 3059 3328 
z
" transform="scale(0.015625)"/>
       <path id="DejaVuSerif-65" d="M 3469 1600 
L 991 1600 
L 991 1575 
Q 991 903 1244 561 
Q 1497 219 1991 219 
Q 2369 219 2611 417 
Q 2853 616 2950 1006 
L 3413 1006 
Q 3275 459 2904 184 
Q 2534 -91 1931 -91 
Q 1203 -91 761 389 
Q 319 869 319 1663 
Q 319 2450 753 2931 
Q 1188 3413 1894 3413 
Q 2647 3413 3050 2948 
Q 3453 2484 3469 1600 
z
M 2791 1931 
Q 2772 2513 2545 2808 
Q 2319 3103 1894 3103 
Q 1497 3103 1269 2806 
Q 1041 2509 991 1931 
L 2791 1931 
z
" transform="scale(0.015625)"/>
       <path id="DejaVuSerif-64" d="M 3359 331 
L 3909 331 
L 3909 0 
L 2784 0 
L 2784 519 
Q 2616 206 2355 57 
Q 2094 -91 1709 -91 
Q 1097 -91 708 395 
Q 319 881 319 1663 
Q 319 2444 706 2928 
Q 1094 3413 1709 3413 
Q 2094 3413 2355 3264 
Q 2616 3116 2784 2803 
L 2784 4531 
L 2241 4531 
L 2241 4863 
L 3359 4863 
L 3359 331 
z
M 2784 1497 
L 2784 1825 
Q 2784 2422 2554 2737 
Q 2325 3053 1888 3053 
Q 1444 3053 1217 2703 
Q 991 2353 991 1663 
Q 991 975 1217 622 
Q 1444 269 1888 269 
Q 2325 269 2554 583 
Q 2784 897 2784 1497 
z
" transform="scale(0.015625)"/>
      </defs>
      <use xlink:href="#DejaVuSerif-50"/>
      <use xlink:href="#DejaVuSerif-72" x="67.285156"/>
      <use xlink:href="#DejaVuSerif-65" x="115.087891"/>
      <use xlink:href="#DejaVuSerif-64" x="174.267578"/>
     </g>
    </g>
   </g>
  </g>
 </g>
 <defs>
  <clipPath id="p9a93dbf464">
   <rect x="41.74" y="7.254283" width="161.352" height="89.892"/>
  </clipPath>
 </defs>
</svg>
