<?xml version="1.0" encoding="utf-8" standalone="no"?>
<!DOCTYPE svg PUBLIC "-//W3C//DTD SVG 1.1//EN"
  "http://www.w3.org/Graphics/SVG/1.1/DTD/svg11.dtd">
<svg xmlns:xlink="http://www.w3.org/1999/xlink" width="244.393563pt" height="296.789812pt" viewBox="0 0 244.393563 296.789812" xmlns="http://www.w3.org/2000/svg" version="1.1">
 <metadata>
  <rdf:RDF xmlns:dc="http://purl.org/dc/elements/1.1/" xmlns:cc="http://creativecommons.org/ns#" xmlns:rdf="http://www.w3.org/1999/02/22-rdf-syntax-ns#">
   <cc:Work>
    <dc:type rdf:resource="http://purl.org/dc/dcmitype/StillImage"/>
    <dc:date>2026-02-01T23:33:43.854077</dc:date>
    <dc:format>image/svg+xml</dc:format>
    <dc:creator>
     <cc:Agent>
      <dc:title>Matplotlib v3.7.5, https://matplotlib.org/</dc:title>
     </cc:Agent>
    </dc:creator>
   </cc:Work>
  </rdf:RDF>
 </metadata>
 <defs>
  <style type="text/css">*{stroke-linejoin: round; stroke-linecap: butt}</style>
 </defs>
 <g id="figure_1">
  <g id="patch_1">
   <path d="M 0 296.789812 
L 244.393563 296.789812 
L 244.393563 0 
L 0 0 
z
" style="fill: #ffffff"/>
  </g>
  <g id="axes_1">
   <g id="patch_2">
    <path d="M 38.836562 80.95925 
L 237.193562 80.95925 
L 237.193562 19.4 
L 38.836562 19.4 
z
" style="fill: #ffffff"/>
   </g>
   <g id="matplotlib.axis_1">
    <g id="xtick_1">
     <g id="line2d_1">
      <path d="M 68.522886 80.95925 
L 68.522886 19.4 
" clip-path="url(#p9eb74aea52)" style="fill: none; stroke-dasharray: 1.85,0.8; stroke-dashoffset: 0; stroke: #b0b0b0; stroke-opacity: 0.5; stroke-width: 0.5"/>
     </g>
     <g id="line2d_2">
      <defs>
       <path id="m69504f7d5f" d="M 0 0 
L 0 -3 
" style="stroke: #000000; stroke-width: 0.5"/>
      </defs>
      <g>
       <use xlink:href="#m69504f7d5f" x="68.522886" y="80.95925" style="stroke: #000000; stroke-width: 0.5"/>
      </g>
     </g>
     <g id="text_1">
      <!-- −4 -->
      <g transform="translate(62.626011 90.538) scale(0.08 -0.08)">
       <defs>
        <path id="DejaVuSerif-2212" d="M 678 2259 
L 4684 2259 
L 4684 1753 
L 678 1753 
L 678 2259 
z
" transform="scale(0.015625)"/>
        <path id="DejaVuSerif-34" d="M 2234 1581 
L 2234 4063 
L 641 1581 
L 2234 1581 
z
M 3609 0 
L 1484 0 
L 1484 331 
L 2234 331 
L 2234 1247 
L 197 1247 
L 197 1588 
L 2241 4750 
L 2859 4750 
L 2859 1581 
L 3750 1581 
L 3750 1247 
L 2859 1247 
L 2859 331 
L 3609 331 
L 3609 0 
z
" transform="scale(0.015625)"/>
       </defs>
       <use xlink:href="#DejaVuSerif-2212"/>
       <use xlink:href="#DejaVuSerif-34" x="83.789062"/>
      </g>
     </g>
    </g>
    <g id="xtick_2">
     <g id="line2d_3">
      <path d="M 102.407811 80.95925 
L 102.407811 19.4 
" clip-path="url(#p9eb74aea52)" style="fill: none; stroke-dasharray: 1.85,0.8; stroke-dashoffset: 0; stroke: #b0b0b0; stroke-opacity: 0.5; stroke-width: 0.5"/>
     </g>
     <g id="line2d_4">
      <g>
       <use xlink:href="#m69504f7d5f" x="102.407811" y="80.95925" style="stroke: #000000; stroke-width: 0.5"/>
      </g>
     </g>
     <g id="text_2">
      <!-- −3 -->
      <g transform="translate(96.510936 90.538) scale(0.08 -0.08)">
       <defs>
        <path id="DejaVuSerif-33" d="M 622 4469 
Q 988 4606 1323 4678 
Q 1659 4750 1953 4750 
Q 2638 4750 3022 4454 
Q 3406 4159 3406 3634 
Q 3406 3213 3140 2930 
Q 2875 2647 2388 2547 
Q 2963 2466 3280 2130 
Q 3597 1794 3597 1259 
Q 3597 606 3158 257 
Q 2719 -91 1894 -91 
Q 1528 -91 1179 -12 
Q 831 66 488 225 
L 488 1131 
L 838 1131 
Q 869 681 1141 450 
Q 1413 219 1906 219 
Q 2384 219 2661 495 
Q 2938 772 2938 1253 
Q 2938 1803 2653 2086 
Q 2369 2369 1819 2369 
L 1522 2369 
L 1522 2688 
L 1678 2688 
Q 2225 2688 2498 2914 
Q 2772 3141 2772 3597 
Q 2772 4006 2547 4223 
Q 2322 4441 1900 4441 
Q 1478 4441 1245 4241 
Q 1013 4041 972 3647 
L 622 3647 
L 622 4469 
z
" transform="scale(0.015625)"/>
       </defs>
       <use xlink:href="#DejaVuSerif-2212"/>
       <use xlink:href="#DejaVuSerif-33" x="83.789062"/>
      </g>
     </g>
    </g>
    <g id="xtick_3">
     <g id="line2d_5">
      <path d="M 136.292736 80.95925 
L 136.292736 19.4 
" clip-path="url(#p9eb74aea52)" style="fill: none; stroke-dasharray: 1.85,0.8; stroke-dashoffset: 0; stroke: #b0b0b0; stroke-opacity: 0.5; stroke-width: 0.5"/>
     </g>
     <g id="line2d_6">
      <g>
       <use xlink:href="#m69504f7d5f" x="136.292736" y="80.95925" style="stroke: #000000; stroke-width: 0.5"/>
      </g>
     </g>
     <g id="text_3">
      <!-- −2 -->
      <g transform="translate(130.395861 90.538) scale(0.08 -0.08)">
       <defs>
        <path id="DejaVuSerif-32" d="M 819 3553 
L 469 3553 
L 469 4384 
Q 803 4563 1142 4656 
Q 1481 4750 1806 4750 
Q 2534 4750 2956 4397 
Q 3378 4044 3378 3438 
Q 3378 2753 2422 1800 
Q 2347 1728 2309 1691 
L 1131 513 
L 3078 513 
L 3078 1088 
L 3444 1088 
L 3444 0 
L 434 0 
L 434 341 
L 1850 1753 
Q 2319 2222 2519 2614 
Q 2719 3006 2719 3438 
Q 2719 3909 2473 4175 
Q 2228 4441 1797 4441 
Q 1350 4441 1106 4219 
Q 863 3997 819 3553 
z
" transform="scale(0.015625)"/>
       </defs>
       <use xlink:href="#DejaVuSerif-2212"/>
       <use xlink:href="#DejaVuSerif-32" x="83.789062"/>
      </g>
     </g>
    </g>
    <g id="xtick_4">
     <g id="line2d_7">
      <path d="M 170.177662 80.95925 
L 170.177662 19.4 
" clip-path="url(#p9eb74aea52)" style="fill: none; stroke-dasharray: 1.85,0.8; stroke-dashoffset: 0; stroke: #b0b0b0; stroke-opacity: 0.5; stroke-width: 0.5"/>
     </g>
     <g id="line2d_8">
      <g>
       <use xlink:href="#m69504f7d5f" x="170.177662" y="80.95925" style="stroke: #000000; stroke-width: 0.5"/>
      </g>
     </g>
     <g id="text_4">
      <!-- −1 -->
      <g transform="translate(164.280787 90.538) scale(0.08 -0.08)">
       <defs>
        <path id="DejaVuSerif-31" d="M 909 0 
L 909 331 
L 1722 331 
L 1722 4213 
L 781 3603 
L 781 4013 
L 1919 4750 
L 2350 4750 
L 2350 331 
L 3163 331 
L 3163 0 
L 909 0 
z
" transform="scale(0.015625)"/>
       </defs>
       <use xlink:href="#DejaVuSerif-2212"/>
       <use xlink:href="#DejaVuSerif-31" x="83.789062"/>
      </g>
     </g>
    </g>
    <g id="xtick_5">
     <g id="line2d_9">
      <path d="M 204.062587 80.95925 
L 204.062587 19.4 
" clip-path="url(#p9eb74aea52)" style="fill: none; stroke-dasharray: 1.85,0.8; stroke-dashoffset: 0; stroke: #b0b0b0; stroke-opacity: 0.5; stroke-width: 0.5"/>
     </g>
     <g id="line2d_10">
      <g>
       <use xlink:href="#m69504f7d5f" x="204.062587" y="80.95925" style="stroke: #000000; stroke-width: 0.5"/>
      </g>
     </g>
     <g id="text_5">
      <!-- 0 -->
      <g transform="translate(201.517587 90.538) scale(0.08 -0.08)">
       <defs>
        <path id="DejaVuSerif-30" d="M 2034 219 
Q 2513 219 2750 744 
Q 2988 1269 2988 2328 
Q 2988 3391 2750 3916 
Q 2513 4441 2034 4441 
Q 1556 4441 1318 3916 
Q 1081 3391 1081 2328 
Q 1081 1269 1318 744 
Q 1556 219 2034 219 
z
M 2034 -91 
Q 1275 -91 848 546 
Q 422 1184 422 2328 
Q 422 3475 848 4112 
Q 1275 4750 2034 4750 
Q 2797 4750 3222 4112 
Q 3647 3475 3647 2328 
Q 3647 1184 3222 546 
Q 2797 -91 2034 -91 
z
" transform="scale(0.015625)"/>
       </defs>
       <use xlink:href="#DejaVuSerif-30"/>
      </g>
     </g>
    </g>
    <g id="text_6">
     <!-- $v_{x}$ [m/s] -->
     <g transform="translate(121.365062 103.040344) scale(0.09 -0.09)">
      <defs>
       <path id="STIXGeneral-Italic-76" d="M 1325 448 
L 1523 653 
Q 1869 1005 2134 1456 
Q 2400 1907 2400 2131 
Q 2400 2208 2285 2317 
Q 2125 2458 2125 2605 
Q 2125 2701 2195 2761 
Q 2266 2822 2368 2822 
Q 2522 2822 2624 2704 
Q 2726 2586 2726 2445 
Q 2726 2074 2323 1453 
Q 1971 909 1562 474 
Q 1504 416 1421 326 
Q 1338 237 1299 192 
Q 1261 147 1200 86 
Q 1139 26 1110 -3 
Q 1082 -32 1043 -64 
Q 1005 -96 979 -105 
Q 954 -115 928 -115 
Q 870 -115 870 58 
L 870 211 
Q 870 1094 717 1990 
Q 653 2355 579 2470 
Q 506 2586 326 2586 
Q 198 2586 128 2579 
L 128 2662 
Q 480 2720 845 2797 
Q 915 2822 973 2822 
Q 1011 2822 1033 2739 
Q 1056 2656 1165 2093 
Q 1280 1510 1325 448 
z
" transform="scale(0.015625)"/>
       <path id="STIXGeneral-Italic-78" d="M 1555 2272 
L 1632 1907 
Q 1971 2426 2179 2624 
Q 2387 2822 2598 2822 
Q 2714 2822 2787 2755 
Q 2861 2688 2861 2585 
Q 2861 2483 2800 2419 
Q 2739 2355 2643 2355 
Q 2586 2355 2490 2409 
Q 2394 2464 2310 2464 
Q 2125 2464 1683 1690 
Q 1683 1606 1734 1402 
L 1939 544 
Q 2003 282 2131 282 
Q 2234 282 2432 538 
Q 2451 563 2476 598 
Q 2502 634 2521 662 
Q 2541 691 2566 717 
L 2662 659 
Q 2387 230 2227 80 
Q 2067 -70 1882 -70 
Q 1728 -70 1645 26 
Q 1562 122 1504 365 
L 1318 1126 
L 755 365 
Q 557 96 432 13 
Q 307 -70 147 -70 
Q 0 -70 -86 0 
Q -173 70 -173 198 
Q -173 294 -112 361 
Q -51 429 45 429 
Q 122 429 250 358 
Q 346 301 416 301 
Q 525 301 742 614 
L 1267 1357 
L 1088 2150 
Q 1024 2432 969 2509 
Q 915 2586 794 2586 
Q 717 2586 544 2541 
L 429 2509 
L 410 2611 
L 480 2637 
Q 992 2822 1229 2822 
Q 1350 2822 1420 2707 
Q 1491 2592 1555 2272 
z
" transform="scale(0.015625)"/>
       <path id="DejaVuSerif-20" transform="scale(0.015625)"/>
       <path id="DejaVuSerif-5b" d="M 550 4863 
L 2003 4863 
L 2003 4531 
L 1147 4531 
L 1147 -513 
L 2003 -513 
L 2003 -844 
L 550 -844 
L 550 4863 
z
" transform="scale(0.015625)"/>
       <path id="DejaVuSerif-6d" d="M 3316 2675 
Q 3481 3041 3739 3227 
Q 3997 3413 4341 3413 
Q 4863 3413 5119 3089 
Q 5375 2766 5375 2113 
L 5375 331 
L 5894 331 
L 5894 0 
L 4300 0 
L 4300 331 
L 4800 331 
L 4800 2047 
Q 4800 2556 4650 2772 
Q 4500 2988 4153 2988 
Q 3769 2988 3567 2697 
Q 3366 2406 3366 1850 
L 3366 331 
L 3866 331 
L 3866 0 
L 2291 0 
L 2291 331 
L 2791 331 
L 2791 2069 
Q 2791 2566 2641 2777 
Q 2491 2988 2144 2988 
Q 1759 2988 1557 2697 
Q 1356 2406 1356 1850 
L 1356 331 
L 1856 331 
L 1856 0 
L 263 0 
L 263 331 
L 781 331 
L 781 2994 
L 231 2994 
L 231 3322 
L 1356 3322 
L 1356 2731 
Q 1516 3063 1762 3238 
Q 2009 3413 2322 3413 
Q 2709 3413 2968 3220 
Q 3228 3028 3316 2675 
z
" transform="scale(0.015625)"/>
       <path id="DejaVuSerif-2f" d="M 1656 4666 
L 2156 4666 
L 500 -594 
L 0 -594 
L 1656 4666 
z
" transform="scale(0.015625)"/>
       <path id="DejaVuSerif-73" d="M 359 184 
L 359 959 
L 691 959 
Q 703 588 923 403 
Q 1144 219 1575 219 
Q 1963 219 2166 364 
Q 2369 509 2369 788 
Q 2369 1006 2220 1140 
Q 2072 1275 1594 1428 
L 1178 1569 
Q 750 1706 558 1912 
Q 366 2119 366 2438 
Q 366 2894 700 3153 
Q 1034 3413 1625 3413 
Q 1888 3413 2178 3344 
Q 2469 3275 2778 3144 
L 2778 2419 
L 2447 2419 
Q 2434 2741 2221 2922 
Q 2009 3103 1644 3103 
Q 1281 3103 1095 2975 
Q 909 2847 909 2591 
Q 909 2381 1050 2254 
Q 1191 2128 1613 1997 
L 2069 1856 
Q 2541 1709 2748 1489 
Q 2956 1269 2956 922 
Q 2956 450 2595 179 
Q 2234 -91 1600 -91 
Q 1278 -91 972 -22 
Q 666 47 359 184 
z
" transform="scale(0.015625)"/>
       <path id="DejaVuSerif-5d" d="M 1947 4863 
L 1947 -844 
L 494 -844 
L 494 -513 
L 1350 -513 
L 1350 4531 
L 494 4531 
L 494 4863 
L 1947 4863 
z
" transform="scale(0.015625)"/>
      </defs>
      <use xlink:href="#STIXGeneral-Italic-76" transform="translate(0 0.015625)"/>
      <use xlink:href="#STIXGeneral-Italic-78" transform="translate(44.399994 -13.2125) scale(0.7)"/>
      <use xlink:href="#DejaVuSerif-20" transform="translate(79.889365 0.015625)"/>
      <use xlink:href="#DejaVuSerif-5b" transform="translate(111.676474 0.015625)"/>
      <use xlink:href="#DejaVuSerif-6d" transform="translate(150.690146 0.015625)"/>
      <use xlink:href="#DejaVuSerif-2f" transform="translate(245.514365 0.015625)"/>
      <use xlink:href="#DejaVuSerif-73" transform="translate(279.205771 0.015625)"/>
      <use xlink:href="#DejaVuSerif-5d" transform="translate(330.52413 0.015625)"/>
     </g>
    </g>
   </g>
   <g id="matplotlib.axis_2">
    <g id="ytick_1">
     <g id="line2d_11">
      <path d="M 38.836562 75.376336 
L 237.193562 75.376336 
" clip-path="url(#p9eb74aea52)" style="fill: none; stroke-dasharray: 1.85,0.8; stroke-dashoffset: 0; stroke: #b0b0b0; stroke-opacity: 0.5; stroke-width: 0.5"/>
     </g>
     <g id="line2d_12">
      <defs>
       <path id="mf93d2d9a17" d="M 0 0 
L 3 0 
" style="stroke: #000000; stroke-width: 0.5"/>
      </defs>
      <g>
       <use xlink:href="#mf93d2d9a17" x="38.836562" y="75.376336" style="stroke: #000000; stroke-width: 0.5"/>
      </g>
     </g>
     <g id="text_7">
      <!-- 0.0 -->
      <g transform="translate(22.614062 78.415711) scale(0.08 -0.08)">
       <defs>
        <path id="DejaVuSerif-2e" d="M 603 325 
Q 603 500 722 622 
Q 841 744 1019 744 
Q 1191 744 1312 622 
Q 1434 500 1434 325 
Q 1434 153 1312 31 
Q 1191 -91 1019 -91 
Q 841 -91 722 29 
Q 603 150 603 325 
z
" transform="scale(0.015625)"/>
       </defs>
       <use xlink:href="#DejaVuSerif-30"/>
       <use xlink:href="#DejaVuSerif-2e" x="63.623047"/>
       <use xlink:href="#DejaVuSerif-30" x="95.410156"/>
      </g>
     </g>
    </g>
    <g id="ytick_2">
     <g id="line2d_13">
      <path d="M 38.836562 49.104783 
L 237.193562 49.104783 
" clip-path="url(#p9eb74aea52)" style="fill: none; stroke-dasharray: 1.85,0.8; stroke-dashoffset: 0; stroke: #b0b0b0; stroke-opacity: 0.5; stroke-width: 0.5"/>
     </g>
     <g id="line2d_14">
      <g>
       <use xlink:href="#mf93d2d9a17" x="38.836562" y="49.104783" style="stroke: #000000; stroke-width: 0.5"/>
      </g>
     </g>
     <g id="text_8">
      <!-- 2.0 -->
      <g transform="translate(22.614062 52.144158) scale(0.08 -0.08)">
       <use xlink:href="#DejaVuSerif-32"/>
       <use xlink:href="#DejaVuSerif-2e" x="63.623047"/>
       <use xlink:href="#DejaVuSerif-30" x="95.410156"/>
      </g>
     </g>
    </g>
    <g id="ytick_3">
     <g id="line2d_15">
      <path d="M 38.836562 22.833229 
L 237.193562 22.833229 
" clip-path="url(#p9eb74aea52)" style="fill: none; stroke-dasharray: 1.85,0.8; stroke-dashoffset: 0; stroke: #b0b0b0; stroke-opacity: 0.5; stroke-width: 0.5"/>
     </g>
     <g id="line2d_16">
      <g>
       <use xlink:href="#mf93d2d9a17" x="38.836562" y="22.833229" style="stroke: #000000; stroke-width: 0.5"/>
      </g>
     </g>
     <g id="text_9">
      <!-- 4.0 -->
      <g transform="translate(22.614062 25.872604) scale(0.08 -0.08)">
       <use xlink:href="#DejaVuSerif-34"/>
       <use xlink:href="#DejaVuSerif-2e" x="63.623047"/>
       <use xlink:href="#DejaVuSerif-30" x="95.410156"/>
      </g>
     </g>
    </g>
    <g id="text_10">
     <!-- $\Delta a_{x}$ [m/s²] -->
     <g transform="translate(16.742344 72.139625) rotate(-90) scale(0.09 -0.09)">
      <defs>
       <path id="STIXGeneral-Regular-394" d="M 4320 0 
L 307 0 
L 2221 4314 
L 2349 4314 
L 4320 0 
z
M 3354 589 
L 2118 3405 
L 870 589 
L 3354 589 
z
" transform="scale(0.015625)"/>
       <path id="STIXGeneral-Italic-61" d="M 2963 710 
L 3046 640 
Q 2688 205 2518 70 
Q 2349 -64 2157 -64 
Q 1901 -64 1901 198 
Q 1901 358 2048 934 
Q 1690 397 1389 163 
Q 1088 -70 749 -70 
Q 467 -70 288 125 
Q 109 320 109 672 
Q 109 1158 387 1664 
Q 666 2170 1094 2496 
Q 1523 2822 1939 2822 
Q 2368 2822 2451 2451 
L 2522 2758 
L 2541 2778 
L 2931 2822 
L 2976 2803 
Q 2970 2778 2938 2669 
Q 2368 595 2368 346 
Q 2368 262 2458 262 
Q 2554 262 2790 525 
L 2963 710 
z
M 2336 2310 
Q 2336 2477 2240 2579 
Q 2144 2682 1978 2682 
Q 1542 2682 1139 2093 
Q 928 1779 787 1395 
Q 646 1011 646 717 
Q 646 243 1030 243 
Q 1408 243 1843 870 
Q 2336 1581 2336 2310 
z
" transform="scale(0.015625)"/>
       <path id="DejaVuSerif-b2" d="M 531 4050 
L 313 4050 
L 313 4544 
Q 519 4644 737 4697 
Q 956 4750 1172 4750 
Q 1603 4750 1870 4544 
Q 2138 4338 2138 4013 
Q 2138 3631 1531 3088 
L 1472 3034 
L 728 2363 
L 1931 2363 
L 1931 2700 
L 2163 2700 
L 2163 2088 
L 281 2088 
L 281 2322 
L 1172 3116 
Q 1441 3356 1556 3547 
Q 1672 3738 1672 3944 
Q 1672 4209 1520 4364 
Q 1369 4519 1106 4519 
Q 863 4519 716 4400 
Q 569 4281 531 4050 
z
" transform="scale(0.015625)"/>
      </defs>
      <use xlink:href="#STIXGeneral-Regular-394" transform="translate(0 0.015625)"/>
      <use xlink:href="#STIXGeneral-Italic-61" transform="translate(72.199982 0.015625)"/>
      <use xlink:href="#STIXGeneral-Italic-78" transform="translate(122.299973 -13.2125) scale(0.7)"/>
      <use xlink:href="#DejaVuSerif-20" transform="translate(157.789343 0.015625)"/>
      <use xlink:href="#DejaVuSerif-5b" transform="translate(189.576453 0.015625)"/>
      <use xlink:href="#DejaVuSerif-6d" transform="translate(228.590125 0.015625)"/>
      <use xlink:href="#DejaVuSerif-2f" transform="translate(323.414343 0.015625)"/>
      <use xlink:href="#DejaVuSerif-73" transform="translate(357.10575 0.015625)"/>
      <use xlink:href="#DejaVuSerif-b2" transform="translate(408.424109 0.015625)"/>
      <use xlink:href="#DejaVuSerif-5d" transform="translate(448.512 0.015625)"/>
     </g>
    </g>
   </g>
   <g id="PolyCollection_1">
    <defs>
     <path id="m7e1e00cd9f" d="M 47.85279 -274.591665 
L 47.85279 -261.217545 
L 48.758943 -261.360174 
L 49.665097 -261.476336 
L 50.57125 -261.579413 
L 51.477404 -261.667874 
L 52.383557 -261.731795 
L 53.289711 -261.783288 
L 54.195864 -261.811139 
L 55.102018 -261.824762 
L 56.008171 -261.811815 
L 56.914325 -261.782918 
L 57.820478 -261.73171 
L 58.726632 -261.660865 
L 59.632785 -261.572291 
L 60.538939 -261.462775 
L 61.445092 -261.322517 
L 62.351246 -261.168272 
L 63.257399 -260.982161 
L 64.163553 -260.781195 
L 65.069706 -260.548248 
L 65.97586 -260.295404 
L 66.882013 -260.008514 
L 67.788167 -259.705496 
L 68.69432 -259.367147 
L 69.600474 -259.01438 
L 70.506627 -258.635509 
L 71.412781 -258.24728 
L 72.318934 -257.844265 
L 73.225088 -257.433168 
L 74.131241 -257.023852 
L 75.037395 -256.611177 
L 75.943548 -256.202757 
L 76.849702 -255.794791 
L 77.755855 -255.397261 
L 78.662009 -254.999824 
L 79.568162 -254.610577 
L 80.474316 -254.224303 
L 81.380469 -253.847339 
L 82.286623 -253.475113 
L 83.192776 -253.106725 
L 84.09893 -252.744687 
L 85.005083 -252.378713 
L 85.911237 -252.014702 
L 86.81739 -251.64931 
L 87.723544 -251.28136 
L 88.629697 -250.904421 
L 89.535851 -250.528478 
L 90.442004 -250.145069 
L 91.348158 -249.747777 
L 92.254311 -249.344925 
L 93.160465 -248.942788 
L 94.066618 -248.519348 
L 94.972771 -248.097684 
L 95.878925 -247.661834 
L 96.785078 -247.232916 
L 97.691232 -246.79833 
L 98.597385 -246.367564 
L 99.503539 -245.934056 
L 100.409692 -245.508258 
L 101.315846 -245.083592 
L 102.221999 -244.673204 
L 103.128153 -244.259214 
L 104.034306 -243.862832 
L 104.94046 -243.473912 
L 105.846613 -243.099264 
L 106.752767 -242.738339 
L 107.65892 -242.380181 
L 108.565074 -242.038903 
L 109.471227 -241.707671 
L 110.377381 -241.389424 
L 111.283534 -241.08041 
L 112.189688 -240.785857 
L 113.095841 -240.491461 
L 114.001995 -240.206066 
L 114.908148 -239.917547 
L 115.814302 -239.647211 
L 116.720455 -239.37925 
L 117.626609 -239.107999 
L 118.532762 -238.843245 
L 119.438916 -238.582161 
L 120.345069 -238.327687 
L 121.251223 -238.076724 
L 122.157376 -237.830704 
L 123.06353 -237.592223 
L 123.969683 -237.359593 
L 124.875837 -237.129156 
L 125.78199 -236.908216 
L 126.688144 -236.68835 
L 127.594297 -236.48117 
L 128.500451 -236.266415 
L 129.406604 -236.059213 
L 130.312758 -235.854635 
L 131.218911 -235.648507 
L 132.125065 -235.432142 
L 133.031218 -235.22245 
L 133.937372 -235.002116 
L 134.843525 -234.779258 
L 135.749679 -234.543996 
L 136.655832 -234.304654 
L 137.561986 -234.055832 
L 138.468139 -233.795149 
L 139.374293 -233.523044 
L 140.280446 -233.247406 
L 141.1866 -232.968016 
L 142.092753 -232.683183 
L 142.998907 -232.396068 
L 143.90506 -232.107186 
L 144.811214 -231.822481 
L 145.717367 -231.541193 
L 146.623521 -231.257085 
L 147.529674 -230.982149 
L 148.435828 -230.71701 
L 149.341981 -230.444882 
L 150.248135 -230.187633 
L 151.154288 -229.938205 
L 152.060442 -229.699832 
L 152.966595 -229.459149 
L 153.872749 -229.239445 
L 154.778902 -229.021063 
L 155.685056 -228.806895 
L 156.591209 -228.603213 
L 157.497363 -228.41348 
L 158.403516 -228.226226 
L 159.30967 -228.043598 
L 160.215823 -227.872087 
L 161.121977 -227.712531 
L 162.02813 -227.564244 
L 162.934284 -227.414388 
L 163.840437 -227.276936 
L 164.746591 -227.151033 
L 165.652744 -227.035574 
L 166.558898 -226.92148 
L 167.465051 -226.806859 
L 168.371205 -226.708245 
L 169.277358 -226.605856 
L 170.183512 -226.506001 
L 171.089665 -226.40936 
L 171.995819 -226.312184 
L 172.901972 -226.215507 
L 173.808126 -226.115361 
L 174.714279 -226.014605 
L 175.620433 -225.90492 
L 176.526586 -225.798099 
L 177.43274 -225.68058 
L 178.338893 -225.564052 
L 179.245047 -225.446496 
L 180.1512 -225.323037 
L 181.057354 -225.198552 
L 181.963507 -225.070766 
L 182.86966 -224.947006 
L 183.775814 -224.825597 
L 184.681967 -224.702806 
L 185.588121 -224.580021 
L 186.494274 -224.466193 
L 187.400428 -224.351539 
L 188.306581 -224.242473 
L 189.212735 -224.142403 
L 190.118888 -224.037871 
L 191.025042 -223.94277 
L 191.931195 -223.852388 
L 192.837349 -223.76831 
L 193.743502 -223.685376 
L 194.649656 -223.614343 
L 195.555809 -223.539736 
L 196.461963 -223.472977 
L 197.368116 -223.412535 
L 198.27427 -223.356148 
L 199.180423 -223.303795 
L 200.086577 -223.258893 
L 200.99273 -223.21334 
L 201.898884 -223.178348 
L 202.805037 -223.145433 
L 203.711191 -223.10952 
L 204.617344 -223.085237 
L 205.523498 -223.053205 
L 206.429651 -223.014946 
L 207.335805 -222.98193 
L 208.241958 -222.935991 
L 209.148112 -222.882055 
L 210.054265 -222.806382 
L 210.960419 -222.719115 
L 211.866572 -222.620477 
L 212.772726 -222.508358 
L 213.678879 -222.37513 
L 214.585033 -222.232418 
L 215.491186 -222.074766 
L 216.39734 -221.901156 
L 217.303493 -221.713379 
L 218.209647 -221.51412 
L 219.1158 -221.302931 
L 220.021954 -221.081284 
L 220.928107 -220.847503 
L 221.834261 -220.601875 
L 222.740414 -220.349537 
L 223.646568 -220.081714 
L 224.552721 -219.812174 
L 225.458875 -219.526985 
L 226.365028 -219.238347 
L 227.271182 -218.937617 
L 228.177335 -218.62871 
L 228.177335 -230.628715 
L 228.177335 -230.628715 
L 227.271182 -230.17822 
L 226.365028 -229.74152 
L 225.458875 -229.31579 
L 224.552721 -228.909239 
L 223.646568 -228.509348 
L 222.740414 -228.133649 
L 221.834261 -227.768939 
L 220.928107 -227.41993 
L 220.021954 -227.091757 
L 219.1158 -226.775718 
L 218.209647 -226.483623 
L 217.303493 -226.203455 
L 216.39734 -225.952751 
L 215.491186 -225.713966 
L 214.585033 -225.49788 
L 213.678879 -225.301231 
L 212.772726 -225.129795 
L 211.866572 -224.981718 
L 210.960419 -224.853864 
L 210.054265 -224.750864 
L 209.148112 -224.672943 
L 208.241958 -224.612265 
L 207.335805 -224.573069 
L 206.429651 -224.55129 
L 205.523498 -224.537752 
L 204.617344 -224.546174 
L 203.711191 -224.553356 
L 202.805037 -224.575876 
L 201.898884 -224.601393 
L 200.99273 -224.631577 
L 200.086577 -224.671426 
L 199.180423 -224.711926 
L 198.27427 -224.762955 
L 197.368116 -224.816692 
L 196.461963 -224.875364 
L 195.555809 -224.94345 
L 194.649656 -225.017173 
L 193.743502 -225.089976 
L 192.837349 -225.173351 
L 191.931195 -225.260078 
L 191.025042 -225.353985 
L 190.118888 -225.452162 
L 189.212735 -225.558888 
L 188.306581 -225.663334 
L 187.400428 -225.776763 
L 186.494274 -225.893594 
L 185.588121 -226.013499 
L 184.681967 -226.140178 
L 183.775814 -226.266851 
L 182.86966 -226.390413 
L 181.963507 -226.520611 
L 181.057354 -226.653527 
L 180.1512 -226.785248 
L 179.245047 -226.911254 
L 178.338893 -227.03642 
L 177.43274 -227.162615 
L 176.526586 -227.28557 
L 175.620433 -227.410234 
L 174.714279 -227.529786 
L 173.808126 -227.649278 
L 172.901972 -227.767132 
L 171.995819 -227.881713 
L 171.089665 -228.004786 
L 170.183512 -228.126144 
L 169.277358 -228.244291 
L 168.371205 -228.366643 
L 167.465051 -228.490525 
L 166.558898 -228.623121 
L 165.652744 -228.751748 
L 164.746591 -228.88126 
L 163.840437 -229.009315 
L 162.934284 -229.14605 
L 162.02813 -229.28836 
L 161.121977 -229.434485 
L 160.215823 -229.582826 
L 159.30967 -229.737192 
L 158.403516 -229.89842 
L 157.497363 -230.073002 
L 156.591209 -230.251848 
L 155.685056 -230.436971 
L 154.778902 -230.640823 
L 153.872749 -230.844958 
L 152.966595 -231.063502 
L 152.060442 -231.292531 
L 151.154288 -231.523871 
L 150.248135 -231.766629 
L 149.341981 -232.019547 
L 148.435828 -232.277811 
L 147.529674 -232.538569 
L 146.623521 -232.80751 
L 145.717367 -233.080765 
L 144.811214 -233.352344 
L 143.90506 -233.636237 
L 142.998907 -233.913707 
L 142.092753 -234.183953 
L 141.1866 -234.465472 
L 140.280446 -234.745691 
L 139.374293 -235.018425 
L 138.468139 -235.283456 
L 137.561986 -235.559908 
L 136.655832 -235.832487 
L 135.749679 -236.098819 
L 134.843525 -236.369226 
L 133.937372 -236.631812 
L 133.031218 -236.890182 
L 132.125065 -237.147953 
L 131.218911 -237.405795 
L 130.312758 -237.655894 
L 129.406604 -237.896309 
L 128.500451 -238.127354 
L 127.594297 -238.364332 
L 126.688144 -238.59315 
L 125.78199 -238.822772 
L 124.875837 -239.035585 
L 123.969683 -239.25688 
L 123.06353 -239.473735 
L 122.157376 -239.695978 
L 121.251223 -239.915173 
L 120.345069 -240.136171 
L 119.438916 -240.367144 
L 118.532762 -240.607235 
L 117.626609 -240.857141 
L 116.720455 -241.116282 
L 115.814302 -241.389952 
L 114.908148 -241.663492 
L 114.001995 -241.968293 
L 113.095841 -242.269476 
L 112.189688 -242.595371 
L 111.283534 -242.925602 
L 110.377381 -243.259352 
L 109.471227 -243.61084 
L 108.565074 -243.960577 
L 107.65892 -244.322745 
L 106.752767 -244.68601 
L 105.846613 -245.057747 
L 104.94046 -245.426996 
L 104.034306 -245.795461 
L 103.128153 -246.176686 
L 102.221999 -246.556038 
L 101.315846 -246.934497 
L 100.409692 -247.325646 
L 99.503539 -247.708925 
L 98.597385 -248.093478 
L 97.691232 -248.487519 
L 96.785078 -248.873246 
L 95.878925 -249.264638 
L 94.972771 -249.658091 
L 94.066618 -250.054481 
L 93.160465 -250.446866 
L 92.254311 -250.84031 
L 91.348158 -251.228554 
L 90.442004 -251.617861 
L 89.535851 -251.994085 
L 88.629697 -252.375521 
L 87.723544 -252.753725 
L 86.81739 -253.129668 
L 85.911237 -253.505927 
L 85.005083 -253.87907 
L 84.09893 -254.256996 
L 83.192776 -254.632118 
L 82.286623 -255.00538 
L 81.380469 -255.39054 
L 80.474316 -255.768706 
L 79.568162 -256.157793 
L 78.662009 -256.550648 
L 77.755855 -256.942065 
L 76.849702 -257.331133 
L 75.943548 -257.727743 
L 75.037395 -258.123899 
L 74.131241 -258.52255 
L 73.225088 -258.922308 
L 72.318934 -259.322525 
L 71.412781 -259.733081 
L 70.506627 -260.144942 
L 69.600474 -260.568404 
L 68.69432 -261.00672 
L 67.788167 -261.461723 
L 66.882013 -261.934066 
L 65.97586 -262.429278 
L 65.069706 -262.933819 
L 64.163553 -263.460499 
L 63.257399 -263.996687 
L 62.351246 -264.556725 
L 61.445092 -265.121657 
L 60.538939 -265.707315 
L 59.632785 -266.29226 
L 58.726632 -266.891394 
L 57.820478 -267.501518 
L 56.914325 -268.1178 
L 56.008171 -268.7429 
L 55.102018 -269.377211 
L 54.195864 -270.011134 
L 53.289711 -270.654775 
L 52.383557 -271.299584 
L 51.477404 -271.954578 
L 50.57125 -272.607154 
L 49.665097 -273.265339 
L 48.758943 -273.932124 
L 47.85279 -274.591665 
z
" style="stroke: #e74c3c; stroke-opacity: 0.2"/>
    </defs>
    <g clip-path="url(#p9eb74aea52)">
     <use xlink:href="#m7e1e00cd9f" x="0" y="296.789812" style="fill: #e74c3c; fill-opacity: 0.2; stroke: #e74c3c; stroke-opacity: 0.2"/>
    </g>
   </g>
   <g id="line2d_17">
    <path d="M 38.836562 75.376336 
L 237.193562 75.376336 
" clip-path="url(#p9eb74aea52)" style="fill: none; stroke-dasharray: 3.7,1.6; stroke-dashoffset: 0; stroke: #000000; stroke-opacity: 0.7"/>
   </g>
   <g id="patch_3">
    <path d="M 38.836562 80.95925 
L 38.836562 19.4 
" style="fill: none; stroke: #000000; stroke-width: 0.5; stroke-linejoin: miter; stroke-linecap: square"/>
   </g>
   <g id="patch_4">
    <path d="M 237.193562 80.95925 
L 237.193562 19.4 
" style="fill: none; stroke: #000000; stroke-width: 0.5; stroke-linejoin: miter; stroke-linecap: square"/>
   </g>
   <g id="patch_5">
    <path d="M 38.836562 80.95925 
L 237.193562 80.95925 
" style="fill: none; stroke: #000000; stroke-width: 0.5; stroke-linejoin: miter; stroke-linecap: square"/>
   </g>
   <g id="patch_6">
    <path d="M 38.836562 19.4 
L 237.193562 19.4 
" style="fill: none; stroke: #000000; stroke-width: 0.5; stroke-linejoin: miter; stroke-linecap: square"/>
   </g>
   <g id="line2d_18">
    <path d="M 47.85279 28.885208 
L 52.383557 30.274123 
L 56.914325 31.839454 
L 62.351246 33.927314 
L 70.506627 37.399587 
L 84.09893 43.288971 
L 93.160465 47.094985 
L 105.846613 52.711307 
L 110.377381 54.465424 
L 114.908148 55.999293 
L 121.251223 57.793864 
L 140.280446 62.793263 
L 151.154288 66.058775 
L 156.591209 67.362282 
L 162.02813 68.363511 
L 167.465051 69.14112 
L 183.775814 71.243588 
L 191.025042 72.141435 
L 197.368116 72.675199 
L 203.711191 72.958375 
L 210.960419 73.003323 
L 218.209647 72.790941 
L 225.458875 72.368425 
L 228.177335 72.1611 
L 228.177335 72.1611 
" clip-path="url(#p9eb74aea52)" style="fill: none; stroke: #e74c3c; stroke-width: 2; stroke-linecap: square"/>
   </g>
   <g id="PathCollection_1">
    <defs>
     <path id="m5dd72853e5" d="M 0 2.236068 
C 0.593012 2.236068 1.161816 2.000462 1.581139 1.581139 
C 2.000462 1.161816 2.236068 0.593012 2.236068 0 
C 2.236068 -0.593012 2.000462 -1.161816 1.581139 -1.581139 
C 1.161816 -2.000462 0.593012 -2.236068 0 -2.236068 
C -0.593012 -2.236068 -1.161816 -2.000462 -1.581139 -1.581139 
C -2.000462 -1.161816 -2.236068 -0.593012 -2.236068 0 
C -2.236068 0.593012 -2.000462 1.161816 -1.581139 1.581139 
C -1.161816 2.000462 -0.593012 2.236068 0 2.236068 
z
" style="stroke: #3498db; stroke-opacity: 0.8"/>
    </defs>
    <g clip-path="url(#p9eb74aea52)">
     <use xlink:href="#m5dd72853e5" x="200.534369" y="72.820841" style="fill: #a9bbf1; fill-opacity: 0.8; stroke: #3498db; stroke-opacity: 0.8"/>
     <use xlink:href="#m5dd72853e5" x="202.956122" y="72.931266" style="fill: #a9bbf1; fill-opacity: 0.8; stroke: #3498db; stroke-opacity: 0.8"/>
     <use xlink:href="#m5dd72853e5" x="204.896177" y="73.013974" style="fill: #a9bbf1; fill-opacity: 0.8; stroke: #3498db; stroke-opacity: 0.8"/>
     <use xlink:href="#m5dd72853e5" x="206.35836" y="73.117243" style="fill: #a9bbf1; fill-opacity: 0.8; stroke: #3498db; stroke-opacity: 0.8"/>
     <use xlink:href="#m5dd72853e5" x="207.370657" y="73.15211" style="fill: #a9bbf1; fill-opacity: 0.8; stroke: #3498db; stroke-opacity: 0.8"/>
     <use xlink:href="#m5dd72853e5" x="68.659468" y="36.821999" style="fill: #a9bbf1; fill-opacity: 0.8; stroke: #3498db; stroke-opacity: 0.8"/>
     <use xlink:href="#m5dd72853e5" x="78.256052" y="41.325092" style="fill: #a9bbf1; fill-opacity: 0.8; stroke: #3498db; stroke-opacity: 0.8"/>
     <use xlink:href="#m5dd72853e5" x="95.600154" y="48.769616" style="fill: #a9bbf1; fill-opacity: 0.8; stroke: #3498db; stroke-opacity: 0.8"/>
     <use xlink:href="#m5dd72853e5" x="116.109567" y="56.4297" style="fill: #a9bbf1; fill-opacity: 0.8; stroke: #3498db; stroke-opacity: 0.8"/>
     <use xlink:href="#m5dd72853e5" x="136.67923" y="62.615951" style="fill: #a9bbf1; fill-opacity: 0.8; stroke: #3498db; stroke-opacity: 0.8"/>
     <use xlink:href="#m5dd72853e5" x="155.733649" y="67.170746" style="fill: #a9bbf1; fill-opacity: 0.8; stroke: #3498db; stroke-opacity: 0.8"/>
     <use xlink:href="#m5dd72853e5" x="171.530551" y="69.817482" style="fill: #a9bbf1; fill-opacity: 0.8; stroke: #3498db; stroke-opacity: 0.8"/>
     <use xlink:href="#m5dd72853e5" x="183.171441" y="71.579925" style="fill: #a9bbf1; fill-opacity: 0.8; stroke: #3498db; stroke-opacity: 0.8"/>
     <use xlink:href="#m5dd72853e5" x="191.315503" y="72.140485" style="fill: #a9bbf1; fill-opacity: 0.8; stroke: #3498db; stroke-opacity: 0.8"/>
     <use xlink:href="#m5dd72853e5" x="197.737565" y="72.700442" style="fill: #a9bbf1; fill-opacity: 0.8; stroke: #3498db; stroke-opacity: 0.8"/>
     <use xlink:href="#m5dd72853e5" x="86.270766" y="44.902301" style="fill: #a9bbf1; fill-opacity: 0.8; stroke: #3498db; stroke-opacity: 0.8"/>
     <use xlink:href="#m5dd72853e5" x="178.258334" y="69.873245" style="fill: #a9bbf1; fill-opacity: 0.8; stroke: #3498db; stroke-opacity: 0.8"/>
     <use xlink:href="#m5dd72853e5" x="146.506971" y="65.032566" style="fill: #a9bbf1; fill-opacity: 0.8; stroke: #3498db; stroke-opacity: 0.8"/>
     <use xlink:href="#m5dd72853e5" x="137.70661" y="60.804113" style="fill: #a9bbf1; fill-opacity: 0.8; stroke: #3498db; stroke-opacity: 0.8"/>
     <use xlink:href="#m5dd72853e5" x="187.56083" y="71.768355" style="fill: #a9bbf1; fill-opacity: 0.8; stroke: #3498db; stroke-opacity: 0.8"/>
     <use xlink:href="#m5dd72853e5" x="71.842964" y="37.39311" style="fill: #a9bbf1; fill-opacity: 0.8; stroke: #3498db; stroke-opacity: 0.8"/>
    </g>
   </g>
   <g id="PathCollection_2">
    <defs>
     <path id="m81bbc33b04" d="M 0 2.738613 
C 0.726289 2.738613 1.422928 2.450055 1.936492 1.936492 
C 2.450055 1.422928 2.738613 0.726289 2.738613 0 
C 2.738613 -0.726289 2.450055 -1.422928 1.936492 -1.936492 
C 1.422928 -2.450055 0.726289 -2.738613 0 -2.738613 
C -0.726289 -2.738613 -1.422928 -2.450055 -1.936492 -1.936492 
C -2.450055 -1.422928 -2.738613 -0.726289 -2.738613 0 
C -2.738613 0.726289 -2.450055 1.422928 -1.936492 1.936492 
C -1.422928 2.450055 -0.726289 2.738613 0 2.738613 
z
" style="stroke: #d62728; stroke-opacity: 0.8"/>
    </defs>
    <g clip-path="url(#p9eb74aea52)">
     <use xlink:href="#m81bbc33b04" x="96.610775" y="48.655966" style="fill: #ffffff; fill-opacity: 0.8; stroke: #d62728; stroke-opacity: 0.8"/>
     <use xlink:href="#m81bbc33b04" x="71.35969" y="37.778699" style="fill: #ffffff; fill-opacity: 0.8; stroke: #d62728; stroke-opacity: 0.8"/>
     <use xlink:href="#m81bbc33b04" x="70.067873" y="37.204882" style="fill: #ffffff; fill-opacity: 0.8; stroke: #d62728; stroke-opacity: 0.8"/>
     <use xlink:href="#m81bbc33b04" x="86.899786" y="44.434701" style="fill: #ffffff; fill-opacity: 0.8; stroke: #d62728; stroke-opacity: 0.8"/>
     <use xlink:href="#m81bbc33b04" x="112.145576" y="55.087558" style="fill: #ffffff; fill-opacity: 0.8; stroke: #d62728; stroke-opacity: 0.8"/>
     <use xlink:href="#m81bbc33b04" x="137.322886" y="61.912325" style="fill: #ffffff; fill-opacity: 0.8; stroke: #d62728; stroke-opacity: 0.8"/>
     <use xlink:href="#m81bbc33b04" x="157.412006" y="67.531348" style="fill: #ffffff; fill-opacity: 0.8; stroke: #d62728; stroke-opacity: 0.8"/>
     <use xlink:href="#m81bbc33b04" x="170.946185" y="69.566903" style="fill: #ffffff; fill-opacity: 0.8; stroke: #d62728; stroke-opacity: 0.8"/>
     <use xlink:href="#m81bbc33b04" x="179.808165" y="70.689036" style="fill: #ffffff; fill-opacity: 0.8; stroke: #d62728; stroke-opacity: 0.8"/>
     <use xlink:href="#m81bbc33b04" x="186.311446" y="71.584179" style="fill: #ffffff; fill-opacity: 0.8; stroke: #d62728; stroke-opacity: 0.8"/>
     <use xlink:href="#m81bbc33b04" x="190.777502" y="72.115362" style="fill: #ffffff; fill-opacity: 0.8; stroke: #d62728; stroke-opacity: 0.8"/>
    </g>
   </g>
  </g>
  <g id="axes_2">
   <g id="patch_7">
    <path d="M 38.836562 173.298125 
L 237.193562 173.298125 
L 237.193562 111.738875 
L 38.836562 111.738875 
z
" style="fill: #ffffff"/>
   </g>
   <g id="matplotlib.axis_3">
    <g id="xtick_6">
     <g id="line2d_19">
      <path d="M 54.085414 173.298125 
L 54.085414 111.738875 
" clip-path="url(#p43feaeae30)" style="fill: none; stroke-dasharray: 1.85,0.8; stroke-dashoffset: 0; stroke: #b0b0b0; stroke-opacity: 0.5; stroke-width: 0.5"/>
     </g>
     <g id="line2d_20">
      <g>
       <use xlink:href="#m69504f7d5f" x="54.085414" y="173.298125" style="stroke: #000000; stroke-width: 0.5"/>
      </g>
     </g>
     <g id="text_11">
      <!-- −8 -->
      <g transform="translate(48.188539 182.876875) scale(0.08 -0.08)">
       <defs>
        <path id="DejaVuSerif-38" d="M 2981 1275 
Q 2981 1775 2732 2051 
Q 2484 2328 2034 2328 
Q 1584 2328 1336 2051 
Q 1088 1775 1088 1275 
Q 1088 772 1336 495 
Q 1584 219 2034 219 
Q 2484 219 2732 495 
Q 2981 772 2981 1275 
z
M 2853 3541 
Q 2853 3966 2637 4203 
Q 2422 4441 2034 4441 
Q 1650 4441 1433 4203 
Q 1216 3966 1216 3541 
Q 1216 3113 1433 2875 
Q 1650 2638 2034 2638 
Q 2422 2638 2637 2875 
Q 2853 3113 2853 3541 
z
M 2516 2484 
Q 3047 2413 3344 2092 
Q 3641 1772 3641 1275 
Q 3641 619 3225 264 
Q 2809 -91 2034 -91 
Q 1263 -91 845 264 
Q 428 619 428 1275 
Q 428 1772 725 2092 
Q 1022 2413 1556 2484 
Q 1084 2569 832 2842 
Q 581 3116 581 3541 
Q 581 4103 968 4426 
Q 1356 4750 2034 4750 
Q 2713 4750 3100 4426 
Q 3488 4103 3488 3541 
Q 3488 3116 3236 2842 
Q 2984 2569 2516 2484 
z
" transform="scale(0.015625)"/>
       </defs>
       <use xlink:href="#DejaVuSerif-2212"/>
       <use xlink:href="#DejaVuSerif-38" x="83.789062"/>
      </g>
     </g>
    </g>
    <g id="xtick_7">
     <g id="line2d_21">
      <path d="M 92.369982 173.298125 
L 92.369982 111.738875 
" clip-path="url(#p43feaeae30)" style="fill: none; stroke-dasharray: 1.85,0.8; stroke-dashoffset: 0; stroke: #b0b0b0; stroke-opacity: 0.5; stroke-width: 0.5"/>
     </g>
     <g id="line2d_22">
      <g>
       <use xlink:href="#m69504f7d5f" x="92.369982" y="173.298125" style="stroke: #000000; stroke-width: 0.5"/>
      </g>
     </g>
     <g id="text_12">
      <!-- −6 -->
      <g transform="translate(86.473107 182.876875) scale(0.08 -0.08)">
       <defs>
        <path id="DejaVuSerif-36" d="M 2094 219 
Q 2534 219 2771 542 
Q 3009 866 3009 1472 
Q 3009 2078 2771 2401 
Q 2534 2725 2094 2725 
Q 1647 2725 1412 2412 
Q 1178 2100 1178 1509 
Q 1178 888 1415 553 
Q 1653 219 2094 219 
z
M 1075 2569 
Q 1288 2803 1556 2918 
Q 1825 3034 2163 3034 
Q 2859 3034 3264 2615 
Q 3669 2197 3669 1472 
Q 3669 763 3233 336 
Q 2797 -91 2069 -91 
Q 1278 -91 853 498 
Q 428 1088 428 2181 
Q 428 3406 931 4078 
Q 1434 4750 2350 4750 
Q 2597 4750 2869 4703 
Q 3141 4656 3425 4563 
L 3425 3794 
L 3072 3794 
Q 3034 4109 2831 4275 
Q 2628 4441 2284 4441 
Q 1678 4441 1381 3981 
Q 1084 3522 1075 2569 
z
" transform="scale(0.015625)"/>
       </defs>
       <use xlink:href="#DejaVuSerif-2212"/>
       <use xlink:href="#DejaVuSerif-36" x="83.789062"/>
      </g>
     </g>
    </g>
    <g id="xtick_8">
     <g id="line2d_23">
      <path d="M 130.65455 173.298125 
L 130.65455 111.738875 
" clip-path="url(#p43feaeae30)" style="fill: none; stroke-dasharray: 1.85,0.8; stroke-dashoffset: 0; stroke: #b0b0b0; stroke-opacity: 0.5; stroke-width: 0.5"/>
     </g>
     <g id="line2d_24">
      <g>
       <use xlink:href="#m69504f7d5f" x="130.65455" y="173.298125" style="stroke: #000000; stroke-width: 0.5"/>
      </g>
     </g>
     <g id="text_13">
      <!-- −4 -->
      <g transform="translate(124.757675 182.876875) scale(0.08 -0.08)">
       <use xlink:href="#DejaVuSerif-2212"/>
       <use xlink:href="#DejaVuSerif-34" x="83.789062"/>
      </g>
     </g>
    </g>
    <g id="xtick_9">
     <g id="line2d_25">
      <path d="M 168.939118 173.298125 
L 168.939118 111.738875 
" clip-path="url(#p43feaeae30)" style="fill: none; stroke-dasharray: 1.85,0.8; stroke-dashoffset: 0; stroke: #b0b0b0; stroke-opacity: 0.5; stroke-width: 0.5"/>
     </g>
     <g id="line2d_26">
      <g>
       <use xlink:href="#m69504f7d5f" x="168.939118" y="173.298125" style="stroke: #000000; stroke-width: 0.5"/>
      </g>
     </g>
     <g id="text_14">
      <!-- −2 -->
      <g transform="translate(163.042243 182.876875) scale(0.08 -0.08)">
       <use xlink:href="#DejaVuSerif-2212"/>
       <use xlink:href="#DejaVuSerif-32" x="83.789062"/>
      </g>
     </g>
    </g>
    <g id="xtick_10">
     <g id="line2d_27">
      <path d="M 207.223686 173.298125 
L 207.223686 111.738875 
" clip-path="url(#p43feaeae30)" style="fill: none; stroke-dasharray: 1.85,0.8; stroke-dashoffset: 0; stroke: #b0b0b0; stroke-opacity: 0.5; stroke-width: 0.5"/>
     </g>
     <g id="line2d_28">
      <g>
       <use xlink:href="#m69504f7d5f" x="207.223686" y="173.298125" style="stroke: #000000; stroke-width: 0.5"/>
      </g>
     </g>
     <g id="text_15">
      <!-- 0 -->
      <g transform="translate(204.678686 182.876875) scale(0.08 -0.08)">
       <use xlink:href="#DejaVuSerif-30"/>
      </g>
     </g>
    </g>
    <g id="text_16">
     <!-- $v_{y}$ [m/s] -->
     <g transform="translate(121.365062 195.380625) scale(0.09 -0.09)">
      <defs>
       <path id="STIXGeneral-Italic-79" d="M 1555 1190 
L 1690 486 
Q 2118 1190 2294 1558 
Q 2470 1926 2470 2131 
Q 2470 2234 2304 2336 
Q 2138 2445 2138 2586 
Q 2138 2688 2211 2755 
Q 2285 2822 2394 2822 
Q 2534 2822 2630 2720 
Q 2726 2618 2726 2470 
Q 2726 1914 1888 518 
Q 1389 -307 918 -812 
Q 448 -1318 173 -1318 
Q 26 -1318 -64 -1241 
Q -154 -1165 -154 -1043 
Q -154 -934 -80 -860 
Q -6 -787 96 -787 
Q 218 -787 314 -876 
Q 410 -966 486 -966 
Q 602 -966 794 -755 
Q 877 -672 1040 -457 
Q 1203 -243 1248 -173 
Q 1312 -45 1312 51 
Q 1312 243 1113 1046 
Q 915 1850 787 2176 
Q 698 2413 592 2499 
Q 486 2586 294 2586 
Q 192 2586 96 2560 
L 96 2669 
Q 237 2694 301 2707 
Q 563 2758 986 2822 
L 1011 2822 
Q 1082 2822 1277 2227 
Q 1472 1632 1555 1190 
z
" transform="scale(0.015625)"/>
      </defs>
      <use xlink:href="#STIXGeneral-Italic-76" transform="translate(0 0.015625)"/>
      <use xlink:href="#STIXGeneral-Italic-79" transform="translate(44.399994 -13.2125) scale(0.7)"/>
      <use xlink:href="#DejaVuSerif-20" transform="translate(79.889365 0.015625)"/>
      <use xlink:href="#DejaVuSerif-5b" transform="translate(111.676474 0.015625)"/>
      <use xlink:href="#DejaVuSerif-6d" transform="translate(150.690146 0.015625)"/>
      <use xlink:href="#DejaVuSerif-2f" transform="translate(245.514365 0.015625)"/>
      <use xlink:href="#DejaVuSerif-73" transform="translate(279.205771 0.015625)"/>
      <use xlink:href="#DejaVuSerif-5d" transform="translate(330.52413 0.015625)"/>
     </g>
    </g>
   </g>
   <g id="matplotlib.axis_4">
    <g id="ytick_4">
     <g id="line2d_29">
      <path d="M 38.836562 164.452365 
L 237.193562 164.452365 
" clip-path="url(#p43feaeae30)" style="fill: none; stroke-dasharray: 1.85,0.8; stroke-dashoffset: 0; stroke: #b0b0b0; stroke-opacity: 0.5; stroke-width: 0.5"/>
     </g>
     <g id="line2d_30">
      <g>
       <use xlink:href="#mf93d2d9a17" x="38.836562" y="164.452365" style="stroke: #000000; stroke-width: 0.5"/>
      </g>
     </g>
     <g id="text_17">
      <!-- 0.0 -->
      <g transform="translate(22.614062 167.49174) scale(0.08 -0.08)">
       <use xlink:href="#DejaVuSerif-30"/>
       <use xlink:href="#DejaVuSerif-2e" x="63.623047"/>
       <use xlink:href="#DejaVuSerif-30" x="95.410156"/>
      </g>
     </g>
    </g>
    <g id="ytick_5">
     <g id="line2d_31">
      <path d="M 38.836562 132.172515 
L 237.193562 132.172515 
" clip-path="url(#p43feaeae30)" style="fill: none; stroke-dasharray: 1.85,0.8; stroke-dashoffset: 0; stroke: #b0b0b0; stroke-opacity: 0.5; stroke-width: 0.5"/>
     </g>
     <g id="line2d_32">
      <g>
       <use xlink:href="#mf93d2d9a17" x="38.836562" y="132.172515" style="stroke: #000000; stroke-width: 0.5"/>
      </g>
     </g>
     <g id="text_18">
      <!-- 5.0 -->
      <g transform="translate(22.614062 135.21189) scale(0.08 -0.08)">
       <defs>
        <path id="DejaVuSerif-35" d="M 3219 4666 
L 3219 4153 
L 1081 4153 
L 1081 2816 
Q 1244 2928 1461 2984 
Q 1678 3041 1947 3041 
Q 2703 3041 3140 2622 
Q 3578 2203 3578 1478 
Q 3578 738 3136 323 
Q 2694 -91 1894 -91 
Q 1572 -91 1234 -12 
Q 897 66 544 225 
L 544 1131 
L 897 1131 
Q 925 688 1179 453 
Q 1434 219 1894 219 
Q 2388 219 2653 544 
Q 2919 869 2919 1478 
Q 2919 2084 2655 2407 
Q 2391 2731 1894 2731 
Q 1613 2731 1398 2631 
Q 1184 2531 1019 2322 
L 750 2322 
L 750 4666 
L 3219 4666 
z
" transform="scale(0.015625)"/>
       </defs>
       <use xlink:href="#DejaVuSerif-35"/>
       <use xlink:href="#DejaVuSerif-2e" x="63.623047"/>
       <use xlink:href="#DejaVuSerif-30" x="95.410156"/>
      </g>
     </g>
    </g>
    <g id="text_19">
     <!-- $\Delta a_{y}$ [m/s²] -->
     <g transform="translate(16.094062 164.4785) rotate(-90) scale(0.09 -0.09)">
      <use xlink:href="#STIXGeneral-Regular-394" transform="translate(0 0.015625)"/>
      <use xlink:href="#STIXGeneral-Italic-61" transform="translate(72.199982 0.015625)"/>
      <use xlink:href="#STIXGeneral-Italic-79" transform="translate(122.299973 -13.2125) scale(0.7)"/>
      <use xlink:href="#DejaVuSerif-20" transform="translate(157.789343 0.015625)"/>
      <use xlink:href="#DejaVuSerif-5b" transform="translate(189.576453 0.015625)"/>
      <use xlink:href="#DejaVuSerif-6d" transform="translate(228.590125 0.015625)"/>
      <use xlink:href="#DejaVuSerif-2f" transform="translate(323.414343 0.015625)"/>
      <use xlink:href="#DejaVuSerif-73" transform="translate(357.10575 0.015625)"/>
      <use xlink:href="#DejaVuSerif-b2" transform="translate(408.424109 0.015625)"/>
      <use xlink:href="#DejaVuSerif-5d" transform="translate(448.512 0.015625)"/>
     </g>
    </g>
   </g>
   <g id="PolyCollection_2">
    <defs>
     <path id="m7fa87455d0" d="M 47.85279 -182.25279 
L 47.85279 -175.28448 
L 48.758943 -175.029853 
L 49.665097 -174.768009 
L 50.57125 -174.501573 
L 51.477404 -174.229219 
L 52.383557 -173.952415 
L 53.289711 -173.668708 
L 54.195864 -173.379596 
L 55.102018 -173.084281 
L 56.008171 -172.7852 
L 56.914325 -172.478378 
L 57.820478 -172.167836 
L 58.726632 -171.851255 
L 59.632785 -171.528871 
L 60.538939 -171.199425 
L 61.445092 -170.86473 
L 62.351246 -170.527655 
L 63.257399 -170.181253 
L 64.163553 -169.831834 
L 65.069706 -169.478616 
L 65.97586 -169.118183 
L 66.882013 -168.752968 
L 67.788167 -168.382579 
L 68.69432 -168.00981 
L 69.600474 -167.632992 
L 70.506627 -167.254343 
L 71.412781 -166.869572 
L 72.318934 -166.4833 
L 73.225088 -166.09469 
L 74.131241 -165.703933 
L 75.037395 -165.311179 
L 75.943548 -164.914509 
L 76.849702 -164.518045 
L 77.755855 -164.121396 
L 78.662009 -163.722617 
L 79.568162 -163.324316 
L 80.474316 -162.926559 
L 81.380469 -162.529833 
L 82.286623 -162.131812 
L 83.192776 -161.73408 
L 84.09893 -161.337702 
L 85.005083 -160.943707 
L 85.911237 -160.550789 
L 86.81739 -160.159534 
L 87.723544 -159.768427 
L 88.629697 -159.378585 
L 89.535851 -158.991162 
L 90.442004 -158.607129 
L 91.348158 -158.22333 
L 92.254311 -157.843088 
L 93.160465 -157.46425 
L 94.066618 -157.088233 
L 94.972771 -156.714573 
L 95.878925 -156.345758 
L 96.785078 -155.974494 
L 97.691232 -155.609378 
L 98.597385 -155.246203 
L 99.503539 -154.886463 
L 100.409692 -154.52854 
L 101.315846 -154.17166 
L 102.221999 -153.820284 
L 103.128153 -153.470663 
L 104.034306 -153.12513 
L 104.94046 -152.781128 
L 105.846613 -152.443459 
L 106.752767 -152.10419 
L 107.65892 -151.768765 
L 108.565074 -151.437863 
L 109.471227 -151.109225 
L 110.377381 -150.78331 
L 111.283534 -150.45959 
L 112.189688 -150.139114 
L 113.095841 -149.821954 
L 114.001995 -149.507499 
L 114.908148 -149.194732 
L 115.814302 -148.887059 
L 116.720455 -148.580121 
L 117.626609 -148.278404 
L 118.532762 -147.977876 
L 119.438916 -147.678608 
L 120.345069 -147.384403 
L 121.251223 -147.090654 
L 122.157376 -146.801352 
L 123.06353 -146.513294 
L 123.969683 -146.227448 
L 124.875837 -145.945538 
L 125.78199 -145.66279 
L 126.688144 -145.383838 
L 127.594297 -145.108651 
L 128.500451 -144.833263 
L 129.406604 -144.561812 
L 130.312758 -144.291231 
L 131.218911 -144.022406 
L 132.125065 -143.755489 
L 133.031218 -143.493401 
L 133.937372 -143.230558 
L 134.843525 -142.971455 
L 135.749679 -142.71303 
L 136.655832 -142.457582 
L 137.561986 -142.202629 
L 138.468139 -141.951111 
L 139.374293 -141.701645 
L 140.280446 -141.453726 
L 141.1866 -141.207495 
L 142.092753 -140.962897 
L 142.998907 -140.723107 
L 143.90506 -140.48206 
L 144.811214 -140.246934 
L 145.717367 -140.010602 
L 146.623521 -139.777929 
L 147.529674 -139.548578 
L 148.435828 -139.319087 
L 149.341981 -139.09339 
L 150.248135 -138.870355 
L 151.154288 -138.649512 
L 152.060442 -138.430444 
L 152.966595 -138.213534 
L 153.872749 -137.999598 
L 154.778902 -137.788534 
L 155.685056 -137.579644 
L 156.591209 -137.372338 
L 157.497363 -137.168513 
L 158.403516 -136.965731 
L 159.30967 -136.766917 
L 160.215823 -136.569582 
L 161.121977 -136.37451 
L 162.02813 -136.182833 
L 162.934284 -135.993228 
L 163.840437 -135.806688 
L 164.746591 -135.620872 
L 165.652744 -135.439296 
L 166.558898 -135.260449 
L 167.465051 -135.082978 
L 168.371205 -134.908572 
L 169.277358 -134.737251 
L 170.183512 -134.567602 
L 171.089665 -134.401716 
L 171.995819 -134.237797 
L 172.901972 -134.076224 
L 173.808126 -133.918781 
L 174.714279 -133.762478 
L 175.620433 -133.609727 
L 176.526586 -133.460307 
L 177.43274 -133.31251 
L 178.338893 -133.167354 
L 179.245047 -133.025776 
L 180.1512 -132.885976 
L 181.057354 -132.74895 
L 181.963507 -132.615801 
L 182.86966 -132.4833 
L 183.775814 -132.355239 
L 184.681967 -132.228849 
L 185.588121 -132.104798 
L 186.494274 -131.983599 
L 187.400428 -131.864007 
L 188.306581 -131.747156 
L 189.212735 -131.630806 
L 190.118888 -131.517414 
L 191.025042 -131.406485 
L 191.931195 -131.29592 
L 192.837349 -131.188072 
L 193.743502 -131.080278 
L 194.649656 -130.97344 
L 195.555809 -130.868813 
L 196.461963 -130.762829 
L 197.368116 -130.658328 
L 198.27427 -130.554191 
L 199.180423 -130.449578 
L 200.086577 -130.344138 
L 200.99273 -130.239177 
L 201.898884 -130.131978 
L 202.805037 -130.025402 
L 203.711191 -129.916458 
L 204.617344 -129.805442 
L 205.523498 -129.694509 
L 206.429651 -129.580658 
L 207.335805 -129.46566 
L 208.241958 -129.348936 
L 209.148112 -129.229556 
L 210.054265 -129.108254 
L 210.960419 -128.985059 
L 211.866572 -128.859789 
L 212.772726 -128.732253 
L 213.678879 -128.604284 
L 214.585033 -128.471659 
L 215.491186 -128.339107 
L 216.39734 -128.203416 
L 217.303493 -128.066779 
L 218.209647 -127.926875 
L 219.1158 -127.786205 
L 220.021954 -127.644015 
L 220.928107 -127.499047 
L 221.834261 -127.353133 
L 222.740414 -127.205654 
L 223.646568 -127.05643 
L 224.552721 -126.905903 
L 225.458875 -126.753466 
L 226.365028 -126.601101 
L 227.271182 -126.445952 
L 228.177335 -126.289835 
L 228.177335 -134.680216 
L 228.177335 -134.680216 
L 227.271182 -134.563142 
L 226.365028 -134.450586 
L 225.458875 -134.342586 
L 224.552721 -134.240432 
L 223.646568 -134.143738 
L 222.740414 -134.051895 
L 221.834261 -133.965346 
L 220.928107 -133.884504 
L 220.021954 -133.809339 
L 219.1158 -133.739911 
L 218.209647 -133.676144 
L 217.303493 -133.618467 
L 216.39734 -133.566423 
L 215.491186 -133.520648 
L 214.585033 -133.480971 
L 213.678879 -133.44832 
L 212.772726 -133.419732 
L 211.866572 -133.399268 
L 210.960419 -133.385803 
L 210.054265 -133.37737 
L 209.148112 -133.376155 
L 208.241958 -133.381593 
L 207.335805 -133.392646 
L 206.429651 -133.410749 
L 205.523498 -133.435322 
L 204.617344 -133.464589 
L 203.711191 -133.502646 
L 202.805037 -133.545141 
L 201.898884 -133.594145 
L 200.99273 -133.64785 
L 200.086577 -133.709117 
L 199.180423 -133.774637 
L 198.27427 -133.845126 
L 197.368116 -133.91964 
L 196.461963 -134.001479 
L 195.555809 -134.086569 
L 194.649656 -134.175973 
L 193.743502 -134.269673 
L 192.837349 -134.367741 
L 191.931195 -134.469305 
L 191.025042 -134.57466 
L 190.118888 -134.683199 
L 189.212735 -134.796374 
L 188.306581 -134.912506 
L 187.400428 -135.031096 
L 186.494274 -135.15286 
L 185.588121 -135.277749 
L 184.681967 -135.405702 
L 183.775814 -135.53664 
L 182.86966 -135.669457 
L 181.963507 -135.806706 
L 181.057354 -135.945674 
L 180.1512 -136.087864 
L 179.245047 -136.232604 
L 178.338893 -136.379115 
L 177.43274 -136.528555 
L 176.526586 -136.68127 
L 175.620433 -136.837094 
L 174.714279 -136.994321 
L 173.808126 -137.155092 
L 172.901972 -137.318274 
L 171.995819 -137.483241 
L 171.089665 -137.651188 
L 170.183512 -137.821307 
L 169.277358 -137.994762 
L 168.371205 -138.170095 
L 167.465051 -138.347665 
L 166.558898 -138.528086 
L 165.652744 -138.710091 
L 164.746591 -138.895873 
L 163.840437 -139.082739 
L 162.934284 -139.27243 
L 162.02813 -139.464972 
L 161.121977 -139.659584 
L 160.215823 -139.856122 
L 159.30967 -140.055132 
L 158.403516 -140.255621 
L 157.497363 -140.45924 
L 156.591209 -140.665364 
L 155.685056 -140.873923 
L 154.778902 -141.083858 
L 153.872749 -141.295758 
L 152.966595 -141.510111 
L 152.060442 -141.726813 
L 151.154288 -141.946089 
L 150.248135 -142.167142 
L 149.341981 -142.38955 
L 148.435828 -142.614621 
L 147.529674 -142.841813 
L 146.623521 -143.070329 
L 145.717367 -143.303212 
L 144.811214 -143.535986 
L 143.90506 -143.77174 
L 142.998907 -144.009857 
L 142.092753 -144.249228 
L 141.1866 -144.490892 
L 140.280446 -144.735656 
L 139.374293 -144.981687 
L 138.468139 -145.230314 
L 137.561986 -145.481622 
L 136.655832 -145.733634 
L 135.749679 -145.989292 
L 134.843525 -146.247298 
L 133.937372 -146.5064 
L 133.031218 -146.769453 
L 132.125065 -147.033852 
L 131.218911 -147.299929 
L 130.312758 -147.570014 
L 129.406604 -147.842482 
L 128.500451 -148.11645 
L 127.594297 -148.391211 
L 126.688144 -148.672681 
L 125.78199 -148.953936 
L 124.875837 -149.237311 
L 123.969683 -149.52507 
L 123.06353 -149.813629 
L 122.157376 -150.10648 
L 121.251223 -150.402231 
L 120.345069 -150.698265 
L 119.438916 -151.000353 
L 118.532762 -151.302108 
L 117.626609 -151.606153 
L 116.720455 -151.915516 
L 115.814302 -152.226164 
L 114.908148 -152.540221 
L 114.001995 -152.856279 
L 113.095841 -153.17361 
L 112.189688 -153.496517 
L 111.283534 -153.819656 
L 110.377381 -154.146651 
L 109.471227 -154.474407 
L 108.565074 -154.807133 
L 107.65892 -155.142324 
L 106.752767 -155.477136 
L 105.846613 -155.815793 
L 104.94046 -156.160191 
L 104.034306 -156.503581 
L 103.128153 -156.851354 
L 102.221999 -157.200365 
L 101.315846 -157.552352 
L 100.409692 -157.904749 
L 99.503539 -158.260838 
L 98.597385 -158.622207 
L 97.691232 -158.981918 
L 96.785078 -159.345602 
L 95.878925 -159.707871 
L 94.972771 -160.077912 
L 94.066618 -160.446658 
L 93.160465 -160.818371 
L 92.254311 -161.190223 
L 91.348158 -161.567175 
L 90.442004 -161.942934 
L 89.535851 -162.32201 
L 88.629697 -162.703024 
L 87.723544 -163.084572 
L 86.81739 -163.468409 
L 85.911237 -163.854461 
L 85.005083 -164.242995 
L 84.09893 -164.632815 
L 83.192776 -165.024391 
L 82.286623 -165.415209 
L 81.380469 -165.809875 
L 80.474316 -166.207019 
L 79.568162 -166.603729 
L 78.662009 -167.005805 
L 77.755855 -167.405631 
L 76.849702 -167.808769 
L 75.943548 -168.215053 
L 75.037395 -168.621715 
L 74.131241 -169.0323 
L 73.225088 -169.444292 
L 72.318934 -169.862566 
L 71.412781 -170.278446 
L 70.506627 -170.699968 
L 69.600474 -171.124659 
L 68.69432 -171.552356 
L 67.788167 -171.983517 
L 66.882013 -172.415876 
L 65.97586 -172.85163 
L 65.069706 -173.293944 
L 64.163553 -173.737552 
L 63.257399 -174.184964 
L 62.351246 -174.635393 
L 61.445092 -175.090415 
L 60.538939 -175.548408 
L 59.632785 -176.009285 
L 58.726632 -176.473672 
L 57.820478 -176.939724 
L 56.914325 -177.411816 
L 56.008171 -177.884665 
L 55.102018 -178.361119 
L 54.195864 -178.840156 
L 53.289711 -179.320662 
L 52.383557 -179.804794 
L 51.477404 -180.290508 
L 50.57125 -180.778309 
L 49.665097 -181.267884 
L 48.758943 -181.759687 
L 47.85279 -182.25279 
z
" style="stroke: #e74c3c; stroke-opacity: 0.2"/>
    </defs>
    <g clip-path="url(#p43feaeae30)">
     <use xlink:href="#m7fa87455d0" x="0" y="296.789812" style="fill: #e74c3c; fill-opacity: 0.2; stroke: #e74c3c; stroke-opacity: 0.2"/>
    </g>
   </g>
   <g id="line2d_33">
    <path d="M 38.836562 164.452365 
L 237.193562 164.452365 
" clip-path="url(#p43feaeae30)" style="fill: none; stroke-dasharray: 3.7,1.6; stroke-dashoffset: 0; stroke: #000000; stroke-opacity: 0.7"/>
   </g>
   <g id="patch_8">
    <path d="M 38.836562 173.298125 
L 38.836562 111.738875 
" style="fill: none; stroke: #000000; stroke-width: 0.5; stroke-linejoin: miter; stroke-linecap: square"/>
   </g>
   <g id="patch_9">
    <path d="M 237.193562 173.298125 
L 237.193562 111.738875 
" style="fill: none; stroke: #000000; stroke-width: 0.5; stroke-linejoin: miter; stroke-linecap: square"/>
   </g>
   <g id="patch_10">
    <path d="M 38.836562 173.298125 
L 237.193562 173.298125 
" style="fill: none; stroke: #000000; stroke-width: 0.5; stroke-linejoin: miter; stroke-linecap: square"/>
   </g>
   <g id="patch_11">
    <path d="M 38.836562 111.738875 
L 237.193562 111.738875 
" style="fill: none; stroke: #000000; stroke-width: 0.5; stroke-linejoin: miter; stroke-linecap: square"/>
   </g>
   <g id="line2d_34">
    <path d="M 47.85279 118.021178 
L 58.726632 122.627349 
L 75.037395 129.823365 
L 89.535851 136.133226 
L 99.503539 140.216162 
L 108.565074 143.667314 
L 116.720455 146.541994 
L 125.78199 149.48145 
L 134.843525 152.180436 
L 143.90506 154.662912 
L 153.872749 157.142134 
L 162.934284 159.156984 
L 171.995819 160.929293 
L 180.1512 162.302892 
L 188.306581 163.459981 
L 196.461963 164.407658 
L 204.617344 165.154797 
L 213.678879 165.763511 
L 222.740414 166.161038 
L 228.177335 166.304787 
L 228.177335 166.304787 
" clip-path="url(#p43feaeae30)" style="fill: none; stroke: #e74c3c; stroke-width: 2; stroke-linecap: square"/>
   </g>
   <g id="PathCollection_3">
    <g clip-path="url(#p43feaeae30)">
     <use xlink:href="#m5dd72853e5" x="195.876783" y="164.370489" style="fill: #a9bbf1; fill-opacity: 0.8; stroke: #3498db; stroke-opacity: 0.8"/>
     <use xlink:href="#m5dd72853e5" x="199.399286" y="164.672087" style="fill: #a9bbf1; fill-opacity: 0.8; stroke: #3498db; stroke-opacity: 0.8"/>
     <use xlink:href="#m5dd72853e5" x="202.510803" y="164.924808" style="fill: #a9bbf1; fill-opacity: 0.8; stroke: #3498db; stroke-opacity: 0.8"/>
     <use xlink:href="#m5dd72853e5" x="205.173436" y="165.15559" style="fill: #a9bbf1; fill-opacity: 0.8; stroke: #3498db; stroke-opacity: 0.8"/>
     <use xlink:href="#m5dd72853e5" x="207.370657" y="165.36795" style="fill: #a9bbf1; fill-opacity: 0.8; stroke: #3498db; stroke-opacity: 0.8"/>
     <use xlink:href="#m5dd72853e5" x="69.501715" y="127.379524" style="fill: #a9bbf1; fill-opacity: 0.8; stroke: #3498db; stroke-opacity: 0.8"/>
     <use xlink:href="#m5dd72853e5" x="78.672871" y="131.647769" style="fill: #a9bbf1; fill-opacity: 0.8; stroke: #3498db; stroke-opacity: 0.8"/>
     <use xlink:href="#m5dd72853e5" x="91.915062" y="137.222006" style="fill: #a9bbf1; fill-opacity: 0.8; stroke: #3498db; stroke-opacity: 0.8"/>
     <use xlink:href="#m5dd72853e5" x="106.095591" y="142.983893" style="fill: #a9bbf1; fill-opacity: 0.8; stroke: #3498db; stroke-opacity: 0.8"/>
     <use xlink:href="#m5dd72853e5" x="121.700834" y="148.612757" style="fill: #a9bbf1; fill-opacity: 0.8; stroke: #3498db; stroke-opacity: 0.8"/>
     <use xlink:href="#m5dd72853e5" x="139.270973" y="153.984108" style="fill: #a9bbf1; fill-opacity: 0.8; stroke: #3498db; stroke-opacity: 0.8"/>
     <use xlink:href="#m5dd72853e5" x="157.016444" y="158.380596" style="fill: #a9bbf1; fill-opacity: 0.8; stroke: #3498db; stroke-opacity: 0.8"/>
     <use xlink:href="#m5dd72853e5" x="172.186102" y="161.221715" style="fill: #a9bbf1; fill-opacity: 0.8; stroke: #3498db; stroke-opacity: 0.8"/>
     <use xlink:href="#m5dd72853e5" x="183.42641" y="163.004095" style="fill: #a9bbf1; fill-opacity: 0.8; stroke: #3498db; stroke-opacity: 0.8"/>
     <use xlink:href="#m5dd72853e5" x="192.035877" y="164.025371" style="fill: #a9bbf1; fill-opacity: 0.8; stroke: #3498db; stroke-opacity: 0.8"/>
     <use xlink:href="#m5dd72853e5" x="85.059928" y="134.406024" style="fill: #a9bbf1; fill-opacity: 0.8; stroke: #3498db; stroke-opacity: 0.8"/>
     <use xlink:href="#m5dd72853e5" x="162.390953" y="158.261891" style="fill: #a9bbf1; fill-opacity: 0.8; stroke: #3498db; stroke-opacity: 0.8"/>
     <use xlink:href="#m5dd72853e5" x="130.318579" y="151.449468" style="fill: #a9bbf1; fill-opacity: 0.8; stroke: #3498db; stroke-opacity: 0.8"/>
     <use xlink:href="#m5dd72853e5" x="133.186548" y="149.830572" style="fill: #a9bbf1; fill-opacity: 0.8; stroke: #3498db; stroke-opacity: 0.8"/>
     <use xlink:href="#m5dd72853e5" x="178.27784" y="162.258394" style="fill: #a9bbf1; fill-opacity: 0.8; stroke: #3498db; stroke-opacity: 0.8"/>
     <use xlink:href="#m5dd72853e5" x="68.659468" y="126.405433" style="fill: #a9bbf1; fill-opacity: 0.8; stroke: #3498db; stroke-opacity: 0.8"/>
    </g>
   </g>
   <g id="PathCollection_4">
    <g clip-path="url(#p43feaeae30)">
     <use xlink:href="#m81bbc33b04" x="89.167113" y="135.976721" style="fill: #ffffff; fill-opacity: 0.8; stroke: #d62728; stroke-opacity: 0.8"/>
     <use xlink:href="#m81bbc33b04" x="58.867871" y="122.689426" style="fill: #ffffff; fill-opacity: 0.8; stroke: #d62728; stroke-opacity: 0.8"/>
     <use xlink:href="#m81bbc33b04" x="59.703992" y="123.051645" style="fill: #ffffff; fill-opacity: 0.8; stroke: #d62728; stroke-opacity: 0.8"/>
     <use xlink:href="#m81bbc33b04" x="84.361658" y="133.918096" style="fill: #ffffff; fill-opacity: 0.8; stroke: #d62728; stroke-opacity: 0.8"/>
     <use xlink:href="#m81bbc33b04" x="112.94082" y="145.236905" style="fill: #ffffff; fill-opacity: 0.8; stroke: #d62728; stroke-opacity: 0.8"/>
     <use xlink:href="#m81bbc33b04" x="139.170062" y="153.392909" style="fill: #ffffff; fill-opacity: 0.8; stroke: #d62728; stroke-opacity: 0.8"/>
     <use xlink:href="#m81bbc33b04" x="159.957823" y="158.520762" style="fill: #ffffff; fill-opacity: 0.8; stroke: #d62728; stroke-opacity: 0.8"/>
     <use xlink:href="#m81bbc33b04" x="174.358739" y="161.349115" style="fill: #ffffff; fill-opacity: 0.8; stroke: #d62728; stroke-opacity: 0.8"/>
     <use xlink:href="#m81bbc33b04" x="184.368906" y="162.928429" style="fill: #ffffff; fill-opacity: 0.8; stroke: #d62728; stroke-opacity: 0.8"/>
     <use xlink:href="#m81bbc33b04" x="191.626098" y="163.871225" style="fill: #ffffff; fill-opacity: 0.8; stroke: #d62728; stroke-opacity: 0.8"/>
     <use xlink:href="#m81bbc33b04" x="196.27382" y="164.387767" style="fill: #ffffff; fill-opacity: 0.8; stroke: #d62728; stroke-opacity: 0.8"/>
    </g>
   </g>
  </g>
  <g id="axes_3">
   <g id="patch_12">
    <path d="M 38.836562 265.637 
L 237.193562 265.637 
L 237.193562 204.07775 
L 38.836562 204.07775 
z
" style="fill: #ffffff"/>
   </g>
   <g id="matplotlib.axis_5">
    <g id="xtick_11">
     <g id="line2d_35">
      <path d="M 55.762281 265.637 
L 55.762281 204.07775 
" clip-path="url(#p6e345a8e99)" style="fill: none; stroke-dasharray: 1.85,0.8; stroke-dashoffset: 0; stroke: #b0b0b0; stroke-opacity: 0.5; stroke-width: 0.5"/>
     </g>
     <g id="line2d_36">
      <g>
       <use xlink:href="#m69504f7d5f" x="55.762281" y="265.637" style="stroke: #000000; stroke-width: 0.5"/>
      </g>
     </g>
     <g id="text_20">
      <!-- −4 -->
      <g transform="translate(49.865406 275.21575) scale(0.08 -0.08)">
       <use xlink:href="#DejaVuSerif-2212"/>
       <use xlink:href="#DejaVuSerif-34" x="83.789062"/>
      </g>
     </g>
    </g>
    <g id="xtick_12">
     <g id="line2d_37">
      <path d="M 83.258816 265.637 
L 83.258816 204.07775 
" clip-path="url(#p6e345a8e99)" style="fill: none; stroke-dasharray: 1.85,0.8; stroke-dashoffset: 0; stroke: #b0b0b0; stroke-opacity: 0.5; stroke-width: 0.5"/>
     </g>
     <g id="line2d_38">
      <g>
       <use xlink:href="#m69504f7d5f" x="83.258816" y="265.637" style="stroke: #000000; stroke-width: 0.5"/>
      </g>
     </g>
     <g id="text_21">
      <!-- −2 -->
      <g transform="translate(77.361941 275.21575) scale(0.08 -0.08)">
       <use xlink:href="#DejaVuSerif-2212"/>
       <use xlink:href="#DejaVuSerif-32" x="83.789062"/>
      </g>
     </g>
    </g>
    <g id="xtick_13">
     <g id="line2d_39">
      <path d="M 110.755351 265.637 
L 110.755351 204.07775 
" clip-path="url(#p6e345a8e99)" style="fill: none; stroke-dasharray: 1.85,0.8; stroke-dashoffset: 0; stroke: #b0b0b0; stroke-opacity: 0.5; stroke-width: 0.5"/>
     </g>
     <g id="line2d_40">
      <g>
       <use xlink:href="#m69504f7d5f" x="110.755351" y="265.637" style="stroke: #000000; stroke-width: 0.5"/>
      </g>
     </g>
     <g id="text_22">
      <!-- 0 -->
      <g transform="translate(108.210351 275.21575) scale(0.08 -0.08)">
       <use xlink:href="#DejaVuSerif-30"/>
      </g>
     </g>
    </g>
    <g id="xtick_14">
     <g id="line2d_41">
      <path d="M 138.251886 265.637 
L 138.251886 204.07775 
" clip-path="url(#p6e345a8e99)" style="fill: none; stroke-dasharray: 1.85,0.8; stroke-dashoffset: 0; stroke: #b0b0b0; stroke-opacity: 0.5; stroke-width: 0.5"/>
     </g>
     <g id="line2d_42">
      <g>
       <use xlink:href="#m69504f7d5f" x="138.251886" y="265.637" style="stroke: #000000; stroke-width: 0.5"/>
      </g>
     </g>
     <g id="text_23">
      <!-- 2 -->
      <g transform="translate(135.706886 275.21575) scale(0.08 -0.08)">
       <use xlink:href="#DejaVuSerif-32"/>
      </g>
     </g>
    </g>
    <g id="xtick_15">
     <g id="line2d_43">
      <path d="M 165.748421 265.637 
L 165.748421 204.07775 
" clip-path="url(#p6e345a8e99)" style="fill: none; stroke-dasharray: 1.85,0.8; stroke-dashoffset: 0; stroke: #b0b0b0; stroke-opacity: 0.5; stroke-width: 0.5"/>
     </g>
     <g id="line2d_44">
      <g>
       <use xlink:href="#m69504f7d5f" x="165.748421" y="265.637" style="stroke: #000000; stroke-width: 0.5"/>
      </g>
     </g>
     <g id="text_24">
      <!-- 4 -->
      <g transform="translate(163.203421 275.21575) scale(0.08 -0.08)">
       <use xlink:href="#DejaVuSerif-34"/>
      </g>
     </g>
    </g>
    <g id="xtick_16">
     <g id="line2d_45">
      <path d="M 193.244956 265.637 
L 193.244956 204.07775 
" clip-path="url(#p6e345a8e99)" style="fill: none; stroke-dasharray: 1.85,0.8; stroke-dashoffset: 0; stroke: #b0b0b0; stroke-opacity: 0.5; stroke-width: 0.5"/>
     </g>
     <g id="line2d_46">
      <g>
       <use xlink:href="#m69504f7d5f" x="193.244956" y="265.637" style="stroke: #000000; stroke-width: 0.5"/>
      </g>
     </g>
     <g id="text_25">
      <!-- 6 -->
      <g transform="translate(190.699956 275.21575) scale(0.08 -0.08)">
       <use xlink:href="#DejaVuSerif-36"/>
      </g>
     </g>
    </g>
    <g id="xtick_17">
     <g id="line2d_47">
      <path d="M 220.741491 265.637 
L 220.741491 204.07775 
" clip-path="url(#p6e345a8e99)" style="fill: none; stroke-dasharray: 1.85,0.8; stroke-dashoffset: 0; stroke: #b0b0b0; stroke-opacity: 0.5; stroke-width: 0.5"/>
     </g>
     <g id="line2d_48">
      <g>
       <use xlink:href="#m69504f7d5f" x="220.741491" y="265.637" style="stroke: #000000; stroke-width: 0.5"/>
      </g>
     </g>
     <g id="text_26">
      <!-- 8 -->
      <g transform="translate(218.196491 275.21575) scale(0.08 -0.08)">
       <use xlink:href="#DejaVuSerif-38"/>
      </g>
     </g>
    </g>
    <g id="text_27">
     <!-- $v_{z}$ [m/s] -->
     <g transform="translate(121.545063 287.718094) scale(0.09 -0.09)">
      <defs>
       <path id="STIXGeneral-Italic-7a" d="M 2432 2669 
L 582 467 
Q 877 403 1021 307 
Q 1165 211 1350 -64 
Q 1568 -384 1798 -384 
Q 1971 -384 1971 -288 
Q 1971 -256 1939 -192 
Q 1888 -90 1888 -13 
Q 1894 70 1958 137 
Q 2022 205 2099 205 
Q 2202 205 2262 141 
Q 2323 77 2323 -32 
Q 2323 -230 2156 -374 
Q 1990 -518 1728 -518 
Q 1459 -518 1005 -237 
Q 570 32 333 32 
Q 186 32 45 -83 
L -13 -26 
L 1971 2355 
L 1101 2355 
Q 845 2355 729 2281 
Q 614 2208 518 1971 
L 416 1997 
L 621 2739 
L 2432 2739 
L 2432 2669 
z
" transform="scale(0.015625)"/>
      </defs>
      <use xlink:href="#STIXGeneral-Italic-76" transform="translate(0 0.015625)"/>
      <use xlink:href="#STIXGeneral-Italic-7a" transform="translate(44.399994 -13.2125) scale(0.7)"/>
      <use xlink:href="#DejaVuSerif-20" transform="translate(76.039365 0.015625)"/>
      <use xlink:href="#DejaVuSerif-5b" transform="translate(107.826474 0.015625)"/>
      <use xlink:href="#DejaVuSerif-6d" transform="translate(146.840146 0.015625)"/>
      <use xlink:href="#DejaVuSerif-2f" transform="translate(241.664365 0.015625)"/>
      <use xlink:href="#DejaVuSerif-73" transform="translate(275.355771 0.015625)"/>
      <use xlink:href="#DejaVuSerif-5d" transform="translate(326.67413 0.015625)"/>
     </g>
    </g>
   </g>
   <g id="matplotlib.axis_6">
    <g id="ytick_6">
     <g id="line2d_49">
      <path d="M 38.836562 259.330003 
L 237.193562 259.330003 
" clip-path="url(#p6e345a8e99)" style="fill: none; stroke-dasharray: 1.85,0.8; stroke-dashoffset: 0; stroke: #b0b0b0; stroke-opacity: 0.5; stroke-width: 0.5"/>
     </g>
     <g id="line2d_50">
      <g>
       <use xlink:href="#mf93d2d9a17" x="38.836562" y="259.330003" style="stroke: #000000; stroke-width: 0.5"/>
      </g>
     </g>
     <g id="text_28">
      <!-- -2.0 -->
      <g transform="translate(19.910312 262.369378) scale(0.08 -0.08)">
       <defs>
        <path id="DejaVuSerif-2d" d="M 281 1959 
L 1881 1959 
L 1881 1472 
L 281 1472 
L 281 1959 
z
" transform="scale(0.015625)"/>
       </defs>
       <use xlink:href="#DejaVuSerif-2d"/>
       <use xlink:href="#DejaVuSerif-32" x="33.789062"/>
       <use xlink:href="#DejaVuSerif-2e" x="97.412109"/>
       <use xlink:href="#DejaVuSerif-30" x="129.199219"/>
      </g>
     </g>
    </g>
    <g id="ytick_7">
     <g id="line2d_51">
      <path d="M 38.836562 238.099 
L 237.193562 238.099 
" clip-path="url(#p6e345a8e99)" style="fill: none; stroke-dasharray: 1.85,0.8; stroke-dashoffset: 0; stroke: #b0b0b0; stroke-opacity: 0.5; stroke-width: 0.5"/>
     </g>
     <g id="line2d_52">
      <g>
       <use xlink:href="#mf93d2d9a17" x="38.836562" y="238.099" style="stroke: #000000; stroke-width: 0.5"/>
      </g>
     </g>
     <g id="text_29">
      <!-- 0.0 -->
      <g transform="translate(22.614062 241.138375) scale(0.08 -0.08)">
       <use xlink:href="#DejaVuSerif-30"/>
       <use xlink:href="#DejaVuSerif-2e" x="63.623047"/>
       <use xlink:href="#DejaVuSerif-30" x="95.410156"/>
      </g>
     </g>
    </g>
    <g id="ytick_8">
     <g id="line2d_53">
      <path d="M 38.836562 216.867997 
L 237.193562 216.867997 
" clip-path="url(#p6e345a8e99)" style="fill: none; stroke-dasharray: 1.85,0.8; stroke-dashoffset: 0; stroke: #b0b0b0; stroke-opacity: 0.5; stroke-width: 0.5"/>
     </g>
     <g id="line2d_54">
      <g>
       <use xlink:href="#mf93d2d9a17" x="38.836562" y="216.867997" style="stroke: #000000; stroke-width: 0.5"/>
      </g>
     </g>
     <g id="text_30">
      <!-- 2.0 -->
      <g transform="translate(22.614062 219.907372) scale(0.08 -0.08)">
       <use xlink:href="#DejaVuSerif-32"/>
       <use xlink:href="#DejaVuSerif-2e" x="63.623047"/>
       <use xlink:href="#DejaVuSerif-30" x="95.410156"/>
      </g>
     </g>
    </g>
    <g id="text_31">
     <!-- $\Delta a_{z}$ [m/s²] -->
     <g transform="translate(14.038594 256.637375) rotate(-90) scale(0.09 -0.09)">
      <use xlink:href="#STIXGeneral-Regular-394" transform="translate(0 0.015625)"/>
      <use xlink:href="#STIXGeneral-Italic-61" transform="translate(72.199982 0.015625)"/>
      <use xlink:href="#STIXGeneral-Italic-7a" transform="translate(122.299973 -13.2125) scale(0.7)"/>
      <use xlink:href="#DejaVuSerif-20" transform="translate(153.939343 0.015625)"/>
      <use xlink:href="#DejaVuSerif-5b" transform="translate(185.726453 0.015625)"/>
      <use xlink:href="#DejaVuSerif-6d" transform="translate(224.740125 0.015625)"/>
      <use xlink:href="#DejaVuSerif-2f" transform="translate(319.564343 0.015625)"/>
      <use xlink:href="#DejaVuSerif-73" transform="translate(353.25575 0.015625)"/>
      <use xlink:href="#DejaVuSerif-b2" transform="translate(404.574109 0.015625)"/>
      <use xlink:href="#DejaVuSerif-5d" transform="translate(444.662 0.015625)"/>
     </g>
    </g>
   </g>
   <g id="PolyCollection_3">
    <defs>
     <path id="m3433ce85d3" d="M 47.85279 -89.913915 
L 47.85279 -57.481606 
L 48.758943 -58.06211 
L 49.665097 -58.648691 
L 50.57125 -59.239644 
L 51.477404 -59.832852 
L 52.383557 -60.426074 
L 53.289711 -61.016585 
L 54.195864 -61.601423 
L 55.102018 -62.17737 
L 56.008171 -62.740659 
L 56.914325 -63.287104 
L 57.820478 -63.812213 
L 58.726632 -64.310919 
L 59.632785 -64.777529 
L 60.538939 -65.205953 
L 61.445092 -65.589437 
L 62.351246 -65.920784 
L 63.257399 -66.192532 
L 64.163553 -66.396858 
L 65.069706 -66.526385 
L 65.97586 -66.574381 
L 66.882013 -66.535721 
L 67.788167 -66.408212 
L 68.69432 -66.192264 
L 69.600474 -65.892811 
L 70.506627 -65.518286 
L 71.412781 -65.079613 
L 72.318934 -64.589333 
L 73.225088 -64.060265 
L 74.131241 -63.504123 
L 75.037395 -62.931234 
L 75.943548 -62.350444 
L 76.849702 -61.76901 
L 77.755855 -61.193407 
L 78.662009 -60.62932 
L 79.568162 -60.082553 
L 80.474316 -59.558563 
L 81.380469 -59.062482 
L 82.286623 -58.598408 
L 83.192776 -58.169449 
L 84.09893 -57.777658 
L 85.005083 -57.423712 
L 85.911237 -57.107329 
L 86.81739 -56.827324 
L 87.723544 -56.581501 
L 88.629697 -56.367828 
L 89.535851 -56.183863 
L 90.442004 -56.027816 
L 91.348158 -55.898779 
L 92.254311 -55.79667 
L 93.160465 -55.721745 
L 94.066618 -55.674676 
L 94.972771 -55.655871 
L 95.878925 -55.665682 
L 96.785078 -55.704153 
L 97.691232 -55.771178 
L 98.597385 -55.866393 
L 99.503539 -55.989594 
L 100.409692 -56.140622 
L 101.315846 -56.31988 
L 102.221999 -56.528064 
L 103.128153 -56.766088 
L 104.034306 -57.034582 
L 104.94046 -57.333303 
L 105.846613 -57.660711 
L 106.752767 -58.013874 
L 107.65892 -58.387957 
L 108.565074 -58.776528 
L 109.471227 -59.171654 
L 110.377381 -59.56493 
L 111.283534 -59.948065 
L 112.189688 -60.314217 
L 113.095841 -60.658553 
L 114.001995 -60.9787 
L 114.908148 -61.274665 
L 115.814302 -61.548653 
L 116.720455 -61.804492 
L 117.626609 -62.046945 
L 118.532762 -62.281255 
L 119.438916 -62.512844 
L 120.345069 -62.746741 
L 121.251223 -62.987636 
L 122.157376 -63.239564 
L 123.06353 -63.505982 
L 123.969683 -63.789557 
L 124.875837 -64.092276 
L 125.78199 -64.415293 
L 126.688144 -64.758995 
L 127.594297 -65.123019 
L 128.500451 -65.506104 
L 129.406604 -65.906128 
L 130.312758 -66.320073 
L 131.218911 -66.743948 
L 132.125065 -67.172781 
L 133.031218 -67.600548 
L 133.937372 -68.020187 
L 134.843525 -68.423589 
L 135.749679 -68.801851 
L 136.655832 -69.145369 
L 137.561986 -69.444461 
L 138.468139 -69.689983 
L 139.374293 -69.874156 
L 140.280446 -69.991826 
L 141.1866 -70.041132 
L 142.092753 -70.02422 
L 142.998907 -69.947083 
L 143.90506 -69.818519 
L 144.811214 -69.649294 
L 145.717367 -69.450924 
L 146.623521 -69.235056 
L 147.529674 -69.012733 
L 148.435828 -68.794142 
L 149.341981 -68.588323 
L 150.248135 -68.403099 
L 151.154288 -68.245101 
L 152.060442 -68.119668 
L 152.966595 -68.030955 
L 153.872749 -67.981832 
L 154.778902 -67.973982 
L 155.685056 -68.007764 
L 156.591209 -68.082273 
L 157.497363 -68.195093 
L 158.403516 -68.342387 
L 159.30967 -68.51867 
L 160.215823 -68.716652 
L 161.121977 -68.927212 
L 162.02813 -69.139205 
L 162.934284 -69.339623 
L 163.840437 -69.513777 
L 164.746591 -69.645844 
L 165.652744 -69.719757 
L 166.558898 -69.720443 
L 167.465051 -69.635173 
L 168.371205 -69.455133 
L 169.277358 -69.175815 
L 170.183512 -68.798046 
L 171.089665 -68.326265 
L 171.995819 -67.767855 
L 172.901972 -67.131594 
L 173.808126 -66.426725 
L 174.714279 -65.662443 
L 175.620433 -64.847725 
L 176.526586 -63.990886 
L 177.43274 -63.099819 
L 178.338893 -62.181866 
L 179.245047 -61.243894 
L 180.1512 -60.292314 
L 181.057354 -59.333211 
L 181.963507 -58.372258 
L 182.86966 -57.414784 
L 183.775814 -56.46588 
L 184.681967 -55.530311 
L 185.588121 -54.6126 
L 186.494274 -53.716941 
L 187.400428 -52.847418 
L 188.306581 -52.007695 
L 189.212735 -51.201294 
L 190.118888 -50.431441 
L 191.025042 -49.701057 
L 191.931195 -49.012754 
L 192.837349 -48.368787 
L 193.743502 -47.771091 
L 194.649656 -47.221 
L 195.555809 -46.71945 
L 196.461963 -46.266666 
L 197.368116 -45.862124 
L 198.27427 -45.504321 
L 199.180423 -45.190658 
L 200.086577 -44.917069 
L 200.99273 -44.677733 
L 201.898884 -44.464956 
L 202.805037 -44.268629 
L 203.711191 -44.07626 
L 204.617344 -43.873306 
L 205.523498 -43.644059 
L 206.429651 -43.37333 
L 207.335805 -43.049236 
L 208.241958 -42.665334 
L 209.148112 -42.222159 
L 210.054265 -41.726875 
L 210.960419 -41.191025 
L 211.866572 -40.628182 
L 212.772726 -40.05185 
L 213.678879 -39.474173 
L 214.585033 -38.905357 
L 215.491186 -38.353586 
L 216.39734 -37.825137 
L 217.303493 -37.324699 
L 218.209647 -36.855621 
L 219.1158 -36.420093 
L 220.021954 -36.019456 
L 220.928107 -35.654372 
L 221.834261 -35.324897 
L 222.740414 -35.030679 
L 223.646568 -34.771018 
L 224.552721 -34.54494 
L 225.458875 -34.351268 
L 226.365028 -34.188691 
L 227.271182 -34.055759 
L 228.177335 -33.95096 
L 228.177335 -68.816203 
L 228.177335 -68.816203 
L 227.271182 -68.06757 
L 226.365028 -67.308008 
L 225.458875 -66.539105 
L 224.552721 -65.762785 
L 223.646568 -64.981206 
L 222.740414 -64.196912 
L 221.834261 -63.412795 
L 220.928107 -62.632176 
L 220.021954 -61.858823 
L 219.1158 -61.097118 
L 218.209647 -60.352101 
L 217.303493 -59.629527 
L 216.39734 -58.936087 
L 215.491186 -58.279671 
L 214.585033 -57.669422 
L 213.678879 -57.115935 
L 212.772726 -56.631532 
L 211.866572 -56.230409 
L 210.960419 -55.928238 
L 210.054265 -55.741732 
L 209.148112 -55.686993 
L 208.241958 -55.777475 
L 207.335805 -56.02137 
L 206.429651 -56.41927 
L 205.523498 -56.963489 
L 204.617344 -57.640146 
L 203.711191 -58.431016 
L 202.805037 -59.316589 
L 201.898884 -60.278059 
L 200.99273 -61.298124 
L 200.086577 -62.361414 
L 199.180423 -63.454745 
L 198.27427 -64.566531 
L 197.368116 -65.686671 
L 196.461963 -66.806493 
L 195.555809 -67.918178 
L 194.649656 -69.014847 
L 193.743502 -70.090475 
L 192.837349 -71.139428 
L 191.931195 -72.156729 
L 191.025042 -73.137847 
L 190.118888 -74.078617 
L 189.212735 -74.975218 
L 188.306581 -75.824341 
L 187.400428 -76.62278 
L 186.494274 -77.367822 
L 185.588121 -78.057056 
L 184.681967 -78.688312 
L 183.775814 -79.259928 
L 182.86966 -79.770541 
L 181.963507 -80.219195 
L 181.057354 -80.605468 
L 180.1512 -80.929435 
L 179.245047 -81.191751 
L 178.338893 -81.393816 
L 177.43274 -81.537811 
L 176.526586 -81.626778 
L 175.620433 -81.664914 
L 174.714279 -81.657488 
L 173.808126 -81.611251 
L 172.901972 -81.534277 
L 171.995819 -81.436113 
L 171.089665 -81.327784 
L 170.183512 -81.221176 
L 169.277358 -81.128483 
L 168.371205 -81.061363 
L 167.465051 -81.029645 
L 166.558898 -81.040409 
L 165.652744 -81.097274 
L 164.746591 -81.200083 
L 163.840437 -81.345017 
L 162.934284 -81.525665 
L 162.02813 -81.733773 
L 161.121977 -81.960593 
L 160.215823 -82.197529 
L 159.30967 -82.436638 
L 158.403516 -82.670788 
L 157.497363 -82.893578 
L 156.591209 -83.099599 
L 155.685056 -83.284159 
L 154.778902 -83.443459 
L 153.872749 -83.574427 
L 152.966595 -83.674862 
L 152.060442 -83.743273 
L 151.154288 -83.779187 
L 150.248135 -83.7829 
L 149.341981 -83.755778 
L 148.435828 -83.700191 
L 147.529674 -83.619657 
L 146.623521 -83.51886 
L 145.717367 -83.403516 
L 144.811214 -83.280464 
L 143.90506 -83.157071 
L 142.998907 -83.041005 
L 142.092753 -82.939388 
L 141.1866 -82.857882 
L 140.280446 -82.799729 
L 139.374293 -82.765108 
L 138.468139 -82.750866 
L 137.561986 -82.750963 
L 136.655832 -82.757472 
L 135.749679 -82.761393 
L 134.843525 -82.753494 
L 133.937372 -82.725096 
L 133.031218 -82.668209 
L 132.125065 -82.575987 
L 131.218911 -82.442756 
L 130.312758 -82.263955 
L 129.406604 -82.036172 
L 128.500451 -81.757086 
L 127.594297 -81.425412 
L 126.688144 -81.040857 
L 125.78199 -80.603907 
L 124.875837 -80.116133 
L 123.969683 -79.579914 
L 123.06353 -78.998446 
L 122.157376 -78.375858 
L 121.251223 -77.717066 
L 120.345069 -77.027866 
L 119.438916 -76.314889 
L 118.532762 -75.585581 
L 117.626609 -74.848024 
L 116.720455 -74.110778 
L 115.814302 -73.382763 
L 114.908148 -72.672742 
L 114.001995 -71.988984 
L 113.095841 -71.338605 
L 112.189688 -70.727205 
L 111.283534 -70.158508 
L 110.377381 -69.634397 
L 109.471227 -69.155109 
L 108.565074 -68.719742 
L 107.65892 -68.326369 
L 106.752767 -67.972937 
L 105.846613 -67.656861 
L 104.94046 -67.375711 
L 104.034306 -67.126829 
L 103.128153 -66.908115 
L 102.221999 -66.717706 
L 101.315846 -66.554115 
L 100.409692 -66.415968 
L 99.503539 -66.3022 
L 98.597385 -66.21197 
L 97.691232 -66.144818 
L 96.785078 -66.100589 
L 95.878925 -66.079732 
L 94.972771 -66.082465 
L 94.066618 -66.109599 
L 93.160465 -66.161773 
L 92.254311 -66.240101 
L 91.348158 -66.345999 
L 90.442004 -66.481242 
L 89.535851 -66.647715 
L 88.629697 -66.847355 
L 87.723544 -67.081611 
L 86.81739 -67.351307 
L 85.911237 -67.656437 
L 85.005083 -67.996671 
L 84.09893 -68.371102 
L 83.192776 -68.778056 
L 82.286623 -69.215433 
L 81.380469 -69.680125 
L 80.474316 -70.167803 
L 79.568162 -70.672997 
L 78.662009 -71.189711 
L 77.755855 -71.712098 
L 76.849702 -72.234394 
L 75.943548 -72.752872 
L 75.037395 -73.264665 
L 74.131241 -73.769191 
L 73.225088 -74.267673 
L 72.318934 -74.763734 
L 71.412781 -75.262464 
L 70.506627 -75.769992 
L 69.600474 -76.293164 
L 68.69432 -76.83779 
L 67.788167 -77.408202 
L 66.882013 -78.006325 
L 65.97586 -78.631249 
L 65.069706 -79.279695 
L 64.163553 -79.946332 
L 63.257399 -80.625549 
L 62.351246 -81.31068 
L 61.445092 -81.995694 
L 60.538939 -82.674923 
L 59.632785 -83.343459 
L 58.726632 -83.996999 
L 57.820478 -84.631975 
L 56.914325 -85.245531 
L 56.008171 -85.835413 
L 55.102018 -86.399732 
L 54.195864 -86.937318 
L 53.289711 -87.447242 
L 52.383557 -87.928892 
L 51.477404 -88.382141 
L 50.57125 -88.806958 
L 49.665097 -89.20354 
L 48.758943 -89.572353 
L 47.85279 -89.913915 
z
" style="stroke: #e74c3c; stroke-opacity: 0.2"/>
    </defs>
    <g clip-path="url(#p6e345a8e99)">
     <use xlink:href="#m3433ce85d3" x="0" y="296.789812" style="fill: #e74c3c; fill-opacity: 0.2; stroke: #e74c3c; stroke-opacity: 0.2"/>
    </g>
   </g>
   <g id="line2d_55">
    <path d="M 38.836562 238.099 
L 237.193562 238.099 
" clip-path="url(#p6e345a8e99)" style="fill: none; stroke-dasharray: 3.7,1.6; stroke-dashoffset: 0; stroke: #000000; stroke-opacity: 0.7"/>
   </g>
   <g id="patch_13">
    <path d="M 38.836562 265.637 
L 38.836562 204.07775 
" style="fill: none; stroke: #000000; stroke-width: 0.5; stroke-linejoin: miter; stroke-linecap: square"/>
   </g>
   <g id="patch_14">
    <path d="M 237.193562 265.637 
L 237.193562 204.07775 
" style="fill: none; stroke: #000000; stroke-width: 0.5; stroke-linejoin: miter; stroke-linecap: square"/>
   </g>
   <g id="patch_15">
    <path d="M 38.836562 265.637 
L 237.193562 265.637 
" style="fill: none; stroke: #000000; stroke-width: 0.5; stroke-linejoin: miter; stroke-linecap: square"/>
   </g>
   <g id="patch_16">
    <path d="M 38.836562 204.07775 
L 237.193562 204.07775 
" style="fill: none; stroke: #000000; stroke-width: 0.5; stroke-linejoin: miter; stroke-linecap: square"/>
   </g>
   <g id="line2d_56">
    <path d="M 47.85279 223.092052 
L 51.477404 222.682315 
L 55.102018 222.501261 
L 57.820478 222.567719 
L 60.538939 222.849373 
L 63.257399 223.380772 
L 65.97586 224.186997 
L 68.69432 225.274785 
L 71.412781 226.618774 
L 75.037395 228.691863 
L 81.380469 232.418509 
L 84.09893 233.715433 
L 86.81739 234.700497 
L 89.535851 235.374024 
L 92.254311 235.771427 
L 94.972771 235.920645 
L 97.691232 235.831814 
L 100.409692 235.511517 
L 103.128153 234.952711 
L 105.846613 234.131027 
L 108.565074 233.041678 
L 112.189688 231.269101 
L 124.875837 224.685608 
L 128.500451 223.158218 
L 132.125065 221.915429 
L 134.843525 221.201272 
L 137.561986 220.6921 
L 140.280446 220.394035 
L 142.998907 220.295769 
L 146.623521 220.412855 
L 152.966595 220.936905 
L 158.403516 221.283225 
L 163.840437 221.360416 
L 167.465051 221.457404 
L 170.183512 221.780201 
L 171.995819 222.187828 
L 173.808126 222.770825 
L 175.620433 223.533493 
L 177.43274 224.470998 
L 180.1512 226.178938 
L 182.86966 228.19715 
L 186.494274 231.247431 
L 192.837349 237.035705 
L 197.368116 241.015415 
L 200.086577 243.150572 
L 202.805037 244.997203 
L 205.523498 246.486038 
L 207.335805 247.254509 
L 209.148112 247.835237 
L 210.960419 248.230181 
L 212.772726 248.448121 
L 214.585033 248.502422 
L 217.303493 248.3127 
L 220.021954 247.850673 
L 222.740414 247.176017 
L 226.365028 246.041464 
L 228.177335 245.406231 
L 228.177335 245.406231 
" clip-path="url(#p6e345a8e99)" style="fill: none; stroke: #e74c3c; stroke-width: 2; stroke-linecap: square"/>
   </g>
   <g id="PathCollection_5">
    <g clip-path="url(#p6e345a8e99)">
     <use xlink:href="#m5dd72853e5" x="109.708247" y="232.96589" style="fill: #a9bbf1; fill-opacity: 0.8; stroke: #3498db; stroke-opacity: 0.8"/>
     <use xlink:href="#m5dd72853e5" x="110.40621" y="232.014996" style="fill: #a9bbf1; fill-opacity: 0.8; stroke: #3498db; stroke-opacity: 0.8"/>
     <use xlink:href="#m5dd72853e5" x="110.37957" y="230.887607" style="fill: #a9bbf1; fill-opacity: 0.8; stroke: #3498db; stroke-opacity: 0.8"/>
     <use xlink:href="#m5dd72853e5" x="109.836708" y="231.409779" style="fill: #a9bbf1; fill-opacity: 0.8; stroke: #3498db; stroke-opacity: 0.8"/>
     <use xlink:href="#m5dd72853e5" x="109.25117" y="232.503072" style="fill: #a9bbf1; fill-opacity: 0.8; stroke: #3498db; stroke-opacity: 0.8"/>
     <use xlink:href="#m5dd72853e5" x="140.532602" y="219.760486" style="fill: #a9bbf1; fill-opacity: 0.8; stroke: #3498db; stroke-opacity: 0.8"/>
     <use xlink:href="#m5dd72853e5" x="112.919243" y="230.278463" style="fill: #a9bbf1; fill-opacity: 0.8; stroke: #3498db; stroke-opacity: 0.8"/>
     <use xlink:href="#m5dd72853e5" x="89.924085" y="232.668482" style="fill: #a9bbf1; fill-opacity: 0.8; stroke: #3498db; stroke-opacity: 0.8"/>
     <use xlink:href="#m5dd72853e5" x="77.675765" y="227.610199" style="fill: #a9bbf1; fill-opacity: 0.8; stroke: #3498db; stroke-opacity: 0.8"/>
     <use xlink:href="#m5dd72853e5" x="71.267373" y="225.596338" style="fill: #a9bbf1; fill-opacity: 0.8; stroke: #3498db; stroke-opacity: 0.8"/>
     <use xlink:href="#m5dd72853e5" x="68.659468" y="225.035957" style="fill: #a9bbf1; fill-opacity: 0.8; stroke: #3498db; stroke-opacity: 0.8"/>
     <use xlink:href="#m5dd72853e5" x="71.999235" y="229.00461" style="fill: #a9bbf1; fill-opacity: 0.8; stroke: #3498db; stroke-opacity: 0.8"/>
     <use xlink:href="#m5dd72853e5" x="81.83899" y="235.872714" style="fill: #a9bbf1; fill-opacity: 0.8; stroke: #3498db; stroke-opacity: 0.8"/>
     <use xlink:href="#m5dd72853e5" x="95.592902" y="236.937123" style="fill: #a9bbf1; fill-opacity: 0.8; stroke: #3498db; stroke-opacity: 0.8"/>
     <use xlink:href="#m5dd72853e5" x="106.210767" y="234.226575" style="fill: #a9bbf1; fill-opacity: 0.8; stroke: #3498db; stroke-opacity: 0.8"/>
     <use xlink:href="#m5dd72853e5" x="100.43271" y="233.278127" style="fill: #a9bbf1; fill-opacity: 0.8; stroke: #3498db; stroke-opacity: 0.8"/>
     <use xlink:href="#m5dd72853e5" x="164.871952" y="224.740689" style="fill: #a9bbf1; fill-opacity: 0.8; stroke: #3498db; stroke-opacity: 0.8"/>
     <use xlink:href="#m5dd72853e5" x="69.213733" y="224.447432" style="fill: #a9bbf1; fill-opacity: 0.8; stroke: #3498db; stroke-opacity: 0.8"/>
     <use xlink:href="#m5dd72853e5" x="207.370657" y="248.257696" style="fill: #a9bbf1; fill-opacity: 0.8; stroke: #3498db; stroke-opacity: 0.8"/>
     <use xlink:href="#m5dd72853e5" x="88.598051" y="236.941625" style="fill: #a9bbf1; fill-opacity: 0.8; stroke: #3498db; stroke-opacity: 0.8"/>
     <use xlink:href="#m5dd72853e5" x="168.595701" y="217.838541" style="fill: #a9bbf1; fill-opacity: 0.8; stroke: #3498db; stroke-opacity: 0.8"/>
    </g>
   </g>
   <g id="PathCollection_6">
    <g clip-path="url(#p6e345a8e99)">
     <use xlink:href="#m81bbc33b04" x="198.14577" y="241.651077" style="fill: #ffffff; fill-opacity: 0.8; stroke: #d62728; stroke-opacity: 0.8"/>
     <use xlink:href="#m81bbc33b04" x="161.870567" y="221.35238" style="fill: #ffffff; fill-opacity: 0.8; stroke: #d62728; stroke-opacity: 0.8"/>
     <use xlink:href="#m81bbc33b04" x="104.092804" y="234.692368" style="fill: #ffffff; fill-opacity: 0.8; stroke: #d62728; stroke-opacity: 0.8"/>
     <use xlink:href="#m81bbc33b04" x="66.950038" y="224.544921" style="fill: #ffffff; fill-opacity: 0.8; stroke: #d62728; stroke-opacity: 0.8"/>
     <use xlink:href="#m81bbc33b04" x="56.375157" y="222.507941" style="fill: #ffffff; fill-opacity: 0.8; stroke: #d62728; stroke-opacity: 0.8"/>
     <use xlink:href="#m81bbc33b04" x="58.437464" y="222.611418" style="fill: #ffffff; fill-opacity: 0.8; stroke: #d62728; stroke-opacity: 0.8"/>
     <use xlink:href="#m81bbc33b04" x="69.807558" y="225.797071" style="fill: #ffffff; fill-opacity: 0.8; stroke: #d62728; stroke-opacity: 0.8"/>
     <use xlink:href="#m81bbc33b04" x="85.843945" y="234.384759" style="fill: #ffffff; fill-opacity: 0.8; stroke: #d62728; stroke-opacity: 0.8"/>
     <use xlink:href="#m81bbc33b04" x="99.832924" y="235.598776" style="fill: #ffffff; fill-opacity: 0.8; stroke: #d62728; stroke-opacity: 0.8"/>
     <use xlink:href="#m81bbc33b04" x="108.16207" y="233.218769" style="fill: #ffffff; fill-opacity: 0.8; stroke: #d62728; stroke-opacity: 0.8"/>
     <use xlink:href="#m81bbc33b04" x="115.060808" y="229.733285" style="fill: #ffffff; fill-opacity: 0.8; stroke: #d62728; stroke-opacity: 0.8"/>
    </g>
   </g>
  </g>
  <g id="legend_1">
   <g id="patch_17">
    <path d="M 26.974812 19.7425 
L 214.852313 19.7425 
Q 216.452313 19.7425 216.452313 18.1425 
L 216.452313 8.8 
Q 216.452313 7.2 214.852313 7.2 
L 26.974812 7.2 
Q 25.374812 7.2 25.374812 8.8 
L 25.374812 18.1425 
Q 25.374812 19.7425 26.974812 19.7425 
z
" style="fill: #ffffff; opacity: 0.8; stroke: #cccccc; stroke-linejoin: miter"/>
   </g>
   <g id="PathCollection_7">
    <g>
     <use xlink:href="#m5dd72853e5" x="32.574812" y="13.57875" style="fill: #a9bbf1; fill-opacity: 0.8; stroke: #3498db; stroke-opacity: 0.8"/>
    </g>
   </g>
   <g id="text_32">
    <!-- Data -->
    <g transform="translate(43.774812 15.67875) scale(0.08 -0.08)">
     <defs>
      <path id="DejaVuSerif-44" d="M 1581 331 
L 2163 331 
Q 3072 331 3558 850 
Q 4044 1369 4044 2338 
Q 4044 3306 3559 3818 
Q 3075 4331 2163 4331 
L 1581 4331 
L 1581 331 
z
M 353 0 
L 353 331 
L 947 331 
L 947 4331 
L 353 4331 
L 353 4666 
L 2209 4666 
Q 3416 4666 4089 4050 
Q 4763 3434 4763 2338 
Q 4763 1238 4088 619 
Q 3413 0 2209 0 
L 353 0 
z
" transform="scale(0.015625)"/>
      <path id="DejaVuSerif-61" d="M 2547 1044 
L 2547 1747 
L 1806 1747 
Q 1378 1747 1168 1562 
Q 959 1378 959 997 
Q 959 650 1171 447 
Q 1384 244 1747 244 
Q 2106 244 2326 466 
Q 2547 688 2547 1044 
z
M 3122 2075 
L 3122 331 
L 3634 331 
L 3634 0 
L 2547 0 
L 2547 359 
Q 2356 128 2106 18 
Q 1856 -91 1522 -91 
Q 969 -91 644 203 
Q 319 497 319 997 
Q 319 1513 691 1797 
Q 1063 2081 1741 2081 
L 2547 2081 
L 2547 2309 
Q 2547 2688 2317 2895 
Q 2088 3103 1672 3103 
Q 1328 3103 1125 2947 
Q 922 2791 872 2484 
L 575 2484 
L 575 3156 
Q 875 3284 1158 3348 
Q 1441 3413 1709 3413 
Q 2400 3413 2761 3070 
Q 3122 2728 3122 2075 
z
" transform="scale(0.015625)"/>
      <path id="DejaVuSerif-74" d="M 691 2988 
L 184 2988 
L 184 3322 
L 691 3322 
L 691 4353 
L 1269 4353 
L 1269 3322 
L 2350 3322 
L 2350 2988 
L 1269 2988 
L 1269 878 
Q 1269 456 1350 337 
Q 1431 219 1650 219 
Q 1875 219 1978 351 
Q 2081 484 2088 781 
L 2522 781 
Q 2497 328 2275 118 
Q 2053 -91 1600 -91 
Q 1103 -91 897 129 
Q 691 350 691 878 
L 691 2988 
z
" transform="scale(0.015625)"/>
     </defs>
     <use xlink:href="#DejaVuSerif-44"/>
     <use xlink:href="#DejaVuSerif-61" x="80.175781"/>
     <use xlink:href="#DejaVuSerif-74" x="139.794922"/>
     <use xlink:href="#DejaVuSerif-61" x="179.980469"/>
    </g>
   </g>
   <g id="line2d_57">
    <path d="M 72.543562 12.87875 
L 77.343562 12.87875 
L 82.143562 12.87875 
" style="fill: none; stroke: #e74c3c; stroke-width: 2; stroke-linecap: square"/>
   </g>
   <g id="text_33">
    <!-- GP Fit -->
    <g transform="translate(88.543562 15.67875) scale(0.08 -0.08)">
     <defs>
      <path id="DejaVuSerif-47" d="M 4097 3272 
Q 3988 3856 3641 4136 
Q 3294 4416 2675 4416 
Q 1869 4416 1472 3897 
Q 1075 3378 1075 2328 
Q 1075 1300 1484 772 
Q 1894 244 2688 244 
Q 3041 244 3362 331 
Q 3684 419 3975 594 
L 3975 1797 
L 3097 1797 
L 3097 2131 
L 4609 2131 
L 4609 391 
Q 4194 150 3714 29 
Q 3234 -91 2688 -91 
Q 1631 -91 995 570 
Q 359 1231 359 2328 
Q 359 3434 996 4092 
Q 1634 4750 2713 4750 
Q 3113 4750 3539 4658 
Q 3966 4566 4447 4378 
L 4447 3272 
L 4097 3272 
z
" transform="scale(0.015625)"/>
      <path id="DejaVuSerif-50" d="M 1581 2375 
L 2406 2375 
Q 2872 2375 3115 2626 
Q 3359 2878 3359 3353 
Q 3359 3831 3115 4081 
Q 2872 4331 2406 4331 
L 1581 4331 
L 1581 2375 
z
M 353 0 
L 353 331 
L 947 331 
L 947 4331 
L 353 4331 
L 353 4666 
L 2559 4666 
Q 3259 4666 3668 4311 
Q 4078 3956 4078 3353 
Q 4078 2753 3668 2397 
Q 3259 2041 2559 2041 
L 1581 2041 
L 1581 331 
L 2303 331 
L 2303 0 
L 353 0 
z
" transform="scale(0.015625)"/>
      <path id="DejaVuSerif-46" d="M 353 0 
L 353 331 
L 947 331 
L 947 4331 
L 353 4331 
L 353 4666 
L 4172 4666 
L 4172 3628 
L 3788 3628 
L 3788 4281 
L 1581 4281 
L 1581 2719 
L 3175 2719 
L 3175 3303 
L 3559 3303 
L 3559 1753 
L 3175 1753 
L 3175 2338 
L 1581 2338 
L 1581 331 
L 2328 331 
L 2328 0 
L 353 0 
z
" transform="scale(0.015625)"/>
      <path id="DejaVuSerif-69" d="M 622 4353 
Q 622 4497 726 4603 
Q 831 4709 978 4709 
Q 1122 4709 1226 4603 
Q 1331 4497 1331 4353 
Q 1331 4206 1228 4103 
Q 1125 4000 978 4000 
Q 831 4000 726 4103 
Q 622 4206 622 4353 
z
M 1356 331 
L 1900 331 
L 1900 0 
L 231 0 
L 231 331 
L 781 331 
L 781 2988 
L 231 2988 
L 231 3322 
L 1356 3322 
L 1356 331 
z
" transform="scale(0.015625)"/>
     </defs>
     <use xlink:href="#DejaVuSerif-47"/>
     <use xlink:href="#DejaVuSerif-50" x="79.882812"/>
     <use xlink:href="#DejaVuSerif-20" x="147.167969"/>
     <use xlink:href="#DejaVuSerif-46" x="178.955078"/>
     <use xlink:href="#DejaVuSerif-69" x="248.339844"/>
     <use xlink:href="#DejaVuSerif-74" x="280.322266"/>
    </g>
   </g>
   <g id="patch_18">
    <path d="M 123.784812 15.67875 
L 133.384812 15.67875 
L 133.384812 10.07875 
L 123.784812 10.07875 
z
" style="fill: #e74c3c; fill-opacity: 0.2; stroke: #e74c3c; stroke-opacity: 0.2; stroke-linejoin: miter"/>
   </g>
   <g id="text_34">
    <!-- 95% CI -->
    <g transform="translate(139.784812 15.67875) scale(0.08 -0.08)">
     <defs>
      <path id="DejaVuSerif-39" d="M 2994 2091 
Q 2784 1856 2512 1740 
Q 2241 1625 1900 1625 
Q 1206 1625 804 2044 
Q 403 2463 403 3188 
Q 403 3897 839 4323 
Q 1275 4750 2003 4750 
Q 2794 4750 3217 4161 
Q 3641 3572 3641 2478 
Q 3641 1253 3137 581 
Q 2634 -91 1722 -91 
Q 1475 -91 1203 -44 
Q 931 3 647 97 
L 647 872 
L 997 872 
Q 1038 556 1241 387 
Q 1444 219 1784 219 
Q 2391 219 2687 676 
Q 2984 1134 2994 2091 
z
M 1978 4441 
Q 1534 4441 1298 4117 
Q 1063 3794 1063 3188 
Q 1063 2581 1298 2256 
Q 1534 1931 1978 1931 
Q 2422 1931 2658 2245 
Q 2894 2559 2894 3150 
Q 2894 3772 2656 4106 
Q 2419 4441 1978 4441 
z
" transform="scale(0.015625)"/>
      <path id="DejaVuSerif-25" d="M 1434 4459 
Q 1159 4459 1004 4200 
Q 850 3941 850 3475 
Q 850 3016 1008 2753 
Q 1166 2491 1434 2491 
Q 1700 2491 1854 2752 
Q 2009 3013 2009 3475 
Q 2009 3938 1854 4198 
Q 1700 4459 1434 4459 
z
M 4653 2169 
Q 4381 2169 4226 1906 
Q 4072 1644 4072 1178 
Q 4072 719 4228 458 
Q 4384 197 4653 197 
Q 4922 197 5075 458 
Q 5228 719 5228 1178 
Q 5228 1641 5073 1905 
Q 4919 2169 4653 2169 
z
M 4653 2450 
Q 5147 2450 5437 2106 
Q 5728 1763 5728 1178 
Q 5728 594 5436 251 
Q 5144 -91 4653 -91 
Q 4153 -91 3862 251 
Q 3572 594 3572 1178 
Q 3572 1766 3864 2108 
Q 4156 2450 4653 2450 
z
M 4263 4750 
L 4738 4750 
L 1819 -91 
L 1344 -91 
L 4263 4750 
z
M 1428 4750 
Q 1922 4750 2215 4408 
Q 2509 4066 2509 3481 
Q 2509 2891 2217 2550 
Q 1925 2209 1428 2209 
Q 931 2209 642 2551 
Q 353 2894 353 3481 
Q 353 4063 643 4406 
Q 934 4750 1428 4750 
z
" transform="scale(0.015625)"/>
      <path id="DejaVuSerif-43" d="M 4513 1234 
Q 4306 581 3820 245 
Q 3334 -91 2591 -91 
Q 2134 -91 1743 65 
Q 1353 222 1050 525 
Q 700 875 529 1320 
Q 359 1766 359 2328 
Q 359 3416 987 4083 
Q 1616 4750 2644 4750 
Q 3025 4750 3456 4650 
Q 3888 4550 4384 4347 
L 4384 3272 
L 4031 3272 
Q 3916 3859 3567 4137 
Q 3219 4416 2591 4416 
Q 1844 4416 1459 3886 
Q 1075 3356 1075 2328 
Q 1075 1303 1459 773 
Q 1844 244 2591 244 
Q 3113 244 3450 492 
Q 3788 741 3938 1234 
L 4513 1234 
z
" transform="scale(0.015625)"/>
      <path id="DejaVuSerif-49" d="M 1581 331 
L 2175 331 
L 2175 0 
L 353 0 
L 353 331 
L 947 331 
L 947 4331 
L 353 4331 
L 353 4666 
L 2175 4666 
L 2175 4331 
L 1581 4331 
L 1581 331 
z
" transform="scale(0.015625)"/>
     </defs>
     <use xlink:href="#DejaVuSerif-39"/>
     <use xlink:href="#DejaVuSerif-35" x="63.623047"/>
     <use xlink:href="#DejaVuSerif-25" x="127.246094"/>
     <use xlink:href="#DejaVuSerif-20" x="222.265625"/>
     <use xlink:href="#DejaVuSerif-43" x="254.052734"/>
     <use xlink:href="#DejaVuSerif-49" x="330.566406"/>
    </g>
   </g>
   <g id="PathCollection_8">
    <g>
     <use xlink:href="#m81bbc33b04" x="183.789813" y="13.57875" style="fill: #ffffff; fill-opacity: 0.8; stroke: #d62728; stroke-opacity: 0.8"/>
    </g>
   </g>
   <g id="text_35">
    <!-- Pred -->
    <g transform="translate(194.989812 15.67875) scale(0.08 -0.08)">
     <defs>
      <path id="DejaVuSerif-72" d="M 3059 3328 
L 3059 2497 
L 2728 2497 
Q 2713 2744 2591 2866 
Q 2469 2988 2234 2988 
Q 1809 2988 1582 2694 
Q 1356 2400 1356 1850 
L 1356 331 
L 2022 331 
L 2022 0 
L 263 0 
L 263 331 
L 781 331 
L 781 2994 
L 231 2994 
L 231 3322 
L 1356 3322 
L 1356 2731 
Q 1525 3078 1790 3245 
Q 2056 3413 2438 3413 
Q 2578 3413 2733 3391 
Q 2888 3369 3059 3328 
z
" transform="scale(0.015625)"/>
      <path id="DejaVuSerif-65" d="M 3469 1600 
L 991 1600 
L 991 1575 
Q 991 903 1244 561 
Q 1497 219 1991 219 
Q 2369 219 2611 417 
Q 2853 616 2950 1006 
L 3413 1006 
Q 3275 459 2904 184 
Q 2534 -91 1931 -91 
Q 1203 -91 761 389 
Q 319 869 319 1663 
Q 319 2450 753 2931 
Q 1188 3413 1894 3413 
Q 2647 3413 3050 2948 
Q 3453 2484 3469 1600 
z
M 2791 1931 
Q 2772 2513 2545 2808 
Q 2319 3103 1894 3103 
Q 1497 3103 1269 2806 
Q 1041 2509 991 1931 
L 2791 1931 
z
" transform="scale(0.015625)"/>
      <path id="DejaVuSerif-64" d="M 3359 331 
L 3909 331 
L 3909 0 
L 2784 0 
L 2784 519 
Q 2616 206 2355 57 
Q 2094 -91 1709 -91 
Q 1097 -91 708 395 
Q 319 881 319 1663 
Q 319 2444 706 2928 
Q 1094 3413 1709 3413 
Q 2094 3413 2355 3264 
Q 2616 3116 2784 2803 
L 2784 4531 
L 2241 4531 
L 2241 4863 
L 3359 4863 
L 3359 331 
z
M 2784 1497 
L 2784 1825 
Q 2784 2422 2554 2737 
Q 2325 3053 1888 3053 
Q 1444 3053 1217 2703 
Q 991 2353 991 1663 
Q 991 975 1217 622 
Q 1444 269 1888 269 
Q 2325 269 2554 583 
Q 2784 897 2784 1497 
z
" transform="scale(0.015625)"/>
     </defs>
     <use xlink:href="#DejaVuSerif-50"/>
     <use xlink:href="#DejaVuSerif-72" x="67.285156"/>
     <use xlink:href="#DejaVuSerif-65" x="115.087891"/>
     <use xlink:href="#DejaVuSerif-64" x="174.267578"/>
    </g>
   </g>
  </g>
 </g>
 <defs>
  <clipPath id="p9eb74aea52">
   <rect x="38.836562" y="19.4" width="198.357" height="61.55925"/>
  </clipPath>
  <clipPath id="p43feaeae30">
   <rect x="38.836562" y="111.738875" width="198.357" height="61.55925"/>
  </clipPath>
  <clipPath id="p6e345a8e99">
   <rect x="38.836562" y="204.07775" width="198.357" height="61.55925"/>
  </clipPath>
 </defs>
</svg>
