<?xml version="1.0" encoding="utf-8" standalone="no"?>
<!DOCTYPE svg PUBLIC "-//W3C//DTD SVG 1.1//EN"
  "http://www.w3.org/Graphics/SVG/1.1/DTD/svg11.dtd">
<svg xmlns:xlink="http://www.w3.org/1999/xlink" width="210.292pt" height="131.14825pt" viewBox="0 0 210.292 131.14825" xmlns="http://www.w3.org/2000/svg" version="1.1">
 <metadata>
  <rdf:RDF xmlns:dc="http://purl.org/dc/elements/1.1/" xmlns:cc="http://creativecommons.org/ns#" xmlns:rdf="http://www.w3.org/1999/02/22-rdf-syntax-ns#">
   <cc:Work>
    <dc:type rdf:resource="http://purl.org/dc/dcmitype/StillImage"/>
    <dc:date>2026-02-09T14:45:36.742434</dc:date>
    <dc:format>image/svg+xml</dc:format>
    <dc:creator>
     <cc:Agent>
      <dc:title>Matplotlib v3.7.5, https://matplotlib.org/</dc:title>
     </cc:Agent>
    </dc:creator>
   </cc:Work>
  </rdf:RDF>
 </metadata>
 <defs>
  <style type="text/css">*{stroke-linejoin: round; stroke-linecap: butt}</style>
 </defs>
 <g id="figure_1">
  <g id="patch_1">
   <path d="M 0 131.14825 
L 210.292 131.14825 
L 210.292 0 
L 0 0 
z
" style="fill: #ffffff"/>
  </g>
  <g id="axes_1">
   <g id="patch_2">
    <path d="M 41.74 97.092 
L 203.092 97.092 
L 203.092 7.2 
L 41.74 7.2 
z
" style="fill: #ffffff"/>
   </g>
   <g id="matplotlib.axis_1">
    <g id="xtick_1">
     <g id="line2d_1">
      <path d="M 59.093819 97.092 
L 59.093819 7.2 
" clip-path="url(#pf6b38be64c)" style="fill: none; stroke-dasharray: 1.85,0.8; stroke-dashoffset: 0; stroke: #b0b0b0; stroke-opacity: 0.5; stroke-width: 0.5"/>
     </g>
     <g id="line2d_2">
      <defs>
       <path id="m633cefd60e" d="M 0 0 
L 0 -3 
" style="stroke: #000000; stroke-width: 0.5"/>
      </defs>
      <g>
       <use xlink:href="#m633cefd60e" x="59.093819" y="97.092" style="stroke: #000000; stroke-width: 0.5"/>
      </g>
     </g>
     <g id="text_1">
      <!-- −4 -->
      <g transform="translate(53.196944 106.67075) scale(0.08 -0.08)">
       <defs>
        <path id="DejaVuSerif-2212" d="M 678 2259 
L 4684 2259 
L 4684 1753 
L 678 1753 
L 678 2259 
z
" transform="scale(0.015625)"/>
        <path id="DejaVuSerif-34" d="M 2234 1581 
L 2234 4063 
L 641 1581 
L 2234 1581 
z
M 3609 0 
L 1484 0 
L 1484 331 
L 2234 331 
L 2234 1247 
L 197 1247 
L 197 1588 
L 2241 4750 
L 2859 4750 
L 2859 1581 
L 3750 1581 
L 3750 1247 
L 2859 1247 
L 2859 331 
L 3609 331 
L 3609 0 
z
" transform="scale(0.015625)"/>
       </defs>
       <use xlink:href="#DejaVuSerif-2212"/>
       <use xlink:href="#DejaVuSerif-34" x="83.789062"/>
      </g>
     </g>
    </g>
    <g id="xtick_2">
     <g id="line2d_3">
      <path d="M 93.111962 97.092 
L 93.111962 7.2 
" clip-path="url(#pf6b38be64c)" style="fill: none; stroke-dasharray: 1.85,0.8; stroke-dashoffset: 0; stroke: #b0b0b0; stroke-opacity: 0.5; stroke-width: 0.5"/>
     </g>
     <g id="line2d_4">
      <g>
       <use xlink:href="#m633cefd60e" x="93.111962" y="97.092" style="stroke: #000000; stroke-width: 0.5"/>
      </g>
     </g>
     <g id="text_2">
      <!-- −2 -->
      <g transform="translate(87.215087 106.67075) scale(0.08 -0.08)">
       <defs>
        <path id="DejaVuSerif-32" d="M 819 3553 
L 469 3553 
L 469 4384 
Q 803 4563 1142 4656 
Q 1481 4750 1806 4750 
Q 2534 4750 2956 4397 
Q 3378 4044 3378 3438 
Q 3378 2753 2422 1800 
Q 2347 1728 2309 1691 
L 1131 513 
L 3078 513 
L 3078 1088 
L 3444 1088 
L 3444 0 
L 434 0 
L 434 341 
L 1850 1753 
Q 2319 2222 2519 2614 
Q 2719 3006 2719 3438 
Q 2719 3909 2473 4175 
Q 2228 4441 1797 4441 
Q 1350 4441 1106 4219 
Q 863 3997 819 3553 
z
" transform="scale(0.015625)"/>
       </defs>
       <use xlink:href="#DejaVuSerif-2212"/>
       <use xlink:href="#DejaVuSerif-32" x="83.789062"/>
      </g>
     </g>
    </g>
    <g id="xtick_3">
     <g id="line2d_5">
      <path d="M 127.130104 97.092 
L 127.130104 7.2 
" clip-path="url(#pf6b38be64c)" style="fill: none; stroke-dasharray: 1.85,0.8; stroke-dashoffset: 0; stroke: #b0b0b0; stroke-opacity: 0.5; stroke-width: 0.5"/>
     </g>
     <g id="line2d_6">
      <g>
       <use xlink:href="#m633cefd60e" x="127.130104" y="97.092" style="stroke: #000000; stroke-width: 0.5"/>
      </g>
     </g>
     <g id="text_3">
      <!-- 0 -->
      <g transform="translate(124.585104 106.67075) scale(0.08 -0.08)">
       <defs>
        <path id="DejaVuSerif-30" d="M 2034 219 
Q 2513 219 2750 744 
Q 2988 1269 2988 2328 
Q 2988 3391 2750 3916 
Q 2513 4441 2034 4441 
Q 1556 4441 1318 3916 
Q 1081 3391 1081 2328 
Q 1081 1269 1318 744 
Q 1556 219 2034 219 
z
M 2034 -91 
Q 1275 -91 848 546 
Q 422 1184 422 2328 
Q 422 3475 848 4112 
Q 1275 4750 2034 4750 
Q 2797 4750 3222 4112 
Q 3647 3475 3647 2328 
Q 3647 1184 3222 546 
Q 2797 -91 2034 -91 
z
" transform="scale(0.015625)"/>
       </defs>
       <use xlink:href="#DejaVuSerif-30"/>
      </g>
     </g>
    </g>
    <g id="xtick_4">
     <g id="line2d_7">
      <path d="M 161.148247 97.092 
L 161.148247 7.2 
" clip-path="url(#pf6b38be64c)" style="fill: none; stroke-dasharray: 1.85,0.8; stroke-dashoffset: 0; stroke: #b0b0b0; stroke-opacity: 0.5; stroke-width: 0.5"/>
     </g>
     <g id="line2d_8">
      <g>
       <use xlink:href="#m633cefd60e" x="161.148247" y="97.092" style="stroke: #000000; stroke-width: 0.5"/>
      </g>
     </g>
     <g id="text_4">
      <!-- 2 -->
      <g transform="translate(158.603247 106.67075) scale(0.08 -0.08)">
       <use xlink:href="#DejaVuSerif-32"/>
      </g>
     </g>
    </g>
    <g id="xtick_5">
     <g id="line2d_9">
      <path d="M 195.16639 97.092 
L 195.16639 7.2 
" clip-path="url(#pf6b38be64c)" style="fill: none; stroke-dasharray: 1.85,0.8; stroke-dashoffset: 0; stroke: #b0b0b0; stroke-opacity: 0.5; stroke-width: 0.5"/>
     </g>
     <g id="line2d_10">
      <g>
       <use xlink:href="#m633cefd60e" x="195.16639" y="97.092" style="stroke: #000000; stroke-width: 0.5"/>
      </g>
     </g>
     <g id="text_5">
      <!-- 4 -->
      <g transform="translate(192.62139 106.67075) scale(0.08 -0.08)">
       <use xlink:href="#DejaVuSerif-34"/>
      </g>
     </g>
    </g>
    <g id="text_6">
     <!-- $v_{x}$ [m/s] -->
     <g transform="translate(100.216 121.452625) scale(0.12 -0.12)">
      <defs>
       <path id="STIXGeneral-Italic-76" d="M 1325 448 
L 1523 653 
Q 1869 1005 2134 1456 
Q 2400 1907 2400 2131 
Q 2400 2208 2285 2317 
Q 2125 2458 2125 2605 
Q 2125 2701 2195 2761 
Q 2266 2822 2368 2822 
Q 2522 2822 2624 2704 
Q 2726 2586 2726 2445 
Q 2726 2074 2323 1453 
Q 1971 909 1562 474 
Q 1504 416 1421 326 
Q 1338 237 1299 192 
Q 1261 147 1200 86 
Q 1139 26 1110 -3 
Q 1082 -32 1043 -64 
Q 1005 -96 979 -105 
Q 954 -115 928 -115 
Q 870 -115 870 58 
L 870 211 
Q 870 1094 717 1990 
Q 653 2355 579 2470 
Q 506 2586 326 2586 
Q 198 2586 128 2579 
L 128 2662 
Q 480 2720 845 2797 
Q 915 2822 973 2822 
Q 1011 2822 1033 2739 
Q 1056 2656 1165 2093 
Q 1280 1510 1325 448 
z
" transform="scale(0.015625)"/>
       <path id="STIXGeneral-Italic-78" d="M 1555 2272 
L 1632 1907 
Q 1971 2426 2179 2624 
Q 2387 2822 2598 2822 
Q 2714 2822 2787 2755 
Q 2861 2688 2861 2585 
Q 2861 2483 2800 2419 
Q 2739 2355 2643 2355 
Q 2586 2355 2490 2409 
Q 2394 2464 2310 2464 
Q 2125 2464 1683 1690 
Q 1683 1606 1734 1402 
L 1939 544 
Q 2003 282 2131 282 
Q 2234 282 2432 538 
Q 2451 563 2476 598 
Q 2502 634 2521 662 
Q 2541 691 2566 717 
L 2662 659 
Q 2387 230 2227 80 
Q 2067 -70 1882 -70 
Q 1728 -70 1645 26 
Q 1562 122 1504 365 
L 1318 1126 
L 755 365 
Q 557 96 432 13 
Q 307 -70 147 -70 
Q 0 -70 -86 0 
Q -173 70 -173 198 
Q -173 294 -112 361 
Q -51 429 45 429 
Q 122 429 250 358 
Q 346 301 416 301 
Q 525 301 742 614 
L 1267 1357 
L 1088 2150 
Q 1024 2432 969 2509 
Q 915 2586 794 2586 
Q 717 2586 544 2541 
L 429 2509 
L 410 2611 
L 480 2637 
Q 992 2822 1229 2822 
Q 1350 2822 1420 2707 
Q 1491 2592 1555 2272 
z
" transform="scale(0.015625)"/>
       <path id="DejaVuSerif-20" transform="scale(0.015625)"/>
       <path id="DejaVuSerif-5b" d="M 550 4863 
L 2003 4863 
L 2003 4531 
L 1147 4531 
L 1147 -513 
L 2003 -513 
L 2003 -844 
L 550 -844 
L 550 4863 
z
" transform="scale(0.015625)"/>
       <path id="DejaVuSerif-6d" d="M 3316 2675 
Q 3481 3041 3739 3227 
Q 3997 3413 4341 3413 
Q 4863 3413 5119 3089 
Q 5375 2766 5375 2113 
L 5375 331 
L 5894 331 
L 5894 0 
L 4300 0 
L 4300 331 
L 4800 331 
L 4800 2047 
Q 4800 2556 4650 2772 
Q 4500 2988 4153 2988 
Q 3769 2988 3567 2697 
Q 3366 2406 3366 1850 
L 3366 331 
L 3866 331 
L 3866 0 
L 2291 0 
L 2291 331 
L 2791 331 
L 2791 2069 
Q 2791 2566 2641 2777 
Q 2491 2988 2144 2988 
Q 1759 2988 1557 2697 
Q 1356 2406 1356 1850 
L 1356 331 
L 1856 331 
L 1856 0 
L 263 0 
L 263 331 
L 781 331 
L 781 2994 
L 231 2994 
L 231 3322 
L 1356 3322 
L 1356 2731 
Q 1516 3063 1762 3238 
Q 2009 3413 2322 3413 
Q 2709 3413 2968 3220 
Q 3228 3028 3316 2675 
z
" transform="scale(0.015625)"/>
       <path id="DejaVuSerif-2f" d="M 1656 4666 
L 2156 4666 
L 500 -594 
L 0 -594 
L 1656 4666 
z
" transform="scale(0.015625)"/>
       <path id="DejaVuSerif-73" d="M 359 184 
L 359 959 
L 691 959 
Q 703 588 923 403 
Q 1144 219 1575 219 
Q 1963 219 2166 364 
Q 2369 509 2369 788 
Q 2369 1006 2220 1140 
Q 2072 1275 1594 1428 
L 1178 1569 
Q 750 1706 558 1912 
Q 366 2119 366 2438 
Q 366 2894 700 3153 
Q 1034 3413 1625 3413 
Q 1888 3413 2178 3344 
Q 2469 3275 2778 3144 
L 2778 2419 
L 2447 2419 
Q 2434 2741 2221 2922 
Q 2009 3103 1644 3103 
Q 1281 3103 1095 2975 
Q 909 2847 909 2591 
Q 909 2381 1050 2254 
Q 1191 2128 1613 1997 
L 2069 1856 
Q 2541 1709 2748 1489 
Q 2956 1269 2956 922 
Q 2956 450 2595 179 
Q 2234 -91 1600 -91 
Q 1278 -91 972 -22 
Q 666 47 359 184 
z
" transform="scale(0.015625)"/>
       <path id="DejaVuSerif-5d" d="M 1947 4863 
L 1947 -844 
L 494 -844 
L 494 -513 
L 1350 -513 
L 1350 4531 
L 494 4531 
L 494 4863 
L 1947 4863 
z
" transform="scale(0.015625)"/>
      </defs>
      <use xlink:href="#STIXGeneral-Italic-76" transform="translate(0 0.015625)"/>
      <use xlink:href="#STIXGeneral-Italic-78" transform="translate(44.399994 -13.2125) scale(0.7)"/>
      <use xlink:href="#DejaVuSerif-20" transform="translate(79.889365 0.015625)"/>
      <use xlink:href="#DejaVuSerif-5b" transform="translate(111.676474 0.015625)"/>
      <use xlink:href="#DejaVuSerif-6d" transform="translate(150.690146 0.015625)"/>
      <use xlink:href="#DejaVuSerif-2f" transform="translate(245.514365 0.015625)"/>
      <use xlink:href="#DejaVuSerif-73" transform="translate(279.205771 0.015625)"/>
      <use xlink:href="#DejaVuSerif-5d" transform="translate(330.52413 0.015625)"/>
     </g>
    </g>
   </g>
   <g id="matplotlib.axis_2">
    <g id="ytick_1">
     <g id="line2d_11">
      <path d="M 41.74 95.0082 
L 203.092 95.0082 
" clip-path="url(#pf6b38be64c)" style="fill: none; stroke-dasharray: 1.85,0.8; stroke-dashoffset: 0; stroke: #b0b0b0; stroke-opacity: 0.5; stroke-width: 0.5"/>
     </g>
     <g id="line2d_12">
      <defs>
       <path id="md457c49b91" d="M 0 0 
L 3 0 
" style="stroke: #000000; stroke-width: 0.5"/>
      </defs>
      <g>
       <use xlink:href="#md457c49b91" x="41.74" y="95.0082" style="stroke: #000000; stroke-width: 0.5"/>
      </g>
     </g>
     <g id="text_7">
      <!-- -2.0 -->
      <g transform="translate(22.81375 98.047575) scale(0.08 -0.08)">
       <defs>
        <path id="DejaVuSerif-2d" d="M 281 1959 
L 1881 1959 
L 1881 1472 
L 281 1472 
L 281 1959 
z
" transform="scale(0.015625)"/>
        <path id="DejaVuSerif-2e" d="M 603 325 
Q 603 500 722 622 
Q 841 744 1019 744 
Q 1191 744 1312 622 
Q 1434 500 1434 325 
Q 1434 153 1312 31 
Q 1191 -91 1019 -91 
Q 841 -91 722 29 
Q 603 150 603 325 
z
" transform="scale(0.015625)"/>
       </defs>
       <use xlink:href="#DejaVuSerif-2d"/>
       <use xlink:href="#DejaVuSerif-32" x="33.789062"/>
       <use xlink:href="#DejaVuSerif-2e" x="97.412109"/>
       <use xlink:href="#DejaVuSerif-30" x="129.199219"/>
      </g>
     </g>
    </g>
    <g id="ytick_2">
     <g id="line2d_13">
      <path d="M 41.74 65.314383 
L 203.092 65.314383 
" clip-path="url(#pf6b38be64c)" style="fill: none; stroke-dasharray: 1.85,0.8; stroke-dashoffset: 0; stroke: #b0b0b0; stroke-opacity: 0.5; stroke-width: 0.5"/>
     </g>
     <g id="line2d_14">
      <g>
       <use xlink:href="#md457c49b91" x="41.74" y="65.314383" style="stroke: #000000; stroke-width: 0.5"/>
      </g>
     </g>
     <g id="text_8">
      <!-- 0.0 -->
      <g transform="translate(25.5175 68.353758) scale(0.08 -0.08)">
       <use xlink:href="#DejaVuSerif-30"/>
       <use xlink:href="#DejaVuSerif-2e" x="63.623047"/>
       <use xlink:href="#DejaVuSerif-30" x="95.410156"/>
      </g>
     </g>
    </g>
    <g id="ytick_3">
     <g id="line2d_15">
      <path d="M 41.74 35.620567 
L 203.092 35.620567 
" clip-path="url(#pf6b38be64c)" style="fill: none; stroke-dasharray: 1.85,0.8; stroke-dashoffset: 0; stroke: #b0b0b0; stroke-opacity: 0.5; stroke-width: 0.5"/>
     </g>
     <g id="line2d_16">
      <g>
       <use xlink:href="#md457c49b91" x="41.74" y="35.620567" style="stroke: #000000; stroke-width: 0.5"/>
      </g>
     </g>
     <g id="text_9">
      <!-- 2.0 -->
      <g transform="translate(25.5175 38.659942) scale(0.08 -0.08)">
       <use xlink:href="#DejaVuSerif-32"/>
       <use xlink:href="#DejaVuSerif-2e" x="63.623047"/>
       <use xlink:href="#DejaVuSerif-30" x="95.410156"/>
      </g>
     </g>
    </g>
    <g id="text_10">
     <!-- $\Delta a_{x}$ [m/s²] -->
     <g transform="translate(16.318125 81.426) rotate(-90) scale(0.12 -0.12)">
      <defs>
       <path id="STIXGeneral-Regular-394" d="M 4320 0 
L 307 0 
L 2221 4314 
L 2349 4314 
L 4320 0 
z
M 3354 589 
L 2118 3405 
L 870 589 
L 3354 589 
z
" transform="scale(0.015625)"/>
       <path id="STIXGeneral-Italic-61" d="M 2963 710 
L 3046 640 
Q 2688 205 2518 70 
Q 2349 -64 2157 -64 
Q 1901 -64 1901 198 
Q 1901 358 2048 934 
Q 1690 397 1389 163 
Q 1088 -70 749 -70 
Q 467 -70 288 125 
Q 109 320 109 672 
Q 109 1158 387 1664 
Q 666 2170 1094 2496 
Q 1523 2822 1939 2822 
Q 2368 2822 2451 2451 
L 2522 2758 
L 2541 2778 
L 2931 2822 
L 2976 2803 
Q 2970 2778 2938 2669 
Q 2368 595 2368 346 
Q 2368 262 2458 262 
Q 2554 262 2790 525 
L 2963 710 
z
M 2336 2310 
Q 2336 2477 2240 2579 
Q 2144 2682 1978 2682 
Q 1542 2682 1139 2093 
Q 928 1779 787 1395 
Q 646 1011 646 717 
Q 646 243 1030 243 
Q 1408 243 1843 870 
Q 2336 1581 2336 2310 
z
" transform="scale(0.015625)"/>
       <path id="DejaVuSerif-b2" d="M 531 4050 
L 313 4050 
L 313 4544 
Q 519 4644 737 4697 
Q 956 4750 1172 4750 
Q 1603 4750 1870 4544 
Q 2138 4338 2138 4013 
Q 2138 3631 1531 3088 
L 1472 3034 
L 728 2363 
L 1931 2363 
L 1931 2700 
L 2163 2700 
L 2163 2088 
L 281 2088 
L 281 2322 
L 1172 3116 
Q 1441 3356 1556 3547 
Q 1672 3738 1672 3944 
Q 1672 4209 1520 4364 
Q 1369 4519 1106 4519 
Q 863 4519 716 4400 
Q 569 4281 531 4050 
z
" transform="scale(0.015625)"/>
      </defs>
      <use xlink:href="#STIXGeneral-Regular-394" transform="translate(0 0.015625)"/>
      <use xlink:href="#STIXGeneral-Italic-61" transform="translate(72.199982 0.015625)"/>
      <use xlink:href="#STIXGeneral-Italic-78" transform="translate(122.299973 -13.2125) scale(0.7)"/>
      <use xlink:href="#DejaVuSerif-20" transform="translate(157.789343 0.015625)"/>
      <use xlink:href="#DejaVuSerif-5b" transform="translate(189.576453 0.015625)"/>
      <use xlink:href="#DejaVuSerif-6d" transform="translate(228.590125 0.015625)"/>
      <use xlink:href="#DejaVuSerif-2f" transform="translate(323.414343 0.015625)"/>
      <use xlink:href="#DejaVuSerif-73" transform="translate(357.10575 0.015625)"/>
      <use xlink:href="#DejaVuSerif-b2" transform="translate(408.424109 0.015625)"/>
      <use xlink:href="#DejaVuSerif-5d" transform="translate(448.512 0.015625)"/>
     </g>
    </g>
   </g>
   <g id="PolyCollection_1">
    <defs>
     <path id="mf280adbfa5" d="M 49.074182 -119.86225 
L 49.074182 -115.754075 
L 49.811286 -115.234025 
L 50.548389 -114.674563 
L 51.285493 -114.114888 
L 52.022597 -113.54692 
L 52.7597 -112.954662 
L 53.496804 -112.377441 
L 54.233908 -111.787586 
L 54.971011 -111.195512 
L 55.708115 -110.560812 
L 56.445219 -109.97888 
L 57.182323 -109.359033 
L 57.919426 -108.713989 
L 58.65653 -108.084404 
L 59.393634 -107.450228 
L 60.130737 -106.818395 
L 60.867841 -106.138839 
L 61.604945 -105.431085 
L 62.342048 -104.830937 
L 63.079152 -104.12285 
L 63.816256 -103.519506 
L 64.55336 -102.818311 
L 65.290463 -102.165367 
L 66.027567 -101.541601 
L 66.764671 -100.776428 
L 67.501774 -100.144273 
L 68.238878 -99.404622 
L 68.975982 -98.74348 
L 69.713085 -98.071439 
L 70.450189 -97.438056 
L 71.187293 -96.800605 
L 71.924397 -96.063432 
L 72.6615 -95.445914 
L 73.398604 -94.719906 
L 74.135708 -94.052302 
L 74.872811 -93.472925 
L 75.609915 -92.804877 
L 76.347019 -92.157669 
L 77.084122 -91.519553 
L 77.821226 -90.875478 
L 78.55833 -90.26242 
L 79.295434 -89.653996 
L 80.032537 -89.040688 
L 80.769641 -88.435149 
L 81.506745 -87.825222 
L 82.243848 -87.288804 
L 82.980952 -86.608701 
L 83.718056 -86.046218 
L 84.455159 -85.502412 
L 85.192263 -84.992019 
L 85.929367 -84.458438 
L 86.666471 -83.846723 
L 87.403574 -83.351538 
L 88.140678 -82.819589 
L 88.877782 -82.289656 
L 89.614885 -81.79405 
L 90.351989 -81.320505 
L 91.089093 -80.833801 
L 91.826196 -80.306511 
L 92.5633 -79.865999 
L 93.300404 -79.376804 
L 94.037508 -78.988254 
L 94.774611 -78.505445 
L 95.511715 -78.081527 
L 96.248819 -77.69722 
L 96.985922 -77.265845 
L 97.723026 -76.849416 
L 98.46013 -76.454027 
L 99.197233 -76.060988 
L 99.934337 -75.678307 
L 100.671441 -75.296744 
L 101.408545 -74.966119 
L 102.145648 -74.648248 
L 102.882752 -74.29703 
L 103.619856 -73.96165 
L 104.356959 -73.64095 
L 105.094063 -73.340344 
L 105.831167 -73.059913 
L 106.56827 -72.760501 
L 107.305374 -72.482494 
L 108.042478 -72.218632 
L 108.779582 -71.945879 
L 109.516685 -71.711291 
L 110.253789 -71.457416 
L 110.990893 -71.22334 
L 111.727996 -71.013933 
L 112.4651 -70.804963 
L 113.202204 -70.593833 
L 113.939307 -70.396138 
L 114.676411 -70.212599 
L 115.413515 -70.016609 
L 116.150619 -69.854279 
L 116.887722 -69.689019 
L 117.624826 -69.524342 
L 118.36193 -69.381666 
L 119.099033 -69.232896 
L 119.836137 -69.091048 
L 120.573241 -68.955755 
L 121.310344 -68.822154 
L 122.047448 -68.714448 
L 122.784552 -68.597434 
L 123.521656 -68.49417 
L 124.258759 -68.389145 
L 124.995863 -68.290523 
L 125.732967 -68.195867 
L 126.47007 -68.101653 
L 127.207174 -68.021557 
L 127.944278 -67.938617 
L 128.681381 -67.858962 
L 129.418485 -67.78525 
L 130.155589 -67.712886 
L 130.892693 -67.634814 
L 131.629796 -67.562034 
L 132.3669 -67.494266 
L 133.104004 -67.433661 
L 133.841107 -67.370706 
L 134.578211 -67.292623 
L 135.315315 -67.242514 
L 136.052418 -67.162472 
L 136.789522 -67.109147 
L 137.526626 -67.036092 
L 138.26373 -66.971223 
L 139.000833 -66.904957 
L 139.737937 -66.838398 
L 140.475041 -66.765807 
L 141.212144 -66.688444 
L 141.949248 -66.614447 
L 142.686352 -66.525906 
L 143.423455 -66.455365 
L 144.160559 -66.365517 
L 144.897663 -66.280838 
L 145.634767 -66.184942 
L 146.37187 -66.066813 
L 147.108974 -65.964877 
L 147.846078 -65.860126 
L 148.583181 -65.740926 
L 149.320285 -65.604593 
L 150.057389 -65.482643 
L 150.794492 -65.35614 
L 151.531596 -65.201483 
L 152.2687 -65.054735 
L 153.005804 -64.906486 
L 153.742907 -64.728834 
L 154.480011 -64.57294 
L 155.217115 -64.376732 
L 155.954218 -64.202164 
L 156.691322 -63.998295 
L 157.428426 -63.799044 
L 158.165529 -63.575246 
L 158.902633 -63.362005 
L 159.639737 -63.122758 
L 160.376841 -62.883414 
L 161.113944 -62.631663 
L 161.851048 -62.372138 
L 162.588152 -62.098935 
L 163.325255 -61.82241 
L 164.062359 -61.53087 
L 164.799463 -61.225923 
L 165.536566 -60.920714 
L 166.27367 -60.603322 
L 167.010774 -60.277281 
L 167.747878 -59.938909 
L 168.484981 -59.584512 
L 169.222085 -59.224584 
L 169.959189 -58.858432 
L 170.696292 -58.474867 
L 171.433396 -58.086189 
L 172.1705 -57.686939 
L 172.907603 -57.274413 
L 173.644707 -56.852918 
L 174.381811 -56.400271 
L 175.118915 -55.952801 
L 175.856018 -55.493827 
L 176.593122 -55.007206 
L 177.330226 -54.536295 
L 178.067329 -54.035472 
L 178.804433 -53.507985 
L 179.541537 -52.995811 
L 180.27864 -52.44604 
L 181.015744 -51.884921 
L 181.752848 -51.327971 
L 182.489952 -50.734215 
L 183.227055 -50.141774 
L 183.964159 -49.542047 
L 184.701263 -48.91477 
L 185.438366 -48.276093 
L 186.17547 -47.634151 
L 186.912574 -46.974194 
L 187.649677 -46.299891 
L 188.386781 -45.618279 
L 189.123885 -44.915776 
L 189.860989 -44.203493 
L 190.598092 -43.478251 
L 191.335196 -42.759198 
L 192.0723 -42.013835 
L 192.809403 -41.253247 
L 193.546507 -40.495858 
L 194.283611 -39.719289 
L 195.020714 -38.931658 
L 195.757818 -38.14225 
L 195.757818 -42.968321 
L 195.757818 -42.968321 
L 195.020714 -43.46393 
L 194.283611 -43.962853 
L 193.546507 -44.470523 
L 192.809403 -44.978067 
L 192.0723 -45.487048 
L 191.335196 -45.988085 
L 190.598092 -46.506942 
L 189.860989 -47.011107 
L 189.123885 -47.531326 
L 188.386781 -48.038153 
L 187.649677 -48.545796 
L 186.912574 -49.053025 
L 186.17547 -49.5607 
L 185.438366 -50.066308 
L 184.701263 -50.565918 
L 183.964159 -51.066116 
L 183.227055 -51.573785 
L 182.489952 -52.074846 
L 181.752848 -52.55914 
L 181.015744 -53.055529 
L 180.27864 -53.529214 
L 179.541537 -54.004985 
L 178.804433 -54.493638 
L 178.067329 -54.95462 
L 177.330226 -55.408291 
L 176.593122 -55.887236 
L 175.856018 -56.327309 
L 175.118915 -56.774946 
L 174.381811 -57.210923 
L 173.644707 -57.63709 
L 172.907603 -58.046527 
L 172.1705 -58.471112 
L 171.433396 -58.870362 
L 170.696292 -59.270917 
L 169.959189 -59.642606 
L 169.222085 -60.014717 
L 168.484981 -60.377609 
L 167.747878 -60.729043 
L 167.010774 -61.073332 
L 166.27367 -61.405244 
L 165.536566 -61.722636 
L 164.799463 -62.033675 
L 164.062359 -62.335712 
L 163.325255 -62.612544 
L 162.588152 -62.892032 
L 161.851048 -63.156311 
L 161.113944 -63.418822 
L 160.376841 -63.670573 
L 159.639737 -63.906931 
L 158.902633 -64.134119 
L 158.165529 -64.356422 
L 157.428426 -64.555814 
L 156.691322 -64.764308 
L 155.954218 -64.955827 
L 155.217115 -65.148846 
L 154.480011 -65.314048 
L 153.742907 -65.482497 
L 153.005804 -65.653898 
L 152.2687 -65.805279 
L 151.531596 -65.948895 
L 150.794492 -66.08769 
L 150.057389 -66.223751 
L 149.320285 -66.352005 
L 148.583181 -66.462792 
L 147.846078 -66.572175 
L 147.108974 -66.686742 
L 146.37187 -66.788678 
L 145.634767 -66.883688 
L 144.897663 -66.976219 
L 144.160559 -67.067612 
L 143.423455 -67.150746 
L 142.686352 -67.234653 
L 141.949248 -67.309828 
L 141.212144 -67.38719 
L 140.475041 -67.461187 
L 139.737937 -67.533778 
L 139.000833 -67.596955 
L 138.26373 -67.666604 
L 137.526626 -67.731472 
L 136.789522 -67.794332 
L 136.052418 -67.864567 
L 135.315315 -67.917349 
L 134.578211 -67.984622 
L 133.841107 -68.045542 
L 133.104004 -68.115413 
L 132.3669 -68.169101 
L 131.629796 -68.240336 
L 130.892693 -68.309649 
L 130.155589 -68.37367 
L 129.418485 -68.449575 
L 128.681381 -68.530312 
L 127.944278 -68.59584 
L 127.207174 -68.685882 
L 126.47007 -68.7695 
L 125.732967 -68.863714 
L 124.995863 -68.951307 
L 124.258759 -69.053469 
L 123.521656 -69.158494 
L 122.784552 -69.265281 
L 122.047448 -69.364494 
L 121.310344 -69.503907 
L 120.573241 -69.623601 
L 119.836137 -69.744692 
L 119.099033 -69.890119 
L 118.36193 -70.031712 
L 117.624826 -70.188666 
L 116.887722 -70.339065 
L 116.150619 -70.504325 
L 115.413515 -70.687959 
L 114.676411 -70.862645 
L 113.939307 -71.049783 
L 113.202204 -71.247477 
L 112.4651 -71.44409 
L 111.727996 -71.667577 
L 110.990893 -71.915338 
L 110.253789 -72.132251 
L 109.516685 -72.354079 
L 108.779582 -72.613726 
L 108.042478 -72.872276 
L 107.305374 -73.139718 
L 106.56827 -73.417725 
L 105.831167 -73.69904 
L 105.094063 -74.011693 
L 104.356959 -74.322702 
L 103.619856 -74.625975 
L 102.882752 -74.957813 
L 102.145648 -75.27999 
L 101.408545 -75.647872 
L 100.671441 -76.015353 
L 99.934337 -76.35661 
L 99.197233 -76.746172 
L 98.46013 -77.125376 
L 97.723026 -77.520765 
L 96.985922 -77.90129 
L 96.248819 -78.310115 
L 95.511715 -78.75983 
L 94.774611 -79.200825 
L 94.037508 -79.619996 
L 93.300404 -80.121071 
L 92.5633 -80.564745 
L 91.826196 -81.06328 
L 91.089093 -81.512104 
L 90.351989 -81.995339 
L 89.614885 -82.528798 
L 88.877782 -83.040199 
L 88.140678 -83.554337 
L 87.403574 -84.060283 
L 86.666471 -84.633881 
L 85.929367 -85.115661 
L 85.192263 -85.694112 
L 84.455159 -86.28957 
L 83.718056 -86.882508 
L 82.980952 -87.475299 
L 82.243848 -87.95665 
L 81.506745 -88.606398 
L 80.769641 -89.188814 
L 80.032537 -89.781798 
L 79.295434 -90.385544 
L 78.55833 -91.000354 
L 77.821226 -91.647592 
L 77.084122 -92.26382 
L 76.347019 -92.886003 
L 75.609915 -93.529986 
L 74.872811 -94.140771 
L 74.135708 -94.877297 
L 73.398604 -95.507064 
L 72.6615 -96.103138 
L 71.924397 -96.807699 
L 71.187293 -97.417313 
L 70.450189 -98.126656 
L 69.713085 -98.858601 
L 68.975982 -99.539527 
L 68.238878 -100.243713 
L 67.501774 -100.869383 
L 66.764671 -101.62109 
L 66.027567 -102.2336 
L 65.290463 -102.987509 
L 64.55336 -103.724607 
L 63.816256 -104.425802 
L 63.079152 -105.2125 
L 62.342048 -105.894442 
L 61.604945 -106.69051 
L 60.867841 -107.38516 
L 60.130737 -108.101806 
L 59.393634 -108.872377 
L 58.65653 -109.634417 
L 57.919426 -110.407221 
L 57.182323 -111.158394 
L 56.445219 -111.922402 
L 55.708115 -112.736686 
L 54.971011 -113.492029 
L 54.233908 -114.28381 
L 53.496804 -115.071637 
L 52.7597 -115.872098 
L 52.022597 -116.651349 
L 51.285493 -117.442528 
L 50.548389 -118.235814 
L 49.811286 -119.041687 
L 49.074182 -119.86225 
z
" style="stroke: #e74c3c; stroke-opacity: 0.2"/>
    </defs>
    <g clip-path="url(#pf6b38be64c)">
     <use xlink:href="#mf280adbfa5" x="0" y="131.14825" style="fill: #e74c3c; fill-opacity: 0.2; stroke: #e74c3c; stroke-opacity: 0.2"/>
    </g>
   </g>
   <g id="line2d_17">
    <path d="M 41.74 65.314383 
L 203.092 65.314383 
" clip-path="url(#pf6b38be64c)" style="fill: none; stroke-dasharray: 4.44,1.92; stroke-dashoffset: 0; stroke: #000000; stroke-opacity: 0.7; stroke-width: 1.2"/>
   </g>
   <g id="patch_3">
    <path d="M 41.74 97.092 
L 41.74 7.2 
" style="fill: none; stroke: #000000; stroke-width: 0.5; stroke-linejoin: miter; stroke-linecap: square"/>
   </g>
   <g id="patch_4">
    <path d="M 203.092 97.092 
L 203.092 7.2 
" style="fill: none; stroke: #000000; stroke-width: 0.5; stroke-linejoin: miter; stroke-linecap: square"/>
   </g>
   <g id="patch_5">
    <path d="M 41.74 97.092 
L 203.092 97.092 
" style="fill: none; stroke: #000000; stroke-width: 0.5; stroke-linejoin: miter; stroke-linecap: square"/>
   </g>
   <g id="patch_6">
    <path d="M 41.74 7.2 
L 203.092 7.2 
" style="fill: none; stroke: #000000; stroke-width: 0.5; stroke-linejoin: miter; stroke-linecap: square"/>
   </g>
   <g id="line2d_18">
    <path d="M 49.074182 13.340088 
L 55.708115 19.499501 
L 71.924397 34.712684 
L 78.55833 40.516863 
L 83.718056 44.683887 
L 88.140678 47.961287 
L 91.826196 50.463355 
L 95.511715 52.727571 
L 99.934337 55.130791 
L 103.619856 56.854438 
L 107.305374 58.337144 
L 110.990893 59.578911 
L 114.676411 60.610628 
L 118.36193 61.441561 
L 122.784552 62.216893 
L 128.681381 62.953613 
L 136.789522 63.696511 
L 145.634767 64.613935 
L 151.531596 65.573061 
L 155.217115 66.385461 
L 158.902633 67.400188 
L 162.588152 68.652766 
L 166.27367 70.143967 
L 169.959189 71.897731 
L 173.644707 73.903246 
L 178.067329 76.653204 
L 182.489952 79.74372 
L 186.912574 83.13464 
L 192.0723 87.397808 
L 195.757818 90.592965 
L 195.757818 90.592965 
" clip-path="url(#pf6b38be64c)" style="fill: none; stroke: #e74c3c; stroke-linecap: square"/>
   </g>
   <g id="PathCollection_1">
    <defs>
     <path id="ma92735e7ad" d="M 0 2.738613 
C 0.726289 2.738613 1.422928 2.450055 1.936492 1.936492 
C 2.450055 1.422928 2.738613 0.726289 2.738613 0 
C 2.738613 -0.726289 2.450055 -1.422928 1.936492 -1.936492 
C 1.422928 -2.450055 0.726289 -2.738613 0 -2.738613 
C -0.726289 -2.738613 -1.422928 -2.450055 -1.936492 -1.936492 
C -2.450055 -1.422928 -2.738613 -0.726289 -2.738613 0 
C -2.738613 0.726289 -2.450055 1.422928 -1.936492 1.936492 
C -1.422928 2.450055 -0.726289 2.738613 0 2.738613 
z
" style="stroke: #3498db; stroke-opacity: 0.8; stroke-width: 0.7"/>
    </defs>
    <g clip-path="url(#pf6b38be64c)">
     <use xlink:href="#ma92735e7ad" x="167.536723" y="70.750879" style="fill: #a9bbf1; fill-opacity: 0.8; stroke: #3498db; stroke-opacity: 0.8; stroke-width: 0.7"/>
     <use xlink:href="#ma92735e7ad" x="130.862375" y="63.004739" style="fill: #a9bbf1; fill-opacity: 0.8; stroke: #3498db; stroke-opacity: 0.8; stroke-width: 0.7"/>
     <use xlink:href="#ma92735e7ad" x="129.336504" y="63.039471" style="fill: #a9bbf1; fill-opacity: 0.8; stroke: #3498db; stroke-opacity: 0.8; stroke-width: 0.7"/>
     <use xlink:href="#ma92735e7ad" x="154.472305" y="66.137274" style="fill: #a9bbf1; fill-opacity: 0.8; stroke: #3498db; stroke-opacity: 0.8; stroke-width: 0.7"/>
     <use xlink:href="#ma92735e7ad" x="178.832783" y="77.116834" style="fill: #a9bbf1; fill-opacity: 0.8; stroke: #3498db; stroke-opacity: 0.8; stroke-width: 0.7"/>
     <use xlink:href="#ma92735e7ad" x="129.535731" y="63.108469" style="fill: #a9bbf1; fill-opacity: 0.8; stroke: #3498db; stroke-opacity: 0.8; stroke-width: 0.7"/>
     <use xlink:href="#ma92735e7ad" x="98.655228" y="54.245004" style="fill: #a9bbf1; fill-opacity: 0.8; stroke: #3498db; stroke-opacity: 0.8; stroke-width: 0.7"/>
     <use xlink:href="#ma92735e7ad" x="96.212791" y="52.998048" style="fill: #a9bbf1; fill-opacity: 0.8; stroke: #3498db; stroke-opacity: 0.8; stroke-width: 0.7"/>
     <use xlink:href="#ma92735e7ad" x="121.915545" y="62.238992" style="fill: #a9bbf1; fill-opacity: 0.8; stroke: #3498db; stroke-opacity: 0.8; stroke-width: 0.7"/>
     <use xlink:href="#ma92735e7ad" x="70.680832" y="33.690442" style="fill: #a9bbf1; fill-opacity: 0.8; stroke: #3498db; stroke-opacity: 0.8; stroke-width: 0.7"/>
     <use xlink:href="#ma92735e7ad" x="105.643691" y="57.903372" style="fill: #a9bbf1; fill-opacity: 0.8; stroke: #3498db; stroke-opacity: 0.8; stroke-width: 0.7"/>
     <use xlink:href="#ma92735e7ad" x="75.748872" y="38.205846" style="fill: #a9bbf1; fill-opacity: 0.8; stroke: #3498db; stroke-opacity: 0.8; stroke-width: 0.7"/>
     <use xlink:href="#ma92735e7ad" x="172.121718" y="73.125291" style="fill: #a9bbf1; fill-opacity: 0.8; stroke: #3498db; stroke-opacity: 0.8; stroke-width: 0.7"/>
     <use xlink:href="#ma92735e7ad" x="149.146396" y="65.020005" style="fill: #a9bbf1; fill-opacity: 0.8; stroke: #3498db; stroke-opacity: 0.8; stroke-width: 0.7"/>
     <use xlink:href="#ma92735e7ad" x="107.792675" y="58.631054" style="fill: #a9bbf1; fill-opacity: 0.8; stroke: #3498db; stroke-opacity: 0.8; stroke-width: 0.7"/>
     <use xlink:href="#ma92735e7ad" x="124.954755" y="62.594431" style="fill: #a9bbf1; fill-opacity: 0.8; stroke: #3498db; stroke-opacity: 0.8; stroke-width: 0.7"/>
     <use xlink:href="#ma92735e7ad" x="68.277762" y="31.368634" style="fill: #a9bbf1; fill-opacity: 0.8; stroke: #3498db; stroke-opacity: 0.8; stroke-width: 0.7"/>
     <use xlink:href="#ma92735e7ad" x="144.006919" y="64.625631" style="fill: #a9bbf1; fill-opacity: 0.8; stroke: #3498db; stroke-opacity: 0.8; stroke-width: 0.7"/>
     <use xlink:href="#ma92735e7ad" x="134.789014" y="63.409881" style="fill: #a9bbf1; fill-opacity: 0.8; stroke: #3498db; stroke-opacity: 0.8; stroke-width: 0.7"/>
     <use xlink:href="#ma92735e7ad" x="88.720771" y="48.254537" style="fill: #a9bbf1; fill-opacity: 0.8; stroke: #3498db; stroke-opacity: 0.8; stroke-width: 0.7"/>
     <use xlink:href="#ma92735e7ad" x="101.055105" y="55.733157" style="fill: #a9bbf1; fill-opacity: 0.8; stroke: #3498db; stroke-opacity: 0.8; stroke-width: 0.7"/>
     <use xlink:href="#ma92735e7ad" x="139.178119" y="63.842963" style="fill: #a9bbf1; fill-opacity: 0.8; stroke: #3498db; stroke-opacity: 0.8; stroke-width: 0.7"/>
     <use xlink:href="#ma92735e7ad" x="65.999217" y="28.993465" style="fill: #a9bbf1; fill-opacity: 0.8; stroke: #3498db; stroke-opacity: 0.8; stroke-width: 0.7"/>
     <use xlink:href="#ma92735e7ad" x="80.985657" y="42.830065" style="fill: #a9bbf1; fill-opacity: 0.8; stroke: #3498db; stroke-opacity: 0.8; stroke-width: 0.7"/>
     <use xlink:href="#ma92735e7ad" x="103.392261" y="56.704505" style="fill: #a9bbf1; fill-opacity: 0.8; stroke: #3498db; stroke-opacity: 0.8; stroke-width: 0.7"/>
     <use xlink:href="#ma92735e7ad" x="83.591986" y="44.518652" style="fill: #a9bbf1; fill-opacity: 0.8; stroke: #3498db; stroke-opacity: 0.8; stroke-width: 0.7"/>
     <use xlink:href="#ma92735e7ad" x="91.245575" y="50.001477" style="fill: #a9bbf1; fill-opacity: 0.8; stroke: #3498db; stroke-opacity: 0.8; stroke-width: 0.7"/>
     <use xlink:href="#ma92735e7ad" x="78.36111" y="40.351976" style="fill: #a9bbf1; fill-opacity: 0.8; stroke: #3498db; stroke-opacity: 0.8; stroke-width: 0.7"/>
     <use xlink:href="#ma92735e7ad" x="86.16821" y="46.320805" style="fill: #a9bbf1; fill-opacity: 0.8; stroke: #3498db; stroke-opacity: 0.8; stroke-width: 0.7"/>
     <use xlink:href="#ma92735e7ad" x="73.179644" y="35.973731" style="fill: #a9bbf1; fill-opacity: 0.8; stroke: #3498db; stroke-opacity: 0.8; stroke-width: 0.7"/>
    </g>
   </g>
   <g id="PathCollection_2">
    <defs>
     <path id="me2c11a2370" d="M 0 3.162278 
C 0.838646 3.162278 1.643056 2.82908 2.236068 2.236068 
C 2.82908 1.643056 3.162278 0.838646 3.162278 0 
C 3.162278 -0.838646 2.82908 -1.643056 2.236068 -2.236068 
C 1.643056 -2.82908 0.838646 -3.162278 0 -3.162278 
C -0.838646 -3.162278 -1.643056 -2.82908 -2.236068 -2.236068 
C -2.82908 -1.643056 -3.162278 -0.838646 -3.162278 0 
C -3.162278 0.838646 -2.82908 1.643056 -2.236068 2.236068 
C -1.643056 2.82908 -0.838646 3.162278 0 3.162278 
z
" style="stroke: #d62728; stroke-opacity: 0.9; stroke-width: 1.2"/>
    </defs>
    <g clip-path="url(#pf6b38be64c)">
     <use xlink:href="#me2c11a2370" x="70.858957" y="33.739659" style="fill: #ffffff; fill-opacity: 0.9; stroke: #d62728; stroke-opacity: 0.9; stroke-width: 1.2"/>
     <use xlink:href="#me2c11a2370" x="57.042725" y="20.755938" style="fill: #ffffff; fill-opacity: 0.9; stroke: #d62728; stroke-opacity: 0.9; stroke-width: 1.2"/>
     <use xlink:href="#me2c11a2370" x="57.808558" y="21.487257" style="fill: #ffffff; fill-opacity: 0.9; stroke: #d62728; stroke-opacity: 0.9; stroke-width: 1.2"/>
     <use xlink:href="#me2c11a2370" x="69.529346" y="32.519515" style="fill: #ffffff; fill-opacity: 0.9; stroke: #d62728; stroke-opacity: 0.9; stroke-width: 1.2"/>
     <use xlink:href="#me2c11a2370" x="82.971342" y="44.096983" style="fill: #ffffff; fill-opacity: 0.9; stroke: #d62728; stroke-opacity: 0.9; stroke-width: 1.2"/>
     <use xlink:href="#me2c11a2370" x="95.20408" y="52.540688" style="fill: #ffffff; fill-opacity: 0.9; stroke: #d62728; stroke-opacity: 0.9; stroke-width: 1.2"/>
     <use xlink:href="#me2c11a2370" x="104.642729" y="57.289983" style="fill: #ffffff; fill-opacity: 0.9; stroke: #d62728; stroke-opacity: 0.9; stroke-width: 1.2"/>
     <use xlink:href="#me2c11a2370" x="111.171646" y="59.642235" style="fill: #ffffff; fill-opacity: 0.9; stroke: #d62728; stroke-opacity: 0.9; stroke-width: 1.2"/>
     <use xlink:href="#me2c11a2370" x="115.554479" y="60.829172" style="fill: #ffffff; fill-opacity: 0.9; stroke: #d62728; stroke-opacity: 0.9; stroke-width: 1.2"/>
     <use xlink:href="#me2c11a2370" x="118.743749" y="61.522647" style="fill: #ffffff; fill-opacity: 0.9; stroke: #d62728; stroke-opacity: 0.9; stroke-width: 1.2"/>
     <use xlink:href="#me2c11a2370" x="120.918625" y="61.91649" style="fill: #ffffff; fill-opacity: 0.9; stroke: #d62728; stroke-opacity: 0.9; stroke-width: 1.2"/>
    </g>
   </g>
   <g id="legend_1">
    <g id="PathCollection_3">
     <g>
      <use xlink:href="#ma92735e7ad" x="151.887" y="18.37875" style="fill: #a9bbf1; fill-opacity: 0.8; stroke: #3498db; stroke-opacity: 0.8; stroke-width: 0.7"/>
     </g>
    </g>
    <g id="text_11">
     <!-- Data -->
     <g transform="translate(166.287 20.47875) scale(0.08 -0.08)">
      <defs>
       <path id="DejaVuSerif-44" d="M 1581 331 
L 2163 331 
Q 3072 331 3558 850 
Q 4044 1369 4044 2338 
Q 4044 3306 3559 3818 
Q 3075 4331 2163 4331 
L 1581 4331 
L 1581 331 
z
M 353 0 
L 353 331 
L 947 331 
L 947 4331 
L 353 4331 
L 353 4666 
L 2209 4666 
Q 3416 4666 4089 4050 
Q 4763 3434 4763 2338 
Q 4763 1238 4088 619 
Q 3413 0 2209 0 
L 353 0 
z
" transform="scale(0.015625)"/>
       <path id="DejaVuSerif-61" d="M 2547 1044 
L 2547 1747 
L 1806 1747 
Q 1378 1747 1168 1562 
Q 959 1378 959 997 
Q 959 650 1171 447 
Q 1384 244 1747 244 
Q 2106 244 2326 466 
Q 2547 688 2547 1044 
z
M 3122 2075 
L 3122 331 
L 3634 331 
L 3634 0 
L 2547 0 
L 2547 359 
Q 2356 128 2106 18 
Q 1856 -91 1522 -91 
Q 969 -91 644 203 
Q 319 497 319 997 
Q 319 1513 691 1797 
Q 1063 2081 1741 2081 
L 2547 2081 
L 2547 2309 
Q 2547 2688 2317 2895 
Q 2088 3103 1672 3103 
Q 1328 3103 1125 2947 
Q 922 2791 872 2484 
L 575 2484 
L 575 3156 
Q 875 3284 1158 3348 
Q 1441 3413 1709 3413 
Q 2400 3413 2761 3070 
Q 3122 2728 3122 2075 
z
" transform="scale(0.015625)"/>
       <path id="DejaVuSerif-74" d="M 691 2988 
L 184 2988 
L 184 3322 
L 691 3322 
L 691 4353 
L 1269 4353 
L 1269 3322 
L 2350 3322 
L 2350 2988 
L 1269 2988 
L 1269 878 
Q 1269 456 1350 337 
Q 1431 219 1650 219 
Q 1875 219 1978 351 
Q 2081 484 2088 781 
L 2522 781 
Q 2497 328 2275 118 
Q 2053 -91 1600 -91 
Q 1103 -91 897 129 
Q 691 350 691 878 
L 691 2988 
z
" transform="scale(0.015625)"/>
      </defs>
      <use xlink:href="#DejaVuSerif-44"/>
      <use xlink:href="#DejaVuSerif-61" x="80.175781"/>
      <use xlink:href="#DejaVuSerif-74" x="139.794922"/>
      <use xlink:href="#DejaVuSerif-61" x="179.980469"/>
     </g>
    </g>
    <g id="line2d_19">
     <path d="M 143.887 29.42125 
L 151.887 29.42125 
L 159.887 29.42125 
" style="fill: none; stroke: #e74c3c; stroke-linecap: square"/>
    </g>
    <g id="text_12">
     <!-- GP Fit -->
     <g transform="translate(166.287 32.22125) scale(0.08 -0.08)">
      <defs>
       <path id="DejaVuSerif-47" d="M 4097 3272 
Q 3988 3856 3641 4136 
Q 3294 4416 2675 4416 
Q 1869 4416 1472 3897 
Q 1075 3378 1075 2328 
Q 1075 1300 1484 772 
Q 1894 244 2688 244 
Q 3041 244 3362 331 
Q 3684 419 3975 594 
L 3975 1797 
L 3097 1797 
L 3097 2131 
L 4609 2131 
L 4609 391 
Q 4194 150 3714 29 
Q 3234 -91 2688 -91 
Q 1631 -91 995 570 
Q 359 1231 359 2328 
Q 359 3434 996 4092 
Q 1634 4750 2713 4750 
Q 3113 4750 3539 4658 
Q 3966 4566 4447 4378 
L 4447 3272 
L 4097 3272 
z
" transform="scale(0.015625)"/>
       <path id="DejaVuSerif-50" d="M 1581 2375 
L 2406 2375 
Q 2872 2375 3115 2626 
Q 3359 2878 3359 3353 
Q 3359 3831 3115 4081 
Q 2872 4331 2406 4331 
L 1581 4331 
L 1581 2375 
z
M 353 0 
L 353 331 
L 947 331 
L 947 4331 
L 353 4331 
L 353 4666 
L 2559 4666 
Q 3259 4666 3668 4311 
Q 4078 3956 4078 3353 
Q 4078 2753 3668 2397 
Q 3259 2041 2559 2041 
L 1581 2041 
L 1581 331 
L 2303 331 
L 2303 0 
L 353 0 
z
" transform="scale(0.015625)"/>
       <path id="DejaVuSerif-46" d="M 353 0 
L 353 331 
L 947 331 
L 947 4331 
L 353 4331 
L 353 4666 
L 4172 4666 
L 4172 3628 
L 3788 3628 
L 3788 4281 
L 1581 4281 
L 1581 2719 
L 3175 2719 
L 3175 3303 
L 3559 3303 
L 3559 1753 
L 3175 1753 
L 3175 2338 
L 1581 2338 
L 1581 331 
L 2328 331 
L 2328 0 
L 353 0 
z
" transform="scale(0.015625)"/>
       <path id="DejaVuSerif-69" d="M 622 4353 
Q 622 4497 726 4603 
Q 831 4709 978 4709 
Q 1122 4709 1226 4603 
Q 1331 4497 1331 4353 
Q 1331 4206 1228 4103 
Q 1125 4000 978 4000 
Q 831 4000 726 4103 
Q 622 4206 622 4353 
z
M 1356 331 
L 1900 331 
L 1900 0 
L 231 0 
L 231 331 
L 781 331 
L 781 2988 
L 231 2988 
L 231 3322 
L 1356 3322 
L 1356 331 
z
" transform="scale(0.015625)"/>
      </defs>
      <use xlink:href="#DejaVuSerif-47"/>
      <use xlink:href="#DejaVuSerif-50" x="79.882812"/>
      <use xlink:href="#DejaVuSerif-20" x="147.167969"/>
      <use xlink:href="#DejaVuSerif-46" x="178.955078"/>
      <use xlink:href="#DejaVuSerif-69" x="248.339844"/>
      <use xlink:href="#DejaVuSerif-74" x="280.322266"/>
     </g>
    </g>
    <g id="patch_7">
     <path d="M 143.887 43.96375 
L 159.887 43.96375 
L 159.887 38.36375 
L 143.887 38.36375 
z
" style="fill: #e74c3c; fill-opacity: 0.2; stroke: #e74c3c; stroke-opacity: 0.2; stroke-linejoin: miter"/>
    </g>
    <g id="text_13">
     <!-- 95% CI -->
     <g transform="translate(166.287 43.96375) scale(0.08 -0.08)">
      <defs>
       <path id="DejaVuSerif-39" d="M 2994 2091 
Q 2784 1856 2512 1740 
Q 2241 1625 1900 1625 
Q 1206 1625 804 2044 
Q 403 2463 403 3188 
Q 403 3897 839 4323 
Q 1275 4750 2003 4750 
Q 2794 4750 3217 4161 
Q 3641 3572 3641 2478 
Q 3641 1253 3137 581 
Q 2634 -91 1722 -91 
Q 1475 -91 1203 -44 
Q 931 3 647 97 
L 647 872 
L 997 872 
Q 1038 556 1241 387 
Q 1444 219 1784 219 
Q 2391 219 2687 676 
Q 2984 1134 2994 2091 
z
M 1978 4441 
Q 1534 4441 1298 4117 
Q 1063 3794 1063 3188 
Q 1063 2581 1298 2256 
Q 1534 1931 1978 1931 
Q 2422 1931 2658 2245 
Q 2894 2559 2894 3150 
Q 2894 3772 2656 4106 
Q 2419 4441 1978 4441 
z
" transform="scale(0.015625)"/>
       <path id="DejaVuSerif-35" d="M 3219 4666 
L 3219 4153 
L 1081 4153 
L 1081 2816 
Q 1244 2928 1461 2984 
Q 1678 3041 1947 3041 
Q 2703 3041 3140 2622 
Q 3578 2203 3578 1478 
Q 3578 738 3136 323 
Q 2694 -91 1894 -91 
Q 1572 -91 1234 -12 
Q 897 66 544 225 
L 544 1131 
L 897 1131 
Q 925 688 1179 453 
Q 1434 219 1894 219 
Q 2388 219 2653 544 
Q 2919 869 2919 1478 
Q 2919 2084 2655 2407 
Q 2391 2731 1894 2731 
Q 1613 2731 1398 2631 
Q 1184 2531 1019 2322 
L 750 2322 
L 750 4666 
L 3219 4666 
z
" transform="scale(0.015625)"/>
       <path id="DejaVuSerif-25" d="M 1434 4459 
Q 1159 4459 1004 4200 
Q 850 3941 850 3475 
Q 850 3016 1008 2753 
Q 1166 2491 1434 2491 
Q 1700 2491 1854 2752 
Q 2009 3013 2009 3475 
Q 2009 3938 1854 4198 
Q 1700 4459 1434 4459 
z
M 4653 2169 
Q 4381 2169 4226 1906 
Q 4072 1644 4072 1178 
Q 4072 719 4228 458 
Q 4384 197 4653 197 
Q 4922 197 5075 458 
Q 5228 719 5228 1178 
Q 5228 1641 5073 1905 
Q 4919 2169 4653 2169 
z
M 4653 2450 
Q 5147 2450 5437 2106 
Q 5728 1763 5728 1178 
Q 5728 594 5436 251 
Q 5144 -91 4653 -91 
Q 4153 -91 3862 251 
Q 3572 594 3572 1178 
Q 3572 1766 3864 2108 
Q 4156 2450 4653 2450 
z
M 4263 4750 
L 4738 4750 
L 1819 -91 
L 1344 -91 
L 4263 4750 
z
M 1428 4750 
Q 1922 4750 2215 4408 
Q 2509 4066 2509 3481 
Q 2509 2891 2217 2550 
Q 1925 2209 1428 2209 
Q 931 2209 642 2551 
Q 353 2894 353 3481 
Q 353 4063 643 4406 
Q 934 4750 1428 4750 
z
" transform="scale(0.015625)"/>
       <path id="DejaVuSerif-43" d="M 4513 1234 
Q 4306 581 3820 245 
Q 3334 -91 2591 -91 
Q 2134 -91 1743 65 
Q 1353 222 1050 525 
Q 700 875 529 1320 
Q 359 1766 359 2328 
Q 359 3416 987 4083 
Q 1616 4750 2644 4750 
Q 3025 4750 3456 4650 
Q 3888 4550 4384 4347 
L 4384 3272 
L 4031 3272 
Q 3916 3859 3567 4137 
Q 3219 4416 2591 4416 
Q 1844 4416 1459 3886 
Q 1075 3356 1075 2328 
Q 1075 1303 1459 773 
Q 1844 244 2591 244 
Q 3113 244 3450 492 
Q 3788 741 3938 1234 
L 4513 1234 
z
" transform="scale(0.015625)"/>
       <path id="DejaVuSerif-49" d="M 1581 331 
L 2175 331 
L 2175 0 
L 353 0 
L 353 331 
L 947 331 
L 947 4331 
L 353 4331 
L 353 4666 
L 2175 4666 
L 2175 4331 
L 1581 4331 
L 1581 331 
z
" transform="scale(0.015625)"/>
      </defs>
      <use xlink:href="#DejaVuSerif-39"/>
      <use xlink:href="#DejaVuSerif-35" x="63.623047"/>
      <use xlink:href="#DejaVuSerif-25" x="127.246094"/>
      <use xlink:href="#DejaVuSerif-20" x="222.265625"/>
      <use xlink:href="#DejaVuSerif-43" x="254.052734"/>
      <use xlink:href="#DejaVuSerif-49" x="330.566406"/>
     </g>
    </g>
    <g id="PathCollection_4">
     <g>
      <use xlink:href="#me2c11a2370" x="151.887" y="53.60625" style="fill: #ffffff; fill-opacity: 0.9; stroke: #d62728; stroke-opacity: 0.9; stroke-width: 1.2"/>
     </g>
    </g>
    <g id="text_14">
     <!-- Pred -->
     <g transform="translate(166.287 55.70625) scale(0.08 -0.08)">
      <defs>
       <path id="DejaVuSerif-72" d="M 3059 3328 
L 3059 2497 
L 2728 2497 
Q 2713 2744 2591 2866 
Q 2469 2988 2234 2988 
Q 1809 2988 1582 2694 
Q 1356 2400 1356 1850 
L 1356 331 
L 2022 331 
L 2022 0 
L 263 0 
L 263 331 
L 781 331 
L 781 2994 
L 231 2994 
L 231 3322 
L 1356 3322 
L 1356 2731 
Q 1525 3078 1790 3245 
Q 2056 3413 2438 3413 
Q 2578 3413 2733 3391 
Q 2888 3369 3059 3328 
z
" transform="scale(0.015625)"/>
       <path id="DejaVuSerif-65" d="M 3469 1600 
L 991 1600 
L 991 1575 
Q 991 903 1244 561 
Q 1497 219 1991 219 
Q 2369 219 2611 417 
Q 2853 616 2950 1006 
L 3413 1006 
Q 3275 459 2904 184 
Q 2534 -91 1931 -91 
Q 1203 -91 761 389 
Q 319 869 319 1663 
Q 319 2450 753 2931 
Q 1188 3413 1894 3413 
Q 2647 3413 3050 2948 
Q 3453 2484 3469 1600 
z
M 2791 1931 
Q 2772 2513 2545 2808 
Q 2319 3103 1894 3103 
Q 1497 3103 1269 2806 
Q 1041 2509 991 1931 
L 2791 1931 
z
" transform="scale(0.015625)"/>
       <path id="DejaVuSerif-64" d="M 3359 331 
L 3909 331 
L 3909 0 
L 2784 0 
L 2784 519 
Q 2616 206 2355 57 
Q 2094 -91 1709 -91 
Q 1097 -91 708 395 
Q 319 881 319 1663 
Q 319 2444 706 2928 
Q 1094 3413 1709 3413 
Q 2094 3413 2355 3264 
Q 2616 3116 2784 2803 
L 2784 4531 
L 2241 4531 
L 2241 4863 
L 3359 4863 
L 3359 331 
z
M 2784 1497 
L 2784 1825 
Q 2784 2422 2554 2737 
Q 2325 3053 1888 3053 
Q 1444 3053 1217 2703 
Q 991 2353 991 1663 
Q 991 975 1217 622 
Q 1444 269 1888 269 
Q 2325 269 2554 583 
Q 2784 897 2784 1497 
z
" transform="scale(0.015625)"/>
      </defs>
      <use xlink:href="#DejaVuSerif-50"/>
      <use xlink:href="#DejaVuSerif-72" x="67.285156"/>
      <use xlink:href="#DejaVuSerif-65" x="115.087891"/>
      <use xlink:href="#DejaVuSerif-64" x="174.267578"/>
     </g>
    </g>
   </g>
  </g>
 </g>
 <defs>
  <clipPath id="pf6b38be64c">
   <rect x="41.74" y="7.2" width="161.352" height="89.892"/>
  </clipPath>
 </defs>
</svg>
