<?xml version="1.0" encoding="utf-8" standalone="no"?>
<!DOCTYPE svg PUBLIC "-//W3C//DTD SVG 1.1//EN"
  "http://www.w3.org/Graphics/SVG/1.1/DTD/svg11.dtd">
<svg xmlns:xlink="http://www.w3.org/1999/xlink" width="210.320999pt" height="131.14825pt" viewBox="0 0 210.320999 131.14825" xmlns="http://www.w3.org/2000/svg" version="1.1">
 <metadata>
  <rdf:RDF xmlns:dc="http://purl.org/dc/elements/1.1/" xmlns:cc="http://creativecommons.org/ns#" xmlns:rdf="http://www.w3.org/1999/02/22-rdf-syntax-ns#">
   <cc:Work>
    <dc:type rdf:resource="http://purl.org/dc/dcmitype/StillImage"/>
    <dc:date>2026-02-11T01:43:57.287593</dc:date>
    <dc:format>image/svg+xml</dc:format>
    <dc:creator>
     <cc:Agent>
      <dc:title>Matplotlib v3.7.5, https://matplotlib.org/</dc:title>
     </cc:Agent>
    </dc:creator>
   </cc:Work>
  </rdf:RDF>
 </metadata>
 <defs>
  <style type="text/css">*{stroke-linejoin: round; stroke-linecap: butt}</style>
 </defs>
 <g id="figure_1">
  <g id="patch_1">
   <path d="M 0 131.14825 
L 210.320999 131.14825 
L 210.320999 0 
L 0 0 
z
" style="fill: #ffffff"/>
  </g>
  <g id="axes_1">
   <g id="patch_2">
    <path d="M 39.03625 97.092 
L 201.945345 97.092 
L 201.945345 7.2 
L 39.03625 7.2 
z
" style="fill: #ffffff"/>
   </g>
   <g id="matplotlib.axis_1">
    <g id="xtick_1">
     <g id="line2d_1">
      <path d="M 49.537059 97.092 
L 49.537059 7.2 
" clip-path="url(#p783368963e)" style="fill: none; stroke-dasharray: 1.85,0.8; stroke-dashoffset: 0; stroke: #b0b0b0; stroke-opacity: 0.5; stroke-width: 0.5"/>
     </g>
     <g id="line2d_2">
      <defs>
       <path id="mef0427ff65" d="M 0 0 
L 0 -3 
" style="stroke: #000000; stroke-width: 0.5"/>
      </defs>
      <g>
       <use xlink:href="#mef0427ff65" x="49.537059" y="97.092" style="stroke: #000000; stroke-width: 0.5"/>
      </g>
     </g>
     <g id="text_1">
      <!-- −4 -->
      <g transform="translate(43.640184 106.67075) scale(0.08 -0.08)">
       <defs>
        <path id="DejaVuSerif-2212" d="M 678 2259 
L 4684 2259 
L 4684 1753 
L 678 1753 
L 678 2259 
z
" transform="scale(0.015625)"/>
        <path id="DejaVuSerif-34" d="M 2234 1581 
L 2234 4063 
L 641 1581 
L 2234 1581 
z
M 3609 0 
L 1484 0 
L 1484 331 
L 2234 331 
L 2234 1247 
L 197 1247 
L 197 1588 
L 2241 4750 
L 2859 4750 
L 2859 1581 
L 3750 1581 
L 3750 1247 
L 2859 1247 
L 2859 331 
L 3609 331 
L 3609 0 
z
" transform="scale(0.015625)"/>
       </defs>
       <use xlink:href="#DejaVuSerif-2212"/>
       <use xlink:href="#DejaVuSerif-34" x="83.789062"/>
      </g>
     </g>
    </g>
    <g id="xtick_2">
     <g id="line2d_3">
      <path d="M 87.296794 97.092 
L 87.296794 7.2 
" clip-path="url(#p783368963e)" style="fill: none; stroke-dasharray: 1.85,0.8; stroke-dashoffset: 0; stroke: #b0b0b0; stroke-opacity: 0.5; stroke-width: 0.5"/>
     </g>
     <g id="line2d_4">
      <g>
       <use xlink:href="#mef0427ff65" x="87.296794" y="97.092" style="stroke: #000000; stroke-width: 0.5"/>
      </g>
     </g>
     <g id="text_2">
      <!-- −2 -->
      <g transform="translate(81.399919 106.67075) scale(0.08 -0.08)">
       <defs>
        <path id="DejaVuSerif-32" d="M 819 3553 
L 469 3553 
L 469 4384 
Q 803 4563 1142 4656 
Q 1481 4750 1806 4750 
Q 2534 4750 2956 4397 
Q 3378 4044 3378 3438 
Q 3378 2753 2422 1800 
Q 2347 1728 2309 1691 
L 1131 513 
L 3078 513 
L 3078 1088 
L 3444 1088 
L 3444 0 
L 434 0 
L 434 341 
L 1850 1753 
Q 2319 2222 2519 2614 
Q 2719 3006 2719 3438 
Q 2719 3909 2473 4175 
Q 2228 4441 1797 4441 
Q 1350 4441 1106 4219 
Q 863 3997 819 3553 
z
" transform="scale(0.015625)"/>
       </defs>
       <use xlink:href="#DejaVuSerif-2212"/>
       <use xlink:href="#DejaVuSerif-32" x="83.789062"/>
      </g>
     </g>
    </g>
    <g id="xtick_3">
     <g id="line2d_5">
      <path d="M 125.056529 97.092 
L 125.056529 7.2 
" clip-path="url(#p783368963e)" style="fill: none; stroke-dasharray: 1.85,0.8; stroke-dashoffset: 0; stroke: #b0b0b0; stroke-opacity: 0.5; stroke-width: 0.5"/>
     </g>
     <g id="line2d_6">
      <g>
       <use xlink:href="#mef0427ff65" x="125.056529" y="97.092" style="stroke: #000000; stroke-width: 0.5"/>
      </g>
     </g>
     <g id="text_3">
      <!-- 0 -->
      <g transform="translate(122.511529 106.67075) scale(0.08 -0.08)">
       <defs>
        <path id="DejaVuSerif-30" d="M 2034 219 
Q 2513 219 2750 744 
Q 2988 1269 2988 2328 
Q 2988 3391 2750 3916 
Q 2513 4441 2034 4441 
Q 1556 4441 1318 3916 
Q 1081 3391 1081 2328 
Q 1081 1269 1318 744 
Q 1556 219 2034 219 
z
M 2034 -91 
Q 1275 -91 848 546 
Q 422 1184 422 2328 
Q 422 3475 848 4112 
Q 1275 4750 2034 4750 
Q 2797 4750 3222 4112 
Q 3647 3475 3647 2328 
Q 3647 1184 3222 546 
Q 2797 -91 2034 -91 
z
" transform="scale(0.015625)"/>
       </defs>
       <use xlink:href="#DejaVuSerif-30"/>
      </g>
     </g>
    </g>
    <g id="xtick_4">
     <g id="line2d_7">
      <path d="M 162.816264 97.092 
L 162.816264 7.2 
" clip-path="url(#p783368963e)" style="fill: none; stroke-dasharray: 1.85,0.8; stroke-dashoffset: 0; stroke: #b0b0b0; stroke-opacity: 0.5; stroke-width: 0.5"/>
     </g>
     <g id="line2d_8">
      <g>
       <use xlink:href="#mef0427ff65" x="162.816264" y="97.092" style="stroke: #000000; stroke-width: 0.5"/>
      </g>
     </g>
     <g id="text_4">
      <!-- 2 -->
      <g transform="translate(160.271264 106.67075) scale(0.08 -0.08)">
       <use xlink:href="#DejaVuSerif-32"/>
      </g>
     </g>
    </g>
    <g id="xtick_5">
     <g id="line2d_9">
      <path d="M 200.575999 97.092 
L 200.575999 7.2 
" clip-path="url(#p783368963e)" style="fill: none; stroke-dasharray: 1.85,0.8; stroke-dashoffset: 0; stroke: #b0b0b0; stroke-opacity: 0.5; stroke-width: 0.5"/>
     </g>
     <g id="line2d_10">
      <g>
       <use xlink:href="#mef0427ff65" x="200.575999" y="97.092" style="stroke: #000000; stroke-width: 0.5"/>
      </g>
     </g>
     <g id="text_5">
      <!-- 4 -->
      <g transform="translate(198.030999 106.67075) scale(0.08 -0.08)">
       <use xlink:href="#DejaVuSerif-34"/>
      </g>
     </g>
    </g>
    <g id="text_6">
     <!-- $v_{x}$ [m/s] -->
     <g transform="translate(98.290797 121.452625) scale(0.12 -0.12)">
      <defs>
       <path id="STIXGeneral-Italic-76" d="M 1325 448 
L 1523 653 
Q 1869 1005 2134 1456 
Q 2400 1907 2400 2131 
Q 2400 2208 2285 2317 
Q 2125 2458 2125 2605 
Q 2125 2701 2195 2761 
Q 2266 2822 2368 2822 
Q 2522 2822 2624 2704 
Q 2726 2586 2726 2445 
Q 2726 2074 2323 1453 
Q 1971 909 1562 474 
Q 1504 416 1421 326 
Q 1338 237 1299 192 
Q 1261 147 1200 86 
Q 1139 26 1110 -3 
Q 1082 -32 1043 -64 
Q 1005 -96 979 -105 
Q 954 -115 928 -115 
Q 870 -115 870 58 
L 870 211 
Q 870 1094 717 1990 
Q 653 2355 579 2470 
Q 506 2586 326 2586 
Q 198 2586 128 2579 
L 128 2662 
Q 480 2720 845 2797 
Q 915 2822 973 2822 
Q 1011 2822 1033 2739 
Q 1056 2656 1165 2093 
Q 1280 1510 1325 448 
z
" transform="scale(0.015625)"/>
       <path id="STIXGeneral-Italic-78" d="M 1555 2272 
L 1632 1907 
Q 1971 2426 2179 2624 
Q 2387 2822 2598 2822 
Q 2714 2822 2787 2755 
Q 2861 2688 2861 2585 
Q 2861 2483 2800 2419 
Q 2739 2355 2643 2355 
Q 2586 2355 2490 2409 
Q 2394 2464 2310 2464 
Q 2125 2464 1683 1690 
Q 1683 1606 1734 1402 
L 1939 544 
Q 2003 282 2131 282 
Q 2234 282 2432 538 
Q 2451 563 2476 598 
Q 2502 634 2521 662 
Q 2541 691 2566 717 
L 2662 659 
Q 2387 230 2227 80 
Q 2067 -70 1882 -70 
Q 1728 -70 1645 26 
Q 1562 122 1504 365 
L 1318 1126 
L 755 365 
Q 557 96 432 13 
Q 307 -70 147 -70 
Q 0 -70 -86 0 
Q -173 70 -173 198 
Q -173 294 -112 361 
Q -51 429 45 429 
Q 122 429 250 358 
Q 346 301 416 301 
Q 525 301 742 614 
L 1267 1357 
L 1088 2150 
Q 1024 2432 969 2509 
Q 915 2586 794 2586 
Q 717 2586 544 2541 
L 429 2509 
L 410 2611 
L 480 2637 
Q 992 2822 1229 2822 
Q 1350 2822 1420 2707 
Q 1491 2592 1555 2272 
z
" transform="scale(0.015625)"/>
       <path id="DejaVuSerif-20" transform="scale(0.015625)"/>
       <path id="DejaVuSerif-5b" d="M 550 4863 
L 2003 4863 
L 2003 4531 
L 1147 4531 
L 1147 -513 
L 2003 -513 
L 2003 -844 
L 550 -844 
L 550 4863 
z
" transform="scale(0.015625)"/>
       <path id="DejaVuSerif-6d" d="M 3316 2675 
Q 3481 3041 3739 3227 
Q 3997 3413 4341 3413 
Q 4863 3413 5119 3089 
Q 5375 2766 5375 2113 
L 5375 331 
L 5894 331 
L 5894 0 
L 4300 0 
L 4300 331 
L 4800 331 
L 4800 2047 
Q 4800 2556 4650 2772 
Q 4500 2988 4153 2988 
Q 3769 2988 3567 2697 
Q 3366 2406 3366 1850 
L 3366 331 
L 3866 331 
L 3866 0 
L 2291 0 
L 2291 331 
L 2791 331 
L 2791 2069 
Q 2791 2566 2641 2777 
Q 2491 2988 2144 2988 
Q 1759 2988 1557 2697 
Q 1356 2406 1356 1850 
L 1356 331 
L 1856 331 
L 1856 0 
L 263 0 
L 263 331 
L 781 331 
L 781 2994 
L 231 2994 
L 231 3322 
L 1356 3322 
L 1356 2731 
Q 1516 3063 1762 3238 
Q 2009 3413 2322 3413 
Q 2709 3413 2968 3220 
Q 3228 3028 3316 2675 
z
" transform="scale(0.015625)"/>
       <path id="DejaVuSerif-2f" d="M 1656 4666 
L 2156 4666 
L 500 -594 
L 0 -594 
L 1656 4666 
z
" transform="scale(0.015625)"/>
       <path id="DejaVuSerif-73" d="M 359 184 
L 359 959 
L 691 959 
Q 703 588 923 403 
Q 1144 219 1575 219 
Q 1963 219 2166 364 
Q 2369 509 2369 788 
Q 2369 1006 2220 1140 
Q 2072 1275 1594 1428 
L 1178 1569 
Q 750 1706 558 1912 
Q 366 2119 366 2438 
Q 366 2894 700 3153 
Q 1034 3413 1625 3413 
Q 1888 3413 2178 3344 
Q 2469 3275 2778 3144 
L 2778 2419 
L 2447 2419 
Q 2434 2741 2221 2922 
Q 2009 3103 1644 3103 
Q 1281 3103 1095 2975 
Q 909 2847 909 2591 
Q 909 2381 1050 2254 
Q 1191 2128 1613 1997 
L 2069 1856 
Q 2541 1709 2748 1489 
Q 2956 1269 2956 922 
Q 2956 450 2595 179 
Q 2234 -91 1600 -91 
Q 1278 -91 972 -22 
Q 666 47 359 184 
z
" transform="scale(0.015625)"/>
       <path id="DejaVuSerif-5d" d="M 1947 4863 
L 1947 -844 
L 494 -844 
L 494 -513 
L 1350 -513 
L 1350 4531 
L 494 4531 
L 494 4863 
L 1947 4863 
z
" transform="scale(0.015625)"/>
      </defs>
      <use xlink:href="#STIXGeneral-Italic-76" transform="translate(0 0.015625)"/>
      <use xlink:href="#STIXGeneral-Italic-78" transform="translate(44.399994 -13.2125) scale(0.7)"/>
      <use xlink:href="#DejaVuSerif-20" transform="translate(79.889365 0.015625)"/>
      <use xlink:href="#DejaVuSerif-5b" transform="translate(111.676474 0.015625)"/>
      <use xlink:href="#DejaVuSerif-6d" transform="translate(150.690146 0.015625)"/>
      <use xlink:href="#DejaVuSerif-2f" transform="translate(245.514365 0.015625)"/>
      <use xlink:href="#DejaVuSerif-73" transform="translate(279.205771 0.015625)"/>
      <use xlink:href="#DejaVuSerif-5d" transform="translate(330.52413 0.015625)"/>
     </g>
    </g>
   </g>
   <g id="matplotlib.axis_2">
    <g id="ytick_1">
     <g id="line2d_11">
      <path d="M 39.03625 85.782953 
L 201.945345 85.782953 
" clip-path="url(#p783368963e)" style="fill: none; stroke-dasharray: 1.85,0.8; stroke-dashoffset: 0; stroke: #b0b0b0; stroke-opacity: 0.5; stroke-width: 0.5"/>
     </g>
     <g id="line2d_12">
      <defs>
       <path id="mb5a63b7a9c" d="M 0 0 
L 3 0 
" style="stroke: #000000; stroke-width: 0.5"/>
      </defs>
      <g>
       <use xlink:href="#mb5a63b7a9c" x="39.03625" y="85.782953" style="stroke: #000000; stroke-width: 0.5"/>
      </g>
     </g>
     <g id="text_7">
      <!-- 0.0 -->
      <g transform="translate(22.81375 88.822328) scale(0.08 -0.08)">
       <defs>
        <path id="DejaVuSerif-2e" d="M 603 325 
Q 603 500 722 622 
Q 841 744 1019 744 
Q 1191 744 1312 622 
Q 1434 500 1434 325 
Q 1434 153 1312 31 
Q 1191 -91 1019 -91 
Q 841 -91 722 29 
Q 603 150 603 325 
z
" transform="scale(0.015625)"/>
       </defs>
       <use xlink:href="#DejaVuSerif-30"/>
       <use xlink:href="#DejaVuSerif-2e" x="63.623047"/>
       <use xlink:href="#DejaVuSerif-30" x="95.410156"/>
      </g>
     </g>
    </g>
    <g id="ytick_2">
     <g id="line2d_13">
      <path d="M 39.03625 67.075809 
L 201.945345 67.075809 
" clip-path="url(#p783368963e)" style="fill: none; stroke-dasharray: 1.85,0.8; stroke-dashoffset: 0; stroke: #b0b0b0; stroke-opacity: 0.5; stroke-width: 0.5"/>
     </g>
     <g id="line2d_14">
      <g>
       <use xlink:href="#mb5a63b7a9c" x="39.03625" y="67.075809" style="stroke: #000000; stroke-width: 0.5"/>
      </g>
     </g>
     <g id="text_8">
      <!-- 2.0 -->
      <g transform="translate(22.81375 70.115184) scale(0.08 -0.08)">
       <use xlink:href="#DejaVuSerif-32"/>
       <use xlink:href="#DejaVuSerif-2e" x="63.623047"/>
       <use xlink:href="#DejaVuSerif-30" x="95.410156"/>
      </g>
     </g>
    </g>
    <g id="ytick_3">
     <g id="line2d_15">
      <path d="M 39.03625 48.368666 
L 201.945345 48.368666 
" clip-path="url(#p783368963e)" style="fill: none; stroke-dasharray: 1.85,0.8; stroke-dashoffset: 0; stroke: #b0b0b0; stroke-opacity: 0.5; stroke-width: 0.5"/>
     </g>
     <g id="line2d_16">
      <g>
       <use xlink:href="#mb5a63b7a9c" x="39.03625" y="48.368666" style="stroke: #000000; stroke-width: 0.5"/>
      </g>
     </g>
     <g id="text_9">
      <!-- 4.0 -->
      <g transform="translate(22.81375 51.408041) scale(0.08 -0.08)">
       <use xlink:href="#DejaVuSerif-34"/>
       <use xlink:href="#DejaVuSerif-2e" x="63.623047"/>
       <use xlink:href="#DejaVuSerif-30" x="95.410156"/>
      </g>
     </g>
    </g>
    <g id="ytick_4">
     <g id="line2d_17">
      <path d="M 39.03625 29.661523 
L 201.945345 29.661523 
" clip-path="url(#p783368963e)" style="fill: none; stroke-dasharray: 1.85,0.8; stroke-dashoffset: 0; stroke: #b0b0b0; stroke-opacity: 0.5; stroke-width: 0.5"/>
     </g>
     <g id="line2d_18">
      <g>
       <use xlink:href="#mb5a63b7a9c" x="39.03625" y="29.661523" style="stroke: #000000; stroke-width: 0.5"/>
      </g>
     </g>
     <g id="text_10">
      <!-- 6.0 -->
      <g transform="translate(22.81375 32.700898) scale(0.08 -0.08)">
       <defs>
        <path id="DejaVuSerif-36" d="M 2094 219 
Q 2534 219 2771 542 
Q 3009 866 3009 1472 
Q 3009 2078 2771 2401 
Q 2534 2725 2094 2725 
Q 1647 2725 1412 2412 
Q 1178 2100 1178 1509 
Q 1178 888 1415 553 
Q 1653 219 2094 219 
z
M 1075 2569 
Q 1288 2803 1556 2918 
Q 1825 3034 2163 3034 
Q 2859 3034 3264 2615 
Q 3669 2197 3669 1472 
Q 3669 763 3233 336 
Q 2797 -91 2069 -91 
Q 1278 -91 853 498 
Q 428 1088 428 2181 
Q 428 3406 931 4078 
Q 1434 4750 2350 4750 
Q 2597 4750 2869 4703 
Q 3141 4656 3425 4563 
L 3425 3794 
L 3072 3794 
Q 3034 4109 2831 4275 
Q 2628 4441 2284 4441 
Q 1678 4441 1381 3981 
Q 1084 3522 1075 2569 
z
" transform="scale(0.015625)"/>
       </defs>
       <use xlink:href="#DejaVuSerif-36"/>
       <use xlink:href="#DejaVuSerif-2e" x="63.623047"/>
       <use xlink:href="#DejaVuSerif-30" x="95.410156"/>
      </g>
     </g>
    </g>
    <g id="ytick_5">
     <g id="line2d_19">
      <path d="M 39.03625 10.95438 
L 201.945345 10.95438 
" clip-path="url(#p783368963e)" style="fill: none; stroke-dasharray: 1.85,0.8; stroke-dashoffset: 0; stroke: #b0b0b0; stroke-opacity: 0.5; stroke-width: 0.5"/>
     </g>
     <g id="line2d_20">
      <g>
       <use xlink:href="#mb5a63b7a9c" x="39.03625" y="10.95438" style="stroke: #000000; stroke-width: 0.5"/>
      </g>
     </g>
     <g id="text_11">
      <!-- 8.0 -->
      <g transform="translate(22.81375 13.993755) scale(0.08 -0.08)">
       <defs>
        <path id="DejaVuSerif-38" d="M 2981 1275 
Q 2981 1775 2732 2051 
Q 2484 2328 2034 2328 
Q 1584 2328 1336 2051 
Q 1088 1775 1088 1275 
Q 1088 772 1336 495 
Q 1584 219 2034 219 
Q 2484 219 2732 495 
Q 2981 772 2981 1275 
z
M 2853 3541 
Q 2853 3966 2637 4203 
Q 2422 4441 2034 4441 
Q 1650 4441 1433 4203 
Q 1216 3966 1216 3541 
Q 1216 3113 1433 2875 
Q 1650 2638 2034 2638 
Q 2422 2638 2637 2875 
Q 2853 3113 2853 3541 
z
M 2516 2484 
Q 3047 2413 3344 2092 
Q 3641 1772 3641 1275 
Q 3641 619 3225 264 
Q 2809 -91 2034 -91 
Q 1263 -91 845 264 
Q 428 619 428 1275 
Q 428 1772 725 2092 
Q 1022 2413 1556 2484 
Q 1084 2569 832 2842 
Q 581 3116 581 3541 
Q 581 4103 968 4426 
Q 1356 4750 2034 4750 
Q 2713 4750 3100 4426 
Q 3488 4103 3488 3541 
Q 3488 3116 3236 2842 
Q 2984 2569 2516 2484 
z
" transform="scale(0.015625)"/>
       </defs>
       <use xlink:href="#DejaVuSerif-38"/>
       <use xlink:href="#DejaVuSerif-2e" x="63.623047"/>
       <use xlink:href="#DejaVuSerif-30" x="95.410156"/>
      </g>
     </g>
    </g>
    <g id="text_12">
     <!-- $\Delta a_{x}$ [m/s²] -->
     <g transform="translate(16.318125 81.426) rotate(-90) scale(0.12 -0.12)">
      <defs>
       <path id="STIXGeneral-Regular-394" d="M 4320 0 
L 307 0 
L 2221 4314 
L 2349 4314 
L 4320 0 
z
M 3354 589 
L 2118 3405 
L 870 589 
L 3354 589 
z
" transform="scale(0.015625)"/>
       <path id="STIXGeneral-Italic-61" d="M 2963 710 
L 3046 640 
Q 2688 205 2518 70 
Q 2349 -64 2157 -64 
Q 1901 -64 1901 198 
Q 1901 358 2048 934 
Q 1690 397 1389 163 
Q 1088 -70 749 -70 
Q 467 -70 288 125 
Q 109 320 109 672 
Q 109 1158 387 1664 
Q 666 2170 1094 2496 
Q 1523 2822 1939 2822 
Q 2368 2822 2451 2451 
L 2522 2758 
L 2541 2778 
L 2931 2822 
L 2976 2803 
Q 2970 2778 2938 2669 
Q 2368 595 2368 346 
Q 2368 262 2458 262 
Q 2554 262 2790 525 
L 2963 710 
z
M 2336 2310 
Q 2336 2477 2240 2579 
Q 2144 2682 1978 2682 
Q 1542 2682 1139 2093 
Q 928 1779 787 1395 
Q 646 1011 646 717 
Q 646 243 1030 243 
Q 1408 243 1843 870 
Q 2336 1581 2336 2310 
z
" transform="scale(0.015625)"/>
       <path id="DejaVuSerif-b2" d="M 531 4050 
L 313 4050 
L 313 4544 
Q 519 4644 737 4697 
Q 956 4750 1172 4750 
Q 1603 4750 1870 4544 
Q 2138 4338 2138 4013 
Q 2138 3631 1531 3088 
L 1472 3034 
L 728 2363 
L 1931 2363 
L 1931 2700 
L 2163 2700 
L 2163 2088 
L 281 2088 
L 281 2322 
L 1172 3116 
Q 1441 3356 1556 3547 
Q 1672 3738 1672 3944 
Q 1672 4209 1520 4364 
Q 1369 4519 1106 4519 
Q 863 4519 716 4400 
Q 569 4281 531 4050 
z
" transform="scale(0.015625)"/>
      </defs>
      <use xlink:href="#STIXGeneral-Regular-394" transform="translate(0 0.015625)"/>
      <use xlink:href="#STIXGeneral-Italic-61" transform="translate(72.199982 0.015625)"/>
      <use xlink:href="#STIXGeneral-Italic-78" transform="translate(122.299973 -13.2125) scale(0.7)"/>
      <use xlink:href="#DejaVuSerif-20" transform="translate(157.789343 0.015625)"/>
      <use xlink:href="#DejaVuSerif-5b" transform="translate(189.576453 0.015625)"/>
      <use xlink:href="#DejaVuSerif-6d" transform="translate(228.590125 0.015625)"/>
      <use xlink:href="#DejaVuSerif-2f" transform="translate(323.414343 0.015625)"/>
      <use xlink:href="#DejaVuSerif-73" transform="translate(357.10575 0.015625)"/>
      <use xlink:href="#DejaVuSerif-b2" transform="translate(408.424109 0.015625)"/>
      <use xlink:href="#DejaVuSerif-5d" transform="translate(448.512 0.015625)"/>
     </g>
    </g>
   </g>
   <g id="PolyCollection_1">
    <defs>
     <path id="mc219ffff94" d="M 48.110947 -119.86225 
L 48.110947 -98.472767 
L 48.846773 -98.883786 
L 49.5826 -99.249128 
L 50.318426 -99.567265 
L 51.054252 -99.838802 
L 51.790079 -100.064132 
L 52.525905 -100.242912 
L 53.261731 -100.375704 
L 53.997558 -100.462739 
L 54.733384 -100.50379 
L 55.46921 -100.499619 
L 56.205037 -100.451793 
L 56.940863 -100.358278 
L 57.676689 -100.222931 
L 58.412516 -100.043816 
L 59.148342 -99.823348 
L 59.884168 -99.561052 
L 60.619995 -99.258825 
L 61.355821 -98.916541 
L 62.091647 -98.537314 
L 62.827474 -98.121799 
L 63.5633 -97.672575 
L 64.299126 -97.192852 
L 65.034952 -96.685142 
L 65.770779 -96.153637 
L 66.506605 -95.602285 
L 67.242431 -95.03525 
L 67.978258 -94.456562 
L 68.714084 -93.86989 
L 69.44991 -93.280796 
L 70.185737 -92.690993 
L 70.921563 -92.101979 
L 71.657389 -91.515815 
L 72.393216 -90.936988 
L 73.129042 -90.365521 
L 73.864868 -89.80201 
L 74.600695 -89.247415 
L 75.336521 -88.704033 
L 76.072347 -88.170775 
L 76.808174 -87.647593 
L 77.544 -87.135681 
L 78.279826 -86.634688 
L 79.015653 -86.143102 
L 79.751479 -85.664788 
L 80.487305 -85.194851 
L 81.223132 -84.737786 
L 81.958958 -84.289231 
L 82.694784 -83.850519 
L 83.430611 -83.421017 
L 84.166437 -83.001364 
L 84.902263 -82.588828 
L 85.63809 -82.184033 
L 86.373916 -81.78743 
L 87.109742 -81.398446 
L 87.845569 -81.014683 
L 88.581395 -80.63666 
L 89.317221 -80.264295 
L 90.053048 -79.897131 
L 90.788874 -79.53301 
L 91.5247 -79.174003 
L 92.260527 -78.81781 
L 92.996353 -78.463457 
L 93.732179 -78.111303 
L 94.468006 -77.76013 
L 95.203832 -77.409959 
L 95.939658 -77.059703 
L 96.675484 -76.708287 
L 97.411311 -76.356035 
L 98.147137 -76.004454 
L 98.882963 -75.648803 
L 99.61879 -75.294013 
L 100.354616 -74.934087 
L 101.090442 -74.573381 
L 101.826269 -74.209681 
L 102.562095 -73.841855 
L 103.297921 -73.470917 
L 104.033748 -73.096495 
L 104.769574 -72.718943 
L 105.5054 -72.339531 
L 106.241227 -71.956136 
L 106.977053 -71.569431 
L 107.712879 -71.179966 
L 108.448706 -70.788781 
L 109.184532 -70.393317 
L 109.920358 -69.997552 
L 110.656185 -69.601261 
L 111.392011 -69.20176 
L 112.127837 -68.802663 
L 112.863664 -68.401385 
L 113.59949 -68.002826 
L 114.335316 -67.602482 
L 115.071143 -67.205956 
L 115.806969 -66.807152 
L 116.542795 -66.416159 
L 117.278622 -66.024983 
L 118.014448 -65.636755 
L 118.750274 -65.25281 
L 119.486101 -64.872381 
L 120.221927 -64.499172 
L 120.957753 -64.131457 
L 121.69358 -63.769568 
L 122.429406 -63.413485 
L 123.165232 -63.063532 
L 123.901059 -62.722734 
L 124.636885 -62.39129 
L 125.372711 -62.065246 
L 126.108537 -61.750188 
L 126.844364 -61.444839 
L 127.58019 -61.147238 
L 128.316016 -60.860421 
L 129.051843 -60.583951 
L 129.787669 -60.316745 
L 130.523495 -60.060105 
L 131.259322 -59.812832 
L 131.995148 -59.577097 
L 132.730974 -59.351493 
L 133.466801 -59.135796 
L 134.202627 -58.92805 
L 134.938453 -58.733476 
L 135.67428 -58.545873 
L 136.410106 -58.367742 
L 137.145932 -58.196253 
L 137.881759 -58.034891 
L 138.617585 -57.879408 
L 139.353411 -57.730131 
L 140.089238 -57.588151 
L 140.825064 -57.450851 
L 141.56089 -57.318234 
L 142.296717 -57.188556 
L 143.032543 -57.064982 
L 143.768369 -56.940419 
L 144.504196 -56.819347 
L 145.240022 -56.698162 
L 145.975848 -56.577308 
L 146.711675 -56.455033 
L 147.447501 -56.331673 
L 148.183327 -56.205918 
L 148.919154 -56.077001 
L 149.65498 -55.944932 
L 150.390806 -55.807633 
L 151.126633 -55.667295 
L 151.862459 -55.51965 
L 152.598285 -55.364705 
L 153.334112 -55.205633 
L 154.069938 -55.038829 
L 154.805764 -54.86363 
L 155.541591 -54.681142 
L 156.277417 -54.491796 
L 157.013243 -54.292642 
L 157.749069 -54.086088 
L 158.484896 -53.871151 
L 159.220722 -53.647067 
L 159.956548 -53.41591 
L 160.692375 -53.176699 
L 161.428201 -52.929873 
L 162.164027 -52.675867 
L 162.899854 -52.414467 
L 163.63568 -52.147522 
L 164.371506 -51.875036 
L 165.107333 -51.596687 
L 165.843159 -51.314967 
L 166.578985 -51.029343 
L 167.314812 -50.74057 
L 168.050638 -50.449431 
L 168.786464 -50.157443 
L 169.522291 -49.864074 
L 170.258117 -49.569546 
L 170.993943 -49.276127 
L 171.72977 -48.982508 
L 172.465596 -48.68956 
L 173.201422 -48.396445 
L 173.937249 -48.103191 
L 174.673075 -47.808345 
L 175.408901 -47.511745 
L 176.144728 -47.213069 
L 176.880554 -46.909923 
L 177.61638 -46.60284 
L 178.352207 -46.289529 
L 179.088033 -45.9699 
L 179.823859 -45.644037 
L 180.559686 -45.310891 
L 181.295512 -44.97089 
L 182.031338 -44.623562 
L 182.767165 -44.270081 
L 183.502991 -43.909988 
L 184.238817 -43.544499 
L 184.974644 -43.173596 
L 185.71047 -42.798875 
L 186.446296 -42.419889 
L 187.182122 -42.037789 
L 187.917949 -41.652973 
L 188.653775 -41.265333 
L 189.389601 -40.876522 
L 190.125428 -40.486628 
L 190.861254 -40.095627 
L 191.59708 -39.704295 
L 192.332907 -39.313091 
L 193.068733 -38.921996 
L 193.804559 -38.531846 
L 194.540386 -38.14225 
L 194.540386 -58.752437 
L 194.540386 -58.752437 
L 193.804559 -57.930855 
L 193.068733 -57.151504 
L 192.332907 -56.415474 
L 191.59708 -55.722394 
L 190.861254 -55.073614 
L 190.125428 -54.469093 
L 189.389601 -53.909509 
L 188.653775 -53.394994 
L 187.917949 -52.925965 
L 187.182122 -52.501463 
L 186.446296 -52.122521 
L 185.71047 -51.78839 
L 184.974644 -51.498488 
L 184.238817 -51.253998 
L 183.502991 -51.052049 
L 182.767165 -50.893495 
L 182.031338 -50.777815 
L 181.295512 -50.702257 
L 180.559686 -50.667556 
L 179.823859 -50.670855 
L 179.088033 -50.71149 
L 178.352207 -50.786556 
L 177.61638 -50.894402 
L 176.880554 -51.031008 
L 176.144728 -51.195293 
L 175.408901 -51.382994 
L 174.673075 -51.592258 
L 173.937249 -51.817645 
L 173.201422 -52.059111 
L 172.465596 -52.312693 
L 171.72977 -52.574824 
L 170.993943 -52.845104 
L 170.258117 -53.120917 
L 169.522291 -53.399652 
L 168.786464 -53.681395 
L 168.050638 -53.962779 
L 167.314812 -54.243922 
L 166.578985 -54.524165 
L 165.843159 -54.801025 
L 165.107333 -55.074601 
L 164.371506 -55.343927 
L 163.63568 -55.608445 
L 162.899854 -55.868052 
L 162.164027 -56.121665 
L 161.428201 -56.368952 
L 160.692375 -56.609262 
L 159.956548 -56.843469 
L 159.220722 -57.069615 
L 158.484896 -57.288463 
L 157.749069 -57.500124 
L 157.013243 -57.704053 
L 156.277417 -57.899706 
L 155.541591 -58.088615 
L 154.805764 -58.270008 
L 154.069938 -58.443233 
L 153.334112 -58.610477 
L 152.598285 -58.770864 
L 151.862459 -58.924054 
L 151.126633 -59.071262 
L 150.390806 -59.215105 
L 149.65498 -59.352623 
L 148.919154 -59.486443 
L 148.183327 -59.614923 
L 147.447501 -59.741773 
L 146.711675 -59.866881 
L 145.975848 -59.988282 
L 145.240022 -60.111542 
L 144.504196 -60.232946 
L 143.768369 -60.35664 
L 143.032543 -60.479892 
L 142.296717 -60.60936 
L 141.56089 -60.738166 
L 140.825064 -60.872092 
L 140.089238 -61.009609 
L 139.353411 -61.154206 
L 138.617585 -61.302611 
L 137.881759 -61.459183 
L 137.145932 -61.622289 
L 136.410106 -61.793124 
L 135.67428 -61.973867 
L 134.938453 -62.162995 
L 134.202627 -62.36083 
L 133.466801 -62.566837 
L 132.730974 -62.785795 
L 131.995148 -63.013137 
L 131.259322 -63.252128 
L 130.523495 -63.500485 
L 129.787669 -63.759509 
L 129.051843 -64.030615 
L 128.316016 -64.312924 
L 127.58019 -64.605357 
L 126.844364 -64.908349 
L 126.108537 -65.221013 
L 125.372711 -65.544875 
L 124.636885 -65.877346 
L 123.901059 -66.22097 
L 123.165232 -66.571568 
L 122.429406 -66.930655 
L 121.69358 -67.297329 
L 120.957753 -67.671043 
L 120.221927 -68.052433 
L 119.486101 -68.440311 
L 118.750274 -68.830766 
L 118.014448 -69.225541 
L 117.278622 -69.625183 
L 116.542795 -70.027535 
L 115.806969 -70.433991 
L 115.071143 -70.83917 
L 114.335316 -71.245539 
L 113.59949 -71.652225 
L 112.863664 -72.058955 
L 112.127837 -72.46166 
L 111.392011 -72.86524 
L 110.656185 -73.265151 
L 109.920358 -73.663476 
L 109.184532 -74.05863 
L 108.448706 -74.447984 
L 107.712879 -74.835088 
L 106.977053 -75.217809 
L 106.241227 -75.596325 
L 105.5054 -75.969662 
L 104.769574 -76.340226 
L 104.033748 -76.703943 
L 103.297921 -77.064689 
L 102.562095 -77.420645 
L 101.826269 -77.774267 
L 101.090442 -78.12244 
L 100.354616 -78.469244 
L 99.61879 -78.811606 
L 98.882963 -79.153007 
L 98.147137 -79.491152 
L 97.411311 -79.829009 
L 96.675484 -80.165325 
L 95.939658 -80.500515 
L 95.203832 -80.83752 
L 94.468006 -81.176787 
L 93.732179 -81.515926 
L 92.996353 -81.859744 
L 92.260527 -82.204414 
L 91.5247 -82.553992 
L 90.788874 -82.909686 
L 90.053048 -83.270934 
L 89.317221 -83.636107 
L 88.581395 -84.009799 
L 87.845569 -84.389811 
L 87.109742 -84.77976 
L 86.373916 -85.177336 
L 85.63809 -85.58493 
L 84.902263 -86.000676 
L 84.166437 -86.428055 
L 83.430611 -86.865299 
L 82.694784 -87.313382 
L 81.958958 -87.771861 
L 81.223132 -88.239863 
L 80.487305 -88.720923 
L 79.751479 -89.211324 
L 79.015653 -89.71208 
L 78.279826 -90.22264 
L 77.544 -90.742304 
L 76.808174 -91.272171 
L 76.072347 -91.809938 
L 75.336521 -92.355479 
L 74.600695 -92.910493 
L 73.864868 -93.469763 
L 73.129042 -94.037751 
L 72.393216 -94.610842 
L 71.657389 -95.190079 
L 70.921563 -95.774611 
L 70.185737 -96.365658 
L 69.44991 -96.96398 
L 68.714084 -97.568444 
L 67.978258 -98.181645 
L 67.242431 -98.80316 
L 66.506605 -99.438291 
L 65.770779 -100.08551 
L 65.034952 -100.749525 
L 64.299126 -101.428406 
L 63.5633 -102.127763 
L 62.827474 -102.846522 
L 62.091647 -103.584718 
L 61.355821 -104.341995 
L 60.619995 -105.118687 
L 59.884168 -105.912679 
L 59.148342 -106.72374 
L 58.412516 -107.550492 
L 57.676689 -108.389644 
L 56.940863 -109.241752 
L 56.205037 -110.103997 
L 55.46921 -110.975627 
L 54.733384 -111.853564 
L 53.997558 -112.738668 
L 53.261731 -113.627278 
L 52.525905 -114.519522 
L 51.790079 -115.413493 
L 51.054252 -116.30795 
L 50.318426 -117.201051 
L 49.5826 -118.092278 
L 48.846773 -118.979278 
L 48.110947 -119.86225 
z
" style="stroke: #e74c3c; stroke-opacity: 0.2"/>
    </defs>
    <g clip-path="url(#p783368963e)">
     <use xlink:href="#mc219ffff94" x="0" y="131.14825" style="fill: #e74c3c; fill-opacity: 0.2; stroke: #e74c3c; stroke-opacity: 0.2"/>
    </g>
   </g>
   <g id="line2d_21">
    <path d="M 39.03625 85.782953 
L 201.945345 85.782953 
" clip-path="url(#p783368963e)" style="fill: none; stroke-dasharray: 4.44,1.92; stroke-dashoffset: 0; stroke: #000000; stroke-opacity: 0.7; stroke-width: 1.2"/>
   </g>
   <g id="patch_3">
    <path d="M 39.03625 97.092 
L 39.03625 7.2 
" style="fill: none; stroke: #000000; stroke-width: 0.5; stroke-linejoin: miter; stroke-linecap: square"/>
   </g>
   <g id="patch_4">
    <path d="M 201.945345 97.092 
L 201.945345 7.2 
" style="fill: none; stroke: #000000; stroke-width: 0.5; stroke-linejoin: miter; stroke-linecap: square"/>
   </g>
   <g id="patch_5">
    <path d="M 39.03625 97.092 
L 201.945345 97.092 
" style="fill: none; stroke: #000000; stroke-width: 0.5; stroke-linejoin: miter; stroke-linecap: square"/>
   </g>
   <g id="patch_6">
    <path d="M 39.03625 7.2 
L 201.945345 7.2 
" style="fill: none; stroke: #000000; stroke-width: 0.5; stroke-linejoin: miter; stroke-linecap: square"/>
   </g>
   <g id="line2d_22">
    <path d="M 48.110947 21.980742 
L 50.318426 22.764092 
L 52.525905 23.767033 
L 55.46921 25.410627 
L 58.412516 27.351096 
L 62.091647 30.087234 
L 67.978258 34.829147 
L 73.864868 39.512364 
L 78.279826 42.719586 
L 81.958958 45.117704 
L 85.63809 47.263767 
L 90.053048 49.564218 
L 96.675484 52.711444 
L 104.769574 56.618666 
L 111.392011 60.11475 
L 121.69358 65.614802 
L 126.108537 67.662649 
L 129.787669 69.110123 
L 133.466801 70.296934 
L 137.145932 71.238979 
L 141.56089 72.12005 
L 154.069938 74.407219 
L 157.749069 75.355144 
L 162.164027 76.749485 
L 167.314812 78.656004 
L 175.408901 81.700881 
L 179.088033 82.807555 
L 182.031338 83.447561 
L 184.974644 83.812208 
L 187.182122 83.878624 
L 189.389601 83.755234 
L 191.59708 83.434906 
L 193.804559 82.916899 
L 194.540386 82.700906 
L 194.540386 82.700906 
" clip-path="url(#p783368963e)" style="fill: none; stroke: #e74c3c; stroke-linecap: square"/>
   </g>
   <g id="PathCollection_1">
    <defs>
     <path id="md57da5a4fc" d="M 0 2.738613 
C 0.726289 2.738613 1.422928 2.450055 1.936492 1.936492 
C 2.450055 1.422928 2.738613 0.726289 2.738613 0 
C 2.738613 -0.726289 2.450055 -1.422928 1.936492 -1.936492 
C 1.422928 -2.450055 0.726289 -2.738613 0 -2.738613 
C -0.726289 -2.738613 -1.422928 -2.450055 -1.936492 -1.936492 
C -2.450055 -1.422928 -2.738613 -0.726289 -2.738613 0 
C -2.738613 0.726289 -2.450055 1.422928 -1.936492 1.936492 
C -1.422928 2.450055 -0.726289 2.738613 0 2.738613 
z
" style="stroke: #3498db; stroke-opacity: 0.8; stroke-width: 0.7"/>
    </defs>
    <g clip-path="url(#p783368963e)">
     <use xlink:href="#md57da5a4fc" x="170.453297" y="81.077065" style="fill: #a9bbf1; fill-opacity: 0.8; stroke: #3498db; stroke-opacity: 0.8; stroke-width: 0.7"/>
     <use xlink:href="#md57da5a4fc" x="177.644681" y="82.167086" style="fill: #a9bbf1; fill-opacity: 0.8; stroke: #3498db; stroke-opacity: 0.8; stroke-width: 0.7"/>
     <use xlink:href="#md57da5a4fc" x="167.538181" y="77.924567" style="fill: #a9bbf1; fill-opacity: 0.8; stroke: #3498db; stroke-opacity: 0.8; stroke-width: 0.7"/>
     <use xlink:href="#md57da5a4fc" x="164.639768" y="77.310762" style="fill: #a9bbf1; fill-opacity: 0.8; stroke: #3498db; stroke-opacity: 0.8; stroke-width: 0.7"/>
     <use xlink:href="#md57da5a4fc" x="161.6551" y="76.457938" style="fill: #a9bbf1; fill-opacity: 0.8; stroke: #3498db; stroke-opacity: 0.8; stroke-width: 0.7"/>
     <use xlink:href="#md57da5a4fc" x="158.605479" y="75.810657" style="fill: #a9bbf1; fill-opacity: 0.8; stroke: #3498db; stroke-opacity: 0.8; stroke-width: 0.7"/>
     <use xlink:href="#md57da5a4fc" x="155.507913" y="74.957804" style="fill: #a9bbf1; fill-opacity: 0.8; stroke: #3498db; stroke-opacity: 0.8; stroke-width: 0.7"/>
     <use xlink:href="#md57da5a4fc" x="152.398243" y="74.349888" style="fill: #a9bbf1; fill-opacity: 0.8; stroke: #3498db; stroke-opacity: 0.8; stroke-width: 0.7"/>
     <use xlink:href="#md57da5a4fc" x="149.30214" y="73.649826" style="fill: #a9bbf1; fill-opacity: 0.8; stroke: #3498db; stroke-opacity: 0.8; stroke-width: 0.7"/>
     <use xlink:href="#md57da5a4fc" x="146.246621" y="72.642746" style="fill: #a9bbf1; fill-opacity: 0.8; stroke: #3498db; stroke-opacity: 0.8; stroke-width: 0.7"/>
     <use xlink:href="#md57da5a4fc" x="143.277841" y="72.184204" style="fill: #a9bbf1; fill-opacity: 0.8; stroke: #3498db; stroke-opacity: 0.8; stroke-width: 0.7"/>
     <use xlink:href="#md57da5a4fc" x="140.418593" y="71.412089" style="fill: #a9bbf1; fill-opacity: 0.8; stroke: #3498db; stroke-opacity: 0.8; stroke-width: 0.7"/>
     <use xlink:href="#md57da5a4fc" x="137.692031" y="70.926106" style="fill: #a9bbf1; fill-opacity: 0.8; stroke: #3498db; stroke-opacity: 0.8; stroke-width: 0.7"/>
     <use xlink:href="#md57da5a4fc" x="132.737806" y="69.870592" style="fill: #a9bbf1; fill-opacity: 0.8; stroke: #3498db; stroke-opacity: 0.8; stroke-width: 0.7"/>
     <use xlink:href="#md57da5a4fc" x="128.519995" y="69.019994" style="fill: #a9bbf1; fill-opacity: 0.8; stroke: #3498db; stroke-opacity: 0.8; stroke-width: 0.7"/>
     <use xlink:href="#md57da5a4fc" x="125.047665" y="68.305776" style="fill: #a9bbf1; fill-opacity: 0.8; stroke: #3498db; stroke-opacity: 0.8; stroke-width: 0.7"/>
     <use xlink:href="#md57da5a4fc" x="95.685981" y="54.322544" style="fill: #a9bbf1; fill-opacity: 0.8; stroke: #3498db; stroke-opacity: 0.8; stroke-width: 0.7"/>
     <use xlink:href="#md57da5a4fc" x="93.441163" y="52.242188" style="fill: #a9bbf1; fill-opacity: 0.8; stroke: #3498db; stroke-opacity: 0.8; stroke-width: 0.7"/>
     <use xlink:href="#md57da5a4fc" x="90.935847" y="50.671477" style="fill: #a9bbf1; fill-opacity: 0.8; stroke: #3498db; stroke-opacity: 0.8; stroke-width: 0.7"/>
     <use xlink:href="#md57da5a4fc" x="88.054937" y="48.732043" style="fill: #a9bbf1; fill-opacity: 0.8; stroke: #3498db; stroke-opacity: 0.8; stroke-width: 0.7"/>
     <use xlink:href="#md57da5a4fc" x="65.006651" y="32.471412" style="fill: #a9bbf1; fill-opacity: 0.8; stroke: #3498db; stroke-opacity: 0.8; stroke-width: 0.7"/>
     <use xlink:href="#md57da5a4fc" x="67.833678" y="34.586888" style="fill: #a9bbf1; fill-opacity: 0.8; stroke: #3498db; stroke-opacity: 0.8; stroke-width: 0.7"/>
     <use xlink:href="#md57da5a4fc" x="78.856004" y="43.422738" style="fill: #a9bbf1; fill-opacity: 0.8; stroke: #3498db; stroke-opacity: 0.8; stroke-width: 0.7"/>
     <use xlink:href="#md57da5a4fc" x="80.977749" y="44.477097" style="fill: #a9bbf1; fill-opacity: 0.8; stroke: #3498db; stroke-opacity: 0.8; stroke-width: 0.7"/>
     <use xlink:href="#md57da5a4fc" x="83.275832" y="45.235652" style="fill: #a9bbf1; fill-opacity: 0.8; stroke: #3498db; stroke-opacity: 0.8; stroke-width: 0.7"/>
     <use xlink:href="#md57da5a4fc" x="85.715145" y="46.482069" style="fill: #a9bbf1; fill-opacity: 0.8; stroke: #3498db; stroke-opacity: 0.8; stroke-width: 0.7"/>
     <use xlink:href="#md57da5a4fc" x="98.121491" y="52.029103" style="fill: #a9bbf1; fill-opacity: 0.8; stroke: #3498db; stroke-opacity: 0.8; stroke-width: 0.7"/>
     <use xlink:href="#md57da5a4fc" x="100.328268" y="53.116786" style="fill: #a9bbf1; fill-opacity: 0.8; stroke: #3498db; stroke-opacity: 0.8; stroke-width: 0.7"/>
     <use xlink:href="#md57da5a4fc" x="118.178126" y="60.989349" style="fill: #a9bbf1; fill-opacity: 0.8; stroke: #3498db; stroke-opacity: 0.8; stroke-width: 0.7"/>
     <use xlink:href="#md57da5a4fc" x="122.894008" y="62.440394" style="fill: #a9bbf1; fill-opacity: 0.8; stroke: #3498db; stroke-opacity: 0.8; stroke-width: 0.7"/>
    </g>
   </g>
   <g id="PathCollection_2">
    <defs>
     <path id="mece7b0f721" d="M 0 3.162278 
C 0.838646 3.162278 1.643056 2.82908 2.236068 2.236068 
C 2.82908 1.643056 3.162278 0.838646 3.162278 0 
C 3.162278 -0.838646 2.82908 -1.643056 2.236068 -2.236068 
C 1.643056 -2.82908 0.838646 -3.162278 0 -3.162278 
C -0.838646 -3.162278 -1.643056 -2.82908 -2.236068 -2.236068 
C -2.82908 -1.643056 -3.162278 -0.838646 -3.162278 0 
C -3.162278 0.838646 -2.82908 1.643056 -2.236068 2.236068 
C -1.643056 2.82908 -0.838646 3.162278 0 3.162278 
z
" style="stroke: #d62728; stroke-opacity: 0.9; stroke-width: 1.2"/>
    </defs>
    <g clip-path="url(#p783368963e)">
     <use xlink:href="#mece7b0f721" x="73.453327" y="39.196497" style="fill: #ffffff; fill-opacity: 0.9; stroke: #d62728; stroke-opacity: 0.9; stroke-width: 1.2"/>
     <use xlink:href="#mece7b0f721" x="53.121121" y="24.072338" style="fill: #ffffff; fill-opacity: 0.9; stroke: #d62728; stroke-opacity: 0.9; stroke-width: 1.2"/>
     <use xlink:href="#mece7b0f721" x="46.441209" y="21.542168" style="fill: #ffffff; fill-opacity: 0.9; stroke: #d62728; stroke-opacity: 0.9; stroke-width: 1.2"/>
     <use xlink:href="#mece7b0f721" x="55.209698" y="25.252943" style="fill: #ffffff; fill-opacity: 0.9; stroke: #d62728; stroke-opacity: 0.9; stroke-width: 1.2"/>
     <use xlink:href="#mece7b0f721" x="68.281574" y="35.07663" style="fill: #ffffff; fill-opacity: 0.9; stroke: #d62728; stroke-opacity: 0.9; stroke-width: 1.2"/>
     <use xlink:href="#mece7b0f721" x="81.103604" y="44.583639" style="fill: #ffffff; fill-opacity: 0.9; stroke: #d62728; stroke-opacity: 0.9; stroke-width: 1.2"/>
     <use xlink:href="#mece7b0f721" x="93.292496" y="51.12765" style="fill: #ffffff; fill-opacity: 0.9; stroke: #d62728; stroke-opacity: 0.9; stroke-width: 1.2"/>
     <use xlink:href="#mece7b0f721" x="104.585919" y="56.525353" style="fill: #ffffff; fill-opacity: 0.9; stroke: #d62728; stroke-opacity: 0.9; stroke-width: 1.2"/>
     <use xlink:href="#mece7b0f721" x="113.918587" y="61.49537" style="fill: #ffffff; fill-opacity: 0.9; stroke: #d62728; stroke-opacity: 0.9; stroke-width: 1.2"/>
     <use xlink:href="#mece7b0f721" x="121.241574" y="65.389635" style="fill: #ffffff; fill-opacity: 0.9; stroke: #d62728; stroke-opacity: 0.9; stroke-width: 1.2"/>
     <use xlink:href="#mece7b0f721" x="126.807643" y="67.956848" style="fill: #ffffff; fill-opacity: 0.9; stroke: #d62728; stroke-opacity: 0.9; stroke-width: 1.2"/>
    </g>
   </g>
   <g id="legend_1">
    <g id="PathCollection_3">
     <g>
      <use xlink:href="#md57da5a4fc" x="150.740345" y="18.37875" style="fill: #a9bbf1; fill-opacity: 0.8; stroke: #3498db; stroke-opacity: 0.8; stroke-width: 0.7"/>
     </g>
    </g>
    <g id="text_13">
     <!-- Data -->
     <g transform="translate(165.140345 20.47875) scale(0.08 -0.08)">
      <defs>
       <path id="DejaVuSerif-44" d="M 1581 331 
L 2163 331 
Q 3072 331 3558 850 
Q 4044 1369 4044 2338 
Q 4044 3306 3559 3818 
Q 3075 4331 2163 4331 
L 1581 4331 
L 1581 331 
z
M 353 0 
L 353 331 
L 947 331 
L 947 4331 
L 353 4331 
L 353 4666 
L 2209 4666 
Q 3416 4666 4089 4050 
Q 4763 3434 4763 2338 
Q 4763 1238 4088 619 
Q 3413 0 2209 0 
L 353 0 
z
" transform="scale(0.015625)"/>
       <path id="DejaVuSerif-61" d="M 2547 1044 
L 2547 1747 
L 1806 1747 
Q 1378 1747 1168 1562 
Q 959 1378 959 997 
Q 959 650 1171 447 
Q 1384 244 1747 244 
Q 2106 244 2326 466 
Q 2547 688 2547 1044 
z
M 3122 2075 
L 3122 331 
L 3634 331 
L 3634 0 
L 2547 0 
L 2547 359 
Q 2356 128 2106 18 
Q 1856 -91 1522 -91 
Q 969 -91 644 203 
Q 319 497 319 997 
Q 319 1513 691 1797 
Q 1063 2081 1741 2081 
L 2547 2081 
L 2547 2309 
Q 2547 2688 2317 2895 
Q 2088 3103 1672 3103 
Q 1328 3103 1125 2947 
Q 922 2791 872 2484 
L 575 2484 
L 575 3156 
Q 875 3284 1158 3348 
Q 1441 3413 1709 3413 
Q 2400 3413 2761 3070 
Q 3122 2728 3122 2075 
z
" transform="scale(0.015625)"/>
       <path id="DejaVuSerif-74" d="M 691 2988 
L 184 2988 
L 184 3322 
L 691 3322 
L 691 4353 
L 1269 4353 
L 1269 3322 
L 2350 3322 
L 2350 2988 
L 1269 2988 
L 1269 878 
Q 1269 456 1350 337 
Q 1431 219 1650 219 
Q 1875 219 1978 351 
Q 2081 484 2088 781 
L 2522 781 
Q 2497 328 2275 118 
Q 2053 -91 1600 -91 
Q 1103 -91 897 129 
Q 691 350 691 878 
L 691 2988 
z
" transform="scale(0.015625)"/>
      </defs>
      <use xlink:href="#DejaVuSerif-44"/>
      <use xlink:href="#DejaVuSerif-61" x="80.175781"/>
      <use xlink:href="#DejaVuSerif-74" x="139.794922"/>
      <use xlink:href="#DejaVuSerif-61" x="179.980469"/>
     </g>
    </g>
    <g id="line2d_23">
     <path d="M 142.740345 29.42125 
L 150.740345 29.42125 
L 158.740345 29.42125 
" style="fill: none; stroke: #e74c3c; stroke-linecap: square"/>
    </g>
    <g id="text_14">
     <!-- GP Fit -->
     <g transform="translate(165.140345 32.22125) scale(0.08 -0.08)">
      <defs>
       <path id="DejaVuSerif-47" d="M 4097 3272 
Q 3988 3856 3641 4136 
Q 3294 4416 2675 4416 
Q 1869 4416 1472 3897 
Q 1075 3378 1075 2328 
Q 1075 1300 1484 772 
Q 1894 244 2688 244 
Q 3041 244 3362 331 
Q 3684 419 3975 594 
L 3975 1797 
L 3097 1797 
L 3097 2131 
L 4609 2131 
L 4609 391 
Q 4194 150 3714 29 
Q 3234 -91 2688 -91 
Q 1631 -91 995 570 
Q 359 1231 359 2328 
Q 359 3434 996 4092 
Q 1634 4750 2713 4750 
Q 3113 4750 3539 4658 
Q 3966 4566 4447 4378 
L 4447 3272 
L 4097 3272 
z
" transform="scale(0.015625)"/>
       <path id="DejaVuSerif-50" d="M 1581 2375 
L 2406 2375 
Q 2872 2375 3115 2626 
Q 3359 2878 3359 3353 
Q 3359 3831 3115 4081 
Q 2872 4331 2406 4331 
L 1581 4331 
L 1581 2375 
z
M 353 0 
L 353 331 
L 947 331 
L 947 4331 
L 353 4331 
L 353 4666 
L 2559 4666 
Q 3259 4666 3668 4311 
Q 4078 3956 4078 3353 
Q 4078 2753 3668 2397 
Q 3259 2041 2559 2041 
L 1581 2041 
L 1581 331 
L 2303 331 
L 2303 0 
L 353 0 
z
" transform="scale(0.015625)"/>
       <path id="DejaVuSerif-46" d="M 353 0 
L 353 331 
L 947 331 
L 947 4331 
L 353 4331 
L 353 4666 
L 4172 4666 
L 4172 3628 
L 3788 3628 
L 3788 4281 
L 1581 4281 
L 1581 2719 
L 3175 2719 
L 3175 3303 
L 3559 3303 
L 3559 1753 
L 3175 1753 
L 3175 2338 
L 1581 2338 
L 1581 331 
L 2328 331 
L 2328 0 
L 353 0 
z
" transform="scale(0.015625)"/>
       <path id="DejaVuSerif-69" d="M 622 4353 
Q 622 4497 726 4603 
Q 831 4709 978 4709 
Q 1122 4709 1226 4603 
Q 1331 4497 1331 4353 
Q 1331 4206 1228 4103 
Q 1125 4000 978 4000 
Q 831 4000 726 4103 
Q 622 4206 622 4353 
z
M 1356 331 
L 1900 331 
L 1900 0 
L 231 0 
L 231 331 
L 781 331 
L 781 2988 
L 231 2988 
L 231 3322 
L 1356 3322 
L 1356 331 
z
" transform="scale(0.015625)"/>
      </defs>
      <use xlink:href="#DejaVuSerif-47"/>
      <use xlink:href="#DejaVuSerif-50" x="79.882812"/>
      <use xlink:href="#DejaVuSerif-20" x="147.167969"/>
      <use xlink:href="#DejaVuSerif-46" x="178.955078"/>
      <use xlink:href="#DejaVuSerif-69" x="248.339844"/>
      <use xlink:href="#DejaVuSerif-74" x="280.322266"/>
     </g>
    </g>
    <g id="patch_7">
     <path d="M 142.740345 43.96375 
L 158.740345 43.96375 
L 158.740345 38.36375 
L 142.740345 38.36375 
z
" style="fill: #e74c3c; fill-opacity: 0.2; stroke: #e74c3c; stroke-opacity: 0.2; stroke-linejoin: miter"/>
    </g>
    <g id="text_15">
     <!-- 95% CI -->
     <g transform="translate(165.140345 43.96375) scale(0.08 -0.08)">
      <defs>
       <path id="DejaVuSerif-39" d="M 2994 2091 
Q 2784 1856 2512 1740 
Q 2241 1625 1900 1625 
Q 1206 1625 804 2044 
Q 403 2463 403 3188 
Q 403 3897 839 4323 
Q 1275 4750 2003 4750 
Q 2794 4750 3217 4161 
Q 3641 3572 3641 2478 
Q 3641 1253 3137 581 
Q 2634 -91 1722 -91 
Q 1475 -91 1203 -44 
Q 931 3 647 97 
L 647 872 
L 997 872 
Q 1038 556 1241 387 
Q 1444 219 1784 219 
Q 2391 219 2687 676 
Q 2984 1134 2994 2091 
z
M 1978 4441 
Q 1534 4441 1298 4117 
Q 1063 3794 1063 3188 
Q 1063 2581 1298 2256 
Q 1534 1931 1978 1931 
Q 2422 1931 2658 2245 
Q 2894 2559 2894 3150 
Q 2894 3772 2656 4106 
Q 2419 4441 1978 4441 
z
" transform="scale(0.015625)"/>
       <path id="DejaVuSerif-35" d="M 3219 4666 
L 3219 4153 
L 1081 4153 
L 1081 2816 
Q 1244 2928 1461 2984 
Q 1678 3041 1947 3041 
Q 2703 3041 3140 2622 
Q 3578 2203 3578 1478 
Q 3578 738 3136 323 
Q 2694 -91 1894 -91 
Q 1572 -91 1234 -12 
Q 897 66 544 225 
L 544 1131 
L 897 1131 
Q 925 688 1179 453 
Q 1434 219 1894 219 
Q 2388 219 2653 544 
Q 2919 869 2919 1478 
Q 2919 2084 2655 2407 
Q 2391 2731 1894 2731 
Q 1613 2731 1398 2631 
Q 1184 2531 1019 2322 
L 750 2322 
L 750 4666 
L 3219 4666 
z
" transform="scale(0.015625)"/>
       <path id="DejaVuSerif-25" d="M 1434 4459 
Q 1159 4459 1004 4200 
Q 850 3941 850 3475 
Q 850 3016 1008 2753 
Q 1166 2491 1434 2491 
Q 1700 2491 1854 2752 
Q 2009 3013 2009 3475 
Q 2009 3938 1854 4198 
Q 1700 4459 1434 4459 
z
M 4653 2169 
Q 4381 2169 4226 1906 
Q 4072 1644 4072 1178 
Q 4072 719 4228 458 
Q 4384 197 4653 197 
Q 4922 197 5075 458 
Q 5228 719 5228 1178 
Q 5228 1641 5073 1905 
Q 4919 2169 4653 2169 
z
M 4653 2450 
Q 5147 2450 5437 2106 
Q 5728 1763 5728 1178 
Q 5728 594 5436 251 
Q 5144 -91 4653 -91 
Q 4153 -91 3862 251 
Q 3572 594 3572 1178 
Q 3572 1766 3864 2108 
Q 4156 2450 4653 2450 
z
M 4263 4750 
L 4738 4750 
L 1819 -91 
L 1344 -91 
L 4263 4750 
z
M 1428 4750 
Q 1922 4750 2215 4408 
Q 2509 4066 2509 3481 
Q 2509 2891 2217 2550 
Q 1925 2209 1428 2209 
Q 931 2209 642 2551 
Q 353 2894 353 3481 
Q 353 4063 643 4406 
Q 934 4750 1428 4750 
z
" transform="scale(0.015625)"/>
       <path id="DejaVuSerif-43" d="M 4513 1234 
Q 4306 581 3820 245 
Q 3334 -91 2591 -91 
Q 2134 -91 1743 65 
Q 1353 222 1050 525 
Q 700 875 529 1320 
Q 359 1766 359 2328 
Q 359 3416 987 4083 
Q 1616 4750 2644 4750 
Q 3025 4750 3456 4650 
Q 3888 4550 4384 4347 
L 4384 3272 
L 4031 3272 
Q 3916 3859 3567 4137 
Q 3219 4416 2591 4416 
Q 1844 4416 1459 3886 
Q 1075 3356 1075 2328 
Q 1075 1303 1459 773 
Q 1844 244 2591 244 
Q 3113 244 3450 492 
Q 3788 741 3938 1234 
L 4513 1234 
z
" transform="scale(0.015625)"/>
       <path id="DejaVuSerif-49" d="M 1581 331 
L 2175 331 
L 2175 0 
L 353 0 
L 353 331 
L 947 331 
L 947 4331 
L 353 4331 
L 353 4666 
L 2175 4666 
L 2175 4331 
L 1581 4331 
L 1581 331 
z
" transform="scale(0.015625)"/>
      </defs>
      <use xlink:href="#DejaVuSerif-39"/>
      <use xlink:href="#DejaVuSerif-35" x="63.623047"/>
      <use xlink:href="#DejaVuSerif-25" x="127.246094"/>
      <use xlink:href="#DejaVuSerif-20" x="222.265625"/>
      <use xlink:href="#DejaVuSerif-43" x="254.052734"/>
      <use xlink:href="#DejaVuSerif-49" x="330.566406"/>
     </g>
    </g>
    <g id="PathCollection_4">
     <g>
      <use xlink:href="#mece7b0f721" x="150.740345" y="53.60625" style="fill: #ffffff; fill-opacity: 0.9; stroke: #d62728; stroke-opacity: 0.9; stroke-width: 1.2"/>
     </g>
    </g>
    <g id="text_16">
     <!-- Pred -->
     <g transform="translate(165.140345 55.70625) scale(0.08 -0.08)">
      <defs>
       <path id="DejaVuSerif-72" d="M 3059 3328 
L 3059 2497 
L 2728 2497 
Q 2713 2744 2591 2866 
Q 2469 2988 2234 2988 
Q 1809 2988 1582 2694 
Q 1356 2400 1356 1850 
L 1356 331 
L 2022 331 
L 2022 0 
L 263 0 
L 263 331 
L 781 331 
L 781 2994 
L 231 2994 
L 231 3322 
L 1356 3322 
L 1356 2731 
Q 1525 3078 1790 3245 
Q 2056 3413 2438 3413 
Q 2578 3413 2733 3391 
Q 2888 3369 3059 3328 
z
" transform="scale(0.015625)"/>
       <path id="DejaVuSerif-65" d="M 3469 1600 
L 991 1600 
L 991 1575 
Q 991 903 1244 561 
Q 1497 219 1991 219 
Q 2369 219 2611 417 
Q 2853 616 2950 1006 
L 3413 1006 
Q 3275 459 2904 184 
Q 2534 -91 1931 -91 
Q 1203 -91 761 389 
Q 319 869 319 1663 
Q 319 2450 753 2931 
Q 1188 3413 1894 3413 
Q 2647 3413 3050 2948 
Q 3453 2484 3469 1600 
z
M 2791 1931 
Q 2772 2513 2545 2808 
Q 2319 3103 1894 3103 
Q 1497 3103 1269 2806 
Q 1041 2509 991 1931 
L 2791 1931 
z
" transform="scale(0.015625)"/>
       <path id="DejaVuSerif-64" d="M 3359 331 
L 3909 331 
L 3909 0 
L 2784 0 
L 2784 519 
Q 2616 206 2355 57 
Q 2094 -91 1709 -91 
Q 1097 -91 708 395 
Q 319 881 319 1663 
Q 319 2444 706 2928 
Q 1094 3413 1709 3413 
Q 2094 3413 2355 3264 
Q 2616 3116 2784 2803 
L 2784 4531 
L 2241 4531 
L 2241 4863 
L 3359 4863 
L 3359 331 
z
M 2784 1497 
L 2784 1825 
Q 2784 2422 2554 2737 
Q 2325 3053 1888 3053 
Q 1444 3053 1217 2703 
Q 991 2353 991 1663 
Q 991 975 1217 622 
Q 1444 269 1888 269 
Q 2325 269 2554 583 
Q 2784 897 2784 1497 
z
" transform="scale(0.015625)"/>
      </defs>
      <use xlink:href="#DejaVuSerif-50"/>
      <use xlink:href="#DejaVuSerif-72" x="67.285156"/>
      <use xlink:href="#DejaVuSerif-65" x="115.087891"/>
      <use xlink:href="#DejaVuSerif-64" x="174.267578"/>
     </g>
    </g>
   </g>
  </g>
 </g>
 <defs>
  <clipPath id="p783368963e">
   <rect x="39.03625" y="7.2" width="162.909095" height="89.892"/>
  </clipPath>
 </defs>
</svg>
