<?xml version="1.0" encoding="utf-8" standalone="no"?>
<!DOCTYPE svg PUBLIC "-//W3C//DTD SVG 1.1//EN"
  "http://www.w3.org/Graphics/SVG/1.1/DTD/svg11.dtd">
<svg xmlns:xlink="http://www.w3.org/1999/xlink" width="210.292pt" height="131.14825pt" viewBox="0 0 210.292 131.14825" xmlns="http://www.w3.org/2000/svg" version="1.1">
 <metadata>
  <rdf:RDF xmlns:dc="http://purl.org/dc/elements/1.1/" xmlns:cc="http://creativecommons.org/ns#" xmlns:rdf="http://www.w3.org/1999/02/22-rdf-syntax-ns#">
   <cc:Work>
    <dc:type rdf:resource="http://purl.org/dc/dcmitype/StillImage"/>
    <dc:date>2026-02-09T15:17:11.341460</dc:date>
    <dc:format>image/svg+xml</dc:format>
    <dc:creator>
     <cc:Agent>
      <dc:title>Matplotlib v3.7.5, https://matplotlib.org/</dc:title>
     </cc:Agent>
    </dc:creator>
   </cc:Work>
  </rdf:RDF>
 </metadata>
 <defs>
  <style type="text/css">*{stroke-linejoin: round; stroke-linecap: butt}</style>
 </defs>
 <g id="figure_1">
  <g id="patch_1">
   <path d="M 0 131.14825 
L 210.292 131.14825 
L 210.292 0 
L 0 0 
z
" style="fill: #ffffff"/>
  </g>
  <g id="axes_1">
   <g id="patch_2">
    <path d="M 41.74 97.092 
L 203.092 97.092 
L 203.092 7.2 
L 41.74 7.2 
z
" style="fill: #ffffff"/>
   </g>
   <g id="matplotlib.axis_1">
    <g id="xtick_1">
     <g id="line2d_1">
      <path d="M 64.992943 97.092 
L 64.992943 7.2 
" clip-path="url(#pbea5c45ca9)" style="fill: none; stroke-dasharray: 1.85,0.8; stroke-dashoffset: 0; stroke: #b0b0b0; stroke-opacity: 0.5; stroke-width: 0.5"/>
     </g>
     <g id="line2d_2">
      <defs>
       <path id="m3bf22aca15" d="M 0 0 
L 0 -3 
" style="stroke: #000000; stroke-width: 0.5"/>
      </defs>
      <g>
       <use xlink:href="#m3bf22aca15" x="64.992943" y="97.092" style="stroke: #000000; stroke-width: 0.5"/>
      </g>
     </g>
     <g id="text_1">
      <!-- −2 -->
      <g transform="translate(59.096068 106.67075) scale(0.08 -0.08)">
       <defs>
        <path id="DejaVuSerif-2212" d="M 678 2259 
L 4684 2259 
L 4684 1753 
L 678 1753 
L 678 2259 
z
" transform="scale(0.015625)"/>
        <path id="DejaVuSerif-32" d="M 819 3553 
L 469 3553 
L 469 4384 
Q 803 4563 1142 4656 
Q 1481 4750 1806 4750 
Q 2534 4750 2956 4397 
Q 3378 4044 3378 3438 
Q 3378 2753 2422 1800 
Q 2347 1728 2309 1691 
L 1131 513 
L 3078 513 
L 3078 1088 
L 3444 1088 
L 3444 0 
L 434 0 
L 434 341 
L 1850 1753 
Q 2319 2222 2519 2614 
Q 2719 3006 2719 3438 
Q 2719 3909 2473 4175 
Q 2228 4441 1797 4441 
Q 1350 4441 1106 4219 
Q 863 3997 819 3553 
z
" transform="scale(0.015625)"/>
       </defs>
       <use xlink:href="#DejaVuSerif-2212"/>
       <use xlink:href="#DejaVuSerif-32" x="83.789062"/>
      </g>
     </g>
    </g>
    <g id="xtick_2">
     <g id="line2d_3">
      <path d="M 96.344823 97.092 
L 96.344823 7.2 
" clip-path="url(#pbea5c45ca9)" style="fill: none; stroke-dasharray: 1.85,0.8; stroke-dashoffset: 0; stroke: #b0b0b0; stroke-opacity: 0.5; stroke-width: 0.5"/>
     </g>
     <g id="line2d_4">
      <g>
       <use xlink:href="#m3bf22aca15" x="96.344823" y="97.092" style="stroke: #000000; stroke-width: 0.5"/>
      </g>
     </g>
     <g id="text_2">
      <!-- 0 -->
      <g transform="translate(93.799823 106.67075) scale(0.08 -0.08)">
       <defs>
        <path id="DejaVuSerif-30" d="M 2034 219 
Q 2513 219 2750 744 
Q 2988 1269 2988 2328 
Q 2988 3391 2750 3916 
Q 2513 4441 2034 4441 
Q 1556 4441 1318 3916 
Q 1081 3391 1081 2328 
Q 1081 1269 1318 744 
Q 1556 219 2034 219 
z
M 2034 -91 
Q 1275 -91 848 546 
Q 422 1184 422 2328 
Q 422 3475 848 4112 
Q 1275 4750 2034 4750 
Q 2797 4750 3222 4112 
Q 3647 3475 3647 2328 
Q 3647 1184 3222 546 
Q 2797 -91 2034 -91 
z
" transform="scale(0.015625)"/>
       </defs>
       <use xlink:href="#DejaVuSerif-30"/>
      </g>
     </g>
    </g>
    <g id="xtick_3">
     <g id="line2d_5">
      <path d="M 127.696704 97.092 
L 127.696704 7.2 
" clip-path="url(#pbea5c45ca9)" style="fill: none; stroke-dasharray: 1.85,0.8; stroke-dashoffset: 0; stroke: #b0b0b0; stroke-opacity: 0.5; stroke-width: 0.5"/>
     </g>
     <g id="line2d_6">
      <g>
       <use xlink:href="#m3bf22aca15" x="127.696704" y="97.092" style="stroke: #000000; stroke-width: 0.5"/>
      </g>
     </g>
     <g id="text_3">
      <!-- 2 -->
      <g transform="translate(125.151704 106.67075) scale(0.08 -0.08)">
       <use xlink:href="#DejaVuSerif-32"/>
      </g>
     </g>
    </g>
    <g id="xtick_4">
     <g id="line2d_7">
      <path d="M 159.048585 97.092 
L 159.048585 7.2 
" clip-path="url(#pbea5c45ca9)" style="fill: none; stroke-dasharray: 1.85,0.8; stroke-dashoffset: 0; stroke: #b0b0b0; stroke-opacity: 0.5; stroke-width: 0.5"/>
     </g>
     <g id="line2d_8">
      <g>
       <use xlink:href="#m3bf22aca15" x="159.048585" y="97.092" style="stroke: #000000; stroke-width: 0.5"/>
      </g>
     </g>
     <g id="text_4">
      <!-- 4 -->
      <g transform="translate(156.503585 106.67075) scale(0.08 -0.08)">
       <defs>
        <path id="DejaVuSerif-34" d="M 2234 1581 
L 2234 4063 
L 641 1581 
L 2234 1581 
z
M 3609 0 
L 1484 0 
L 1484 331 
L 2234 331 
L 2234 1247 
L 197 1247 
L 197 1588 
L 2241 4750 
L 2859 4750 
L 2859 1581 
L 3750 1581 
L 3750 1247 
L 2859 1247 
L 2859 331 
L 3609 331 
L 3609 0 
z
" transform="scale(0.015625)"/>
       </defs>
       <use xlink:href="#DejaVuSerif-34"/>
      </g>
     </g>
    </g>
    <g id="xtick_5">
     <g id="line2d_9">
      <path d="M 190.400465 97.092 
L 190.400465 7.2 
" clip-path="url(#pbea5c45ca9)" style="fill: none; stroke-dasharray: 1.85,0.8; stroke-dashoffset: 0; stroke: #b0b0b0; stroke-opacity: 0.5; stroke-width: 0.5"/>
     </g>
     <g id="line2d_10">
      <g>
       <use xlink:href="#m3bf22aca15" x="190.400465" y="97.092" style="stroke: #000000; stroke-width: 0.5"/>
      </g>
     </g>
     <g id="text_5">
      <!-- 6 -->
      <g transform="translate(187.855465 106.67075) scale(0.08 -0.08)">
       <defs>
        <path id="DejaVuSerif-36" d="M 2094 219 
Q 2534 219 2771 542 
Q 3009 866 3009 1472 
Q 3009 2078 2771 2401 
Q 2534 2725 2094 2725 
Q 1647 2725 1412 2412 
Q 1178 2100 1178 1509 
Q 1178 888 1415 553 
Q 1653 219 2094 219 
z
M 1075 2569 
Q 1288 2803 1556 2918 
Q 1825 3034 2163 3034 
Q 2859 3034 3264 2615 
Q 3669 2197 3669 1472 
Q 3669 763 3233 336 
Q 2797 -91 2069 -91 
Q 1278 -91 853 498 
Q 428 1088 428 2181 
Q 428 3406 931 4078 
Q 1434 4750 2350 4750 
Q 2597 4750 2869 4703 
Q 3141 4656 3425 4563 
L 3425 3794 
L 3072 3794 
Q 3034 4109 2831 4275 
Q 2628 4441 2284 4441 
Q 1678 4441 1381 3981 
Q 1084 3522 1075 2569 
z
" transform="scale(0.015625)"/>
       </defs>
       <use xlink:href="#DejaVuSerif-36"/>
      </g>
     </g>
    </g>
    <g id="text_6">
     <!-- $v_{x}$ [m/s] -->
     <g transform="translate(100.216 121.452625) scale(0.12 -0.12)">
      <defs>
       <path id="STIXGeneral-Italic-76" d="M 1325 448 
L 1523 653 
Q 1869 1005 2134 1456 
Q 2400 1907 2400 2131 
Q 2400 2208 2285 2317 
Q 2125 2458 2125 2605 
Q 2125 2701 2195 2761 
Q 2266 2822 2368 2822 
Q 2522 2822 2624 2704 
Q 2726 2586 2726 2445 
Q 2726 2074 2323 1453 
Q 1971 909 1562 474 
Q 1504 416 1421 326 
Q 1338 237 1299 192 
Q 1261 147 1200 86 
Q 1139 26 1110 -3 
Q 1082 -32 1043 -64 
Q 1005 -96 979 -105 
Q 954 -115 928 -115 
Q 870 -115 870 58 
L 870 211 
Q 870 1094 717 1990 
Q 653 2355 579 2470 
Q 506 2586 326 2586 
Q 198 2586 128 2579 
L 128 2662 
Q 480 2720 845 2797 
Q 915 2822 973 2822 
Q 1011 2822 1033 2739 
Q 1056 2656 1165 2093 
Q 1280 1510 1325 448 
z
" transform="scale(0.015625)"/>
       <path id="STIXGeneral-Italic-78" d="M 1555 2272 
L 1632 1907 
Q 1971 2426 2179 2624 
Q 2387 2822 2598 2822 
Q 2714 2822 2787 2755 
Q 2861 2688 2861 2585 
Q 2861 2483 2800 2419 
Q 2739 2355 2643 2355 
Q 2586 2355 2490 2409 
Q 2394 2464 2310 2464 
Q 2125 2464 1683 1690 
Q 1683 1606 1734 1402 
L 1939 544 
Q 2003 282 2131 282 
Q 2234 282 2432 538 
Q 2451 563 2476 598 
Q 2502 634 2521 662 
Q 2541 691 2566 717 
L 2662 659 
Q 2387 230 2227 80 
Q 2067 -70 1882 -70 
Q 1728 -70 1645 26 
Q 1562 122 1504 365 
L 1318 1126 
L 755 365 
Q 557 96 432 13 
Q 307 -70 147 -70 
Q 0 -70 -86 0 
Q -173 70 -173 198 
Q -173 294 -112 361 
Q -51 429 45 429 
Q 122 429 250 358 
Q 346 301 416 301 
Q 525 301 742 614 
L 1267 1357 
L 1088 2150 
Q 1024 2432 969 2509 
Q 915 2586 794 2586 
Q 717 2586 544 2541 
L 429 2509 
L 410 2611 
L 480 2637 
Q 992 2822 1229 2822 
Q 1350 2822 1420 2707 
Q 1491 2592 1555 2272 
z
" transform="scale(0.015625)"/>
       <path id="DejaVuSerif-20" transform="scale(0.015625)"/>
       <path id="DejaVuSerif-5b" d="M 550 4863 
L 2003 4863 
L 2003 4531 
L 1147 4531 
L 1147 -513 
L 2003 -513 
L 2003 -844 
L 550 -844 
L 550 4863 
z
" transform="scale(0.015625)"/>
       <path id="DejaVuSerif-6d" d="M 3316 2675 
Q 3481 3041 3739 3227 
Q 3997 3413 4341 3413 
Q 4863 3413 5119 3089 
Q 5375 2766 5375 2113 
L 5375 331 
L 5894 331 
L 5894 0 
L 4300 0 
L 4300 331 
L 4800 331 
L 4800 2047 
Q 4800 2556 4650 2772 
Q 4500 2988 4153 2988 
Q 3769 2988 3567 2697 
Q 3366 2406 3366 1850 
L 3366 331 
L 3866 331 
L 3866 0 
L 2291 0 
L 2291 331 
L 2791 331 
L 2791 2069 
Q 2791 2566 2641 2777 
Q 2491 2988 2144 2988 
Q 1759 2988 1557 2697 
Q 1356 2406 1356 1850 
L 1356 331 
L 1856 331 
L 1856 0 
L 263 0 
L 263 331 
L 781 331 
L 781 2994 
L 231 2994 
L 231 3322 
L 1356 3322 
L 1356 2731 
Q 1516 3063 1762 3238 
Q 2009 3413 2322 3413 
Q 2709 3413 2968 3220 
Q 3228 3028 3316 2675 
z
" transform="scale(0.015625)"/>
       <path id="DejaVuSerif-2f" d="M 1656 4666 
L 2156 4666 
L 500 -594 
L 0 -594 
L 1656 4666 
z
" transform="scale(0.015625)"/>
       <path id="DejaVuSerif-73" d="M 359 184 
L 359 959 
L 691 959 
Q 703 588 923 403 
Q 1144 219 1575 219 
Q 1963 219 2166 364 
Q 2369 509 2369 788 
Q 2369 1006 2220 1140 
Q 2072 1275 1594 1428 
L 1178 1569 
Q 750 1706 558 1912 
Q 366 2119 366 2438 
Q 366 2894 700 3153 
Q 1034 3413 1625 3413 
Q 1888 3413 2178 3344 
Q 2469 3275 2778 3144 
L 2778 2419 
L 2447 2419 
Q 2434 2741 2221 2922 
Q 2009 3103 1644 3103 
Q 1281 3103 1095 2975 
Q 909 2847 909 2591 
Q 909 2381 1050 2254 
Q 1191 2128 1613 1997 
L 2069 1856 
Q 2541 1709 2748 1489 
Q 2956 1269 2956 922 
Q 2956 450 2595 179 
Q 2234 -91 1600 -91 
Q 1278 -91 972 -22 
Q 666 47 359 184 
z
" transform="scale(0.015625)"/>
       <path id="DejaVuSerif-5d" d="M 1947 4863 
L 1947 -844 
L 494 -844 
L 494 -513 
L 1350 -513 
L 1350 4531 
L 494 4531 
L 494 4863 
L 1947 4863 
z
" transform="scale(0.015625)"/>
      </defs>
      <use xlink:href="#STIXGeneral-Italic-76" transform="translate(0 0.015625)"/>
      <use xlink:href="#STIXGeneral-Italic-78" transform="translate(44.399994 -13.2125) scale(0.7)"/>
      <use xlink:href="#DejaVuSerif-20" transform="translate(79.889365 0.015625)"/>
      <use xlink:href="#DejaVuSerif-5b" transform="translate(111.676474 0.015625)"/>
      <use xlink:href="#DejaVuSerif-6d" transform="translate(150.690146 0.015625)"/>
      <use xlink:href="#DejaVuSerif-2f" transform="translate(245.514365 0.015625)"/>
      <use xlink:href="#DejaVuSerif-73" transform="translate(279.205771 0.015625)"/>
      <use xlink:href="#DejaVuSerif-5d" transform="translate(330.52413 0.015625)"/>
     </g>
    </g>
   </g>
   <g id="matplotlib.axis_2">
    <g id="ytick_1">
     <g id="line2d_11">
      <path d="M 41.74 92.607431 
L 203.092 92.607431 
" clip-path="url(#pbea5c45ca9)" style="fill: none; stroke-dasharray: 1.85,0.8; stroke-dashoffset: 0; stroke: #b0b0b0; stroke-opacity: 0.5; stroke-width: 0.5"/>
     </g>
     <g id="line2d_12">
      <defs>
       <path id="m6afc063364" d="M 0 0 
L 3 0 
" style="stroke: #000000; stroke-width: 0.5"/>
      </defs>
      <g>
       <use xlink:href="#m6afc063364" x="41.74" y="92.607431" style="stroke: #000000; stroke-width: 0.5"/>
      </g>
     </g>
     <g id="text_7">
      <!-- -4.0 -->
      <g transform="translate(22.81375 95.646806) scale(0.08 -0.08)">
       <defs>
        <path id="DejaVuSerif-2d" d="M 281 1959 
L 1881 1959 
L 1881 1472 
L 281 1472 
L 281 1959 
z
" transform="scale(0.015625)"/>
        <path id="DejaVuSerif-2e" d="M 603 325 
Q 603 500 722 622 
Q 841 744 1019 744 
Q 1191 744 1312 622 
Q 1434 500 1434 325 
Q 1434 153 1312 31 
Q 1191 -91 1019 -91 
Q 841 -91 722 29 
Q 603 150 603 325 
z
" transform="scale(0.015625)"/>
       </defs>
       <use xlink:href="#DejaVuSerif-2d"/>
       <use xlink:href="#DejaVuSerif-34" x="33.789062"/>
       <use xlink:href="#DejaVuSerif-2e" x="97.412109"/>
       <use xlink:href="#DejaVuSerif-30" x="129.199219"/>
      </g>
     </g>
    </g>
    <g id="ytick_2">
     <g id="line2d_13">
      <path d="M 41.74 60.575382 
L 203.092 60.575382 
" clip-path="url(#pbea5c45ca9)" style="fill: none; stroke-dasharray: 1.85,0.8; stroke-dashoffset: 0; stroke: #b0b0b0; stroke-opacity: 0.5; stroke-width: 0.5"/>
     </g>
     <g id="line2d_14">
      <g>
       <use xlink:href="#m6afc063364" x="41.74" y="60.575382" style="stroke: #000000; stroke-width: 0.5"/>
      </g>
     </g>
     <g id="text_8">
      <!-- -2.0 -->
      <g transform="translate(22.81375 63.614757) scale(0.08 -0.08)">
       <use xlink:href="#DejaVuSerif-2d"/>
       <use xlink:href="#DejaVuSerif-32" x="33.789062"/>
       <use xlink:href="#DejaVuSerif-2e" x="97.412109"/>
       <use xlink:href="#DejaVuSerif-30" x="129.199219"/>
      </g>
     </g>
    </g>
    <g id="ytick_3">
     <g id="line2d_15">
      <path d="M 41.74 28.543333 
L 203.092 28.543333 
" clip-path="url(#pbea5c45ca9)" style="fill: none; stroke-dasharray: 1.85,0.8; stroke-dashoffset: 0; stroke: #b0b0b0; stroke-opacity: 0.5; stroke-width: 0.5"/>
     </g>
     <g id="line2d_16">
      <g>
       <use xlink:href="#m6afc063364" x="41.74" y="28.543333" style="stroke: #000000; stroke-width: 0.5"/>
      </g>
     </g>
     <g id="text_9">
      <!-- 0.0 -->
      <g transform="translate(25.5175 31.582708) scale(0.08 -0.08)">
       <use xlink:href="#DejaVuSerif-30"/>
       <use xlink:href="#DejaVuSerif-2e" x="63.623047"/>
       <use xlink:href="#DejaVuSerif-30" x="95.410156"/>
      </g>
     </g>
    </g>
    <g id="text_10">
     <!-- $\Delta a_{x}$ [m/s²] -->
     <g transform="translate(16.318125 81.426) rotate(-90) scale(0.12 -0.12)">
      <defs>
       <path id="STIXGeneral-Regular-394" d="M 4320 0 
L 307 0 
L 2221 4314 
L 2349 4314 
L 4320 0 
z
M 3354 589 
L 2118 3405 
L 870 589 
L 3354 589 
z
" transform="scale(0.015625)"/>
       <path id="STIXGeneral-Italic-61" d="M 2963 710 
L 3046 640 
Q 2688 205 2518 70 
Q 2349 -64 2157 -64 
Q 1901 -64 1901 198 
Q 1901 358 2048 934 
Q 1690 397 1389 163 
Q 1088 -70 749 -70 
Q 467 -70 288 125 
Q 109 320 109 672 
Q 109 1158 387 1664 
Q 666 2170 1094 2496 
Q 1523 2822 1939 2822 
Q 2368 2822 2451 2451 
L 2522 2758 
L 2541 2778 
L 2931 2822 
L 2976 2803 
Q 2970 2778 2938 2669 
Q 2368 595 2368 346 
Q 2368 262 2458 262 
Q 2554 262 2790 525 
L 2963 710 
z
M 2336 2310 
Q 2336 2477 2240 2579 
Q 2144 2682 1978 2682 
Q 1542 2682 1139 2093 
Q 928 1779 787 1395 
Q 646 1011 646 717 
Q 646 243 1030 243 
Q 1408 243 1843 870 
Q 2336 1581 2336 2310 
z
" transform="scale(0.015625)"/>
       <path id="DejaVuSerif-b2" d="M 531 4050 
L 313 4050 
L 313 4544 
Q 519 4644 737 4697 
Q 956 4750 1172 4750 
Q 1603 4750 1870 4544 
Q 2138 4338 2138 4013 
Q 2138 3631 1531 3088 
L 1472 3034 
L 728 2363 
L 1931 2363 
L 1931 2700 
L 2163 2700 
L 2163 2088 
L 281 2088 
L 281 2322 
L 1172 3116 
Q 1441 3356 1556 3547 
Q 1672 3738 1672 3944 
Q 1672 4209 1520 4364 
Q 1369 4519 1106 4519 
Q 863 4519 716 4400 
Q 569 4281 531 4050 
z
" transform="scale(0.015625)"/>
      </defs>
      <use xlink:href="#STIXGeneral-Regular-394" transform="translate(0 0.015625)"/>
      <use xlink:href="#STIXGeneral-Italic-61" transform="translate(72.199982 0.015625)"/>
      <use xlink:href="#STIXGeneral-Italic-78" transform="translate(122.299973 -13.2125) scale(0.7)"/>
      <use xlink:href="#DejaVuSerif-20" transform="translate(157.789343 0.015625)"/>
      <use xlink:href="#DejaVuSerif-5b" transform="translate(189.576453 0.015625)"/>
      <use xlink:href="#DejaVuSerif-6d" transform="translate(228.590125 0.015625)"/>
      <use xlink:href="#DejaVuSerif-2f" transform="translate(323.414343 0.015625)"/>
      <use xlink:href="#DejaVuSerif-73" transform="translate(357.10575 0.015625)"/>
      <use xlink:href="#DejaVuSerif-b2" transform="translate(408.424109 0.015625)"/>
      <use xlink:href="#DejaVuSerif-5d" transform="translate(448.512 0.015625)"/>
     </g>
    </g>
   </g>
   <g id="PolyCollection_1">
    <defs>
     <path id="m4899c10689" d="M 49.074182 -119.86225 
L 49.074182 -101.459391 
L 49.811286 -102.412009 
L 50.548389 -103.324663 
L 51.285493 -104.191576 
L 52.022597 -105.011697 
L 52.7597 -105.782667 
L 53.496804 -106.499853 
L 54.233908 -107.163342 
L 54.971011 -107.769584 
L 55.708115 -108.317596 
L 56.445219 -108.804803 
L 57.182323 -109.230747 
L 57.919426 -109.595879 
L 58.65653 -109.896543 
L 59.393634 -110.134939 
L 60.130737 -110.309661 
L 60.867841 -110.421989 
L 61.604945 -110.472085 
L 62.342048 -110.460691 
L 63.079152 -110.387403 
L 63.816256 -110.253868 
L 64.55336 -110.063005 
L 65.290463 -109.817247 
L 66.027567 -109.518632 
L 66.764671 -109.175979 
L 67.501774 -108.794032 
L 68.238878 -108.380337 
L 68.975982 -107.941556 
L 69.713085 -107.484542 
L 70.450189 -107.015115 
L 71.187293 -106.539202 
L 71.924397 -106.05642 
L 72.6615 -105.572018 
L 73.398604 -105.093508 
L 74.135708 -104.619686 
L 74.872811 -104.153851 
L 75.609915 -103.698361 
L 76.347019 -103.257222 
L 77.084122 -102.832226 
L 77.821226 -102.424492 
L 78.55833 -102.037286 
L 79.295434 -101.671724 
L 80.032537 -101.330695 
L 80.769641 -101.014725 
L 81.506745 -100.726059 
L 82.243848 -100.465218 
L 82.980952 -100.233273 
L 83.718056 -100.031501 
L 84.455159 -99.8603 
L 85.192263 -99.719291 
L 85.929367 -99.608415 
L 86.666471 -99.528973 
L 87.403574 -99.478456 
L 88.140678 -99.45667 
L 88.877782 -99.461879 
L 89.614885 -99.494483 
L 90.351989 -99.550359 
L 91.089093 -99.629138 
L 91.826196 -99.727984 
L 92.5633 -99.844766 
L 93.300404 -99.975068 
L 94.037508 -100.117999 
L 94.774611 -100.269793 
L 95.511715 -100.42622 
L 96.248819 -100.585511 
L 96.985922 -100.742335 
L 97.723026 -100.895267 
L 98.46013 -101.040644 
L 99.197233 -101.175364 
L 99.934337 -101.296981 
L 100.671441 -101.403255 
L 101.408545 -101.492095 
L 102.145648 -101.5616 
L 102.882752 -101.611686 
L 103.619856 -101.640768 
L 104.356959 -101.648635 
L 105.094063 -101.635449 
L 105.831167 -101.600664 
L 106.56827 -101.544732 
L 107.305374 -101.468872 
L 108.042478 -101.372304 
L 108.779582 -101.257453 
L 109.516685 -101.124064 
L 110.253789 -100.973505 
L 110.990893 -100.806751 
L 111.727996 -100.624788 
L 112.4651 -100.428926 
L 113.202204 -100.220172 
L 113.939307 -99.9994 
L 114.676411 -99.76831 
L 115.413515 -99.527553 
L 116.150619 -99.277623 
L 116.887722 -99.02008 
L 117.624826 -98.755347 
L 118.36193 -98.484256 
L 119.099033 -98.206922 
L 119.836137 -97.9238 
L 120.573241 -97.636035 
L 121.310344 -97.343311 
L 122.047448 -97.046354 
L 122.784552 -96.744601 
L 123.521656 -96.43908 
L 124.258759 -96.129906 
L 124.995863 -95.816546 
L 125.732967 -95.500528 
L 126.47007 -95.180759 
L 127.207174 -94.857781 
L 127.944278 -94.532289 
L 128.681381 -94.203187 
L 129.418485 -93.869976 
L 130.155589 -93.533913 
L 130.892693 -93.192662 
L 131.629796 -92.846948 
L 132.3669 -92.495508 
L 133.104004 -92.138367 
L 133.841107 -91.773898 
L 134.578211 -91.401364 
L 135.315315 -91.020806 
L 136.052418 -90.631498 
L 136.789522 -90.232011 
L 137.526626 -89.821976 
L 138.26373 -89.400803 
L 139.000833 -88.969105 
L 139.737937 -88.525888 
L 140.475041 -88.071024 
L 141.212144 -87.604278 
L 141.949248 -87.125401 
L 142.686352 -86.636286 
L 143.423455 -86.13467 
L 144.160559 -85.622873 
L 144.897663 -85.100074 
L 145.634767 -84.567238 
L 146.37187 -84.024981 
L 147.108974 -83.473177 
L 147.846078 -82.912322 
L 148.583181 -82.343373 
L 149.320285 -81.767067 
L 150.057389 -81.183042 
L 150.794492 -80.591273 
L 151.531596 -79.993195 
L 152.2687 -79.388428 
L 153.005804 -78.777639 
L 153.742907 -78.161435 
L 154.480011 -77.539212 
L 155.217115 -76.912169 
L 155.954218 -76.278912 
L 156.691322 -75.640759 
L 157.428426 -74.996888 
L 158.165529 -74.348552 
L 158.902633 -73.693936 
L 159.639737 -73.034178 
L 160.376841 -72.368329 
L 161.113944 -71.696889 
L 161.851048 -71.018953 
L 162.588152 -70.334047 
L 163.325255 -69.642903 
L 164.062359 -68.944526 
L 164.799463 -68.238963 
L 165.536566 -67.52576 
L 166.27367 -66.805098 
L 167.010774 -66.077499 
L 167.747878 -65.341598 
L 168.484981 -64.599183 
L 169.222085 -63.851441 
L 169.959189 -63.096852 
L 170.696292 -62.338406 
L 171.433396 -61.576566 
L 172.1705 -60.812084 
L 172.907603 -60.046677 
L 173.644707 -59.281263 
L 174.381811 -58.517426 
L 175.118915 -57.754646 
L 175.856018 -56.993497 
L 176.593122 -56.234235 
L 177.330226 -55.474731 
L 178.067329 -54.712746 
L 178.804433 -53.947286 
L 179.541537 -53.175159 
L 180.27864 -52.39746 
L 181.015744 -51.612759 
L 181.752848 -50.824861 
L 182.489952 -50.033386 
L 183.227055 -49.242754 
L 183.964159 -48.454425 
L 184.701263 -47.671896 
L 185.438366 -46.896706 
L 186.17547 -46.132262 
L 186.912574 -45.380144 
L 187.649677 -44.643223 
L 188.386781 -43.923791 
L 189.123885 -43.223429 
L 189.860989 -42.545471 
L 190.598092 -41.891107 
L 191.335196 -41.262907 
L 192.0723 -40.662785 
L 192.809403 -40.09202 
L 193.546507 -39.553295 
L 194.283611 -39.047724 
L 195.020714 -38.576606 
L 195.757818 -38.14225 
L 195.757818 -55.814851 
L 195.757818 -55.814851 
L 195.020714 -55.040184 
L 194.283611 -54.333915 
L 193.546507 -53.698185 
L 192.809403 -53.134641 
L 192.0723 -52.642056 
L 191.335196 -52.224077 
L 190.598092 -51.879578 
L 189.860989 -51.608287 
L 189.123885 -51.409354 
L 188.386781 -51.28277 
L 187.649677 -51.227883 
L 186.912574 -51.242118 
L 186.17547 -51.324216 
L 185.438366 -51.4732 
L 184.701263 -51.686303 
L 183.964159 -51.962054 
L 183.227055 -52.296881 
L 182.489952 -52.689333 
L 181.752848 -53.136958 
L 181.015744 -53.637368 
L 180.27864 -54.18639 
L 179.541537 -54.78235 
L 178.804433 -55.419126 
L 178.067329 -56.092254 
L 177.330226 -56.795297 
L 176.593122 -57.52161 
L 175.856018 -58.264002 
L 175.118915 -59.018301 
L 174.381811 -59.779278 
L 173.644707 -60.544558 
L 172.907603 -61.310156 
L 172.1705 -62.075471 
L 171.433396 -62.83751 
L 170.696292 -63.59618 
L 169.959189 -64.350891 
L 169.222085 -65.100287 
L 168.484981 -65.844088 
L 167.747878 -66.582189 
L 167.010774 -67.314309 
L 166.27367 -68.039411 
L 165.536566 -68.758591 
L 164.799463 -69.471054 
L 164.062359 -70.17625 
L 163.325255 -70.875087 
L 162.588152 -71.566509 
L 161.851048 -72.251414 
L 161.113944 -72.930091 
L 160.376841 -73.601531 
L 159.639737 -74.267658 
L 158.902633 -74.927233 
L 158.165529 -75.580921 
L 157.428426 -76.229628 
L 156.691322 -76.872201 
L 155.954218 -77.509891 
L 155.217115 -78.141755 
L 154.480011 -78.769355 
L 153.742907 -79.390929 
L 153.005804 -80.00732 
L 152.2687 -80.617922 
L 151.531596 -81.222502 
L 150.794492 -81.821603 
L 150.057389 -82.41328 
L 149.320285 -82.998604 
L 148.583181 -83.576113 
L 147.846078 -84.145433 
L 147.108974 -84.706104 
L 146.37187 -85.258 
L 145.634767 -85.800164 
L 144.897663 -86.332722 
L 144.160559 -86.854593 
L 143.423455 -87.36602 
L 142.686352 -87.866431 
L 141.949248 -88.355731 
L 141.212144 -88.833586 
L 140.475041 -89.29996 
L 139.737937 -89.755567 
L 139.000833 -90.198971 
L 138.26373 -90.631968 
L 137.526626 -91.053326 
L 136.789522 -91.46438 
L 136.052418 -91.865257 
L 135.315315 -92.256321 
L 134.578211 -92.637342 
L 133.841107 -93.010244 
L 133.104004 -93.374345 
L 132.3669 -93.730838 
L 131.629796 -94.080984 
L 130.892693 -94.424569 
L 130.155589 -94.763221 
L 129.418485 -95.097425 
L 128.681381 -95.428216 
L 127.944278 -95.756851 
L 127.207174 -96.083555 
L 126.47007 -96.409881 
L 125.732967 -96.736044 
L 124.995863 -97.062826 
L 124.258759 -97.391302 
L 123.521656 -97.720591 
L 122.784552 -98.051606 
L 122.047448 -98.383498 
L 121.310344 -98.715848 
L 120.573241 -99.047855 
L 119.836137 -99.378556 
L 119.099033 -99.706431 
L 118.36193 -100.029734 
L 117.624826 -100.347475 
L 116.887722 -100.6576 
L 116.150619 -100.95829 
L 115.413515 -101.246838 
L 114.676411 -101.522633 
L 113.939307 -101.78328 
L 113.202204 -102.027262 
L 112.4651 -102.252181 
L 111.727996 -102.457225 
L 110.990893 -102.640994 
L 110.253789 -102.802388 
L 109.516685 -102.939978 
L 108.779582 -103.054025 
L 108.042478 -103.142758 
L 107.305374 -103.207374 
L 106.56827 -103.247402 
L 105.831167 -103.263025 
L 105.094063 -103.255585 
L 104.356959 -103.225777 
L 103.619856 -103.174976 
L 102.882752 -103.104555 
L 102.145648 -103.016827 
L 101.408545 -102.913105 
L 100.671441 -102.796433 
L 99.934337 -102.667438 
L 99.197233 -102.529815 
L 98.46013 -102.384092 
L 97.723026 -102.233606 
L 96.985922 -102.080076 
L 96.248819 -101.925981 
L 95.511715 -101.773148 
L 94.774611 -101.623232 
L 94.037508 -101.478925 
L 93.300404 -101.342438 
L 92.5633 -101.217054 
L 91.826196 -101.104591 
L 91.089093 -101.006658 
L 90.351989 -100.926966 
L 89.614885 -100.867437 
L 88.877782 -100.82975 
L 88.140678 -100.817008 
L 87.403574 -100.829193 
L 86.666471 -100.869869 
L 85.929367 -100.93914 
L 85.192263 -101.03968 
L 84.455159 -101.171404 
L 83.718056 -101.33413 
L 82.980952 -101.529048 
L 82.243848 -101.756315 
L 81.506745 -102.014678 
L 80.769641 -102.30352 
L 80.032537 -102.621438 
L 79.295434 -102.967059 
L 78.55833 -103.339039 
L 77.821226 -103.733591 
L 77.084122 -104.150798 
L 76.347019 -104.585198 
L 75.609915 -105.036102 
L 74.872811 -105.499337 
L 74.135708 -105.972281 
L 73.398604 -106.452419 
L 72.6615 -106.935458 
L 71.924397 -107.415919 
L 71.187293 -107.894327 
L 70.450189 -108.370324 
L 69.713085 -108.836969 
L 68.975982 -109.29567 
L 68.238878 -109.745618 
L 67.501774 -110.188849 
L 66.764671 -110.625939 
L 66.027567 -111.059078 
L 65.290463 -111.491447 
L 64.55336 -111.925109 
L 63.816256 -112.358494 
L 63.079152 -112.792349 
L 62.342048 -113.22429 
L 61.604945 -113.6544 
L 60.867841 -114.079501 
L 60.130737 -114.500098 
L 59.393634 -114.914062 
L 58.65653 -115.321954 
L 57.919426 -115.722362 
L 57.182323 -116.115441 
L 56.445219 -116.499706 
L 55.708115 -116.876202 
L 54.971011 -117.244122 
L 54.233908 -117.603471 
L 53.496804 -117.954295 
L 52.7597 -118.295632 
L 52.022597 -118.627987 
L 51.285493 -118.951251 
L 50.548389 -119.264751 
L 49.811286 -119.568637 
L 49.074182 -119.86225 
z
" style="stroke: #e74c3c; stroke-opacity: 0.2"/>
    </defs>
    <g clip-path="url(#pbea5c45ca9)">
     <use xlink:href="#m4899c10689" x="0" y="131.14825" style="fill: #e74c3c; fill-opacity: 0.2; stroke: #e74c3c; stroke-opacity: 0.2"/>
    </g>
   </g>
   <g id="line2d_17">
    <path d="M 41.74 28.543333 
L 203.092 28.543333 
" clip-path="url(#pbea5c45ca9)" style="fill: none; stroke-dasharray: 4.44,1.92; stroke-dashoffset: 0; stroke: #000000; stroke-opacity: 0.7; stroke-width: 1.2"/>
   </g>
   <g id="patch_3">
    <path d="M 41.74 97.092 
L 41.74 7.2 
" style="fill: none; stroke: #000000; stroke-width: 0.5; stroke-linejoin: miter; stroke-linecap: square"/>
   </g>
   <g id="patch_4">
    <path d="M 203.092 97.092 
L 203.092 7.2 
" style="fill: none; stroke: #000000; stroke-width: 0.5; stroke-linejoin: miter; stroke-linecap: square"/>
   </g>
   <g id="patch_5">
    <path d="M 41.74 97.092 
L 203.092 97.092 
" style="fill: none; stroke: #000000; stroke-width: 0.5; stroke-linejoin: miter; stroke-linecap: square"/>
   </g>
   <g id="patch_6">
    <path d="M 41.74 7.2 
L 203.092 7.2 
" style="fill: none; stroke: #000000; stroke-width: 0.5; stroke-linejoin: miter; stroke-linecap: square"/>
   </g>
   <g id="line2d_18">
    <path d="M 49.074182 20.487429 
L 51.285493 19.576836 
L 53.496804 18.921176 
L 55.708115 18.551351 
L 57.919426 18.48913 
L 60.130737 18.743371 
L 62.342048 19.30576 
L 64.55336 20.154193 
L 66.764671 21.247291 
L 69.713085 22.987495 
L 77.821226 28.069209 
L 80.032537 29.172184 
L 82.243848 30.037484 
L 84.455159 30.632398 
L 86.666471 30.948829 
L 88.877782 31.002435 
L 91.089093 30.830352 
L 94.037508 30.349788 
L 101.408545 28.94565 
L 104.356959 28.711044 
L 106.56827 28.752183 
L 108.779582 28.992511 
L 110.990893 29.424378 
L 113.939307 30.25691 
L 117.624826 31.596839 
L 123.521656 34.068414 
L 131.629796 37.684284 
L 136.052418 39.899872 
L 139.737937 42.007522 
L 143.423455 44.397905 
L 147.108974 47.05861 
L 151.531596 50.540401 
L 156.691322 54.89177 
L 161.851048 59.513066 
L 167.010774 64.452346 
L 172.907603 70.469834 
L 178.804433 76.465044 
L 181.752848 79.16734 
L 183.964159 80.940011 
L 186.17547 82.420011 
L 188.386781 83.544969 
L 189.860989 84.071371 
L 191.335196 84.404758 
L 192.809403 84.53492 
L 194.283611 84.457431 
L 195.757818 84.169702 
L 195.757818 84.169702 
" clip-path="url(#pbea5c45ca9)" style="fill: none; stroke: #e74c3c; stroke-linecap: square"/>
   </g>
   <g id="PathCollection_1">
    <defs>
     <path id="md7a6ea7c7d" d="M 0 2.738613 
C 0.726289 2.738613 1.422928 2.450055 1.936492 1.936492 
C 2.450055 1.422928 2.738613 0.726289 2.738613 0 
C 2.738613 -0.726289 2.450055 -1.422928 1.936492 -1.936492 
C 1.422928 -2.450055 0.726289 -2.738613 0 -2.738613 
C -0.726289 -2.738613 -1.422928 -2.450055 -1.936492 -1.936492 
C -2.450055 -1.422928 -2.738613 -0.726289 -2.738613 0 
C -2.738613 0.726289 -2.450055 1.422928 -1.936492 1.936492 
C -1.422928 2.450055 -0.726289 2.738613 0 2.738613 
z
" style="stroke: #3498db; stroke-opacity: 0.8; stroke-width: 0.7"/>
    </defs>
    <g clip-path="url(#pbea5c45ca9)">
     <use xlink:href="#md7a6ea7c7d" x="134.277349" y="39.117557" style="fill: #a9bbf1; fill-opacity: 0.8; stroke: #3498db; stroke-opacity: 0.8; stroke-width: 0.7"/>
     <use xlink:href="#md7a6ea7c7d" x="176.179414" y="73.798183" style="fill: #a9bbf1; fill-opacity: 0.8; stroke: #3498db; stroke-opacity: 0.8; stroke-width: 0.7"/>
     <use xlink:href="#md7a6ea7c7d" x="162.848308" y="60.54669" style="fill: #a9bbf1; fill-opacity: 0.8; stroke: #3498db; stroke-opacity: 0.8; stroke-width: 0.7"/>
     <use xlink:href="#md7a6ea7c7d" x="126.317143" y="35.231948" style="fill: #a9bbf1; fill-opacity: 0.8; stroke: #3498db; stroke-opacity: 0.8; stroke-width: 0.7"/>
     <use xlink:href="#md7a6ea7c7d" x="84.354441" y="30.334227" style="fill: #a9bbf1; fill-opacity: 0.8; stroke: #3498db; stroke-opacity: 0.8; stroke-width: 0.7"/>
     <use xlink:href="#md7a6ea7c7d" x="170.848033" y="68.39666" style="fill: #a9bbf1; fill-opacity: 0.8; stroke: #3498db; stroke-opacity: 0.8; stroke-width: 0.7"/>
     <use xlink:href="#md7a6ea7c7d" x="160.135293" y="57.978108" style="fill: #a9bbf1; fill-opacity: 0.8; stroke: #3498db; stroke-opacity: 0.8; stroke-width: 0.7"/>
     <use xlink:href="#md7a6ea7c7d" x="98.105107" y="29.030387" style="fill: #a9bbf1; fill-opacity: 0.8; stroke: #3498db; stroke-opacity: 0.8; stroke-width: 0.7"/>
     <use xlink:href="#md7a6ea7c7d" x="131.512092" y="37.546221" style="fill: #a9bbf1; fill-opacity: 0.8; stroke: #3498db; stroke-opacity: 0.8; stroke-width: 0.7"/>
     <use xlink:href="#md7a6ea7c7d" x="137.124676" y="40.257215" style="fill: #a9bbf1; fill-opacity: 0.8; stroke: #3498db; stroke-opacity: 0.8; stroke-width: 0.7"/>
     <use xlink:href="#md7a6ea7c7d" x="165.528053" y="63.004743" style="fill: #a9bbf1; fill-opacity: 0.8; stroke: #3498db; stroke-opacity: 0.8; stroke-width: 0.7"/>
     <use xlink:href="#md7a6ea7c7d" x="128.852116" y="36.27722" style="fill: #a9bbf1; fill-opacity: 0.8; stroke: #3498db; stroke-opacity: 0.8; stroke-width: 0.7"/>
     <use xlink:href="#md7a6ea7c7d" x="142.988064" y="44.339163" style="fill: #a9bbf1; fill-opacity: 0.8; stroke: #3498db; stroke-opacity: 0.8; stroke-width: 0.7"/>
     <use xlink:href="#md7a6ea7c7d" x="148.82985" y="48.329439" style="fill: #a9bbf1; fill-opacity: 0.8; stroke: #3498db; stroke-opacity: 0.8; stroke-width: 0.7"/>
     <use xlink:href="#md7a6ea7c7d" x="173.509939" y="70.86325" style="fill: #a9bbf1; fill-opacity: 0.8; stroke: #3498db; stroke-opacity: 0.8; stroke-width: 0.7"/>
     <use xlink:href="#md7a6ea7c7d" x="178.832783" y="76.658519" style="fill: #a9bbf1; fill-opacity: 0.8; stroke: #3498db; stroke-opacity: 0.8; stroke-width: 0.7"/>
     <use xlink:href="#md7a6ea7c7d" x="80.182751" y="29.032777" style="fill: #a9bbf1; fill-opacity: 0.8; stroke: #3498db; stroke-opacity: 0.8; stroke-width: 0.7"/>
     <use xlink:href="#md7a6ea7c7d" x="168.189637" y="65.648981" style="fill: #a9bbf1; fill-opacity: 0.8; stroke: #3498db; stroke-opacity: 0.8; stroke-width: 0.7"/>
     <use xlink:href="#md7a6ea7c7d" x="75.717354" y="26.775863" style="fill: #a9bbf1; fill-opacity: 0.8; stroke: #3498db; stroke-opacity: 0.8; stroke-width: 0.7"/>
     <use xlink:href="#md7a6ea7c7d" x="123.917886" y="34.266233" style="fill: #a9bbf1; fill-opacity: 0.8; stroke: #3498db; stroke-opacity: 0.8; stroke-width: 0.7"/>
     <use xlink:href="#md7a6ea7c7d" x="65.999217" y="20.730254" style="fill: #a9bbf1; fill-opacity: 0.8; stroke: #3498db; stroke-opacity: 0.8; stroke-width: 0.7"/>
     <use xlink:href="#md7a6ea7c7d" x="140.04192" y="42.209591" style="fill: #a9bbf1; fill-opacity: 0.8; stroke: #3498db; stroke-opacity: 0.8; stroke-width: 0.7"/>
     <use xlink:href="#md7a6ea7c7d" x="88.288576" y="31.598734" style="fill: #a9bbf1; fill-opacity: 0.8; stroke: #3498db; stroke-opacity: 0.8; stroke-width: 0.7"/>
     <use xlink:href="#md7a6ea7c7d" x="70.967919" y="24.055388" style="fill: #a9bbf1; fill-opacity: 0.8; stroke: #3498db; stroke-opacity: 0.8; stroke-width: 0.7"/>
     <use xlink:href="#md7a6ea7c7d" x="121.655009" y="33.480543" style="fill: #a9bbf1; fill-opacity: 0.8; stroke: #3498db; stroke-opacity: 0.8; stroke-width: 0.7"/>
     <use xlink:href="#md7a6ea7c7d" x="154.561107" y="53.077011" style="fill: #a9bbf1; fill-opacity: 0.8; stroke: #3498db; stroke-opacity: 0.8; stroke-width: 0.7"/>
     <use xlink:href="#md7a6ea7c7d" x="145.923001" y="46.218979" style="fill: #a9bbf1; fill-opacity: 0.8; stroke: #3498db; stroke-opacity: 0.8; stroke-width: 0.7"/>
     <use xlink:href="#md7a6ea7c7d" x="151.708173" y="50.582839" style="fill: #a9bbf1; fill-opacity: 0.8; stroke: #3498db; stroke-opacity: 0.8; stroke-width: 0.7"/>
     <use xlink:href="#md7a6ea7c7d" x="157.3726" y="55.406402" style="fill: #a9bbf1; fill-opacity: 0.8; stroke: #3498db; stroke-opacity: 0.8; stroke-width: 0.7"/>
     <use xlink:href="#md7a6ea7c7d" x="97.305264" y="28.959194" style="fill: #a9bbf1; fill-opacity: 0.8; stroke: #3498db; stroke-opacity: 0.8; stroke-width: 0.7"/>
    </g>
   </g>
   <g id="PathCollection_2">
    <defs>
     <path id="me7c3f51f5c" d="M 0 3.162278 
C 0.838646 3.162278 1.643056 2.82908 2.236068 2.236068 
C 2.82908 1.643056 3.162278 0.838646 3.162278 0 
C 3.162278 -0.838646 2.82908 -1.643056 2.236068 -2.236068 
C 1.643056 -2.82908 0.838646 -3.162278 0 -3.162278 
C -0.838646 -3.162278 -1.643056 -2.82908 -2.236068 -2.236068 
C -2.82908 -1.643056 -3.162278 -0.838646 -3.162278 0 
C -3.162278 0.838646 -2.82908 1.643056 -2.236068 2.236068 
C -1.643056 2.82908 -0.838646 3.162278 0 3.162278 
z
" style="stroke: #d62728; stroke-opacity: 0.9; stroke-width: 1.2"/>
    </defs>
    <g clip-path="url(#pbea5c45ca9)">
     <use xlink:href="#me7c3f51f5c" x="110.573603" y="29.329029" style="fill: #ffffff; fill-opacity: 0.9; stroke: #d62728; stroke-opacity: 0.9; stroke-width: 1.2"/>
     <use xlink:href="#me7c3f51f5c" x="102.935875" y="28.785975" style="fill: #ffffff; fill-opacity: 0.9; stroke: #d62728; stroke-opacity: 0.9; stroke-width: 1.2"/>
     <use xlink:href="#me7c3f51f5c" x="98.068509" y="29.513582" style="fill: #ffffff; fill-opacity: 0.9; stroke: #d62728; stroke-opacity: 0.9; stroke-width: 1.2"/>
     <use xlink:href="#me7c3f51f5c" x="95.103844" y="30.134276" style="fill: #ffffff; fill-opacity: 0.9; stroke: #d62728; stroke-opacity: 0.9; stroke-width: 1.2"/>
     <use xlink:href="#me7c3f51f5c" x="93.46728" y="30.458628" style="fill: #ffffff; fill-opacity: 0.9; stroke: #d62728; stroke-opacity: 0.9; stroke-width: 1.2"/>
     <use xlink:href="#me7c3f51f5c" x="93.002954" y="30.542713" style="fill: #ffffff; fill-opacity: 0.9; stroke: #d62728; stroke-opacity: 0.9; stroke-width: 1.2"/>
     <use xlink:href="#me7c3f51f5c" x="93.488804" y="30.454533" style="fill: #ffffff; fill-opacity: 0.9; stroke: #d62728; stroke-opacity: 0.9; stroke-width: 1.2"/>
     <use xlink:href="#me7c3f51f5c" x="94.792996" y="30.198424" style="fill: #ffffff; fill-opacity: 0.9; stroke: #d62728; stroke-opacity: 0.9; stroke-width: 1.2"/>
     <use xlink:href="#me7c3f51f5c" x="97.01672" y="29.730539" style="fill: #ffffff; fill-opacity: 0.9; stroke: #d62728; stroke-opacity: 0.9; stroke-width: 1.2"/>
     <use xlink:href="#me7c3f51f5c" x="100.338827" y="29.099846" style="fill: #ffffff; fill-opacity: 0.9; stroke: #d62728; stroke-opacity: 0.9; stroke-width: 1.2"/>
     <use xlink:href="#me7c3f51f5c" x="103.810679" y="28.730862" style="fill: #ffffff; fill-opacity: 0.9; stroke: #d62728; stroke-opacity: 0.9; stroke-width: 1.2"/>
    </g>
   </g>
   <g id="legend_1">
    <g id="PathCollection_3">
     <g>
      <use xlink:href="#md7a6ea7c7d" x="56.94" y="50.90075" style="fill: #a9bbf1; fill-opacity: 0.8; stroke: #3498db; stroke-opacity: 0.8; stroke-width: 0.7"/>
     </g>
    </g>
    <g id="text_11">
     <!-- Data -->
     <g transform="translate(71.34 53.00075) scale(0.08 -0.08)">
      <defs>
       <path id="DejaVuSerif-44" d="M 1581 331 
L 2163 331 
Q 3072 331 3558 850 
Q 4044 1369 4044 2338 
Q 4044 3306 3559 3818 
Q 3075 4331 2163 4331 
L 1581 4331 
L 1581 331 
z
M 353 0 
L 353 331 
L 947 331 
L 947 4331 
L 353 4331 
L 353 4666 
L 2209 4666 
Q 3416 4666 4089 4050 
Q 4763 3434 4763 2338 
Q 4763 1238 4088 619 
Q 3413 0 2209 0 
L 353 0 
z
" transform="scale(0.015625)"/>
       <path id="DejaVuSerif-61" d="M 2547 1044 
L 2547 1747 
L 1806 1747 
Q 1378 1747 1168 1562 
Q 959 1378 959 997 
Q 959 650 1171 447 
Q 1384 244 1747 244 
Q 2106 244 2326 466 
Q 2547 688 2547 1044 
z
M 3122 2075 
L 3122 331 
L 3634 331 
L 3634 0 
L 2547 0 
L 2547 359 
Q 2356 128 2106 18 
Q 1856 -91 1522 -91 
Q 969 -91 644 203 
Q 319 497 319 997 
Q 319 1513 691 1797 
Q 1063 2081 1741 2081 
L 2547 2081 
L 2547 2309 
Q 2547 2688 2317 2895 
Q 2088 3103 1672 3103 
Q 1328 3103 1125 2947 
Q 922 2791 872 2484 
L 575 2484 
L 575 3156 
Q 875 3284 1158 3348 
Q 1441 3413 1709 3413 
Q 2400 3413 2761 3070 
Q 3122 2728 3122 2075 
z
" transform="scale(0.015625)"/>
       <path id="DejaVuSerif-74" d="M 691 2988 
L 184 2988 
L 184 3322 
L 691 3322 
L 691 4353 
L 1269 4353 
L 1269 3322 
L 2350 3322 
L 2350 2988 
L 1269 2988 
L 1269 878 
Q 1269 456 1350 337 
Q 1431 219 1650 219 
Q 1875 219 1978 351 
Q 2081 484 2088 781 
L 2522 781 
Q 2497 328 2275 118 
Q 2053 -91 1600 -91 
Q 1103 -91 897 129 
Q 691 350 691 878 
L 691 2988 
z
" transform="scale(0.015625)"/>
      </defs>
      <use xlink:href="#DejaVuSerif-44"/>
      <use xlink:href="#DejaVuSerif-61" x="80.175781"/>
      <use xlink:href="#DejaVuSerif-74" x="139.794922"/>
      <use xlink:href="#DejaVuSerif-61" x="179.980469"/>
     </g>
    </g>
    <g id="line2d_19">
     <path d="M 48.94 61.94325 
L 56.94 61.94325 
L 64.94 61.94325 
" style="fill: none; stroke: #e74c3c; stroke-linecap: square"/>
    </g>
    <g id="text_12">
     <!-- GP Fit -->
     <g transform="translate(71.34 64.74325) scale(0.08 -0.08)">
      <defs>
       <path id="DejaVuSerif-47" d="M 4097 3272 
Q 3988 3856 3641 4136 
Q 3294 4416 2675 4416 
Q 1869 4416 1472 3897 
Q 1075 3378 1075 2328 
Q 1075 1300 1484 772 
Q 1894 244 2688 244 
Q 3041 244 3362 331 
Q 3684 419 3975 594 
L 3975 1797 
L 3097 1797 
L 3097 2131 
L 4609 2131 
L 4609 391 
Q 4194 150 3714 29 
Q 3234 -91 2688 -91 
Q 1631 -91 995 570 
Q 359 1231 359 2328 
Q 359 3434 996 4092 
Q 1634 4750 2713 4750 
Q 3113 4750 3539 4658 
Q 3966 4566 4447 4378 
L 4447 3272 
L 4097 3272 
z
" transform="scale(0.015625)"/>
       <path id="DejaVuSerif-50" d="M 1581 2375 
L 2406 2375 
Q 2872 2375 3115 2626 
Q 3359 2878 3359 3353 
Q 3359 3831 3115 4081 
Q 2872 4331 2406 4331 
L 1581 4331 
L 1581 2375 
z
M 353 0 
L 353 331 
L 947 331 
L 947 4331 
L 353 4331 
L 353 4666 
L 2559 4666 
Q 3259 4666 3668 4311 
Q 4078 3956 4078 3353 
Q 4078 2753 3668 2397 
Q 3259 2041 2559 2041 
L 1581 2041 
L 1581 331 
L 2303 331 
L 2303 0 
L 353 0 
z
" transform="scale(0.015625)"/>
       <path id="DejaVuSerif-46" d="M 353 0 
L 353 331 
L 947 331 
L 947 4331 
L 353 4331 
L 353 4666 
L 4172 4666 
L 4172 3628 
L 3788 3628 
L 3788 4281 
L 1581 4281 
L 1581 2719 
L 3175 2719 
L 3175 3303 
L 3559 3303 
L 3559 1753 
L 3175 1753 
L 3175 2338 
L 1581 2338 
L 1581 331 
L 2328 331 
L 2328 0 
L 353 0 
z
" transform="scale(0.015625)"/>
       <path id="DejaVuSerif-69" d="M 622 4353 
Q 622 4497 726 4603 
Q 831 4709 978 4709 
Q 1122 4709 1226 4603 
Q 1331 4497 1331 4353 
Q 1331 4206 1228 4103 
Q 1125 4000 978 4000 
Q 831 4000 726 4103 
Q 622 4206 622 4353 
z
M 1356 331 
L 1900 331 
L 1900 0 
L 231 0 
L 231 331 
L 781 331 
L 781 2988 
L 231 2988 
L 231 3322 
L 1356 3322 
L 1356 331 
z
" transform="scale(0.015625)"/>
      </defs>
      <use xlink:href="#DejaVuSerif-47"/>
      <use xlink:href="#DejaVuSerif-50" x="79.882812"/>
      <use xlink:href="#DejaVuSerif-20" x="147.167969"/>
      <use xlink:href="#DejaVuSerif-46" x="178.955078"/>
      <use xlink:href="#DejaVuSerif-69" x="248.339844"/>
      <use xlink:href="#DejaVuSerif-74" x="280.322266"/>
     </g>
    </g>
    <g id="patch_7">
     <path d="M 48.94 76.48575 
L 64.94 76.48575 
L 64.94 70.88575 
L 48.94 70.88575 
z
" style="fill: #e74c3c; fill-opacity: 0.2; stroke: #e74c3c; stroke-opacity: 0.2; stroke-linejoin: miter"/>
    </g>
    <g id="text_13">
     <!-- 95% CI -->
     <g transform="translate(71.34 76.48575) scale(0.08 -0.08)">
      <defs>
       <path id="DejaVuSerif-39" d="M 2994 2091 
Q 2784 1856 2512 1740 
Q 2241 1625 1900 1625 
Q 1206 1625 804 2044 
Q 403 2463 403 3188 
Q 403 3897 839 4323 
Q 1275 4750 2003 4750 
Q 2794 4750 3217 4161 
Q 3641 3572 3641 2478 
Q 3641 1253 3137 581 
Q 2634 -91 1722 -91 
Q 1475 -91 1203 -44 
Q 931 3 647 97 
L 647 872 
L 997 872 
Q 1038 556 1241 387 
Q 1444 219 1784 219 
Q 2391 219 2687 676 
Q 2984 1134 2994 2091 
z
M 1978 4441 
Q 1534 4441 1298 4117 
Q 1063 3794 1063 3188 
Q 1063 2581 1298 2256 
Q 1534 1931 1978 1931 
Q 2422 1931 2658 2245 
Q 2894 2559 2894 3150 
Q 2894 3772 2656 4106 
Q 2419 4441 1978 4441 
z
" transform="scale(0.015625)"/>
       <path id="DejaVuSerif-35" d="M 3219 4666 
L 3219 4153 
L 1081 4153 
L 1081 2816 
Q 1244 2928 1461 2984 
Q 1678 3041 1947 3041 
Q 2703 3041 3140 2622 
Q 3578 2203 3578 1478 
Q 3578 738 3136 323 
Q 2694 -91 1894 -91 
Q 1572 -91 1234 -12 
Q 897 66 544 225 
L 544 1131 
L 897 1131 
Q 925 688 1179 453 
Q 1434 219 1894 219 
Q 2388 219 2653 544 
Q 2919 869 2919 1478 
Q 2919 2084 2655 2407 
Q 2391 2731 1894 2731 
Q 1613 2731 1398 2631 
Q 1184 2531 1019 2322 
L 750 2322 
L 750 4666 
L 3219 4666 
z
" transform="scale(0.015625)"/>
       <path id="DejaVuSerif-25" d="M 1434 4459 
Q 1159 4459 1004 4200 
Q 850 3941 850 3475 
Q 850 3016 1008 2753 
Q 1166 2491 1434 2491 
Q 1700 2491 1854 2752 
Q 2009 3013 2009 3475 
Q 2009 3938 1854 4198 
Q 1700 4459 1434 4459 
z
M 4653 2169 
Q 4381 2169 4226 1906 
Q 4072 1644 4072 1178 
Q 4072 719 4228 458 
Q 4384 197 4653 197 
Q 4922 197 5075 458 
Q 5228 719 5228 1178 
Q 5228 1641 5073 1905 
Q 4919 2169 4653 2169 
z
M 4653 2450 
Q 5147 2450 5437 2106 
Q 5728 1763 5728 1178 
Q 5728 594 5436 251 
Q 5144 -91 4653 -91 
Q 4153 -91 3862 251 
Q 3572 594 3572 1178 
Q 3572 1766 3864 2108 
Q 4156 2450 4653 2450 
z
M 4263 4750 
L 4738 4750 
L 1819 -91 
L 1344 -91 
L 4263 4750 
z
M 1428 4750 
Q 1922 4750 2215 4408 
Q 2509 4066 2509 3481 
Q 2509 2891 2217 2550 
Q 1925 2209 1428 2209 
Q 931 2209 642 2551 
Q 353 2894 353 3481 
Q 353 4063 643 4406 
Q 934 4750 1428 4750 
z
" transform="scale(0.015625)"/>
       <path id="DejaVuSerif-43" d="M 4513 1234 
Q 4306 581 3820 245 
Q 3334 -91 2591 -91 
Q 2134 -91 1743 65 
Q 1353 222 1050 525 
Q 700 875 529 1320 
Q 359 1766 359 2328 
Q 359 3416 987 4083 
Q 1616 4750 2644 4750 
Q 3025 4750 3456 4650 
Q 3888 4550 4384 4347 
L 4384 3272 
L 4031 3272 
Q 3916 3859 3567 4137 
Q 3219 4416 2591 4416 
Q 1844 4416 1459 3886 
Q 1075 3356 1075 2328 
Q 1075 1303 1459 773 
Q 1844 244 2591 244 
Q 3113 244 3450 492 
Q 3788 741 3938 1234 
L 4513 1234 
z
" transform="scale(0.015625)"/>
       <path id="DejaVuSerif-49" d="M 1581 331 
L 2175 331 
L 2175 0 
L 353 0 
L 353 331 
L 947 331 
L 947 4331 
L 353 4331 
L 353 4666 
L 2175 4666 
L 2175 4331 
L 1581 4331 
L 1581 331 
z
" transform="scale(0.015625)"/>
      </defs>
      <use xlink:href="#DejaVuSerif-39"/>
      <use xlink:href="#DejaVuSerif-35" x="63.623047"/>
      <use xlink:href="#DejaVuSerif-25" x="127.246094"/>
      <use xlink:href="#DejaVuSerif-20" x="222.265625"/>
      <use xlink:href="#DejaVuSerif-43" x="254.052734"/>
      <use xlink:href="#DejaVuSerif-49" x="330.566406"/>
     </g>
    </g>
    <g id="PathCollection_4">
     <g>
      <use xlink:href="#me7c3f51f5c" x="56.94" y="86.12825" style="fill: #ffffff; fill-opacity: 0.9; stroke: #d62728; stroke-opacity: 0.9; stroke-width: 1.2"/>
     </g>
    </g>
    <g id="text_14">
     <!-- Pred -->
     <g transform="translate(71.34 88.22825) scale(0.08 -0.08)">
      <defs>
       <path id="DejaVuSerif-72" d="M 3059 3328 
L 3059 2497 
L 2728 2497 
Q 2713 2744 2591 2866 
Q 2469 2988 2234 2988 
Q 1809 2988 1582 2694 
Q 1356 2400 1356 1850 
L 1356 331 
L 2022 331 
L 2022 0 
L 263 0 
L 263 331 
L 781 331 
L 781 2994 
L 231 2994 
L 231 3322 
L 1356 3322 
L 1356 2731 
Q 1525 3078 1790 3245 
Q 2056 3413 2438 3413 
Q 2578 3413 2733 3391 
Q 2888 3369 3059 3328 
z
" transform="scale(0.015625)"/>
       <path id="DejaVuSerif-65" d="M 3469 1600 
L 991 1600 
L 991 1575 
Q 991 903 1244 561 
Q 1497 219 1991 219 
Q 2369 219 2611 417 
Q 2853 616 2950 1006 
L 3413 1006 
Q 3275 459 2904 184 
Q 2534 -91 1931 -91 
Q 1203 -91 761 389 
Q 319 869 319 1663 
Q 319 2450 753 2931 
Q 1188 3413 1894 3413 
Q 2647 3413 3050 2948 
Q 3453 2484 3469 1600 
z
M 2791 1931 
Q 2772 2513 2545 2808 
Q 2319 3103 1894 3103 
Q 1497 3103 1269 2806 
Q 1041 2509 991 1931 
L 2791 1931 
z
" transform="scale(0.015625)"/>
       <path id="DejaVuSerif-64" d="M 3359 331 
L 3909 331 
L 3909 0 
L 2784 0 
L 2784 519 
Q 2616 206 2355 57 
Q 2094 -91 1709 -91 
Q 1097 -91 708 395 
Q 319 881 319 1663 
Q 319 2444 706 2928 
Q 1094 3413 1709 3413 
Q 2094 3413 2355 3264 
Q 2616 3116 2784 2803 
L 2784 4531 
L 2241 4531 
L 2241 4863 
L 3359 4863 
L 3359 331 
z
M 2784 1497 
L 2784 1825 
Q 2784 2422 2554 2737 
Q 2325 3053 1888 3053 
Q 1444 3053 1217 2703 
Q 991 2353 991 1663 
Q 991 975 1217 622 
Q 1444 269 1888 269 
Q 2325 269 2554 583 
Q 2784 897 2784 1497 
z
" transform="scale(0.015625)"/>
      </defs>
      <use xlink:href="#DejaVuSerif-50"/>
      <use xlink:href="#DejaVuSerif-72" x="67.285156"/>
      <use xlink:href="#DejaVuSerif-65" x="115.087891"/>
      <use xlink:href="#DejaVuSerif-64" x="174.267578"/>
     </g>
    </g>
   </g>
  </g>
 </g>
 <defs>
  <clipPath id="pbea5c45ca9">
   <rect x="41.74" y="7.2" width="161.352" height="89.892"/>
  </clipPath>
 </defs>
</svg>
