<?xml version="1.0" encoding="utf-8" standalone="no"?>
<!DOCTYPE svg PUBLIC "-//W3C//DTD SVG 1.1//EN"
  "http://www.w3.org/Graphics/SVG/1.1/DTD/svg11.dtd">
<svg xmlns:xlink="http://www.w3.org/1999/xlink" width="210.292pt" height="131.14825pt" viewBox="0 0 210.292 131.14825" xmlns="http://www.w3.org/2000/svg" version="1.1">
 <metadata>
  <rdf:RDF xmlns:dc="http://purl.org/dc/elements/1.1/" xmlns:cc="http://creativecommons.org/ns#" xmlns:rdf="http://www.w3.org/1999/02/22-rdf-syntax-ns#">
   <cc:Work>
    <dc:type rdf:resource="http://purl.org/dc/dcmitype/StillImage"/>
    <dc:date>2026-02-01T10:39:03.914712</dc:date>
    <dc:format>image/svg+xml</dc:format>
    <dc:creator>
     <cc:Agent>
      <dc:title>Matplotlib v3.7.5, https://matplotlib.org/</dc:title>
     </cc:Agent>
    </dc:creator>
   </cc:Work>
  </rdf:RDF>
 </metadata>
 <defs>
  <style type="text/css">*{stroke-linejoin: round; stroke-linecap: butt}</style>
 </defs>
 <g id="figure_1">
  <g id="patch_1">
   <path d="M 0 131.14825 
L 210.292 131.14825 
L 210.292 0 
L 0 0 
z
" style="fill: #ffffff"/>
  </g>
  <g id="axes_1">
   <g id="patch_2">
    <path d="M 41.74 97.092 
L 203.092 97.092 
L 203.092 7.2 
L 41.74 7.2 
z
" style="fill: #ffffff"/>
   </g>
   <g id="matplotlib.axis_1">
    <g id="xtick_1">
     <g id="line2d_1">
      <path d="M 62.509999 97.092 
L 62.509999 7.2 
" clip-path="url(#p60e618f710)" style="fill: none; stroke-dasharray: 1.85,0.8; stroke-dashoffset: 0; stroke: #b0b0b0; stroke-opacity: 0.5; stroke-width: 0.5"/>
     </g>
     <g id="line2d_2">
      <defs>
       <path id="m85cf574bd6" d="M 0 0 
L 0 -3 
" style="stroke: #000000; stroke-width: 0.5"/>
      </defs>
      <g>
       <use xlink:href="#m85cf574bd6" x="62.509999" y="97.092" style="stroke: #000000; stroke-width: 0.5"/>
      </g>
     </g>
     <g id="text_1">
      <!-- −4 -->
      <g transform="translate(56.613124 106.67075) scale(0.08 -0.08)">
       <defs>
        <path id="DejaVuSerif-2212" d="M 678 2259 
L 4684 2259 
L 4684 1753 
L 678 1753 
L 678 2259 
z
" transform="scale(0.015625)"/>
        <path id="DejaVuSerif-34" d="M 2234 1581 
L 2234 4063 
L 641 1581 
L 2234 1581 
z
M 3609 0 
L 1484 0 
L 1484 331 
L 2234 331 
L 2234 1247 
L 197 1247 
L 197 1588 
L 2241 4750 
L 2859 4750 
L 2859 1581 
L 3750 1581 
L 3750 1247 
L 2859 1247 
L 2859 331 
L 3609 331 
L 3609 0 
z
" transform="scale(0.015625)"/>
       </defs>
       <use xlink:href="#DejaVuSerif-2212"/>
       <use xlink:href="#DejaVuSerif-34" x="83.789062"/>
      </g>
     </g>
    </g>
    <g id="xtick_2">
     <g id="line2d_3">
      <path d="M 91.069077 97.092 
L 91.069077 7.2 
" clip-path="url(#p60e618f710)" style="fill: none; stroke-dasharray: 1.85,0.8; stroke-dashoffset: 0; stroke: #b0b0b0; stroke-opacity: 0.5; stroke-width: 0.5"/>
     </g>
     <g id="line2d_4">
      <g>
       <use xlink:href="#m85cf574bd6" x="91.069077" y="97.092" style="stroke: #000000; stroke-width: 0.5"/>
      </g>
     </g>
     <g id="text_2">
      <!-- −3 -->
      <g transform="translate(85.172202 106.67075) scale(0.08 -0.08)">
       <defs>
        <path id="DejaVuSerif-33" d="M 622 4469 
Q 988 4606 1323 4678 
Q 1659 4750 1953 4750 
Q 2638 4750 3022 4454 
Q 3406 4159 3406 3634 
Q 3406 3213 3140 2930 
Q 2875 2647 2388 2547 
Q 2963 2466 3280 2130 
Q 3597 1794 3597 1259 
Q 3597 606 3158 257 
Q 2719 -91 1894 -91 
Q 1528 -91 1179 -12 
Q 831 66 488 225 
L 488 1131 
L 838 1131 
Q 869 681 1141 450 
Q 1413 219 1906 219 
Q 2384 219 2661 495 
Q 2938 772 2938 1253 
Q 2938 1803 2653 2086 
Q 2369 2369 1819 2369 
L 1522 2369 
L 1522 2688 
L 1678 2688 
Q 2225 2688 2498 2914 
Q 2772 3141 2772 3597 
Q 2772 4006 2547 4223 
Q 2322 4441 1900 4441 
Q 1478 4441 1245 4241 
Q 1013 4041 972 3647 
L 622 3647 
L 622 4469 
z
" transform="scale(0.015625)"/>
       </defs>
       <use xlink:href="#DejaVuSerif-2212"/>
       <use xlink:href="#DejaVuSerif-33" x="83.789062"/>
      </g>
     </g>
    </g>
    <g id="xtick_3">
     <g id="line2d_5">
      <path d="M 119.628155 97.092 
L 119.628155 7.2 
" clip-path="url(#p60e618f710)" style="fill: none; stroke-dasharray: 1.85,0.8; stroke-dashoffset: 0; stroke: #b0b0b0; stroke-opacity: 0.5; stroke-width: 0.5"/>
     </g>
     <g id="line2d_6">
      <g>
       <use xlink:href="#m85cf574bd6" x="119.628155" y="97.092" style="stroke: #000000; stroke-width: 0.5"/>
      </g>
     </g>
     <g id="text_3">
      <!-- −2 -->
      <g transform="translate(113.73128 106.67075) scale(0.08 -0.08)">
       <defs>
        <path id="DejaVuSerif-32" d="M 819 3553 
L 469 3553 
L 469 4384 
Q 803 4563 1142 4656 
Q 1481 4750 1806 4750 
Q 2534 4750 2956 4397 
Q 3378 4044 3378 3438 
Q 3378 2753 2422 1800 
Q 2347 1728 2309 1691 
L 1131 513 
L 3078 513 
L 3078 1088 
L 3444 1088 
L 3444 0 
L 434 0 
L 434 341 
L 1850 1753 
Q 2319 2222 2519 2614 
Q 2719 3006 2719 3438 
Q 2719 3909 2473 4175 
Q 2228 4441 1797 4441 
Q 1350 4441 1106 4219 
Q 863 3997 819 3553 
z
" transform="scale(0.015625)"/>
       </defs>
       <use xlink:href="#DejaVuSerif-2212"/>
       <use xlink:href="#DejaVuSerif-32" x="83.789062"/>
      </g>
     </g>
    </g>
    <g id="xtick_4">
     <g id="line2d_7">
      <path d="M 148.187233 97.092 
L 148.187233 7.2 
" clip-path="url(#p60e618f710)" style="fill: none; stroke-dasharray: 1.85,0.8; stroke-dashoffset: 0; stroke: #b0b0b0; stroke-opacity: 0.5; stroke-width: 0.5"/>
     </g>
     <g id="line2d_8">
      <g>
       <use xlink:href="#m85cf574bd6" x="148.187233" y="97.092" style="stroke: #000000; stroke-width: 0.5"/>
      </g>
     </g>
     <g id="text_4">
      <!-- −1 -->
      <g transform="translate(142.290358 106.67075) scale(0.08 -0.08)">
       <defs>
        <path id="DejaVuSerif-31" d="M 909 0 
L 909 331 
L 1722 331 
L 1722 4213 
L 781 3603 
L 781 4013 
L 1919 4750 
L 2350 4750 
L 2350 331 
L 3163 331 
L 3163 0 
L 909 0 
z
" transform="scale(0.015625)"/>
       </defs>
       <use xlink:href="#DejaVuSerif-2212"/>
       <use xlink:href="#DejaVuSerif-31" x="83.789062"/>
      </g>
     </g>
    </g>
    <g id="xtick_5">
     <g id="line2d_9">
      <path d="M 176.746311 97.092 
L 176.746311 7.2 
" clip-path="url(#p60e618f710)" style="fill: none; stroke-dasharray: 1.85,0.8; stroke-dashoffset: 0; stroke: #b0b0b0; stroke-opacity: 0.5; stroke-width: 0.5"/>
     </g>
     <g id="line2d_10">
      <g>
       <use xlink:href="#m85cf574bd6" x="176.746311" y="97.092" style="stroke: #000000; stroke-width: 0.5"/>
      </g>
     </g>
     <g id="text_5">
      <!-- 0 -->
      <g transform="translate(174.201311 106.67075) scale(0.08 -0.08)">
       <defs>
        <path id="DejaVuSerif-30" d="M 2034 219 
Q 2513 219 2750 744 
Q 2988 1269 2988 2328 
Q 2988 3391 2750 3916 
Q 2513 4441 2034 4441 
Q 1556 4441 1318 3916 
Q 1081 3391 1081 2328 
Q 1081 1269 1318 744 
Q 1556 219 2034 219 
z
M 2034 -91 
Q 1275 -91 848 546 
Q 422 1184 422 2328 
Q 422 3475 848 4112 
Q 1275 4750 2034 4750 
Q 2797 4750 3222 4112 
Q 3647 3475 3647 2328 
Q 3647 1184 3222 546 
Q 2797 -91 2034 -91 
z
" transform="scale(0.015625)"/>
       </defs>
       <use xlink:href="#DejaVuSerif-30"/>
      </g>
     </g>
    </g>
    <g id="text_6">
     <!-- $v_{x}$ [m/s] -->
     <g transform="translate(100.216 121.452625) scale(0.12 -0.12)">
      <defs>
       <path id="STIXGeneral-Italic-76" d="M 1325 448 
L 1523 653 
Q 1869 1005 2134 1456 
Q 2400 1907 2400 2131 
Q 2400 2208 2285 2317 
Q 2125 2458 2125 2605 
Q 2125 2701 2195 2761 
Q 2266 2822 2368 2822 
Q 2522 2822 2624 2704 
Q 2726 2586 2726 2445 
Q 2726 2074 2323 1453 
Q 1971 909 1562 474 
Q 1504 416 1421 326 
Q 1338 237 1299 192 
Q 1261 147 1200 86 
Q 1139 26 1110 -3 
Q 1082 -32 1043 -64 
Q 1005 -96 979 -105 
Q 954 -115 928 -115 
Q 870 -115 870 58 
L 870 211 
Q 870 1094 717 1990 
Q 653 2355 579 2470 
Q 506 2586 326 2586 
Q 198 2586 128 2579 
L 128 2662 
Q 480 2720 845 2797 
Q 915 2822 973 2822 
Q 1011 2822 1033 2739 
Q 1056 2656 1165 2093 
Q 1280 1510 1325 448 
z
" transform="scale(0.015625)"/>
       <path id="STIXGeneral-Italic-78" d="M 1555 2272 
L 1632 1907 
Q 1971 2426 2179 2624 
Q 2387 2822 2598 2822 
Q 2714 2822 2787 2755 
Q 2861 2688 2861 2585 
Q 2861 2483 2800 2419 
Q 2739 2355 2643 2355 
Q 2586 2355 2490 2409 
Q 2394 2464 2310 2464 
Q 2125 2464 1683 1690 
Q 1683 1606 1734 1402 
L 1939 544 
Q 2003 282 2131 282 
Q 2234 282 2432 538 
Q 2451 563 2476 598 
Q 2502 634 2521 662 
Q 2541 691 2566 717 
L 2662 659 
Q 2387 230 2227 80 
Q 2067 -70 1882 -70 
Q 1728 -70 1645 26 
Q 1562 122 1504 365 
L 1318 1126 
L 755 365 
Q 557 96 432 13 
Q 307 -70 147 -70 
Q 0 -70 -86 0 
Q -173 70 -173 198 
Q -173 294 -112 361 
Q -51 429 45 429 
Q 122 429 250 358 
Q 346 301 416 301 
Q 525 301 742 614 
L 1267 1357 
L 1088 2150 
Q 1024 2432 969 2509 
Q 915 2586 794 2586 
Q 717 2586 544 2541 
L 429 2509 
L 410 2611 
L 480 2637 
Q 992 2822 1229 2822 
Q 1350 2822 1420 2707 
Q 1491 2592 1555 2272 
z
" transform="scale(0.015625)"/>
       <path id="DejaVuSerif-20" transform="scale(0.015625)"/>
       <path id="DejaVuSerif-5b" d="M 550 4863 
L 2003 4863 
L 2003 4531 
L 1147 4531 
L 1147 -513 
L 2003 -513 
L 2003 -844 
L 550 -844 
L 550 4863 
z
" transform="scale(0.015625)"/>
       <path id="DejaVuSerif-6d" d="M 3316 2675 
Q 3481 3041 3739 3227 
Q 3997 3413 4341 3413 
Q 4863 3413 5119 3089 
Q 5375 2766 5375 2113 
L 5375 331 
L 5894 331 
L 5894 0 
L 4300 0 
L 4300 331 
L 4800 331 
L 4800 2047 
Q 4800 2556 4650 2772 
Q 4500 2988 4153 2988 
Q 3769 2988 3567 2697 
Q 3366 2406 3366 1850 
L 3366 331 
L 3866 331 
L 3866 0 
L 2291 0 
L 2291 331 
L 2791 331 
L 2791 2069 
Q 2791 2566 2641 2777 
Q 2491 2988 2144 2988 
Q 1759 2988 1557 2697 
Q 1356 2406 1356 1850 
L 1356 331 
L 1856 331 
L 1856 0 
L 263 0 
L 263 331 
L 781 331 
L 781 2994 
L 231 2994 
L 231 3322 
L 1356 3322 
L 1356 2731 
Q 1516 3063 1762 3238 
Q 2009 3413 2322 3413 
Q 2709 3413 2968 3220 
Q 3228 3028 3316 2675 
z
" transform="scale(0.015625)"/>
       <path id="DejaVuSerif-2f" d="M 1656 4666 
L 2156 4666 
L 500 -594 
L 0 -594 
L 1656 4666 
z
" transform="scale(0.015625)"/>
       <path id="DejaVuSerif-73" d="M 359 184 
L 359 959 
L 691 959 
Q 703 588 923 403 
Q 1144 219 1575 219 
Q 1963 219 2166 364 
Q 2369 509 2369 788 
Q 2369 1006 2220 1140 
Q 2072 1275 1594 1428 
L 1178 1569 
Q 750 1706 558 1912 
Q 366 2119 366 2438 
Q 366 2894 700 3153 
Q 1034 3413 1625 3413 
Q 1888 3413 2178 3344 
Q 2469 3275 2778 3144 
L 2778 2419 
L 2447 2419 
Q 2434 2741 2221 2922 
Q 2009 3103 1644 3103 
Q 1281 3103 1095 2975 
Q 909 2847 909 2591 
Q 909 2381 1050 2254 
Q 1191 2128 1613 1997 
L 2069 1856 
Q 2541 1709 2748 1489 
Q 2956 1269 2956 922 
Q 2956 450 2595 179 
Q 2234 -91 1600 -91 
Q 1278 -91 972 -22 
Q 666 47 359 184 
z
" transform="scale(0.015625)"/>
       <path id="DejaVuSerif-5d" d="M 1947 4863 
L 1947 -844 
L 494 -844 
L 494 -513 
L 1350 -513 
L 1350 4531 
L 494 4531 
L 494 4863 
L 1947 4863 
z
" transform="scale(0.015625)"/>
      </defs>
      <use xlink:href="#STIXGeneral-Italic-76" transform="translate(0 0.015625)"/>
      <use xlink:href="#STIXGeneral-Italic-78" transform="translate(44.399994 -13.2125) scale(0.7)"/>
      <use xlink:href="#DejaVuSerif-20" transform="translate(79.889365 0.015625)"/>
      <use xlink:href="#DejaVuSerif-5b" transform="translate(111.676474 0.015625)"/>
      <use xlink:href="#DejaVuSerif-6d" transform="translate(150.690146 0.015625)"/>
      <use xlink:href="#DejaVuSerif-2f" transform="translate(245.514365 0.015625)"/>
      <use xlink:href="#DejaVuSerif-73" transform="translate(279.205771 0.015625)"/>
      <use xlink:href="#DejaVuSerif-5d" transform="translate(330.52413 0.015625)"/>
     </g>
    </g>
   </g>
   <g id="matplotlib.axis_2">
    <g id="ytick_1">
     <g id="line2d_11">
      <path d="M 41.74 95.048081 
L 203.092 95.048081 
" clip-path="url(#p60e618f710)" style="fill: none; stroke-dasharray: 1.85,0.8; stroke-dashoffset: 0; stroke: #b0b0b0; stroke-opacity: 0.5; stroke-width: 0.5"/>
     </g>
     <g id="line2d_12">
      <defs>
       <path id="m593c0bdb2b" d="M 0 0 
L 3 0 
" style="stroke: #000000; stroke-width: 0.5"/>
      </defs>
      <g>
       <use xlink:href="#m593c0bdb2b" x="41.74" y="95.048081" style="stroke: #000000; stroke-width: 0.5"/>
      </g>
     </g>
     <g id="text_7">
      <!-- -2.0 -->
      <g transform="translate(22.81375 98.087456) scale(0.08 -0.08)">
       <defs>
        <path id="DejaVuSerif-2d" d="M 281 1959 
L 1881 1959 
L 1881 1472 
L 281 1472 
L 281 1959 
z
" transform="scale(0.015625)"/>
        <path id="DejaVuSerif-2e" d="M 603 325 
Q 603 500 722 622 
Q 841 744 1019 744 
Q 1191 744 1312 622 
Q 1434 500 1434 325 
Q 1434 153 1312 31 
Q 1191 -91 1019 -91 
Q 841 -91 722 29 
Q 603 150 603 325 
z
" transform="scale(0.015625)"/>
       </defs>
       <use xlink:href="#DejaVuSerif-2d"/>
       <use xlink:href="#DejaVuSerif-32" x="33.789062"/>
       <use xlink:href="#DejaVuSerif-2e" x="97.412109"/>
       <use xlink:href="#DejaVuSerif-30" x="129.199219"/>
      </g>
     </g>
    </g>
    <g id="ytick_2">
     <g id="line2d_13">
      <path d="M 41.74 71.773647 
L 203.092 71.773647 
" clip-path="url(#p60e618f710)" style="fill: none; stroke-dasharray: 1.85,0.8; stroke-dashoffset: 0; stroke: #b0b0b0; stroke-opacity: 0.5; stroke-width: 0.5"/>
     </g>
     <g id="line2d_14">
      <g>
       <use xlink:href="#m593c0bdb2b" x="41.74" y="71.773647" style="stroke: #000000; stroke-width: 0.5"/>
      </g>
     </g>
     <g id="text_8">
      <!-- 0.0 -->
      <g transform="translate(25.5175 74.813022) scale(0.08 -0.08)">
       <use xlink:href="#DejaVuSerif-30"/>
       <use xlink:href="#DejaVuSerif-2e" x="63.623047"/>
       <use xlink:href="#DejaVuSerif-30" x="95.410156"/>
      </g>
     </g>
    </g>
    <g id="ytick_3">
     <g id="line2d_15">
      <path d="M 41.74 48.499212 
L 203.092 48.499212 
" clip-path="url(#p60e618f710)" style="fill: none; stroke-dasharray: 1.85,0.8; stroke-dashoffset: 0; stroke: #b0b0b0; stroke-opacity: 0.5; stroke-width: 0.5"/>
     </g>
     <g id="line2d_16">
      <g>
       <use xlink:href="#m593c0bdb2b" x="41.74" y="48.499212" style="stroke: #000000; stroke-width: 0.5"/>
      </g>
     </g>
     <g id="text_9">
      <!-- 2.0 -->
      <g transform="translate(25.5175 51.538587) scale(0.08 -0.08)">
       <use xlink:href="#DejaVuSerif-32"/>
       <use xlink:href="#DejaVuSerif-2e" x="63.623047"/>
       <use xlink:href="#DejaVuSerif-30" x="95.410156"/>
      </g>
     </g>
    </g>
    <g id="ytick_4">
     <g id="line2d_17">
      <path d="M 41.74 25.224778 
L 203.092 25.224778 
" clip-path="url(#p60e618f710)" style="fill: none; stroke-dasharray: 1.85,0.8; stroke-dashoffset: 0; stroke: #b0b0b0; stroke-opacity: 0.5; stroke-width: 0.5"/>
     </g>
     <g id="line2d_18">
      <g>
       <use xlink:href="#m593c0bdb2b" x="41.74" y="25.224778" style="stroke: #000000; stroke-width: 0.5"/>
      </g>
     </g>
     <g id="text_10">
      <!-- 4.0 -->
      <g transform="translate(25.5175 28.264153) scale(0.08 -0.08)">
       <use xlink:href="#DejaVuSerif-34"/>
       <use xlink:href="#DejaVuSerif-2e" x="63.623047"/>
       <use xlink:href="#DejaVuSerif-30" x="95.410156"/>
      </g>
     </g>
    </g>
    <g id="text_11">
     <!-- $\Delta a_{x}$ [m/s²] -->
     <g transform="translate(16.318125 81.426) rotate(-90) scale(0.12 -0.12)">
      <defs>
       <path id="STIXGeneral-Regular-394" d="M 4320 0 
L 307 0 
L 2221 4314 
L 2349 4314 
L 4320 0 
z
M 3354 589 
L 2118 3405 
L 870 589 
L 3354 589 
z
" transform="scale(0.015625)"/>
       <path id="STIXGeneral-Italic-61" d="M 2963 710 
L 3046 640 
Q 2688 205 2518 70 
Q 2349 -64 2157 -64 
Q 1901 -64 1901 198 
Q 1901 358 2048 934 
Q 1690 397 1389 163 
Q 1088 -70 749 -70 
Q 467 -70 288 125 
Q 109 320 109 672 
Q 109 1158 387 1664 
Q 666 2170 1094 2496 
Q 1523 2822 1939 2822 
Q 2368 2822 2451 2451 
L 2522 2758 
L 2541 2778 
L 2931 2822 
L 2976 2803 
Q 2970 2778 2938 2669 
Q 2368 595 2368 346 
Q 2368 262 2458 262 
Q 2554 262 2790 525 
L 2963 710 
z
M 2336 2310 
Q 2336 2477 2240 2579 
Q 2144 2682 1978 2682 
Q 1542 2682 1139 2093 
Q 928 1779 787 1395 
Q 646 1011 646 717 
Q 646 243 1030 243 
Q 1408 243 1843 870 
Q 2336 1581 2336 2310 
z
" transform="scale(0.015625)"/>
       <path id="DejaVuSerif-b2" d="M 531 4050 
L 313 4050 
L 313 4544 
Q 519 4644 737 4697 
Q 956 4750 1172 4750 
Q 1603 4750 1870 4544 
Q 2138 4338 2138 4013 
Q 2138 3631 1531 3088 
L 1472 3034 
L 728 2363 
L 1931 2363 
L 1931 2700 
L 2163 2700 
L 2163 2088 
L 281 2088 
L 281 2322 
L 1172 3116 
Q 1441 3356 1556 3547 
Q 1672 3738 1672 3944 
Q 1672 4209 1520 4364 
Q 1369 4519 1106 4519 
Q 863 4519 716 4400 
Q 569 4281 531 4050 
z
" transform="scale(0.015625)"/>
      </defs>
      <use xlink:href="#STIXGeneral-Regular-394" transform="translate(0 0.015625)"/>
      <use xlink:href="#STIXGeneral-Italic-61" transform="translate(72.199982 0.015625)"/>
      <use xlink:href="#STIXGeneral-Italic-78" transform="translate(122.299973 -13.2125) scale(0.7)"/>
      <use xlink:href="#DejaVuSerif-20" transform="translate(157.789343 0.015625)"/>
      <use xlink:href="#DejaVuSerif-5b" transform="translate(189.576453 0.015625)"/>
      <use xlink:href="#DejaVuSerif-6d" transform="translate(228.590125 0.015625)"/>
      <use xlink:href="#DejaVuSerif-2f" transform="translate(323.414343 0.015625)"/>
      <use xlink:href="#DejaVuSerif-73" transform="translate(357.10575 0.015625)"/>
      <use xlink:href="#DejaVuSerif-b2" transform="translate(408.424109 0.015625)"/>
      <use xlink:href="#DejaVuSerif-5d" transform="translate(448.512 0.015625)"/>
     </g>
    </g>
   </g>
   <g id="PolyCollection_1">
    <defs>
     <path id="mda6992e196" d="M 49.074182 -119.86225 
L 49.074182 -61.236853 
L 49.811286 -62.851102 
L 50.548389 -64.481928 
L 51.285493 -66.125501 
L 52.022597 -67.777869 
L 52.7597 -69.433635 
L 53.496804 -71.087195 
L 54.233908 -72.733697 
L 54.971011 -74.366483 
L 55.708115 -75.977521 
L 56.445219 -77.560896 
L 57.182323 -79.106896 
L 57.919426 -80.608491 
L 58.65653 -82.053093 
L 59.393634 -83.433691 
L 60.130737 -84.737331 
L 60.867841 -85.950519 
L 61.604945 -87.062595 
L 62.342048 -88.053082 
L 63.079152 -88.905933 
L 63.816256 -89.592735 
L 64.55336 -90.087669 
L 65.290463 -90.356679 
L 66.027567 -90.395289 
L 66.764671 -90.245775 
L 67.501774 -89.990089 
L 68.238878 -89.698855 
L 68.975982 -89.412196 
L 69.713085 -89.1386 
L 70.450189 -88.867301 
L 71.187293 -88.578603 
L 71.924397 -88.247729 
L 72.6615 -87.863079 
L 73.398604 -87.430278 
L 74.135708 -86.970042 
L 74.872811 -86.502007 
L 75.609915 -86.040214 
L 76.347019 -85.586099 
L 77.084122 -85.135321 
L 77.821226 -84.683014 
L 78.55833 -84.229967 
L 79.295434 -83.788764 
L 80.032537 -83.374871 
L 80.769641 -83.004943 
L 81.506745 -82.686183 
L 82.243848 -82.413783 
L 82.980952 -82.169015 
L 83.718056 -81.911206 
L 84.455159 -81.590923 
L 85.192263 -81.167552 
L 85.929367 -80.631543 
L 86.666471 -80.006746 
L 87.403574 -79.328218 
L 88.140678 -78.630954 
L 88.877782 -77.945152 
L 89.614885 -77.293289 
L 90.351989 -76.69506 
L 91.089093 -76.16577 
L 91.826196 -75.71599 
L 92.5633 -75.354788 
L 93.300404 -75.087266 
L 94.037508 -74.914935 
L 94.774611 -74.836785 
L 95.511715 -74.846873 
L 96.248819 -74.93549 
L 96.985922 -75.086 
L 97.723026 -75.271505 
L 98.46013 -75.448212 
L 99.197233 -75.54078 
L 99.934337 -75.442161 
L 100.671441 -75.070565 
L 101.408545 -74.461367 
L 102.145648 -73.722839 
L 102.882752 -72.944453 
L 103.619856 -72.180935 
L 104.356959 -71.466137 
L 105.094063 -70.82204 
L 105.831167 -70.261925 
L 106.56827 -69.796327 
L 107.305374 -69.428793 
L 108.042478 -69.161923 
L 108.779582 -68.993644 
L 109.516685 -68.920543 
L 110.253789 -68.933704 
L 110.990893 -69.024116 
L 111.727996 -69.17608 
L 112.4651 -69.372504 
L 113.202204 -69.589619 
L 113.939307 -69.7981 
L 114.676411 -69.9594 
L 115.413515 -70.028747 
L 116.150619 -69.967105 
L 116.887722 -69.765946 
L 117.624826 -69.46428 
L 118.36193 -69.121445 
L 119.099033 -68.790226 
L 119.836137 -68.500781 
L 120.573241 -68.268472 
L 121.310344 -68.091056 
L 122.047448 -67.956496 
L 122.784552 -67.841329 
L 123.521656 -67.717376 
L 124.258759 -67.560396 
L 124.995863 -67.360748 
L 125.732967 -67.134008 
L 126.47007 -66.912729 
L 127.207174 -66.727097 
L 127.944278 -66.604324 
L 128.681381 -66.556879 
L 129.418485 -66.58658 
L 130.155589 -66.678754 
L 130.892693 -66.802637 
L 131.629796 -66.908456 
L 132.3669 -66.937005 
L 133.104004 -66.841082 
L 133.841107 -66.614403 
L 134.578211 -66.283127 
L 135.315315 -65.888098 
L 136.052418 -65.462236 
L 136.789522 -65.034854 
L 137.526626 -64.627248 
L 138.26373 -64.259086 
L 139.000833 -63.943922 
L 139.737937 -63.690235 
L 140.475041 -63.503971 
L 141.212144 -63.384582 
L 141.949248 -63.324321 
L 142.686352 -63.309012 
L 143.423455 -63.313797 
L 144.160559 -63.304235 
L 144.897663 -63.242073 
L 145.634767 -63.104407 
L 146.37187 -62.901402 
L 147.108974 -62.671319 
L 147.846078 -62.455048 
L 148.583181 -62.282742 
L 149.320285 -62.170456 
L 150.057389 -62.121022 
L 150.794492 -62.126104 
L 151.531596 -62.170762 
L 152.2687 -62.23307 
L 153.005804 -62.287476 
L 153.742907 -62.303669 
L 154.480011 -62.2614 
L 155.217115 -62.152626 
L 155.954218 -61.990314 
L 156.691322 -61.802699 
L 157.428426 -61.613431 
L 158.165529 -61.441347 
L 158.902633 -61.291767 
L 159.639737 -61.163454 
L 160.376841 -61.050158 
L 161.113944 -60.944779 
L 161.851048 -60.843818 
L 162.588152 -60.740905 
L 163.325255 -60.634159 
L 164.062359 -60.523218 
L 164.799463 -60.417622 
L 165.536566 -60.328499 
L 166.27367 -60.26333 
L 167.010774 -60.22474 
L 167.747878 -60.208324 
L 168.484981 -60.206228 
L 169.222085 -60.206152 
L 169.959189 -60.199018 
L 170.696292 -60.183344 
L 171.433396 -60.157041 
L 172.1705 -60.12452 
L 172.907603 -60.088954 
L 173.644707 -60.052087 
L 174.381811 -60.016588 
L 175.118915 -59.981581 
L 175.856018 -59.949799 
L 176.593122 -59.922387 
L 177.330226 -59.899298 
L 178.067329 -59.879427 
L 178.804433 -59.845398 
L 179.541537 -59.768097 
L 180.27864 -59.59894 
L 181.015744 -59.297969 
L 181.752848 -58.851709 
L 182.489952 -58.264919 
L 183.227055 -57.554315 
L 183.964159 -56.737619 
L 184.701263 -55.830838 
L 185.438366 -54.847431 
L 186.17547 -53.798533 
L 186.912574 -52.696268 
L 187.649677 -51.550151 
L 188.386781 -50.369483 
L 189.123885 -49.161272 
L 189.860989 -47.934488 
L 190.598092 -46.695265 
L 191.335196 -45.450448 
L 192.0723 -44.20521 
L 192.809403 -42.965077 
L 193.546507 -41.735084 
L 194.283611 -40.5188 
L 195.020714 -39.320232 
L 195.757818 -38.14225 
L 195.757818 -90.594722 
L 195.757818 -90.594722 
L 195.020714 -88.998869 
L 194.283611 -87.388921 
L 193.546507 -85.769359 
L 192.809403 -84.14515 
L 192.0723 -82.521411 
L 191.335196 -80.904087 
L 190.598092 -79.300459 
L 189.860989 -77.716123 
L 189.123885 -76.159595 
L 188.386781 -74.638406 
L 187.649677 -73.163182 
L 186.912574 -71.740807 
L 186.17547 -70.383025 
L 185.438366 -69.099947 
L 184.701263 -67.904661 
L 183.964159 -66.808933 
L 183.227055 -65.827619 
L 182.489952 -64.97654 
L 181.752848 -64.274308 
L 181.015744 -63.737317 
L 180.27864 -63.369775 
L 179.541537 -63.158144 
L 178.804433 -63.061562 
L 178.067329 -63.030693 
L 177.330226 -63.032466 
L 176.593122 -63.049196 
L 175.856018 -63.075395 
L 175.118915 -63.109754 
L 174.381811 -63.149756 
L 173.644707 -63.196427 
L 172.907603 -63.246379 
L 172.1705 -63.301099 
L 171.433396 -63.361395 
L 170.696292 -63.429719 
L 169.959189 -63.510144 
L 169.222085 -63.602484 
L 168.484981 -63.703476 
L 167.747878 -63.804843 
L 167.010774 -63.896628 
L 166.27367 -63.969645 
L 165.536566 -64.021237 
L 164.799463 -64.05541 
L 164.062359 -64.081453 
L 163.325255 -64.112521 
L 162.588152 -64.159073 
L 161.851048 -64.225748 
L 161.113944 -64.313089 
L 160.376841 -64.417765 
L 159.639737 -64.538511 
L 158.902633 -64.668508 
L 158.165529 -64.803038 
L 157.428426 -64.936416 
L 156.691322 -65.069882 
L 155.954218 -65.214572 
L 155.217115 -65.383491 
L 154.480011 -65.589229 
L 153.742907 -65.830333 
L 153.005804 -66.09097 
L 152.2687 -66.346624 
L 151.531596 -66.570974 
L 150.794492 -66.745308 
L 150.057389 -66.858838 
L 149.320285 -66.910272 
L 148.583181 -66.905023 
L 147.846078 -66.862577 
L 147.108974 -66.81117 
L 146.37187 -66.7943 
L 145.634767 -66.86341 
L 144.897663 -67.061854 
L 144.160559 -67.401513 
L 143.423455 -67.855927 
L 142.686352 -68.378312 
L 141.949248 -68.923462 
L 141.212144 -69.453939 
L 140.475041 -69.938233 
L 139.737937 -70.353598 
L 139.000833 -70.682671 
L 138.26373 -70.914835 
L 137.526626 -71.044548 
L 136.789522 -71.073369 
L 136.052418 -71.00891 
L 135.315315 -70.867892 
L 134.578211 -70.676658 
L 133.841107 -70.473434 
L 133.104004 -70.30716 
L 132.3669 -70.222557 
L 131.629796 -70.237852 
L 130.892693 -70.333733 
L 130.155589 -70.469518 
L 129.418485 -70.610686 
L 128.681381 -70.735242 
L 127.944278 -70.833304 
L 127.207174 -70.90546 
L 126.47007 -70.965467 
L 125.732967 -71.032624 
L 124.995863 -71.134723 
L 124.258759 -71.295114 
L 123.521656 -71.525353 
L 122.784552 -71.809939 
L 122.047448 -72.120431 
L 121.310344 -72.4242 
L 120.573241 -72.694991 
L 119.836137 -72.918191 
L 119.099033 -73.089885 
L 118.36193 -73.222654 
L 117.624826 -73.346451 
L 116.887722 -73.512194 
L 116.150619 -73.780057 
L 115.413515 -74.186872 
L 114.676411 -74.725439 
L 113.939307 -75.355699 
L 113.202204 -76.03308 
L 112.4651 -76.719523 
L 111.727996 -77.386136 
L 110.990893 -78.010205 
L 110.253789 -78.573566 
L 109.516685 -79.063266 
L 108.779582 -79.468544 
L 108.042478 -79.783552 
L 107.305374 -80.004142 
L 106.56827 -80.128928 
L 105.831167 -80.160914 
L 105.094063 -80.106207 
L 104.356959 -79.974222 
L 103.619856 -79.779337 
L 102.882752 -79.543715 
L 102.145648 -79.301121 
L 101.408545 -79.106761 
L 100.671441 -79.05086 
L 99.934337 -79.240044 
L 99.197233 -79.710059 
L 98.46013 -80.378946 
L 97.723026 -81.138382 
L 96.985922 -81.91174 
L 96.248819 -82.654307 
L 95.511715 -83.337282 
L 94.774611 -83.94492 
L 94.037508 -84.464806 
L 93.300404 -84.890333 
L 92.5633 -85.218623 
L 91.826196 -85.451581 
L 91.089093 -85.59263 
L 90.351989 -85.649291 
L 89.614885 -85.633796 
L 88.877782 -85.559938 
L 88.140678 -85.448152 
L 87.403574 -85.321991 
L 86.666471 -85.212833 
L 85.929367 -85.156635 
L 85.192263 -85.191305 
L 84.455159 -85.343363 
L 83.718056 -85.60779 
L 82.980952 -85.947758 
L 82.243848 -86.318227 
L 81.506745 -86.6856 
L 80.769641 -87.033404 
L 80.032537 -87.363256 
L 79.295434 -87.682028 
L 78.55833 -88.009086 
L 77.821226 -88.358516 
L 77.084122 -88.73763 
L 76.347019 -89.140736 
L 75.609915 -89.55355 
L 74.872811 -89.960285 
L 74.135708 -90.351832 
L 73.398604 -90.729936 
L 72.6615 -91.109162 
L 71.924397 -91.501103 
L 71.187293 -91.910984 
L 70.450189 -92.32736 
L 69.713085 -92.724035 
L 68.975982 -93.078791 
L 68.238878 -93.378091 
L 67.501774 -93.627224 
L 66.764671 -93.864493 
L 66.027567 -94.155175 
L 65.290463 -94.580388 
L 64.55336 -95.180378 
L 63.816256 -95.948747 
L 63.079152 -96.853726 
L 62.342048 -97.866535 
L 61.604945 -98.961988 
L 60.867841 -100.122174 
L 60.130737 -101.33262 
L 59.393634 -102.580826 
L 58.65653 -103.855572 
L 57.919426 -105.148993 
L 57.182323 -106.452231 
L 56.445219 -107.757869 
L 55.708115 -109.060027 
L 54.971011 -110.352641 
L 54.233908 -111.630684 
L 53.496804 -112.889565 
L 52.7597 -114.126711 
L 52.022597 -115.336511 
L 51.285493 -116.517544 
L 50.548389 -117.666593 
L 49.811286 -118.782403 
L 49.074182 -119.86225 
z
" style="stroke: #e74c3c; stroke-opacity: 0.2"/>
    </defs>
    <g clip-path="url(#p60e618f710)">
     <use xlink:href="#mda6992e196" x="0" y="131.14825" style="fill: #e74c3c; fill-opacity: 0.2; stroke: #e74c3c; stroke-opacity: 0.2"/>
    </g>
   </g>
   <g id="line2d_19">
    <path d="M 41.74 71.773647 
L 203.092 71.773647 
" clip-path="url(#p60e618f710)" style="fill: none; stroke-dasharray: 4.44,1.92; stroke-dashoffset: 0; stroke: #000000; stroke-opacity: 0.7; stroke-width: 1.2"/>
   </g>
   <g id="patch_3">
    <path d="M 41.74 97.092 
L 41.74 7.2 
" style="fill: none; stroke: #000000; stroke-width: 0.5; stroke-linejoin: miter; stroke-linecap: square"/>
   </g>
   <g id="patch_4">
    <path d="M 203.092 97.092 
L 203.092 7.2 
" style="fill: none; stroke: #000000; stroke-width: 0.5; stroke-linejoin: miter; stroke-linecap: square"/>
   </g>
   <g id="patch_5">
    <path d="M 41.74 97.092 
L 203.092 97.092 
" style="fill: none; stroke: #000000; stroke-width: 0.5; stroke-linejoin: miter; stroke-linecap: square"/>
   </g>
   <g id="patch_6">
    <path d="M 41.74 7.2 
L 203.092 7.2 
" style="fill: none; stroke: #000000; stroke-width: 0.5; stroke-linejoin: miter; stroke-linecap: square"/>
   </g>
   <g id="line2d_20">
    <path d="M 49.074182 40.598697 
L 52.7597 39.368077 
L 55.708115 38.629475 
L 57.919426 38.269508 
L 60.130737 38.113274 
L 62.342048 38.188442 
L 64.55336 38.514227 
L 66.764671 39.093116 
L 68.975982 39.902756 
L 71.924397 41.273834 
L 74.872811 42.917104 
L 79.295434 45.412854 
L 82.243848 46.782245 
L 87.403574 48.823145 
L 96.985922 52.64938 
L 102.882752 54.904166 
L 108.779582 56.917156 
L 122.047448 61.109787 
L 125.732967 62.064934 
L 127.944278 62.429436 
L 130.155589 62.574114 
L 134.578211 62.668357 
L 136.052418 62.912677 
L 138.26373 63.56129 
L 144.897663 65.996287 
L 147.108974 66.407005 
L 150.794492 66.712544 
L 153.742907 67.081249 
L 162.588152 68.698261 
L 167.747878 69.141667 
L 176.593122 69.662458 
L 180.27864 69.663892 
L 183.227055 69.457283 
L 186.17547 69.057471 
L 189.860989 68.322945 
L 194.283611 67.194389 
L 195.757818 66.779763 
L 195.757818 66.779763 
" clip-path="url(#p60e618f710)" style="fill: none; stroke: #e74c3c; stroke-linecap: square"/>
   </g>
   <g id="PathCollection_1">
    <defs>
     <path id="m93573029e9" d="M 0 2.738613 
C 0.726289 2.738613 1.422928 2.450055 1.936492 1.936492 
C 2.450055 1.422928 2.738613 0.726289 2.738613 0 
C 2.738613 -0.726289 2.450055 -1.422928 1.936492 -1.936492 
C 1.422928 -2.450055 0.726289 -2.738613 0 -2.738613 
C -0.726289 -2.738613 -1.422928 -2.450055 -1.936492 -1.936492 
C -2.450055 -1.422928 -2.738613 -0.726289 -2.738613 0 
C -2.738613 0.726289 -2.450055 1.422928 -1.936492 1.936492 
C -1.422928 2.450055 -0.726289 2.738613 0 2.738613 
z
" style="stroke: #3498db; stroke-opacity: 0.8; stroke-width: 0.7"/>
    </defs>
    <g clip-path="url(#p60e618f710)">
     <use xlink:href="#m93573029e9" x="171.905627" y="69.414651" style="fill: #a9bbf1; fill-opacity: 0.8; stroke: #3498db; stroke-opacity: 0.8; stroke-width: 0.7"/>
     <use xlink:href="#m93573029e9" x="174.227974" y="69.540199" style="fill: #a9bbf1; fill-opacity: 0.8; stroke: #3498db; stroke-opacity: 0.8; stroke-width: 0.7"/>
     <use xlink:href="#m93573029e9" x="176.153665" y="69.645281" style="fill: #a9bbf1; fill-opacity: 0.8; stroke: #3498db; stroke-opacity: 0.8; stroke-width: 0.7"/>
     <use xlink:href="#m93573029e9" x="177.682377" y="69.70676" style="fill: #a9bbf1; fill-opacity: 0.8; stroke: #3498db; stroke-opacity: 0.8; stroke-width: 0.7"/>
     <use xlink:href="#m93573029e9" x="178.832783" y="69.745505" style="fill: #a9bbf1; fill-opacity: 0.8; stroke: #3498db; stroke-opacity: 0.8; stroke-width: 0.7"/>
     <use xlink:href="#m93573029e9" x="65.999217" y="38.837921" style="fill: #a9bbf1; fill-opacity: 0.8; stroke: #3498db; stroke-opacity: 0.8; stroke-width: 0.7"/>
     <use xlink:href="#m93573029e9" x="71.777871" y="41.840276" style="fill: #a9bbf1; fill-opacity: 0.8; stroke: #3498db; stroke-opacity: 0.8; stroke-width: 0.7"/>
     <use xlink:href="#m93573029e9" x="84.479707" y="47.657738" style="fill: #a9bbf1; fill-opacity: 0.8; stroke: #3498db; stroke-opacity: 0.8; stroke-width: 0.7"/>
     <use xlink:href="#m93573029e9" x="100.076598" y="53.866785" style="fill: #a9bbf1; fill-opacity: 0.8; stroke: #3498db; stroke-opacity: 0.8; stroke-width: 0.7"/>
     <use xlink:href="#m93573029e9" x="116.333413" y="59.334481" style="fill: #a9bbf1; fill-opacity: 0.8; stroke: #3498db; stroke-opacity: 0.8; stroke-width: 0.7"/>
     <use xlink:href="#m93573029e9" x="131.847743" y="63.512974" style="fill: #a9bbf1; fill-opacity: 0.8; stroke: #3498db; stroke-opacity: 0.8; stroke-width: 0.7"/>
     <use xlink:href="#m93573029e9" x="145.260039" y="66.217184" style="fill: #a9bbf1; fill-opacity: 0.8; stroke: #3498db; stroke-opacity: 0.8; stroke-width: 0.7"/>
     <use xlink:href="#m93573029e9" x="155.585948" y="67.957432" style="fill: #a9bbf1; fill-opacity: 0.8; stroke: #3498db; stroke-opacity: 0.8; stroke-width: 0.7"/>
     <use xlink:href="#m93573029e9" x="163.173636" y="68.727684" style="fill: #a9bbf1; fill-opacity: 0.8; stroke: #3498db; stroke-opacity: 0.8; stroke-width: 0.7"/>
     <use xlink:href="#m93573029e9" x="169.245382" y="69.255409" style="fill: #a9bbf1; fill-opacity: 0.8; stroke: #3498db; stroke-opacity: 0.8; stroke-width: 0.7"/>
     <use xlink:href="#m93573029e9" x="77.562031" y="44.594001" style="fill: #a9bbf1; fill-opacity: 0.8; stroke: #3498db; stroke-opacity: 0.8; stroke-width: 0.7"/>
     <use xlink:href="#m93573029e9" x="154.362046" y="66.655543" style="fill: #a9bbf1; fill-opacity: 0.8; stroke: #3498db; stroke-opacity: 0.8; stroke-width: 0.7"/>
     <use xlink:href="#m93573029e9" x="124.264378" y="61.669668" style="fill: #a9bbf1; fill-opacity: 0.8; stroke: #3498db; stroke-opacity: 0.8; stroke-width: 0.7"/>
     <use xlink:href="#m93573029e9" x="132.75235" y="61.621015" style="fill: #a9bbf1; fill-opacity: 0.8; stroke: #3498db; stroke-opacity: 0.8; stroke-width: 0.7"/>
     <use xlink:href="#m93573029e9" x="159.642178" y="68.303079" style="fill: #a9bbf1; fill-opacity: 0.8; stroke: #3498db; stroke-opacity: 0.8; stroke-width: 0.7"/>
     <use xlink:href="#m93573029e9" x="72.267118" y="40.750154" style="fill: #a9bbf1; fill-opacity: 0.8; stroke: #3498db; stroke-opacity: 0.8; stroke-width: 0.7"/>
    </g>
   </g>
   <g id="PathCollection_2">
    <defs>
     <path id="m19e79ec9ab" d="M 0 3.162278 
C 0.838646 3.162278 1.643056 2.82908 2.236068 2.236068 
C 2.82908 1.643056 3.162278 0.838646 3.162278 0 
C 3.162278 -0.838646 2.82908 -1.643056 2.236068 -2.236068 
C 1.643056 -2.82908 0.838646 -3.162278 0 -3.162278 
C -0.838646 -3.162278 -1.643056 -2.82908 -2.236068 -2.236068 
C -2.82908 -1.643056 -3.162278 -0.838646 -3.162278 0 
C -3.162278 0.838646 -2.82908 1.643056 -2.236068 2.236068 
C -1.643056 2.82908 -0.838646 3.162278 0 3.162278 
z
" style="stroke: #d62728; stroke-opacity: 0.9; stroke-width: 1.2"/>
    </defs>
    <g clip-path="url(#p60e618f710)">
     <use xlink:href="#m19e79ec9ab" x="98.305612" y="53.173716" style="fill: #ffffff; fill-opacity: 0.9; stroke: #d62728; stroke-opacity: 0.9; stroke-width: 1.2"/>
     <use xlink:href="#m19e79ec9ab" x="70.50636" y="40.577205" style="fill: #ffffff; fill-opacity: 0.9; stroke: #d62728; stroke-opacity: 0.9; stroke-width: 1.2"/>
     <use xlink:href="#m19e79ec9ab" x="62.024776" y="38.162938" style="fill: #ffffff; fill-opacity: 0.9; stroke: #d62728; stroke-opacity: 0.9; stroke-width: 1.2"/>
     <use xlink:href="#m19e79ec9ab" x="73.989195" y="42.403173" style="fill: #ffffff; fill-opacity: 0.9; stroke: #d62728; stroke-opacity: 0.9; stroke-width: 1.2"/>
     <use xlink:href="#m19e79ec9ab" x="94.099944" y="51.483802" style="fill: #ffffff; fill-opacity: 0.9; stroke: #d62728; stroke-opacity: 0.9; stroke-width: 1.2"/>
     <use xlink:href="#m19e79ec9ab" x="115.960878" y="59.214319" style="fill: #ffffff; fill-opacity: 0.9; stroke: #d62728; stroke-opacity: 0.9; stroke-width: 1.2"/>
     <use xlink:href="#m19e79ec9ab" x="134.704783" y="62.682871" style="fill: #ffffff; fill-opacity: 0.9; stroke: #d62728; stroke-opacity: 0.9; stroke-width: 1.2"/>
     <use xlink:href="#m19e79ec9ab" x="147.567715" y="66.46128" style="fill: #ffffff; fill-opacity: 0.9; stroke: #d62728; stroke-opacity: 0.9; stroke-width: 1.2"/>
     <use xlink:href="#m19e79ec9ab" x="156.689312" y="67.711454" style="fill: #ffffff; fill-opacity: 0.9; stroke: #d62728; stroke-opacity: 0.9; stroke-width: 1.2"/>
     <use xlink:href="#m19e79ec9ab" x="163.766519" y="68.818604" style="fill: #ffffff; fill-opacity: 0.9; stroke: #d62728; stroke-opacity: 0.9; stroke-width: 1.2"/>
     <use xlink:href="#m19e79ec9ab" x="168.969767" y="69.22725" style="fill: #ffffff; fill-opacity: 0.9; stroke: #d62728; stroke-opacity: 0.9; stroke-width: 1.2"/>
    </g>
   </g>
   <g id="legend_1">
    <g id="PathCollection_3">
     <g>
      <use xlink:href="#m93573029e9" x="151.887" y="18.37875" style="fill: #a9bbf1; fill-opacity: 0.8; stroke: #3498db; stroke-opacity: 0.8; stroke-width: 0.7"/>
     </g>
    </g>
    <g id="text_12">
     <!-- Data -->
     <g transform="translate(166.287 20.47875) scale(0.08 -0.08)">
      <defs>
       <path id="DejaVuSerif-44" d="M 1581 331 
L 2163 331 
Q 3072 331 3558 850 
Q 4044 1369 4044 2338 
Q 4044 3306 3559 3818 
Q 3075 4331 2163 4331 
L 1581 4331 
L 1581 331 
z
M 353 0 
L 353 331 
L 947 331 
L 947 4331 
L 353 4331 
L 353 4666 
L 2209 4666 
Q 3416 4666 4089 4050 
Q 4763 3434 4763 2338 
Q 4763 1238 4088 619 
Q 3413 0 2209 0 
L 353 0 
z
" transform="scale(0.015625)"/>
       <path id="DejaVuSerif-61" d="M 2547 1044 
L 2547 1747 
L 1806 1747 
Q 1378 1747 1168 1562 
Q 959 1378 959 997 
Q 959 650 1171 447 
Q 1384 244 1747 244 
Q 2106 244 2326 466 
Q 2547 688 2547 1044 
z
M 3122 2075 
L 3122 331 
L 3634 331 
L 3634 0 
L 2547 0 
L 2547 359 
Q 2356 128 2106 18 
Q 1856 -91 1522 -91 
Q 969 -91 644 203 
Q 319 497 319 997 
Q 319 1513 691 1797 
Q 1063 2081 1741 2081 
L 2547 2081 
L 2547 2309 
Q 2547 2688 2317 2895 
Q 2088 3103 1672 3103 
Q 1328 3103 1125 2947 
Q 922 2791 872 2484 
L 575 2484 
L 575 3156 
Q 875 3284 1158 3348 
Q 1441 3413 1709 3413 
Q 2400 3413 2761 3070 
Q 3122 2728 3122 2075 
z
" transform="scale(0.015625)"/>
       <path id="DejaVuSerif-74" d="M 691 2988 
L 184 2988 
L 184 3322 
L 691 3322 
L 691 4353 
L 1269 4353 
L 1269 3322 
L 2350 3322 
L 2350 2988 
L 1269 2988 
L 1269 878 
Q 1269 456 1350 337 
Q 1431 219 1650 219 
Q 1875 219 1978 351 
Q 2081 484 2088 781 
L 2522 781 
Q 2497 328 2275 118 
Q 2053 -91 1600 -91 
Q 1103 -91 897 129 
Q 691 350 691 878 
L 691 2988 
z
" transform="scale(0.015625)"/>
      </defs>
      <use xlink:href="#DejaVuSerif-44"/>
      <use xlink:href="#DejaVuSerif-61" x="80.175781"/>
      <use xlink:href="#DejaVuSerif-74" x="139.794922"/>
      <use xlink:href="#DejaVuSerif-61" x="179.980469"/>
     </g>
    </g>
    <g id="line2d_21">
     <path d="M 143.887 29.42125 
L 151.887 29.42125 
L 159.887 29.42125 
" style="fill: none; stroke: #e74c3c; stroke-linecap: square"/>
    </g>
    <g id="text_13">
     <!-- GP Fit -->
     <g transform="translate(166.287 32.22125) scale(0.08 -0.08)">
      <defs>
       <path id="DejaVuSerif-47" d="M 4097 3272 
Q 3988 3856 3641 4136 
Q 3294 4416 2675 4416 
Q 1869 4416 1472 3897 
Q 1075 3378 1075 2328 
Q 1075 1300 1484 772 
Q 1894 244 2688 244 
Q 3041 244 3362 331 
Q 3684 419 3975 594 
L 3975 1797 
L 3097 1797 
L 3097 2131 
L 4609 2131 
L 4609 391 
Q 4194 150 3714 29 
Q 3234 -91 2688 -91 
Q 1631 -91 995 570 
Q 359 1231 359 2328 
Q 359 3434 996 4092 
Q 1634 4750 2713 4750 
Q 3113 4750 3539 4658 
Q 3966 4566 4447 4378 
L 4447 3272 
L 4097 3272 
z
" transform="scale(0.015625)"/>
       <path id="DejaVuSerif-50" d="M 1581 2375 
L 2406 2375 
Q 2872 2375 3115 2626 
Q 3359 2878 3359 3353 
Q 3359 3831 3115 4081 
Q 2872 4331 2406 4331 
L 1581 4331 
L 1581 2375 
z
M 353 0 
L 353 331 
L 947 331 
L 947 4331 
L 353 4331 
L 353 4666 
L 2559 4666 
Q 3259 4666 3668 4311 
Q 4078 3956 4078 3353 
Q 4078 2753 3668 2397 
Q 3259 2041 2559 2041 
L 1581 2041 
L 1581 331 
L 2303 331 
L 2303 0 
L 353 0 
z
" transform="scale(0.015625)"/>
       <path id="DejaVuSerif-46" d="M 353 0 
L 353 331 
L 947 331 
L 947 4331 
L 353 4331 
L 353 4666 
L 4172 4666 
L 4172 3628 
L 3788 3628 
L 3788 4281 
L 1581 4281 
L 1581 2719 
L 3175 2719 
L 3175 3303 
L 3559 3303 
L 3559 1753 
L 3175 1753 
L 3175 2338 
L 1581 2338 
L 1581 331 
L 2328 331 
L 2328 0 
L 353 0 
z
" transform="scale(0.015625)"/>
       <path id="DejaVuSerif-69" d="M 622 4353 
Q 622 4497 726 4603 
Q 831 4709 978 4709 
Q 1122 4709 1226 4603 
Q 1331 4497 1331 4353 
Q 1331 4206 1228 4103 
Q 1125 4000 978 4000 
Q 831 4000 726 4103 
Q 622 4206 622 4353 
z
M 1356 331 
L 1900 331 
L 1900 0 
L 231 0 
L 231 331 
L 781 331 
L 781 2988 
L 231 2988 
L 231 3322 
L 1356 3322 
L 1356 331 
z
" transform="scale(0.015625)"/>
      </defs>
      <use xlink:href="#DejaVuSerif-47"/>
      <use xlink:href="#DejaVuSerif-50" x="79.882812"/>
      <use xlink:href="#DejaVuSerif-20" x="147.167969"/>
      <use xlink:href="#DejaVuSerif-46" x="178.955078"/>
      <use xlink:href="#DejaVuSerif-69" x="248.339844"/>
      <use xlink:href="#DejaVuSerif-74" x="280.322266"/>
     </g>
    </g>
    <g id="patch_7">
     <path d="M 143.887 43.96375 
L 159.887 43.96375 
L 159.887 38.36375 
L 143.887 38.36375 
z
" style="fill: #e74c3c; fill-opacity: 0.2; stroke: #e74c3c; stroke-opacity: 0.2; stroke-linejoin: miter"/>
    </g>
    <g id="text_14">
     <!-- 95% CI -->
     <g transform="translate(166.287 43.96375) scale(0.08 -0.08)">
      <defs>
       <path id="DejaVuSerif-39" d="M 2994 2091 
Q 2784 1856 2512 1740 
Q 2241 1625 1900 1625 
Q 1206 1625 804 2044 
Q 403 2463 403 3188 
Q 403 3897 839 4323 
Q 1275 4750 2003 4750 
Q 2794 4750 3217 4161 
Q 3641 3572 3641 2478 
Q 3641 1253 3137 581 
Q 2634 -91 1722 -91 
Q 1475 -91 1203 -44 
Q 931 3 647 97 
L 647 872 
L 997 872 
Q 1038 556 1241 387 
Q 1444 219 1784 219 
Q 2391 219 2687 676 
Q 2984 1134 2994 2091 
z
M 1978 4441 
Q 1534 4441 1298 4117 
Q 1063 3794 1063 3188 
Q 1063 2581 1298 2256 
Q 1534 1931 1978 1931 
Q 2422 1931 2658 2245 
Q 2894 2559 2894 3150 
Q 2894 3772 2656 4106 
Q 2419 4441 1978 4441 
z
" transform="scale(0.015625)"/>
       <path id="DejaVuSerif-35" d="M 3219 4666 
L 3219 4153 
L 1081 4153 
L 1081 2816 
Q 1244 2928 1461 2984 
Q 1678 3041 1947 3041 
Q 2703 3041 3140 2622 
Q 3578 2203 3578 1478 
Q 3578 738 3136 323 
Q 2694 -91 1894 -91 
Q 1572 -91 1234 -12 
Q 897 66 544 225 
L 544 1131 
L 897 1131 
Q 925 688 1179 453 
Q 1434 219 1894 219 
Q 2388 219 2653 544 
Q 2919 869 2919 1478 
Q 2919 2084 2655 2407 
Q 2391 2731 1894 2731 
Q 1613 2731 1398 2631 
Q 1184 2531 1019 2322 
L 750 2322 
L 750 4666 
L 3219 4666 
z
" transform="scale(0.015625)"/>
       <path id="DejaVuSerif-25" d="M 1434 4459 
Q 1159 4459 1004 4200 
Q 850 3941 850 3475 
Q 850 3016 1008 2753 
Q 1166 2491 1434 2491 
Q 1700 2491 1854 2752 
Q 2009 3013 2009 3475 
Q 2009 3938 1854 4198 
Q 1700 4459 1434 4459 
z
M 4653 2169 
Q 4381 2169 4226 1906 
Q 4072 1644 4072 1178 
Q 4072 719 4228 458 
Q 4384 197 4653 197 
Q 4922 197 5075 458 
Q 5228 719 5228 1178 
Q 5228 1641 5073 1905 
Q 4919 2169 4653 2169 
z
M 4653 2450 
Q 5147 2450 5437 2106 
Q 5728 1763 5728 1178 
Q 5728 594 5436 251 
Q 5144 -91 4653 -91 
Q 4153 -91 3862 251 
Q 3572 594 3572 1178 
Q 3572 1766 3864 2108 
Q 4156 2450 4653 2450 
z
M 4263 4750 
L 4738 4750 
L 1819 -91 
L 1344 -91 
L 4263 4750 
z
M 1428 4750 
Q 1922 4750 2215 4408 
Q 2509 4066 2509 3481 
Q 2509 2891 2217 2550 
Q 1925 2209 1428 2209 
Q 931 2209 642 2551 
Q 353 2894 353 3481 
Q 353 4063 643 4406 
Q 934 4750 1428 4750 
z
" transform="scale(0.015625)"/>
       <path id="DejaVuSerif-43" d="M 4513 1234 
Q 4306 581 3820 245 
Q 3334 -91 2591 -91 
Q 2134 -91 1743 65 
Q 1353 222 1050 525 
Q 700 875 529 1320 
Q 359 1766 359 2328 
Q 359 3416 987 4083 
Q 1616 4750 2644 4750 
Q 3025 4750 3456 4650 
Q 3888 4550 4384 4347 
L 4384 3272 
L 4031 3272 
Q 3916 3859 3567 4137 
Q 3219 4416 2591 4416 
Q 1844 4416 1459 3886 
Q 1075 3356 1075 2328 
Q 1075 1303 1459 773 
Q 1844 244 2591 244 
Q 3113 244 3450 492 
Q 3788 741 3938 1234 
L 4513 1234 
z
" transform="scale(0.015625)"/>
       <path id="DejaVuSerif-49" d="M 1581 331 
L 2175 331 
L 2175 0 
L 353 0 
L 353 331 
L 947 331 
L 947 4331 
L 353 4331 
L 353 4666 
L 2175 4666 
L 2175 4331 
L 1581 4331 
L 1581 331 
z
" transform="scale(0.015625)"/>
      </defs>
      <use xlink:href="#DejaVuSerif-39"/>
      <use xlink:href="#DejaVuSerif-35" x="63.623047"/>
      <use xlink:href="#DejaVuSerif-25" x="127.246094"/>
      <use xlink:href="#DejaVuSerif-20" x="222.265625"/>
      <use xlink:href="#DejaVuSerif-43" x="254.052734"/>
      <use xlink:href="#DejaVuSerif-49" x="330.566406"/>
     </g>
    </g>
    <g id="PathCollection_4">
     <g>
      <use xlink:href="#m19e79ec9ab" x="151.887" y="53.60625" style="fill: #ffffff; fill-opacity: 0.9; stroke: #d62728; stroke-opacity: 0.9; stroke-width: 1.2"/>
     </g>
    </g>
    <g id="text_15">
     <!-- Pred -->
     <g transform="translate(166.287 55.70625) scale(0.08 -0.08)">
      <defs>
       <path id="DejaVuSerif-72" d="M 3059 3328 
L 3059 2497 
L 2728 2497 
Q 2713 2744 2591 2866 
Q 2469 2988 2234 2988 
Q 1809 2988 1582 2694 
Q 1356 2400 1356 1850 
L 1356 331 
L 2022 331 
L 2022 0 
L 263 0 
L 263 331 
L 781 331 
L 781 2994 
L 231 2994 
L 231 3322 
L 1356 3322 
L 1356 2731 
Q 1525 3078 1790 3245 
Q 2056 3413 2438 3413 
Q 2578 3413 2733 3391 
Q 2888 3369 3059 3328 
z
" transform="scale(0.015625)"/>
       <path id="DejaVuSerif-65" d="M 3469 1600 
L 991 1600 
L 991 1575 
Q 991 903 1244 561 
Q 1497 219 1991 219 
Q 2369 219 2611 417 
Q 2853 616 2950 1006 
L 3413 1006 
Q 3275 459 2904 184 
Q 2534 -91 1931 -91 
Q 1203 -91 761 389 
Q 319 869 319 1663 
Q 319 2450 753 2931 
Q 1188 3413 1894 3413 
Q 2647 3413 3050 2948 
Q 3453 2484 3469 1600 
z
M 2791 1931 
Q 2772 2513 2545 2808 
Q 2319 3103 1894 3103 
Q 1497 3103 1269 2806 
Q 1041 2509 991 1931 
L 2791 1931 
z
" transform="scale(0.015625)"/>
       <path id="DejaVuSerif-64" d="M 3359 331 
L 3909 331 
L 3909 0 
L 2784 0 
L 2784 519 
Q 2616 206 2355 57 
Q 2094 -91 1709 -91 
Q 1097 -91 708 395 
Q 319 881 319 1663 
Q 319 2444 706 2928 
Q 1094 3413 1709 3413 
Q 2094 3413 2355 3264 
Q 2616 3116 2784 2803 
L 2784 4531 
L 2241 4531 
L 2241 4863 
L 3359 4863 
L 3359 331 
z
M 2784 1497 
L 2784 1825 
Q 2784 2422 2554 2737 
Q 2325 3053 1888 3053 
Q 1444 3053 1217 2703 
Q 991 2353 991 1663 
Q 991 975 1217 622 
Q 1444 269 1888 269 
Q 2325 269 2554 583 
Q 2784 897 2784 1497 
z
" transform="scale(0.015625)"/>
      </defs>
      <use xlink:href="#DejaVuSerif-50"/>
      <use xlink:href="#DejaVuSerif-72" x="67.285156"/>
      <use xlink:href="#DejaVuSerif-65" x="115.087891"/>
      <use xlink:href="#DejaVuSerif-64" x="174.267578"/>
     </g>
    </g>
   </g>
  </g>
 </g>
 <defs>
  <clipPath id="p60e618f710">
   <rect x="41.74" y="7.2" width="161.352" height="89.892"/>
  </clipPath>
 </defs>
</svg>
