<?xml version="1.0" encoding="utf-8" standalone="no"?>
<!DOCTYPE svg PUBLIC "-//W3C//DTD SVG 1.1//EN"
  "http://www.w3.org/Graphics/SVG/1.1/DTD/svg11.dtd">
<svg xmlns:xlink="http://www.w3.org/1999/xlink" width="244.393562pt" height="296.789812pt" viewBox="0 0 244.393562 296.789812" xmlns="http://www.w3.org/2000/svg" version="1.1">
 <metadata>
  <rdf:RDF xmlns:dc="http://purl.org/dc/elements/1.1/" xmlns:cc="http://creativecommons.org/ns#" xmlns:rdf="http://www.w3.org/1999/02/22-rdf-syntax-ns#">
   <cc:Work>
    <dc:type rdf:resource="http://purl.org/dc/dcmitype/StillImage"/>
    <dc:date>2026-02-01T11:16:03.484153</dc:date>
    <dc:format>image/svg+xml</dc:format>
    <dc:creator>
     <cc:Agent>
      <dc:title>Matplotlib v3.7.5, https://matplotlib.org/</dc:title>
     </cc:Agent>
    </dc:creator>
   </cc:Work>
  </rdf:RDF>
 </metadata>
 <defs>
  <style type="text/css">*{stroke-linejoin: round; stroke-linecap: butt}</style>
 </defs>
 <g id="figure_1">
  <g id="patch_1">
   <path d="M 0 296.789812 
L 244.393562 296.789812 
L 244.393562 0 
L 0 0 
z
" style="fill: #ffffff"/>
  </g>
  <g id="axes_1">
   <g id="patch_2">
    <path d="M 38.836562 80.95925 
L 237.193562 80.95925 
L 237.193562 19.4 
L 38.836562 19.4 
z
" style="fill: #ffffff"/>
   </g>
   <g id="matplotlib.axis_1">
    <g id="xtick_1">
     <g id="line2d_1">
      <path d="M 39.930389 80.95925 
L 39.930389 19.4 
" clip-path="url(#p7b7798c4f7)" style="fill: none; stroke-dasharray: 1.85,0.8; stroke-dashoffset: 0; stroke: #b0b0b0; stroke-opacity: 0.5; stroke-width: 0.5"/>
     </g>
     <g id="line2d_2">
      <defs>
       <path id="m7eb714e588" d="M 0 0 
L 0 -3 
" style="stroke: #000000; stroke-width: 0.5"/>
      </defs>
      <g>
       <use xlink:href="#m7eb714e588" x="39.930389" y="80.95925" style="stroke: #000000; stroke-width: 0.5"/>
      </g>
     </g>
     <g id="text_1">
      <!-- −5 -->
      <g transform="translate(34.033514 90.538) scale(0.08 -0.08)">
       <defs>
        <path id="DejaVuSerif-2212" d="M 678 2259 
L 4684 2259 
L 4684 1753 
L 678 1753 
L 678 2259 
z
" transform="scale(0.015625)"/>
        <path id="DejaVuSerif-35" d="M 3219 4666 
L 3219 4153 
L 1081 4153 
L 1081 2816 
Q 1244 2928 1461 2984 
Q 1678 3041 1947 3041 
Q 2703 3041 3140 2622 
Q 3578 2203 3578 1478 
Q 3578 738 3136 323 
Q 2694 -91 1894 -91 
Q 1572 -91 1234 -12 
Q 897 66 544 225 
L 544 1131 
L 897 1131 
Q 925 688 1179 453 
Q 1434 219 1894 219 
Q 2388 219 2653 544 
Q 2919 869 2919 1478 
Q 2919 2084 2655 2407 
Q 2391 2731 1894 2731 
Q 1613 2731 1398 2631 
Q 1184 2531 1019 2322 
L 750 2322 
L 750 4666 
L 3219 4666 
z
" transform="scale(0.015625)"/>
       </defs>
       <use xlink:href="#DejaVuSerif-2212"/>
       <use xlink:href="#DejaVuSerif-35" x="83.789062"/>
      </g>
     </g>
    </g>
    <g id="xtick_2">
     <g id="line2d_3">
      <path d="M 73.703056 80.95925 
L 73.703056 19.4 
" clip-path="url(#p7b7798c4f7)" style="fill: none; stroke-dasharray: 1.85,0.8; stroke-dashoffset: 0; stroke: #b0b0b0; stroke-opacity: 0.5; stroke-width: 0.5"/>
     </g>
     <g id="line2d_4">
      <g>
       <use xlink:href="#m7eb714e588" x="73.703056" y="80.95925" style="stroke: #000000; stroke-width: 0.5"/>
      </g>
     </g>
     <g id="text_2">
      <!-- −4 -->
      <g transform="translate(67.806181 90.538) scale(0.08 -0.08)">
       <defs>
        <path id="DejaVuSerif-34" d="M 2234 1581 
L 2234 4063 
L 641 1581 
L 2234 1581 
z
M 3609 0 
L 1484 0 
L 1484 331 
L 2234 331 
L 2234 1247 
L 197 1247 
L 197 1588 
L 2241 4750 
L 2859 4750 
L 2859 1581 
L 3750 1581 
L 3750 1247 
L 2859 1247 
L 2859 331 
L 3609 331 
L 3609 0 
z
" transform="scale(0.015625)"/>
       </defs>
       <use xlink:href="#DejaVuSerif-2212"/>
       <use xlink:href="#DejaVuSerif-34" x="83.789062"/>
      </g>
     </g>
    </g>
    <g id="xtick_3">
     <g id="line2d_5">
      <path d="M 107.475722 80.95925 
L 107.475722 19.4 
" clip-path="url(#p7b7798c4f7)" style="fill: none; stroke-dasharray: 1.85,0.8; stroke-dashoffset: 0; stroke: #b0b0b0; stroke-opacity: 0.5; stroke-width: 0.5"/>
     </g>
     <g id="line2d_6">
      <g>
       <use xlink:href="#m7eb714e588" x="107.475722" y="80.95925" style="stroke: #000000; stroke-width: 0.5"/>
      </g>
     </g>
     <g id="text_3">
      <!-- −3 -->
      <g transform="translate(101.578847 90.538) scale(0.08 -0.08)">
       <defs>
        <path id="DejaVuSerif-33" d="M 622 4469 
Q 988 4606 1323 4678 
Q 1659 4750 1953 4750 
Q 2638 4750 3022 4454 
Q 3406 4159 3406 3634 
Q 3406 3213 3140 2930 
Q 2875 2647 2388 2547 
Q 2963 2466 3280 2130 
Q 3597 1794 3597 1259 
Q 3597 606 3158 257 
Q 2719 -91 1894 -91 
Q 1528 -91 1179 -12 
Q 831 66 488 225 
L 488 1131 
L 838 1131 
Q 869 681 1141 450 
Q 1413 219 1906 219 
Q 2384 219 2661 495 
Q 2938 772 2938 1253 
Q 2938 1803 2653 2086 
Q 2369 2369 1819 2369 
L 1522 2369 
L 1522 2688 
L 1678 2688 
Q 2225 2688 2498 2914 
Q 2772 3141 2772 3597 
Q 2772 4006 2547 4223 
Q 2322 4441 1900 4441 
Q 1478 4441 1245 4241 
Q 1013 4041 972 3647 
L 622 3647 
L 622 4469 
z
" transform="scale(0.015625)"/>
       </defs>
       <use xlink:href="#DejaVuSerif-2212"/>
       <use xlink:href="#DejaVuSerif-33" x="83.789062"/>
      </g>
     </g>
    </g>
    <g id="xtick_4">
     <g id="line2d_7">
      <path d="M 141.248389 80.95925 
L 141.248389 19.4 
" clip-path="url(#p7b7798c4f7)" style="fill: none; stroke-dasharray: 1.85,0.8; stroke-dashoffset: 0; stroke: #b0b0b0; stroke-opacity: 0.5; stroke-width: 0.5"/>
     </g>
     <g id="line2d_8">
      <g>
       <use xlink:href="#m7eb714e588" x="141.248389" y="80.95925" style="stroke: #000000; stroke-width: 0.5"/>
      </g>
     </g>
     <g id="text_4">
      <!-- −2 -->
      <g transform="translate(135.351514 90.538) scale(0.08 -0.08)">
       <defs>
        <path id="DejaVuSerif-32" d="M 819 3553 
L 469 3553 
L 469 4384 
Q 803 4563 1142 4656 
Q 1481 4750 1806 4750 
Q 2534 4750 2956 4397 
Q 3378 4044 3378 3438 
Q 3378 2753 2422 1800 
Q 2347 1728 2309 1691 
L 1131 513 
L 3078 513 
L 3078 1088 
L 3444 1088 
L 3444 0 
L 434 0 
L 434 341 
L 1850 1753 
Q 2319 2222 2519 2614 
Q 2719 3006 2719 3438 
Q 2719 3909 2473 4175 
Q 2228 4441 1797 4441 
Q 1350 4441 1106 4219 
Q 863 3997 819 3553 
z
" transform="scale(0.015625)"/>
       </defs>
       <use xlink:href="#DejaVuSerif-2212"/>
       <use xlink:href="#DejaVuSerif-32" x="83.789062"/>
      </g>
     </g>
    </g>
    <g id="xtick_5">
     <g id="line2d_9">
      <path d="M 175.021056 80.95925 
L 175.021056 19.4 
" clip-path="url(#p7b7798c4f7)" style="fill: none; stroke-dasharray: 1.85,0.8; stroke-dashoffset: 0; stroke: #b0b0b0; stroke-opacity: 0.5; stroke-width: 0.5"/>
     </g>
     <g id="line2d_10">
      <g>
       <use xlink:href="#m7eb714e588" x="175.021056" y="80.95925" style="stroke: #000000; stroke-width: 0.5"/>
      </g>
     </g>
     <g id="text_5">
      <!-- −1 -->
      <g transform="translate(169.124181 90.538) scale(0.08 -0.08)">
       <defs>
        <path id="DejaVuSerif-31" d="M 909 0 
L 909 331 
L 1722 331 
L 1722 4213 
L 781 3603 
L 781 4013 
L 1919 4750 
L 2350 4750 
L 2350 331 
L 3163 331 
L 3163 0 
L 909 0 
z
" transform="scale(0.015625)"/>
       </defs>
       <use xlink:href="#DejaVuSerif-2212"/>
       <use xlink:href="#DejaVuSerif-31" x="83.789062"/>
      </g>
     </g>
    </g>
    <g id="xtick_6">
     <g id="line2d_11">
      <path d="M 208.793723 80.95925 
L 208.793723 19.4 
" clip-path="url(#p7b7798c4f7)" style="fill: none; stroke-dasharray: 1.85,0.8; stroke-dashoffset: 0; stroke: #b0b0b0; stroke-opacity: 0.5; stroke-width: 0.5"/>
     </g>
     <g id="line2d_12">
      <g>
       <use xlink:href="#m7eb714e588" x="208.793723" y="80.95925" style="stroke: #000000; stroke-width: 0.5"/>
      </g>
     </g>
     <g id="text_6">
      <!-- 0 -->
      <g transform="translate(206.248723 90.538) scale(0.08 -0.08)">
       <defs>
        <path id="DejaVuSerif-30" d="M 2034 219 
Q 2513 219 2750 744 
Q 2988 1269 2988 2328 
Q 2988 3391 2750 3916 
Q 2513 4441 2034 4441 
Q 1556 4441 1318 3916 
Q 1081 3391 1081 2328 
Q 1081 1269 1318 744 
Q 1556 219 2034 219 
z
M 2034 -91 
Q 1275 -91 848 546 
Q 422 1184 422 2328 
Q 422 3475 848 4112 
Q 1275 4750 2034 4750 
Q 2797 4750 3222 4112 
Q 3647 3475 3647 2328 
Q 3647 1184 3222 546 
Q 2797 -91 2034 -91 
z
" transform="scale(0.015625)"/>
       </defs>
       <use xlink:href="#DejaVuSerif-30"/>
      </g>
     </g>
    </g>
    <g id="text_7">
     <!-- $v_{x}$ [m/s] -->
     <g transform="translate(121.365062 103.040344) scale(0.09 -0.09)">
      <defs>
       <path id="STIXGeneral-Italic-76" d="M 1325 448 
L 1523 653 
Q 1869 1005 2134 1456 
Q 2400 1907 2400 2131 
Q 2400 2208 2285 2317 
Q 2125 2458 2125 2605 
Q 2125 2701 2195 2761 
Q 2266 2822 2368 2822 
Q 2522 2822 2624 2704 
Q 2726 2586 2726 2445 
Q 2726 2074 2323 1453 
Q 1971 909 1562 474 
Q 1504 416 1421 326 
Q 1338 237 1299 192 
Q 1261 147 1200 86 
Q 1139 26 1110 -3 
Q 1082 -32 1043 -64 
Q 1005 -96 979 -105 
Q 954 -115 928 -115 
Q 870 -115 870 58 
L 870 211 
Q 870 1094 717 1990 
Q 653 2355 579 2470 
Q 506 2586 326 2586 
Q 198 2586 128 2579 
L 128 2662 
Q 480 2720 845 2797 
Q 915 2822 973 2822 
Q 1011 2822 1033 2739 
Q 1056 2656 1165 2093 
Q 1280 1510 1325 448 
z
" transform="scale(0.015625)"/>
       <path id="STIXGeneral-Italic-78" d="M 1555 2272 
L 1632 1907 
Q 1971 2426 2179 2624 
Q 2387 2822 2598 2822 
Q 2714 2822 2787 2755 
Q 2861 2688 2861 2585 
Q 2861 2483 2800 2419 
Q 2739 2355 2643 2355 
Q 2586 2355 2490 2409 
Q 2394 2464 2310 2464 
Q 2125 2464 1683 1690 
Q 1683 1606 1734 1402 
L 1939 544 
Q 2003 282 2131 282 
Q 2234 282 2432 538 
Q 2451 563 2476 598 
Q 2502 634 2521 662 
Q 2541 691 2566 717 
L 2662 659 
Q 2387 230 2227 80 
Q 2067 -70 1882 -70 
Q 1728 -70 1645 26 
Q 1562 122 1504 365 
L 1318 1126 
L 755 365 
Q 557 96 432 13 
Q 307 -70 147 -70 
Q 0 -70 -86 0 
Q -173 70 -173 198 
Q -173 294 -112 361 
Q -51 429 45 429 
Q 122 429 250 358 
Q 346 301 416 301 
Q 525 301 742 614 
L 1267 1357 
L 1088 2150 
Q 1024 2432 969 2509 
Q 915 2586 794 2586 
Q 717 2586 544 2541 
L 429 2509 
L 410 2611 
L 480 2637 
Q 992 2822 1229 2822 
Q 1350 2822 1420 2707 
Q 1491 2592 1555 2272 
z
" transform="scale(0.015625)"/>
       <path id="DejaVuSerif-20" transform="scale(0.015625)"/>
       <path id="DejaVuSerif-5b" d="M 550 4863 
L 2003 4863 
L 2003 4531 
L 1147 4531 
L 1147 -513 
L 2003 -513 
L 2003 -844 
L 550 -844 
L 550 4863 
z
" transform="scale(0.015625)"/>
       <path id="DejaVuSerif-6d" d="M 3316 2675 
Q 3481 3041 3739 3227 
Q 3997 3413 4341 3413 
Q 4863 3413 5119 3089 
Q 5375 2766 5375 2113 
L 5375 331 
L 5894 331 
L 5894 0 
L 4300 0 
L 4300 331 
L 4800 331 
L 4800 2047 
Q 4800 2556 4650 2772 
Q 4500 2988 4153 2988 
Q 3769 2988 3567 2697 
Q 3366 2406 3366 1850 
L 3366 331 
L 3866 331 
L 3866 0 
L 2291 0 
L 2291 331 
L 2791 331 
L 2791 2069 
Q 2791 2566 2641 2777 
Q 2491 2988 2144 2988 
Q 1759 2988 1557 2697 
Q 1356 2406 1356 1850 
L 1356 331 
L 1856 331 
L 1856 0 
L 263 0 
L 263 331 
L 781 331 
L 781 2994 
L 231 2994 
L 231 3322 
L 1356 3322 
L 1356 2731 
Q 1516 3063 1762 3238 
Q 2009 3413 2322 3413 
Q 2709 3413 2968 3220 
Q 3228 3028 3316 2675 
z
" transform="scale(0.015625)"/>
       <path id="DejaVuSerif-2f" d="M 1656 4666 
L 2156 4666 
L 500 -594 
L 0 -594 
L 1656 4666 
z
" transform="scale(0.015625)"/>
       <path id="DejaVuSerif-73" d="M 359 184 
L 359 959 
L 691 959 
Q 703 588 923 403 
Q 1144 219 1575 219 
Q 1963 219 2166 364 
Q 2369 509 2369 788 
Q 2369 1006 2220 1140 
Q 2072 1275 1594 1428 
L 1178 1569 
Q 750 1706 558 1912 
Q 366 2119 366 2438 
Q 366 2894 700 3153 
Q 1034 3413 1625 3413 
Q 1888 3413 2178 3344 
Q 2469 3275 2778 3144 
L 2778 2419 
L 2447 2419 
Q 2434 2741 2221 2922 
Q 2009 3103 1644 3103 
Q 1281 3103 1095 2975 
Q 909 2847 909 2591 
Q 909 2381 1050 2254 
Q 1191 2128 1613 1997 
L 2069 1856 
Q 2541 1709 2748 1489 
Q 2956 1269 2956 922 
Q 2956 450 2595 179 
Q 2234 -91 1600 -91 
Q 1278 -91 972 -22 
Q 666 47 359 184 
z
" transform="scale(0.015625)"/>
       <path id="DejaVuSerif-5d" d="M 1947 4863 
L 1947 -844 
L 494 -844 
L 494 -513 
L 1350 -513 
L 1350 4531 
L 494 4531 
L 494 4863 
L 1947 4863 
z
" transform="scale(0.015625)"/>
      </defs>
      <use xlink:href="#STIXGeneral-Italic-76" transform="translate(0 0.015625)"/>
      <use xlink:href="#STIXGeneral-Italic-78" transform="translate(44.399994 -13.2125) scale(0.7)"/>
      <use xlink:href="#DejaVuSerif-20" transform="translate(79.889365 0.015625)"/>
      <use xlink:href="#DejaVuSerif-5b" transform="translate(111.676474 0.015625)"/>
      <use xlink:href="#DejaVuSerif-6d" transform="translate(150.690146 0.015625)"/>
      <use xlink:href="#DejaVuSerif-2f" transform="translate(245.514365 0.015625)"/>
      <use xlink:href="#DejaVuSerif-73" transform="translate(279.205771 0.015625)"/>
      <use xlink:href="#DejaVuSerif-5d" transform="translate(330.52413 0.015625)"/>
     </g>
    </g>
   </g>
   <g id="matplotlib.axis_2">
    <g id="ytick_1">
     <g id="line2d_13">
      <path d="M 38.836562 76.074671 
L 237.193562 76.074671 
" clip-path="url(#p7b7798c4f7)" style="fill: none; stroke-dasharray: 1.85,0.8; stroke-dashoffset: 0; stroke: #b0b0b0; stroke-opacity: 0.5; stroke-width: 0.5"/>
     </g>
     <g id="line2d_14">
      <defs>
       <path id="m50b3cbf3d5" d="M 0 0 
L 3 0 
" style="stroke: #000000; stroke-width: 0.5"/>
      </defs>
      <g>
       <use xlink:href="#m50b3cbf3d5" x="38.836562" y="76.074671" style="stroke: #000000; stroke-width: 0.5"/>
      </g>
     </g>
     <g id="text_8">
      <!-- 0.0 -->
      <g transform="translate(22.614062 79.114046) scale(0.08 -0.08)">
       <defs>
        <path id="DejaVuSerif-2e" d="M 603 325 
Q 603 500 722 622 
Q 841 744 1019 744 
Q 1191 744 1312 622 
Q 1434 500 1434 325 
Q 1434 153 1312 31 
Q 1191 -91 1019 -91 
Q 841 -91 722 29 
Q 603 150 603 325 
z
" transform="scale(0.015625)"/>
       </defs>
       <use xlink:href="#DejaVuSerif-30"/>
       <use xlink:href="#DejaVuSerif-2e" x="63.623047"/>
       <use xlink:href="#DejaVuSerif-30" x="95.410156"/>
      </g>
     </g>
    </g>
    <g id="ytick_2">
     <g id="line2d_15">
      <path d="M 38.836562 50.150887 
L 237.193562 50.150887 
" clip-path="url(#p7b7798c4f7)" style="fill: none; stroke-dasharray: 1.85,0.8; stroke-dashoffset: 0; stroke: #b0b0b0; stroke-opacity: 0.5; stroke-width: 0.5"/>
     </g>
     <g id="line2d_16">
      <g>
       <use xlink:href="#m50b3cbf3d5" x="38.836562" y="50.150887" style="stroke: #000000; stroke-width: 0.5"/>
      </g>
     </g>
     <g id="text_9">
      <!-- 2.0 -->
      <g transform="translate(22.614062 53.190262) scale(0.08 -0.08)">
       <use xlink:href="#DejaVuSerif-32"/>
       <use xlink:href="#DejaVuSerif-2e" x="63.623047"/>
       <use xlink:href="#DejaVuSerif-30" x="95.410156"/>
      </g>
     </g>
    </g>
    <g id="ytick_3">
     <g id="line2d_17">
      <path d="M 38.836562 24.227102 
L 237.193562 24.227102 
" clip-path="url(#p7b7798c4f7)" style="fill: none; stroke-dasharray: 1.85,0.8; stroke-dashoffset: 0; stroke: #b0b0b0; stroke-opacity: 0.5; stroke-width: 0.5"/>
     </g>
     <g id="line2d_18">
      <g>
       <use xlink:href="#m50b3cbf3d5" x="38.836562" y="24.227102" style="stroke: #000000; stroke-width: 0.5"/>
      </g>
     </g>
     <g id="text_10">
      <!-- 4.0 -->
      <g transform="translate(22.614062 27.266477) scale(0.08 -0.08)">
       <use xlink:href="#DejaVuSerif-34"/>
       <use xlink:href="#DejaVuSerif-2e" x="63.623047"/>
       <use xlink:href="#DejaVuSerif-30" x="95.410156"/>
      </g>
     </g>
    </g>
    <g id="text_11">
     <!-- $\Delta a_{x}$ [m/s²] -->
     <g transform="translate(16.742344 72.139625) rotate(-90) scale(0.09 -0.09)">
      <defs>
       <path id="STIXGeneral-Regular-394" d="M 4320 0 
L 307 0 
L 2221 4314 
L 2349 4314 
L 4320 0 
z
M 3354 589 
L 2118 3405 
L 870 589 
L 3354 589 
z
" transform="scale(0.015625)"/>
       <path id="STIXGeneral-Italic-61" d="M 2963 710 
L 3046 640 
Q 2688 205 2518 70 
Q 2349 -64 2157 -64 
Q 1901 -64 1901 198 
Q 1901 358 2048 934 
Q 1690 397 1389 163 
Q 1088 -70 749 -70 
Q 467 -70 288 125 
Q 109 320 109 672 
Q 109 1158 387 1664 
Q 666 2170 1094 2496 
Q 1523 2822 1939 2822 
Q 2368 2822 2451 2451 
L 2522 2758 
L 2541 2778 
L 2931 2822 
L 2976 2803 
Q 2970 2778 2938 2669 
Q 2368 595 2368 346 
Q 2368 262 2458 262 
Q 2554 262 2790 525 
L 2963 710 
z
M 2336 2310 
Q 2336 2477 2240 2579 
Q 2144 2682 1978 2682 
Q 1542 2682 1139 2093 
Q 928 1779 787 1395 
Q 646 1011 646 717 
Q 646 243 1030 243 
Q 1408 243 1843 870 
Q 2336 1581 2336 2310 
z
" transform="scale(0.015625)"/>
       <path id="DejaVuSerif-b2" d="M 531 4050 
L 313 4050 
L 313 4544 
Q 519 4644 737 4697 
Q 956 4750 1172 4750 
Q 1603 4750 1870 4544 
Q 2138 4338 2138 4013 
Q 2138 3631 1531 3088 
L 1472 3034 
L 728 2363 
L 1931 2363 
L 1931 2700 
L 2163 2700 
L 2163 2088 
L 281 2088 
L 281 2322 
L 1172 3116 
Q 1441 3356 1556 3547 
Q 1672 3738 1672 3944 
Q 1672 4209 1520 4364 
Q 1369 4519 1106 4519 
Q 863 4519 716 4400 
Q 569 4281 531 4050 
z
" transform="scale(0.015625)"/>
      </defs>
      <use xlink:href="#STIXGeneral-Regular-394" transform="translate(0 0.015625)"/>
      <use xlink:href="#STIXGeneral-Italic-61" transform="translate(72.199982 0.015625)"/>
      <use xlink:href="#STIXGeneral-Italic-78" transform="translate(122.299973 -13.2125) scale(0.7)"/>
      <use xlink:href="#DejaVuSerif-20" transform="translate(157.789343 0.015625)"/>
      <use xlink:href="#DejaVuSerif-5b" transform="translate(189.576453 0.015625)"/>
      <use xlink:href="#DejaVuSerif-6d" transform="translate(228.590125 0.015625)"/>
      <use xlink:href="#DejaVuSerif-2f" transform="translate(323.414343 0.015625)"/>
      <use xlink:href="#DejaVuSerif-73" transform="translate(357.10575 0.015625)"/>
      <use xlink:href="#DejaVuSerif-b2" transform="translate(408.424109 0.015625)"/>
      <use xlink:href="#DejaVuSerif-5d" transform="translate(448.512 0.015625)"/>
     </g>
    </g>
   </g>
   <g id="PolyCollection_1">
    <defs>
     <path id="m85089a5ade" d="M 47.85279 -274.591665 
L 47.85279 -266.648514 
L 48.758943 -266.41517 
L 49.665097 -266.177256 
L 50.57125 -265.930843 
L 51.477404 -265.678933 
L 52.383557 -265.419742 
L 53.289711 -265.153811 
L 54.195864 -264.880493 
L 55.102018 -264.601879 
L 56.008171 -264.315703 
L 56.914325 -264.020654 
L 57.820478 -263.720695 
L 58.726632 -263.413202 
L 59.632785 -263.098297 
L 60.538939 -262.775584 
L 61.445092 -262.447175 
L 62.351246 -262.11167 
L 63.257399 -261.768338 
L 64.163553 -261.417675 
L 65.069706 -261.060548 
L 65.97586 -260.696306 
L 66.882013 -260.324304 
L 67.788167 -259.948409 
L 68.69432 -259.565563 
L 69.600474 -259.177149 
L 70.506627 -258.783076 
L 71.412781 -258.381175 
L 72.318934 -257.978607 
L 73.225088 -257.567469 
L 74.131241 -257.157243 
L 75.037395 -256.741785 
L 75.943548 -256.322015 
L 76.849702 -255.90186 
L 77.755855 -255.480289 
L 78.662009 -255.054688 
L 79.568162 -254.63045 
L 80.474316 -254.20497 
L 81.380469 -253.779199 
L 82.286623 -253.353441 
L 83.192776 -252.928681 
L 84.09893 -252.504996 
L 85.005083 -252.081392 
L 85.911237 -251.660127 
L 86.81739 -251.23965 
L 87.723544 -250.822542 
L 88.629697 -250.407321 
L 89.535851 -249.994474 
L 90.442004 -249.584446 
L 91.348158 -249.176436 
L 92.254311 -248.770987 
L 93.160465 -248.36879 
L 94.066618 -247.968304 
L 94.972771 -247.572649 
L 95.878925 -247.177559 
L 96.785078 -246.790359 
L 97.691232 -246.403444 
L 98.597385 -246.02342 
L 99.503539 -245.641843 
L 100.409692 -245.269398 
L 101.315846 -244.895342 
L 102.221999 -244.526986 
L 103.128153 -244.163639 
L 104.034306 -243.802759 
L 104.94046 -243.447559 
L 105.846613 -243.092838 
L 106.752767 -242.744901 
L 107.65892 -242.400143 
L 108.565074 -242.057631 
L 109.471227 -241.718318 
L 110.377381 -241.386597 
L 111.283534 -241.055061 
L 112.189688 -240.727722 
L 113.095841 -240.405659 
L 114.001995 -240.085103 
L 114.908148 -239.770373 
L 115.814302 -239.458986 
L 116.720455 -239.150604 
L 117.626609 -238.844809 
L 118.532762 -238.54325 
L 119.438916 -238.245019 
L 120.345069 -237.949511 
L 121.251223 -237.656768 
L 122.157376 -237.368521 
L 123.06353 -237.085432 
L 123.969683 -236.801135 
L 124.875837 -236.522836 
L 125.78199 -236.247984 
L 126.688144 -235.973551 
L 127.594297 -235.70253 
L 128.500451 -235.433277 
L 129.406604 -235.170926 
L 130.312758 -234.906547 
L 131.218911 -234.649085 
L 132.125065 -234.390832 
L 133.031218 -234.135955 
L 133.937372 -233.883547 
L 134.843525 -233.634323 
L 135.749679 -233.385874 
L 136.655832 -233.141356 
L 137.561986 -232.897772 
L 138.468139 -232.65549 
L 139.374293 -232.415292 
L 140.280446 -232.176644 
L 141.1866 -231.940487 
L 142.092753 -231.708993 
L 142.998907 -231.475896 
L 143.90506 -231.244749 
L 144.811214 -231.016425 
L 145.717367 -230.789646 
L 146.623521 -230.56408 
L 147.529674 -230.340604 
L 148.435828 -230.12012 
L 149.341981 -229.900763 
L 150.248135 -229.683279 
L 151.154288 -229.467719 
L 152.060442 -229.253866 
L 152.966595 -229.044049 
L 153.872749 -228.83418 
L 154.778902 -228.62775 
L 155.685056 -228.423437 
L 156.591209 -228.220915 
L 157.497363 -228.021196 
L 158.403516 -227.825218 
L 159.30967 -227.630812 
L 160.215823 -227.43767 
L 161.121977 -227.248795 
L 162.02813 -227.06185 
L 162.934284 -226.876251 
L 163.840437 -226.695523 
L 164.746591 -226.516946 
L 165.652744 -226.340743 
L 166.558898 -226.167445 
L 167.465051 -225.997237 
L 168.371205 -225.829596 
L 169.277358 -225.665747 
L 170.183512 -225.502105 
L 171.089665 -225.343852 
L 171.995819 -225.187092 
L 172.901972 -225.032485 
L 173.808126 -224.883586 
L 174.714279 -224.734999 
L 175.620433 -224.590875 
L 176.526586 -224.449059 
L 177.43274 -224.308419 
L 178.338893 -224.173073 
L 179.245047 -224.038675 
L 180.1512 -223.908135 
L 181.057354 -223.779789 
L 181.963507 -223.656586 
L 182.86966 -223.534482 
L 183.775814 -223.415328 
L 184.681967 -223.299239 
L 185.588121 -223.186176 
L 186.494274 -223.075497 
L 187.400428 -222.96811 
L 188.306581 -222.864128 
L 189.212735 -222.762305 
L 190.118888 -222.664 
L 191.025042 -222.56815 
L 191.931195 -222.476129 
L 192.837349 -222.384287 
L 193.743502 -222.296839 
L 194.649656 -222.211268 
L 195.555809 -222.127169 
L 196.461963 -222.046314 
L 197.368116 -221.967379 
L 198.27427 -221.88919 
L 199.180423 -221.813346 
L 200.086577 -221.73826 
L 200.99273 -221.663614 
L 201.898884 -221.589586 
L 202.805037 -221.515354 
L 203.711191 -221.442186 
L 204.617344 -221.36757 
L 205.523498 -221.292521 
L 206.429651 -221.216821 
L 207.335805 -221.138476 
L 208.241958 -221.058916 
L 209.148112 -220.977791 
L 210.054265 -220.893364 
L 210.960419 -220.807502 
L 211.866572 -220.718349 
L 212.772726 -220.626537 
L 213.678879 -220.530724 
L 214.585033 -220.432849 
L 215.491186 -220.332678 
L 216.39734 -220.228599 
L 217.303493 -220.122252 
L 218.209647 -220.011502 
L 219.1158 -219.898302 
L 220.021954 -219.783845 
L 220.928107 -219.665312 
L 221.834261 -219.544212 
L 222.740414 -219.421218 
L 223.646568 -219.294339 
L 224.552721 -219.166048 
L 225.458875 -219.03487 
L 226.365028 -218.901068 
L 227.271182 -218.765685 
L 228.177335 -218.62871 
L 228.177335 -226.140935 
L 228.177335 -226.140935 
L 227.271182 -225.997305 
L 226.365028 -225.859502 
L 225.458875 -225.72812 
L 224.552721 -225.602993 
L 223.646568 -225.484381 
L 222.740414 -225.373234 
L 221.834261 -225.267181 
L 220.928107 -225.169073 
L 220.021954 -225.07837 
L 219.1158 -224.992954 
L 218.209647 -224.916057 
L 217.303493 -224.847054 
L 216.39734 -224.784269 
L 215.491186 -224.730408 
L 214.585033 -224.682876 
L 213.678879 -224.643688 
L 212.772726 -224.612008 
L 211.866572 -224.587959 
L 210.960419 -224.57262 
L 210.054265 -224.562994 
L 209.148112 -224.561455 
L 208.241958 -224.567455 
L 207.335805 -224.579255 
L 206.429651 -224.598926 
L 205.523498 -224.62487 
L 204.617344 -224.657516 
L 203.711191 -224.696042 
L 202.805037 -224.739646 
L 201.898884 -224.789445 
L 200.99273 -224.844289 
L 200.086577 -224.90396 
L 199.180423 -224.967425 
L 198.27427 -225.036185 
L 197.368116 -225.108648 
L 196.461963 -225.184602 
L 195.555809 -225.26408 
L 194.649656 -225.34818 
L 193.743502 -225.434438 
L 192.837349 -225.524869 
L 191.931195 -225.618773 
L 191.025042 -225.714916 
L 190.118888 -225.813281 
L 189.212735 -225.915242 
L 188.306581 -226.020945 
L 187.400428 -226.128119 
L 186.494274 -226.239149 
L 185.588121 -226.352331 
L 184.681967 -226.468576 
L 183.775814 -226.587844 
L 182.86966 -226.709493 
L 181.963507 -226.833637 
L 181.057354 -226.960917 
L 180.1512 -227.091525 
L 179.245047 -227.224779 
L 178.338893 -227.361436 
L 177.43274 -227.500168 
L 176.526586 -227.643288 
L 175.620433 -227.788258 
L 174.714279 -227.935758 
L 173.808126 -228.087268 
L 172.901972 -228.240884 
L 171.995819 -228.399079 
L 171.089665 -228.558751 
L 170.183512 -228.722375 
L 169.277358 -228.888476 
L 168.371205 -229.056789 
L 167.465051 -229.229781 
L 166.558898 -229.404441 
L 165.652744 -229.580851 
L 164.746591 -229.762828 
L 163.840437 -229.946059 
L 162.934284 -230.130771 
L 162.02813 -230.319687 
L 161.121977 -230.511491 
L 160.215823 -230.704997 
L 159.30967 -230.899681 
L 158.403516 -231.099149 
L 157.497363 -231.298863 
L 156.591209 -231.502095 
L 155.685056 -231.706154 
L 154.778902 -231.912659 
L 153.872749 -232.121281 
L 152.966595 -232.333119 
L 152.060442 -232.546218 
L 151.154288 -232.760729 
L 150.248135 -232.977162 
L 149.341981 -233.195301 
L 148.435828 -233.416406 
L 147.529674 -233.638201 
L 146.623521 -233.861239 
L 145.717367 -234.087025 
L 144.811214 -234.314023 
L 143.90506 -234.544311 
L 142.998907 -234.774802 
L 142.092753 -235.006372 
L 141.1866 -235.241358 
L 140.280446 -235.477732 
L 139.374293 -235.714637 
L 138.468139 -235.954835 
L 137.561986 -236.195369 
L 136.655832 -236.440045 
L 135.749679 -236.684999 
L 134.843525 -236.933884 
L 133.937372 -237.184418 
L 133.031218 -237.436606 
L 132.125065 -237.689957 
L 131.218911 -237.945373 
L 130.312758 -238.207635 
L 129.406604 -238.467214 
L 128.500451 -238.733057 
L 127.594297 -238.999254 
L 126.688144 -239.268529 
L 125.78199 -239.541649 
L 124.875837 -239.817375 
L 123.969683 -240.098733 
L 123.06353 -240.379535 
L 122.157376 -240.666991 
L 121.251223 -240.956548 
L 120.345069 -241.246454 
L 119.438916 -241.543272 
L 118.532762 -241.842811 
L 117.626609 -242.14568 
L 116.720455 -242.452782 
L 115.814302 -242.763346 
L 114.908148 -243.077564 
L 114.001995 -243.397513 
L 113.095841 -243.718289 
L 112.189688 -244.043609 
L 111.283534 -244.373337 
L 110.377381 -244.705522 
L 109.471227 -245.044177 
L 108.565074 -245.383707 
L 107.65892 -245.727303 
L 106.752767 -246.075307 
L 105.846613 -246.427997 
L 104.94046 -246.780557 
L 104.034306 -247.140506 
L 103.128153 -247.502031 
L 102.221999 -247.86775 
L 101.315846 -248.236325 
L 100.409692 -248.605851 
L 99.503539 -248.983038 
L 98.597385 -249.358359 
L 97.691232 -249.739465 
L 96.785078 -250.123358 
L 95.878925 -250.511207 
L 94.972771 -250.897211 
L 94.066618 -251.288101 
L 93.160465 -251.681416 
L 92.254311 -252.076654 
L 91.348158 -252.474686 
L 90.442004 -252.87439 
L 89.535851 -253.276315 
L 88.629697 -253.681473 
L 87.723544 -254.087886 
L 86.81739 -254.494833 
L 85.911237 -254.904457 
L 85.005083 -255.315715 
L 84.09893 -255.727057 
L 83.192776 -256.141341 
L 82.286623 -256.557571 
L 81.380469 -256.975233 
L 80.474316 -257.394687 
L 79.568162 -257.815649 
L 78.662009 -258.239665 
L 77.755855 -258.664134 
L 76.849702 -259.092028 
L 75.943548 -259.522549 
L 75.037395 -259.954667 
L 74.131241 -260.388673 
L 73.225088 -260.829723 
L 72.318934 -261.269867 
L 71.412781 -261.716763 
L 70.506627 -262.164327 
L 69.600474 -262.617302 
L 68.69432 -263.074718 
L 67.788167 -263.535892 
L 66.882013 -264.000993 
L 65.97586 -264.470588 
L 65.069706 -264.943716 
L 64.163553 -265.421528 
L 63.257399 -265.903994 
L 62.351246 -266.389557 
L 61.445092 -266.879314 
L 60.538939 -267.374355 
L 59.632785 -267.872669 
L 58.726632 -268.373952 
L 57.820478 -268.876595 
L 56.914325 -269.384356 
L 56.008171 -269.895211 
L 55.102018 -270.408281 
L 54.195864 -270.925891 
L 53.289711 -271.442747 
L 52.383557 -271.962748 
L 51.477404 -272.485257 
L 50.57125 -273.009001 
L 49.665097 -273.535214 
L 48.758943 -274.062664 
L 47.85279 -274.591665 
z
" style="stroke: #e74c3c; stroke-opacity: 0.2"/>
    </defs>
    <g clip-path="url(#p7b7798c4f7)">
     <use xlink:href="#m85089a5ade" x="0" y="296.789812" style="fill: #e74c3c; fill-opacity: 0.2; stroke: #e74c3c; stroke-opacity: 0.2"/>
    </g>
   </g>
   <g id="line2d_19">
    <path d="M 38.836562 76.074671 
L 237.193562 76.074671 
" clip-path="url(#p7b7798c4f7)" style="fill: none; stroke-dasharray: 3.7,1.6; stroke-dashoffset: 0; stroke: #000000; stroke-opacity: 0.7"/>
   </g>
   <g id="patch_3">
    <path d="M 38.836562 80.95925 
L 38.836562 19.4 
" style="fill: none; stroke: #000000; stroke-width: 0.5; stroke-linejoin: miter; stroke-linecap: square"/>
   </g>
   <g id="patch_4">
    <path d="M 237.193562 80.95925 
L 237.193562 19.4 
" style="fill: none; stroke: #000000; stroke-width: 0.5; stroke-linejoin: miter; stroke-linecap: square"/>
   </g>
   <g id="patch_5">
    <path d="M 38.836562 80.95925 
L 237.193562 80.95925 
" style="fill: none; stroke: #000000; stroke-width: 0.5; stroke-linejoin: miter; stroke-linecap: square"/>
   </g>
   <g id="patch_6">
    <path d="M 38.836562 19.4 
L 237.193562 19.4 
" style="fill: none; stroke: #000000; stroke-width: 0.5; stroke-linejoin: miter; stroke-linecap: square"/>
   </g>
   <g id="line2d_20">
    <path d="M 47.85279 26.169725 
L 56.914325 30.087307 
L 67.788167 35.047662 
L 93.160465 46.764709 
L 101.315846 50.22398 
L 108.565074 53.069144 
L 115.814302 55.678646 
L 123.06353 58.057329 
L 131.218911 60.492583 
L 140.280446 62.962625 
L 150.248135 65.459592 
L 159.30967 67.524566 
L 167.465051 69.176303 
L 175.620433 70.600246 
L 183.775814 71.788226 
L 191.931195 72.742362 
L 200.086577 73.468703 
L 208.241958 73.976627 
L 217.303493 74.305159 
L 226.365028 74.409527 
L 228.177335 74.40499 
L 228.177335 74.40499 
" clip-path="url(#p7b7798c4f7)" style="fill: none; stroke: #e74c3c; stroke-width: 2; stroke-linecap: square"/>
   </g>
   <g id="PathCollection_1">
    <defs>
     <path id="m6d5c143c23" d="M 0 2.236068 
C 0.593012 2.236068 1.161816 2.000462 1.581139 1.581139 
C 2.000462 1.161816 2.236068 0.593012 2.236068 0 
C 2.236068 -0.593012 2.000462 -1.161816 1.581139 -1.581139 
C 1.161816 -2.000462 0.593012 -2.236068 0 -2.236068 
C -0.593012 -2.236068 -1.161816 -2.000462 -1.581139 -1.581139 
C -2.000462 -1.161816 -2.236068 -0.593012 -2.236068 0 
C -2.236068 0.593012 -2.000462 1.161816 -1.581139 1.581139 
C -1.161816 2.000462 -0.593012 2.236068 0 2.236068 
z
" style="stroke: #3498db; stroke-opacity: 0.8"/>
    </defs>
    <g clip-path="url(#p7b7798c4f7)">
     <use xlink:href="#m6d5c143c23" x="193.440103" y="72.985598" style="fill: #a9bbf1; fill-opacity: 0.8; stroke: #3498db; stroke-opacity: 0.8"/>
     <use xlink:href="#m6d5c143c23" x="197.672668" y="73.353018" style="fill: #a9bbf1; fill-opacity: 0.8; stroke: #3498db; stroke-opacity: 0.8"/>
     <use xlink:href="#m6d5c143c23" x="201.425501" y="73.5993" style="fill: #a9bbf1; fill-opacity: 0.8; stroke: #3498db; stroke-opacity: 0.8"/>
     <use xlink:href="#m6d5c143c23" x="204.661797" y="73.760435" style="fill: #a9bbf1; fill-opacity: 0.8; stroke: #3498db; stroke-opacity: 0.8"/>
     <use xlink:href="#m6d5c143c23" x="207.370657" y="73.836146" style="fill: #a9bbf1; fill-opacity: 0.8; stroke: #3498db; stroke-opacity: 0.8"/>
     <use xlink:href="#m6d5c143c23" x="68.659468" y="35.458312" style="fill: #a9bbf1; fill-opacity: 0.8; stroke: #3498db; stroke-opacity: 0.8"/>
     <use xlink:href="#m6d5c143c23" x="74.294311" y="38.314411" style="fill: #a9bbf1; fill-opacity: 0.8; stroke: #3498db; stroke-opacity: 0.8"/>
     <use xlink:href="#m6d5c143c23" x="84.268527" y="42.881393" style="fill: #a9bbf1; fill-opacity: 0.8; stroke: #3498db; stroke-opacity: 0.8"/>
     <use xlink:href="#m6d5c143c23" x="95.641013" y="48.046843" style="fill: #a9bbf1; fill-opacity: 0.8; stroke: #3498db; stroke-opacity: 0.8"/>
     <use xlink:href="#m6d5c143c23" x="110.046" y="53.792122" style="fill: #a9bbf1; fill-opacity: 0.8; stroke: #3498db; stroke-opacity: 0.8"/>
     <use xlink:href="#m6d5c143c23" x="128.051074" y="59.837877" style="fill: #a9bbf1; fill-opacity: 0.8; stroke: #3498db; stroke-opacity: 0.8"/>
     <use xlink:href="#m6d5c143c23" x="147.54043" y="65.72196" style="fill: #a9bbf1; fill-opacity: 0.8; stroke: #3498db; stroke-opacity: 0.8"/>
     <use xlink:href="#m6d5c143c23" x="164.907481" y="69.064574" style="fill: #a9bbf1; fill-opacity: 0.8; stroke: #3498db; stroke-opacity: 0.8"/>
     <use xlink:href="#m6d5c143c23" x="178.358255" y="71.360119" style="fill: #a9bbf1; fill-opacity: 0.8; stroke: #3498db; stroke-opacity: 0.8"/>
     <use xlink:href="#m6d5c143c23" x="188.816335" y="72.557051" style="fill: #a9bbf1; fill-opacity: 0.8; stroke: #3498db; stroke-opacity: 0.8"/>
     <use xlink:href="#m6d5c143c23" x="79.084534" y="40.571177" style="fill: #a9bbf1; fill-opacity: 0.8; stroke: #3498db; stroke-opacity: 0.8"/>
     <use xlink:href="#m6d5c143c23" x="181.065291" y="70.526518" style="fill: #a9bbf1; fill-opacity: 0.8; stroke: #3498db; stroke-opacity: 0.8"/>
     <use xlink:href="#m6d5c143c23" x="118.678019" y="56.890049" style="fill: #a9bbf1; fill-opacity: 0.8; stroke: #3498db; stroke-opacity: 0.8"/>
     <use xlink:href="#m6d5c143c23" x="143.805991" y="61.949199" style="fill: #a9bbf1; fill-opacity: 0.8; stroke: #3498db; stroke-opacity: 0.8"/>
     <use xlink:href="#m6d5c143c23" x="172.121078" y="70.367309" style="fill: #a9bbf1; fill-opacity: 0.8; stroke: #3498db; stroke-opacity: 0.8"/>
     <use xlink:href="#m6d5c143c23" x="74.330652" y="37.234707" style="fill: #a9bbf1; fill-opacity: 0.8; stroke: #3498db; stroke-opacity: 0.8"/>
    </g>
   </g>
   <g id="PathCollection_2">
    <defs>
     <path id="m3ae1db24d9" d="M 0 2.738613 
C 0.726289 2.738613 1.422928 2.450055 1.936492 1.936492 
C 2.450055 1.422928 2.738613 0.726289 2.738613 0 
C 2.738613 -0.726289 2.450055 -1.422928 1.936492 -1.936492 
C 1.422928 -2.450055 0.726289 -2.738613 0 -2.738613 
C -0.726289 -2.738613 -1.422928 -2.450055 -1.936492 -1.936492 
C -2.450055 -1.422928 -2.738613 -0.726289 -2.738613 0 
C -2.738613 0.726289 -2.450055 1.422928 -1.936492 1.936492 
C -1.422928 2.450055 -0.726289 2.738613 0 2.738613 
z
" style="stroke: #d62728; stroke-opacity: 0.8"/>
    </defs>
    <g clip-path="url(#p7b7798c4f7)">
     <use xlink:href="#m3ae1db24d9" x="100.600865" y="49.930995" style="fill: #ffffff; fill-opacity: 0.8; stroke: #d62728; stroke-opacity: 0.8"/>
     <use xlink:href="#m3ae1db24d9" x="70.3182" y="36.227776" style="fill: #ffffff; fill-opacity: 0.8; stroke: #d62728; stroke-opacity: 0.8"/>
     <use xlink:href="#m3ae1db24d9" x="60.24194" y="31.57977" style="fill: #ffffff; fill-opacity: 0.8; stroke: #d62728; stroke-opacity: 0.8"/>
     <use xlink:href="#m3ae1db24d9" x="73.564207" y="37.749733" style="fill: #ffffff; fill-opacity: 0.8; stroke: #d62728; stroke-opacity: 0.8"/>
     <use xlink:href="#m3ae1db24d9" x="97.269413" y="48.538815" style="fill: #ffffff; fill-opacity: 0.8; stroke: #d62728; stroke-opacity: 0.8"/>
     <use xlink:href="#m3ae1db24d9" x="124.74153" y="58.577808" style="fill: #ffffff; fill-opacity: 0.8; stroke: #d62728; stroke-opacity: 0.8"/>
     <use xlink:href="#m3ae1db24d9" x="149.810714" y="65.354922" style="fill: #ffffff; fill-opacity: 0.8; stroke: #d62728; stroke-opacity: 0.8"/>
     <use xlink:href="#m3ae1db24d9" x="168.143026" y="69.303965" style="fill: #ffffff; fill-opacity: 0.8; stroke: #d62728; stroke-opacity: 0.8"/>
     <use xlink:href="#m3ae1db24d9" x="181.532866" y="71.486013" style="fill: #ffffff; fill-opacity: 0.8; stroke: #d62728; stroke-opacity: 0.8"/>
     <use xlink:href="#m3ae1db24d9" x="192.020422" y="72.752723" style="fill: #ffffff; fill-opacity: 0.8; stroke: #d62728; stroke-opacity: 0.8"/>
     <use xlink:href="#m3ae1db24d9" x="200.183634" y="73.476417" style="fill: #ffffff; fill-opacity: 0.8; stroke: #d62728; stroke-opacity: 0.8"/>
    </g>
   </g>
  </g>
  <g id="axes_2">
   <g id="patch_7">
    <path d="M 38.836562 173.298125 
L 237.193562 173.298125 
L 237.193562 111.738875 
L 38.836562 111.738875 
z
" style="fill: #ffffff"/>
   </g>
   <g id="matplotlib.axis_3">
    <g id="xtick_7">
     <g id="line2d_21">
      <path d="M 52.755275 173.298125 
L 52.755275 111.738875 
" clip-path="url(#pa384f03067)" style="fill: none; stroke-dasharray: 1.85,0.8; stroke-dashoffset: 0; stroke: #b0b0b0; stroke-opacity: 0.5; stroke-width: 0.5"/>
     </g>
     <g id="line2d_22">
      <g>
       <use xlink:href="#m7eb714e588" x="52.755275" y="173.298125" style="stroke: #000000; stroke-width: 0.5"/>
      </g>
     </g>
     <g id="text_12">
      <!-- −8 -->
      <g transform="translate(46.8584 182.876875) scale(0.08 -0.08)">
       <defs>
        <path id="DejaVuSerif-38" d="M 2981 1275 
Q 2981 1775 2732 2051 
Q 2484 2328 2034 2328 
Q 1584 2328 1336 2051 
Q 1088 1775 1088 1275 
Q 1088 772 1336 495 
Q 1584 219 2034 219 
Q 2484 219 2732 495 
Q 2981 772 2981 1275 
z
M 2853 3541 
Q 2853 3966 2637 4203 
Q 2422 4441 2034 4441 
Q 1650 4441 1433 4203 
Q 1216 3966 1216 3541 
Q 1216 3113 1433 2875 
Q 1650 2638 2034 2638 
Q 2422 2638 2637 2875 
Q 2853 3113 2853 3541 
z
M 2516 2484 
Q 3047 2413 3344 2092 
Q 3641 1772 3641 1275 
Q 3641 619 3225 264 
Q 2809 -91 2034 -91 
Q 1263 -91 845 264 
Q 428 619 428 1275 
Q 428 1772 725 2092 
Q 1022 2413 1556 2484 
Q 1084 2569 832 2842 
Q 581 3116 581 3541 
Q 581 4103 968 4426 
Q 1356 4750 2034 4750 
Q 2713 4750 3100 4426 
Q 3488 4103 3488 3541 
Q 3488 3116 3236 2842 
Q 2984 2569 2516 2484 
z
" transform="scale(0.015625)"/>
       </defs>
       <use xlink:href="#DejaVuSerif-2212"/>
       <use xlink:href="#DejaVuSerif-38" x="83.789062"/>
      </g>
     </g>
    </g>
    <g id="xtick_8">
     <g id="line2d_23">
      <path d="M 90.884403 173.298125 
L 90.884403 111.738875 
" clip-path="url(#pa384f03067)" style="fill: none; stroke-dasharray: 1.85,0.8; stroke-dashoffset: 0; stroke: #b0b0b0; stroke-opacity: 0.5; stroke-width: 0.5"/>
     </g>
     <g id="line2d_24">
      <g>
       <use xlink:href="#m7eb714e588" x="90.884403" y="173.298125" style="stroke: #000000; stroke-width: 0.5"/>
      </g>
     </g>
     <g id="text_13">
      <!-- −6 -->
      <g transform="translate(84.987528 182.876875) scale(0.08 -0.08)">
       <defs>
        <path id="DejaVuSerif-36" d="M 2094 219 
Q 2534 219 2771 542 
Q 3009 866 3009 1472 
Q 3009 2078 2771 2401 
Q 2534 2725 2094 2725 
Q 1647 2725 1412 2412 
Q 1178 2100 1178 1509 
Q 1178 888 1415 553 
Q 1653 219 2094 219 
z
M 1075 2569 
Q 1288 2803 1556 2918 
Q 1825 3034 2163 3034 
Q 2859 3034 3264 2615 
Q 3669 2197 3669 1472 
Q 3669 763 3233 336 
Q 2797 -91 2069 -91 
Q 1278 -91 853 498 
Q 428 1088 428 2181 
Q 428 3406 931 4078 
Q 1434 4750 2350 4750 
Q 2597 4750 2869 4703 
Q 3141 4656 3425 4563 
L 3425 3794 
L 3072 3794 
Q 3034 4109 2831 4275 
Q 2628 4441 2284 4441 
Q 1678 4441 1381 3981 
Q 1084 3522 1075 2569 
z
" transform="scale(0.015625)"/>
       </defs>
       <use xlink:href="#DejaVuSerif-2212"/>
       <use xlink:href="#DejaVuSerif-36" x="83.789062"/>
      </g>
     </g>
    </g>
    <g id="xtick_9">
     <g id="line2d_25">
      <path d="M 129.01353 173.298125 
L 129.01353 111.738875 
" clip-path="url(#pa384f03067)" style="fill: none; stroke-dasharray: 1.85,0.8; stroke-dashoffset: 0; stroke: #b0b0b0; stroke-opacity: 0.5; stroke-width: 0.5"/>
     </g>
     <g id="line2d_26">
      <g>
       <use xlink:href="#m7eb714e588" x="129.01353" y="173.298125" style="stroke: #000000; stroke-width: 0.5"/>
      </g>
     </g>
     <g id="text_14">
      <!-- −4 -->
      <g transform="translate(123.116655 182.876875) scale(0.08 -0.08)">
       <use xlink:href="#DejaVuSerif-2212"/>
       <use xlink:href="#DejaVuSerif-34" x="83.789062"/>
      </g>
     </g>
    </g>
    <g id="xtick_10">
     <g id="line2d_27">
      <path d="M 167.142657 173.298125 
L 167.142657 111.738875 
" clip-path="url(#pa384f03067)" style="fill: none; stroke-dasharray: 1.85,0.8; stroke-dashoffset: 0; stroke: #b0b0b0; stroke-opacity: 0.5; stroke-width: 0.5"/>
     </g>
     <g id="line2d_28">
      <g>
       <use xlink:href="#m7eb714e588" x="167.142657" y="173.298125" style="stroke: #000000; stroke-width: 0.5"/>
      </g>
     </g>
     <g id="text_15">
      <!-- −2 -->
      <g transform="translate(161.245782 182.876875) scale(0.08 -0.08)">
       <use xlink:href="#DejaVuSerif-2212"/>
       <use xlink:href="#DejaVuSerif-32" x="83.789062"/>
      </g>
     </g>
    </g>
    <g id="xtick_11">
     <g id="line2d_29">
      <path d="M 205.271785 173.298125 
L 205.271785 111.738875 
" clip-path="url(#pa384f03067)" style="fill: none; stroke-dasharray: 1.85,0.8; stroke-dashoffset: 0; stroke: #b0b0b0; stroke-opacity: 0.5; stroke-width: 0.5"/>
     </g>
     <g id="line2d_30">
      <g>
       <use xlink:href="#m7eb714e588" x="205.271785" y="173.298125" style="stroke: #000000; stroke-width: 0.5"/>
      </g>
     </g>
     <g id="text_16">
      <!-- 0 -->
      <g transform="translate(202.726785 182.876875) scale(0.08 -0.08)">
       <use xlink:href="#DejaVuSerif-30"/>
      </g>
     </g>
    </g>
    <g id="text_17">
     <!-- $v_{y}$ [m/s] -->
     <g transform="translate(121.365062 195.380625) scale(0.09 -0.09)">
      <defs>
       <path id="STIXGeneral-Italic-79" d="M 1555 1190 
L 1690 486 
Q 2118 1190 2294 1558 
Q 2470 1926 2470 2131 
Q 2470 2234 2304 2336 
Q 2138 2445 2138 2586 
Q 2138 2688 2211 2755 
Q 2285 2822 2394 2822 
Q 2534 2822 2630 2720 
Q 2726 2618 2726 2470 
Q 2726 1914 1888 518 
Q 1389 -307 918 -812 
Q 448 -1318 173 -1318 
Q 26 -1318 -64 -1241 
Q -154 -1165 -154 -1043 
Q -154 -934 -80 -860 
Q -6 -787 96 -787 
Q 218 -787 314 -876 
Q 410 -966 486 -966 
Q 602 -966 794 -755 
Q 877 -672 1040 -457 
Q 1203 -243 1248 -173 
Q 1312 -45 1312 51 
Q 1312 243 1113 1046 
Q 915 1850 787 2176 
Q 698 2413 592 2499 
Q 486 2586 294 2586 
Q 192 2586 96 2560 
L 96 2669 
Q 237 2694 301 2707 
Q 563 2758 986 2822 
L 1011 2822 
Q 1082 2822 1277 2227 
Q 1472 1632 1555 1190 
z
" transform="scale(0.015625)"/>
      </defs>
      <use xlink:href="#STIXGeneral-Italic-76" transform="translate(0 0.015625)"/>
      <use xlink:href="#STIXGeneral-Italic-79" transform="translate(44.399994 -13.2125) scale(0.7)"/>
      <use xlink:href="#DejaVuSerif-20" transform="translate(79.889365 0.015625)"/>
      <use xlink:href="#DejaVuSerif-5b" transform="translate(111.676474 0.015625)"/>
      <use xlink:href="#DejaVuSerif-6d" transform="translate(150.690146 0.015625)"/>
      <use xlink:href="#DejaVuSerif-2f" transform="translate(245.514365 0.015625)"/>
      <use xlink:href="#DejaVuSerif-73" transform="translate(279.205771 0.015625)"/>
      <use xlink:href="#DejaVuSerif-5d" transform="translate(330.52413 0.015625)"/>
     </g>
    </g>
   </g>
   <g id="matplotlib.axis_4">
    <g id="ytick_4">
     <g id="line2d_31">
      <path d="M 38.836562 164.243362 
L 237.193562 164.243362 
" clip-path="url(#pa384f03067)" style="fill: none; stroke-dasharray: 1.85,0.8; stroke-dashoffset: 0; stroke: #b0b0b0; stroke-opacity: 0.5; stroke-width: 0.5"/>
     </g>
     <g id="line2d_32">
      <g>
       <use xlink:href="#m50b3cbf3d5" x="38.836562" y="164.243362" style="stroke: #000000; stroke-width: 0.5"/>
      </g>
     </g>
     <g id="text_18">
      <!-- 0.0 -->
      <g transform="translate(22.614062 167.282737) scale(0.08 -0.08)">
       <use xlink:href="#DejaVuSerif-30"/>
       <use xlink:href="#DejaVuSerif-2e" x="63.623047"/>
       <use xlink:href="#DejaVuSerif-30" x="95.410156"/>
      </g>
     </g>
    </g>
    <g id="ytick_5">
     <g id="line2d_33">
      <path d="M 38.836562 131.892143 
L 237.193562 131.892143 
" clip-path="url(#pa384f03067)" style="fill: none; stroke-dasharray: 1.85,0.8; stroke-dashoffset: 0; stroke: #b0b0b0; stroke-opacity: 0.5; stroke-width: 0.5"/>
     </g>
     <g id="line2d_34">
      <g>
       <use xlink:href="#m50b3cbf3d5" x="38.836562" y="131.892143" style="stroke: #000000; stroke-width: 0.5"/>
      </g>
     </g>
     <g id="text_19">
      <!-- 5.0 -->
      <g transform="translate(22.614062 134.931518) scale(0.08 -0.08)">
       <use xlink:href="#DejaVuSerif-35"/>
       <use xlink:href="#DejaVuSerif-2e" x="63.623047"/>
       <use xlink:href="#DejaVuSerif-30" x="95.410156"/>
      </g>
     </g>
    </g>
    <g id="text_20">
     <!-- $\Delta a_{y}$ [m/s²] -->
     <g transform="translate(16.094062 164.4785) rotate(-90) scale(0.09 -0.09)">
      <use xlink:href="#STIXGeneral-Regular-394" transform="translate(0 0.015625)"/>
      <use xlink:href="#STIXGeneral-Italic-61" transform="translate(72.199982 0.015625)"/>
      <use xlink:href="#STIXGeneral-Italic-79" transform="translate(122.299973 -13.2125) scale(0.7)"/>
      <use xlink:href="#DejaVuSerif-20" transform="translate(157.789343 0.015625)"/>
      <use xlink:href="#DejaVuSerif-5b" transform="translate(189.576453 0.015625)"/>
      <use xlink:href="#DejaVuSerif-6d" transform="translate(228.590125 0.015625)"/>
      <use xlink:href="#DejaVuSerif-2f" transform="translate(323.414343 0.015625)"/>
      <use xlink:href="#DejaVuSerif-73" transform="translate(357.10575 0.015625)"/>
      <use xlink:href="#DejaVuSerif-b2" transform="translate(408.424109 0.015625)"/>
      <use xlink:href="#DejaVuSerif-5d" transform="translate(448.512 0.015625)"/>
     </g>
    </g>
   </g>
   <g id="PolyCollection_2">
    <defs>
     <path id="m5f87938bd5" d="M 47.85279 -182.25279 
L 47.85279 -174.321697 
L 48.758943 -174.053252 
L 49.665097 -173.777681 
L 50.57125 -173.497818 
L 51.477404 -173.212379 
L 52.383557 -172.921773 
L 53.289711 -172.625033 
L 54.195864 -172.321525 
L 55.102018 -172.012645 
L 56.008171 -171.698686 
L 56.914325 -171.376555 
L 57.820478 -171.051055 
L 58.726632 -170.719202 
L 59.632785 -170.381172 
L 60.538939 -170.039027 
L 61.445092 -169.688181 
L 62.351246 -169.337783 
L 63.257399 -168.977207 
L 64.163553 -168.612709 
L 65.069706 -168.242096 
L 65.97586 -167.869521 
L 66.882013 -167.49183 
L 67.788167 -167.108679 
L 68.69432 -166.723778 
L 69.600474 -166.333784 
L 70.506627 -165.938936 
L 71.412781 -165.54506 
L 72.318934 -165.144536 
L 73.225088 -164.744638 
L 74.131241 -164.340673 
L 75.037395 -163.938952 
L 75.943548 -163.531797 
L 76.849702 -163.128974 
L 77.755855 -162.719814 
L 78.662009 -162.314943 
L 79.568162 -161.910225 
L 80.474316 -161.504425 
L 81.380469 -161.09989 
L 82.286623 -160.696715 
L 83.192776 -160.294179 
L 84.09893 -159.893584 
L 85.005083 -159.496065 
L 85.911237 -159.098385 
L 86.81739 -158.703873 
L 87.723544 -158.310507 
L 88.629697 -157.92048 
L 89.535851 -157.535248 
L 90.442004 -157.151274 
L 91.348158 -156.769744 
L 92.254311 -156.390113 
L 93.160465 -156.015697 
L 94.066618 -155.642174 
L 94.972771 -155.272189 
L 95.878925 -154.904894 
L 96.785078 -154.543504 
L 97.691232 -154.182309 
L 98.597385 -153.825577 
L 99.503539 -153.47408 
L 100.409692 -153.12257 
L 101.315846 -152.776245 
L 102.221999 -152.434074 
L 103.128153 -152.092785 
L 104.034306 -151.754163 
L 104.94046 -151.421934 
L 105.846613 -151.091065 
L 106.752767 -150.764576 
L 107.65892 -150.439319 
L 108.565074 -150.118771 
L 109.471227 -149.801068 
L 110.377381 -149.486149 
L 111.283534 -149.17416 
L 112.189688 -148.866573 
L 113.095841 -148.561051 
L 114.001995 -148.256779 
L 114.908148 -147.958031 
L 115.814302 -147.659963 
L 116.720455 -147.365343 
L 117.626609 -147.072844 
L 118.532762 -146.783904 
L 119.438916 -146.495991 
L 120.345069 -146.212065 
L 121.251223 -145.928744 
L 122.157376 -145.649342 
L 123.06353 -145.373476 
L 123.969683 -145.095045 
L 124.875837 -144.823268 
L 125.78199 -144.552047 
L 126.688144 -144.283272 
L 127.594297 -144.01511 
L 128.500451 -143.749002 
L 129.406604 -143.488394 
L 130.312758 -143.226641 
L 131.218911 -142.966912 
L 132.125065 -142.709117 
L 133.031218 -142.452892 
L 133.937372 -142.200477 
L 134.843525 -141.949455 
L 135.749679 -141.699392 
L 136.655832 -141.452595 
L 137.561986 -141.206341 
L 138.468139 -140.962467 
L 139.374293 -140.721777 
L 140.280446 -140.482673 
L 141.1866 -140.246541 
L 142.092753 -140.011154 
L 142.998907 -139.778247 
L 143.90506 -139.548093 
L 144.811214 -139.320714 
L 145.717367 -139.093839 
L 146.623521 -138.870964 
L 147.529674 -138.647889 
L 148.435828 -138.430119 
L 149.341981 -138.213459 
L 150.248135 -137.999215 
L 151.154288 -137.78821 
L 152.060442 -137.5774 
L 152.966595 -137.370587 
L 153.872749 -137.16556 
L 154.778902 -136.963581 
L 155.685056 -136.763561 
L 156.591209 -136.566149 
L 157.497363 -136.371573 
L 158.403516 -136.178565 
L 159.30967 -135.987451 
L 160.215823 -135.799274 
L 161.121977 -135.614795 
L 162.02813 -135.430755 
L 162.934284 -135.251375 
L 163.840437 -135.072809 
L 164.746591 -134.897145 
L 165.652744 -134.723742 
L 166.558898 -134.5538 
L 167.465051 -134.386017 
L 168.371205 -134.219432 
L 169.277358 -134.057253 
L 170.183512 -133.896824 
L 171.089665 -133.739075 
L 171.995819 -133.584123 
L 172.901972 -133.43176 
L 173.808126 -133.282065 
L 174.714279 -133.133933 
L 175.620433 -132.989469 
L 176.526586 -132.847003 
L 177.43274 -132.707375 
L 178.338893 -132.570142 
L 179.245047 -132.436327 
L 180.1512 -132.304396 
L 181.057354 -132.175304 
L 181.963507 -132.048632 
L 182.86966 -131.924961 
L 183.775814 -131.802805 
L 184.681967 -131.683185 
L 185.588121 -131.566755 
L 186.494274 -131.453278 
L 187.400428 -131.340638 
L 188.306581 -131.231001 
L 189.212735 -131.123898 
L 190.118888 -131.018045 
L 191.025042 -130.915328 
L 191.931195 -130.813859 
L 192.837349 -130.714145 
L 193.743502 -130.616376 
L 194.649656 -130.519777 
L 195.555809 -130.424707 
L 196.461963 -130.331303 
L 197.368116 -130.238455 
L 198.27427 -130.14674 
L 199.180423 -130.0548 
L 200.086577 -129.963053 
L 200.99273 -129.872434 
L 201.898884 -129.780669 
L 202.805037 -129.688276 
L 203.711191 -129.596076 
L 204.617344 -129.502373 
L 205.523498 -129.407562 
L 206.429651 -129.311645 
L 207.335805 -129.213179 
L 208.241958 -129.113142 
L 209.148112 -129.012123 
L 210.054265 -128.907615 
L 210.960419 -128.801502 
L 211.866572 -128.691981 
L 212.772726 -128.58145 
L 213.678879 -128.466161 
L 214.585033 -128.350398 
L 215.491186 -128.230965 
L 216.39734 -128.107695 
L 217.303493 -127.983399 
L 218.209647 -127.855913 
L 219.1158 -127.725108 
L 220.021954 -127.592743 
L 220.928107 -127.457096 
L 221.834261 -127.31917 
L 222.740414 -127.178805 
L 223.646568 -127.035871 
L 224.552721 -126.89169 
L 225.458875 -126.74445 
L 226.365028 -126.594542 
L 227.271182 -126.44376 
L 228.177335 -126.289835 
L 228.177335 -134.497744 
L 228.177335 -134.497744 
L 227.271182 -134.383086 
L 226.365028 -134.27459 
L 225.458875 -134.172407 
L 224.552721 -134.074702 
L 223.646568 -133.983078 
L 222.740414 -133.897533 
L 221.834261 -133.818181 
L 220.928107 -133.745498 
L 220.021954 -133.678114 
L 219.1158 -133.617637 
L 218.209647 -133.563552 
L 217.303493 -133.515807 
L 216.39734 -133.474272 
L 215.491186 -133.439804 
L 214.585033 -133.412195 
L 213.678879 -133.390671 
L 212.772726 -133.377474 
L 211.866572 -133.368431 
L 210.960419 -133.367044 
L 210.054265 -133.37269 
L 209.148112 -133.384772 
L 208.241958 -133.40276 
L 207.335805 -133.427167 
L 206.429651 -133.457978 
L 205.523498 -133.494963 
L 204.617344 -133.537281 
L 203.711191 -133.585543 
L 202.805037 -133.638325 
L 201.898884 -133.696957 
L 200.99273 -133.75984 
L 200.086577 -133.827495 
L 199.180423 -133.900063 
L 198.27427 -133.976666 
L 197.368116 -134.057119 
L 196.461963 -134.141876 
L 195.555809 -134.228493 
L 194.649656 -134.321297 
L 193.743502 -134.416197 
L 192.837349 -134.514155 
L 191.931195 -134.615002 
L 191.025042 -134.718925 
L 190.118888 -134.825226 
L 189.212735 -134.935036 
L 188.306581 -135.047221 
L 187.400428 -135.162308 
L 186.494274 -135.279829 
L 185.588121 -135.398929 
L 184.681967 -135.521722 
L 183.775814 -135.646761 
L 182.86966 -135.774702 
L 181.963507 -135.904148 
L 181.057354 -136.03603 
L 180.1512 -136.170324 
L 179.245047 -136.307821 
L 178.338893 -136.446454 
L 177.43274 -136.588313 
L 176.526586 -136.732008 
L 175.620433 -136.878905 
L 174.714279 -137.027427 
L 173.808126 -137.178324 
L 172.901972 -137.331886 
L 171.995819 -137.487008 
L 171.089665 -137.646188 
L 170.183512 -137.80559 
L 169.277358 -137.968956 
L 168.371205 -138.134803 
L 167.465051 -138.300471 
L 166.558898 -138.469171 
L 165.652744 -138.642961 
L 164.746591 -138.816914 
L 163.840437 -138.994042 
L 162.934284 -139.173706 
L 162.02813 -139.354367 
L 161.121977 -139.538223 
L 160.215823 -139.725265 
L 159.30967 -139.91344 
L 158.403516 -140.102909 
L 157.497363 -140.295918 
L 156.591209 -140.49159 
L 155.685056 -140.690464 
L 154.778902 -140.889753 
L 153.872749 -141.091915 
L 152.966595 -141.297674 
L 152.060442 -141.504669 
L 151.154288 -141.713103 
L 150.248135 -141.92557 
L 149.341981 -142.139631 
L 148.435828 -142.356109 
L 147.529674 -142.575706 
L 146.623521 -142.796039 
L 145.717367 -143.020195 
L 144.811214 -143.245789 
L 143.90506 -143.4739 
L 142.998907 -143.705882 
L 142.092753 -143.939336 
L 141.1866 -144.174541 
L 140.280446 -144.413231 
L 139.374293 -144.651969 
L 138.468139 -144.895763 
L 137.561986 -145.140001 
L 136.655832 -145.387898 
L 135.749679 -145.637066 
L 134.843525 -145.888403 
L 133.937372 -146.143615 
L 133.031218 -146.399852 
L 132.125065 -146.657713 
L 131.218911 -146.918233 
L 130.312758 -147.181049 
L 129.406604 -147.446069 
L 128.500451 -147.714648 
L 127.594297 -147.984374 
L 126.688144 -148.255068 
L 125.78199 -148.529983 
L 124.875837 -148.806073 
L 123.969683 -149.085231 
L 123.06353 -149.364383 
L 122.157376 -149.648515 
L 121.251223 -149.93455 
L 120.345069 -150.222705 
L 119.438916 -150.511463 
L 118.532762 -150.803485 
L 117.626609 -151.099916 
L 116.720455 -151.398827 
L 115.814302 -151.696828 
L 114.908148 -151.998629 
L 114.001995 -152.305186 
L 113.095841 -152.611053 
L 112.189688 -152.921709 
L 111.283534 -153.235133 
L 110.377381 -153.549596 
L 109.471227 -153.867166 
L 108.565074 -154.189808 
L 107.65892 -154.511415 
L 106.752767 -154.837375 
L 105.846613 -155.166332 
L 104.94046 -155.497552 
L 104.034306 -155.832247 
L 103.128153 -156.168404 
L 102.221999 -156.507931 
L 101.315846 -156.850806 
L 100.409692 -157.196778 
L 99.503539 -157.543001 
L 98.597385 -157.894673 
L 97.691232 -158.250172 
L 96.785078 -158.604831 
L 95.878925 -158.965339 
L 94.972771 -159.325379 
L 94.066618 -159.69058 
L 93.160465 -160.056473 
L 92.254311 -160.427512 
L 91.348158 -160.798775 
L 90.442004 -161.174781 
L 89.535851 -161.551969 
L 88.629697 -161.932732 
L 87.723544 -162.315955 
L 86.81739 -162.699455 
L 85.911237 -163.087851 
L 85.005083 -163.476707 
L 84.09893 -163.87116 
L 83.192776 -164.266158 
L 82.286623 -164.663449 
L 81.380469 -165.063724 
L 80.474316 -165.466266 
L 79.568162 -165.871165 
L 78.662009 -166.28077 
L 77.755855 -166.691429 
L 76.849702 -167.103841 
L 75.943548 -167.521985 
L 75.037395 -167.940636 
L 74.131241 -168.364713 
L 73.225088 -168.788966 
L 72.318934 -169.2191 
L 71.412781 -169.64981 
L 70.506627 -170.088385 
L 69.600474 -170.527796 
L 68.69432 -170.970851 
L 67.788167 -171.418999 
L 66.882013 -171.870711 
L 65.97586 -172.326069 
L 65.069706 -172.787154 
L 64.163553 -173.251398 
L 63.257399 -173.719351 
L 62.351246 -174.191824 
L 61.445092 -174.669643 
L 60.538939 -175.150637 
L 59.632785 -175.636111 
L 58.726632 -176.125089 
L 57.820478 -176.617221 
L 56.914325 -177.113299 
L 56.008171 -177.612739 
L 55.102018 -178.117329 
L 54.195864 -178.623382 
L 53.289711 -179.134195 
L 52.383557 -179.64755 
L 51.477404 -180.16341 
L 50.57125 -180.682631 
L 49.665097 -181.203804 
L 48.758943 -181.72685 
L 47.85279 -182.25279 
z
" style="stroke: #e74c3c; stroke-opacity: 0.2"/>
    </defs>
    <g clip-path="url(#pa384f03067)">
     <use xlink:href="#m5f87938bd5" x="0" y="296.789812" style="fill: #e74c3c; fill-opacity: 0.2; stroke: #e74c3c; stroke-opacity: 0.2"/>
    </g>
   </g>
   <g id="line2d_35">
    <path d="M 38.836562 164.243362 
L 237.193562 164.243362 
" clip-path="url(#pa384f03067)" style="fill: none; stroke-dasharray: 3.7,1.6; stroke-dashoffset: 0; stroke: #000000; stroke-opacity: 0.7"/>
   </g>
   <g id="patch_8">
    <path d="M 38.836562 173.298125 
L 38.836562 111.738875 
" style="fill: none; stroke: #000000; stroke-width: 0.5; stroke-linejoin: miter; stroke-linecap: square"/>
   </g>
   <g id="patch_9">
    <path d="M 237.193562 173.298125 
L 237.193562 111.738875 
" style="fill: none; stroke: #000000; stroke-width: 0.5; stroke-linejoin: miter; stroke-linecap: square"/>
   </g>
   <g id="patch_10">
    <path d="M 38.836563 173.298125 
L 237.193563 173.298125 
" style="fill: none; stroke: #000000; stroke-width: 0.5; stroke-linejoin: miter; stroke-linecap: square"/>
   </g>
   <g id="patch_11">
    <path d="M 38.836563 111.738875 
L 237.193563 111.738875 
" style="fill: none; stroke: #000000; stroke-width: 0.5; stroke-linejoin: miter; stroke-linecap: square"/>
   </g>
   <g id="line2d_36">
    <path d="M 47.85279 118.502569 
L 59.632785 123.781171 
L 86.81739 136.088148 
L 95.878925 139.854696 
L 104.034306 142.996608 
L 112.189688 145.895672 
L 120.345069 148.572428 
L 129.406604 151.322581 
L 138.468139 153.860697 
L 147.529674 156.178015 
L 156.591209 158.260943 
L 165.652744 160.106461 
L 173.808126 161.559618 
L 181.963507 162.813422 
L 191.025042 163.972686 
L 200.086577 164.894538 
L 209.148112 165.591365 
L 218.209647 166.08008 
L 228.177335 166.396023 
L 228.177335 166.396023 
" clip-path="url(#pa384f03067)" style="fill: none; stroke: #e74c3c; stroke-width: 2; stroke-linecap: square"/>
   </g>
   <g id="PathCollection_3">
    <g clip-path="url(#pa384f03067)">
     <use xlink:href="#m6d5c143c23" x="198.486207" y="164.724046" style="fill: #a9bbf1; fill-opacity: 0.8; stroke: #3498db; stroke-opacity: 0.8"/>
     <use xlink:href="#m6d5c143c23" x="201.351318" y="164.974843" style="fill: #a9bbf1; fill-opacity: 0.8; stroke: #3498db; stroke-opacity: 0.8"/>
     <use xlink:href="#m6d5c143c23" x="203.788021" y="165.188366" style="fill: #a9bbf1; fill-opacity: 0.8; stroke: #3498db; stroke-opacity: 0.8"/>
     <use xlink:href="#m6d5c143c23" x="205.788009" y="165.340775" style="fill: #a9bbf1; fill-opacity: 0.8; stroke: #3498db; stroke-opacity: 0.8"/>
     <use xlink:href="#m6d5c143c23" x="207.370657" y="165.468104" style="fill: #a9bbf1; fill-opacity: 0.8; stroke: #3498db; stroke-opacity: 0.8"/>
     <use xlink:href="#m6d5c143c23" x="68.659468" y="128.009022" style="fill: #a9bbf1; fill-opacity: 0.8; stroke: #3498db; stroke-opacity: 0.8"/>
     <use xlink:href="#m6d5c143c23" x="79.820196" y="133.454301" style="fill: #a9bbf1; fill-opacity: 0.8; stroke: #3498db; stroke-opacity: 0.8"/>
     <use xlink:href="#m6d5c143c23" x="96.250746" y="140.447184" style="fill: #a9bbf1; fill-opacity: 0.8; stroke: #3498db; stroke-opacity: 0.8"/>
     <use xlink:href="#m6d5c143c23" x="113.886692" y="146.999743" style="fill: #a9bbf1; fill-opacity: 0.8; stroke: #3498db; stroke-opacity: 0.8"/>
     <use xlink:href="#m6d5c143c23" x="132.013067" y="152.728219" style="fill: #a9bbf1; fill-opacity: 0.8; stroke: #3498db; stroke-opacity: 0.8"/>
     <use xlink:href="#m6d5c143c23" x="150.02244" y="157.355847" style="fill: #a9bbf1; fill-opacity: 0.8; stroke: #3498db; stroke-opacity: 0.8"/>
     <use xlink:href="#m6d5c143c23" x="166.27792" y="160.645355" style="fill: #a9bbf1; fill-opacity: 0.8; stroke: #3498db; stroke-opacity: 0.8"/>
     <use xlink:href="#m6d5c143c23" x="179.048962" y="162.626246" style="fill: #a9bbf1; fill-opacity: 0.8; stroke: #3498db; stroke-opacity: 0.8"/>
     <use xlink:href="#m6d5c143c23" x="188.206011" y="163.843808" style="fill: #a9bbf1; fill-opacity: 0.8; stroke: #3498db; stroke-opacity: 0.8"/>
     <use xlink:href="#m6d5c143c23" x="195.296269" y="164.518825" style="fill: #a9bbf1; fill-opacity: 0.8; stroke: #3498db; stroke-opacity: 0.8"/>
     <use xlink:href="#m6d5c143c23" x="87.706736" y="136.9337" style="fill: #a9bbf1; fill-opacity: 0.8; stroke: #3498db; stroke-opacity: 0.8"/>
     <use xlink:href="#m6d5c143c23" x="160.655085" y="158.094321" style="fill: #a9bbf1; fill-opacity: 0.8; stroke: #3498db; stroke-opacity: 0.8"/>
     <use xlink:href="#m6d5c143c23" x="141.122073" y="155.252695" style="fill: #a9bbf1; fill-opacity: 0.8; stroke: #3498db; stroke-opacity: 0.8"/>
     <use xlink:href="#m6d5c143c23" x="128.570226" y="148.740066" style="fill: #a9bbf1; fill-opacity: 0.8; stroke: #3498db; stroke-opacity: 0.8"/>
     <use xlink:href="#m6d5c143c23" x="184.011915" y="163.386511" style="fill: #a9bbf1; fill-opacity: 0.8; stroke: #3498db; stroke-opacity: 0.8"/>
     <use xlink:href="#m6d5c143c23" x="68.859878" y="126.931716" style="fill: #a9bbf1; fill-opacity: 0.8; stroke: #3498db; stroke-opacity: 0.8"/>
    </g>
   </g>
   <g id="PathCollection_4">
    <g clip-path="url(#pa384f03067)">
     <use xlink:href="#m3ae1db24d9" x="89.728339" y="137.327454" style="fill: #ffffff; fill-opacity: 0.8; stroke: #d62728; stroke-opacity: 0.8"/>
     <use xlink:href="#m3ae1db24d9" x="64.502618" y="126.013086" style="fill: #ffffff; fill-opacity: 0.8; stroke: #d62728; stroke-opacity: 0.8"/>
     <use xlink:href="#m3ae1db24d9" x="64.782208" y="126.141834" style="fill: #ffffff; fill-opacity: 0.8; stroke: #d62728; stroke-opacity: 0.8"/>
     <use xlink:href="#m3ae1db24d9" x="87.631731" y="136.43622" style="fill: #ffffff; fill-opacity: 0.8; stroke: #d62728; stroke-opacity: 0.8"/>
     <use xlink:href="#m3ae1db24d9" x="114.959533" y="146.827944" style="fill: #ffffff; fill-opacity: 0.8; stroke: #d62728; stroke-opacity: 0.8"/>
     <use xlink:href="#m3ae1db24d9" x="139.870858" y="154.234256" style="fill: #ffffff; fill-opacity: 0.8; stroke: #d62728; stroke-opacity: 0.8"/>
     <use xlink:href="#m3ae1db24d9" x="159.284606" y="158.83461" style="fill: #ffffff; fill-opacity: 0.8; stroke: #d62728; stroke-opacity: 0.8"/>
     <use xlink:href="#m3ae1db24d9" x="172.276992" y="161.302424" style="fill: #ffffff; fill-opacity: 0.8; stroke: #d62728; stroke-opacity: 0.8"/>
     <use xlink:href="#m3ae1db24d9" x="180.699614" y="162.632646" style="fill: #ffffff; fill-opacity: 0.8; stroke: #d62728; stroke-opacity: 0.8"/>
     <use xlink:href="#m3ae1db24d9" x="186.317155" y="163.401172" style="fill: #ffffff; fill-opacity: 0.8; stroke: #d62728; stroke-opacity: 0.8"/>
     <use xlink:href="#m3ae1db24d9" x="189.484032" y="163.793155" style="fill: #ffffff; fill-opacity: 0.8; stroke: #d62728; stroke-opacity: 0.8"/>
    </g>
   </g>
  </g>
  <g id="axes_3">
   <g id="patch_12">
    <path d="M 38.836562 265.637 
L 237.193562 265.637 
L 237.193562 204.07775 
L 38.836562 204.07775 
z
" style="fill: #ffffff"/>
   </g>
   <g id="matplotlib.axis_5">
    <g id="xtick_12">
     <g id="line2d_37">
      <path d="M 56.698322 265.637 
L 56.698322 204.07775 
" clip-path="url(#p09caa248d2)" style="fill: none; stroke-dasharray: 1.85,0.8; stroke-dashoffset: 0; stroke: #b0b0b0; stroke-opacity: 0.5; stroke-width: 0.5"/>
     </g>
     <g id="line2d_38">
      <g>
       <use xlink:href="#m7eb714e588" x="56.698322" y="265.637" style="stroke: #000000; stroke-width: 0.5"/>
      </g>
     </g>
     <g id="text_21">
      <!-- −4 -->
      <g transform="translate(50.801447 275.21575) scale(0.08 -0.08)">
       <use xlink:href="#DejaVuSerif-2212"/>
       <use xlink:href="#DejaVuSerif-34" x="83.789062"/>
      </g>
     </g>
    </g>
    <g id="xtick_13">
     <g id="line2d_39">
      <path d="M 84.314862 265.637 
L 84.314862 204.07775 
" clip-path="url(#p09caa248d2)" style="fill: none; stroke-dasharray: 1.85,0.8; stroke-dashoffset: 0; stroke: #b0b0b0; stroke-opacity: 0.5; stroke-width: 0.5"/>
     </g>
     <g id="line2d_40">
      <g>
       <use xlink:href="#m7eb714e588" x="84.314862" y="265.637" style="stroke: #000000; stroke-width: 0.5"/>
      </g>
     </g>
     <g id="text_22">
      <!-- −2 -->
      <g transform="translate(78.417987 275.21575) scale(0.08 -0.08)">
       <use xlink:href="#DejaVuSerif-2212"/>
       <use xlink:href="#DejaVuSerif-32" x="83.789062"/>
      </g>
     </g>
    </g>
    <g id="xtick_14">
     <g id="line2d_41">
      <path d="M 111.931401 265.637 
L 111.931401 204.07775 
" clip-path="url(#p09caa248d2)" style="fill: none; stroke-dasharray: 1.85,0.8; stroke-dashoffset: 0; stroke: #b0b0b0; stroke-opacity: 0.5; stroke-width: 0.5"/>
     </g>
     <g id="line2d_42">
      <g>
       <use xlink:href="#m7eb714e588" x="111.931401" y="265.637" style="stroke: #000000; stroke-width: 0.5"/>
      </g>
     </g>
     <g id="text_23">
      <!-- 0 -->
      <g transform="translate(109.386401 275.21575) scale(0.08 -0.08)">
       <use xlink:href="#DejaVuSerif-30"/>
      </g>
     </g>
    </g>
    <g id="xtick_15">
     <g id="line2d_43">
      <path d="M 139.547941 265.637 
L 139.547941 204.07775 
" clip-path="url(#p09caa248d2)" style="fill: none; stroke-dasharray: 1.85,0.8; stroke-dashoffset: 0; stroke: #b0b0b0; stroke-opacity: 0.5; stroke-width: 0.5"/>
     </g>
     <g id="line2d_44">
      <g>
       <use xlink:href="#m7eb714e588" x="139.547941" y="265.637" style="stroke: #000000; stroke-width: 0.5"/>
      </g>
     </g>
     <g id="text_24">
      <!-- 2 -->
      <g transform="translate(137.002941 275.21575) scale(0.08 -0.08)">
       <use xlink:href="#DejaVuSerif-32"/>
      </g>
     </g>
    </g>
    <g id="xtick_16">
     <g id="line2d_45">
      <path d="M 167.164481 265.637 
L 167.164481 204.07775 
" clip-path="url(#p09caa248d2)" style="fill: none; stroke-dasharray: 1.85,0.8; stroke-dashoffset: 0; stroke: #b0b0b0; stroke-opacity: 0.5; stroke-width: 0.5"/>
     </g>
     <g id="line2d_46">
      <g>
       <use xlink:href="#m7eb714e588" x="167.164481" y="265.637" style="stroke: #000000; stroke-width: 0.5"/>
      </g>
     </g>
     <g id="text_25">
      <!-- 4 -->
      <g transform="translate(164.619481 275.21575) scale(0.08 -0.08)">
       <use xlink:href="#DejaVuSerif-34"/>
      </g>
     </g>
    </g>
    <g id="xtick_17">
     <g id="line2d_47">
      <path d="M 194.781021 265.637 
L 194.781021 204.07775 
" clip-path="url(#p09caa248d2)" style="fill: none; stroke-dasharray: 1.85,0.8; stroke-dashoffset: 0; stroke: #b0b0b0; stroke-opacity: 0.5; stroke-width: 0.5"/>
     </g>
     <g id="line2d_48">
      <g>
       <use xlink:href="#m7eb714e588" x="194.781021" y="265.637" style="stroke: #000000; stroke-width: 0.5"/>
      </g>
     </g>
     <g id="text_26">
      <!-- 6 -->
      <g transform="translate(192.236021 275.21575) scale(0.08 -0.08)">
       <use xlink:href="#DejaVuSerif-36"/>
      </g>
     </g>
    </g>
    <g id="xtick_18">
     <g id="line2d_49">
      <path d="M 222.397561 265.637 
L 222.397561 204.07775 
" clip-path="url(#p09caa248d2)" style="fill: none; stroke-dasharray: 1.85,0.8; stroke-dashoffset: 0; stroke: #b0b0b0; stroke-opacity: 0.5; stroke-width: 0.5"/>
     </g>
     <g id="line2d_50">
      <g>
       <use xlink:href="#m7eb714e588" x="222.397561" y="265.637" style="stroke: #000000; stroke-width: 0.5"/>
      </g>
     </g>
     <g id="text_27">
      <!-- 8 -->
      <g transform="translate(219.852561 275.21575) scale(0.08 -0.08)">
       <use xlink:href="#DejaVuSerif-38"/>
      </g>
     </g>
    </g>
    <g id="text_28">
     <!-- $v_{z}$ [m/s] -->
     <g transform="translate(121.545063 287.718094) scale(0.09 -0.09)">
      <defs>
       <path id="STIXGeneral-Italic-7a" d="M 2432 2669 
L 582 467 
Q 877 403 1021 307 
Q 1165 211 1350 -64 
Q 1568 -384 1798 -384 
Q 1971 -384 1971 -288 
Q 1971 -256 1939 -192 
Q 1888 -90 1888 -13 
Q 1894 70 1958 137 
Q 2022 205 2099 205 
Q 2202 205 2262 141 
Q 2323 77 2323 -32 
Q 2323 -230 2156 -374 
Q 1990 -518 1728 -518 
Q 1459 -518 1005 -237 
Q 570 32 333 32 
Q 186 32 45 -83 
L -13 -26 
L 1971 2355 
L 1101 2355 
Q 845 2355 729 2281 
Q 614 2208 518 1971 
L 416 1997 
L 621 2739 
L 2432 2739 
L 2432 2669 
z
" transform="scale(0.015625)"/>
      </defs>
      <use xlink:href="#STIXGeneral-Italic-76" transform="translate(0 0.015625)"/>
      <use xlink:href="#STIXGeneral-Italic-7a" transform="translate(44.399994 -13.2125) scale(0.7)"/>
      <use xlink:href="#DejaVuSerif-20" transform="translate(76.039365 0.015625)"/>
      <use xlink:href="#DejaVuSerif-5b" transform="translate(107.826474 0.015625)"/>
      <use xlink:href="#DejaVuSerif-6d" transform="translate(146.840146 0.015625)"/>
      <use xlink:href="#DejaVuSerif-2f" transform="translate(241.664365 0.015625)"/>
      <use xlink:href="#DejaVuSerif-73" transform="translate(275.355771 0.015625)"/>
      <use xlink:href="#DejaVuSerif-5d" transform="translate(326.67413 0.015625)"/>
     </g>
    </g>
   </g>
   <g id="matplotlib.axis_6">
    <g id="ytick_6">
     <g id="line2d_51">
      <path d="M 38.836562 259.989387 
L 237.193562 259.989387 
" clip-path="url(#p09caa248d2)" style="fill: none; stroke-dasharray: 1.85,0.8; stroke-dashoffset: 0; stroke: #b0b0b0; stroke-opacity: 0.5; stroke-width: 0.5"/>
     </g>
     <g id="line2d_52">
      <g>
       <use xlink:href="#m50b3cbf3d5" x="38.836562" y="259.989387" style="stroke: #000000; stroke-width: 0.5"/>
      </g>
     </g>
     <g id="text_29">
      <!-- -2.0 -->
      <g transform="translate(19.910312 263.028762) scale(0.08 -0.08)">
       <defs>
        <path id="DejaVuSerif-2d" d="M 281 1959 
L 1881 1959 
L 1881 1472 
L 281 1472 
L 281 1959 
z
" transform="scale(0.015625)"/>
       </defs>
       <use xlink:href="#DejaVuSerif-2d"/>
       <use xlink:href="#DejaVuSerif-32" x="33.789062"/>
       <use xlink:href="#DejaVuSerif-2e" x="97.412109"/>
       <use xlink:href="#DejaVuSerif-30" x="129.199219"/>
      </g>
     </g>
    </g>
    <g id="ytick_7">
     <g id="line2d_53">
      <path d="M 38.836562 238.435223 
L 237.193562 238.435223 
" clip-path="url(#p09caa248d2)" style="fill: none; stroke-dasharray: 1.85,0.8; stroke-dashoffset: 0; stroke: #b0b0b0; stroke-opacity: 0.5; stroke-width: 0.5"/>
     </g>
     <g id="line2d_54">
      <g>
       <use xlink:href="#m50b3cbf3d5" x="38.836562" y="238.435223" style="stroke: #000000; stroke-width: 0.5"/>
      </g>
     </g>
     <g id="text_30">
      <!-- 0.0 -->
      <g transform="translate(22.614062 241.474598) scale(0.08 -0.08)">
       <use xlink:href="#DejaVuSerif-30"/>
       <use xlink:href="#DejaVuSerif-2e" x="63.623047"/>
       <use xlink:href="#DejaVuSerif-30" x="95.410156"/>
      </g>
     </g>
    </g>
    <g id="ytick_8">
     <g id="line2d_55">
      <path d="M 38.836562 216.881058 
L 237.193562 216.881058 
" clip-path="url(#p09caa248d2)" style="fill: none; stroke-dasharray: 1.85,0.8; stroke-dashoffset: 0; stroke: #b0b0b0; stroke-opacity: 0.5; stroke-width: 0.5"/>
     </g>
     <g id="line2d_56">
      <g>
       <use xlink:href="#m50b3cbf3d5" x="38.836562" y="216.881058" style="stroke: #000000; stroke-width: 0.5"/>
      </g>
     </g>
     <g id="text_31">
      <!-- 2.0 -->
      <g transform="translate(22.614062 219.920433) scale(0.08 -0.08)">
       <use xlink:href="#DejaVuSerif-32"/>
       <use xlink:href="#DejaVuSerif-2e" x="63.623047"/>
       <use xlink:href="#DejaVuSerif-30" x="95.410156"/>
      </g>
     </g>
    </g>
    <g id="text_32">
     <!-- $\Delta a_{z}$ [m/s²] -->
     <g transform="translate(14.038594 256.637375) rotate(-90) scale(0.09 -0.09)">
      <use xlink:href="#STIXGeneral-Regular-394" transform="translate(0 0.015625)"/>
      <use xlink:href="#STIXGeneral-Italic-61" transform="translate(72.199982 0.015625)"/>
      <use xlink:href="#STIXGeneral-Italic-7a" transform="translate(122.299973 -13.2125) scale(0.7)"/>
      <use xlink:href="#DejaVuSerif-20" transform="translate(153.939343 0.015625)"/>
      <use xlink:href="#DejaVuSerif-5b" transform="translate(185.726453 0.015625)"/>
      <use xlink:href="#DejaVuSerif-6d" transform="translate(224.740125 0.015625)"/>
      <use xlink:href="#DejaVuSerif-2f" transform="translate(319.564343 0.015625)"/>
      <use xlink:href="#DejaVuSerif-73" transform="translate(353.25575 0.015625)"/>
      <use xlink:href="#DejaVuSerif-b2" transform="translate(404.574109 0.015625)"/>
      <use xlink:href="#DejaVuSerif-5d" transform="translate(444.662 0.015625)"/>
     </g>
    </g>
   </g>
   <g id="PolyCollection_3">
    <defs>
     <path id="m064e27b154" d="M 47.85279 -89.913915 
L 47.85279 -60.825914 
L 48.758943 -61.266939 
L 49.665097 -61.69992 
L 50.57125 -62.123236 
L 51.477404 -62.535017 
L 52.383557 -62.93318 
L 53.289711 -63.315625 
L 54.195864 -63.679983 
L 55.102018 -64.023822 
L 56.008171 -64.344489 
L 56.914325 -64.639174 
L 57.820478 -64.904934 
L 58.726632 -65.138673 
L 59.632785 -65.337016 
L 60.538939 -65.496793 
L 61.445092 -65.614709 
L 62.351246 -65.687427 
L 63.257399 -65.71193 
L 64.163553 -65.685715 
L 65.069706 -65.606661 
L 65.97586 -65.473575 
L 66.882013 -65.286278 
L 67.788167 -65.045986 
L 68.69432 -64.755013 
L 69.600474 -64.417263 
L 70.506627 -64.037913 
L 71.412781 -63.622999 
L 72.318934 -63.179219 
L 73.225088 -62.713466 
L 74.131241 -62.232384 
L 75.037395 -61.742246 
L 75.943548 -61.24882 
L 76.849702 -60.757203 
L 77.755855 -60.272186 
L 78.662009 -59.79795 
L 79.568162 -59.338211 
L 80.474316 -58.896222 
L 81.380469 -58.474683 
L 82.286623 -58.075601 
L 83.192776 -57.700768 
L 84.09893 -57.351335 
L 85.005083 -57.027946 
L 85.911237 -56.730945 
L 86.81739 -56.460433 
L 87.723544 -56.216192 
L 88.629697 -55.998111 
L 89.535851 -55.806015 
L 90.442004 -55.640015 
L 91.348158 -55.500357 
L 92.254311 -55.387307 
L 93.160465 -55.301239 
L 94.066618 -55.242625 
L 94.972771 -55.211806 
L 95.878925 -55.209107 
L 96.785078 -55.234744 
L 97.691232 -55.288874 
L 98.597385 -55.371574 
L 99.503539 -55.482738 
L 100.409692 -55.622213 
L 101.315846 -55.78974 
L 102.221999 -55.984604 
L 103.128153 -56.205785 
L 104.034306 -56.451738 
L 104.94046 -56.720313 
L 105.846613 -57.008767 
L 106.752767 -57.313804 
L 107.65892 -57.631571 
L 108.565074 -57.957842 
L 109.471227 -58.288229 
L 110.377381 -58.618482 
L 111.283534 -58.944716 
L 112.189688 -59.263898 
L 113.095841 -59.573902 
L 114.001995 -59.87379 
L 114.908148 -60.163642 
L 115.814302 -60.444369 
L 116.720455 -60.717597 
L 117.626609 -60.985457 
L 118.532762 -61.250304 
L 119.438916 -61.514589 
L 120.345069 -61.780751 
L 121.251223 -62.051022 
L 122.157376 -62.327267 
L 123.06353 -62.6111 
L 123.969683 -62.903738 
L 124.875837 -63.205885 
L 125.78199 -63.517865 
L 126.688144 -63.839537 
L 127.594297 -64.170263 
L 128.500451 -64.508954 
L 129.406604 -64.854109 
L 130.312758 -65.20375 
L 131.218911 -65.5555 
L 132.125065 -65.906556 
L 133.031218 -66.253945 
L 133.937372 -66.594264 
L 134.843525 -66.92412 
L 135.749679 -67.240114 
L 136.655832 -67.53877 
L 137.561986 -67.817084 
L 138.468139 -68.072546 
L 139.374293 -68.303208 
L 140.280446 -68.508 
L 141.1866 -68.68679 
L 142.092753 -68.840373 
L 142.998907 -68.970324 
L 143.90506 -69.078924 
L 144.811214 -69.168831 
L 145.717367 -69.243204 
L 146.623521 -69.30513 
L 147.529674 -69.3578 
L 148.435828 -69.404417 
L 149.341981 -69.447756 
L 150.248135 -69.49045 
L 151.154288 -69.53473 
L 152.060442 -69.58241 
L 152.966595 -69.634998 
L 153.872749 -69.693312 
L 154.778902 -69.757859 
L 155.685056 -69.828578 
L 156.591209 -69.904869 
L 157.497363 -69.985536 
L 158.403516 -70.068826 
L 159.30967 -70.152396 
L 160.215823 -70.233231 
L 161.121977 -70.307741 
L 162.02813 -70.371579 
L 162.934284 -70.419956 
L 163.840437 -70.447362 
L 164.746591 -70.447943 
L 165.652744 -70.415483 
L 166.558898 -70.343785 
L 167.465051 -70.22679 
L 168.371205 -70.058999 
L 169.277358 -69.835937 
L 170.183512 -69.554165 
L 171.089665 -69.211885 
L 171.995819 -68.809133 
L 172.901972 -68.347525 
L 173.808126 -67.830152 
L 174.714279 -67.261074 
L 175.620433 -66.645086 
L 176.526586 -65.987506 
L 177.43274 -65.293708 
L 178.338893 -64.569146 
L 179.245047 -63.819182 
L 180.1512 -63.049008 
L 181.057354 -62.263579 
L 181.963507 -61.467543 
L 182.86966 -60.665456 
L 183.775814 -59.861416 
L 184.681967 -59.059407 
L 185.588121 -58.262996 
L 186.494274 -57.475694 
L 187.400428 -56.70062 
L 188.306581 -55.940652 
L 189.212735 -55.198368 
L 190.118888 -54.476204 
L 191.025042 -53.77614 
L 191.931195 -53.099935 
L 192.837349 -52.449051 
L 193.743502 -51.824526 
L 194.649656 -51.22703 
L 195.555809 -50.656811 
L 196.461963 -50.11363 
L 197.368116 -49.596719 
L 198.27427 -49.104791 
L 199.180423 -48.6358 
L 200.086577 -48.187168 
L 200.99273 -47.755499 
L 201.898884 -47.336799 
L 202.805037 -46.926377 
L 203.711191 -46.519087 
L 204.617344 -46.109462 
L 205.523498 -45.692176 
L 206.429651 -45.262281 
L 207.335805 -44.815807 
L 208.241958 -44.350078 
L 209.148112 -43.863991 
L 210.054265 -43.358065 
L 210.960419 -42.834363 
L 211.866572 -42.295921 
L 212.772726 -41.74673 
L 213.678879 -41.191058 
L 214.585033 -40.633266 
L 215.491186 -40.07758 
L 216.39734 -39.527932 
L 217.303493 -38.987748 
L 218.209647 -38.460056 
L 219.1158 -37.947457 
L 220.021954 -37.452074 
L 220.928107 -36.975624 
L 221.834261 -36.519484 
L 222.740414 -36.084701 
L 223.646568 -35.672008 
L 224.552721 -35.281934 
L 225.458875 -34.914763 
L 226.365028 -34.570582 
L 227.271182 -34.249364 
L 228.177335 -33.95096 
L 228.177335 -65.8121 
L 228.177335 -65.8121 
L 227.271182 -65.253399 
L 226.365028 -64.700154 
L 225.458875 -64.154079 
L 224.552721 -63.617241 
L 223.646568 -63.091798 
L 222.740414 -62.580144 
L 221.834261 -62.084905 
L 220.928107 -61.609005 
L 220.021954 -61.15556 
L 219.1158 -60.728061 
L 218.209647 -60.330334 
L 217.303493 -59.96653 
L 216.39734 -59.641198 
L 215.491186 -59.359291 
L 214.585033 -59.125979 
L 213.678879 -58.946847 
L 212.772726 -58.827648 
L 211.866572 -58.774012 
L 210.960419 -58.79123 
L 210.054265 -58.884222 
L 209.148112 -59.056399 
L 208.241958 -59.309962 
L 207.335805 -59.645204 
L 206.429651 -60.060306 
L 205.523498 -60.551331 
L 204.617344 -61.112647 
L 203.711191 -61.737203 
L 202.805037 -62.417146 
L 201.898884 -63.144327 
L 200.99273 -63.91044 
L 200.086577 -64.70755 
L 199.180423 -65.528156 
L 198.27427 -66.365167 
L 197.368116 -67.212082 
L 196.461963 -68.062973 
L 195.555809 -68.912377 
L 194.649656 -69.75535 
L 193.743502 -70.587475 
L 192.837349 -71.40459 
L 191.931195 -72.203062 
L 191.025042 -72.979622 
L 190.118888 -73.731241 
L 189.212735 -74.455361 
L 188.306581 -75.149734 
L 187.400428 -75.812298 
L 186.494274 -76.441506 
L 185.588121 -77.036078 
L 184.681967 -77.595053 
L 183.775814 -78.11782 
L 182.86966 -78.604259 
L 181.963507 -79.054554 
L 181.057354 -79.469395 
L 180.1512 -79.849849 
L 179.245047 -80.197623 
L 178.338893 -80.514771 
L 177.43274 -80.803986 
L 176.526586 -81.068406 
L 175.620433 -81.311677 
L 174.714279 -81.537859 
L 173.808126 -81.751293 
L 172.901972 -81.956405 
L 171.995819 -82.157617 
L 171.089665 -82.358839 
L 170.183512 -82.563509 
L 169.277358 -82.774009 
L 168.371205 -82.991819 
L 167.465051 -83.217099 
L 166.558898 -83.44862 
L 165.652744 -83.684054 
L 164.746591 -83.920208 
L 163.840437 -84.153296 
L 162.934284 -84.379483 
L 162.02813 -84.594741 
L 161.121977 -84.795496 
L 160.215823 -84.97831 
L 159.30967 -85.140242 
L 158.403516 -85.278805 
L 157.497363 -85.39192 
L 156.591209 -85.477933 
L 155.685056 -85.535779 
L 154.778902 -85.564704 
L 153.872749 -85.564449 
L 152.966595 -85.535114 
L 152.060442 -85.477255 
L 151.154288 -85.391843 
L 150.248135 -85.280146 
L 149.341981 -85.143883 
L 148.435828 -84.985068 
L 147.529674 -84.805958 
L 146.623521 -84.609225 
L 145.717367 -84.397572 
L 144.811214 -84.173849 
L 143.90506 -83.941051 
L 142.998907 -83.70177 
L 142.092753 -83.458695 
L 141.1866 -83.213754 
L 140.280446 -82.968535 
L 139.374293 -82.723856 
L 138.468139 -82.479819 
L 137.561986 -82.23559 
L 136.655832 -81.989813 
L 135.749679 -81.740427 
L 134.843525 -81.485162 
L 133.937372 -81.221425 
L 133.031218 -80.946619 
L 132.125065 -80.658254 
L 131.218911 -80.354023 
L 130.312758 -80.031941 
L 129.406604 -79.690378 
L 128.500451 -79.328117 
L 127.594297 -78.944458 
L 126.688144 -78.539149 
L 125.78199 -78.112379 
L 124.875837 -77.66498 
L 123.969683 -77.198132 
L 123.06353 -76.71363 
L 122.157376 -76.213738 
L 121.251223 -75.701223 
L 120.345069 -75.179298 
L 119.438916 -74.651525 
L 118.532762 -74.121888 
L 117.626609 -73.594632 
L 116.720455 -73.074195 
L 115.814302 -72.564857 
L 114.908148 -72.07084 
L 114.001995 -71.596003 
L 113.095841 -71.14355 
L 112.189688 -70.715996 
L 111.283534 -70.314956 
L 110.377381 -69.94108 
L 109.471227 -69.594128 
L 108.565074 -69.27329 
L 107.65892 -68.977241 
L 106.752767 -68.704463 
L 105.846613 -68.453292 
L 104.94046 -68.222394 
L 104.034306 -68.010643 
L 103.128153 -67.81734 
L 102.221999 -67.642378 
L 101.315846 -67.48595 
L 100.409692 -67.348711 
L 99.503539 -67.231614 
L 98.597385 -67.135894 
L 97.691232 -67.062897 
L 96.785078 -67.013834 
L 95.878925 -66.990041 
L 94.972771 -66.992527 
L 94.066618 -67.022218 
L 93.160465 -67.079928 
L 92.254311 -67.166309 
L 91.348158 -67.281968 
L 90.442004 -67.426992 
L 89.535851 -67.601487 
L 88.629697 -67.805112 
L 87.723544 -68.037186 
L 86.81739 -68.297037 
L 85.911237 -68.58334 
L 85.005083 -68.894804 
L 84.09893 -69.22974 
L 83.192776 -69.586137 
L 82.286623 -69.96164 
L 81.380469 -70.353821 
L 80.474316 -70.760092 
L 79.568162 -71.178147 
L 78.662009 -71.605752 
L 77.755855 -72.041237 
L 76.849702 -72.483171 
L 75.943548 -72.930737 
L 75.037395 -73.38365 
L 74.131241 -73.842324 
L 73.225088 -74.307526 
L 72.318934 -74.780579 
L 71.412781 -75.262994 
L 70.506627 -75.756571 
L 69.600474 -76.263249 
L 68.69432 -76.78466 
L 67.788167 -77.322158 
L 66.882013 -77.876412 
L 65.97586 -78.447394 
L 65.069706 -79.033956 
L 64.163553 -79.634644 
L 63.257399 -80.246954 
L 62.351246 -80.868181 
L 61.445092 -81.495393 
L 60.538939 -82.125337 
L 59.632785 -82.755041 
L 58.726632 -83.381562 
L 57.820478 -84.002132 
L 56.914325 -84.614362 
L 56.008171 -85.216036 
L 55.102018 -85.805148 
L 54.195864 -86.380069 
L 53.289711 -86.939353 
L 52.383557 -87.481816 
L 51.477404 -88.006463 
L 50.57125 -88.512538 
L 49.665097 -88.999396 
L 48.758943 -89.466639 
L 47.85279 -89.913915 
z
" style="stroke: #e74c3c; stroke-opacity: 0.2"/>
    </defs>
    <g clip-path="url(#p09caa248d2)">
     <use xlink:href="#m064e27b154" x="0" y="296.789812" style="fill: #e74c3c; fill-opacity: 0.2; stroke: #e74c3c; stroke-opacity: 0.2"/>
    </g>
   </g>
   <g id="line2d_57">
    <path d="M 38.836562 238.435223 
L 237.193562 238.435223 
" clip-path="url(#p09caa248d2)" style="fill: none; stroke-dasharray: 3.7,1.6; stroke-dashoffset: 0; stroke: #000000; stroke-opacity: 0.7"/>
   </g>
   <g id="patch_13">
    <path d="M 38.836562 265.637 
L 38.836562 204.07775 
" style="fill: none; stroke: #000000; stroke-width: 0.5; stroke-linejoin: miter; stroke-linecap: square"/>
   </g>
   <g id="patch_14">
    <path d="M 237.193562 265.637 
L 237.193562 204.07775 
" style="fill: none; stroke: #000000; stroke-width: 0.5; stroke-linejoin: miter; stroke-linecap: square"/>
   </g>
   <g id="patch_15">
    <path d="M 38.836562 265.637 
L 237.193562 265.637 
" style="fill: none; stroke: #000000; stroke-width: 0.5; stroke-linejoin: miter; stroke-linecap: square"/>
   </g>
   <g id="patch_16">
    <path d="M 38.836562 204.07775 
L 237.193562 204.07775 
" style="fill: none; stroke: #000000; stroke-width: 0.5; stroke-linejoin: miter; stroke-linecap: square"/>
   </g>
   <g id="line2d_58">
    <path d="M 47.85279 221.419898 
L 51.477404 221.519071 
L 55.102018 221.875327 
L 57.820478 222.336279 
L 60.538939 222.978748 
L 63.257399 223.81037 
L 65.97586 224.829328 
L 69.600474 226.449557 
L 75.037395 229.226865 
L 80.474316 231.961655 
L 84.09893 233.499275 
L 86.81739 234.411078 
L 89.535851 235.086061 
L 92.254311 235.513005 
L 94.972771 235.687646 
L 97.691232 235.613927 
L 100.409692 235.304351 
L 103.128153 234.77825 
L 105.846613 234.058783 
L 109.471227 232.848634 
L 114.001995 231.054916 
L 132.125065 223.507407 
L 136.655832 222.025522 
L 140.280446 221.051545 
L 143.90506 220.279825 
L 147.529674 219.707933 
L 151.154288 219.326526 
L 154.778902 219.128531 
L 158.403516 219.115998 
L 162.02813 219.306652 
L 165.652744 219.740044 
L 168.371205 220.264403 
L 171.089665 221.00445 
L 173.808126 221.99909 
L 176.526586 223.261857 
L 179.245047 224.78141 
L 181.963507 226.528764 
L 185.588121 229.140276 
L 191.025042 233.411931 
L 197.368116 238.385412 
L 200.99273 240.956843 
L 203.711191 242.661667 
L 206.429651 244.128518 
L 209.148112 245.329617 
L 211.866572 246.254847 
L 214.585033 246.91019 
L 217.303493 247.312674 
L 220.021954 247.485995 
L 222.740414 247.457389 
L 226.365028 247.154444 
L 228.177335 246.908282 
L 228.177335 246.908282 
" clip-path="url(#p09caa248d2)" style="fill: none; stroke: #e74c3c; stroke-width: 2; stroke-linecap: square"/>
   </g>
   <g id="PathCollection_5">
    <g clip-path="url(#p09caa248d2)">
     <use xlink:href="#m6d5c143c23" x="111.067778" y="231.358467" style="fill: #a9bbf1; fill-opacity: 0.8; stroke: #3498db; stroke-opacity: 0.8"/>
     <use xlink:href="#m6d5c143c23" x="111.651637" y="232.454664" style="fill: #a9bbf1; fill-opacity: 0.8; stroke: #3498db; stroke-opacity: 0.8"/>
     <use xlink:href="#m6d5c143c23" x="111.504318" y="232.36774" style="fill: #a9bbf1; fill-opacity: 0.8; stroke: #3498db; stroke-opacity: 0.8"/>
     <use xlink:href="#m6d5c143c23" x="110.927978" y="231.788671" style="fill: #a9bbf1; fill-opacity: 0.8; stroke: #3498db; stroke-opacity: 0.8"/>
     <use xlink:href="#m6d5c143c23" x="110.392215" y="232.131873" style="fill: #a9bbf1; fill-opacity: 0.8; stroke: #3498db; stroke-opacity: 0.8"/>
     <use xlink:href="#m6d5c143c23" x="139.625037" y="220.704661" style="fill: #a9bbf1; fill-opacity: 0.8; stroke: #3498db; stroke-opacity: 0.8"/>
     <use xlink:href="#m6d5c143c23" x="111.535252" y="231.596154" style="fill: #a9bbf1; fill-opacity: 0.8; stroke: #3498db; stroke-opacity: 0.8"/>
     <use xlink:href="#m6d5c143c23" x="88.660664" y="232.793946" style="fill: #a9bbf1; fill-opacity: 0.8; stroke: #3498db; stroke-opacity: 0.8"/>
     <use xlink:href="#m6d5c143c23" x="76.560944" y="227.723054" style="fill: #a9bbf1; fill-opacity: 0.8; stroke: #3498db; stroke-opacity: 0.8"/>
     <use xlink:href="#m6d5c143c23" x="70.216012" y="225.669515" style="fill: #a9bbf1; fill-opacity: 0.8; stroke: #3498db; stroke-opacity: 0.8"/>
     <use xlink:href="#m6d5c143c23" x="68.78217" y="225.396788" style="fill: #a9bbf1; fill-opacity: 0.8; stroke: #3498db; stroke-opacity: 0.8"/>
     <use xlink:href="#m6d5c143c23" x="73.538745" y="231.7076" style="fill: #a9bbf1; fill-opacity: 0.8; stroke: #3498db; stroke-opacity: 0.8"/>
     <use xlink:href="#m6d5c143c23" x="84.132868" y="236.525277" style="fill: #a9bbf1; fill-opacity: 0.8; stroke: #3498db; stroke-opacity: 0.8"/>
     <use xlink:href="#m6d5c143c23" x="97.742848" y="237.481434" style="fill: #a9bbf1; fill-opacity: 0.8; stroke: #3498db; stroke-opacity: 0.8"/>
     <use xlink:href="#m6d5c143c23" x="107.775187" y="235.159259" style="fill: #a9bbf1; fill-opacity: 0.8; stroke: #3498db; stroke-opacity: 0.8"/>
     <use xlink:href="#m6d5c143c23" x="98.795519" y="233.726733" style="fill: #a9bbf1; fill-opacity: 0.8; stroke: #3498db; stroke-opacity: 0.8"/>
     <use xlink:href="#m6d5c143c23" x="167.870001" y="224.852449" style="fill: #a9bbf1; fill-opacity: 0.8; stroke: #3498db; stroke-opacity: 0.8"/>
     <use xlink:href="#m6d5c143c23" x="68.659468" y="224.730007" style="fill: #a9bbf1; fill-opacity: 0.8; stroke: #3498db; stroke-opacity: 0.8"/>
     <use xlink:href="#m6d5c143c23" x="207.370657" y="245.944312" style="fill: #a9bbf1; fill-opacity: 0.8; stroke: #3498db; stroke-opacity: 0.8"/>
     <use xlink:href="#m6d5c143c23" x="90.909599" y="236.197779" style="fill: #a9bbf1; fill-opacity: 0.8; stroke: #3498db; stroke-opacity: 0.8"/>
     <use xlink:href="#m6d5c143c23" x="170.550955" y="215.217073" style="fill: #a9bbf1; fill-opacity: 0.8; stroke: #3498db; stroke-opacity: 0.8"/>
    </g>
   </g>
   <g id="PathCollection_6">
    <g clip-path="url(#p09caa248d2)">
     <use xlink:href="#m3ae1db24d9" x="202.63983" y="242.016176" style="fill: #ffffff; fill-opacity: 0.8; stroke: #d62728; stroke-opacity: 0.8"/>
     <use xlink:href="#m3ae1db24d9" x="172.623808" y="221.532904" style="fill: #ffffff; fill-opacity: 0.8; stroke: #d62728; stroke-opacity: 0.8"/>
     <use xlink:href="#m3ae1db24d9" x="115.978739" y="230.214454" style="fill: #ffffff; fill-opacity: 0.8; stroke: #d62728; stroke-opacity: 0.8"/>
     <use xlink:href="#m3ae1db24d9" x="76.777912" y="230.132604" style="fill: #ffffff; fill-opacity: 0.8; stroke: #d62728; stroke-opacity: 0.8"/>
     <use xlink:href="#m3ae1db24d9" x="63.101241" y="223.757469" style="fill: #ffffff; fill-opacity: 0.8; stroke: #d62728; stroke-opacity: 0.8"/>
     <use xlink:href="#m3ae1db24d9" x="62.842986" y="223.671329" style="fill: #ffffff; fill-opacity: 0.8; stroke: #d62728; stroke-opacity: 0.8"/>
     <use xlink:href="#m3ae1db24d9" x="72.237693" y="227.768097" style="fill: #ffffff; fill-opacity: 0.8; stroke: #d62728; stroke-opacity: 0.8"/>
     <use xlink:href="#m3ae1db24d9" x="87.696624" y="234.655994" style="fill: #ffffff; fill-opacity: 0.8; stroke: #d62728; stroke-opacity: 0.8"/>
     <use xlink:href="#m3ae1db24d9" x="101.671743" y="235.08571" style="fill: #ffffff; fill-opacity: 0.8; stroke: #d62728; stroke-opacity: 0.8"/>
     <use xlink:href="#m3ae1db24d9" x="109.66762" y="232.776253" style="fill: #ffffff; fill-opacity: 0.8; stroke: #d62728; stroke-opacity: 0.8"/>
     <use xlink:href="#m3ae1db24d9" x="117.238612" y="229.668814" style="fill: #ffffff; fill-opacity: 0.8; stroke: #d62728; stroke-opacity: 0.8"/>
    </g>
   </g>
  </g>
  <g id="legend_1">
   <g id="patch_17">
    <path d="M 26.974812 19.7425 
L 214.852313 19.7425 
Q 216.452313 19.7425 216.452313 18.1425 
L 216.452313 8.8 
Q 216.452313 7.2 214.852313 7.2 
L 26.974812 7.2 
Q 25.374812 7.2 25.374812 8.8 
L 25.374812 18.1425 
Q 25.374812 19.7425 26.974812 19.7425 
z
" style="fill: #ffffff; opacity: 0.8; stroke: #cccccc; stroke-linejoin: miter"/>
   </g>
   <g id="PathCollection_7">
    <g>
     <use xlink:href="#m6d5c143c23" x="32.574812" y="13.57875" style="fill: #a9bbf1; fill-opacity: 0.8; stroke: #3498db; stroke-opacity: 0.8"/>
    </g>
   </g>
   <g id="text_33">
    <!-- Data -->
    <g transform="translate(43.774812 15.67875) scale(0.08 -0.08)">
     <defs>
      <path id="DejaVuSerif-44" d="M 1581 331 
L 2163 331 
Q 3072 331 3558 850 
Q 4044 1369 4044 2338 
Q 4044 3306 3559 3818 
Q 3075 4331 2163 4331 
L 1581 4331 
L 1581 331 
z
M 353 0 
L 353 331 
L 947 331 
L 947 4331 
L 353 4331 
L 353 4666 
L 2209 4666 
Q 3416 4666 4089 4050 
Q 4763 3434 4763 2338 
Q 4763 1238 4088 619 
Q 3413 0 2209 0 
L 353 0 
z
" transform="scale(0.015625)"/>
      <path id="DejaVuSerif-61" d="M 2547 1044 
L 2547 1747 
L 1806 1747 
Q 1378 1747 1168 1562 
Q 959 1378 959 997 
Q 959 650 1171 447 
Q 1384 244 1747 244 
Q 2106 244 2326 466 
Q 2547 688 2547 1044 
z
M 3122 2075 
L 3122 331 
L 3634 331 
L 3634 0 
L 2547 0 
L 2547 359 
Q 2356 128 2106 18 
Q 1856 -91 1522 -91 
Q 969 -91 644 203 
Q 319 497 319 997 
Q 319 1513 691 1797 
Q 1063 2081 1741 2081 
L 2547 2081 
L 2547 2309 
Q 2547 2688 2317 2895 
Q 2088 3103 1672 3103 
Q 1328 3103 1125 2947 
Q 922 2791 872 2484 
L 575 2484 
L 575 3156 
Q 875 3284 1158 3348 
Q 1441 3413 1709 3413 
Q 2400 3413 2761 3070 
Q 3122 2728 3122 2075 
z
" transform="scale(0.015625)"/>
      <path id="DejaVuSerif-74" d="M 691 2988 
L 184 2988 
L 184 3322 
L 691 3322 
L 691 4353 
L 1269 4353 
L 1269 3322 
L 2350 3322 
L 2350 2988 
L 1269 2988 
L 1269 878 
Q 1269 456 1350 337 
Q 1431 219 1650 219 
Q 1875 219 1978 351 
Q 2081 484 2088 781 
L 2522 781 
Q 2497 328 2275 118 
Q 2053 -91 1600 -91 
Q 1103 -91 897 129 
Q 691 350 691 878 
L 691 2988 
z
" transform="scale(0.015625)"/>
     </defs>
     <use xlink:href="#DejaVuSerif-44"/>
     <use xlink:href="#DejaVuSerif-61" x="80.175781"/>
     <use xlink:href="#DejaVuSerif-74" x="139.794922"/>
     <use xlink:href="#DejaVuSerif-61" x="179.980469"/>
    </g>
   </g>
   <g id="line2d_59">
    <path d="M 72.543562 12.87875 
L 77.343562 12.87875 
L 82.143562 12.87875 
" style="fill: none; stroke: #e74c3c; stroke-width: 2; stroke-linecap: square"/>
   </g>
   <g id="text_34">
    <!-- GP Fit -->
    <g transform="translate(88.543562 15.67875) scale(0.08 -0.08)">
     <defs>
      <path id="DejaVuSerif-47" d="M 4097 3272 
Q 3988 3856 3641 4136 
Q 3294 4416 2675 4416 
Q 1869 4416 1472 3897 
Q 1075 3378 1075 2328 
Q 1075 1300 1484 772 
Q 1894 244 2688 244 
Q 3041 244 3362 331 
Q 3684 419 3975 594 
L 3975 1797 
L 3097 1797 
L 3097 2131 
L 4609 2131 
L 4609 391 
Q 4194 150 3714 29 
Q 3234 -91 2688 -91 
Q 1631 -91 995 570 
Q 359 1231 359 2328 
Q 359 3434 996 4092 
Q 1634 4750 2713 4750 
Q 3113 4750 3539 4658 
Q 3966 4566 4447 4378 
L 4447 3272 
L 4097 3272 
z
" transform="scale(0.015625)"/>
      <path id="DejaVuSerif-50" d="M 1581 2375 
L 2406 2375 
Q 2872 2375 3115 2626 
Q 3359 2878 3359 3353 
Q 3359 3831 3115 4081 
Q 2872 4331 2406 4331 
L 1581 4331 
L 1581 2375 
z
M 353 0 
L 353 331 
L 947 331 
L 947 4331 
L 353 4331 
L 353 4666 
L 2559 4666 
Q 3259 4666 3668 4311 
Q 4078 3956 4078 3353 
Q 4078 2753 3668 2397 
Q 3259 2041 2559 2041 
L 1581 2041 
L 1581 331 
L 2303 331 
L 2303 0 
L 353 0 
z
" transform="scale(0.015625)"/>
      <path id="DejaVuSerif-46" d="M 353 0 
L 353 331 
L 947 331 
L 947 4331 
L 353 4331 
L 353 4666 
L 4172 4666 
L 4172 3628 
L 3788 3628 
L 3788 4281 
L 1581 4281 
L 1581 2719 
L 3175 2719 
L 3175 3303 
L 3559 3303 
L 3559 1753 
L 3175 1753 
L 3175 2338 
L 1581 2338 
L 1581 331 
L 2328 331 
L 2328 0 
L 353 0 
z
" transform="scale(0.015625)"/>
      <path id="DejaVuSerif-69" d="M 622 4353 
Q 622 4497 726 4603 
Q 831 4709 978 4709 
Q 1122 4709 1226 4603 
Q 1331 4497 1331 4353 
Q 1331 4206 1228 4103 
Q 1125 4000 978 4000 
Q 831 4000 726 4103 
Q 622 4206 622 4353 
z
M 1356 331 
L 1900 331 
L 1900 0 
L 231 0 
L 231 331 
L 781 331 
L 781 2988 
L 231 2988 
L 231 3322 
L 1356 3322 
L 1356 331 
z
" transform="scale(0.015625)"/>
     </defs>
     <use xlink:href="#DejaVuSerif-47"/>
     <use xlink:href="#DejaVuSerif-50" x="79.882812"/>
     <use xlink:href="#DejaVuSerif-20" x="147.167969"/>
     <use xlink:href="#DejaVuSerif-46" x="178.955078"/>
     <use xlink:href="#DejaVuSerif-69" x="248.339844"/>
     <use xlink:href="#DejaVuSerif-74" x="280.322266"/>
    </g>
   </g>
   <g id="patch_18">
    <path d="M 123.784812 15.67875 
L 133.384812 15.67875 
L 133.384812 10.07875 
L 123.784812 10.07875 
z
" style="fill: #e74c3c; fill-opacity: 0.2; stroke: #e74c3c; stroke-opacity: 0.2; stroke-linejoin: miter"/>
   </g>
   <g id="text_35">
    <!-- 95% CI -->
    <g transform="translate(139.784812 15.67875) scale(0.08 -0.08)">
     <defs>
      <path id="DejaVuSerif-39" d="M 2994 2091 
Q 2784 1856 2512 1740 
Q 2241 1625 1900 1625 
Q 1206 1625 804 2044 
Q 403 2463 403 3188 
Q 403 3897 839 4323 
Q 1275 4750 2003 4750 
Q 2794 4750 3217 4161 
Q 3641 3572 3641 2478 
Q 3641 1253 3137 581 
Q 2634 -91 1722 -91 
Q 1475 -91 1203 -44 
Q 931 3 647 97 
L 647 872 
L 997 872 
Q 1038 556 1241 387 
Q 1444 219 1784 219 
Q 2391 219 2687 676 
Q 2984 1134 2994 2091 
z
M 1978 4441 
Q 1534 4441 1298 4117 
Q 1063 3794 1063 3188 
Q 1063 2581 1298 2256 
Q 1534 1931 1978 1931 
Q 2422 1931 2658 2245 
Q 2894 2559 2894 3150 
Q 2894 3772 2656 4106 
Q 2419 4441 1978 4441 
z
" transform="scale(0.015625)"/>
      <path id="DejaVuSerif-25" d="M 1434 4459 
Q 1159 4459 1004 4200 
Q 850 3941 850 3475 
Q 850 3016 1008 2753 
Q 1166 2491 1434 2491 
Q 1700 2491 1854 2752 
Q 2009 3013 2009 3475 
Q 2009 3938 1854 4198 
Q 1700 4459 1434 4459 
z
M 4653 2169 
Q 4381 2169 4226 1906 
Q 4072 1644 4072 1178 
Q 4072 719 4228 458 
Q 4384 197 4653 197 
Q 4922 197 5075 458 
Q 5228 719 5228 1178 
Q 5228 1641 5073 1905 
Q 4919 2169 4653 2169 
z
M 4653 2450 
Q 5147 2450 5437 2106 
Q 5728 1763 5728 1178 
Q 5728 594 5436 251 
Q 5144 -91 4653 -91 
Q 4153 -91 3862 251 
Q 3572 594 3572 1178 
Q 3572 1766 3864 2108 
Q 4156 2450 4653 2450 
z
M 4263 4750 
L 4738 4750 
L 1819 -91 
L 1344 -91 
L 4263 4750 
z
M 1428 4750 
Q 1922 4750 2215 4408 
Q 2509 4066 2509 3481 
Q 2509 2891 2217 2550 
Q 1925 2209 1428 2209 
Q 931 2209 642 2551 
Q 353 2894 353 3481 
Q 353 4063 643 4406 
Q 934 4750 1428 4750 
z
" transform="scale(0.015625)"/>
      <path id="DejaVuSerif-43" d="M 4513 1234 
Q 4306 581 3820 245 
Q 3334 -91 2591 -91 
Q 2134 -91 1743 65 
Q 1353 222 1050 525 
Q 700 875 529 1320 
Q 359 1766 359 2328 
Q 359 3416 987 4083 
Q 1616 4750 2644 4750 
Q 3025 4750 3456 4650 
Q 3888 4550 4384 4347 
L 4384 3272 
L 4031 3272 
Q 3916 3859 3567 4137 
Q 3219 4416 2591 4416 
Q 1844 4416 1459 3886 
Q 1075 3356 1075 2328 
Q 1075 1303 1459 773 
Q 1844 244 2591 244 
Q 3113 244 3450 492 
Q 3788 741 3938 1234 
L 4513 1234 
z
" transform="scale(0.015625)"/>
      <path id="DejaVuSerif-49" d="M 1581 331 
L 2175 331 
L 2175 0 
L 353 0 
L 353 331 
L 947 331 
L 947 4331 
L 353 4331 
L 353 4666 
L 2175 4666 
L 2175 4331 
L 1581 4331 
L 1581 331 
z
" transform="scale(0.015625)"/>
     </defs>
     <use xlink:href="#DejaVuSerif-39"/>
     <use xlink:href="#DejaVuSerif-35" x="63.623047"/>
     <use xlink:href="#DejaVuSerif-25" x="127.246094"/>
     <use xlink:href="#DejaVuSerif-20" x="222.265625"/>
     <use xlink:href="#DejaVuSerif-43" x="254.052734"/>
     <use xlink:href="#DejaVuSerif-49" x="330.566406"/>
    </g>
   </g>
   <g id="PathCollection_8">
    <g>
     <use xlink:href="#m3ae1db24d9" x="183.789813" y="13.57875" style="fill: #ffffff; fill-opacity: 0.8; stroke: #d62728; stroke-opacity: 0.8"/>
    </g>
   </g>
   <g id="text_36">
    <!-- Pred -->
    <g transform="translate(194.989812 15.67875) scale(0.08 -0.08)">
     <defs>
      <path id="DejaVuSerif-72" d="M 3059 3328 
L 3059 2497 
L 2728 2497 
Q 2713 2744 2591 2866 
Q 2469 2988 2234 2988 
Q 1809 2988 1582 2694 
Q 1356 2400 1356 1850 
L 1356 331 
L 2022 331 
L 2022 0 
L 263 0 
L 263 331 
L 781 331 
L 781 2994 
L 231 2994 
L 231 3322 
L 1356 3322 
L 1356 2731 
Q 1525 3078 1790 3245 
Q 2056 3413 2438 3413 
Q 2578 3413 2733 3391 
Q 2888 3369 3059 3328 
z
" transform="scale(0.015625)"/>
      <path id="DejaVuSerif-65" d="M 3469 1600 
L 991 1600 
L 991 1575 
Q 991 903 1244 561 
Q 1497 219 1991 219 
Q 2369 219 2611 417 
Q 2853 616 2950 1006 
L 3413 1006 
Q 3275 459 2904 184 
Q 2534 -91 1931 -91 
Q 1203 -91 761 389 
Q 319 869 319 1663 
Q 319 2450 753 2931 
Q 1188 3413 1894 3413 
Q 2647 3413 3050 2948 
Q 3453 2484 3469 1600 
z
M 2791 1931 
Q 2772 2513 2545 2808 
Q 2319 3103 1894 3103 
Q 1497 3103 1269 2806 
Q 1041 2509 991 1931 
L 2791 1931 
z
" transform="scale(0.015625)"/>
      <path id="DejaVuSerif-64" d="M 3359 331 
L 3909 331 
L 3909 0 
L 2784 0 
L 2784 519 
Q 2616 206 2355 57 
Q 2094 -91 1709 -91 
Q 1097 -91 708 395 
Q 319 881 319 1663 
Q 319 2444 706 2928 
Q 1094 3413 1709 3413 
Q 2094 3413 2355 3264 
Q 2616 3116 2784 2803 
L 2784 4531 
L 2241 4531 
L 2241 4863 
L 3359 4863 
L 3359 331 
z
M 2784 1497 
L 2784 1825 
Q 2784 2422 2554 2737 
Q 2325 3053 1888 3053 
Q 1444 3053 1217 2703 
Q 991 2353 991 1663 
Q 991 975 1217 622 
Q 1444 269 1888 269 
Q 2325 269 2554 583 
Q 2784 897 2784 1497 
z
" transform="scale(0.015625)"/>
     </defs>
     <use xlink:href="#DejaVuSerif-50"/>
     <use xlink:href="#DejaVuSerif-72" x="67.285156"/>
     <use xlink:href="#DejaVuSerif-65" x="115.087891"/>
     <use xlink:href="#DejaVuSerif-64" x="174.267578"/>
    </g>
   </g>
  </g>
 </g>
 <defs>
  <clipPath id="p7b7798c4f7">
   <rect x="38.836562" y="19.4" width="198.357" height="61.55925"/>
  </clipPath>
  <clipPath id="pa384f03067">
   <rect x="38.836562" y="111.738875" width="198.357" height="61.55925"/>
  </clipPath>
  <clipPath id="p09caa248d2">
   <rect x="38.836562" y="204.07775" width="198.357" height="61.55925"/>
  </clipPath>
 </defs>
</svg>
