<?xml version="1.0" encoding="utf-8" standalone="no"?>
<!DOCTYPE svg PUBLIC "-//W3C//DTD SVG 1.1//EN"
  "http://www.w3.org/Graphics/SVG/1.1/DTD/svg11.dtd">
<!-- Created with matplotlib (https://matplotlib.org/) -->
<svg height="360pt" version="1.1" viewBox="0 0 504 360" width="504pt" xmlns="http://www.w3.org/2000/svg" xmlns:xlink="http://www.w3.org/1999/xlink">
 <defs>
  <style type="text/css">
*{stroke-linecap:butt;stroke-linejoin:round;}
  </style>
 </defs>
 <g id="figure_1">
  <g id="patch_1">
   <path d="M 0 360 
L 504 360 
L 504 0 
L 0 0 
z
" style="fill:#ffffff;"/>
  </g>
  <g id="patch_2">
   <path d="M 21.6 346.285714 
L 451.2 346.285714 
L 451.2 0 
L 21.6 0 
z
" style="fill:#ffffff;"/>
  </g>
  <g id="pane3d_1">
   <g id="patch_3">
    <path d="M 76.544294 248.580996 
L 228.524967 155.979614 
L 227.629324 9.11821 
L 65.009212 98.831753 
" style="fill:#f2f2f2;opacity:0.5;stroke:#f2f2f2;stroke-linejoin:miter;"/>
   </g>
  </g>
  <g id="pane3d_2">
   <g id="patch_4">
    <path d="M 228.524967 155.979614 
L 406.297414 232.945427 
L 417.607557 83.634645 
L 227.629324 9.11821 
" style="fill:#e6e6e6;opacity:0.5;stroke:#e6e6e6;stroke-linejoin:miter;"/>
   </g>
  </g>
  <g id="pane3d_3">
   <g id="patch_5">
    <path d="M 76.544294 248.580996 
L 257.459566 335.221165 
L 406.297414 232.945427 
L 228.524967 155.979614 
" style="fill:#ececec;opacity:0.5;stroke:#ececec;stroke-linejoin:miter;"/>
   </g>
  </g>
  <g id="axis3d_1">
   <g id="line2d_1">
    <path d="M 76.544294 248.580996 
L 257.459566 335.221165 
" style="fill:none;stroke:#000000;stroke-linecap:square;stroke-width:0.8;"/>
   </g>
   <g id="text_1">
    <!-- $p_x$ [m] -->
    <defs>
     <path d="M 49.609375 33.6875 
Q 49.609375 40.875 46.484375 44.671875 
Q 43.359375 48.484375 37.5 48.484375 
Q 33.5 48.484375 29.859375 46.4375 
Q 26.21875 44.390625 23.390625 40.484375 
Q 20.609375 36.625 18.9375 31.15625 
Q 17.28125 25.6875 17.28125 20.3125 
Q 17.28125 13.484375 20.40625 9.796875 
Q 23.53125 6.109375 29.296875 6.109375 
Q 33.546875 6.109375 37.1875 8.109375 
Q 40.828125 10.109375 43.40625 13.921875 
Q 46.1875 17.921875 47.890625 23.34375 
Q 49.609375 28.765625 49.609375 33.6875 
z
M 21.78125 46.390625 
Q 25.390625 51.125 30.296875 53.5625 
Q 35.203125 56 41.21875 56 
Q 49.609375 56 54.25 50.5 
Q 58.890625 45.015625 58.890625 35.109375 
Q 58.890625 27 56 19.65625 
Q 53.125 12.3125 47.703125 6.5 
Q 44.09375 2.640625 39.546875 0.609375 
Q 35.015625 -1.421875 29.984375 -1.421875 
Q 24.171875 -1.421875 20.21875 1 
Q 16.265625 3.421875 14.3125 8.203125 
L 8.6875 -20.796875 
L -0.296875 -20.796875 
L 14.40625 54.6875 
L 23.390625 54.6875 
z
" id="DejaVuSans-Oblique-112"/>
     <path d="M 60.015625 54.6875 
L 34.90625 27.875 
L 50.296875 0 
L 39.984375 0 
L 28.421875 21.6875 
L 8.296875 0 
L -2.59375 0 
L 24.3125 28.8125 
L 10.015625 54.6875 
L 20.3125 54.6875 
L 30.8125 34.90625 
L 49.125 54.6875 
z
" id="DejaVuSans-Oblique-120"/>
     <path id="DejaVuSans-32"/>
     <path d="M 8.59375 75.984375 
L 29.296875 75.984375 
L 29.296875 69 
L 17.578125 69 
L 17.578125 -6.203125 
L 29.296875 -6.203125 
L 29.296875 -13.1875 
L 8.59375 -13.1875 
z
" id="DejaVuSans-91"/>
     <path d="M 52 44.1875 
Q 55.375 50.25 60.0625 53.125 
Q 64.75 56 71.09375 56 
Q 79.640625 56 84.28125 50.015625 
Q 88.921875 44.046875 88.921875 33.015625 
L 88.921875 0 
L 79.890625 0 
L 79.890625 32.71875 
Q 79.890625 40.578125 77.09375 44.375 
Q 74.3125 48.1875 68.609375 48.1875 
Q 61.625 48.1875 57.5625 43.546875 
Q 53.515625 38.921875 53.515625 30.90625 
L 53.515625 0 
L 44.484375 0 
L 44.484375 32.71875 
Q 44.484375 40.625 41.703125 44.40625 
Q 38.921875 48.1875 33.109375 48.1875 
Q 26.21875 48.1875 22.15625 43.53125 
Q 18.109375 38.875 18.109375 30.90625 
L 18.109375 0 
L 9.078125 0 
L 9.078125 54.6875 
L 18.109375 54.6875 
L 18.109375 46.1875 
Q 21.1875 51.21875 25.484375 53.609375 
Q 29.78125 56 35.6875 56 
Q 41.65625 56 45.828125 52.96875 
Q 50 49.953125 52 44.1875 
z
" id="DejaVuSans-109"/>
     <path d="M 30.421875 75.984375 
L 30.421875 -13.1875 
L 9.71875 -13.1875 
L 9.71875 -6.203125 
L 21.390625 -6.203125 
L 21.390625 69 
L 9.71875 69 
L 9.71875 75.984375 
z
" id="DejaVuSans-93"/>
    </defs>
    <g transform="translate(124.026071 314.903756)rotate(-334.41028)scale(0.14 -0.14)">
     <use transform="translate(0 0.015625)" xlink:href="#DejaVuSans-Oblique-112"/>
     <use transform="translate(63.476562 -16.390625)scale(0.7)" xlink:href="#DejaVuSans-Oblique-120"/>
     <use transform="translate(107.636719 0.015625)" xlink:href="#DejaVuSans-32"/>
     <use transform="translate(139.423828 0.015625)" xlink:href="#DejaVuSans-91"/>
     <use transform="translate(178.4375 0.015625)" xlink:href="#DejaVuSans-109"/>
     <use transform="translate(275.849609 0.015625)" xlink:href="#DejaVuSans-93"/>
    </g>
   </g>
   <g id="Line3DCollection_1">
    <path d="M 97.478084 258.60617 
L 249.148636 164.908542 
L 249.605977 17.73826 
" style="fill:none;stroke:#b0b0b0;stroke-width:0.8;"/>
    <path d="M 116.644392 267.784899 
L 268.018693 173.078252 
L 269.728433 25.631025 
" style="fill:none;stroke:#b0b0b0;stroke-width:0.8;"/>
    <path d="M 136.023733 277.065648 
L 287.086533 181.333591 
L 290.075845 33.612027 
" style="fill:none;stroke:#b0b0b0;stroke-width:0.8;"/>
    <path d="M 155.619677 286.450129 
L 306.355281 189.675912 
L 310.652007 41.682753 
" style="fill:none;stroke:#b0b0b0;stroke-width:0.8;"/>
    <path d="M 175.435877 295.940091 
L 325.828129 198.106598 
L 331.460799 49.844725 
" style="fill:none;stroke:#b0b0b0;stroke-width:0.8;"/>
    <path d="M 195.476068 305.537321 
L 345.508338 206.627059 
L 352.506188 58.099499 
" style="fill:none;stroke:#b0b0b0;stroke-width:0.8;"/>
    <path d="M 215.744067 315.243648 
L 365.399237 215.238738 
L 373.792232 66.448666 
" style="fill:none;stroke:#b0b0b0;stroke-width:0.8;"/>
    <path d="M 236.243783 325.060945 
L 385.504229 223.943107 
L 395.323083 74.893856 
" style="fill:none;stroke:#b0b0b0;stroke-width:0.8;"/>
   </g>
   <g id="xtick_1">
    <g id="line2d_2">
     <path d="M 98.763382 257.812151 
L 94.903796 260.19649 
" style="fill:none;stroke:#000000;stroke-linecap:square;stroke-width:0.8;"/>
    </g>
    <g id="text_2">
     <!-- −1 -->
     <defs>
      <path d="M 10.59375 35.5 
L 73.1875 35.5 
L 73.1875 27.203125 
L 10.59375 27.203125 
z
" id="DejaVuSans-8722"/>
      <path d="M 12.40625 8.296875 
L 28.515625 8.296875 
L 28.515625 63.921875 
L 10.984375 60.40625 
L 10.984375 69.390625 
L 28.421875 72.90625 
L 38.28125 72.90625 
L 38.28125 8.296875 
L 54.390625 8.296875 
L 54.390625 0 
L 12.40625 0 
z
" id="DejaVuSans-49"/>
     </defs>
     <g transform="translate(81.500704 279.831156)scale(0.1 -0.1)">
      <use xlink:href="#DejaVuSans-8722"/>
      <use x="83.789062" xlink:href="#DejaVuSans-49"/>
     </g>
    </g>
   </g>
   <g id="xtick_2">
    <g id="line2d_3">
     <path d="M 117.927576 266.982081 
L 114.074318 269.392854 
" style="fill:none;stroke:#000000;stroke-linecap:square;stroke-width:0.8;"/>
    </g>
    <g id="text_3">
     <!-- 0 -->
     <defs>
      <path d="M 31.78125 66.40625 
Q 24.171875 66.40625 20.328125 58.90625 
Q 16.5 51.421875 16.5 36.375 
Q 16.5 21.390625 20.328125 13.890625 
Q 24.171875 6.390625 31.78125 6.390625 
Q 39.453125 6.390625 43.28125 13.890625 
Q 47.125 21.390625 47.125 36.375 
Q 47.125 51.421875 43.28125 58.90625 
Q 39.453125 66.40625 31.78125 66.40625 
z
M 31.78125 74.21875 
Q 44.046875 74.21875 50.515625 64.515625 
Q 56.984375 54.828125 56.984375 36.375 
Q 56.984375 17.96875 50.515625 8.265625 
Q 44.046875 -1.421875 31.78125 -1.421875 
Q 19.53125 -1.421875 13.0625 8.265625 
Q 6.59375 17.96875 6.59375 36.375 
Q 6.59375 54.828125 13.0625 64.515625 
Q 19.53125 74.21875 31.78125 74.21875 
z
" id="DejaVuSans-48"/>
     </defs>
     <g transform="translate(104.803055 289.082176)scale(0.1 -0.1)">
      <use xlink:href="#DejaVuSans-48"/>
     </g>
    </g>
   </g>
   <g id="xtick_3">
    <g id="line2d_4">
     <path d="M 137.304677 276.253884 
L 133.458125 278.691535 
" style="fill:none;stroke:#000000;stroke-linecap:square;stroke-width:0.8;"/>
    </g>
    <g id="text_4">
     <!-- 1 -->
     <g transform="translate(124.127926 298.435987)scale(0.1 -0.1)">
      <use xlink:href="#DejaVuSans-49"/>
     </g>
    </g>
   </g>
   <g id="xtick_4">
    <g id="line2d_5">
     <path d="M 156.89825 285.629269 
L 153.058797 288.094248 
" style="fill:none;stroke:#000000;stroke-linecap:square;stroke-width:0.8;"/>
    </g>
    <g id="text_5">
     <!-- 2 -->
     <defs>
      <path d="M 19.1875 8.296875 
L 53.609375 8.296875 
L 53.609375 0 
L 7.328125 0 
L 7.328125 8.296875 
Q 12.9375 14.109375 22.625 23.890625 
Q 32.328125 33.6875 34.8125 36.53125 
Q 39.546875 41.84375 41.421875 45.53125 
Q 43.3125 49.21875 43.3125 52.78125 
Q 43.3125 58.59375 39.234375 62.25 
Q 35.15625 65.921875 28.609375 65.921875 
Q 23.96875 65.921875 18.8125 64.3125 
Q 13.671875 62.703125 7.8125 59.421875 
L 7.8125 69.390625 
Q 13.765625 71.78125 18.9375 73 
Q 24.125 74.21875 28.421875 74.21875 
Q 39.75 74.21875 46.484375 68.546875 
Q 53.21875 62.890625 53.21875 53.421875 
Q 53.21875 48.921875 51.53125 44.890625 
Q 49.859375 40.875 45.40625 35.40625 
Q 44.1875 33.984375 37.640625 27.21875 
Q 31.109375 20.453125 19.1875 8.296875 
z
" id="DejaVuSans-50"/>
     </defs>
     <g transform="translate(143.668721 307.894312)scale(0.1 -0.1)">
      <use xlink:href="#DejaVuSans-50"/>
     </g>
    </g>
   </g>
   <g id="xtick_5">
    <g id="line2d_6">
     <path d="M 176.711945 295.10998 
L 172.879993 297.60275 
" style="fill:none;stroke:#000000;stroke-linecap:square;stroke-width:0.8;"/>
    </g>
    <g id="text_6">
     <!-- 3 -->
     <defs>
      <path d="M 40.578125 39.3125 
Q 47.65625 37.796875 51.625 33 
Q 55.609375 28.21875 55.609375 21.1875 
Q 55.609375 10.40625 48.1875 4.484375 
Q 40.765625 -1.421875 27.09375 -1.421875 
Q 22.515625 -1.421875 17.65625 -0.515625 
Q 12.796875 0.390625 7.625 2.203125 
L 7.625 11.71875 
Q 11.71875 9.328125 16.59375 8.109375 
Q 21.484375 6.890625 26.8125 6.890625 
Q 36.078125 6.890625 40.9375 10.546875 
Q 45.796875 14.203125 45.796875 21.1875 
Q 45.796875 27.640625 41.28125 31.265625 
Q 36.765625 34.90625 28.71875 34.90625 
L 20.21875 34.90625 
L 20.21875 43.015625 
L 29.109375 43.015625 
Q 36.375 43.015625 40.234375 45.921875 
Q 44.09375 48.828125 44.09375 54.296875 
Q 44.09375 59.90625 40.109375 62.90625 
Q 36.140625 65.921875 28.71875 65.921875 
Q 24.65625 65.921875 20.015625 65.03125 
Q 15.375 64.15625 9.8125 62.3125 
L 9.8125 71.09375 
Q 15.4375 72.65625 20.34375 73.4375 
Q 25.25 74.21875 29.59375 74.21875 
Q 40.828125 74.21875 47.359375 69.109375 
Q 53.90625 64.015625 53.90625 55.328125 
Q 53.90625 49.265625 50.4375 45.09375 
Q 46.96875 40.921875 40.578125 39.3125 
z
" id="DejaVuSans-51"/>
     </defs>
     <g transform="translate(163.429078 317.458911)scale(0.1 -0.1)">
      <use xlink:href="#DejaVuSans-51"/>
     </g>
    </g>
   </g>
   <g id="xtick_6">
    <g id="line2d_7">
     <path d="M 196.749492 304.697803 
L 192.925457 307.218836 
" style="fill:none;stroke:#000000;stroke-linecap:square;stroke-width:0.8;"/>
    </g>
    <g id="text_7">
     <!-- 4 -->
     <defs>
      <path d="M 37.796875 64.3125 
L 12.890625 25.390625 
L 37.796875 25.390625 
z
M 35.203125 72.90625 
L 47.609375 72.90625 
L 47.609375 25.390625 
L 58.015625 25.390625 
L 58.015625 17.1875 
L 47.609375 17.1875 
L 47.609375 0 
L 37.796875 0 
L 37.796875 17.1875 
L 4.890625 17.1875 
L 4.890625 26.703125 
z
" id="DejaVuSans-52"/>
     </defs>
     <g transform="translate(183.412721 327.131587)scale(0.1 -0.1)">
      <use xlink:href="#DejaVuSans-52"/>
     </g>
    </g>
   </g>
   <g id="xtick_7">
    <g id="line2d_8">
     <path d="M 217.014706 314.394563 
L 213.199016 316.944342 
" style="fill:none;stroke:#000000;stroke-linecap:square;stroke-width:0.8;"/>
    </g>
    <g id="text_8">
     <!-- 5 -->
     <defs>
      <path d="M 10.796875 72.90625 
L 49.515625 72.90625 
L 49.515625 64.59375 
L 19.828125 64.59375 
L 19.828125 46.734375 
Q 21.96875 47.46875 24.109375 47.828125 
Q 26.265625 48.1875 28.421875 48.1875 
Q 40.625 48.1875 47.75 41.5 
Q 54.890625 34.8125 54.890625 23.390625 
Q 54.890625 11.625 47.5625 5.09375 
Q 40.234375 -1.421875 26.90625 -1.421875 
Q 22.3125 -1.421875 17.546875 -0.640625 
Q 12.796875 0.140625 7.71875 1.703125 
L 7.71875 11.625 
Q 12.109375 9.234375 16.796875 8.0625 
Q 21.484375 6.890625 26.703125 6.890625 
Q 35.15625 6.890625 40.078125 11.328125 
Q 45.015625 15.765625 45.015625 23.390625 
Q 45.015625 31 40.078125 35.4375 
Q 35.15625 39.890625 26.703125 39.890625 
Q 22.75 39.890625 18.8125 39.015625 
Q 14.890625 38.140625 10.796875 36.28125 
z
" id="DejaVuSans-53"/>
     </defs>
     <g transform="translate(203.623453 336.914182)scale(0.1 -0.1)">
      <use xlink:href="#DejaVuSans-53"/>
     </g>
    </g>
   </g>
   <g id="xtick_8">
    <g id="line2d_9">
     <path d="M 237.511489 324.202126 
L 233.704585 326.781148 
" style="fill:none;stroke:#000000;stroke-linecap:square;stroke-width:0.8;"/>
    </g>
    <g id="text_9">
     <!-- 6 -->
     <defs>
      <path d="M 33.015625 40.375 
Q 26.375 40.375 22.484375 35.828125 
Q 18.609375 31.296875 18.609375 23.390625 
Q 18.609375 15.53125 22.484375 10.953125 
Q 26.375 6.390625 33.015625 6.390625 
Q 39.65625 6.390625 43.53125 10.953125 
Q 47.40625 15.53125 47.40625 23.390625 
Q 47.40625 31.296875 43.53125 35.828125 
Q 39.65625 40.375 33.015625 40.375 
z
M 52.59375 71.296875 
L 52.59375 62.3125 
Q 48.875 64.0625 45.09375 64.984375 
Q 41.3125 65.921875 37.59375 65.921875 
Q 27.828125 65.921875 22.671875 59.328125 
Q 17.53125 52.734375 16.796875 39.40625 
Q 19.671875 43.65625 24.015625 45.921875 
Q 28.375 48.1875 33.59375 48.1875 
Q 44.578125 48.1875 50.953125 41.515625 
Q 57.328125 34.859375 57.328125 23.390625 
Q 57.328125 12.15625 50.6875 5.359375 
Q 44.046875 -1.421875 33.015625 -1.421875 
Q 20.359375 -1.421875 13.671875 8.265625 
Q 6.984375 17.96875 6.984375 36.375 
Q 6.984375 53.65625 15.1875 63.9375 
Q 23.390625 74.21875 37.203125 74.21875 
Q 40.921875 74.21875 44.703125 73.484375 
Q 48.484375 72.75 52.59375 71.296875 
z
" id="DejaVuSans-54"/>
     </defs>
     <g transform="translate(224.06517 346.808579)scale(0.1 -0.1)">
      <use xlink:href="#DejaVuSans-54"/>
     </g>
    </g>
   </g>
  </g>
  <g id="axis3d_2">
   <g id="line2d_10">
    <path d="M 406.297414 232.945427 
L 257.459566 335.221165 
" style="fill:none;stroke:#000000;stroke-linecap:square;stroke-width:0.8;"/>
   </g>
   <g id="text_10">
    <!-- $p_y$ [m] -->
    <defs>
     <path d="M 24.8125 -5.078125 
Q 18.5625 -15.578125 14.625 -18.1875 
Q 10.6875 -20.796875 4.59375 -20.796875 
L -2.484375 -20.796875 
L -0.984375 -13.28125 
L 4.203125 -13.28125 
Q 7.953125 -13.28125 10.59375 -11.234375 
Q 13.234375 -9.1875 16.5 -3.21875 
L 19.28125 2 
L 7.171875 54.6875 
L 16.703125 54.6875 
L 25.78125 12.796875 
L 50.875 54.6875 
L 60.296875 54.6875 
z
" id="DejaVuSans-Oblique-121"/>
    </defs>
    <g transform="translate(340.275093 325.57073)rotate(-34.495377)scale(0.14 -0.14)">
     <use transform="translate(0 0.015625)" xlink:href="#DejaVuSans-Oblique-112"/>
     <use transform="translate(63.476562 -16.390625)scale(0.7)" xlink:href="#DejaVuSans-Oblique-121"/>
     <use transform="translate(107.636719 0.015625)" xlink:href="#DejaVuSans-32"/>
     <use transform="translate(139.423828 0.015625)" xlink:href="#DejaVuSans-91"/>
     <use transform="translate(178.4375 0.015625)" xlink:href="#DejaVuSans-109"/>
     <use transform="translate(275.849609 0.015625)" xlink:href="#DejaVuSans-93"/>
    </g>
   </g>
   <g id="Line3DCollection_2">
    <path d="M 71.834432 95.066446 
L 82.899193 244.708975 
L 263.700606 330.932558 
" style="fill:none;stroke:#b0b0b0;stroke-width:0.8;"/>
    <path d="M 91.82269 84.039412 
L 101.52202 233.36214 
L 281.980929 318.371012 
" style="fill:none;stroke:#b0b0b0;stroke-width:0.8;"/>
    <path d="M 111.518677 73.173617 
L 119.889986 222.170592 
L 299.998168 305.990247 
" style="fill:none;stroke:#b0b0b0;stroke-width:0.8;"/>
    <path d="M 130.928758 62.46555 
L 138.008285 211.131165 
L 317.757961 293.786389 
" style="fill:none;stroke:#b0b0b0;stroke-width:0.8;"/>
    <path d="M 150.059113 51.9118 
L 155.881975 200.240778 
L 335.265787 281.755674 
" style="fill:none;stroke:#b0b0b0;stroke-width:0.8;"/>
    <path d="M 168.915746 41.509057 
L 173.515975 189.496432 
L 352.526971 269.894441 
" style="fill:none;stroke:#b0b0b0;stroke-width:0.8;"/>
    <path d="M 187.504489 31.254101 
L 190.915076 178.895211 
L 369.546689 258.199135 
" style="fill:none;stroke:#b0b0b0;stroke-width:0.8;"/>
    <path d="M 205.831011 21.143807 
L 208.083939 168.434273 
L 386.32997 246.666299 
" style="fill:none;stroke:#b0b0b0;stroke-width:0.8;"/>
    <path d="M 223.900821 11.175134 
L 225.027104 158.110851 
L 402.88171 235.29257 
" style="fill:none;stroke:#b0b0b0;stroke-width:0.8;"/>
   </g>
   <g id="xtick_9">
    <g id="line2d_11">
     <path d="M 262.179104 330.206959 
L 266.747436 332.385581 
" style="fill:none;stroke:#000000;stroke-linecap:square;stroke-width:0.8;"/>
    </g>
    <g id="text_11">
     <!-- −2 -->
     <g transform="translate(267.065309 351.728792)scale(0.1 -0.1)">
      <use xlink:href="#DejaVuSans-8722"/>
      <use x="83.789062" xlink:href="#DejaVuSans-50"/>
     </g>
    </g>
   </g>
   <g id="xtick_10">
    <g id="line2d_12">
     <path d="M 280.462853 317.655891 
L 285.020873 319.80304 
" style="fill:none;stroke:#000000;stroke-linecap:square;stroke-width:0.8;"/>
    </g>
    <g id="text_12">
     <!-- −1 -->
     <g transform="translate(285.251389 339.083013)scale(0.1 -0.1)">
      <use xlink:href="#DejaVuSans-8722"/>
      <use x="83.789062" xlink:href="#DejaVuSans-49"/>
     </g>
    </g>
   </g>
   <g id="xtick_11">
    <g id="line2d_13">
     <path d="M 298.483576 305.285379 
L 303.031106 307.401732 
" style="fill:none;stroke:#000000;stroke-linecap:square;stroke-width:0.8;"/>
    </g>
    <g id="text_13">
     <!-- 0 -->
     <g transform="translate(307.365818 326.619065)scale(0.1 -0.1)">
      <use xlink:href="#DejaVuSans-48"/>
     </g>
    </g>
   </g>
   <g id="xtick_12">
    <g id="line2d_14">
     <path d="M 316.246909 293.091555 
L 320.783783 295.177769 
" style="fill:none;stroke:#000000;stroke-linecap:square;stroke-width:0.8;"/>
    </g>
    <g id="text_14">
     <!-- 1 -->
     <g transform="translate(325.034511 314.333054)scale(0.1 -0.1)">
      <use xlink:href="#DejaVuSans-49"/>
     </g>
    </g>
   </g>
   <g id="xtick_13">
    <g id="line2d_15">
     <path d="M 333.758328 281.07066 
L 338.284389 283.127375 
" style="fill:none;stroke:#000000;stroke-linecap:square;stroke-width:0.8;"/>
    </g>
    <g id="text_15">
     <!-- 2 -->
     <g transform="translate(342.45275 302.221197)scale(0.1 -0.1)">
      <use xlink:href="#DejaVuSans-50"/>
     </g>
    </g>
   </g>
   <g id="xtick_14">
    <g id="line2d_16">
     <path d="M 351.023154 269.219042 
L 355.538255 271.246879 
" style="fill:none;stroke:#000000;stroke-linecap:square;stroke-width:0.8;"/>
    </g>
    <g id="text_16">
     <!-- 3 -->
     <g transform="translate(359.625825 290.279816)scale(0.1 -0.1)">
      <use xlink:href="#DejaVuSans-51"/>
     </g>
    </g>
   </g>
   <g id="xtick_15">
    <g id="line2d_17">
     <path d="M 368.046559 257.533149 
L 372.550563 259.532712 
" style="fill:none;stroke:#000000;stroke-linecap:square;stroke-width:0.8;"/>
    </g>
    <g id="text_17">
     <!-- 4 -->
     <g transform="translate(376.558874 278.505338)scale(0.1 -0.1)">
      <use xlink:href="#DejaVuSans-52"/>
     </g>
    </g>
   </g>
   <g id="xtick_16">
    <g id="line2d_18">
     <path d="M 384.833571 246.009531 
L 389.32635 247.981407 
" style="fill:none;stroke:#000000;stroke-linecap:square;stroke-width:0.8;"/>
    </g>
    <g id="text_18">
     <!-- 5 -->
     <g transform="translate(393.256896 266.894288)scale(0.1 -0.1)">
      <use xlink:href="#DejaVuSans-53"/>
     </g>
    </g>
   </g>
   <g id="xtick_17">
    <g id="line2d_19">
     <path d="M 401.389081 234.644829 
L 405.870514 236.589591 
" style="fill:none;stroke:#000000;stroke-linecap:square;stroke-width:0.8;"/>
    </g>
    <g id="text_19">
     <!-- 6 -->
     <g transform="translate(409.724749 255.443286)scale(0.1 -0.1)">
      <use xlink:href="#DejaVuSans-54"/>
     </g>
    </g>
   </g>
  </g>
  <g id="axis3d_3">
   <g id="line2d_20">
    <path d="M 406.297414 232.945427 
L 417.607557 83.634645 
" style="fill:none;stroke:#000000;stroke-linecap:square;stroke-width:0.8;"/>
   </g>
   <g id="text_20">
    <!-- $p_z$ [m] -->
    <defs>
     <path d="M 11.625 54.6875 
L 54.296875 54.6875 
L 52.6875 46.484375 
L 11.53125 7.171875 
L 45.515625 7.171875 
L 44.09375 0 
L -0.296875 0 
L 1.3125 8.203125 
L 42.484375 47.515625 
L 10.203125 47.515625 
z
" id="DejaVuSans-Oblique-122"/>
    </defs>
    <g transform="translate(455.661755 180.885354)rotate(-85.668175)scale(0.14 -0.14)">
     <use transform="translate(0 0.015625)" xlink:href="#DejaVuSans-Oblique-112"/>
     <use transform="translate(63.476562 -16.390625)scale(0.7)" xlink:href="#DejaVuSans-Oblique-122"/>
     <use transform="translate(102.954102 0.015625)" xlink:href="#DejaVuSans-32"/>
     <use transform="translate(134.741211 0.015625)" xlink:href="#DejaVuSans-91"/>
     <use transform="translate(173.754883 0.015625)" xlink:href="#DejaVuSans-109"/>
     <use transform="translate(271.166992 0.015625)" xlink:href="#DejaVuSans-93"/>
    </g>
   </g>
   <g id="Line3DCollection_3">
    <path d="M 407.584764 215.950493 
L 228.422729 139.215432 
L 75.232109 231.546112 
" style="fill:none;stroke:#b0b0b0;stroke-width:0.8;"/>
    <path d="M 408.824221 199.587802 
L 228.324367 123.086599 
L 73.968553 215.142541 
" style="fill:none;stroke:#b0b0b0;stroke-width:0.8;"/>
    <path d="M 410.082398 182.977994 
L 228.22459 106.725898 
L 72.685728 198.488811 
" style="fill:none;stroke:#b0b0b0;stroke-width:0.8;"/>
    <path d="M 411.35972 166.115428 
L 228.123369 90.128294 
L 71.383188 181.579157 
" style="fill:none;stroke:#b0b0b0;stroke-width:0.8;"/>
    <path d="M 412.656629 148.994292 
L 228.020671 73.288603 
L 70.060478 164.407634 
" style="fill:none;stroke:#b0b0b0;stroke-width:0.8;"/>
    <path d="M 413.973578 131.60859 
L 227.916464 56.20149 
L 68.717123 146.96811 
" style="fill:none;stroke:#b0b0b0;stroke-width:0.8;"/>
    <path d="M 415.311037 113.952145 
L 227.810715 38.861461 
L 67.352638 129.254262 
" style="fill:none;stroke:#b0b0b0;stroke-width:0.8;"/>
    <path d="M 416.669486 96.018581 
L 227.703389 21.262859 
L 65.966518 111.259567 
" style="fill:none;stroke:#b0b0b0;stroke-width:0.8;"/>
   </g>
   <g id="xtick_18">
    <g id="line2d_21">
     <path d="M 406.080713 215.306308 
L 410.596463 217.240403 
" style="fill:none;stroke:#000000;stroke-linecap:square;stroke-width:0.8;"/>
    </g>
    <g id="text_21">
     <!-- 2.0 -->
     <defs>
      <path d="M 10.6875 12.40625 
L 21 12.40625 
L 21 0 
L 10.6875 0 
z
" id="DejaVuSans-46"/>
     </defs>
     <g transform="translate(418.358504 222.670247)scale(0.1 -0.1)">
      <use xlink:href="#DejaVuSans-50"/>
      <use x="63.623047" xlink:href="#DejaVuSans-46"/>
      <use x="95.410156" xlink:href="#DejaVuSans-48"/>
     </g>
    </g>
   </g>
   <g id="xtick_19">
    <g id="line2d_22">
     <path d="M 407.308405 198.945354 
L 411.859505 200.874245 
" style="fill:none;stroke:#000000;stroke-linecap:square;stroke-width:0.8;"/>
    </g>
    <g id="text_22">
     <!-- 2.5 -->
     <g transform="translate(419.737546 206.309926)scale(0.1 -0.1)">
      <use xlink:href="#DejaVuSans-50"/>
      <use x="63.623047" xlink:href="#DejaVuSans-46"/>
      <use x="95.410156" xlink:href="#DejaVuSans-53"/>
     </g>
    </g>
   </g>
   <g id="xtick_20">
    <g id="line2d_23">
     <path d="M 408.554631 182.337409 
L 413.141638 184.260719 
" style="fill:none;stroke:#000000;stroke-linecap:square;stroke-width:0.8;"/>
    </g>
    <g id="text_23">
     <!-- 3.0 -->
     <g transform="translate(421.137403 189.70266)scale(0.1 -0.1)">
      <use xlink:href="#DejaVuSans-51"/>
      <use x="63.623047" xlink:href="#DejaVuSans-46"/>
      <use x="95.410156" xlink:href="#DejaVuSans-48"/>
     </g>
    </g>
   </g>
   <g id="xtick_21">
    <g id="line2d_24">
     <path d="M 409.819814 165.476838 
L 414.443298 167.394172 
" style="fill:none;stroke:#000000;stroke-linecap:square;stroke-width:0.8;"/>
    </g>
    <g id="text_24">
     <!-- 3.5 -->
     <g transform="translate(422.558551 172.842816)scale(0.1 -0.1)">
      <use xlink:href="#DejaVuSans-51"/>
      <use x="63.623047" xlink:href="#DejaVuSans-46"/>
      <use x="95.410156" xlink:href="#DejaVuSans-53"/>
     </g>
    </g>
   </g>
   <g id="xtick_22">
    <g id="line2d_25">
     <path d="M 411.104389 148.357832 
L 415.764934 150.26878 
" style="fill:none;stroke:#000000;stroke-linecap:square;stroke-width:0.8;"/>
    </g>
    <g id="text_25">
     <!-- 4.0 -->
     <g transform="translate(424.001478 155.724587)scale(0.1 -0.1)">
      <use xlink:href="#DejaVuSans-52"/>
      <use x="63.623047" xlink:href="#DejaVuSans-46"/>
      <use x="95.410156" xlink:href="#DejaVuSans-48"/>
     </g>
    </g>
   </g>
   <g id="xtick_23">
    <g id="line2d_26">
     <path d="M 412.408806 130.974404 
L 417.107009 132.878539 
" style="fill:none;stroke:#000000;stroke-linecap:square;stroke-width:0.8;"/>
    </g>
    <g id="text_26">
     <!-- 4.5 -->
     <g transform="translate(425.46669 138.341987)scale(0.1 -0.1)">
      <use xlink:href="#DejaVuSans-52"/>
      <use x="63.623047" xlink:href="#DejaVuSans-46"/>
      <use x="95.410156" xlink:href="#DejaVuSans-53"/>
     </g>
    </g>
   </g>
   <g id="xtick_24">
    <g id="line2d_27">
     <path d="M 413.733528 113.32038 
L 418.470002 115.217257 
" style="fill:none;stroke:#000000;stroke-linecap:square;stroke-width:0.8;"/>
    </g>
    <g id="text_27">
     <!-- 5.0 -->
     <g transform="translate(426.954706 120.688846)scale(0.1 -0.1)">
      <use xlink:href="#DejaVuSans-53"/>
      <use x="63.623047" xlink:href="#DejaVuSans-46"/>
      <use x="95.410156" xlink:href="#DejaVuSans-48"/>
     </g>
    </g>
   </g>
   <g id="xtick_25">
    <g id="line2d_28">
     <path d="M 415.079033 95.389391 
L 419.854405 97.278547 
" style="fill:none;stroke:#000000;stroke-linecap:square;stroke-width:0.8;"/>
    </g>
    <g id="text_28">
     <!-- 5.5 -->
     <g transform="translate(428.466063 102.758796)scale(0.1 -0.1)">
      <use xlink:href="#DejaVuSans-53"/>
      <use x="63.623047" xlink:href="#DejaVuSans-46"/>
      <use x="95.410156" xlink:href="#DejaVuSans-53"/>
     </g>
    </g>
   </g>
  </g>
  <g id="axes_1">
   <g id="line2d_29">
    <path clip-path="url(#pd2eb149df0)" d="M 158.265103 199.562871 
L 164.283995 181.959571 
L 175.303128 149.158278 
L 187.727968 111.461895 
L 201.219278 70.426575 
L 202.838007 66.219995 
L 203.501066 65.044111 
L 203.721627 64.926738 
L 203.875984 65.110081 
L 203.997856 65.92189 
L 203.993657 67.929397 
L 203.595187 75.625483 
L 203.290076 83.720901 
L 203.272482 90.084251 
L 203.453477 95.282212 
L 203.848511 100.417858 
L 204.482444 105.364371 
L 205.122333 108.885651 
L 205.903661 112.204428 
L 206.822299 115.292179 
L 207.870016 118.128098 
L 209.034673 120.699018 
L 210.300505 122.999174 
L 211.648467 125.029824 
L 213.056646 126.798732 
L 214.50072 128.319539 
L 216.436468 129.994461 
L 218.323606 131.318345 
L 220.511236 132.580925 
L 224.26057 134.647609 
L 224.839601 135.282432 
L 225.006782 135.804836 
L 224.93043 136.3893 
L 224.601479 137.051617 
L 223.761724 138.07498 
L 222.463574 139.271382 
L 220.216306 141.009881 
L 216.676659 143.411067 
L 212.35821 146.055668 
L 207.461891 148.792762 
L 202.233006 151.441223 
L 197.820969 153.441815 
L 193.540856 155.139847 
L 190.328235 156.215625 
L 187.398335 156.995602 
L 184.835083 157.448645 
L 183.200804 157.561274 
L 181.847784 157.474188 
L 180.804072 157.187022 
L 180.09479 156.703229 
L 179.818686 156.274849 
L 179.706665 155.765183 
L 179.763659 155.177885 
L 179.993863 154.517229 
L 180.671251 153.399443 
L 181.754262 152.146126 
L 183.247258 150.778 
L 185.150579 149.317556 
L 187.460545 147.788585 
L 190.169496 146.215688 
L 193.265872 144.623791 
L 196.734327 143.037664 
L 200.555871 141.481463 
L 204.708054 139.978288 
L 209.165167 138.549778 
L 213.898481 137.215749 
L 218.876505 135.993871 
L 224.065276 134.899408 
L 229.428673 133.945004 
L 234.928753 133.140546 
L 240.526118 132.493086 
L 248.070579 131.880926 
L 255.618528 131.55753 
L 263.072363 131.517364 
L 270.336306 131.74788 
L 277.318397 132.230764 
L 283.932489 132.943371 
L 290.100199 133.860287 
L 295.752756 134.954969 
L 300.832734 136.20139 
L 305.29559 137.575655 
L 308.218929 138.677897 
L 310.770551 139.83382 
L 312.948263 141.038564 
L 314.755008 142.289397 
L 316.198904 143.585909 
L 317.293222 144.930151 
L 318.05626 146.326708 
L 318.511137 147.782703 
L 318.685485 149.307718 
L 318.611024 150.913632 
L 318.323046 152.614367 
L 317.673358 155.05672 
L 314.139801 166.670824 
L 313.349897 170.607049 
L 312.905813 173.83175 
L 312.622068 177.300207 
L 312.522996 181.017727 
L 312.627009 184.985503 
L 312.945924 189.200137 
L 313.484364 193.653199 
L 314.239269 198.330881 
L 315.562151 204.882714 
L 317.199924 211.736283 
L 319.572543 220.602658 
L 325.46131 242.026179 
L 326.637784 247.109734 
L 327.557864 251.963504 
L 328.1495 256.525087 
L 328.326262 259.373344 
L 328.304958 262.046586 
L 328.065933 264.527672 
L 327.590571 266.800258 
L 326.861531 268.848974 
L 325.862988 270.659604 
L 324.580859 272.219259 
L 323.003022 273.51654 
L 321.119524 274.541702 
L 318.922769 275.286791 
L 316.407697 275.745788 
L 313.571927 275.914719 
L 310.415894 275.791764 
L 306.94295 275.377337 
L 303.159437 274.674152 
L 299.074735 273.687261 
L 294.701275 272.424075 
L 290.054517 270.894358 
L 285.152894 269.11019 
L 277.369954 265.988797 
L 269.145462 262.385054 
L 260.575158 258.366327 
L 251.765328 254.008622 
L 239.8449 247.815168 
L 227.98706 241.376225 
L 213.689216 233.308876 
L 200.466797 225.597343 
L 184.60713 216.067981 
L 168.668986 206.198221 
L 158.265103 199.562871 
L 158.265103 199.562871 
" style="fill:none;stroke:#4169e1;stroke-linecap:square;stroke-width:1.5;"/>
   </g>
  </g>
 </g>
 <defs>
  <clipPath id="pd2eb149df0">
   <rect height="346.285714" width="429.6" x="21.6" y="0"/>
  </clipPath>
 </defs>
</svg>
